<?xml version="1.0" standalone="no"?>
<!DOCTYPE svg PUBLIC "-//W3C//DTD SVG 1.1//EN" "http://www.w3.org/Graphics/SVG/1.1/DTD/svg11.dtd" >
<svg xmlns="http://www.w3.org/2000/svg" xmlns:xlink="http://www.w3.org/1999/xlink" version="1.1">
<metadata>
Created by FontForge 20201107 at Fri Nov 15 16:57:23 2024
 By 
Copyright 2024 The Red Hat Project Authors (https://github.com/RedHatOfficial/RedHatFont)
</metadata>
<defs>
<font id="RedHatText-MediumItalic" horiz-adv-x="600" >
  <font-face 
    font-family="Red Hat Text Medium"
    font-weight="500"
    font-style="italic"
    font-stretch="normal"
    units-per-em="1000"
    panose-1="2 1 8 3 4 2 1 13 3 3"
    ascent="800"
    descent="-200"
    x-height="495"
    cap-height="700"
    bbox="-147 -282 1097 1009"
    underline-thickness="100"
    underline-position="-250"
    slope="-12"
    unicode-range="U+000D-FFFD"
  />
<missing-glyph horiz-adv-x="514" 
d="M60 -100v850h394v-850h-394z" />
    <glyph glyph-name="fi" unicode="fi" horiz-adv-x="619" 
d="M80 0l88 419h-103l17 76h102l23 109q16 72 60.5 110t112.5 38q23 0 45 -3.5t38 -11.5l-16 -81q-33 12 -66 12q-35 0 -54.5 -17t-27.5 -56l-21 -100h137l-17 -76h-136l-89 -419h-93zM580 605q-24 0 -39 15.5t-15 39.5q0 18 9 34t24.5 25.5t33.5 9.5q23 0 39 -16t16 -39
q0 -28 -20.5 -48.5t-47.5 -20.5zM401 0l109 495h92l-107 -495h-94z" />
    <glyph glyph-name="fl" unicode="fl" horiz-adv-x="619" 
d="M80 0l88 419h-103l17 76h102l23 109q16 72 60.5 110t112.5 38q23 0 45 -3.5t38 -11.5l-16 -81q-33 12 -66 12q-35 0 -54.5 -17t-27.5 -56l-21 -100h137l-17 -76h-136l-89 -419h-93zM401 0l152 720l95 17l-153 -737h-94z" />
    <glyph glyph-name=".notdef" horiz-adv-x="514" 
d="M60 -100v850h394v-850h-394z" />
    <glyph glyph-name=".null" horiz-adv-x="0" 
 />
    <glyph glyph-name="nonmarkingreturn" horiz-adv-x="333" 
 />
    <glyph glyph-name="CR" unicode="&#xd;" horiz-adv-x="229" 
 />
    <glyph glyph-name="space" unicode=" " horiz-adv-x="229" 
 />
    <glyph glyph-name="exclam" unicode="!" horiz-adv-x="228" 
d="M67 210l101 517h94l-124 -517h-71zM65 -9q-24 0 -39.5 16t-15.5 40q0 28 20.5 48.5t48.5 20.5q22 0 37.5 -16t15.5 -39q0 -18 -9.5 -34t-24.5 -26t-33 -10z" />
    <glyph glyph-name="quotedbl" unicode="&#x22;" horiz-adv-x="392" 
d="M126 508l37 242h90l-61 -242h-66zM287 508l37 242h90l-61 -242h-66z" />
    <glyph glyph-name="numbersign" unicode="#" horiz-adv-x="689" 
d="M-7 0l116 210h-89l15 72h113l75 136h-113l16 72h136l115 210h84l-115 -210h167l115 210h83l-116 -210h89l-16 -72h-112l-75 -136h111l-15 -72h-135l-116 -210h-82l115 210h-168l-115 -210h-83zM231 282h168l74 136h-167z" />
    <glyph glyph-name="dollar" unicode="$" horiz-adv-x="549" 
d="M174 -67l20 91q-98 17 -179 91l53 66q36 -31 71 -50t72 -27l46 219l-44 15q-55 21 -86.5 60.5t-31.5 89.5q0 91 64.5 142.5t173.5 51.5l18 85h55l-19 -91q46 -9 89 -32t78 -58l-58 -64q-29 29 -60.5 48t-65.5 27l-43 -204l41 -14q65 -25 97 -63t32 -89q0 -63 -31.5 -110
t-88 -72.5t-130.5 -25.5l-18 -86h-55zM274 407l43 197q-63 0 -99.5 -28t-36.5 -76q0 -28 17 -49t49 -34zM265 99q43 0 76 14t51 39.5t18 58.5q0 30 -19.5 51.5t-60.5 37.5l-21 8z" />
    <glyph glyph-name="percent" unicode="%" horiz-adv-x="773" 
d="M209 345q-58 0 -92.5 38t-34.5 101q0 61 23.5 111t63 80t87.5 30q58 0 92.5 -37.5t34.5 -101.5q0 -61 -23.5 -111t-63.5 -80t-87 -30zM214 400q30 0 55 22.5t40 59.5t15 82q0 41 -20 64t-55 23q-28 0 -53.5 -22.5t-40 -59.5t-14.5 -82q0 -41 19.5 -64t53.5 -23zM103 0
l535 700h70l-538 -700h-67zM554 -5q-57 0 -91.5 37.5t-34.5 101.5q0 61 23.5 111t63 80t87.5 30q58 0 92.5 -37.5t34.5 -101.5q0 -60 -23.5 -110.5t-63.5 -80.5t-88 -30zM560 50q30 0 55 22.5t40 59.5t15 82q0 41 -20 64t-55 23q-29 0 -54 -22.5t-39.5 -59.5t-14.5 -82
q0 -41 19.5 -64t53.5 -23z" />
    <glyph glyph-name="ampersand" unicode="&#x26;" horiz-adv-x="662" 
d="M605 53l-64 -65q-21 17 -42 37t-43 42q-95 -78 -212 -78q-67 0 -118 23t-79 63.5t-28 95.5q0 48 19 86.5t61 72.5t111 66q-18 38 -25.5 66t-7.5 58q0 55 25 98.5t68.5 68t98.5 24.5q46 0 81 -17t55 -47.5t20 -70.5q0 -55 -34.5 -98t-107.5 -80l-56 -27q31 -48 66.5 -94
t71.5 -88q29 35 54.5 78t44.5 93l81 -22q-26 -62 -57.5 -113.5t-67.5 -92.5q22 -21 43 -41t42 -38zM264 530q0 -24 7 -46.5t22 -52.5l57 28q44 22 65 48t21 58q0 33 -20 53t-54 20q-43 0 -70.5 -30.5t-27.5 -77.5zM109 186q0 -54 40 -87t105 -33q40 0 77.5 15t72.5 42
q-39 43 -77.5 94.5t-80.5 116.5q-76 -35 -106.5 -69.5t-30.5 -78.5z" />
    <glyph glyph-name="quotesingle" unicode="'" horiz-adv-x="228" 
d="M126 508l37 242h90l-61 -242h-66z" />
    <glyph glyph-name="parenleft" unicode="(" horiz-adv-x="400" 
d="M209 -217q-75 61 -113 150.5t-38 203.5q0 124 42 236t119 200t181 138l36 -67q-65 -31 -118.5 -83.5t-92.5 -118t-60 -141t-21 -156.5q0 -199 126 -305z" />
    <glyph glyph-name="parenright" unicode=")" horiz-adv-x="400" 
d="M190 711q75 -61 113 -150.5t38 -202.5q0 -124 -42 -236.5t-118.5 -200t-181.5 -138.5l-36 67q66 32 119 84t92 117.5t60 141.5t21 156q0 199 -126 305z" />
    <glyph glyph-name="asterisk" unicode="*" horiz-adv-x="455" 
d="M213 333l30 131l-119 -63l-23 60l127 62l-95 78l43 50l90 -77l25 126h61l-27 -127l116 61l25 -57l-127 -63l96 -78l-45 -51l-89 77l-26 -129h-62z" />
    <glyph glyph-name="plus" unicode="+" horiz-adv-x="599" 
d="M239 140l38 178h-166l16 76h166l39 179h76l-39 -179h167l-17 -76h-166l-38 -178h-76z" />
    <glyph glyph-name="comma" unicode="," horiz-adv-x="250" 
d="M-53 -162l111 249h97l-137 -249h-71z" />
    <glyph glyph-name="hyphen" unicode="-" horiz-adv-x="450" 
d="M55 242l18 81h334l-18 -81h-334z" />
    <glyph glyph-name="period" unicode="." horiz-adv-x="250" 
d="M76 -9q-23 0 -39 16.5t-16 41.5q0 19 9.5 35t25.5 26t34 10q23 0 38.5 -16.5t15.5 -40.5q0 -19 -9.5 -35.5t-25 -26.5t-33.5 -10z" />
    <glyph glyph-name="slash" unicode="/" horiz-adv-x="478" 
d="M-147 -209l584 909h97l-585 -909h-96z" />
    <glyph glyph-name="zero" unicode="0" horiz-adv-x="660" 
d="M397 711q72 0 125.5 -34t82.5 -96t29 -146q0 -91 -26 -171.5t-71.5 -142.5t-105 -97t-127.5 -35q-72 0 -125.5 34t-83 96t-29.5 146q0 90 26 171t72 143t106 97t127 35zM386 629q-46 0 -87 -28.5t-73 -79t-50 -116t-18 -138.5q0 -91 42 -143.5t114 -52.5q47 0 88 28.5
t72.5 79t50 116t18.5 138.5q0 92 -41.5 144t-115.5 52z" />
    <glyph glyph-name="one" unicode="1" horiz-adv-x="320" 
d="M100 0l127 602l-126 -52l17 83l165 67h56l-149 -700h-90z" />
    <glyph glyph-name="two" unicode="2" 
d="M25 0l13 67l367 329q42 37 61 70.5t19 67.5q0 42 -34 68.5t-87 26.5q-43 0 -85 -18t-98 -59l-40 67q61 46 119.5 69t117.5 23t103 -21t69 -58t25 -86q0 -55 -25.5 -100.5t-87.5 -99.5l-300 -268l335 1l-16 -79h-456z" />
    <glyph glyph-name="three" unicode="3" 
d="M271 -11q-79 0 -142.5 33.5t-108.5 93.5l68 54q41 -53 87 -76.5t102 -23.5q48 0 84 17t56.5 47.5t20.5 69.5q0 32 -16 57.5t-45.5 40t-70.5 14.5h-62l17 78h75q41 0 73.5 17t51.5 45t19 62q0 46 -35 78.5t-99 32.5q-48 0 -90 -16t-85 -51l-47 64q45 41 102.5 63t122.5 22
q71 0 121.5 -24.5t77 -65t26.5 -88.5q0 -63 -39.5 -112.5t-119.5 -71.5q54 -18 83.5 -57t29.5 -88q0 -62 -33.5 -110.5t-91.5 -76.5t-132 -28z" />
    <glyph glyph-name="four" unicode="4" horiz-adv-x="631" 
d="M358 0l38 179h-374l17 75l458 446h101l-93 -440h93l-17 -81h-93l-39 -179h-91zM149 260h264l70 326z" />
    <glyph glyph-name="five" unicode="5" 
d="M264 -11q-76 0 -138.5 29.5t-103.5 82.5l64 59q38 -47 83 -69t100 -22q50 0 88.5 21.5t61.5 58.5t23 83q0 60 -41 95t-110 35q-29 0 -60 -7t-67 -23l-61 26l87 342h408l-18 -80h-327l-54 -211q34 14 63 20t60 6q65 0 113 -23.5t74 -66.5t26 -102q0 -53 -21 -99
t-58.5 -80.5t-86.5 -54.5t-105 -20z" />
    <glyph glyph-name="six" unicode="6" 
d="M306 -11q-68 0 -124 34t-89.5 98t-33.5 154q0 99 27.5 179t76.5 137.5t112.5 88.5t136.5 31q59 0 107 -18t88 -51l-54 -71q-35 30 -70.5 44t-72.5 14q-64 0 -118.5 -36t-91.5 -100.5t-48 -151.5q41 46 91.5 71t105.5 25q63 0 111.5 -26.5t75.5 -71.5t27 -102
q0 -55 -20.5 -100.5t-56.5 -78.5t-82.5 -51t-97.5 -18zM315 70q45 0 80.5 21t56 57.5t20.5 83.5q0 58 -39 95t-105 37q-49 0 -95.5 -21.5t-83.5 -59.5q0 -68 21.5 -115.5t59 -72.5t85.5 -25z" />
    <glyph glyph-name="seven" unicode="7" 
d="M61 0l466 619h-406l18 81h508l-16 -70l-459 -630h-111z" />
    <glyph glyph-name="eight" unicode="8" 
d="M279 -10q-72 0 -127.5 25t-86 68t-30.5 97q0 47 23 87t64.5 68.5t97.5 39.5q-46 20 -70 56t-24 79q0 60 33.5 105t88.5 70.5t120 25.5q68 0 115.5 -23.5t73.5 -63t26 -86.5q0 -43 -19.5 -78.5t-55.5 -62t-84 -39.5q52 -21 84.5 -62.5t32.5 -94.5q0 -62 -35.5 -109.5
t-95 -74.5t-131.5 -27zM348 402q40 0 72.5 16.5t52.5 45.5t20 64q0 47 -33 77.5t-100 30.5q-39 0 -72 -16.5t-53 -45t-20 -65.5q0 -45 36.5 -76t96.5 -31zM286 64q73 0 118.5 39t45.5 99q0 35 -19.5 63.5t-54 45.5t-82.5 17q-74 0 -120 -38t-46 -98q0 -35 19 -64t55 -46.5
t84 -17.5z" />
    <glyph glyph-name="nine" unicode="9" horiz-adv-x="615" 
d="M337 711q68 0 124 -34t89.5 -97.5t33.5 -154.5q0 -98 -27.5 -178.5t-76.5 -138t-113 -88.5t-136 -31q-59 0 -106.5 18t-88.5 51l53 71q37 -30 72 -44t72 -14q64 0 118.5 36t91.5 101t47 151q-40 -46 -90.5 -71t-105.5 -25q-63 0 -111.5 26.5t-75.5 72t-27 101.5
q0 55 20.5 100.5t56 78.5t82 51t98.5 18zM327 630q-44 0 -79.5 -21t-56.5 -57.5t-21 -83.5q0 -58 39.5 -95t105.5 -37q49 0 95.5 21.5t83.5 59.5q-1 69 -22.5 116t-58.5 72t-86 25z" />
    <glyph glyph-name="colon" unicode=":" horiz-adv-x="250" 
d="M76 -9q-23 0 -39 16.5t-16 41.5q0 19 9.5 35t25.5 26t34 10q23 0 38.5 -16.5t15.5 -40.5q0 -19 -9.5 -35.5t-25 -26.5t-33.5 -10zM159 376q-23 0 -39 16.5t-16 41.5q0 19 9.5 35t25.5 26t34 10q23 0 38.5 -16.5t15.5 -40.5q0 -19 -9.5 -35.5t-25 -26.5t-33.5 -10z" />
    <glyph glyph-name="semicolon" unicode=";" horiz-adv-x="250" 
d="M166 376q-23 0 -39 16.5t-16 41.5q0 19 9.5 35t25.5 26t34 10q23 0 38.5 -16.5t15.5 -40.5q0 -19 -9.5 -35.5t-25 -26.5t-33.5 -10zM-55 -162l111 249h97l-137 -249h-71z" />
    <glyph glyph-name="less" unicode="&#x3c;" horiz-adv-x="599" 
d="M404 88l-271 261l375 259l40 -63l-298 -202l212 -198z" />
    <glyph glyph-name="equal" unicode="=" 
d="M93 231l16 76h408l-17 -76h-407zM130 403l16 76h408l-17 -76h-407z" />
    <glyph glyph-name="greater" unicode="&#x3e;" 
d="M240 608l271 -260l-375 -260l-40 63l298 203l-212 198z" />
    <glyph glyph-name="question" unicode="?" horiz-adv-x="507" 
d="M177 -9q-23 0 -38 16t-15 40q0 28 20.5 48.5t47.5 20.5q23 0 37.5 -16t14.5 -39q0 -18 -9 -34t-24.5 -26t-33.5 -10zM175 213q11 65 36.5 105t77.5 70l61 37q38 23 58.5 52.5t20.5 60.5q0 38 -31 62.5t-81 24.5q-42 0 -82.5 -20.5t-73.5 -57.5l-61 44q46 56 106 86.5
t123 30.5q57 0 99.5 -20t67 -55t24.5 -83q0 -56 -31.5 -101.5t-102.5 -87.5l-51 -31q-38 -21 -57 -48t-26 -69h-77z" />
    <glyph glyph-name="at" unicode="@" horiz-adv-x="774" 
d="M399 -144q-76 0 -139.5 26.5t-111 74t-73.5 111.5t-26 139q0 79 26.5 147t73 118.5t110 78t137.5 27.5q69 0 128 -23t103 -64.5t68.5 -97.5t24.5 -121q0 -63 -23 -113t-62.5 -78.5t-89.5 -28.5q-68 0 -94 41q-24 -21 -49.5 -32t-52.5 -11q-39 0 -70.5 20t-50 54.5
t-18.5 77.5q0 50 22.5 90.5t60 65t84.5 24.5q27 0 51.5 -9.5t41.5 -27.5l5 24h69l-40 -197q-6 -32 7 -49.5t42 -17.5q33 0 58 21t39.5 58.5t14.5 83.5q0 75 -35.5 134t-96.5 92.5t-139 33.5q-62 0 -114.5 -24t-92 -67.5t-62 -101.5t-22.5 -125q0 -88 38.5 -156t105.5 -107
t154 -39q89 0 161 39l21 -46q-43 -22 -88.5 -33.5t-95.5 -11.5zM364 108q41 0 73 32q-1 9 -0.5 18.5t2.5 21.5l19 100q-12 21 -33.5 31.5t-47.5 10.5q-28 0 -50.5 -15.5t-36 -41.5t-13.5 -57q0 -45 24.5 -72.5t62.5 -27.5z" />
    <glyph glyph-name="A" unicode="A" horiz-adv-x="667" 
d="M-46 0l415 700h116l121 -700h-101l-33 207h-291l-118 -207h-109zM225 286h235l-52 321z" />
    <glyph glyph-name="B" unicode="B" horiz-adv-x="670" 
d="M31 0l149 700h273q58 0 100.5 -19t66 -54.5t23.5 -84.5q0 -65 -40.5 -114.5t-106.5 -69.5q51 -17 80.5 -53.5t29.5 -87.5q0 -62 -33 -111.5t-89.5 -77.5t-128.5 -28h-324zM214 400h189q62 0 100.5 35t38.5 89q0 43 -28.5 68t-79.5 25h-174zM146 83h207q45 0 80 17.5
t54.5 48.5t19.5 71q0 47 -32 74t-89 27h-189z" />
    <glyph glyph-name="C" unicode="C" horiz-adv-x="713" 
d="M400 -11q-70 0 -129.5 25t-104 70t-69 105.5t-24.5 131.5q0 80 29.5 150t81 124t120 84.5t146.5 30.5q85 0 153 -33.5t111 -97.5l-75 -64q-31 50 -82 77.5t-113 27.5q-56 0 -105 -23t-86.5 -63.5t-58.5 -93.5t-21 -115q0 -70 31 -126t84 -88t120 -32q56 0 108 22.5
t93 64.5l53 -67q-54 -52 -123 -81t-139 -29z" />
    <glyph glyph-name="D" unicode="D" horiz-adv-x="724" 
d="M31 0l149 700h209q90 0 157.5 -39t106 -109t38.5 -162q0 -80 -30.5 -150.5t-84 -124.5t-123.5 -84.5t-151 -30.5h-271zM383 612h-124l-111 -524h166q58 0 107.5 23t87 63.5t59 94.5t21.5 116q0 68 -26 118.5t-72.5 79.5t-107.5 29z" />
    <glyph glyph-name="E" unicode="E" horiz-adv-x="619" 
d="M31 0l149 700h480l-19 -86h-382l-46 -218h266l-18 -85h-266l-48 -225h386l-18 -86h-484z" />
    <glyph glyph-name="F" unicode="F" horiz-adv-x="611" 
d="M31 0l149 700h481l-19 -86h-383l-47 -223h263l-18 -85h-263l-65 -306h-98z" />
    <glyph glyph-name="G" unicode="G" horiz-adv-x="786" 
d="M392 -10q-68 0 -127 24.5t-102.5 69.5t-68 105t-24.5 130q0 80 29.5 151t82.5 125.5t121.5 85t145.5 30.5q88 0 160 -35t118 -101l-77 -63q-32 51 -87 80t-121 29q-57 0 -106 -23t-86.5 -64.5t-58.5 -95t-21 -115.5q0 -71 29.5 -126t82 -86.5t118.5 -31.5
q58 0 107.5 26.5t84.5 74t48 108.5h-217l16 87h318l-10 -57q-17 -96 -68 -170.5t-125 -116t-162 -41.5z" />
    <glyph glyph-name="H" unicode="H" horiz-adv-x="725" 
d="M27 0l149 700h98l-64 -303h365l65 303h99l-149 -700h-99l66 308h-366l-66 -308h-98z" />
    <glyph glyph-name="I" unicode="I" horiz-adv-x="260" 
d="M27 0l149 700h98l-149 -700h-98z" />
    <glyph glyph-name="J" unicode="J" horiz-adv-x="605" 
d="M249 -11q-95 0 -157 51t-78 142l90 31q12 -66 48 -100t96 -34q70 0 120.5 50t69.5 138l92 433h99l-95 -446q-17 -84 -57 -143.5t-98 -90.5t-130 -31z" />
    <glyph glyph-name="K" unicode="K" horiz-adv-x="628" 
d="M31 0l149 700h98l-68 -315l378 315h128l-414 -341l270 -359h-123l-248 339l-72 -339h-98z" />
    <glyph glyph-name="L" unicode="L" horiz-adv-x="605" 
d="M31 0l149 700h98l-131 -613h375l-18 -87h-473z" />
    <glyph glyph-name="M" unicode="M" horiz-adv-x="859" 
d="M31 0l149 700h127l117 -459l310 459h135l-149 -700h-91l122 575l-363 -525l-142 530l-123 -580h-92z" />
    <glyph glyph-name="N" unicode="N" horiz-adv-x="737" 
d="M31 0l148 700h98l264 -551l112 551h93l-148 -700h-88l-271 563l-116 -563h-92z" />
    <glyph glyph-name="O" unicode="O" horiz-adv-x="795" 
d="M392 -11q-68 0 -126.5 25t-102 70t-67.5 105.5t-24 130.5q0 80 29.5 150.5t80.5 124.5t118 85t142 31q69 0 127 -25t101.5 -70t67.5 -105t24 -131q0 -80 -29 -150.5t-80 -124.5t-118 -85t-143 -31zM399 79q54 0 101.5 23.5t84 64t57 94t20.5 113.5q0 71 -29 127t-80.5 88
t-115.5 32q-55 0 -103 -23.5t-84.5 -64t-57 -94t-20.5 -113.5q0 -70 29.5 -126t81 -88.5t116.5 -32.5z" />
    <glyph glyph-name="P" unicode="P" horiz-adv-x="654" 
d="M31 0l149 700h271q63 0 109 -23t71 -65t25 -100q0 -68 -32.5 -121.5t-89.5 -84t-130 -30.5h-217l-58 -276h-98zM205 359h193q47 0 83 18.5t56 51.5t20 77q0 51 -33.5 79.5t-92.5 28.5h-171z" />
    <glyph glyph-name="Q" unicode="Q" horiz-adv-x="795" 
d="M586 -31l-36 60q-36 -19 -75.5 -29.5t-82.5 -10.5q-68 0 -126.5 25t-102 70t-67.5 105.5t-24 130.5q0 80 29.5 150.5t80.5 124.5t118 85t142 31q69 0 127 -25t101.5 -70t67.5 -105t24 -131q0 -92 -38.5 -172t-103.5 -134l58 -96zM398 79q29 0 55.5 7t50.5 20l-74 123
l92 8l51 -83q41 41 65 97.5t24 122.5q0 71 -29 127t-80.5 88t-115.5 32q-55 0 -103 -23.5t-84.5 -64t-57 -94t-20.5 -113.5q0 -70 29.5 -126t81 -88.5t115.5 -32.5z" />
    <glyph glyph-name="R" unicode="R" horiz-adv-x="647" 
d="M31 0l149 700h274q61 0 106 -22.5t69.5 -64t24.5 -96.5q0 -56 -23.5 -101.5t-65.5 -77t-97 -42.5l94 -296h-104l-87 289h-181l-61 -289h-98zM207 371h198q44 0 78 17.5t53.5 49t19.5 71.5q0 49 -32 77t-86 28h-178z" />
    <glyph glyph-name="S" unicode="S" horiz-adv-x="619" 
d="M309 -10q-85 0 -159 34.5t-136 103.5l63 68q62 -63 119 -93.5t118 -30.5q48 0 84.5 16.5t58 45.5t21.5 66q0 39 -27.5 62.5t-94.5 42.5l-115 29q-76 20 -115 63.5t-39 106.5q0 62 31 108.5t87 71.5t130 25q82 0 156 -28.5t128 -81.5l-61 -71q-48 48 -106.5 73t-121.5 25
q-67 0 -107 -29.5t-40 -79.5q0 -38 25 -62t78 -38l112 -28q92 -25 135 -67.5t43 -107.5q0 -67 -34 -117.5t-94 -78.5t-139 -28z" />
    <glyph glyph-name="T" unicode="T" horiz-adv-x="617" 
d="M205 0l131 613h-235l20 87h563l-19 -87h-231l-131 -613h-98z" />
    <glyph glyph-name="U" unicode="U" horiz-adv-x="707" 
d="M327 -11q-93 0 -154.5 41t-85.5 113.5t-4 167.5l83 389h99l-85 -397q-14 -65 0.5 -116t54 -79.5t97.5 -28.5q79 0 135 57t78 156l87 408h98l-89 -416q-19 -93 -63 -159t-107.5 -101t-143.5 -35z" />
    <glyph glyph-name="V" unicode="V" horiz-adv-x="667" 
d="M224 0l-121 700h100l97 -602l347 602h107l-414 -700h-116z" />
    <glyph glyph-name="W" unicode="W" horiz-adv-x="900" 
d="M134 0l-1 700h97l-5 -541l271 541h94l43 -541l223 541h101l-298 -700h-102l-43 559l-279 -559h-101z" />
    <glyph glyph-name="X" unicode="X" horiz-adv-x="666" 
d="M-46 0l345 366l-174 334h111l133 -262l245 262h121l-323 -342l187 -358h-110l-147 287l-265 -287h-123z" />
    <glyph glyph-name="Y" unicode="Y" horiz-adv-x="655" 
d="M223 0l60 282l-180 418h105l139 -332l278 332h117l-361 -421l-59 -279h-99z" />
    <glyph glyph-name="Z" unicode="Z" horiz-adv-x="597" 
d="M-19 0l15 68l509 548l-392 -2l19 86h523l-16 -68l-509 -548l402 2l-19 -86h-532z" />
    <glyph glyph-name="bracketleft" unicode="[" horiz-adv-x="369" 
d="M-33 -215l195 915h251l-16 -76h-164l-162 -763h164l-17 -76h-251z" />
    <glyph glyph-name="backslash" unicode="\" horiz-adv-x="440" 
d="M317 -209l-200 909h89l200 -909h-89z" />
    <glyph glyph-name="bracketright" unicode="]" horiz-adv-x="369" 
d="M396 700l-195 -915h-251l17 76h164l162 763h-164l16 76h251z" />
    <glyph glyph-name="asciicircum" unicode="^" 
d="M108 350l249 350h80l99 -350h-77l-76 272l-191 -272h-84z" />
    <glyph glyph-name="underscore" unicode="_" horiz-adv-x="451" 
d="M-87 -150l15 70h453l-15 -70h-453z" />
    <glyph glyph-name="grave" unicode="`" 
d="M340 588l-153 128h123l115 -128h-85z" />
    <glyph glyph-name="a" unicode="a" horiz-adv-x="529" 
d="M188 -6q-73 0 -117.5 37.5t-44.5 99.5q0 48 24 83.5t67.5 55.5t101.5 20q43 0 82.5 -10.5t70.5 -30.5l11 51q14 62 -13 93t-95 31q-29 0 -62 -7.5t-76 -26.5l-24 71q51 21 96 31t86 10q70 0 115 -24t62.5 -68t3.5 -105l-67 -305h-92l10 46q-35 -27 -68.5 -39.5
t-70.5 -12.5zM219 61q33 0 62.5 10.5t58.5 32.5l20 88q-26 18 -58.5 26t-72.5 8q-51 0 -83 -24t-32 -62q0 -37 27.5 -58t77.5 -21z" />
    <glyph glyph-name="b" unicode="b" horiz-adv-x="586" 
d="M282 -7q-51 0 -90.5 22.5t-64.5 63.5l-18 -79h-92l152 720l95 17l-61 -296q28 28 63.5 43t76.5 15q55 0 99 -30t69.5 -80.5t25.5 -114.5q0 -58 -20 -108.5t-54.5 -89.5t-81 -61t-99.5 -22zM270 74q50 0 89.5 26t63 69.5t23.5 96.5q0 69 -39 111t-101 42q-33 0 -63 -12.5
t-55 -37.5l-47 -222q19 -33 53.5 -53t75.5 -20z" />
    <glyph glyph-name="c" unicode="c" horiz-adv-x="505" 
d="M264 -9q-62 0 -111 28.5t-77 79.5t-28 115q0 59 21 111.5t58 92t86 62t104 22.5q59 0 110.5 -26t80.5 -71l-68 -57q-22 34 -54 52t-72 18q-47 0 -86.5 -27t-63.5 -72t-24 -99q0 -42 18 -75.5t49.5 -52.5t71.5 -19q34 0 65.5 12.5t58.5 34.5l44 -60q-38 -34 -85.5 -51.5
t-97.5 -17.5z" />
    <glyph glyph-name="d" unicode="d" horiz-adv-x="585" 
d="M243 -6q-56 0 -100 29.5t-69 80.5t-25 115q0 57 19.5 108t54.5 89.5t81 60.5t99 22q49 0 88 -19.5t65 -57.5l61 298l96 17l-154 -737h-92l10 46q-27 -24 -61.5 -38t-72.5 -14zM279 74q63 0 113 44l48 235q-18 29 -51.5 47t-72.5 18q-49 0 -89 -25.5t-63.5 -68.5
t-23.5 -98q0 -67 39 -109.5t100 -42.5z" />
    <glyph glyph-name="e" unicode="e" horiz-adv-x="554" 
d="M277 -9q-67 0 -119 29t-81 81t-29 119q0 58 20 109t55.5 90t82.5 61.5t100 22.5q59 0 105 -28t72 -77.5t26 -113.5q0 -16 -0.5 -30t-3.5 -29h-367q0 -43 18.5 -78.5t51.5 -56.5t76 -21q33 0 65 11t56 31l50 -63q-45 -30 -87.5 -43.5t-90.5 -13.5zM146 287h277
q0 39 -16 69.5t-43.5 48.5t-63.5 18t-67.5 -17t-53.5 -48t-33 -71z" />
    <glyph glyph-name="f" unicode="f" horiz-adv-x="384" 
d="M80 0l88 419h-103l17 76h102l23 109q16 72 60.5 110t112.5 38q23 0 45 -3.5t38 -11.5l-16 -81q-33 12 -66 12q-35 0 -54.5 -17t-27.5 -56l-21 -100h137l-17 -76h-136l-89 -419h-93z" />
    <glyph glyph-name="g" unicode="g" horiz-adv-x="580" 
d="M236 -219q-55 0 -114 20t-103 53l45 67q85 -61 168 -61q51 0 84.5 26.5t43.5 76.5l18 86q-27 -26 -61.5 -39.5t-72.5 -13.5q-56 0 -100.5 29.5t-69.5 79.5t-25 114q0 58 19.5 108.5t55 89t81 60.5t98.5 22q49 0 88.5 -19.5t64.5 -57.5l15 73h92l-113 -541
q-18 -84 -73 -128.5t-141 -44.5zM280 75q31 0 60 11.5t53 33.5l48 234q-19 29 -53 46.5t-72 17.5q-49 0 -88.5 -25.5t-63 -68.5t-23.5 -97q0 -68 38.5 -110t100.5 -42z" />
    <glyph glyph-name="h" unicode="h" horiz-adv-x="558" 
d="M17 0l150 720l97 17l-66 -321q35 43 75.5 64.5t86.5 21.5q54 0 90.5 -25t50.5 -68t1 -100l-66 -309h-93l62 288q14 62 -12 100t-82 38q-36 0 -68.5 -17.5t-56.5 -48.5l-75 -360h-94z" />
    <glyph glyph-name="i" unicode="i" horiz-adv-x="235" 
d="M196 605q-24 0 -39 15.5t-15 39.5q0 18 9 34t24.5 25.5t33.5 9.5q23 0 39 -16t16 -39q0 -28 -20.5 -48.5t-47.5 -20.5zM17 0l109 495h92l-107 -495h-94z" />
    <glyph glyph-name="j" unicode="j" horiz-adv-x="235" 
d="M196 605q-24 0 -39 15.5t-15 39.5q0 18 9 34t24.5 25.5t33.5 9.5q23 0 39 -16t16 -39q0 -28 -20.5 -48.5t-47.5 -20.5zM-57 -219q-16 0 -33.5 2.5t-28.5 7.5l17 77q9 -3 19 -4.5t24 -1.5q25 0 40 13t21 43l124 577h93l-127 -586q-13 -61 -52 -94.5t-97 -33.5z" />
    <glyph glyph-name="k" unicode="k" horiz-adv-x="503" 
d="M17 0l152 720l96 17l-96 -458l256 216h119l-295 -244l194 -251h-110l-174 232l-48 -232h-94z" />
    <glyph glyph-name="l" unicode="l" horiz-adv-x="235" 
d="M17 0l152 720l95 17l-153 -737h-94z" />
    <glyph glyph-name="m" unicode="m" horiz-adv-x="844" 
d="M17 0l109 495h92l-17 -80q35 43 73 65t80 22q51 0 85.5 -28t45.5 -74q80 102 177 102q49 0 81.5 -24.5t45 -67.5t0.5 -98l-67 -312h-92l64 300q12 55 -11.5 90.5t-71.5 35.5q-32 0 -62 -17.5t-60 -55.5q0 -9 -1 -19.5t-4 -21.5l-67 -312h-93l63 295q13 58 -10 94.5
t-72 36.5q-63 0 -116 -65l-78 -361h-94z" />
    <glyph glyph-name="n" unicode="n" horiz-adv-x="558" 
d="M17 0l109 495h92l-15 -73q33 39 73 59.5t84 20.5q54 0 90.5 -25t50.5 -68t1 -100l-66 -309h-93l62 288q14 62 -12 100t-82 38q-33 0 -64 -15.5t-57 -45.5l-79 -365h-94z" />
    <glyph glyph-name="o" unicode="o" horiz-adv-x="580" 
d="M266 -10q-63 0 -112.5 30t-77.5 82t-28 119q0 59 21 110t57 90t84 61t102 22q65 0 114 -29.5t77 -82t28 -119.5q0 -58 -20.5 -109t-57.5 -90t-84.5 -61.5t-102.5 -22.5zM271 73q48 0 85.5 26t59.5 71.5t22 101.5q0 67 -35.5 108.5t-95.5 41.5q-46 0 -84 -26.5
t-60.5 -71.5t-22.5 -100q0 -68 36.5 -109.5t94.5 -41.5z" />
    <glyph glyph-name="p" unicode="p" horiz-adv-x="586" 
d="M-26 -209l152 704h91l-11 -52q58 56 137 56q55 0 99 -30t69.5 -80.5t25.5 -114.5q0 -58 -20 -108.5t-54.5 -89.5t-81 -61t-99.5 -22q-49 0 -89 21t-64 61l-62 -284h-93zM306 419q-63 0 -114 -46l-49 -228q19 -32 52.5 -51.5t74.5 -19.5q50 0 89.5 26t63 69.5t23.5 96.5
q0 69 -39 111t-101 42z" />
    <glyph glyph-name="q" unicode="q" horiz-adv-x="585" 
d="M322 -209l56 256q-28 -25 -62 -39t-73 -14q-56 0 -100 29.5t-69 80.5t-25 115q0 57 19.5 108t54.5 89.5t81 60.5t99 22q50 0 89.5 -20.5t65.5 -61.5l17 78h92l-151 -704h-94zM279 74q33 0 61.5 11.5t53.5 34.5l49 230q-19 31 -53 49.5t-74 18.5q-49 0 -89 -25.5
t-63.5 -68.5t-23.5 -98q0 -67 39 -109.5t100 -42.5z" />
    <glyph glyph-name="r" unicode="r" horiz-adv-x="366" 
d="M16 0l108 495h93l-21 -95q30 51 68 77.5t80 26.5q31 0 54 -11l-18 -84q-10 6 -27.5 9.5t-34.5 3.5q-38 0 -73 -21.5t-62 -60.5l-74 -340h-93z" />
    <glyph glyph-name="s" unicode="s" horiz-adv-x="458" 
d="M212 -10q-62 0 -117 22t-95 63l54 59q46 -39 81.5 -55t78.5 -16q44 0 73.5 23t29.5 56q0 23 -14.5 37t-51.5 24l-81 21q-58 17 -86.5 48.5t-28.5 79.5q0 68 49.5 110t130.5 42q56 0 105.5 -18.5t93.5 -55.5l-54 -61q-37 29 -76 45t-74 16q-41 0 -66.5 -18t-25.5 -49
q0 -24 14.5 -38t49.5 -24l81 -23q63 -17 92.5 -46.5t29.5 -76.5t-25.5 -84.5t-69 -59t-98.5 -21.5z" />
    <glyph glyph-name="t" unicode="t" horiz-adv-x="390" 
d="M227 -8q-74 0 -105.5 35.5t-17.5 101.5l62 290h-98l17 76h97l29 136l99 21l-34 -157h137l-17 -76h-137l-58 -271q-9 -41 5.5 -58t59.5 -17q12 0 23 1.5t33 7.5l-17 -81q-18 -4 -38 -6.5t-40 -2.5z" />
    <glyph glyph-name="u" unicode="u" horiz-adv-x="557" 
d="M197 -7q-54 0 -90 25.5t-50.5 69t-2.5 99.5l67 308h93l-63 -288q-14 -61 12.5 -99.5t81.5 -38.5q34 0 64.5 15t56.5 46l80 365h93l-108 -495h-93l16 72q-34 -39 -73.5 -59t-83.5 -20z" />
    <glyph glyph-name="v" unicode="v" horiz-adv-x="513" 
d="M156 0l-89 495h97l62 -380l225 380h102l-308 -495h-89z" />
    <glyph glyph-name="w" unicode="w" horiz-adv-x="704" 
d="M104 0l-25 495h87l14 -370l185 370h80l29 -369l170 369h90l-239 -495h-90l-26 371l-185 -371h-90z" />
    <glyph glyph-name="x" unicode="x" horiz-adv-x="502" 
d="M-44 0l245 259l-123 236h104l85 -172l158 172h110l-232 -244l131 -251h-103l-93 186l-171 -186h-111z" />
    <glyph glyph-name="y" unicode="y" horiz-adv-x="509" 
d="M18 -219q-13 0 -28.5 2.5t-34.5 8.5l16 82q14 -3 25 -4.5t18 -1.5q31 0 52.5 12.5t38.5 41.5l42 72l-81 501h97l56 -390l227 390h104l-358 -601q-36 -60 -77.5 -86.5t-96.5 -26.5z" />
    <glyph glyph-name="z" unicode="z" horiz-adv-x="461" 
d="M-15 0l14 71l332 341l-253 -1l17 84h375l-15 -71l-333 -342l262 1l-18 -83h-381z" />
    <glyph glyph-name="braceleft" unicode="{" horiz-adv-x="401" 
d="M182 -219q-65 0 -98.5 29.5t-33 78t34.5 101.5l56 93q22 34 23.5 63t-14.5 46.5t-49 17.5h-75l16 75h75q51 0 77 35t16 89l-18 109q-10 55 7.5 98.5t56 69t92.5 25.5q26 0 49.5 -4.5t44.5 -15.5l-31 -70q-14 7 -31 11t-30 4q-42 0 -64.5 -30t-15.5 -80l20 -126
q5 -38 -7.5 -71t-40 -55t-65.5 -31q53 -18 66.5 -63.5t-18.5 -98.5l-64 -108q-29 -48 -18.5 -83t61.5 -35q11 0 22.5 2t24.5 6v-73q-19 -5 -35.5 -7t-33.5 -2z" />
    <glyph glyph-name="bar" unicode="|" horiz-adv-x="301" 
d="M12 -209l192 909h84l-193 -909h-83z" />
    <glyph glyph-name="braceright" unicode="}" horiz-adv-x="401" 
d="M213 710q66 0 99 -29.5t33 -77.5t-34 -103l-57 -92q-21 -34 -23 -63t14.5 -46.5t48.5 -17.5h76l-16 -75h-76q-49 0 -75 -35t-18 -89l19 -109q9 -55 -8.5 -98.5t-56 -69t-91.5 -25.5q-26 0 -49.5 4.5t-44.5 15.5l30 70q15 -7 32 -11t29 -4q43 0 65.5 30.5t14.5 79.5
l-19 126q-6 39 7.5 72t42 55.5t68.5 29.5v-2q-37 12 -56.5 36.5t-19 58t22.5 69.5l64 108q29 48 19 83t-62 35q-11 0 -22.5 -1.5t-25.5 -6.5v72q20 6 36.5 8t32.5 2z" />
    <glyph glyph-name="asciitilde" unicode="~" 
d="M142 307l-66 15q23 68 59.5 104t81.5 36q21 0 43 -7.5t54 -27.5l64 -42q22 -13 34 -18.5t24 -5.5q25 0 44 20t33 60l66 -15q-23 -68 -59 -104.5t-82 -36.5q-22 0 -43.5 8t-53.5 28l-64 42q-22 14 -34 18.5t-25 4.5q-24 0 -43 -20t-33 -59z" />
    <glyph glyph-name="uni00A0" unicode="&#xa0;" horiz-adv-x="229" 
 />
    <glyph glyph-name="exclamdown" unicode="&#xa1;" horiz-adv-x="227" 
d="M157 278l-101 -516h-94l124 516h71zM159 497q24 0 39.5 -16t15.5 -39q0 -28 -20.5 -48.5t-48.5 -20.5q-22 0 -37.5 16t-15.5 39q0 19 9.5 34.5t25 25t32.5 9.5z" />
    <glyph glyph-name="cent" unicode="&#xa2;" horiz-adv-x="505" 
d="M184 -116l24 114q-71 17 -115.5 75.5t-44.5 140.5q0 59 21 111.5t58 92t85.5 62t102.5 22.5l23 111h54l-25 -116q44 -9 81.5 -32.5t59.5 -59.5l-68 -57q-17 27 -40 43.5t-50 22.5l-73 -341q37 1 68.5 13t57.5 34l44 -60q-40 -36 -88.5 -52.5t-99.5 -16.5l-22 -107h-53z
M227 83l70 333q-44 -4 -79 -31.5t-56.5 -70.5t-21.5 -94q0 -48 24.5 -84t62.5 -53z" />
    <glyph glyph-name="sterling" unicode="&#xa3;" horiz-adv-x="618" 
d="M27 -19l-60 52q68 83 153 85q39 21 42 80l4 105h-100l15 68h87l3 75q3 80 31 139.5t78 92.5t116 33q95 0 151 -49.5t66 -144.5l-84 -20q-6 67 -40 101t-96 34t-96.5 -46.5t-37.5 -128.5l-3 -86h187l-15 -68h-173l-4 -83q-2 -79 -50 -115l4.5 -1.5t3.5 -0.5l161 -43
q43 -12 75.5 -2t61.5 45l59 -49q-30 -39 -65 -58.5t-75.5 -21.5t-89.5 11l-164 45q-46 13 -80.5 2t-64.5 -51z" />
    <glyph glyph-name="currency" unicode="&#xa4;" horiz-adv-x="671" 
d="M91 57l-48 49l94 95q-25 33 -39 74t-14 87t14 86.5t39 73.5l-94 96l49 49l95 -96q33 25 73 39t85 14t85.5 -14t72.5 -39l96 96l48 -49l-96 -95q26 -33 40.5 -74t14.5 -87t-14 -87t-39 -74l95 -95l-49 -49l-96 95q-32 -25 -72.5 -39t-85.5 -14t-86 14t-73 39zM345 181
q47 0 86 24.5t61 65.5t22 91q0 51 -22 91t-61 64t-86 24t-85.5 -24t-61.5 -64t-23 -91q0 -50 23 -91t61.5 -65.5t85.5 -24.5z" />
    <glyph glyph-name="yen" unicode="&#xa5;" horiz-adv-x="655" 
d="M223 0l28 133h-167l12 61h168l15 69h-167l12 61h141l-162 376h105l139 -332l278 332h117l-322 -376h139l-12 -61h-169l-15 -69h169l-13 -61h-169l-28 -133h-99z" />
    <glyph glyph-name="brokenbar" unicode="&#xa6;" horiz-adv-x="296" 
d="M116 287l88 413h86l-88 -413h-86zM11 -209l88 413h86l-88 -413h-86z" />
    <glyph glyph-name="section" unicode="&#xa7;" horiz-adv-x="560" 
d="M241 -50q-50 0 -100 18.5t-91 52.5l48 58q79 -62 148 -62q37 0 60 20t23 53q0 40 -49 66l-94 47q-56 30 -81 60t-25 71q0 56 36.5 95t98.5 52q-31 33 -31 80q0 44 21.5 78t60 53t88.5 19t99.5 -18.5t91.5 -52.5l-49 -59q-39 32 -75.5 47t-70.5 15q-38 0 -61 -19.5
t-23 -52.5q0 -40 50 -66l93 -47q58 -30 82.5 -60t24.5 -70q0 -58 -36 -97.5t-98 -52.5q30 -32 30 -78q0 -44 -22 -78t-60 -53t-89 -19zM324 223q50 2 81 26.5t31 61.5q0 44 -62 76l-101 50q-49 -1 -81 -25t-32 -61q0 -45 61 -77z" />
    <glyph glyph-name="dieresis" unicode="&#xa8;" 
d="M276 607q-23 0 -38.5 15.5t-15.5 37.5q0 26 19.5 45t46.5 19q22 0 37 -15.5t15 -37.5q0 -26 -18.5 -45t-45.5 -19zM485 607q-22 0 -37.5 15.5t-15.5 37.5q0 26 19.5 45t45.5 19q22 0 37.5 -15.5t15.5 -37.5q0 -26 -19 -45t-46 -19z" />
    <glyph glyph-name="copyright" unicode="&#xa9;" horiz-adv-x="785" 
d="M398 165q-44 0 -79.5 21t-56 58t-20.5 84q0 56 28 103.5t73.5 76t98.5 28.5q43 0 81 -19.5t59 -54.5l-54 -46q-16 26 -39.5 40t-51.5 14q-33 0 -60.5 -19.5t-45 -50.5t-17.5 -68q0 -43 27 -72t69 -29q41 0 86 35l31 -52q-27 -24 -60.5 -36.5t-68.5 -12.5zM380 -11
q-67 0 -124 24t-99 67t-65 101.5t-23 127.5q0 82 29.5 154.5t82 128.5t120.5 87.5t144 31.5q67 0 124 -23.5t99 -67.5t65 -102.5t23 -128.5q0 -82 -29.5 -154.5t-81.5 -127t-120.5 -86.5t-144.5 -32zM382 39q65 0 122.5 27.5t102.5 75.5t70.5 110t25.5 131q0 80 -34 143
t-93 99t-135 36q-64 0 -121.5 -27.5t-101.5 -76t-69.5 -110.5t-25.5 -132q0 -79 34 -141.5t92.5 -98.5t132.5 -36z" />
    <glyph glyph-name="ordfeminine" unicode="&#xaa;" horiz-adv-x="410" 
d="M201 315q-59 0 -94 29t-35 78q0 58 43.5 92t115.5 34q61 0 113 -28l8 34q10 46 -11.5 68.5t-73.5 22.5q-21 0 -47.5 -6.5t-63.5 -20.5l-20 59q41 17 77 24.5t69 7.5q83 0 121.5 -41t23.5 -112l-51 -236h-74l5 29q-48 -34 -106 -34zM226 372q51 0 94 31l13 64
q-42 27 -98 27q-40 0 -64.5 -18t-24.5 -47q0 -27 21 -42t59 -15z" />
    <glyph glyph-name="guillemotleft" unicode="&#xab;" horiz-adv-x="655" 
d="M206 0l-167 248l276 247h96l-272 -250l161 -245h-94zM446 0l-167 248l276 247h97l-273 -250l162 -245h-95z" />
    <glyph glyph-name="logicalnot" unicode="&#xac;" horiz-adv-x="601" 
d="M386 0l53 245h-371l17 79h458l-69 -324h-88z" />
    <glyph glyph-name="registered" unicode="&#xae;" horiz-adv-x="486" 
d="M278 310q-48 0 -86.5 23t-60.5 63.5t-22 91.5q0 46 17 87t46.5 73t68 50t81.5 18q49 0 87 -23.5t60 -63t22 -91.5q0 -46 -17 -87t-46.5 -72.5t-68 -50t-81.5 -18.5zM283 348q46 0 84.5 25.5t61 68.5t22.5 94q0 64 -36.5 103t-97.5 39q-46 0 -84.5 -25.5t-61 -68
t-22.5 -94.5q0 -64 37 -103t97 -39zM215 420l40 188h67q26 0 39.5 -13.5t13.5 -39.5q0 -19 -11 -35.5t-31 -24.5l24 -75h-38l-23 70h-30l-15 -70h-36zM272 518h35q14 0 22.5 9t8.5 24q0 26 -25 26h-28z" />
    <glyph glyph-name="macron" unicode="&#xaf;" 
d="M233 615l14 63h281l-13 -63h-282z" />
    <glyph glyph-name="degree" unicode="&#xb0;" horiz-adv-x="400" 
d="M251 422q-35 0 -63.5 16t-46 43.5t-17.5 60.5q0 46 22.5 84t60 61t82.5 23q35 0 63.5 -15.5t45.5 -43t17 -61.5q0 -46 -22.5 -84t-59.5 -61t-82 -23zM253 478q29 0 52.5 14t37.5 37.5t14 51.5q0 31 -20.5 51.5t-50.5 20.5q-28 0 -51.5 -14t-37.5 -37.5t-14 -51.5
q0 -30 20.5 -51t49.5 -21z" />
    <glyph glyph-name="plusminus" unicode="&#xb1;" horiz-adv-x="599" 
d="M42 -1l17 76h408l-16 -76h-409zM249 182l35 169h-167l17 76h167l35 169h75l-36 -169h167l-17 -76h-166l-36 -169h-74z" />
    <glyph glyph-name="uni00B2" unicode="&#xb2;" horiz-adv-x="291" 
d="M49 350l9 44l174 140q24 19 35.5 36t11.5 35q0 21 -16 33.5t-43 12.5q-21 0 -42.5 -9t-48.5 -29l-25 45q66 47 126 47q49 0 79.5 -24.5t30.5 -63.5q0 -31 -15.5 -56t-51.5 -54l-132 -105h161l-11 -52h-242z" />
    <glyph glyph-name="uni00B3" unicode="&#xb3;" horiz-adv-x="312" 
d="M187 345q-43 0 -76 13.5t-56 42.5l41 41q40 -43 95 -43q31 0 53 15t22 37q0 24 -16 36.5t-44 12.5h-34l10 49h29q33 0 54.5 15.5t21.5 37.5q0 21 -16.5 34.5t-43.5 13.5q-20 0 -41.5 -7.5t-48.5 -24.5l-28 46q63 41 127 41q49 0 81.5 -26t32.5 -67q0 -30 -25 -54t-63 -33
q30 -8 46.5 -26.5t16.5 -44.5q0 -30 -18.5 -55t-49.5 -39.5t-70 -14.5z" />
    <glyph glyph-name="acute" unicode="&#xb4;" 
d="M310 588l143 128h124l-178 -128h-89z" />
    <glyph glyph-name="uni00B5" unicode="&#xb5;" horiz-adv-x="602" 
d="M-10 -209l150 704h94l-62 -293q-13 -60 13 -97t80 -37q36 0 69 17t60 50l77 360h94l-106 -495h-94l16 76q-32 -41 -72 -62.5t-87 -21.5q-27 0 -49.5 8.5t-37.5 22.5l-50 -232h-95z" />
    <glyph glyph-name="paragraph" unicode="&#xb6;" horiz-adv-x="655" 
d="M257 0l58 277h-24q-58 0 -102 23t-68 64.5t-24 95.5q0 70 31 124t84.5 85t122.5 31h331l-149 -700h-79l60 277h-104l-59 -277h-78zM411 355h103l57 266h-104zM297 355h35l56 266h-63q-42 0 -74.5 -19.5t-51.5 -53t-19 -77.5q0 -54 31.5 -85t85.5 -31z" />
    <glyph glyph-name="periodcentered" unicode="&#xb7;" horiz-adv-x="250" 
d="M124 220q-23 0 -39 16.5t-16 41.5q0 19 9.5 35t25.5 26t34 10q23 0 38 -16.5t15 -40.5q0 -18 -9.5 -34.5t-24.5 -27t-33 -10.5z" />
    <glyph glyph-name="cedilla" unicode="&#xb8;" 
d="M206 -242q-36 0 -65 11t-48 32l37 36q29 -32 74 -32q31 0 49.5 14t18.5 37q0 20 -16.5 31.5t-44.5 11.5h-31l44 101h50l-28 -64q38 -4 60 -24t22 -50q0 -28 -16.5 -52t-43.5 -38t-62 -14z" />
    <glyph glyph-name="uni00B9" unicode="&#xb9;" horiz-adv-x="172" 
d="M105 350l62 286l-71 -27l12 54l94 37h38l-75 -350h-60z" />
    <glyph glyph-name="ordmasculine" unicode="&#xba;" horiz-adv-x="462" 
d="M273 312q-53 0 -94.5 24t-65.5 65.5t-24 94.5q0 58 28.5 106.5t76.5 78t105 29.5q53 0 94 -24t65 -65.5t24 -94.5q0 -57 -29 -106t-76.5 -78.5t-103.5 -29.5zM276 380q36 0 65.5 19.5t47.5 52.5t18 71q0 51 -32 85t-80 34q-36 0 -65.5 -19.5t-47.5 -52t-18 -70.5
q0 -52 32 -86t80 -34z" />
    <glyph glyph-name="guillemotright" unicode="&#xbb;" horiz-adv-x="654" 
d="M448 495l167 -248l-276 -247h-96l272 250l-162 245h95zM208 495l167 -248l-275 -247h-97l273 250l-162 245h94z" />
    <glyph glyph-name="onequarter" unicode="&#xbc;" horiz-adv-x="624" 
d="M444 0l19 84h-190l10 50l227 216h69l-46 -216h42l-11 -50h-41l-18 -84h-61zM348 134h125l32 150zM105 350l62 286l-71 -27l12 54l94 37h38l-75 -350h-60zM-2 0l535 700h70l-538 -700h-67z" />
    <glyph glyph-name="onehalf" unicode="&#xbd;" horiz-adv-x="656" 
d="M105 350l62 286l-71 -27l12 54l94 37h38l-75 -350h-60zM-5 0l535 700h70l-538 -700h-67zM335 0l9 44l174 140q24 19 35.5 36t11.5 35q0 21 -16 33.5t-43 12.5q-21 0 -42.5 -9t-48.5 -29l-25 45q66 47 126 47q49 0 79.5 -24.5t30.5 -63.5q0 -31 -15.5 -56t-51.5 -54
l-132 -105h161l-11 -52h-242z" />
    <glyph glyph-name="threequarters" unicode="&#xbe;" horiz-adv-x="718" 
d="M187 345q-43 0 -76 13.5t-56 42.5l41 41q40 -43 95 -43q31 0 53 15t22 37q0 24 -16 36.5t-44 12.5h-34l10 49h29q33 0 54.5 15.5t21.5 37.5q0 21 -16.5 34.5t-43.5 13.5q-20 0 -41.5 -7.5t-48.5 -24.5l-28 46q63 41 127 41q49 0 81.5 -26t32.5 -67q0 -30 -25 -54t-63 -33
q30 -8 46.5 -26.5t16.5 -44.5q0 -30 -18.5 -55t-49.5 -39.5t-70 -14.5zM538 0l19 84h-190l10 50l227 216h69l-46 -216h42l-11 -50h-41l-18 -84h-61zM442 134h125l32 150zM91 0l535 700h70l-538 -700h-67z" />
    <glyph glyph-name="questiondown" unicode="&#xbf;" horiz-adv-x="507" 
d="M335 497q23 0 38.5 -16t15.5 -39q0 -28 -20.5 -48.5t-47.5 -20.5q-23 0 -38 16t-15 39q0 19 9.5 34.5t24.5 25t33 9.5zM338 276q-11 -65 -37 -105t-77 -71l-62 -36q-37 -24 -58 -53t-21 -60q0 -38 31 -62.5t82 -24.5q42 0 82.5 21t72.5 57l61 -44q-46 -56 -105.5 -86.5
t-123.5 -30.5q-57 0 -99.5 20t-67 55.5t-24.5 81.5q0 58 32 103t102 87l52 30q39 22 57.5 49t24.5 69h78z" />
    <glyph glyph-name="Agrave" unicode="&#xc0;" horiz-adv-x="667" 
d="M-46 0l415 700h116l121 -700h-101l-33 207h-291l-118 -207h-109zM225 286h235l-52 321zM408 793l-153 128h123l115 -128h-85z" />
    <glyph glyph-name="Aacute" unicode="&#xc1;" horiz-adv-x="667" 
d="M-46 0l415 700h116l121 -700h-101l-33 207h-291l-118 -207h-109zM225 286h235l-52 321zM378 793l143 128h124l-178 -128h-89z" />
    <glyph glyph-name="Acircumflex" unicode="&#xc2;" horiz-adv-x="667" 
d="M-46 0l415 700h116l121 -700h-101l-33 207h-291l-118 -207h-109zM225 286h235l-52 321zM276 789l141 133h96l89 -133h-71l-71 84l-107 -84h-77z" />
    <glyph glyph-name="Atilde" unicode="&#xc3;" horiz-adv-x="667" 
d="M-46 0l415 700h116l121 -700h-101l-33 207h-291l-118 -207h-109zM225 286h235l-52 321zM326 792l-57 19q24 53 53.5 79.5t60.5 26.5q24 0 43.5 -10t37 -23t33.5 -23t31 -10q14 0 24.5 13t27.5 49l57 -18q-24 -53 -52 -79.5t-59 -26.5q-23 0 -43 10t-37 22.5t-33 22
t-31 9.5q-16 0 -29 -13.5t-27 -47.5z" />
    <glyph glyph-name="Adieresis" unicode="&#xc4;" horiz-adv-x="667" 
d="M-46 0l415 700h116l121 -700h-101l-33 207h-291l-118 -207h-109zM225 286h235l-52 321zM344 812q-23 0 -38.5 15.5t-15.5 37.5q0 26 19.5 45t46.5 19q22 0 37 -15.5t15 -37.5q0 -26 -18.5 -45t-45.5 -19zM553 812q-22 0 -37.5 15.5t-15.5 37.5q0 26 19.5 45t45.5 19
q22 0 37.5 -15.5t15.5 -37.5q0 -26 -19 -45t-46 -19z" />
    <glyph glyph-name="Aring" unicode="&#xc5;" horiz-adv-x="667" 
d="M-46 0l415 700h116l121 -700h-101l-33 207h-291l-118 -207h-109zM225 286h235l-52 321zM451 781q-45 0 -74.5 28.5t-29.5 72.5q0 33 17 62t45 47t60 18q47 0 76 -28.5t29 -72.5q0 -34 -17 -62.5t-45 -46.5t-61 -18zM452 827q30 0 51.5 22.5t21.5 53.5q0 25 -16 42t-41 17
q-29 0 -51 -22.5t-22 -53.5q0 -26 16.5 -42.5t40.5 -16.5z" />
    <glyph glyph-name="AE" unicode="&#xc6;" horiz-adv-x="916" 
d="M-46 0l416 700h590l-18 -88h-434l32 -216h230l-19 -86h-198l32 -222h246l-19 -88h-312l-30 207h-292l-121 -207h-103zM224 286h235l-48 321z" />
    <glyph glyph-name="Ccedilla" unicode="&#xc7;" horiz-adv-x="713" 
d="M340 -242q-37 0 -65.5 11t-47.5 32l37 36q29 -32 74 -32q31 0 49 14t18 37q0 20 -16 31.5t-44 11.5h-32l42 93q-82 11 -146 56t-100 115.5t-36 157.5q0 80 29.5 150t81 124t120 84.5t146.5 30.5q85 0 153 -33.5t111 -97.5l-75 -64q-31 50 -82 77.5t-113 27.5
q-56 0 -105 -23t-86.5 -63.5t-58.5 -93.5t-21 -115q0 -70 31 -126t84 -88t120 -32q56 0 108 22.5t93 64.5l53 -67q-54 -52 -122.5 -81t-136.5 -29l-23 -53q38 -4 59.5 -24t21.5 -50q0 -28 -16 -52t-43 -38t-62 -14z" />
    <glyph glyph-name="Egrave" unicode="&#xc8;" horiz-adv-x="619" 
d="M31 0l149 700h480l-19 -86h-382l-46 -218h266l-18 -85h-266l-48 -225h386l-18 -86h-484zM400 793l-153 128h123l115 -128h-85z" />
    <glyph glyph-name="Eacute" unicode="&#xc9;" horiz-adv-x="619" 
d="M31 0l149 700h480l-19 -86h-382l-46 -218h266l-18 -85h-266l-48 -225h386l-18 -86h-484zM370 793l143 128h124l-178 -128h-89z" />
    <glyph glyph-name="Ecircumflex" unicode="&#xca;" horiz-adv-x="619" 
d="M31 0l149 700h480l-19 -86h-382l-46 -218h266l-18 -85h-266l-48 -225h386l-18 -86h-484zM268 789l141 133h96l89 -133h-71l-71 84l-107 -84h-77z" />
    <glyph glyph-name="Edieresis" unicode="&#xcb;" horiz-adv-x="619" 
d="M31 0l149 700h480l-19 -86h-382l-46 -218h266l-18 -85h-266l-48 -225h386l-18 -86h-484zM336 812q-23 0 -38.5 15.5t-15.5 37.5q0 26 19.5 45t46.5 19q22 0 37 -15.5t15 -37.5q0 -26 -18.5 -45t-45.5 -19zM545 812q-22 0 -37.5 15.5t-15.5 37.5q0 26 19.5 45t45.5 19
q22 0 37.5 -15.5t15.5 -37.5q0 -26 -19 -45t-46 -19z" />
    <glyph glyph-name="Igrave" unicode="&#xcc;" horiz-adv-x="260" 
d="M27 0l149 700h98l-149 -700h-98zM211 793l-153 128h123l115 -128h-85z" />
    <glyph glyph-name="Iacute" unicode="&#xcd;" horiz-adv-x="260" 
d="M27 0l149 700h98l-149 -700h-98zM181 793l143 128h124l-178 -128h-89z" />
    <glyph glyph-name="Icircumflex" unicode="&#xce;" horiz-adv-x="260" 
d="M27 0l149 700h98l-149 -700h-98zM79 789l141 133h96l89 -133h-71l-71 84l-107 -84h-77z" />
    <glyph glyph-name="Idieresis" unicode="&#xcf;" horiz-adv-x="260" 
d="M27 0l149 700h98l-149 -700h-98zM147 812q-23 0 -38.5 15.5t-15.5 37.5q0 26 19.5 45t46.5 19q22 0 37 -15.5t15 -37.5q0 -26 -18.5 -45t-45.5 -19zM356 812q-22 0 -37.5 15.5t-15.5 37.5q0 26 19.5 45t45.5 19q22 0 37.5 -15.5t15.5 -37.5q0 -26 -19 -45t-46 -19z" />
    <glyph glyph-name="Eth" unicode="&#xd0;" horiz-adv-x="750" 
d="M57 0l67 315h-90l16 75h91l65 310h210q89 0 157 -39t106 -109t38 -162q0 -80 -30.5 -150.5t-84 -124.5t-123.5 -84.5t-150 -30.5h-272zM174 88h167q57 0 106.5 23t87 63.5t59 94.5t21.5 116q0 68 -26 118.5t-72.5 79.5t-107.5 29h-124l-47 -222h159l-16 -75h-159z" />
    <glyph glyph-name="Ntilde" unicode="&#xd1;" horiz-adv-x="737" 
d="M31 0l148 700h98l264 -551l112 551h93l-148 -700h-88l-271 563l-116 -563h-92zM360 792l-57 19q24 53 53.5 79.5t60.5 26.5q24 0 43.5 -10t37 -23t33.5 -23t31 -10q14 0 24.5 13t27.5 49l57 -18q-24 -53 -52 -79.5t-59 -26.5q-23 0 -43 10t-37 22.5t-33 22t-31 9.5
q-16 0 -29 -13.5t-27 -47.5z" />
    <glyph glyph-name="Ograve" unicode="&#xd2;" horiz-adv-x="795" 
d="M392 -11q-68 0 -126.5 25t-102 70t-67.5 105.5t-24 130.5q0 80 29.5 150.5t80.5 124.5t118 85t142 31q69 0 127 -25t101.5 -70t67.5 -105t24 -131q0 -80 -29 -150.5t-80 -124.5t-118 -85t-143 -31zM399 79q54 0 101.5 23.5t84 64t57 94t20.5 113.5q0 71 -29 127t-80.5 88
t-115.5 32q-55 0 -103 -23.5t-84.5 -64t-57 -94t-20.5 -113.5q0 -70 29.5 -126t81 -88.5t116.5 -32.5zM434 793l-153 128h123l115 -128h-85z" />
    <glyph glyph-name="Oacute" unicode="&#xd3;" horiz-adv-x="795" 
d="M392 -11q-68 0 -126.5 25t-102 70t-67.5 105.5t-24 130.5q0 80 29.5 150.5t80.5 124.5t118 85t142 31q69 0 127 -25t101.5 -70t67.5 -105t24 -131q0 -80 -29 -150.5t-80 -124.5t-118 -85t-143 -31zM399 79q54 0 101.5 23.5t84 64t57 94t20.5 113.5q0 71 -29 127t-80.5 88
t-115.5 32q-55 0 -103 -23.5t-84.5 -64t-57 -94t-20.5 -113.5q0 -70 29.5 -126t81 -88.5t116.5 -32.5zM404 793l143 128h124l-178 -128h-89z" />
    <glyph glyph-name="Ocircumflex" unicode="&#xd4;" horiz-adv-x="795" 
d="M392 -11q-68 0 -126.5 25t-102 70t-67.5 105.5t-24 130.5q0 80 29.5 150.5t80.5 124.5t118 85t142 31q69 0 127 -25t101.5 -70t67.5 -105t24 -131q0 -80 -29 -150.5t-80 -124.5t-118 -85t-143 -31zM399 79q54 0 101.5 23.5t84 64t57 94t20.5 113.5q0 71 -29 127t-80.5 88
t-115.5 32q-55 0 -103 -23.5t-84.5 -64t-57 -94t-20.5 -113.5q0 -70 29.5 -126t81 -88.5t116.5 -32.5zM302 789l141 133h96l89 -133h-71l-71 84l-107 -84h-77z" />
    <glyph glyph-name="Otilde" unicode="&#xd5;" horiz-adv-x="795" 
d="M392 -11q-68 0 -126.5 25t-102 70t-67.5 105.5t-24 130.5q0 80 29.5 150.5t80.5 124.5t118 85t142 31q69 0 127 -25t101.5 -70t67.5 -105t24 -131q0 -80 -29 -150.5t-80 -124.5t-118 -85t-143 -31zM399 79q54 0 101.5 23.5t84 64t57 94t20.5 113.5q0 71 -29 127t-80.5 88
t-115.5 32q-55 0 -103 -23.5t-84.5 -64t-57 -94t-20.5 -113.5q0 -70 29.5 -126t81 -88.5t116.5 -32.5zM352 792l-57 19q24 53 53.5 79.5t60.5 26.5q24 0 43.5 -10t37 -23t33.5 -23t31 -10q14 0 24.5 13t27.5 49l57 -18q-24 -53 -52 -79.5t-59 -26.5q-23 0 -43 10t-37 22.5
t-33 22t-31 9.5q-16 0 -29 -13.5t-27 -47.5z" />
    <glyph glyph-name="Odieresis" unicode="&#xd6;" horiz-adv-x="795" 
d="M392 -11q-68 0 -126.5 25t-102 70t-67.5 105.5t-24 130.5q0 80 29.5 150.5t80.5 124.5t118 85t142 31q69 0 127 -25t101.5 -70t67.5 -105t24 -131q0 -80 -29 -150.5t-80 -124.5t-118 -85t-143 -31zM399 79q54 0 101.5 23.5t84 64t57 94t20.5 113.5q0 71 -29 127t-80.5 88
t-115.5 32q-55 0 -103 -23.5t-84.5 -64t-57 -94t-20.5 -113.5q0 -70 29.5 -126t81 -88.5t116.5 -32.5zM370 812q-23 0 -38.5 15.5t-15.5 37.5q0 26 19.5 45t46.5 19q22 0 37 -15.5t15 -37.5q0 -26 -18.5 -45t-45.5 -19zM579 812q-22 0 -37.5 15.5t-15.5 37.5q0 26 19.5 45
t45.5 19q22 0 37.5 -15.5t15.5 -37.5q0 -26 -19 -45t-46 -19z" />
    <glyph glyph-name="multiply" unicode="&#xd7;" horiz-adv-x="599" 
d="M134 154l-36 49l178 156l-112 155l56 49l113 -155l178 156l39 -49l-181 -157l113 -156l-58 -48l-112 155z" />
    <glyph glyph-name="Oslash" unicode="&#xd8;" horiz-adv-x="796" 
d="M392 -11q-62 0 -116.5 21t-96.5 59l-73 -73h-94l124 121q-30 42 -47 93.5t-17 109.5q0 80 29.5 150.5t80.5 124.5t118 85t142 31q64 0 118.5 -21t95.5 -60l75 74h94l-125 -123q30 -41 46 -92t16 -109q0 -80 -29 -150.5t-80 -124.5t-118 -85t-143 -31zM209 189l377 373
q-29 28 -67 43.5t-82 15.5q-55 0 -103 -23.5t-84.5 -64t-57 -94t-20.5 -113.5q0 -78 37 -137zM398 79q55 0 102.5 23.5t84 64t57 94t20.5 113.5q0 38 -9 72.5t-26 62.5l-378 -372q29 -27 67.5 -42.5t81.5 -15.5z" />
    <glyph glyph-name="Ugrave" unicode="&#xd9;" horiz-adv-x="707" 
d="M327 -11q-93 0 -154.5 41t-85.5 113.5t-4 167.5l83 389h99l-85 -397q-14 -65 0.5 -116t54 -79.5t97.5 -28.5q79 0 135 57t78 156l87 408h98l-89 -416q-19 -93 -63 -159t-107.5 -101t-143.5 -35zM426 793l-153 128h123l115 -128h-85z" />
    <glyph glyph-name="Uacute" unicode="&#xda;" horiz-adv-x="707" 
d="M327 -11q-93 0 -154.5 41t-85.5 113.5t-4 167.5l83 389h99l-85 -397q-14 -65 0.5 -116t54 -79.5t97.5 -28.5q79 0 135 57t78 156l87 408h98l-89 -416q-19 -93 -63 -159t-107.5 -101t-143.5 -35zM396 793l143 128h124l-178 -128h-89z" />
    <glyph glyph-name="Ucircumflex" unicode="&#xdb;" horiz-adv-x="707" 
d="M327 -11q-93 0 -154.5 41t-85.5 113.5t-4 167.5l83 389h99l-85 -397q-14 -65 0.5 -116t54 -79.5t97.5 -28.5q79 0 135 57t78 156l87 408h98l-89 -416q-19 -93 -63 -159t-107.5 -101t-143.5 -35zM294 789l141 133h96l89 -133h-71l-71 84l-107 -84h-77z" />
    <glyph glyph-name="Udieresis" unicode="&#xdc;" horiz-adv-x="707" 
d="M327 -11q-93 0 -154.5 41t-85.5 113.5t-4 167.5l83 389h99l-85 -397q-14 -65 0.5 -116t54 -79.5t97.5 -28.5q79 0 135 57t78 156l87 408h98l-89 -416q-19 -93 -63 -159t-107.5 -101t-143.5 -35zM362 812q-23 0 -38.5 15.5t-15.5 37.5q0 26 19.5 45t46.5 19q22 0 37 -15.5
t15 -37.5q0 -26 -18.5 -45t-45.5 -19zM571 812q-22 0 -37.5 15.5t-15.5 37.5q0 26 19.5 45t45.5 19q22 0 37.5 -15.5t15.5 -37.5q0 -26 -19 -45t-46 -19z" />
    <glyph glyph-name="Yacute" unicode="&#xdd;" horiz-adv-x="655" 
d="M223 0l60 282l-180 418h105l139 -332l278 332h117l-361 -421l-59 -279h-99zM365 793l143 128h124l-178 -128h-89z" />
    <glyph glyph-name="Thorn" unicode="&#xde;" horiz-adv-x="654" 
d="M31 0l149 700h98l-30 -141h162q68 0 115 -21t71.5 -61t24.5 -98q0 -70 -32.5 -122.5t-90 -82t-135.5 -29.5h-204l-30 -145h-98zM177 228h181q53 0 89 16.5t55.5 49.5t19.5 78q0 51 -32.5 76t-97.5 25h-163z" />
    <glyph glyph-name="germandbls" unicode="&#xdf;" horiz-adv-x="632" 
d="M403 -12q-59 0 -107.5 22t-83.5 65l57 55q24 -34 59 -52t75 -18q44 0 70 22t26 59q0 24 -15.5 41t-54.5 34l-65 31q-72 34 -72 99q0 35 15 58t39 39t50.5 29t50.5 27.5t39 35t15 50.5q0 26 -15 46.5t-42 33t-60 12.5q-66 0 -109.5 -39.5t-59.5 -116.5l-108 -521h-92
l109 533q22 106 90 165.5t171 59.5q60 0 106.5 -21.5t73 -59t26.5 -86.5q0 -42 -15 -70t-39 -46.5t-50.5 -31.5t-50.5 -24.5t-39 -25.5t-15 -34q0 -15 9.5 -27t29.5 -21l62 -31q53 -24 77 -56t24 -74q0 -47 -23.5 -83.5t-64 -57.5t-93.5 -21z" />
    <glyph glyph-name="agrave" unicode="&#xe0;" horiz-adv-x="529" 
d="M188 -6q-73 0 -117.5 37.5t-44.5 99.5q0 48 24 83.5t67.5 55.5t101.5 20q43 0 82.5 -10.5t70.5 -30.5l11 51q14 62 -13 93t-95 31q-29 0 -62 -7.5t-76 -26.5l-24 71q51 21 96 31t86 10q70 0 115 -24t62.5 -68t3.5 -105l-67 -305h-92l10 46q-35 -27 -68.5 -39.5
t-70.5 -12.5zM219 61q33 0 62.5 10.5t58.5 32.5l20 88q-26 18 -58.5 26t-72.5 8q-51 0 -83 -24t-32 -62q0 -37 27.5 -58t77.5 -21zM286 588l-153 128h123l115 -128h-85z" />
    <glyph glyph-name="aacute" unicode="&#xe1;" horiz-adv-x="529" 
d="M188 -6q-73 0 -117.5 37.5t-44.5 99.5q0 48 24 83.5t67.5 55.5t101.5 20q43 0 82.5 -10.5t70.5 -30.5l11 51q14 62 -13 93t-95 31q-29 0 -62 -7.5t-76 -26.5l-24 71q51 21 96 31t86 10q70 0 115 -24t62.5 -68t3.5 -105l-67 -305h-92l10 46q-35 -27 -68.5 -39.5
t-70.5 -12.5zM219 61q33 0 62.5 10.5t58.5 32.5l20 88q-26 18 -58.5 26t-72.5 8q-51 0 -83 -24t-32 -62q0 -37 27.5 -58t77.5 -21zM256 588l143 128h124l-178 -128h-89z" />
    <glyph glyph-name="acircumflex" unicode="&#xe2;" horiz-adv-x="529" 
d="M188 -6q-73 0 -117.5 37.5t-44.5 99.5q0 48 24 83.5t67.5 55.5t101.5 20q43 0 82.5 -10.5t70.5 -30.5l11 51q14 62 -13 93t-95 31q-29 0 -62 -7.5t-76 -26.5l-24 71q51 21 96 31t86 10q70 0 115 -24t62.5 -68t3.5 -105l-67 -305h-92l10 46q-35 -27 -68.5 -39.5
t-70.5 -12.5zM219 61q33 0 62.5 10.5t58.5 32.5l20 88q-26 18 -58.5 26t-72.5 8q-51 0 -83 -24t-32 -62q0 -37 27.5 -58t77.5 -21zM154 584l141 133h96l89 -133h-71l-71 84l-107 -84h-77z" />
    <glyph glyph-name="atilde" unicode="&#xe3;" horiz-adv-x="529" 
d="M188 -6q-73 0 -117.5 37.5t-44.5 99.5q0 48 24 83.5t67.5 55.5t101.5 20q43 0 82.5 -10.5t70.5 -30.5l11 51q14 62 -13 93t-95 31q-29 0 -62 -7.5t-76 -26.5l-24 71q51 21 96 31t86 10q70 0 115 -24t62.5 -68t3.5 -105l-67 -305h-92l10 46q-35 -27 -68.5 -39.5
t-70.5 -12.5zM219 61q33 0 62.5 10.5t58.5 32.5l20 88q-26 18 -58.5 26t-72.5 8q-51 0 -83 -24t-32 -62q0 -37 27.5 -58t77.5 -21zM204 587l-57 19q24 53 53.5 79.5t60.5 26.5q24 0 43.5 -10t37 -23t33.5 -23t31 -10q14 0 24.5 13t27.5 49l57 -18q-24 -53 -52 -79.5
t-59 -26.5q-23 0 -43 10t-37 22.5t-33 22t-31 9.5q-16 0 -29 -13.5t-27 -47.5z" />
    <glyph glyph-name="adieresis" unicode="&#xe4;" horiz-adv-x="529" 
d="M188 -6q-73 0 -117.5 37.5t-44.5 99.5q0 48 24 83.5t67.5 55.5t101.5 20q43 0 82.5 -10.5t70.5 -30.5l11 51q14 62 -13 93t-95 31q-29 0 -62 -7.5t-76 -26.5l-24 71q51 21 96 31t86 10q70 0 115 -24t62.5 -68t3.5 -105l-67 -305h-92l10 46q-35 -27 -68.5 -39.5
t-70.5 -12.5zM219 61q33 0 62.5 10.5t58.5 32.5l20 88q-26 18 -58.5 26t-72.5 8q-51 0 -83 -24t-32 -62q0 -37 27.5 -58t77.5 -21zM222 607q-23 0 -38.5 15.5t-15.5 37.5q0 26 19.5 45t46.5 19q22 0 37 -15.5t15 -37.5q0 -26 -18.5 -45t-45.5 -19zM431 607q-22 0 -37.5 15.5
t-15.5 37.5q0 26 19.5 45t45.5 19q22 0 37.5 -15.5t15.5 -37.5q0 -26 -19 -45t-46 -19z" />
    <glyph glyph-name="aring" unicode="&#xe5;" horiz-adv-x="529" 
d="M188 -6q-73 0 -117.5 37.5t-44.5 99.5q0 48 24 83.5t67.5 55.5t101.5 20q43 0 82.5 -10.5t70.5 -30.5l11 51q14 62 -13 93t-95 31q-29 0 -62 -7.5t-76 -26.5l-24 71q51 21 96 31t86 10q70 0 115 -24t62.5 -68t3.5 -105l-67 -305h-92l10 46q-35 -27 -68.5 -39.5
t-70.5 -12.5zM219 61q33 0 62.5 10.5t58.5 32.5l20 88q-26 18 -58.5 26t-72.5 8q-51 0 -83 -24t-32 -62q0 -37 27.5 -58t77.5 -21zM329 576q-45 0 -74.5 28.5t-29.5 72.5q0 33 17 62t45 47t60 18q47 0 76 -28.5t29 -72.5q0 -34 -17 -62.5t-45 -46.5t-61 -18zM330 622
q30 0 51.5 22.5t21.5 53.5q0 25 -16 42t-41 17q-29 0 -51 -22.5t-22 -53.5q0 -26 16.5 -42.5t40.5 -16.5z" />
    <glyph glyph-name="ae" unicode="&#xe6;" horiz-adv-x="860" 
d="M200 -7q-75 0 -120.5 38t-45.5 101q0 48 23.5 83.5t66 55t99.5 19.5q76 0 137 -31l7 43q12 62 -15.5 92t-92.5 30q-28 0 -61 -7.5t-76 -26.5l-24 71q54 21 98 31t86 10q59 0 98 -20.5t57 -58.5q35 38 81 59t97 21q59 0 105 -28t71.5 -77.5t25.5 -113.5q0 -16 -0.5 -30
t-2.5 -29h-368q0 -43 19 -78.5t52 -56t76 -20.5q33 0 65 11t55 30l50 -63q-44 -30 -86.5 -43.5t-90.5 -13.5q-59 0 -107 23t-78 64q-47 -43 -96 -64t-105 -21zM454 287h278q-1 39 -17 70t-43.5 49t-62.5 18q-36 0 -67.5 -17.5t-54 -48.5t-33.5 -71zM225 61q39 0 76.5 16
t72.5 47q-14 34 -17 73q-51 29 -124 29q-50 0 -81.5 -23.5t-31.5 -62.5q0 -37 27.5 -58t77.5 -21z" />
    <glyph glyph-name="ccedilla" unicode="&#xe7;" horiz-adv-x="505" 
d="M215 -242q-36 0 -65 11t-47 32l36 36q30 -32 74 -32q31 0 49.5 14t18.5 37q0 20 -16.5 31.5t-44.5 11.5h-31l41 94q-53 8 -94.5 38t-64.5 77.5t-23 105.5q0 59 21 111t58 91.5t86 62.5t104 23q59 0 110.5 -26t80.5 -72l-68 -56q-22 34 -54 52t-72 18q-47 0 -86.5 -27
t-63.5 -72t-24 -99q0 -42 18 -75.5t49.5 -52.5t71.5 -19q34 0 65.5 12.5t58.5 34.5l44 -60q-36 -32 -79 -49t-89 -20l-24 -55q39 -5 60.5 -23.5t21.5 -50.5q0 -28 -16.5 -52t-43.5 -38t-62 -14z" />
    <glyph glyph-name="egrave" unicode="&#xe8;" horiz-adv-x="554" 
d="M277 -9q-67 0 -119 29t-81 81t-29 119q0 58 20 109t55.5 90t82.5 61.5t100 22.5q59 0 105 -28t72 -77.5t26 -113.5q0 -16 -0.5 -30t-3.5 -29h-367q0 -43 18.5 -78.5t51.5 -56.5t76 -21q33 0 65 11t56 31l50 -63q-45 -30 -87.5 -43.5t-90.5 -13.5zM146 287h277
q0 39 -16 69.5t-43.5 48.5t-63.5 18t-67.5 -17t-53.5 -48t-33 -71zM293 588l-153 128h123l115 -128h-85z" />
    <glyph glyph-name="eacute" unicode="&#xe9;" horiz-adv-x="554" 
d="M277 -9q-67 0 -119 29t-81 81t-29 119q0 58 20 109t55.5 90t82.5 61.5t100 22.5q59 0 105 -28t72 -77.5t26 -113.5q0 -16 -0.5 -30t-3.5 -29h-367q0 -43 18.5 -78.5t51.5 -56.5t76 -21q33 0 65 11t56 31l50 -63q-45 -30 -87.5 -43.5t-90.5 -13.5zM146 287h277
q0 39 -16 69.5t-43.5 48.5t-63.5 18t-67.5 -17t-53.5 -48t-33 -71zM263 588l143 128h124l-178 -128h-89z" />
    <glyph glyph-name="ecircumflex" unicode="&#xea;" horiz-adv-x="554" 
d="M277 -9q-67 0 -119 29t-81 81t-29 119q0 58 20 109t55.5 90t82.5 61.5t100 22.5q59 0 105 -28t72 -77.5t26 -113.5q0 -16 -0.5 -30t-3.5 -29h-367q0 -43 18.5 -78.5t51.5 -56.5t76 -21q33 0 65 11t56 31l50 -63q-45 -30 -87.5 -43.5t-90.5 -13.5zM146 287h277
q0 39 -16 69.5t-43.5 48.5t-63.5 18t-67.5 -17t-53.5 -48t-33 -71zM161 584l141 133h96l89 -133h-71l-71 84l-107 -84h-77z" />
    <glyph glyph-name="edieresis" unicode="&#xeb;" horiz-adv-x="554" 
d="M277 -9q-67 0 -119 29t-81 81t-29 119q0 58 20 109t55.5 90t82.5 61.5t100 22.5q59 0 105 -28t72 -77.5t26 -113.5q0 -16 -0.5 -30t-3.5 -29h-367q0 -43 18.5 -78.5t51.5 -56.5t76 -21q33 0 65 11t56 31l50 -63q-45 -30 -87.5 -43.5t-90.5 -13.5zM146 287h277
q0 39 -16 69.5t-43.5 48.5t-63.5 18t-67.5 -17t-53.5 -48t-33 -71zM229 607q-23 0 -38.5 15.5t-15.5 37.5q0 26 19.5 45t46.5 19q22 0 37 -15.5t15 -37.5q0 -26 -18.5 -45t-45.5 -19zM438 607q-22 0 -37.5 15.5t-15.5 37.5q0 26 19.5 45t45.5 19q22 0 37.5 -15.5t15.5 -37.5
q0 -26 -19 -45t-46 -19z" />
    <glyph glyph-name="igrave" unicode="&#xec;" horiz-adv-x="235" 
d="M17 0l109 495h92l-107 -495h-94zM158 588l-153 128h123l115 -128h-85z" />
    <glyph glyph-name="iacute" unicode="&#xed;" horiz-adv-x="235" 
d="M17 0l109 495h92l-107 -495h-94zM128 588l143 128h124l-178 -128h-89z" />
    <glyph glyph-name="icircumflex" unicode="&#xee;" horiz-adv-x="235" 
d="M17 0l109 495h92l-107 -495h-94zM26 584l141 133h96l89 -133h-71l-71 84l-107 -84h-77z" />
    <glyph glyph-name="idieresis" unicode="&#xef;" horiz-adv-x="235" 
d="M17 0l109 495h92l-107 -495h-94zM94 607q-23 0 -38.5 15.5t-15.5 37.5q0 26 19.5 45t46.5 19q22 0 37 -15.5t15 -37.5q0 -26 -18.5 -45t-45.5 -19zM303 607q-22 0 -37.5 15.5t-15.5 37.5q0 26 19.5 45t45.5 19q22 0 37.5 -15.5t15.5 -37.5q0 -26 -19 -45t-46 -19z" />
    <glyph glyph-name="eth" unicode="&#xf0;" horiz-adv-x="579" 
d="M263 -10q-62 0 -110 28t-75.5 77.5t-27.5 114.5q0 75 32.5 135t88 95t122.5 35q65 0 112 -32t63 -82q3 64 -11.5 119.5t-44.5 99.5l-102 -50l-22 54l86 43q-18 18 -38 32.5t-44 25.5l55 61q30 -16 55.5 -36t47.5 -45l111 54l21 -54l-96 -48q62 -99 62 -237
q0 -85 -21 -156.5t-59 -124t-90 -81t-115 -28.5zM268 72q45 0 83 26t61.5 68t23.5 92q0 41 -17.5 73.5t-47.5 51t-67 18.5q-46 0 -84 -25.5t-61 -67.5t-23 -92q0 -42 17 -74.5t47 -51t68 -18.5z" />
    <glyph glyph-name="ntilde" unicode="&#xf1;" horiz-adv-x="558" 
d="M17 0l109 495h92l-15 -73q33 39 73 59.5t84 20.5q54 0 90.5 -25t50.5 -68t1 -100l-66 -309h-93l62 288q14 62 -12 100t-82 38q-33 0 -64 -15.5t-57 -45.5l-79 -365h-94zM233 587l-57 19q24 53 53.5 79.5t60.5 26.5q24 0 43.5 -10t37 -23t33.5 -23t31 -10q14 0 24.5 13
t27.5 49l57 -18q-24 -53 -52 -79.5t-59 -26.5q-23 0 -43 10t-37 22.5t-33 22t-31 9.5q-16 0 -29 -13.5t-27 -47.5z" />
    <glyph glyph-name="ograve" unicode="&#xf2;" horiz-adv-x="580" 
d="M266 -10q-63 0 -112.5 30t-77.5 82t-28 119q0 59 21 110t57 90t84 61t102 22q65 0 114 -29.5t77 -82t28 -119.5q0 -58 -20.5 -109t-57.5 -90t-84.5 -61.5t-102.5 -22.5zM271 73q48 0 85.5 26t59.5 71.5t22 101.5q0 67 -35.5 108.5t-95.5 41.5q-46 0 -84 -26.5
t-60.5 -71.5t-22.5 -100q0 -68 36.5 -109.5t94.5 -41.5zM301 588l-153 128h123l115 -128h-85z" />
    <glyph glyph-name="oacute" unicode="&#xf3;" horiz-adv-x="580" 
d="M266 -10q-63 0 -112.5 30t-77.5 82t-28 119q0 59 21 110t57 90t84 61t102 22q65 0 114 -29.5t77 -82t28 -119.5q0 -58 -20.5 -109t-57.5 -90t-84.5 -61.5t-102.5 -22.5zM271 73q48 0 85.5 26t59.5 71.5t22 101.5q0 67 -35.5 108.5t-95.5 41.5q-46 0 -84 -26.5
t-60.5 -71.5t-22.5 -100q0 -68 36.5 -109.5t94.5 -41.5zM271 588l143 128h124l-178 -128h-89z" />
    <glyph glyph-name="ocircumflex" unicode="&#xf4;" horiz-adv-x="580" 
d="M266 -10q-63 0 -112.5 30t-77.5 82t-28 119q0 59 21 110t57 90t84 61t102 22q65 0 114 -29.5t77 -82t28 -119.5q0 -58 -20.5 -109t-57.5 -90t-84.5 -61.5t-102.5 -22.5zM271 73q48 0 85.5 26t59.5 71.5t22 101.5q0 67 -35.5 108.5t-95.5 41.5q-46 0 -84 -26.5
t-60.5 -71.5t-22.5 -100q0 -68 36.5 -109.5t94.5 -41.5zM169 584l141 133h96l89 -133h-71l-71 84l-107 -84h-77z" />
    <glyph glyph-name="otilde" unicode="&#xf5;" horiz-adv-x="580" 
d="M266 -10q-63 0 -112.5 30t-77.5 82t-28 119q0 59 21 110t57 90t84 61t102 22q65 0 114 -29.5t77 -82t28 -119.5q0 -58 -20.5 -109t-57.5 -90t-84.5 -61.5t-102.5 -22.5zM271 73q48 0 85.5 26t59.5 71.5t22 101.5q0 67 -35.5 108.5t-95.5 41.5q-46 0 -84 -26.5
t-60.5 -71.5t-22.5 -100q0 -68 36.5 -109.5t94.5 -41.5zM219 587l-57 19q24 53 53.5 79.5t60.5 26.5q24 0 43.5 -10t37 -23t33.5 -23t31 -10q14 0 24.5 13t27.5 49l57 -18q-24 -53 -52 -79.5t-59 -26.5q-23 0 -43 10t-37 22.5t-33 22t-31 9.5q-16 0 -29 -13.5t-27 -47.5z
" />
    <glyph glyph-name="odieresis" unicode="&#xf6;" horiz-adv-x="580" 
d="M266 -10q-63 0 -112.5 30t-77.5 82t-28 119q0 59 21 110t57 90t84 61t102 22q65 0 114 -29.5t77 -82t28 -119.5q0 -58 -20.5 -109t-57.5 -90t-84.5 -61.5t-102.5 -22.5zM271 73q48 0 85.5 26t59.5 71.5t22 101.5q0 67 -35.5 108.5t-95.5 41.5q-46 0 -84 -26.5
t-60.5 -71.5t-22.5 -100q0 -68 36.5 -109.5t94.5 -41.5zM237 607q-23 0 -38.5 15.5t-15.5 37.5q0 26 19.5 45t46.5 19q22 0 37 -15.5t15 -37.5q0 -26 -18.5 -45t-45.5 -19zM446 607q-22 0 -37.5 15.5t-15.5 37.5q0 26 19.5 45t45.5 19q22 0 37.5 -15.5t15.5 -37.5
q0 -26 -19 -45t-46 -19z" />
    <glyph glyph-name="divide" unicode="&#xf7;" horiz-adv-x="599" 
d="M112 320l16 75h408l-17 -75h-407zM278 101q-25 0 -42 17t-17 41q0 28 21 48t49 20q24 0 40.5 -17t16.5 -42q0 -27 -20 -47t-48 -20zM361 491q-25 0 -42 17.5t-17 41.5q0 27 21 47t49 20q24 0 40.5 -17t16.5 -42q0 -26 -20 -46.5t-48 -20.5z" />
    <glyph glyph-name="oslash" unicode="&#xf8;" horiz-adv-x="580" 
d="M266 -10q-43 0 -79.5 14t-64.5 40l-48 -48h-76l89 88q-18 28 -28.5 62.5t-10.5 74.5q0 59 21 110t57 90t83.5 61t102.5 22q44 0 80.5 -14t64.5 -39l49 48h77l-90 -89q18 -28 28 -62.5t10 -74.5q0 -58 -20.5 -109.5t-57 -90.5t-84.5 -61t-103 -22zM155 151l239 238
q-16 16 -38 24.5t-49 8.5q-46 0 -84 -26.5t-60.5 -71.5t-22.5 -100q0 -21 4 -39t11 -34zM271 73q48 0 85.5 26t59.5 71.5t22 101.5q0 20 -3.5 37.5t-10.5 33.5l-239 -237q34 -33 86 -33z" />
    <glyph glyph-name="ugrave" unicode="&#xf9;" horiz-adv-x="557" 
d="M197 -7q-54 0 -90 25.5t-50.5 69t-2.5 99.5l67 308h93l-63 -288q-14 -61 12.5 -99.5t81.5 -38.5q34 0 64.5 15t56.5 46l80 365h93l-108 -495h-93l16 72q-34 -39 -73.5 -59t-83.5 -20zM304 588l-153 128h123l115 -128h-85z" />
    <glyph glyph-name="uacute" unicode="&#xfa;" horiz-adv-x="557" 
d="M197 -7q-54 0 -90 25.5t-50.5 69t-2.5 99.5l67 308h93l-63 -288q-14 -61 12.5 -99.5t81.5 -38.5q34 0 64.5 15t56.5 46l80 365h93l-108 -495h-93l16 72q-34 -39 -73.5 -59t-83.5 -20zM274 588l143 128h124l-178 -128h-89z" />
    <glyph glyph-name="ucircumflex" unicode="&#xfb;" horiz-adv-x="557" 
d="M197 -7q-54 0 -90 25.5t-50.5 69t-2.5 99.5l67 308h93l-63 -288q-14 -61 12.5 -99.5t81.5 -38.5q34 0 64.5 15t56.5 46l80 365h93l-108 -495h-93l16 72q-34 -39 -73.5 -59t-83.5 -20zM172 584l141 133h96l89 -133h-71l-71 84l-107 -84h-77z" />
    <glyph glyph-name="udieresis" unicode="&#xfc;" horiz-adv-x="557" 
d="M197 -7q-54 0 -90 25.5t-50.5 69t-2.5 99.5l67 308h93l-63 -288q-14 -61 12.5 -99.5t81.5 -38.5q34 0 64.5 15t56.5 46l80 365h93l-108 -495h-93l16 72q-34 -39 -73.5 -59t-83.5 -20zM240 607q-23 0 -38.5 15.5t-15.5 37.5q0 26 19.5 45t46.5 19q22 0 37 -15.5t15 -37.5
q0 -26 -18.5 -45t-45.5 -19zM449 607q-22 0 -37.5 15.5t-15.5 37.5q0 26 19.5 45t45.5 19q22 0 37.5 -15.5t15.5 -37.5q0 -26 -19 -45t-46 -19z" />
    <glyph glyph-name="yacute" unicode="&#xfd;" horiz-adv-x="509" 
d="M18 -219q-13 0 -28.5 2.5t-34.5 8.5l16 82q14 -3 25 -4.5t18 -1.5q31 0 52.5 12.5t38.5 41.5l42 72l-81 501h97l56 -390l227 390h104l-358 -601q-36 -60 -77.5 -86.5t-96.5 -26.5zM255 588l143 128h124l-178 -128h-89z" />
    <glyph glyph-name="thorn" unicode="&#xfe;" horiz-adv-x="586" 
d="M-27 -209l196 929l95 17l-62 -298q58 60 141 60q55 0 99 -30t69.5 -80.5t25.5 -114.5q0 -58 -20 -108.5t-54.5 -89.5t-81 -61t-99.5 -22q-105 0 -155 85l-61 -287h-93zM306 419q-68 0 -119 -51l-46 -220q18 -33 53 -53.5t76 -20.5q50 0 89.5 26t63 69.5t23.5 96.5
q0 69 -39 111t-101 42z" />
    <glyph glyph-name="ydieresis" unicode="&#xff;" horiz-adv-x="509" 
d="M18 -219q-13 0 -28.5 2.5t-34.5 8.5l16 82q14 -3 25 -4.5t18 -1.5q31 0 52.5 12.5t38.5 41.5l42 72l-81 501h97l56 -390l227 390h104l-358 -601q-36 -60 -77.5 -86.5t-96.5 -26.5zM221 607q-23 0 -38.5 15.5t-15.5 37.5q0 26 19.5 45t46.5 19q22 0 37 -15.5t15 -37.5
q0 -26 -18.5 -45t-45.5 -19zM430 607q-22 0 -37.5 15.5t-15.5 37.5q0 26 19.5 45t45.5 19q22 0 37.5 -15.5t15.5 -37.5q0 -26 -19 -45t-46 -19z" />
    <glyph glyph-name="Amacron" unicode="&#x100;" horiz-adv-x="667" 
d="M-46 0l415 700h116l121 -700h-101l-33 207h-291l-118 -207h-109zM225 286h235l-52 321zM301 820l14 63h281l-13 -63h-282z" />
    <glyph glyph-name="amacron" unicode="&#x101;" horiz-adv-x="529" 
d="M188 -6q-73 0 -117.5 37.5t-44.5 99.5q0 48 24 83.5t67.5 55.5t101.5 20q43 0 82.5 -10.5t70.5 -30.5l11 51q14 62 -13 93t-95 31q-29 0 -62 -7.5t-76 -26.5l-24 71q51 21 96 31t86 10q70 0 115 -24t62.5 -68t3.5 -105l-67 -305h-92l10 46q-35 -27 -68.5 -39.5
t-70.5 -12.5zM219 61q33 0 62.5 10.5t58.5 32.5l20 88q-26 18 -58.5 26t-72.5 8q-51 0 -83 -24t-32 -62q0 -37 27.5 -58t77.5 -21zM179 615l14 63h281l-13 -63h-282z" />
    <glyph glyph-name="Abreve" unicode="&#x102;" horiz-adv-x="667" 
d="M-46 0l415 700h116l121 -700h-101l-33 207h-291l-118 -207h-109zM225 286h235l-52 321zM450 788q-64 0 -103.5 36.5t-41.5 99.5l58 13q2 -46 25 -69.5t64 -23.5q77 0 117 88l59 -19q-26 -59 -72.5 -92t-105.5 -33z" />
    <glyph glyph-name="abreve" unicode="&#x103;" horiz-adv-x="529" 
d="M188 -6q-73 0 -117.5 37.5t-44.5 99.5q0 48 24 83.5t67.5 55.5t101.5 20q43 0 82.5 -10.5t70.5 -30.5l11 51q14 62 -13 93t-95 31q-29 0 -62 -7.5t-76 -26.5l-24 71q51 21 96 31t86 10q70 0 115 -24t62.5 -68t3.5 -105l-67 -305h-92l10 46q-35 -27 -68.5 -39.5
t-70.5 -12.5zM219 61q33 0 62.5 10.5t58.5 32.5l20 88q-26 18 -58.5 26t-72.5 8q-51 0 -83 -24t-32 -62q0 -37 27.5 -58t77.5 -21zM328 583q-64 0 -103.5 36.5t-41.5 99.5l58 13q2 -46 25 -69.5t64 -23.5q77 0 117 88l59 -19q-26 -59 -72.5 -92t-105.5 -33z" />
    <glyph glyph-name="Aogonek" unicode="&#x104;" horiz-adv-x="667" 
d="M514 -232q-42 0 -67.5 21.5t-25.5 56.5q0 83 120 154h-36l-33 207h-291l-118 -207h-109l415 700h116l121 -700q-64 -34 -94 -66.5t-30 -66.5q0 -20 15.5 -32.5t39.5 -12.5q12 0 24.5 3t21.5 7l4 -48q-14 -7 -33.5 -11.5t-39.5 -4.5zM225 286h235l-52 321z" />
    <glyph glyph-name="aogonek" unicode="&#x105;" horiz-adv-x="529" 
d="M317 -232q-43 0 -68.5 21.5t-25.5 56.5q0 83 121 154h-27l10 46q-35 -27 -68.5 -39.5t-70.5 -12.5q-73 0 -117.5 37.5t-44.5 99.5q0 48 24 83.5t67.5 55.5t101.5 20q43 0 82.5 -10.5t70.5 -30.5l11 51q14 62 -13 93t-95 31q-29 0 -62 -7.5t-76 -26.5l-24 71q51 21 96 31
t86 10q70 0 115 -24t62.5 -68t3.5 -105l-67 -305q-63 -34 -94 -66.5t-31 -66.5q0 -20 15.5 -32.5t39.5 -12.5q12 0 24.5 3t22.5 7l4 -48q-15 -7 -34 -11.5t-39 -4.5zM219 61q33 0 62.5 10.5t58.5 32.5l20 88q-26 18 -58.5 26t-72.5 8q-51 0 -83 -24t-32 -62q0 -37 27.5 -58
t77.5 -21z" />
    <glyph glyph-name="Cacute" unicode="&#x106;" horiz-adv-x="713" 
d="M400 -11q-70 0 -129.5 25t-104 70t-69 105.5t-24.5 131.5q0 80 29.5 150t81 124t120 84.5t146.5 30.5q85 0 153 -33.5t111 -97.5l-75 -64q-31 50 -82 77.5t-113 27.5q-56 0 -105 -23t-86.5 -63.5t-58.5 -93.5t-21 -115q0 -70 31 -126t84 -88t120 -32q56 0 108 22.5
t93 64.5l53 -67q-54 -52 -123 -81t-139 -29zM404 793l143 128h124l-178 -128h-89z" />
    <glyph glyph-name="cacute" unicode="&#x107;" horiz-adv-x="505" 
d="M264 -9q-62 0 -111 28.5t-77 79.5t-28 115q0 59 21 111.5t58 92t86 62t104 22.5q59 0 110.5 -26t80.5 -71l-68 -57q-22 34 -54 52t-72 18q-47 0 -86.5 -27t-63.5 -72t-24 -99q0 -42 18 -75.5t49.5 -52.5t71.5 -19q34 0 65.5 12.5t58.5 34.5l44 -60q-38 -34 -85.5 -51.5
t-97.5 -17.5zM272 588l143 128h124l-178 -128h-89z" />
    <glyph glyph-name="Ccircumflex" unicode="&#x108;" horiz-adv-x="713" 
d="M400 -11q-70 0 -129.5 25t-104 70t-69 105.5t-24.5 131.5q0 80 29.5 150t81 124t120 84.5t146.5 30.5q85 0 153 -33.5t111 -97.5l-75 -64q-31 50 -82 77.5t-113 27.5q-56 0 -105 -23t-86.5 -63.5t-58.5 -93.5t-21 -115q0 -70 31 -126t84 -88t120 -32q56 0 108 22.5
t93 64.5l53 -67q-54 -52 -123 -81t-139 -29zM302 789l141 133h96l89 -133h-71l-71 84l-107 -84h-77z" />
    <glyph glyph-name="ccircumflex" unicode="&#x109;" horiz-adv-x="505" 
d="M264 -9q-62 0 -111 28.5t-77 79.5t-28 115q0 59 21 111.5t58 92t86 62t104 22.5q59 0 110.5 -26t80.5 -71l-68 -57q-22 34 -54 52t-72 18q-47 0 -86.5 -27t-63.5 -72t-24 -99q0 -42 18 -75.5t49.5 -52.5t71.5 -19q34 0 65.5 12.5t58.5 34.5l44 -60q-38 -34 -85.5 -51.5
t-97.5 -17.5zM170 584l141 133h96l89 -133h-71l-71 84l-107 -84h-77z" />
    <glyph glyph-name="Cdotaccent" unicode="&#x10a;" horiz-adv-x="713" 
d="M400 -11q-70 0 -129.5 25t-104 70t-69 105.5t-24.5 131.5q0 80 29.5 150t81 124t120 84.5t146.5 30.5q85 0 153 -33.5t111 -97.5l-75 -64q-31 50 -82 77.5t-113 27.5q-56 0 -105 -23t-86.5 -63.5t-58.5 -93.5t-21 -115q0 -70 31 -126t84 -88t120 -32q56 0 108 22.5
t93 64.5l53 -67q-54 -52 -123 -81t-139 -29zM476 812q-24 0 -40 16.5t-16 39.5q0 26 20.5 46t46.5 20q23 0 39.5 -16.5t16.5 -39.5q0 -17 -9.5 -32t-24.5 -24.5t-33 -9.5z" />
    <glyph glyph-name="cdotaccent" unicode="&#x10b;" horiz-adv-x="505" 
d="M264 -9q-62 0 -111 28.5t-77 79.5t-28 115q0 59 21 111.5t58 92t86 62t104 22.5q59 0 110.5 -26t80.5 -71l-68 -57q-22 34 -54 52t-72 18q-47 0 -86.5 -27t-63.5 -72t-24 -99q0 -42 18 -75.5t49.5 -52.5t71.5 -19q34 0 65.5 12.5t58.5 34.5l44 -60q-38 -34 -85.5 -51.5
t-97.5 -17.5zM344 607q-24 0 -40 16.5t-16 39.5q0 26 20.5 46t46.5 20q23 0 39.5 -16.5t16.5 -39.5q0 -17 -9.5 -32t-24.5 -24.5t-33 -9.5z" />
    <glyph glyph-name="Ccaron" unicode="&#x10c;" horiz-adv-x="713" 
d="M400 -11q-70 0 -129.5 25t-104 70t-69 105.5t-24.5 131.5q0 80 29.5 150t81 124t120 84.5t146.5 30.5q85 0 153 -33.5t111 -97.5l-75 -64q-31 50 -82 77.5t-113 27.5q-56 0 -105 -23t-86.5 -63.5t-58.5 -93.5t-21 -115q0 -70 31 -126t84 -88t120 -32q56 0 108 22.5
t93 64.5l53 -67q-54 -52 -123 -81t-139 -29zM416 793l-89 133h72l70 -83l106 83h78l-141 -133h-96z" />
    <glyph glyph-name="ccaron" unicode="&#x10d;" horiz-adv-x="505" 
d="M264 -9q-62 0 -111 28.5t-77 79.5t-28 115q0 59 21 111.5t58 92t86 62t104 22.5q59 0 110.5 -26t80.5 -71l-68 -57q-22 34 -54 52t-72 18q-47 0 -86.5 -27t-63.5 -72t-24 -99q0 -42 18 -75.5t49.5 -52.5t71.5 -19q34 0 65.5 12.5t58.5 34.5l44 -60q-38 -34 -85.5 -51.5
t-97.5 -17.5zM284 588l-89 133h72l70 -83l106 83h78l-141 -133h-96z" />
    <glyph glyph-name="Dcaron" unicode="&#x10e;" horiz-adv-x="724" 
d="M31 0l149 700h209q90 0 157.5 -39t106 -109t38.5 -162q0 -80 -30.5 -150.5t-84 -124.5t-123.5 -84.5t-151 -30.5h-271zM383 612h-124l-111 -524h166q58 0 107.5 23t87 63.5t59 94.5t21.5 116q0 68 -26 118.5t-72.5 79.5t-107.5 29zM415 793l-89 133h72l70 -83l106 83h78
l-141 -133h-96z" />
    <glyph glyph-name="dcaron" unicode="&#x10f;" horiz-adv-x="693" 
d="M249 -6q-56 0 -100 29.5t-69 80.5t-25 115q0 57 19.5 108t54.5 89.5t81 60.5t99 22q49 0 88 -19.5t65 -57.5l61 298l96 17l-154 -737h-92l10 46q-27 -24 -61.5 -38t-72.5 -14zM285 74q63 0 113 44l48 235q-18 29 -51.5 47t-72.5 18q-49 0 -89 -25.5t-63.5 -68.5
t-23.5 -98q0 -67 39 -109.5t100 -42.5zM649 520l50 200l90 17l-74 -217h-66z" />
    <glyph glyph-name="Dcroat" unicode="&#x110;" horiz-adv-x="750" 
d="M57 0l67 315h-90l16 75h91l65 310h210q89 0 157 -39t106 -109t38 -162q0 -80 -30.5 -150.5t-84 -124.5t-123.5 -84.5t-150 -30.5h-272zM174 88h167q57 0 106.5 23t87 63.5t59 94.5t21.5 116q0 68 -26 118.5t-72.5 79.5t-107.5 29h-124l-47 -222h159l-16 -75h-159z" />
    <glyph glyph-name="dcroat" unicode="&#x111;" horiz-adv-x="591" 
d="M243 -6q-56 0 -100 29.5t-69 80.5t-25 115q0 57 19.5 108t54.5 89.5t81 60.5t99 22q49 0 88 -19.5t65 -57.5l30 148h-127l14 59h126l17 85l96 18l-21 -103h65l-14 -59h-64l-119 -570h-92l10 46q-27 -24 -61.5 -38t-72.5 -14zM279 74q63 0 113 44l48 235q-18 29 -51.5 47
t-72.5 18q-49 0 -89 -25.5t-63.5 -68.5t-23.5 -98q0 -67 39 -109.5t100 -42.5z" />
    <glyph glyph-name="Emacron" unicode="&#x112;" horiz-adv-x="619" 
d="M31 0l149 700h480l-19 -86h-382l-46 -218h266l-18 -85h-266l-48 -225h386l-18 -86h-484zM293 820l14 63h281l-13 -63h-282z" />
    <glyph glyph-name="emacron" unicode="&#x113;" horiz-adv-x="554" 
d="M277 -9q-67 0 -119 29t-81 81t-29 119q0 58 20 109t55.5 90t82.5 61.5t100 22.5q59 0 105 -28t72 -77.5t26 -113.5q0 -16 -0.5 -30t-3.5 -29h-367q0 -43 18.5 -78.5t51.5 -56.5t76 -21q33 0 65 11t56 31l50 -63q-45 -30 -87.5 -43.5t-90.5 -13.5zM146 287h277
q0 39 -16 69.5t-43.5 48.5t-63.5 18t-67.5 -17t-53.5 -48t-33 -71zM186 615l14 63h281l-13 -63h-282z" />
    <glyph glyph-name="Ebreve" unicode="&#x114;" horiz-adv-x="619" 
d="M31 0l149 700h480l-19 -86h-382l-46 -218h266l-18 -85h-266l-48 -225h386l-18 -86h-484zM442 788q-64 0 -103.5 36.5t-41.5 99.5l58 13q2 -46 25 -69.5t64 -23.5q77 0 117 88l59 -19q-26 -59 -72.5 -92t-105.5 -33z" />
    <glyph glyph-name="ebreve" unicode="&#x115;" horiz-adv-x="554" 
d="M277 -9q-67 0 -119 29t-81 81t-29 119q0 58 20 109t55.5 90t82.5 61.5t100 22.5q59 0 105 -28t72 -77.5t26 -113.5q0 -16 -0.5 -30t-3.5 -29h-367q0 -43 18.5 -78.5t51.5 -56.5t76 -21q33 0 65 11t56 31l50 -63q-45 -30 -87.5 -43.5t-90.5 -13.5zM146 287h277
q0 39 -16 69.5t-43.5 48.5t-63.5 18t-67.5 -17t-53.5 -48t-33 -71zM335 583q-64 0 -103.5 36.5t-41.5 99.5l58 13q2 -46 25 -69.5t64 -23.5q77 0 117 88l59 -19q-26 -59 -72.5 -92t-105.5 -33z" />
    <glyph glyph-name="Edotaccent" unicode="&#x116;" horiz-adv-x="619" 
d="M31 0l149 700h480l-19 -86h-382l-46 -218h266l-18 -85h-266l-48 -225h386l-18 -86h-484zM442 812q-24 0 -40 16.5t-16 39.5q0 26 20.5 46t46.5 20q23 0 39.5 -16.5t16.5 -39.5q0 -17 -9.5 -32t-24.5 -24.5t-33 -9.5z" />
    <glyph glyph-name="edotaccent" unicode="&#x117;" horiz-adv-x="554" 
d="M277 -9q-67 0 -119 29t-81 81t-29 119q0 58 20 109t55.5 90t82.5 61.5t100 22.5q59 0 105 -28t72 -77.5t26 -113.5q0 -16 -0.5 -30t-3.5 -29h-367q0 -43 18.5 -78.5t51.5 -56.5t76 -21q33 0 65 11t56 31l50 -63q-45 -30 -87.5 -43.5t-90.5 -13.5zM146 287h277
q0 39 -16 69.5t-43.5 48.5t-63.5 18t-67.5 -17t-53.5 -48t-33 -71zM336 607q-24 0 -40 16.5t-16 39.5q0 26 20.5 46t46.5 20q23 0 39.5 -16.5t16.5 -39.5q0 -17 -9.5 -32t-24.5 -24.5t-33 -9.5z" />
    <glyph glyph-name="Eogonek" unicode="&#x118;" horiz-adv-x="619" 
d="M423 -232q-43 0 -68.5 21.5t-25.5 56.5q0 41 30.5 79.5t90.5 74.5h-419l149 700h480l-19 -86h-382l-46 -218h266l-18 -85h-266l-48 -225h386l-18 -86q-63 -34 -94 -66.5t-31 -66.5q0 -20 15.5 -32.5t40.5 -12.5q11 0 23.5 3t22.5 7l4 -48q-14 -7 -33.5 -11.5t-39.5 -4.5z
" />
    <glyph glyph-name="eogonek" unicode="&#x119;" horiz-adv-x="554" 
d="M261 -232q-42 0 -67.5 21.5t-25.5 56.5q0 39 26.5 75t78.5 70q-66 0 -117 29.5t-79.5 81t-28.5 118.5q0 58 20 109t55.5 90t82.5 61.5t100 22.5q59 0 105 -28t72 -77.5t26 -113.5q0 -16 -0.5 -30t-3.5 -29h-367q0 -43 19 -78.5t51.5 -56.5t75.5 -21q33 0 65 11t56 31
l50 -63q-26 -18 -51 -29.5t-51 -18.5q-63 -34 -93.5 -66.5t-30.5 -66.5q0 -20 15.5 -32.5t39.5 -12.5q12 0 24.5 3t22.5 7l4 -48q-15 -7 -34.5 -11.5t-39.5 -4.5zM300 423q-36 0 -67.5 -17t-53.5 -48t-33 -71h277q0 39 -16 69.5t-43.5 48.5t-63.5 18z" />
    <glyph glyph-name="Ecaron" unicode="&#x11a;" horiz-adv-x="619" 
d="M31 0l149 700h480l-19 -86h-382l-46 -218h266l-18 -85h-266l-48 -225h386l-18 -86h-484zM382 793l-89 133h72l70 -83l106 83h78l-141 -133h-96z" />
    <glyph glyph-name="ecaron" unicode="&#x11b;" horiz-adv-x="554" 
d="M277 -9q-67 0 -119 29t-81 81t-29 119q0 58 20 109t55.5 90t82.5 61.5t100 22.5q59 0 105 -28t72 -77.5t26 -113.5q0 -16 -0.5 -30t-3.5 -29h-367q0 -43 18.5 -78.5t51.5 -56.5t76 -21q33 0 65 11t56 31l50 -63q-45 -30 -87.5 -43.5t-90.5 -13.5zM146 287h277
q0 39 -16 69.5t-43.5 48.5t-63.5 18t-67.5 -17t-53.5 -48t-33 -71zM275 588l-89 133h72l70 -83l106 83h78l-141 -133h-96z" />
    <glyph glyph-name="Gcircumflex" unicode="&#x11c;" horiz-adv-x="786" 
d="M392 -10q-68 0 -127 24.5t-102.5 69.5t-68 105t-24.5 130q0 80 29.5 151t82.5 125.5t121.5 85t145.5 30.5q88 0 160 -35t118 -101l-77 -63q-32 51 -87 80t-121 29q-57 0 -106 -23t-86.5 -64.5t-58.5 -95t-21 -115.5q0 -71 29.5 -126t82 -86.5t118.5 -31.5
q58 0 107.5 26.5t84.5 74t48 108.5h-217l16 87h318l-10 -57q-17 -96 -68 -170.5t-125 -116t-162 -41.5zM301 789l141 133h96l89 -133h-71l-71 84l-107 -84h-77z" />
    <glyph glyph-name="gcircumflex" unicode="&#x11d;" horiz-adv-x="580" 
d="M236 -219q-55 0 -114 20t-103 53l45 67q85 -61 168 -61q51 0 84.5 26.5t43.5 76.5l18 86q-27 -26 -61.5 -39.5t-72.5 -13.5q-56 0 -100.5 29.5t-69.5 79.5t-25 114q0 58 19.5 108.5t55 89t81 60.5t98.5 22q49 0 88.5 -19.5t64.5 -57.5l15 73h92l-113 -541
q-18 -84 -73 -128.5t-141 -44.5zM280 75q31 0 60 11.5t53 33.5l48 234q-19 29 -53 46.5t-72 17.5q-49 0 -88.5 -25.5t-63 -68.5t-23.5 -97q0 -68 38.5 -110t100.5 -42zM183 584l141 133h96l89 -133h-71l-71 84l-107 -84h-77z" />
    <glyph glyph-name="Gbreve" unicode="&#x11e;" horiz-adv-x="786" 
d="M392 -10q-68 0 -127 24.5t-102.5 69.5t-68 105t-24.5 130q0 80 29.5 151t82.5 125.5t121.5 85t145.5 30.5q88 0 160 -35t118 -101l-77 -63q-32 51 -87 80t-121 29q-57 0 -106 -23t-86.5 -64.5t-58.5 -95t-21 -115.5q0 -71 29.5 -126t82 -86.5t118.5 -31.5
q58 0 107.5 26.5t84.5 74t48 108.5h-217l16 87h318l-10 -57q-17 -96 -68 -170.5t-125 -116t-162 -41.5zM475 788q-64 0 -103.5 36.5t-41.5 99.5l58 13q2 -46 25 -69.5t64 -23.5q77 0 117 88l59 -19q-26 -59 -72.5 -92t-105.5 -33z" />
    <glyph glyph-name="gbreve" unicode="&#x11f;" horiz-adv-x="580" 
d="M236 -219q-55 0 -114 20t-103 53l45 67q85 -61 168 -61q51 0 84.5 26.5t43.5 76.5l18 86q-27 -26 -61.5 -39.5t-72.5 -13.5q-56 0 -100.5 29.5t-69.5 79.5t-25 114q0 58 19.5 108.5t55 89t81 60.5t98.5 22q49 0 88.5 -19.5t64.5 -57.5l15 73h92l-113 -541
q-18 -84 -73 -128.5t-141 -44.5zM280 75q31 0 60 11.5t53 33.5l48 234q-19 29 -53 46.5t-72 17.5q-49 0 -88.5 -25.5t-63 -68.5t-23.5 -97q0 -68 38.5 -110t100.5 -42zM357 583q-64 0 -103.5 36.5t-41.5 99.5l58 13q2 -46 25 -69.5t64 -23.5q77 0 117 88l59 -19
q-26 -59 -72.5 -92t-105.5 -33z" />
    <glyph glyph-name="Gdotaccent" unicode="&#x120;" horiz-adv-x="786" 
d="M392 -10q-68 0 -127 24.5t-102.5 69.5t-68 105t-24.5 130q0 80 29.5 151t82.5 125.5t121.5 85t145.5 30.5q88 0 160 -35t118 -101l-77 -63q-32 51 -87 80t-121 29q-57 0 -106 -23t-86.5 -64.5t-58.5 -95t-21 -115.5q0 -71 29.5 -126t82 -86.5t118.5 -31.5
q58 0 107.5 26.5t84.5 74t48 108.5h-217l16 87h318l-10 -57q-17 -96 -68 -170.5t-125 -116t-162 -41.5zM476 812q-24 0 -40 16.5t-16 39.5q0 26 20.5 46t46.5 20q23 0 39.5 -16.5t16.5 -39.5q0 -17 -9.5 -32t-24.5 -24.5t-33 -9.5z" />
    <glyph glyph-name="gdotaccent" unicode="&#x121;" horiz-adv-x="580" 
d="M236 -219q-55 0 -114 20t-103 53l45 67q85 -61 168 -61q51 0 84.5 26.5t43.5 76.5l18 86q-27 -26 -61.5 -39.5t-72.5 -13.5q-56 0 -100.5 29.5t-69.5 79.5t-25 114q0 58 19.5 108.5t55 89t81 60.5t98.5 22q49 0 88.5 -19.5t64.5 -57.5l15 73h92l-113 -541
q-18 -84 -73 -128.5t-141 -44.5zM280 75q31 0 60 11.5t53 33.5l48 234q-19 29 -53 46.5t-72 17.5q-49 0 -88.5 -25.5t-63 -68.5t-23.5 -97q0 -68 38.5 -110t100.5 -42zM358 607q-24 0 -40 16.5t-16 39.5q0 26 20.5 46t46.5 20q23 0 39.5 -16.5t16.5 -39.5q0 -17 -9.5 -32
t-24.5 -24.5t-33 -9.5z" />
    <glyph glyph-name="uni0122" unicode="&#x122;" horiz-adv-x="786" 
d="M392 -10q-68 0 -127 24.5t-102.5 69.5t-68 105t-24.5 130q0 80 29.5 151t82.5 125.5t121.5 85t145.5 30.5q88 0 160 -35t118 -101l-77 -63q-32 51 -87 80t-121 29q-57 0 -106 -23t-86.5 -64.5t-58.5 -95t-21 -115.5q0 -71 29.5 -126t82 -86.5t118.5 -31.5
q58 0 107.5 26.5t84.5 74t48 108.5h-217l16 87h318l-10 -57q-17 -96 -68 -170.5t-125 -116t-162 -41.5zM246 -282l92 194h93l-119 -194h-66z" />
    <glyph glyph-name="uni0123" unicode="&#x123;" horiz-adv-x="580" 
d="M487 808l-92 -194h-93l118 194h67zM236 -219q-55 0 -114 20t-103 53l45 67q85 -61 168 -61q51 0 84.5 26.5t43.5 76.5l18 86q-27 -26 -61.5 -39.5t-72.5 -13.5q-56 0 -100.5 29.5t-69.5 79.5t-25 114q0 58 19.5 108.5t55 89t81 60.5t98.5 22q49 0 88.5 -19.5t64.5 -57.5
l15 73h92l-113 -541q-18 -84 -73 -128.5t-141 -44.5zM280 75q31 0 60 11.5t53 33.5l48 234q-19 29 -53 46.5t-72 17.5q-49 0 -88.5 -25.5t-63 -68.5t-23.5 -97q0 -68 38.5 -110t100.5 -42z" />
    <glyph glyph-name="Hcircumflex" unicode="&#x124;" horiz-adv-x="725" 
d="M27 0l149 700h98l-64 -303h365l65 303h99l-149 -700h-99l66 308h-366l-66 -308h-98zM312 789l141 133h96l89 -133h-71l-71 84l-107 -84h-77z" />
    <glyph glyph-name="hcircumflex" unicode="&#x125;" horiz-adv-x="558" 
d="M17 0l150 720l97 17l-66 -321q35 43 75.5 64.5t86.5 21.5q54 0 90.5 -25t50.5 -68t1 -100l-66 -309h-93l62 288q14 62 -12 100t-82 38q-36 0 -68.5 -17.5t-56.5 -48.5l-75 -360h-94zM62 789l141 133h96l89 -133h-71l-71 84l-107 -84h-77z" />
    <glyph glyph-name="Hbar" unicode="&#x126;" horiz-adv-x="754" 
d="M40 0l110 514h-86l18 76h83l24 110h98l-24 -110h367l23 110h98l-24 -110h86l-18 -76h-84l-109 -514h-98l66 309h-366l-66 -309h-98zM221 394h367l26 120h-367z" />
    <glyph glyph-name="hbar" unicode="&#x127;" horiz-adv-x="564" 
d="M24 0l119 570h-56l14 59h55l17 85l98 18l-22 -103h137l-14 -59h-136l-31 -154q35 43 75.5 64.5t86.5 21.5q54 0 90.5 -25t50.5 -68t1 -100l-66 -309h-93l62 288q14 62 -12 100t-82 38q-36 0 -68.5 -17.5t-56.5 -48.5l-75 -360h-94z" />
    <glyph glyph-name="Itilde" unicode="&#x128;" horiz-adv-x="260" 
d="M27 0l149 700h98l-149 -700h-98zM129 792l-57 19q24 53 53.5 79.5t60.5 26.5q24 0 43.5 -10t37 -23t33.5 -23t31 -10q14 0 24.5 13t27.5 49l57 -18q-24 -53 -52 -79.5t-59 -26.5q-23 0 -43 10t-37 22.5t-33 22t-31 9.5q-16 0 -29 -13.5t-27 -47.5z" />
    <glyph glyph-name="itilde" unicode="&#x129;" horiz-adv-x="235" 
d="M17 0l109 495h92l-107 -495h-94zM76 587l-57 19q24 53 53.5 79.5t60.5 26.5q24 0 43.5 -10t37 -23t33.5 -23t31 -10q14 0 24.5 13t27.5 49l57 -18q-24 -53 -52 -79.5t-59 -26.5q-23 0 -43 10t-37 22.5t-33 22t-31 9.5q-16 0 -29 -13.5t-27 -47.5z" />
    <glyph glyph-name="Imacron" unicode="&#x12a;" horiz-adv-x="260" 
d="M27 0l149 700h98l-149 -700h-98zM104 820l14 63h281l-13 -63h-282z" />
    <glyph glyph-name="imacron" unicode="&#x12b;" horiz-adv-x="235" 
d="M17 0l109 495h92l-107 -495h-94zM51 615l14 63h281l-13 -63h-282z" />
    <glyph glyph-name="Ibreve" unicode="&#x12c;" horiz-adv-x="260" 
d="M27 0l149 700h98l-149 -700h-98zM253 788q-64 0 -103.5 36.5t-41.5 99.5l58 13q2 -46 25 -69.5t64 -23.5q77 0 117 88l59 -19q-26 -59 -72.5 -92t-105.5 -33z" />
    <glyph glyph-name="ibreve" unicode="&#x12d;" horiz-adv-x="235" 
d="M17 0l109 495h92l-107 -495h-94zM200 583q-64 0 -103.5 36.5t-41.5 99.5l58 13q2 -46 25 -69.5t64 -23.5q77 0 117 88l59 -19q-26 -59 -72.5 -92t-105.5 -33z" />
    <glyph glyph-name="Iogonek" unicode="&#x12e;" horiz-adv-x="260" 
d="M32 -232q-42 0 -67.5 21.5t-25.5 56.5q0 83 120 154h-32l149 700h98l-149 -700q-64 -34 -94.5 -66.5t-30.5 -66.5q0 -20 15.5 -32.5t39.5 -12.5q12 0 24.5 3t21.5 7l5 -48q-15 -7 -34.5 -11.5t-39.5 -4.5z" />
    <glyph glyph-name="iogonek" unicode="&#x12f;" horiz-adv-x="235" 
d="M196 605q-24 0 -39 15.5t-15 39.5q0 18 9 34t24.5 25.5t33.5 9.5q23 0 39 -16t16 -39q0 -28 -20.5 -48.5t-47.5 -20.5zM18 -232q-42 0 -67.5 21.5t-25.5 56.5q0 83 120 154h-28l109 495h92l-107 -495q-64 -34 -94.5 -66.5t-30.5 -66.5q0 -20 15.5 -32.5t39.5 -12.5
q12 0 24.5 3t21.5 7l5 -48q-15 -7 -34.5 -11.5t-39.5 -4.5z" />
    <glyph glyph-name="Idotaccent" unicode="&#x130;" horiz-adv-x="260" 
d="M27 0l149 700h98l-149 -700h-98zM254 812q-24 0 -40 16.5t-16 39.5q0 26 20.5 46t46.5 20q23 0 39.5 -16.5t16.5 -39.5q0 -17 -9.5 -32t-24.5 -24.5t-33 -9.5z" />
    <glyph glyph-name="dotlessi" unicode="&#x131;" horiz-adv-x="235" 
d="M17 0l109 495h92l-107 -495h-94z" />
    <glyph glyph-name="IJ" unicode="&#x132;" horiz-adv-x="865" 
d="M27 0l149 700h98l-149 -700h-98zM509 -11q-95 0 -157 51t-78 142l90 31q12 -66 48 -100t96 -34q70 0 120.5 50t69.5 138l92 433h99l-95 -446q-17 -84 -57 -143.5t-98 -90.5t-130 -31z" />
    <glyph glyph-name="ij" unicode="&#x133;" horiz-adv-x="471" 
d="M196 605q-24 0 -39 15.5t-15 39.5q0 18 9 34t24.5 25.5t33.5 9.5q23 0 39 -16t16 -39q0 -28 -20.5 -48.5t-47.5 -20.5zM17 0l109 495h92l-107 -495h-94zM431 605q-24 0 -39 15.5t-15 39.5q0 18 9 34t24.5 25.5t33.5 9.5q23 0 39 -16t16 -39q0 -28 -20.5 -48.5
t-47.5 -20.5zM178 -219q-16 0 -33.5 2.5t-28.5 7.5l17 77q9 -3 19 -4.5t24 -1.5q25 0 40 13t21 43l124 577h93l-127 -586q-13 -61 -52 -94.5t-97 -33.5z" />
    <glyph glyph-name="Jcircumflex" unicode="&#x134;" horiz-adv-x="605" 
d="M249 -11q-95 0 -157 51t-78 142l90 31q12 -66 48 -100t96 -34q70 0 120.5 50t69.5 138l92 433h99l-95 -446q-17 -84 -57 -143.5t-98 -90.5t-130 -31zM434 789l141 133h96l89 -133h-71l-71 84l-107 -84h-77z" />
    <glyph glyph-name="jcircumflex" unicode="&#x135;" horiz-adv-x="235" 
d="M-58 -214q-15 0 -32 3t-28 7l17 77q16 -6 41 -6q27 0 42 13t21 43l123 572h93l-126 -580q-12 -61 -51.5 -95t-99.5 -34zM26 584l141 133h96l89 -133h-71l-71 84l-107 -84h-77z" />
    <glyph glyph-name="uni0136" unicode="&#x136;" horiz-adv-x="628" 
d="M31 0l149 700h98l-68 -315l378 315h128l-414 -341l270 -359h-123l-248 339l-72 -339h-98zM150 -282l92 194h93l-119 -194h-66z" />
    <glyph glyph-name="uni0137" unicode="&#x137;" horiz-adv-x="503" 
d="M17 0l152 720l96 17l-96 -458l256 216h119l-295 -244l194 -251h-110l-174 232l-48 -232h-94zM73 -282l92 194h93l-119 -194h-66z" />
    <glyph glyph-name="kgreenlandic" unicode="&#x138;" horiz-adv-x="503" 
d="M17 0l109 495h92l-47 -218l257 218h119l-298 -246l189 -249h-112l-166 227l-49 -227h-94z" />
    <glyph glyph-name="Lacute" unicode="&#x139;" horiz-adv-x="605" 
d="M31 0l149 700h98l-131 -613h375l-18 -87h-473zM185 793l143 128h124l-178 -128h-89z" />
    <glyph glyph-name="lacute" unicode="&#x13a;" horiz-adv-x="235" 
d="M17 0l152 720l95 17l-153 -737h-94zM167 793l143 128h124l-178 -128h-89z" />
    <glyph glyph-name="uni013B" unicode="&#x13b;" horiz-adv-x="605" 
d="M31 0l149 700h98l-131 -613h375l-18 -87h-473zM141 -282l92 194h93l-119 -194h-66z" />
    <glyph glyph-name="uni013C" unicode="&#x13c;" horiz-adv-x="235" 
d="M17 0l152 720l95 17l-153 -737h-94zM-81 -282l92 194h93l-119 -194h-66z" />
    <glyph glyph-name="Lcaron" unicode="&#x13d;" horiz-adv-x="616" 
d="M31 0l149 700h98l-131 -613h375l-18 -87h-473zM469 520l50 200l90 17l-74 -217h-66z" />
    <glyph glyph-name="lcaron" unicode="&#x13e;" horiz-adv-x="342" 
d="M32 0l152 720l95 17l-153 -737h-94zM310 520l50 200l90 17l-74 -217h-66z" />
    <glyph glyph-name="Lslash" unicode="&#x141;" horiz-adv-x="631" 
d="M52 0l50 235l-108 -69l19 92l108 69l80 373h97l-65 -304l197 126l-19 -92l-197 -127l-47 -216h376l-18 -87h-473z" />
    <glyph glyph-name="lslash" unicode="&#x142;" horiz-adv-x="276" 
d="M43 0l59 281l-102 -70l20 95l102 70l72 338l95 18l-59 -284l107 73l-20 -96l-107 -73l-74 -352h-93z" />
    <glyph glyph-name="Nacute" unicode="&#x143;" horiz-adv-x="737" 
d="M31 0l148 700h98l264 -551l112 551h93l-148 -700h-88l-271 563l-116 -563h-92zM412 793l143 128h124l-178 -128h-89z" />
    <glyph glyph-name="nacute" unicode="&#x144;" horiz-adv-x="558" 
d="M17 0l109 495h92l-15 -73q33 39 73 59.5t84 20.5q54 0 90.5 -25t50.5 -68t1 -100l-66 -309h-93l62 288q14 62 -12 100t-82 38q-33 0 -64 -15.5t-57 -45.5l-79 -365h-94zM285 588l143 128h124l-178 -128h-89z" />
    <glyph glyph-name="uni0145" unicode="&#x145;" horiz-adv-x="737" 
d="M31 0l148 700h98l264 -551l112 551h93l-148 -700h-88l-271 563l-116 -563h-92zM163 -282l92 194h93l-119 -194h-66z" />
    <glyph glyph-name="uni0146" unicode="&#x146;" horiz-adv-x="558" 
d="M17 0l109 495h92l-15 -73q33 39 73 59.5t84 20.5q54 0 90.5 -25t50.5 -68t1 -100l-66 -309h-93l62 288q14 62 -12 100t-82 38q-33 0 -64 -15.5t-57 -45.5l-79 -365h-94zM78 -282l92 194h93l-119 -194h-66z" />
    <glyph glyph-name="Ncaron" unicode="&#x147;" horiz-adv-x="737" 
d="M31 0l148 700h98l264 -551l112 551h93l-148 -700h-88l-271 563l-116 -563h-92zM424 793l-89 133h72l70 -83l106 83h78l-141 -133h-96z" />
    <glyph glyph-name="ncaron" unicode="&#x148;" horiz-adv-x="558" 
d="M17 0l109 495h92l-15 -73q33 39 73 59.5t84 20.5q54 0 90.5 -25t50.5 -68t1 -100l-66 -309h-93l62 288q14 62 -12 100t-82 38q-33 0 -64 -15.5t-57 -45.5l-79 -365h-94zM297 588l-89 133h72l70 -83l106 83h78l-141 -133h-96z" />
    <glyph glyph-name="Eng" unicode="&#x14a;" horiz-adv-x="737" 
d="M430 -210q-18 0 -34 3t-27 7l17 76q8 -3 18 -4.5t24 -1.5q28 0 44 15t22 45l16 74l-270 556l-117 -560h-92l148 700h100l261 -542l113 542h93l-166 -781q-13 -62 -52.5 -95.5t-97.5 -33.5z" />
    <glyph glyph-name="eng" unicode="&#x14b;" horiz-adv-x="558" 
d="M268 -214q-15 0 -32 3t-28 7l16 79q8 -3 18.5 -4.5t24.5 -1.5q26 0 40.5 13.5t20.5 42.5l77 364q13 61 -12.5 99t-81.5 38q-68 0 -121 -61l-79 -365h-94l109 495h92l-15 -73q33 39 73 59.5t84 20.5q54 0 90 -25t51 -67.5t2 -98.5l-84 -395q-13 -62 -52.5 -96t-98.5 -34z
" />
    <glyph glyph-name="Omacron" unicode="&#x14c;" horiz-adv-x="795" 
d="M392 -11q-68 0 -126.5 25t-102 70t-67.5 105.5t-24 130.5q0 80 29.5 150.5t80.5 124.5t118 85t142 31q69 0 127 -25t101.5 -70t67.5 -105t24 -131q0 -80 -29 -150.5t-80 -124.5t-118 -85t-143 -31zM399 79q54 0 101.5 23.5t84 64t57 94t20.5 113.5q0 71 -29 127t-80.5 88
t-115.5 32q-55 0 -103 -23.5t-84.5 -64t-57 -94t-20.5 -113.5q0 -70 29.5 -126t81 -88.5t116.5 -32.5zM327 820l14 63h281l-13 -63h-282z" />
    <glyph glyph-name="omacron" unicode="&#x14d;" horiz-adv-x="580" 
d="M266 -10q-63 0 -112.5 30t-77.5 82t-28 119q0 59 21 110t57 90t84 61t102 22q65 0 114 -29.5t77 -82t28 -119.5q0 -58 -20.5 -109t-57.5 -90t-84.5 -61.5t-102.5 -22.5zM271 73q48 0 85.5 26t59.5 71.5t22 101.5q0 67 -35.5 108.5t-95.5 41.5q-46 0 -84 -26.5
t-60.5 -71.5t-22.5 -100q0 -68 36.5 -109.5t94.5 -41.5zM194 615l14 63h281l-13 -63h-282z" />
    <glyph glyph-name="Obreve" unicode="&#x14e;" horiz-adv-x="795" 
d="M392 -11q-68 0 -126.5 25t-102 70t-67.5 105.5t-24 130.5q0 80 29.5 150.5t80.5 124.5t118 85t142 31q69 0 127 -25t101.5 -70t67.5 -105t24 -131q0 -80 -29 -150.5t-80 -124.5t-118 -85t-143 -31zM399 79q54 0 101.5 23.5t84 64t57 94t20.5 113.5q0 71 -29 127t-80.5 88
t-115.5 32q-55 0 -103 -23.5t-84.5 -64t-57 -94t-20.5 -113.5q0 -70 29.5 -126t81 -88.5t116.5 -32.5zM476 788q-64 0 -103.5 36.5t-41.5 99.5l58 13q2 -46 25 -69.5t64 -23.5q77 0 117 88l59 -19q-26 -59 -72.5 -92t-105.5 -33z" />
    <glyph glyph-name="obreve" unicode="&#x14f;" horiz-adv-x="580" 
d="M266 -10q-63 0 -112.5 30t-77.5 82t-28 119q0 59 21 110t57 90t84 61t102 22q65 0 114 -29.5t77 -82t28 -119.5q0 -58 -20.5 -109t-57.5 -90t-84.5 -61.5t-102.5 -22.5zM271 73q48 0 85.5 26t59.5 71.5t22 101.5q0 67 -35.5 108.5t-95.5 41.5q-46 0 -84 -26.5
t-60.5 -71.5t-22.5 -100q0 -68 36.5 -109.5t94.5 -41.5zM343 583q-64 0 -103.5 36.5t-41.5 99.5l58 13q2 -46 25 -69.5t64 -23.5q77 0 117 88l59 -19q-26 -59 -72.5 -92t-105.5 -33z" />
    <glyph glyph-name="Ohungarumlaut" unicode="&#x150;" horiz-adv-x="795" 
d="M392 -11q-68 0 -126.5 25t-102 70t-67.5 105.5t-24 130.5q0 80 29.5 150.5t80.5 124.5t118 85t142 31q69 0 127 -25t101.5 -70t67.5 -105t24 -131q0 -80 -29 -150.5t-80 -124.5t-118 -85t-143 -31zM399 79q54 0 101.5 23.5t84 64t57 94t20.5 113.5q0 71 -29 127t-80.5 88
t-115.5 32q-55 0 -103 -23.5t-84.5 -64t-57 -94t-20.5 -113.5q0 -70 29.5 -126t81 -88.5t116.5 -32.5zM463 921h98l-170 -129h-82zM646 921h98l-174 -129h-78z" />
    <glyph glyph-name="ohungarumlaut" unicode="&#x151;" horiz-adv-x="580" 
d="M266 -10q-63 0 -112.5 30t-77.5 82t-28 119q0 59 21 110t57 90t84 61t102 22q65 0 114 -29.5t77 -82t28 -119.5q0 -58 -20.5 -109t-57.5 -90t-84.5 -61.5t-102.5 -22.5zM271 73q48 0 85.5 26t59.5 71.5t22 101.5q0 67 -35.5 108.5t-95.5 41.5q-46 0 -84 -26.5
t-60.5 -71.5t-22.5 -100q0 -68 36.5 -109.5t94.5 -41.5zM330 716h98l-170 -129h-82zM513 716h98l-174 -129h-78z" />
    <glyph glyph-name="OE" unicode="&#x152;" horiz-adv-x="1055" 
d="M384 0q-92 0 -162.5 40.5t-110 112t-39.5 163.5q0 80 29 149.5t80.5 122.5t119.5 82.5t146 29.5h650l-19 -88h-440q43 -38 68.5 -94t26.5 -122h181l-19 -86h-169q-12 -67 -47.5 -125t-86.5 -97h374l-18 -88h-564zM381 90q52 0 99 22.5t82.5 63t56 92.5t20.5 111
q0 67 -27 119t-74.5 82t-108.5 30q-53 0 -100 -22.5t-82.5 -62.5t-56 -92.5t-20.5 -110.5q0 -67 27 -119.5t75 -82.5t109 -30z" />
    <glyph glyph-name="oe" unicode="&#x153;" horiz-adv-x="946" 
d="M266 -10q-63 0 -112 30t-77.5 82t-28.5 119q0 59 21 110t57 90t83.5 61t102.5 22q63 0 111 -29.5t75 -80.5q35 49 87 79t113 30q60 0 106 -28t71.5 -77.5t25.5 -113.5q0 -16 -0.5 -30t-2.5 -29h-368q0 -44 19 -79.5t52 -56t75 -20.5q33 0 65.5 11t55.5 31l50 -63
q-44 -30 -87 -43.5t-90 -13.5q-67 0 -118.5 30t-79.5 80q-35 -50 -89 -80.5t-117 -30.5zM271 73q48 0 85.5 26t59.5 71.5t22 101.5q0 67 -35.5 108.5t-95.5 41.5q-46 0 -84 -26.5t-60.5 -71.5t-22.5 -100q0 -68 36.5 -109.5t94.5 -41.5zM692 424q-36 0 -67 -17.5
t-53.5 -48.5t-33.5 -71h278q0 39 -16.5 69.5t-44 49t-63.5 18.5z" />
    <glyph glyph-name="Racute" unicode="&#x154;" horiz-adv-x="647" 
d="M31 0l149 700h274q61 0 106 -22.5t69.5 -64t24.5 -96.5q0 -56 -23.5 -101.5t-65.5 -77t-97 -42.5l94 -296h-104l-87 289h-181l-61 -289h-98zM207 371h198q44 0 78 17.5t53.5 49t19.5 71.5q0 49 -32 77t-86 28h-178zM367 793l143 128h124l-178 -128h-89z" />
    <glyph glyph-name="racute" unicode="&#x155;" horiz-adv-x="366" 
d="M16 0l108 495h93l-21 -95q30 51 68 77.5t80 26.5q31 0 54 -11l-18 -84q-10 6 -27.5 9.5t-34.5 3.5q-38 0 -73 -21.5t-62 -60.5l-74 -340h-93zM217 588l143 128h124l-178 -128h-89z" />
    <glyph glyph-name="uni0156" unicode="&#x156;" horiz-adv-x="647" 
d="M31 0l149 700h274q61 0 106 -22.5t69.5 -64t24.5 -96.5q0 -56 -23.5 -101.5t-65.5 -77t-97 -42.5l94 -296h-104l-87 289h-181l-61 -289h-98zM207 371h198q44 0 78 17.5t53.5 49t19.5 71.5q0 49 -32 77t-86 28h-178zM123 -282l92 194h93l-119 -194h-66z" />
    <glyph glyph-name="uni0157" unicode="&#x157;" horiz-adv-x="366" 
d="M16 0l108 495h93l-21 -95q30 51 68 77.5t80 26.5q31 0 54 -11l-18 -84q-10 6 -27.5 9.5t-34.5 3.5q-38 0 -73 -21.5t-62 -60.5l-74 -340h-93zM-81 -282l92 194h93l-119 -194h-66z" />
    <glyph glyph-name="Rcaron" unicode="&#x158;" horiz-adv-x="647" 
d="M31 0l149 700h274q61 0 106 -22.5t69.5 -64t24.5 -96.5q0 -56 -23.5 -101.5t-65.5 -77t-97 -42.5l94 -296h-104l-87 289h-181l-61 -289h-98zM207 371h198q44 0 78 17.5t53.5 49t19.5 71.5q0 49 -32 77t-86 28h-178zM379 793l-89 133h72l70 -83l106 83h78l-141 -133h-96z
" />
    <glyph glyph-name="rcaron" unicode="&#x159;" horiz-adv-x="366" 
d="M16 0l108 495h93l-21 -95q30 51 68 77.5t80 26.5q31 0 54 -11l-18 -84q-10 6 -27.5 9.5t-34.5 3.5q-38 0 -73 -21.5t-62 -60.5l-74 -340h-93zM229 588l-89 133h72l70 -83l106 83h78l-141 -133h-96z" />
    <glyph glyph-name="Sacute" unicode="&#x15a;" horiz-adv-x="619" 
d="M309 -10q-85 0 -159 34.5t-136 103.5l63 68q62 -63 119 -93.5t118 -30.5q48 0 84.5 16.5t58 45.5t21.5 66q0 39 -27.5 62.5t-94.5 42.5l-115 29q-76 20 -115 63.5t-39 106.5q0 62 31 108.5t87 71.5t130 25q82 0 156 -28.5t128 -81.5l-61 -71q-48 48 -106.5 73t-121.5 25
q-67 0 -107 -29.5t-40 -79.5q0 -38 25 -62t78 -38l112 -28q92 -25 135 -67.5t43 -107.5q0 -67 -34 -117.5t-94 -78.5t-139 -28zM311 793l143 128h124l-178 -128h-89z" />
    <glyph glyph-name="sacute" unicode="&#x15b;" horiz-adv-x="458" 
d="M212 -10q-62 0 -117 22t-95 63l54 59q46 -39 81.5 -55t78.5 -16q44 0 73.5 23t29.5 56q0 23 -14.5 37t-51.5 24l-81 21q-58 17 -86.5 48.5t-28.5 79.5q0 68 49.5 110t130.5 42q56 0 105.5 -18.5t93.5 -55.5l-54 -61q-37 29 -76 45t-74 16q-41 0 -66.5 -18t-25.5 -49
q0 -24 14.5 -38t49.5 -24l81 -23q63 -17 92.5 -46.5t29.5 -76.5t-25.5 -84.5t-69 -59t-98.5 -21.5zM196 588l143 128h124l-178 -128h-89z" />
    <glyph glyph-name="Scircumflex" unicode="&#x15c;" horiz-adv-x="619" 
d="M309 -10q-85 0 -159 34.5t-136 103.5l63 68q62 -63 119 -93.5t118 -30.5q48 0 84.5 16.5t58 45.5t21.5 66q0 39 -27.5 62.5t-94.5 42.5l-115 29q-76 20 -115 63.5t-39 106.5q0 62 31 108.5t87 71.5t130 25q82 0 156 -28.5t128 -81.5l-61 -71q-48 48 -106.5 73t-121.5 25
q-67 0 -107 -29.5t-40 -79.5q0 -38 25 -62t78 -38l112 -28q92 -25 135 -67.5t43 -107.5q0 -67 -34 -117.5t-94 -78.5t-139 -28zM209 789l141 133h96l89 -133h-71l-71 84l-107 -84h-77z" />
    <glyph glyph-name="scircumflex" unicode="&#x15d;" horiz-adv-x="458" 
d="M212 -10q-62 0 -117 22t-95 63l54 59q46 -39 81.5 -55t78.5 -16q44 0 73.5 23t29.5 56q0 23 -14.5 37t-51.5 24l-81 21q-58 17 -86.5 48.5t-28.5 79.5q0 68 49.5 110t130.5 42q56 0 105.5 -18.5t93.5 -55.5l-54 -61q-37 29 -76 45t-74 16q-41 0 -66.5 -18t-25.5 -49
q0 -24 14.5 -38t49.5 -24l81 -23q63 -17 92.5 -46.5t29.5 -76.5t-25.5 -84.5t-69 -59t-98.5 -21.5zM94 584l141 133h96l89 -133h-71l-71 84l-107 -84h-77z" />
    <glyph glyph-name="Scedilla" unicode="&#x15e;" horiz-adv-x="619" 
d="M251 -242q-36 0 -65 11t-48 32l37 36q29 -32 74 -32q31 0 49.5 14t18.5 37q0 20 -16.5 31.5t-44.5 11.5h-31l41 93q-71 8 -134.5 42t-117.5 94l63 68q62 -63 119 -93.5t118 -30.5q48 0 84.5 16.5t58 45.5t21.5 66q0 39 -27.5 62.5t-94.5 42.5l-115 29q-76 20 -115 63.5
t-39 106.5q0 62 31 108.5t87 71.5t130 25q82 0 156 -28.5t128 -81.5l-61 -71q-48 48 -106.5 73t-121.5 25q-67 0 -107 -29.5t-40 -79.5q0 -38 25 -62t78 -38l112 -28q92 -25 135 -67.5t43 -107.5q0 -66 -33.5 -116.5t-92 -79t-135.5 -28.5l-24 -54q38 -5 60 -23.5t22 -50.5
q0 -28 -16.5 -52t-43.5 -38t-62 -14z" />
    <glyph glyph-name="scedilla" unicode="&#x15f;" horiz-adv-x="458" 
d="M159 -242q-37 0 -66 11t-47 32l37 36q29 -32 74 -32q30 0 48.5 14t18.5 37q0 20 -16.5 31.5t-44.5 11.5h-31l41 93q-51 6 -95 27t-78 56l54 59q46 -39 81.5 -55t78.5 -16q44 0 73.5 23t29.5 56q0 23 -14.5 37t-51.5 24l-81 21q-58 17 -86.5 48.5t-28.5 79.5
q0 68 49.5 110t130.5 42q109 0 199 -74l-54 -61q-37 29 -76 45t-74 16q-41 0 -66.5 -18t-25.5 -49q0 -24 14.5 -38t49.5 -24l81 -23q63 -17 92.5 -46.5t29.5 -76.5q0 -46 -24 -82.5t-65 -58.5t-94 -24l-24 -54q39 -5 60.5 -23.5t21.5 -50.5q0 -28 -16 -52t-43.5 -38
t-61.5 -14z" />
    <glyph glyph-name="Scaron" unicode="&#x160;" horiz-adv-x="619" 
d="M309 -10q-85 0 -159 34.5t-136 103.5l63 68q62 -63 119 -93.5t118 -30.5q48 0 84.5 16.5t58 45.5t21.5 66q0 39 -27.5 62.5t-94.5 42.5l-115 29q-76 20 -115 63.5t-39 106.5q0 62 31 108.5t87 71.5t130 25q82 0 156 -28.5t128 -81.5l-61 -71q-48 48 -106.5 73t-121.5 25
q-67 0 -107 -29.5t-40 -79.5q0 -38 25 -62t78 -38l112 -28q92 -25 135 -67.5t43 -107.5q0 -67 -34 -117.5t-94 -78.5t-139 -28zM323 793l-89 133h72l70 -83l106 83h78l-141 -133h-96z" />
    <glyph glyph-name="scaron" unicode="&#x161;" horiz-adv-x="458" 
d="M212 -10q-62 0 -117 22t-95 63l54 59q46 -39 81.5 -55t78.5 -16q44 0 73.5 23t29.5 56q0 23 -14.5 37t-51.5 24l-81 21q-58 17 -86.5 48.5t-28.5 79.5q0 68 49.5 110t130.5 42q56 0 105.5 -18.5t93.5 -55.5l-54 -61q-37 29 -76 45t-74 16q-41 0 -66.5 -18t-25.5 -49
q0 -24 14.5 -38t49.5 -24l81 -23q63 -17 92.5 -46.5t29.5 -76.5t-25.5 -84.5t-69 -59t-98.5 -21.5zM208 588l-89 133h72l70 -83l106 83h78l-141 -133h-96z" />
    <glyph glyph-name="uni0162" unicode="&#x162;" horiz-adv-x="617" 
d="M212 -242q-37 0 -66 11t-47 32l37 36q29 -32 74 -32q30 0 48.5 14t18.5 37q0 20 -16.5 31.5t-44.5 11.5h-31l45 101h-25l131 613h-235l20 87h563l-19 -87h-231l-131 -613h-24l-28 -64q39 -5 60.5 -23.5t21.5 -50.5q0 -28 -16 -52t-43.5 -38t-61.5 -14z" />
    <glyph glyph-name="uni0163" unicode="&#x163;" horiz-adv-x="390" 
d="M169 -242q-36 0 -65 11t-48 32l37 36q30 -32 74 -32q31 0 49.5 14t18.5 37q0 20 -16.5 31.5t-44.5 11.5h-31l42 96q-51 9 -72 43.5t-9 90.5l62 290h-98l17 76h97l29 136l99 21l-34 -157h137l-17 -76h-137l-58 -271q-9 -41 5.5 -58t59.5 -17q12 0 23 1.5t33 7.5l-17 -81
q-17 -4 -36 -6.5t-36 -2.5l-24 -56q38 -5 60 -23.5t22 -50.5q0 -28 -16.5 -52t-43.5 -38t-62 -14z" />
    <glyph glyph-name="Tcaron" unicode="&#x164;" horiz-adv-x="617" 
d="M205 0l131 613h-235l20 87h563l-19 -87h-231l-131 -613h-98zM371 793l-89 133h72l70 -83l106 83h78l-141 -133h-96z" />
    <glyph glyph-name="tcaron" unicode="&#x165;" horiz-adv-x="390" 
d="M373 591l46 180l93 18l-74 -198h-65zM227 -8q-74 0 -105.5 35.5t-17.5 101.5l62 290h-98l17 76h97l29 136l99 21l-34 -157h137l-17 -76h-137l-58 -271q-9 -41 5.5 -58t59.5 -17q12 0 23 1.5t33 7.5l-17 -81q-18 -4 -38 -6.5t-40 -2.5z" />
    <glyph glyph-name="Tbar" unicode="&#x166;" horiz-adv-x="617" 
d="M205 0l63 296h-145l17 76h144l52 241h-235l20 87h563l-19 -87h-231l-52 -241h145l-17 -76h-144l-63 -296h-98z" />
    <glyph glyph-name="tbar" unicode="&#x167;" horiz-adv-x="390" 
d="M227 -8q-74 0 -105.5 35.5t-17.5 101.5l26 120h-98l14 62h97l23 108h-98l17 76h97l29 136l99 21l-34 -157h137l-17 -76h-137l-23 -108h136l-14 -62h-135l-22 -101q-9 -41 5.5 -58t59.5 -17q12 0 23 1.5t33 7.5l-17 -81q-18 -4 -38 -6.5t-40 -2.5z" />
    <glyph glyph-name="Utilde" unicode="&#x168;" horiz-adv-x="707" 
d="M327 -11q-93 0 -154.5 41t-85.5 113.5t-4 167.5l83 389h99l-85 -397q-14 -65 0.5 -116t54 -79.5t97.5 -28.5q79 0 135 57t78 156l87 408h98l-89 -416q-19 -93 -63 -159t-107.5 -101t-143.5 -35zM344 792l-57 19q24 53 53.5 79.5t60.5 26.5q24 0 43.5 -10t37 -23t33.5 -23
t31 -10q14 0 24.5 13t27.5 49l57 -18q-24 -53 -52 -79.5t-59 -26.5q-23 0 -43 10t-37 22.5t-33 22t-31 9.5q-16 0 -29 -13.5t-27 -47.5z" />
    <glyph glyph-name="utilde" unicode="&#x169;" horiz-adv-x="557" 
d="M197 -7q-54 0 -90 25.5t-50.5 69t-2.5 99.5l67 308h93l-63 -288q-14 -61 12.5 -99.5t81.5 -38.5q34 0 64.5 15t56.5 46l80 365h93l-108 -495h-93l16 72q-34 -39 -73.5 -59t-83.5 -20zM222 587l-57 19q24 53 53.5 79.5t60.5 26.5q24 0 43.5 -10t37 -23t33.5 -23t31 -10
q14 0 24.5 13t27.5 49l57 -18q-24 -53 -52 -79.5t-59 -26.5q-23 0 -43 10t-37 22.5t-33 22t-31 9.5q-16 0 -29 -13.5t-27 -47.5z" />
    <glyph glyph-name="Umacron" unicode="&#x16a;" horiz-adv-x="707" 
d="M327 -11q-93 0 -154.5 41t-85.5 113.5t-4 167.5l83 389h99l-85 -397q-14 -65 0.5 -116t54 -79.5t97.5 -28.5q79 0 135 57t78 156l87 408h98l-89 -416q-19 -93 -63 -159t-107.5 -101t-143.5 -35zM319 820l14 63h281l-13 -63h-282z" />
    <glyph glyph-name="umacron" unicode="&#x16b;" horiz-adv-x="557" 
d="M197 -7q-54 0 -90 25.5t-50.5 69t-2.5 99.5l67 308h93l-63 -288q-14 -61 12.5 -99.5t81.5 -38.5q34 0 64.5 15t56.5 46l80 365h93l-108 -495h-93l16 72q-34 -39 -73.5 -59t-83.5 -20zM197 615l14 63h281l-13 -63h-282z" />
    <glyph glyph-name="Ubreve" unicode="&#x16c;" horiz-adv-x="707" 
d="M327 -11q-93 0 -154.5 41t-85.5 113.5t-4 167.5l83 389h99l-85 -397q-14 -65 0.5 -116t54 -79.5t97.5 -28.5q79 0 135 57t78 156l87 408h98l-89 -416q-19 -93 -63 -159t-107.5 -101t-143.5 -35zM468 788q-64 0 -103.5 36.5t-41.5 99.5l58 13q2 -46 25 -69.5t64 -23.5
q77 0 117 88l59 -19q-26 -59 -72.5 -92t-105.5 -33z" />
    <glyph glyph-name="ubreve" unicode="&#x16d;" horiz-adv-x="557" 
d="M197 -7q-54 0 -90 25.5t-50.5 69t-2.5 99.5l67 308h93l-63 -288q-14 -61 12.5 -99.5t81.5 -38.5q34 0 64.5 15t56.5 46l80 365h93l-108 -495h-93l16 72q-34 -39 -73.5 -59t-83.5 -20zM346 583q-64 0 -103.5 36.5t-41.5 99.5l58 13q2 -46 25 -69.5t64 -23.5q77 0 117 88
l59 -19q-26 -59 -72.5 -92t-105.5 -33z" />
    <glyph glyph-name="Uring" unicode="&#x16e;" horiz-adv-x="707" 
d="M327 -11q-93 0 -154.5 41t-85.5 113.5t-4 167.5l83 389h99l-85 -397q-14 -65 0.5 -116t54 -79.5t97.5 -28.5q79 0 135 57t78 156l87 408h98l-89 -416q-19 -93 -63 -159t-107.5 -101t-143.5 -35zM469 781q-45 0 -74.5 28.5t-29.5 72.5q0 33 17 62t45 47t60 18
q47 0 76 -28.5t29 -72.5q0 -34 -17 -62.5t-45 -46.5t-61 -18zM470 827q30 0 51.5 22.5t21.5 53.5q0 25 -16 42t-41 17q-29 0 -51 -22.5t-22 -53.5q0 -26 16.5 -42.5t40.5 -16.5z" />
    <glyph glyph-name="uring" unicode="&#x16f;" horiz-adv-x="557" 
d="M197 -7q-54 0 -90 25.5t-50.5 69t-2.5 99.5l67 308h93l-63 -288q-14 -61 12.5 -99.5t81.5 -38.5q34 0 64.5 15t56.5 46l80 365h93l-108 -495h-93l16 72q-34 -39 -73.5 -59t-83.5 -20zM347 576q-45 0 -74.5 28.5t-29.5 72.5q0 33 17 62t45 47t60 18q47 0 76 -28.5
t29 -72.5q0 -34 -17 -62.5t-45 -46.5t-61 -18zM348 622q30 0 51.5 22.5t21.5 53.5q0 25 -16 42t-41 17q-29 0 -51 -22.5t-22 -53.5q0 -26 16.5 -42.5t40.5 -16.5z" />
    <glyph glyph-name="Uhungarumlaut" unicode="&#x170;" horiz-adv-x="707" 
d="M327 -11q-93 0 -154.5 41t-85.5 113.5t-4 167.5l83 389h99l-85 -397q-14 -65 0.5 -116t54 -79.5t97.5 -28.5q79 0 135 57t78 156l87 408h98l-89 -416q-19 -93 -63 -159t-107.5 -101t-143.5 -35zM455 921h98l-170 -129h-82zM638 921h98l-174 -129h-78z" />
    <glyph glyph-name="uhungarumlaut" unicode="&#x171;" horiz-adv-x="557" 
d="M197 -7q-54 0 -90 25.5t-50.5 69t-2.5 99.5l67 308h93l-63 -288q-14 -61 12.5 -99.5t81.5 -38.5q34 0 64.5 15t56.5 46l80 365h93l-108 -495h-93l16 72q-34 -39 -73.5 -59t-83.5 -20zM333 716h98l-170 -129h-82zM516 716h98l-174 -129h-78z" />
    <glyph glyph-name="Uogonek" unicode="&#x172;" horiz-adv-x="707" 
d="M309 -232q-42 0 -67.5 21.5t-25.5 56.5q0 39 25.5 74.5t77.5 68.5q-89 2 -149 43.5t-83.5 113.5t-2.5 165l82 389h99l-85 -396q-14 -66 0.5 -117t54 -79t97.5 -28q79 0 135.5 56.5t77.5 155.5l87 408h98l-89 -415q-25 -121 -89 -195t-158 -94q-59 -33 -88 -64.5
t-29 -64.5q0 -20 15.5 -32.5t39.5 -12.5q12 0 24.5 3t21.5 7l4 -48q-14 -7 -33.5 -11.5t-39.5 -4.5z" />
    <glyph glyph-name="uogonek" unicode="&#x173;" horiz-adv-x="557" 
d="M339 -232q-42 0 -67.5 21.5t-25.5 56.5q0 83 120 154h-28l16 72q-34 -39 -73.5 -59t-83.5 -20q-54 0 -90 25.5t-50.5 69t-2.5 99.5l67 308h93l-63 -288q-14 -61 12.5 -99.5t81.5 -38.5q34 0 64.5 15t56.5 46l80 365h93l-108 -495q-63 -34 -93.5 -66.5t-30.5 -66.5
q0 -20 15.5 -32.5t39.5 -12.5q12 0 24.5 3t21.5 7l4 -48q-14 -7 -33.5 -11.5t-39.5 -4.5z" />
    <glyph glyph-name="Wcircumflex" unicode="&#x174;" horiz-adv-x="900" 
d="M134 0l-1 700h97l-5 -541l271 541h94l43 -541l223 541h101l-298 -700h-102l-43 559l-279 -559h-101zM396 789l141 133h96l89 -133h-71l-71 84l-107 -84h-77z" />
    <glyph glyph-name="wcircumflex" unicode="&#x175;" horiz-adv-x="704" 
d="M104 0l-25 495h87l14 -370l185 370h80l29 -369l170 369h90l-239 -495h-90l-26 371l-185 -371h-90zM260 584l141 133h96l89 -133h-71l-71 84l-107 -84h-77z" />
    <glyph glyph-name="Ycircumflex" unicode="&#x176;" horiz-adv-x="655" 
d="M223 0l60 282l-180 418h105l139 -332l278 332h117l-361 -421l-59 -279h-99zM263 789l141 133h96l89 -133h-71l-71 84l-107 -84h-77z" />
    <glyph glyph-name="ycircumflex" unicode="&#x177;" horiz-adv-x="509" 
d="M18 -219q-13 0 -28.5 2.5t-34.5 8.5l16 82q14 -3 25 -4.5t18 -1.5q31 0 52.5 12.5t38.5 41.5l42 72l-81 501h97l56 -390l227 390h104l-358 -601q-36 -60 -77.5 -86.5t-96.5 -26.5zM153 584l141 133h96l89 -133h-71l-71 84l-107 -84h-77z" />
    <glyph glyph-name="Ydieresis" unicode="&#x178;" horiz-adv-x="655" 
d="M223 0l60 282l-180 418h105l139 -332l278 332h117l-361 -421l-59 -279h-99zM331 812q-23 0 -38.5 15.5t-15.5 37.5q0 26 19.5 45t46.5 19q22 0 37 -15.5t15 -37.5q0 -26 -18.5 -45t-45.5 -19zM540 812q-22 0 -37.5 15.5t-15.5 37.5q0 26 19.5 45t45.5 19q22 0 37.5 -15.5
t15.5 -37.5q0 -26 -19 -45t-46 -19z" />
    <glyph glyph-name="Zacute" unicode="&#x179;" horiz-adv-x="597" 
d="M-19 0l15 68l509 548l-392 -2l19 86h523l-16 -68l-509 -548l402 2l-19 -86h-532zM325 793l143 128h124l-178 -128h-89z" />
    <glyph glyph-name="zacute" unicode="&#x17a;" horiz-adv-x="461" 
d="M-15 0l14 71l332 341l-253 -1l17 84h375l-15 -71l-333 -342l262 1l-18 -83h-381zM228 588l143 128h124l-178 -128h-89z" />
    <glyph glyph-name="Zdotaccent" unicode="&#x17b;" horiz-adv-x="597" 
d="M-19 0l15 68l509 548l-392 -2l19 86h523l-16 -68l-509 -548l402 2l-19 -86h-532zM398 812q-24 0 -40 16.5t-16 39.5q0 26 20.5 46t46.5 20q23 0 39.5 -16.5t16.5 -39.5q0 -17 -9.5 -32t-24.5 -24.5t-33 -9.5z" />
    <glyph glyph-name="zdotaccent" unicode="&#x17c;" horiz-adv-x="461" 
d="M-15 0l14 71l332 341l-253 -1l17 84h375l-15 -71l-333 -342l262 1l-18 -83h-381zM300 607q-24 0 -40 16.5t-16 39.5q0 26 20.5 46t46.5 20q23 0 39.5 -16.5t16.5 -39.5q0 -17 -9.5 -32t-24.5 -24.5t-33 -9.5z" />
    <glyph glyph-name="Zcaron" unicode="&#x17d;" horiz-adv-x="597" 
d="M-19 0l15 68l509 548l-392 -2l19 86h523l-16 -68l-509 -548l402 2l-19 -86h-532zM337 793l-89 133h72l70 -83l106 83h78l-141 -133h-96z" />
    <glyph glyph-name="zcaron" unicode="&#x17e;" horiz-adv-x="461" 
d="M-15 0l14 71l332 341l-253 -1l17 84h375l-15 -71l-333 -342l262 1l-18 -83h-381zM240 588l-89 133h72l70 -83l106 83h78l-141 -133h-96z" />
    <glyph glyph-name="uni0218" unicode="&#x218;" horiz-adv-x="619" 
d="M309 -10q-85 0 -159 34.5t-136 103.5l63 68q62 -63 119 -93.5t118 -30.5q48 0 84.5 16.5t58 45.5t21.5 66q0 39 -27.5 62.5t-94.5 42.5l-115 29q-76 20 -115 63.5t-39 106.5q0 62 31 108.5t87 71.5t130 25q82 0 156 -28.5t128 -81.5l-61 -71q-48 48 -106.5 73t-121.5 25
q-67 0 -107 -29.5t-40 -79.5q0 -38 25 -62t78 -38l112 -28q92 -25 135 -67.5t43 -107.5q0 -67 -34 -117.5t-94 -78.5t-139 -28zM149 -282l92 194h93l-119 -194h-66z" />
    <glyph glyph-name="uni0219" unicode="&#x219;" horiz-adv-x="458" 
d="M212 -10q-62 0 -117 22t-95 63l54 59q46 -39 81.5 -55t78.5 -16q44 0 73.5 23t29.5 56q0 23 -14.5 37t-51.5 24l-81 21q-58 17 -86.5 48.5t-28.5 79.5q0 68 49.5 110t130.5 42q56 0 105.5 -18.5t93.5 -55.5l-54 -61q-37 29 -76 45t-74 16q-41 0 -66.5 -18t-25.5 -49
q0 -24 14.5 -38t49.5 -24l81 -23q63 -17 92.5 -46.5t29.5 -76.5t-25.5 -84.5t-69 -59t-98.5 -21.5zM57 -282l92 194h93l-119 -194h-66z" />
    <glyph glyph-name="uni021A" unicode="&#x21a;" horiz-adv-x="617" 
d="M205 0l131 613h-235l20 87h563l-19 -87h-231l-131 -613h-98zM110 -282l92 194h93l-119 -194h-66z" />
    <glyph glyph-name="uni021B" unicode="&#x21b;" horiz-adv-x="390" 
d="M227 -8q-74 0 -105.5 35.5t-17.5 101.5l62 290h-98l17 76h97l29 136l99 21l-34 -157h137l-17 -76h-137l-58 -271q-9 -41 5.5 -58t59.5 -17q12 0 23 1.5t33 7.5l-17 -81q-18 -4 -38 -6.5t-40 -2.5zM67 -282l92 194h93l-119 -194h-66z" />
    <glyph glyph-name="uni0237" unicode="&#x237;" horiz-adv-x="235" 
d="M-58 -214q-15 0 -32 3t-28 7l17 77q16 -6 41 -6q27 0 42 13t21 43l123 572h93l-126 -580q-12 -61 -51.5 -95t-99.5 -34z" />
    <glyph glyph-name="uni02BB" unicode="&#x2bb;" horiz-adv-x="250" 
d="M319 750l-111 -249h-97l137 249h71z" />
    <glyph glyph-name="uni02BC" unicode="&#x2bc;" horiz-adv-x="250" 
d="M111 501l112 249h97l-138 -249h-71z" />
    <glyph glyph-name="circumflex" unicode="&#x2c6;" 
d="M208 584l141 133h96l89 -133h-71l-71 84l-107 -84h-77z" />
    <glyph glyph-name="caron" unicode="&#x2c7;" 
d="M322 588l-89 133h72l70 -83l106 83h78l-141 -133h-96z" />
    <glyph glyph-name="breve" unicode="&#x2d8;" 
d="M382 583q-64 0 -103.5 36.5t-41.5 99.5l58 13q2 -46 25 -69.5t64 -23.5q77 0 117 88l59 -19q-26 -59 -72.5 -92t-105.5 -33z" />
    <glyph glyph-name="dotaccent" unicode="&#x2d9;" 
d="M380 607q-24 0 -40 16.5t-16 39.5q0 26 20.5 46t46.5 20q23 0 39.5 -16.5t16.5 -39.5q0 -17 -9.5 -32t-24.5 -24.5t-33 -9.5z" />
    <glyph glyph-name="ring" unicode="&#x2da;" 
d="M383 576q-45 0 -74.5 28.5t-29.5 72.5q0 33 17 62t45 47t60 18q47 0 76 -28.5t29 -72.5q0 -34 -17 -62.5t-45 -46.5t-61 -18zM384 622q30 0 51.5 22.5t21.5 53.5q0 25 -16 42t-41 17q-29 0 -51 -22.5t-22 -53.5q0 -26 16.5 -42.5t40.5 -16.5z" />
    <glyph glyph-name="ogonek" unicode="&#x2db;" 
d="M205 -232q-42 0 -67.5 21.5t-25.5 56.5q0 48 38.5 90.5t115.5 82.5l31 -19q-63 -34 -93.5 -66.5t-30.5 -66.5q0 -20 15 -32.5t40 -12.5q11 0 23.5 3t22.5 7l4 -48q-14 -7 -33.5 -11.5t-39.5 -4.5z" />
    <glyph glyph-name="tilde" unicode="&#x2dc;" 
d="M258 587l-57 19q24 53 53.5 79.5t60.5 26.5q24 0 43.5 -10t37 -23t33.5 -23t31 -10q14 0 24.5 13t27.5 49l57 -18q-24 -53 -52 -79.5t-59 -26.5q-23 0 -43 10t-37 22.5t-33 22t-31 9.5q-16 0 -29 -13.5t-27 -47.5z" />
    <glyph glyph-name="hungarumlaut" unicode="&#x2dd;" 
d="M369 716h98l-170 -129h-82zM552 716h98l-174 -129h-78z" />
    <glyph glyph-name="gravecomb" unicode="&#x300;" horiz-adv-x="0" 
d="M340 588l-153 128h123l115 -128h-85z" />
    <glyph glyph-name="acutecomb" unicode="&#x301;" horiz-adv-x="0" 
d="M310 588l143 128h124l-178 -128h-89z" />
    <glyph glyph-name="uni0302" unicode="&#x302;" horiz-adv-x="0" 
d="M208 584l141 133h96l89 -133h-71l-71 84l-107 -84h-77z" />
    <glyph glyph-name="tildecomb" unicode="&#x303;" horiz-adv-x="0" 
d="M258 587l-57 19q24 53 53.5 79.5t60.5 26.5q24 0 43.5 -10t37 -23t33.5 -23t31 -10q14 0 24.5 13t27.5 49l57 -18q-24 -53 -52 -79.5t-59 -26.5q-23 0 -43 10t-37 22.5t-33 22t-31 9.5q-16 0 -29 -13.5t-27 -47.5z" />
    <glyph glyph-name="uni0304" unicode="&#x304;" horiz-adv-x="0" 
d="M233 615l14 63h281l-13 -63h-282z" />
    <glyph glyph-name="uni0306" unicode="&#x306;" horiz-adv-x="0" 
d="M382 583q-64 0 -103.5 36.5t-41.5 99.5l58 13q2 -46 25 -69.5t64 -23.5q77 0 117 88l59 -19q-26 -59 -72.5 -92t-105.5 -33z" />
    <glyph glyph-name="uni0307" unicode="&#x307;" horiz-adv-x="0" 
d="M380 607q-24 0 -40 16.5t-16 39.5q0 26 20.5 46t46.5 20q23 0 39.5 -16.5t16.5 -39.5q0 -17 -9.5 -32t-24.5 -24.5t-33 -9.5z" />
    <glyph glyph-name="uni0308" unicode="&#x308;" horiz-adv-x="0" 
d="M276 607q-23 0 -38.5 15.5t-15.5 37.5q0 26 19.5 45t46.5 19q22 0 37 -15.5t15 -37.5q0 -26 -18.5 -45t-45.5 -19zM485 607q-22 0 -37.5 15.5t-15.5 37.5q0 26 19.5 45t45.5 19q22 0 37.5 -15.5t15.5 -37.5q0 -26 -19 -45t-46 -19z" />
    <glyph glyph-name="uni030A" unicode="&#x30a;" horiz-adv-x="0" 
d="M383 576q-45 0 -74.5 28.5t-29.5 72.5q0 33 17 62t45 47t60 18q47 0 76 -28.5t29 -72.5q0 -34 -17 -62.5t-45 -46.5t-61 -18zM384 622q30 0 51.5 22.5t21.5 53.5q0 25 -16 42t-41 17q-29 0 -51 -22.5t-22 -53.5q0 -26 16.5 -42.5t40.5 -16.5z" />
    <glyph glyph-name="uni030B" unicode="&#x30b;" horiz-adv-x="0" 
d="M369 716h98l-170 -129h-82zM552 716h98l-174 -129h-78z" />
    <glyph glyph-name="uni030C" unicode="&#x30c;" horiz-adv-x="0" 
d="M322 588l-89 133h72l70 -83l106 83h78l-141 -133h-96z" />
    <glyph glyph-name="uni0312" unicode="&#x312;" horiz-adv-x="0" 
d="M117 528l137 249h71l-111 -249h-97z" />
    <glyph glyph-name="uni0326" unicode="&#x326;" horiz-adv-x="0" 
d="M107 -282l92 194h93l-119 -194h-66z" />
    <glyph glyph-name="uni0327" unicode="&#x327;" horiz-adv-x="0" 
d="M206 -242q-36 0 -65 11t-48 32l37 36q29 -32 74 -32q31 0 49.5 14t18.5 37q0 20 -16.5 31.5t-44.5 11.5h-31l44 101h50l-28 -64q38 -4 60 -24t22 -50q0 -28 -16.5 -52t-43.5 -38t-62 -14z" />
    <glyph glyph-name="uni0328" unicode="&#x328;" horiz-adv-x="0" 
d="M205 -232q-42 0 -67.5 21.5t-25.5 56.5q0 48 38.5 90.5t115.5 82.5l31 -19q-63 -34 -93.5 -66.5t-30.5 -66.5q0 -20 15 -32.5t40 -12.5q11 0 23.5 3t22.5 7l4 -48q-14 -7 -33.5 -11.5t-39.5 -4.5z" />
    <glyph glyph-name="Wgrave" unicode="&#x1e80;" horiz-adv-x="900" 
d="M134 0l-1 700h97l-5 -541l271 541h94l43 -541l223 541h101l-298 -700h-102l-43 559l-279 -559h-101zM528 793l-153 128h123l115 -128h-85z" />
    <glyph glyph-name="wgrave" unicode="&#x1e81;" horiz-adv-x="704" 
d="M104 0l-25 495h87l14 -370l185 370h80l29 -369l170 369h90l-239 -495h-90l-26 371l-185 -371h-90zM392 588l-153 128h123l115 -128h-85z" />
    <glyph glyph-name="Wacute" unicode="&#x1e82;" horiz-adv-x="900" 
d="M134 0l-1 700h97l-5 -541l271 541h94l43 -541l223 541h101l-298 -700h-102l-43 559l-279 -559h-101zM498 793l143 128h124l-178 -128h-89z" />
    <glyph glyph-name="wacute" unicode="&#x1e83;" horiz-adv-x="704" 
d="M104 0l-25 495h87l14 -370l185 370h80l29 -369l170 369h90l-239 -495h-90l-26 371l-185 -371h-90zM362 588l143 128h124l-178 -128h-89z" />
    <glyph glyph-name="Wdieresis" unicode="&#x1e84;" horiz-adv-x="900" 
d="M134 0l-1 700h97l-5 -541l271 541h94l43 -541l223 541h101l-298 -700h-102l-43 559l-279 -559h-101zM464 812q-23 0 -38.5 15.5t-15.5 37.5q0 26 19.5 45t46.5 19q22 0 37 -15.5t15 -37.5q0 -26 -18.5 -45t-45.5 -19zM673 812q-22 0 -37.5 15.5t-15.5 37.5q0 26 19.5 45
t45.5 19q22 0 37.5 -15.5t15.5 -37.5q0 -26 -19 -45t-46 -19z" />
    <glyph glyph-name="wdieresis" unicode="&#x1e85;" horiz-adv-x="704" 
d="M104 0l-25 495h87l14 -370l185 370h80l29 -369l170 369h90l-239 -495h-90l-26 371l-185 -371h-90zM328 607q-23 0 -38.5 15.5t-15.5 37.5q0 26 19.5 45t46.5 19q22 0 37 -15.5t15 -37.5q0 -26 -18.5 -45t-45.5 -19zM537 607q-22 0 -37.5 15.5t-15.5 37.5q0 26 19.5 45
t45.5 19q22 0 37.5 -15.5t15.5 -37.5q0 -26 -19 -45t-46 -19z" />
    <glyph glyph-name="uni1E9E" unicode="&#x1e9e;" horiz-adv-x="669" 
d="M368 -11q-48 0 -90.5 16t-72.5 44l63 76q24 -25 52 -38t61 -13q27 0 55 12.5t46.5 38t18.5 64.5q0 24 -16 42t-55 40q-42 25 -61.5 46.5t-19.5 47.5q0 33 20 61t47 57l132 136h-291l-131 -619h-99l149 700h493l-19 -91l-154 -153q-22 -23 -33.5 -40t-11.5 -30t15 -25
t56 -35q42 -22 61 -53.5t19 -71.5q0 -48 -21 -87.5t-55.5 -67.5t-75.5 -42.5t-82 -14.5z" />
    <glyph glyph-name="Ygrave" unicode="&#x1ef2;" horiz-adv-x="655" 
d="M223 0l60 282l-180 418h105l139 -332l278 332h117l-361 -421l-59 -279h-99zM395 793l-153 128h123l115 -128h-85z" />
    <glyph glyph-name="ygrave" unicode="&#x1ef3;" horiz-adv-x="509" 
d="M18 -219q-13 0 -28.5 2.5t-34.5 8.5l16 82q14 -3 25 -4.5t18 -1.5q31 0 52.5 12.5t38.5 41.5l42 72l-81 501h97l56 -390l227 390h104l-358 -601q-36 -60 -77.5 -86.5t-96.5 -26.5zM285 588l-153 128h123l115 -128h-85z" />
    <glyph glyph-name="uni2002" unicode="&#x2002;" horiz-adv-x="505" 
 />
    <glyph glyph-name="uni2003" unicode="&#x2003;" horiz-adv-x="980" 
 />
    <glyph glyph-name="uni2009" unicode="&#x2009;" horiz-adv-x="198" 
 />
    <glyph glyph-name="uni200A" unicode="&#x200a;" horiz-adv-x="125" 
 />
    <glyph glyph-name="uni200B" unicode="&#x200b;" horiz-adv-x="7" 
 />
    <glyph glyph-name="endash" unicode="&#x2013;" horiz-adv-x="543" 
d="M55 242l18 81h427l-18 -81h-427z" />
    <glyph glyph-name="emdash" unicode="&#x2014;" horiz-adv-x="682" 
d="M55 242l18 81h566l-18 -81h-566z" />
    <glyph glyph-name="uni2015" unicode="&#x2015;" horiz-adv-x="915" 
d="M55 242l18 81h799l-18 -81h-799z" />
    <glyph glyph-name="quoteleft" unicode="&#x2018;" horiz-adv-x="250" 
d="M319 750l-111 -249h-97l137 249h71z" />
    <glyph glyph-name="quoteright" unicode="&#x2019;" horiz-adv-x="250" 
d="M111 501l112 249h97l-138 -249h-71z" />
    <glyph glyph-name="quotesinglbase" unicode="&#x201a;" horiz-adv-x="250" 
d="M-53 -162l111 249h97l-137 -249h-71z" />
    <glyph glyph-name="quotedblleft" unicode="&#x201c;" horiz-adv-x="426" 
d="M319 750l-111 -249h-97l137 249h71zM495 750l-111 -249h-97l137 249h71z" />
    <glyph glyph-name="quotedblright" unicode="&#x201d;" horiz-adv-x="427" 
d="M288 501l112 249h96l-137 -249h-71zM111 501l112 249h97l-138 -249h-71z" />
    <glyph glyph-name="quotedblbase" unicode="&#x201e;" horiz-adv-x="429" 
d="M126 -162l111 249h97l-137 -249h-71zM-53 -162l111 249h97l-137 -249h-71z" />
    <glyph glyph-name="dagger" unicode="&#x2020;" horiz-adv-x="433" 
d="M125 0l92 434h-131l16 70h130l42 196h77l-42 -196h131l-16 -70h-130l-92 -434h-77z" />
    <glyph glyph-name="daggerdbl" unicode="&#x2021;" horiz-adv-x="433" 
d="M125 0l42 196h-132l17 70h129l36 168h-131l16 70h130l42 196h77l-42 -196h131l-16 -70h-130l-36 -168h131l-16 -70h-129l-42 -196h-77z" />
    <glyph glyph-name="bullet" unicode="&#x2022;" horiz-adv-x="344" 
d="M179 241q-38 0 -64 26.5t-26 66.5q0 32 15.5 58.5t42 43t56.5 16.5q39 0 64.5 -26.5t25.5 -65.5q0 -32 -16 -59t-41.5 -43.5t-56.5 -16.5z" />
    <glyph glyph-name="ellipsis" unicode="&#x2026;" horiz-adv-x="720" 
d="M76 -9q-23 0 -39 16.5t-16 41.5q0 19 9.5 35t25.5 26t34 10q23 0 38.5 -16.5t15.5 -40.5q0 -19 -9.5 -35.5t-25 -26.5t-33.5 -10zM311 -9q-23 0 -39 16.5t-16 41.5q0 19 9.5 35t25.5 26t34 10q23 0 38.5 -16.5t15.5 -40.5q0 -19 -9.5 -35.5t-25 -26.5t-33.5 -10zM546 -9
q-23 0 -39 16.5t-16 41.5q0 19 9.5 35t25.5 26t34 10q23 0 38.5 -16.5t15.5 -40.5q0 -19 -9.5 -35.5t-25 -26.5t-33.5 -10z" />
    <glyph glyph-name="perthousand" unicode="&#x2030;" horiz-adv-x="1113" 
d="M209 345q-58 0 -92.5 38t-34.5 101q0 61 23.5 111t63 80t87.5 30q58 0 92.5 -37.5t34.5 -101.5q0 -61 -23.5 -111t-63.5 -80t-87 -30zM214 400q30 0 55 22.5t40 59.5t15 82q0 41 -20 64t-55 23q-28 0 -53.5 -22.5t-40 -59.5t-14.5 -82q0 -41 19.5 -64t53.5 -23zM103 0
l535 700h70l-538 -700h-67zM554 -5q-57 0 -91.5 37.5t-34.5 101.5q0 61 23.5 111t63 80t87.5 30q58 0 92.5 -37.5t34.5 -101.5q0 -60 -23.5 -110.5t-63.5 -80.5t-88 -30zM560 50q30 0 55 22.5t40 59.5t15 82q0 41 -20 64t-55 23q-29 0 -54 -22.5t-39.5 -59.5t-14.5 -82
q0 -41 19.5 -64t53.5 -23zM894 -5q-57 0 -91.5 37.5t-34.5 101.5q0 61 23.5 111t63 80t87.5 30q58 0 92.5 -37.5t34.5 -101.5q0 -60 -23.5 -110.5t-63.5 -80.5t-88 -30zM900 50q30 0 55 22.5t40 59.5t15 82q0 41 -20 64t-55 23q-29 0 -54 -22.5t-39.5 -59.5t-14.5 -82
q0 -41 19.5 -64t53.5 -23z" />
    <glyph glyph-name="minute" unicode="&#x2032;" horiz-adv-x="250" 
d="M111 501l112 249h97l-138 -249h-71z" />
    <glyph glyph-name="second" unicode="&#x2033;" horiz-adv-x="427" 
d="M288 501l112 249h96l-137 -249h-71zM111 501l112 249h97l-138 -249h-71z" />
    <glyph glyph-name="guilsinglleft" unicode="&#x2039;" horiz-adv-x="406" 
d="M206 0l-167 248l276 247h96l-272 -250l161 -245h-94z" />
    <glyph glyph-name="guilsinglright" unicode="&#x203a;" horiz-adv-x="414" 
d="M208 495l167 -248l-275 -247h-97l273 250l-162 245h94z" />
    <glyph glyph-name="fraction" unicode="&#x2044;" horiz-adv-x="566" 
d="M-6 0l535 700h70l-538 -700h-67z" />
    <glyph glyph-name="uni2070" unicode="&#x2070;" horiz-adv-x="350" 
d="M209 345q-58 0 -92.5 38t-34.5 101q0 61 23.5 111t63 80t87.5 30q58 0 92.5 -37.5t34.5 -101.5q0 -61 -23.5 -111t-63.5 -80t-87 -30zM214 400q30 0 55 22.5t40 59.5t15 82q0 41 -20 64t-55 23q-28 0 -53.5 -22.5t-40 -59.5t-14.5 -82q0 -41 19.5 -64t53.5 -23z" />
    <glyph glyph-name="uni2074" unicode="&#x2074;" horiz-adv-x="333" 
d="M233 350l19 84h-190l10 50l227 216h69l-46 -216h42l-11 -50h-41l-18 -84h-61zM137 484h125l32 150z" />
    <glyph glyph-name="uni2075" unicode="&#x2075;" horiz-adv-x="304" 
d="M183 345q-79 0 -127 46l36 44q24 -21 46.5 -30.5t45.5 -9.5q34 0 57 20t23 49q0 28 -18.5 43t-51.5 15q-34 0 -61 -11l-36 16l42 173h218l-11 -51h-166l-24 -91q15 5 29 7.5t27 2.5q52 0 83.5 -26.5t31.5 -69.5q0 -36 -19.5 -65t-52 -45.5t-72.5 -16.5z" />
    <glyph glyph-name="uni2076" unicode="&#x2076;" horiz-adv-x="326" 
d="M208 345q-57 0 -91.5 37.5t-34.5 101.5q0 61 26 110.5t70.5 79.5t97.5 30q54 0 97 -33l-33 -46q-18 12 -36.5 19t-36.5 7q-45 0 -78.5 -36.5t-43.5 -91.5q20 20 46 30.5t53 10.5q44 0 72.5 -26t28.5 -66q0 -35 -19 -64t-49.5 -46t-68.5 -17zM215 398q29 0 50 19t21 47
q0 24 -18.5 39.5t-46.5 15.5q-42 0 -80 -32q0 -40 19.5 -64.5t54.5 -24.5z" />
    <glyph glyph-name="uni2077" unicode="&#x2077;" horiz-adv-x="300" 
d="M77 350l223 296h-197l11 54h266l-9 -46l-219 -304h-75z" />
    <glyph glyph-name="uni2078" unicode="&#x2078;" horiz-adv-x="324" 
d="M195 345q-56 0 -91 25.5t-35 65.5q0 35 26 63t65 36q-21 9 -33 26.5t-12 40.5q0 28 18 51.5t47.5 38t65.5 14.5q48 0 80 -25t32 -63q0 -31 -22.5 -56t-56.5 -34q26 -10 41.5 -29.5t15.5 -45.5q0 -30 -18.5 -54.5t-51 -39t-71.5 -14.5zM232 553q26 0 46 17t20 39
q0 20 -16.5 33.5t-40.5 13.5q-28 0 -48 -16t-20 -40q0 -20 17 -33.5t42 -13.5zM200 395q31 0 53.5 17.5t22.5 42.5q0 23 -19 37.5t-50 14.5q-32 0 -54 -17.5t-22 -42.5q0 -22 19 -37t50 -15z" />
    <glyph glyph-name="uni2079" unicode="&#x2079;" horiz-adv-x="326" 
d="M231 704q58 0 92.5 -37.5t34.5 -101.5q0 -61 -26.5 -110.5t-70.5 -79.5t-98 -30t-97 33l34 46q19 -12 37 -19t35 -7q45 0 79 36.5t44 91.5q-20 -19 -46 -30t-54 -11q-43 0 -71.5 26.5t-28.5 65.5q0 36 18.5 64.5t49.5 45.5t68 17zM225 651q-29 0 -50 -18.5t-21 -47.5
q0 -24 18 -39.5t47 -15.5q42 0 80 32q0 41 -19.5 65t-54.5 24z" />
    <glyph glyph-name="uni2080" unicode="&#x2080;" horiz-adv-x="350" 
d="M134 -5q-57 0 -91.5 37.5t-34.5 101.5q0 61 23.5 111t63 80t87.5 30q58 0 92.5 -37.5t34.5 -101.5q0 -60 -23.5 -110.5t-63.5 -80.5t-88 -30zM140 50q30 0 55 22.5t40 59.5t15 82q0 41 -20 64t-55 23q-29 0 -54 -22.5t-39.5 -59.5t-14.5 -82q0 -41 19.5 -64t53.5 -23z
" />
    <glyph glyph-name="uni2081" unicode="&#x2081;" horiz-adv-x="174" 
d="M31 0l62 286l-71 -27l12 54l94 37h38l-75 -350h-60z" />
    <glyph glyph-name="uni2082" unicode="&#x2082;" horiz-adv-x="293" 
d="M-25 0l9 44l174 140q24 19 35.5 36t11.5 35q0 21 -16 33.5t-43 12.5q-21 0 -42.5 -9t-48.5 -29l-25 45q66 47 126 47q49 0 79.5 -24.5t30.5 -63.5q0 -31 -15.5 -56t-51.5 -54l-132 -105h161l-11 -52h-242z" />
    <glyph glyph-name="uni2083" unicode="&#x2083;" horiz-adv-x="312" 
d="M113 -5q-43 0 -76 13.5t-56 42.5l41 41q40 -43 95 -43q31 0 53 15t22 37q0 24 -16 36.5t-44 12.5h-34l10 49h29q33 0 54.5 15.5t21.5 37.5q0 21 -16.5 34.5t-43.5 13.5q-20 0 -41.5 -7.5t-48.5 -24.5l-28 46q63 41 127 41q49 0 81.5 -26t32.5 -67q0 -30 -25 -54t-63 -33
q30 -8 46.5 -26.5t16.5 -44.5q0 -30 -18.5 -55t-49.5 -39.5t-70 -14.5z" />
    <glyph glyph-name="uni2084" unicode="&#x2084;" horiz-adv-x="332" 
d="M159 0l19 84h-190l10 50l227 216h69l-46 -216h42l-11 -50h-41l-18 -84h-61zM63 134h125l32 150z" />
    <glyph glyph-name="uni2085" unicode="&#x2085;" horiz-adv-x="304" 
d="M109 -5q-79 0 -127 46l36 44q24 -21 46.5 -30.5t45.5 -9.5q34 0 57 20t23 49q0 28 -18.5 43t-51.5 15q-34 0 -61 -11l-36 16l42 173h218l-11 -51h-166l-24 -91q15 5 29 7.5t27 2.5q52 0 83.5 -26.5t31.5 -69.5q0 -36 -19.5 -65t-52 -45.5t-72.5 -16.5z" />
    <glyph glyph-name="uni2086" unicode="&#x2086;" horiz-adv-x="327" 
d="M134 -5q-57 0 -91.5 37.5t-34.5 101.5q0 61 26 110.5t70.5 79.5t97.5 30q54 0 97 -33l-33 -46q-18 12 -36.5 19t-36.5 7q-45 0 -78.5 -36.5t-43.5 -91.5q20 20 46 30.5t53 10.5q44 0 72.5 -26t28.5 -66q0 -35 -19 -64t-49.5 -46t-68.5 -17zM141 48q29 0 50 19t21 47
q0 24 -18.5 39.5t-46.5 15.5q-42 0 -80 -32q0 -40 19.5 -64.5t54.5 -24.5z" />
    <glyph glyph-name="uni2087" unicode="&#x2087;" horiz-adv-x="300" 
d="M3 0l223 296h-197l11 54h266l-9 -46l-219 -304h-75z" />
    <glyph glyph-name="uni2088" unicode="&#x2088;" horiz-adv-x="324" 
d="M121 -5q-56 0 -91 25.5t-35 65.5q0 35 26 63t65 36q-21 9 -33 26.5t-12 40.5q0 28 18 51.5t47.5 38t65.5 14.5q48 0 80 -25t32 -63q0 -31 -22.5 -56t-56.5 -34q26 -10 41.5 -29.5t15.5 -45.5q0 -30 -18.5 -54.5t-51 -39t-71.5 -14.5zM158 203q26 0 46 17t20 39
q0 20 -16.5 33.5t-40.5 13.5q-28 0 -48 -16t-20 -40q0 -20 17 -33.5t42 -13.5zM126 45q31 0 53.5 17.5t22.5 42.5q0 23 -19 37.5t-50 14.5q-32 0 -54 -17.5t-22 -42.5q0 -22 19 -37t50 -15z" />
    <glyph glyph-name="uni2089" unicode="&#x2089;" horiz-adv-x="326" 
d="M157 354q58 0 92.5 -37.5t34.5 -101.5q0 -60 -26.5 -110t-70.5 -80t-98 -30t-97 33l34 46q19 -12 37 -19t35 -7q45 0 79 36.5t44 91.5q-20 -19 -46 -30t-54 -11q-43 0 -71.5 26.5t-28.5 65.5q0 36 18.5 64.5t49.5 45.5t68 17zM151 301q-29 0 -50 -18.5t-21 -47.5
q0 -24 18 -39.5t47 -15.5q42 0 80 32q0 41 -19.5 65t-54.5 24z" />
    <glyph glyph-name="Euro" unicode="&#x20ac;" horiz-adv-x="718" 
d="M403 -11q-74 0 -130.5 32.5t-90.5 92t-40 139.5h-100l12 60h88q1 19 3 37.5t6 36.5h-81l13 59h84q27 78 76.5 137.5t115.5 93.5t140 34q80 0 140 -37.5t92 -107.5l-72 -45q-24 52 -69 81.5t-100 29.5q-51 0 -96 -24t-80.5 -65.5t-57.5 -96.5h266l-33 -59h-252
q-3 -18 -6 -36.5t-4 -37.5h221l-32 -60h-188q9 -84 58 -134t125 -50q45 0 89 21t81 60l53 -52q-104 -109 -231 -109z" />
    <glyph glyph-name="trademark" unicode="&#x2122;" horiz-adv-x="662" 
d="M352 421l60 279h60l42 -170l112 170h62l-60 -279h-46l46 210l-131 -191l-52 198l-45 -217h-48zM168 421l51 234h-90l9 45h230l-9 -45h-91l-50 -234h-50z" />
    <glyph glyph-name="arrowup" unicode="&#x2191;" horiz-adv-x="590" 
d="M248 0v576l-156 -202l-59 48l260 328l260 -327l-59 -49l-158 205v-579h-88z" />
    <glyph glyph-name="arrowdown" unicode="&#x2193;" horiz-adv-x="543" 
d="M292 700v-576l156 202l59 -48l-260 -328l-261 327l59 49l158 -205v579h89z" />
    <glyph glyph-name="minus" unicode="&#x2212;" horiz-adv-x="599" 
d="M112 320l16 76h408l-17 -76h-407z" />
    <glyph glyph-name="uni2215" unicode="&#x2215;" horiz-adv-x="566" 
d="M-6 0l535 700h70l-538 -700h-67z" />
    <glyph glyph-name="notequal" unicode="&#x2260;" horiz-adv-x="599" 
d="M74 113l104 118h-86l17 75h134l86 97h-200l17 76h248l103 118h73l-104 -118h87l-16 -76h-135l-86 -97h200l-16 -75h-249l-103 -118h-74z" />
    <glyph glyph-name="uniFEFF" unicode="&#xfeff;" horiz-adv-x="0" 
 />
    <glyph glyph-name="uniFFFD" unicode="&#xfffd;" horiz-adv-x="514" 
d="M60 -100v850h394v-850h-394z" />
    <glyph glyph-name="i.loclTRK" horiz-adv-x="235" 
d="M196 605q-24 0 -39 15.5t-15 39.5q0 18 9 34t24.5 25.5t33.5 9.5q23 0 39 -16t16 -39q0 -28 -20.5 -48.5t-47.5 -20.5zM17 0l109 495h92l-107 -495h-94z" />
    <glyph glyph-name="a.ss01" horiz-adv-x="584" 
d="M243 -6q-56 0 -100 29.5t-69 80.5t-25 115q0 57 19.5 108t54.5 89.5t81 60.5t99 22q50 0 90 -20.5t65 -60.5l16 77h93l-108 -495h-92l10 46q-27 -24 -61.5 -38t-72.5 -14zM279 74q64 0 114 45l50 231q-19 31 -53 49.5t-74 18.5q-49 0 -89 -25.5t-63.5 -68.5t-23.5 -98
q0 -67 39 -109.5t100 -42.5z" />
    <glyph glyph-name="aacute.ss01" horiz-adv-x="584" 
d="M243 -6q-56 0 -100 29.5t-69 80.5t-25 115q0 57 19.5 108t54.5 89.5t81 60.5t99 22q50 0 90 -20.5t65 -60.5l16 77h93l-108 -495h-92l10 46q-27 -24 -61.5 -38t-72.5 -14zM279 74q64 0 114 45l50 231q-19 31 -53 49.5t-74 18.5q-49 0 -89 -25.5t-63.5 -68.5t-23.5 -98
q0 -67 39 -109.5t100 -42.5zM286 588l143 128h124l-178 -128h-89z" />
    <glyph glyph-name="abreve.ss01" horiz-adv-x="584" 
d="M243 -6q-56 0 -100 29.5t-69 80.5t-25 115q0 57 19.5 108t54.5 89.5t81 60.5t99 22q50 0 90 -20.5t65 -60.5l16 77h93l-108 -495h-92l10 46q-27 -24 -61.5 -38t-72.5 -14zM279 74q64 0 114 45l50 231q-19 31 -53 49.5t-74 18.5q-49 0 -89 -25.5t-63.5 -68.5t-23.5 -98
q0 -67 39 -109.5t100 -42.5zM358 583q-64 0 -103.5 36.5t-41.5 99.5l58 13q2 -46 25 -69.5t64 -23.5q77 0 117 88l59 -19q-26 -59 -72.5 -92t-105.5 -33z" />
    <glyph glyph-name="acircumflex.ss01" horiz-adv-x="584" 
d="M243 -6q-56 0 -100 29.5t-69 80.5t-25 115q0 57 19.5 108t54.5 89.5t81 60.5t99 22q50 0 90 -20.5t65 -60.5l16 77h93l-108 -495h-92l10 46q-27 -24 -61.5 -38t-72.5 -14zM279 74q64 0 114 45l50 231q-19 31 -53 49.5t-74 18.5q-49 0 -89 -25.5t-63.5 -68.5t-23.5 -98
q0 -67 39 -109.5t100 -42.5zM184 584l141 133h96l89 -133h-71l-71 84l-107 -84h-77z" />
    <glyph glyph-name="adieresis.ss01" horiz-adv-x="584" 
d="M243 -6q-56 0 -100 29.5t-69 80.5t-25 115q0 57 19.5 108t54.5 89.5t81 60.5t99 22q50 0 90 -20.5t65 -60.5l16 77h93l-108 -495h-92l10 46q-27 -24 -61.5 -38t-72.5 -14zM279 74q64 0 114 45l50 231q-19 31 -53 49.5t-74 18.5q-49 0 -89 -25.5t-63.5 -68.5t-23.5 -98
q0 -67 39 -109.5t100 -42.5zM252 607q-23 0 -38.5 15.5t-15.5 37.5q0 26 19.5 45t46.5 19q22 0 37 -15.5t15 -37.5q0 -26 -18.5 -45t-45.5 -19zM461 607q-22 0 -37.5 15.5t-15.5 37.5q0 26 19.5 45t45.5 19q22 0 37.5 -15.5t15.5 -37.5q0 -26 -19 -45t-46 -19z" />
    <glyph glyph-name="agrave.ss01" horiz-adv-x="584" 
d="M243 -6q-56 0 -100 29.5t-69 80.5t-25 115q0 57 19.5 108t54.5 89.5t81 60.5t99 22q50 0 90 -20.5t65 -60.5l16 77h93l-108 -495h-92l10 46q-27 -24 -61.5 -38t-72.5 -14zM279 74q64 0 114 45l50 231q-19 31 -53 49.5t-74 18.5q-49 0 -89 -25.5t-63.5 -68.5t-23.5 -98
q0 -67 39 -109.5t100 -42.5zM316 588l-153 128h123l115 -128h-85z" />
    <glyph glyph-name="amacron.ss01" horiz-adv-x="584" 
d="M243 -6q-56 0 -100 29.5t-69 80.5t-25 115q0 57 19.5 108t54.5 89.5t81 60.5t99 22q50 0 90 -20.5t65 -60.5l16 77h93l-108 -495h-92l10 46q-27 -24 -61.5 -38t-72.5 -14zM279 74q64 0 114 45l50 231q-19 31 -53 49.5t-74 18.5q-49 0 -89 -25.5t-63.5 -68.5t-23.5 -98
q0 -67 39 -109.5t100 -42.5zM209 615l14 63h281l-13 -63h-282z" />
    <glyph glyph-name="aogonek.ss01" horiz-adv-x="584" 
d="M368 -232q-43 0 -68.5 21.5t-25.5 56.5q0 83 121 154h-28l10 46q-27 -24 -61.5 -38t-72.5 -14q-56 0 -100 29.5t-69 80.5t-25 115q0 57 19.5 108t54.5 89.5t81 60.5t99 22q50 0 90 -20.5t65 -60.5l16 77h93l-108 -495q-63 -34 -93.5 -66.5t-30.5 -66.5q0 -20 15.5 -32.5
t39.5 -12.5q12 0 24.5 3t22.5 7l4 -48q-15 -7 -34.5 -11.5t-38.5 -4.5zM140 226q0 -67 39 -109.5t100 -42.5q64 0 114 45l50 231q-19 31 -53 49.5t-74 18.5q-49 0 -89 -25.5t-63.5 -68.5t-23.5 -98z" />
    <glyph glyph-name="aring.ss01" horiz-adv-x="584" 
d="M243 -6q-56 0 -100 29.5t-69 80.5t-25 115q0 57 19.5 108t54.5 89.5t81 60.5t99 22q50 0 90 -20.5t65 -60.5l16 77h93l-108 -495h-92l10 46q-27 -24 -61.5 -38t-72.5 -14zM279 74q64 0 114 45l50 231q-19 31 -53 49.5t-74 18.5q-49 0 -89 -25.5t-63.5 -68.5t-23.5 -98
q0 -67 39 -109.5t100 -42.5zM359 576q-45 0 -74.5 28.5t-29.5 72.5q0 33 17 62t45 47t60 18q47 0 76 -28.5t29 -72.5q0 -34 -17 -62.5t-45 -46.5t-61 -18zM360 622q30 0 51.5 22.5t21.5 53.5q0 25 -16 42t-41 17q-29 0 -51 -22.5t-22 -53.5q0 -26 16.5 -42.5t40.5 -16.5z
" />
    <glyph glyph-name="atilde.ss01" horiz-adv-x="584" 
d="M243 -6q-56 0 -100 29.5t-69 80.5t-25 115q0 57 19.5 108t54.5 89.5t81 60.5t99 22q50 0 90 -20.5t65 -60.5l16 77h93l-108 -495h-92l10 46q-27 -24 -61.5 -38t-72.5 -14zM279 74q64 0 114 45l50 231q-19 31 -53 49.5t-74 18.5q-49 0 -89 -25.5t-63.5 -68.5t-23.5 -98
q0 -67 39 -109.5t100 -42.5zM234 587l-57 19q24 53 53.5 79.5t60.5 26.5q24 0 43.5 -10t37 -23t33.5 -23t31 -10q14 0 24.5 13t27.5 49l57 -18q-24 -53 -52 -79.5t-59 -26.5q-23 0 -43 10t-37 22.5t-33 22t-31 9.5q-16 0 -29 -13.5t-27 -47.5z" />
    <glyph glyph-name="g.ss02" horiz-adv-x="551" 
d="M218 -219q-77 0 -133.5 14.5t-88 41t-31.5 61.5t31 60.5t90 37.5q-45 24 -45 68q0 38 31 66t79 37q-35 22 -56 57t-21 78q0 54 31 99.5t82.5 73t112.5 27.5q48 0 88.5 -17t66.5 -48q16 46 45 69.5t68 23.5q9 0 18.5 -1.5t17.5 -4.5l-17 -83q-10 4 -23 6.5t-27 2.5
q-21 0 -38.5 -10t-25.5 -28q10 -16 15 -35.5t5 -41.5q0 -53 -31 -99t-82.5 -73.5t-113.5 -27.5q-22 0 -43.5 4.5t-40.5 11.5q-26 -6 -41.5 -20t-15.5 -32q0 -30 49 -37l181 -23q58 -7 88 -32t30 -65q0 -48 -31.5 -84.5t-88.5 -56.5t-135 -20zM271 203q36 0 66 17.5t48 47
t18 63.5q0 44 -30 73t-77 29q-36 0 -66.5 -17.5t-48.5 -46t-18 -63.5q0 -45 30.5 -74t77.5 -29zM224 -155q45 0 79.5 9t53 25.5t18.5 37.5q0 17 -12 27.5t-35 13.5l-172 19q-9 1 -17 2.5t-15 3.5q-33 -9 -52 -26t-19 -40q0 -33 46 -52.5t125 -19.5z" />
    <glyph glyph-name="gbreve.ss02" horiz-adv-x="551" 
d="M218 -219q-77 0 -133.5 14.5t-88 41t-31.5 61.5t31 60.5t90 37.5q-45 24 -45 68q0 38 31 66t79 37q-35 22 -56 57t-21 78q0 54 31 99.5t82.5 73t112.5 27.5q48 0 88.5 -17t66.5 -48q16 46 45 69.5t68 23.5q9 0 18.5 -1.5t17.5 -4.5l-17 -83q-10 4 -23 6.5t-27 2.5
q-21 0 -38.5 -10t-25.5 -28q10 -16 15 -35.5t5 -41.5q0 -53 -31 -99t-82.5 -73.5t-113.5 -27.5q-22 0 -43.5 4.5t-40.5 11.5q-26 -6 -41.5 -20t-15.5 -32q0 -30 49 -37l181 -23q58 -7 88 -32t30 -65q0 -48 -31.5 -84.5t-88.5 -56.5t-135 -20zM271 203q36 0 66 17.5t48 47
t18 63.5q0 44 -30 73t-77 29q-36 0 -66.5 -17.5t-48.5 -46t-18 -63.5q0 -45 30.5 -74t77.5 -29zM224 -155q45 0 79.5 9t53 25.5t18.5 37.5q0 17 -12 27.5t-35 13.5l-172 19q-9 1 -17 2.5t-15 3.5q-33 -9 -52 -26t-19 -40q0 -33 46 -52.5t125 -19.5zM332 583
q-64 0 -103.5 36.5t-41.5 99.5l58 13q2 -46 25 -69.5t64 -23.5q77 0 117 88l59 -19q-26 -59 -72.5 -92t-105.5 -33z" />
    <glyph glyph-name="gcircumflex.ss02" horiz-adv-x="551" 
d="M218 -219q-77 0 -133.5 14.5t-88 41t-31.5 61.5t31 60.5t90 37.5q-45 24 -45 68q0 38 31 66t79 37q-35 22 -56 57t-21 78q0 54 31 99.5t82.5 73t112.5 27.5q48 0 88.5 -17t66.5 -48q16 46 45 69.5t68 23.5q9 0 18.5 -1.5t17.5 -4.5l-17 -83q-10 4 -23 6.5t-27 2.5
q-21 0 -38.5 -10t-25.5 -28q10 -16 15 -35.5t5 -41.5q0 -53 -31 -99t-82.5 -73.5t-113.5 -27.5q-22 0 -43.5 4.5t-40.5 11.5q-26 -6 -41.5 -20t-15.5 -32q0 -30 49 -37l181 -23q58 -7 88 -32t30 -65q0 -48 -31.5 -84.5t-88.5 -56.5t-135 -20zM271 203q36 0 66 17.5t48 47
t18 63.5q0 44 -30 73t-77 29q-36 0 -66.5 -17.5t-48.5 -46t-18 -63.5q0 -45 30.5 -74t77.5 -29zM224 -155q45 0 79.5 9t53 25.5t18.5 37.5q0 17 -12 27.5t-35 13.5l-172 19q-9 1 -17 2.5t-15 3.5q-33 -9 -52 -26t-19 -40q0 -33 46 -52.5t125 -19.5zM158 584l141 133h96
l89 -133h-71l-71 84l-107 -84h-77z" />
    <glyph glyph-name="uni0123.ss02" horiz-adv-x="551" 
d="M483 808l-92 -194h-93l118 194h67zM218 -219q-77 0 -133.5 14.5t-88 41t-31.5 61.5t31 60.5t90 37.5q-45 24 -45 68q0 38 31 66t79 37q-35 22 -56 57t-21 78q0 54 31 99.5t82.5 73t112.5 27.5q48 0 88.5 -17t66.5 -48q16 46 45 69.5t68 23.5q9 0 18.5 -1.5t17.5 -4.5
l-17 -83q-10 4 -23 6.5t-27 2.5q-21 0 -38.5 -10t-25.5 -28q10 -16 15 -35.5t5 -41.5q0 -53 -31 -99t-82.5 -73.5t-113.5 -27.5q-22 0 -43.5 4.5t-40.5 11.5q-26 -6 -41.5 -20t-15.5 -32q0 -30 49 -37l181 -23q58 -7 88 -32t30 -65q0 -48 -31.5 -84.5t-88.5 -56.5t-135 -20z
M271 203q36 0 66 17.5t48 47t18 63.5q0 44 -30 73t-77 29q-36 0 -66.5 -17.5t-48.5 -46t-18 -63.5q0 -45 30.5 -74t77.5 -29zM224 -155q45 0 79.5 9t53 25.5t18.5 37.5q0 17 -12 27.5t-35 13.5l-172 19q-9 1 -17 2.5t-15 3.5q-33 -9 -52 -26t-19 -40q0 -33 46 -52.5
t125 -19.5z" />
    <glyph glyph-name="gdotaccent.ss02" horiz-adv-x="551" 
d="M218 -219q-77 0 -133.5 14.5t-88 41t-31.5 61.5t31 60.5t90 37.5q-45 24 -45 68q0 38 31 66t79 37q-35 22 -56 57t-21 78q0 54 31 99.5t82.5 73t112.5 27.5q48 0 88.5 -17t66.5 -48q16 46 45 69.5t68 23.5q9 0 18.5 -1.5t17.5 -4.5l-17 -83q-10 4 -23 6.5t-27 2.5
q-21 0 -38.5 -10t-25.5 -28q10 -16 15 -35.5t5 -41.5q0 -53 -31 -99t-82.5 -73.5t-113.5 -27.5q-22 0 -43.5 4.5t-40.5 11.5q-26 -6 -41.5 -20t-15.5 -32q0 -30 49 -37l181 -23q58 -7 88 -32t30 -65q0 -48 -31.5 -84.5t-88.5 -56.5t-135 -20zM271 203q36 0 66 17.5t48 47
t18 63.5q0 44 -30 73t-77 29q-36 0 -66.5 -17.5t-48.5 -46t-18 -63.5q0 -45 30.5 -74t77.5 -29zM224 -155q45 0 79.5 9t53 25.5t18.5 37.5q0 17 -12 27.5t-35 13.5l-172 19q-9 1 -17 2.5t-15 3.5q-33 -9 -52 -26t-19 -40q0 -33 46 -52.5t125 -19.5zM333 607q-24 0 -40 16.5
t-16 39.5q0 26 20.5 46t46.5 20q23 0 39.5 -16.5t16.5 -39.5q0 -17 -9.5 -32t-24.5 -24.5t-33 -9.5z" />
    <glyph glyph-name="exclamdown.cap" horiz-adv-x="226" 
d="M200 493l-102 -516h-93l123 516h72zM202 713q23 0 39 -16.5t16 -39.5q0 -28 -20.5 -48.5t-48.5 -20.5q-23 0 -38 16t-15 39q0 19 9.5 34.5t24.5 25.5t33 10z" />
    <glyph glyph-name="questiondown.cap" horiz-adv-x="493" 
d="M351 706q23 0 38 -16t15 -40q0 -28 -20 -48.5t-48 -20.5q-22 0 -37 16.5t-15 38.5q0 19 9 34.5t24.5 25.5t33.5 10zM353 484q-10 -65 -36 -105t-78 -70l-61 -37q-38 -23 -58.5 -52t-20.5 -61q0 -38 31 -62.5t81 -24.5q43 0 83 21t73 57l61 -44q-46 -56 -105.5 -86.5
t-123.5 -30.5q-56 0 -99 20t-67.5 55.5t-24.5 82.5q0 57 31.5 102t102.5 87l51 31q39 21 57.5 48t25.5 69h77z" />
    <glyph glyph-name="periodcentered.cap" horiz-adv-x="250" 
d="M138 285q-23 0 -39 16.5t-16 41.5q0 19 9.5 35t25.5 26t34 10q23 0 38 -16.5t15 -40.5q0 -18 -9.5 -34.5t-24.5 -27t-33 -10.5z" />
    <glyph glyph-name="periodcentered.loclCAT" horiz-adv-x="250" 
d="M124 220q-23 0 -39 16.5t-16 41.5q0 19 9.5 35t25.5 26t34 10q23 0 38 -16.5t15 -40.5q0 -18 -9.5 -34.5t-24.5 -27t-33 -10.5z" />
    <glyph glyph-name="periodcentered.loclCAT.case" horiz-adv-x="250" 
d="M130 246q-23 0 -39 16.5t-16 41.5q0 19 9.5 35t25.5 26t34 10q23 0 38 -16.5t15 -40.5q0 -18 -9.5 -34.5t-24.5 -27t-33 -10.5z" />
    <glyph glyph-name="hyphen.cap" horiz-adv-x="458" 
d="M66 307l18 81h334l-18 -81h-334z" />
    <glyph glyph-name="endash.cap" horiz-adv-x="553" 
d="M66 307l18 81h427l-18 -81h-427z" />
    <glyph glyph-name="emdash.cap" horiz-adv-x="696" 
d="M68 307l18 81h566l-18 -81h-566z" />
    <glyph glyph-name="uni2015.cap" horiz-adv-x="933" 
d="M69 307l18 81h799l-18 -81h-799z" />
    <glyph glyph-name="at.cap" horiz-adv-x="770" 
d="M431 -10q-76 0 -139.5 26.5t-111 74t-73.5 111.5t-26 139q0 79 26.5 147t73 118.5t110 78t137.5 27.5q69 0 128 -23t103 -64.5t68.5 -97.5t24.5 -121q0 -63 -23 -113t-62.5 -78.5t-89.5 -28.5q-68 0 -94 41q-24 -21 -49.5 -32t-52.5 -11q-39 0 -70.5 20t-50 54.5
t-18.5 77.5q0 50 22.5 90.5t60 65t84.5 24.5q27 0 51.5 -9.5t41.5 -27.5l5 24h69l-40 -197q-6 -32 7 -49.5t42 -17.5q33 0 58 21t39.5 58.5t14.5 83.5q0 75 -35.5 134t-96.5 92.5t-139 33.5q-62 0 -114.5 -24t-92 -67.5t-62 -101.5t-22.5 -125q0 -88 38.5 -156t105.5 -107
t154 -39q89 0 161 39l21 -46q-43 -22 -88.5 -33.5t-95.5 -11.5zM396 242q41 0 73 32q-1 9 -0.5 18.5t2.5 21.5l19 100q-12 21 -33.5 31.5t-47.5 10.5q-28 0 -50.5 -15.5t-36 -41.5t-13.5 -57q0 -45 24.5 -72.5t62.5 -27.5z" />
    <glyph glyph-name="uni030C.ss02" horiz-adv-x="0" 
d="M309 520l50 200l90 17l-74 -217h-66z" />
    <glyph glyph-name="zero.tf" 
d="M279 -11q-64 0 -114 32t-78.5 94t-28.5 153q0 94 24.5 174.5t67.5 140.5t98 94t117 34q65 0 114.5 -32t78 -94t28.5 -153q0 -94 -24.5 -174.5t-67.5 -140.5t-98 -94t-117 -34zM280 71q44 0 82.5 27.5t69 76.5t47.5 114t17 140q0 55 -12 93t-31.5 61.5t-42.5 34.5t-46 11
q-44 0 -82.5 -27.5t-69 -76.5t-47.5 -114t-17 -140q0 -65 18.5 -109.5t48.5 -67.5t65 -23z" />
    <glyph glyph-name="one.tf" 
d="M50 0l16 80h177l111 516l-193 -77l18 89l231 92h58l-133 -620h195l-17 -80h-463z" />
    <glyph glyph-name="two.tf" 
d="M25 0l13 67l367 329q42 37 61 70.5t19 67.5q0 42 -34 68.5t-87 26.5q-43 0 -85 -18t-98 -59l-40 67q61 46 119.5 69t117.5 23t103 -21t69 -58t25 -86q0 -55 -25.5 -100.5t-87.5 -99.5l-300 -268l335 1l-16 -79h-456z" />
    <glyph glyph-name="three.tf" 
d="M271 -11q-79 0 -142.5 33.5t-108.5 93.5l68 54q41 -53 87 -76.5t102 -23.5q48 0 84 17t56.5 47.5t20.5 69.5q0 32 -16 57.5t-45.5 40t-70.5 14.5h-62l17 78h75q41 0 73.5 17t51.5 45t19 62q0 46 -35 78.5t-99 32.5q-48 0 -90 -16t-85 -51l-47 64q45 41 102.5 63t122.5 22
q71 0 121.5 -24.5t77 -65t26.5 -88.5q0 -63 -39.5 -112.5t-119.5 -71.5q54 -18 83.5 -57t29.5 -88q0 -62 -33.5 -110.5t-91.5 -76.5t-132 -28z" />
    <glyph glyph-name="four.tf" 
d="M345 0l38 180h-372l16 74l458 446h99l-94 -441h92l-17 -79h-91l-39 -180h-90zM135 259h265l70 327z" />
    <glyph glyph-name="five.tf" 
d="M264 -11q-76 0 -138.5 29.5t-103.5 82.5l64 59q38 -47 83 -69t100 -22q50 0 88.5 21.5t61.5 58.5t23 83q0 60 -41 95t-110 35q-29 0 -60 -7t-67 -23l-61 26l87 342h408l-18 -80h-327l-54 -211q34 14 63 20t60 6q65 0 113 -23.5t74 -66.5t26 -102q0 -53 -21 -99
t-58.5 -80.5t-86.5 -54.5t-105 -20z" />
    <glyph glyph-name="six.tf" 
d="M306 -11q-68 0 -124 34t-89.5 98t-33.5 154q0 99 27.5 179t76.5 137.5t112.5 88.5t136.5 31q59 0 107 -18t88 -51l-54 -71q-35 30 -70.5 44t-72.5 14q-64 0 -118.5 -36t-91.5 -100.5t-48 -151.5q41 46 91.5 71t105.5 25q63 0 111.5 -26.5t75.5 -71.5t27 -102
q0 -55 -20.5 -100.5t-56.5 -78.5t-82.5 -51t-97.5 -18zM315 70q45 0 80.5 21t56 57.5t20.5 83.5q0 58 -39 95t-105 37q-49 0 -95.5 -21.5t-83.5 -59.5q0 -68 21.5 -115.5t59 -72.5t85.5 -25z" />
    <glyph glyph-name="seven.tf" 
d="M61 0l466 619h-406l18 81h508l-16 -70l-459 -630h-111z" />
    <glyph glyph-name="eight.tf" 
d="M279 -10q-72 0 -127.5 25t-86 68t-30.5 97q0 47 23 87t64.5 68.5t97.5 39.5q-46 20 -70 56t-24 79q0 60 33.5 105t88.5 70.5t120 25.5q68 0 115.5 -23.5t73.5 -63t26 -86.5q0 -43 -19.5 -78.5t-55.5 -62t-84 -39.5q52 -21 84.5 -62.5t32.5 -94.5q0 -62 -35.5 -109.5
t-95 -74.5t-131.5 -27zM348 402q40 0 72.5 16.5t52.5 45.5t20 64q0 47 -33 77.5t-100 30.5q-39 0 -72 -16.5t-53 -45t-20 -65.5q0 -45 36.5 -76t96.5 -31zM286 64q73 0 118.5 39t45.5 99q0 35 -19.5 63.5t-54 45.5t-82.5 17q-74 0 -120 -38t-46 -98q0 -35 19 -64t55 -46.5
t84 -17.5z" />
    <glyph glyph-name="nine.tf" horiz-adv-x="606" 
d="M332 711q68 0 124 -34t89.5 -97.5t33.5 -154.5q0 -98 -27.5 -178.5t-76.5 -138t-113 -88.5t-136 -31q-59 0 -106.5 18t-88.5 51l53 71q37 -30 72 -44t72 -14q64 0 118.5 36t91.5 101t47 151q-40 -46 -90.5 -71t-105.5 -25q-63 0 -111.5 26.5t-75.5 72t-27 101.5
q0 55 20.5 100.5t56 78.5t82 51t98.5 18zM322 630q-44 0 -79.5 -21t-56.5 -57.5t-21 -83.5q0 -58 39.5 -95t105.5 -37q49 0 95.5 21.5t83.5 59.5q-1 69 -22.5 116t-58.5 72t-86 25z" />
    <glyph glyph-name="zero.tf.slash" 
d="M279 -11q-64 0 -114 32t-78.5 94t-28.5 153q0 94 24.5 174.5t67.5 140.5t98 94t117 34q65 0 114.5 -32t78 -94t28.5 -153q0 -94 -24.5 -174.5t-67.5 -140.5t-98 -94t-117 -34zM280 71q44 0 82.5 27.5t69 76.5t47.5 114t17 140q0 26 -3 48t-9 39l-288 -408q34 -37 84 -37z
M161 180l288 410q-34 39 -85 39q-44 0 -82.5 -27.5t-69 -76.5t-47.5 -114t-17 -140q0 -27 3.5 -49.5t9.5 -41.5z" />
    <glyph glyph-name="caronSlovak" 
d="M309 520l50 200l90 17l-74 -217h-66z" />
    </font>
</defs>
</svg>
