<?xml version="1.0" standalone="no"?>
<!DOCTYPE svg PUBLIC "-//W3C//DTD SVG 1.1//EN" "http://www.w3.org/Graphics/SVG/1.1/DTD/svg11.dtd" >
<svg xmlns="http://www.w3.org/2000/svg" xmlns:xlink="http://www.w3.org/1999/xlink" version="1.1">
<metadata>
Created by FontForge 20201107 at Fri Nov 15 16:57:23 2024
 By 
Copyright 2024 The Red Hat Project Authors (https://github.com/RedHatOfficial/RedHatFont)
</metadata>
<defs>
<font id="RedHatText-LightItalic" horiz-adv-x="600" >
  <font-face 
    font-family="Red Hat Text Light"
    font-weight="300"
    font-style="italic"
    font-stretch="normal"
    units-per-em="1000"
    panose-1="2 1 8 3 4 2 1 13 3 3"
    ascent="800"
    descent="-200"
    x-height="481"
    cap-height="700"
    bbox="-141 -266 1084 1002"
    underline-thickness="100"
    underline-position="-250"
    slope="-12"
    unicode-range="U+000D-FFFD"
  />
<missing-glyph horiz-adv-x="514" 
d="M62 -100v850h394v-850h-394z" />
    <glyph glyph-name="fi" unicode="fi" horiz-adv-x="543" 
d="M82 0l93 438h-104l9 43h104l27 126q14 67 48.5 98.5t92.5 31.5q20 0 38 -3t35 -10l-9 -47q-32 14 -64 14q-41 0 -62 -21t-31 -67l-26 -122h141l-9 -43h-141l-93 -438h-49zM523 607q-17 0 -29 12.5t-12 30.5q0 14 6.5 25.5t18 18t25.5 6.5q17 0 29 -12.5t12 -30.5
q0 -21 -14.5 -35.5t-35.5 -14.5zM365 0l103 481h49l-103 -481h-49z" />
    <glyph glyph-name="fl" unicode="fl" horiz-adv-x="543" 
d="M82 0l93 438h-104l9 43h104l27 126q14 67 48.5 98.5t92.5 31.5q20 0 38 -3t35 -10l-9 -47q-32 14 -64 14q-41 0 -62 -21t-31 -67l-26 -122h141l-9 -43h-141l-93 -438h-49zM366 0l152 725l51 12l-154 -737h-49z" />
    <glyph glyph-name=".notdef" horiz-adv-x="514" 
d="M62 -100v850h394v-850h-394z" />
    <glyph glyph-name=".null" horiz-adv-x="0" 
 />
    <glyph glyph-name="nonmarkingreturn" horiz-adv-x="333" 
 />
    <glyph glyph-name="CR" unicode="&#xd;" horiz-adv-x="238" 
 />
    <glyph glyph-name="space" unicode=" " horiz-adv-x="238" 
 />
    <glyph glyph-name="exclam" unicode="!" horiz-adv-x="201" 
d="M69 199l105 511h53l-117 -511h-41zM49 -8q-16 0 -27.5 12t-11.5 29q0 22 16.5 37t38.5 15q17 0 28 -12t11 -29q0 -14 -7.5 -26t-20 -19t-27.5 -7z" />
    <glyph glyph-name="quotedbl" unicode="&#x22;" horiz-adv-x="312" 
d="M145 554l31 196h53l-49 -196h-35zM268 554l31 196h53l-49 -196h-35z" />
    <glyph glyph-name="numbersign" unicode="#" horiz-adv-x="659" 
d="M-4 0l125 228h-103l9 43h117l87 158h-122l9 43h136l125 228h50l-125 -228h188l125 228h50l-125 -228h103l-9 -43h-117l-87 -158h122l-9 -43h-136l-125 -228h-50l125 228h-188l-125 -228h-50zM194 271h188l87 158h-188z" />
    <glyph glyph-name="dollar" unicode="$" horiz-adv-x="527" 
d="M171 -67l20 94q-93 16 -167 92l32 32q35 -35 69.5 -55t74.5 -27l57 270l-25 10q-65 26 -95 65t-30 92q0 78 60 124t162 46l19 91h44l-20 -96q42 -8 82 -31t73 -59l-34 -30q-28 32 -61 51.5t-69 26.5l-55 -258l26 -11q75 -31 105 -67.5t30 -91.5q0 -52 -29 -92t-81.5 -63
t-124.5 -23l-19 -90h-44zM266 383l54 250q-76 0 -121 -34t-45 -92q0 -37 20.5 -65t66.5 -48zM243 66q53 0 93 17.5t63 48.5t23 70t-22.5 64.5t-78.5 49.5l-23 10z" />
    <glyph glyph-name="percent" unicode="%" horiz-adv-x="746" 
d="M210 345q-55 0 -89 37.5t-34 99.5q0 60 23 110.5t61.5 81.5t84.5 31q56 0 89.5 -37.5t33.5 -99.5q0 -60 -23 -110.5t-61.5 -81.5t-84.5 -31zM215 381q33 0 61 26t45.5 68.5t17.5 92.5q0 47 -24 74t-63 27q-32 0 -61 -26t-46.5 -68.5t-17.5 -92.5q0 -47 24.5 -74t63.5 -27
zM102 0l544 700h48l-544 -700h-48zM538 -5q-55 0 -89 37.5t-34 99.5q0 60 23 110.5t61.5 81.5t84.5 31q56 0 89.5 -37.5t33.5 -99.5q0 -60 -23 -111t-61.5 -81.5t-84.5 -30.5zM543 31q33 0 61 26t45.5 68.5t17.5 92.5q0 47 -24 74t-63 27q-32 0 -61 -26t-46.5 -68.5
t-17.5 -92.5q0 -47 24.5 -74t63.5 -27z" />
    <glyph glyph-name="ampersand" unicode="&#x26;" horiz-adv-x="649" 
d="M589 23l-34 -34q-22 20 -45.5 43t-46.5 48q-94 -91 -221 -91q-64 0 -113 23.5t-76.5 65.5t-27.5 97q0 45 18.5 82t63.5 72t126 72q-22 41 -30.5 70.5t-8.5 62.5q0 51 23 91t62 63t88 23q40 0 70 -16t47.5 -44t17.5 -65q0 -55 -34 -95t-116 -81l-55 -28q40 -64 83 -122
t86 -110q36 41 66 90.5t51 104.5l47 -13q-25 -64 -59 -117.5t-75 -98.5q23 -25 46.5 -48.5t46.5 -44.5zM243 533q0 -27 8 -52.5t27 -60.5l66 33q57 29 83 59t26 70q0 38 -24 61t-64 23q-52 0 -87 -38t-35 -95zM76 182q0 -66 46.5 -106.5t122.5 -40.5q50 0 97.5 20.5
t89.5 59.5q-42 50 -86 110t-94 138q-100 -45 -138 -88t-38 -93z" />
    <glyph glyph-name="quotesingle" unicode="'" horiz-adv-x="189" 
d="M145 554l31 196h53l-49 -196h-35z" />
    <glyph glyph-name="parenleft" unicode="(" horiz-adv-x="385" 
d="M214 -220q-73 61 -110.5 151.5t-37.5 207.5q0 125 41 238.5t116 201.5t175 136l22 -40q-68 -33 -123.5 -87.5t-96 -125.5t-62 -153t-21.5 -169q0 -221 129 -326z" />
    <glyph glyph-name="parenright" unicode=")" horiz-adv-x="385" 
d="M197 715q73 -61 110.5 -151.5t37.5 -207.5q0 -125 -41 -238.5t-115.5 -201t-175.5 -136.5l-22 40q68 33 123.5 87.5t96 125.5t62 153t21.5 169q0 221 -129 326z" />
    <glyph glyph-name="asterisk" unicode="*" horiz-adv-x="436" 
d="M223 350l33 147l-130 -69l-17 36l136 69l-99 81l27 31l96 -82l26 137h39l-29 -136l124 64l17 -36l-133 -66l104 -82l-29 -32l-98 84l-28 -146h-39z" />
    <glyph glyph-name="plus" unicode="+" 
d="M282 152l39 182h-168l9 45h169l39 182h45l-39 -182h167l-9 -45h-168l-39 -182h-45z" />
    <glyph glyph-name="comma" unicode="," horiz-adv-x="250" 
d="M-21 -152l95 212h58l-112 -212h-41z" />
    <glyph glyph-name="hyphen" unicode="-" horiz-adv-x="443" 
d="M66 258l11 44h316l-11 -44h-316z" />
    <glyph glyph-name="period" unicode="." horiz-adv-x="250" 
d="M74 -8q-16 0 -27.5 12t-11.5 29q0 15 7.5 26.5t20 18.5t27.5 7q17 0 28 -12t11 -29q0 -14 -7.5 -26t-20 -19t-27.5 -7z" />
    <glyph glyph-name="slash" unicode="/" horiz-adv-x="440" 
d="M-141 -209l579 909h56l-579 -909h-56z" />
    <glyph glyph-name="zero" unicode="0" horiz-adv-x="648" 
d="M389 711q65 0 115.5 -32t80 -95t29.5 -156q0 -95 -25.5 -175.5t-69.5 -139.5t-98.5 -91.5t-113.5 -32.5q-64 0 -115 32t-80.5 95t-29.5 156q0 95 25.5 175.5t69.5 139.5t99 91.5t113 32.5zM391 665q-50 0 -96.5 -29.5t-83 -82.5t-57.5 -123.5t-21 -153.5
q0 -116 48 -178.5t124 -62.5q50 0 96.5 29.5t83 82.5t57.5 124t21 153q0 116 -48 178.5t-124 62.5z" />
    <glyph glyph-name="one" unicode="1" horiz-adv-x="281" 
d="M95 0l135 637l-113 -44l12 54l135 53h29l-149 -700h-49z" />
    <glyph glyph-name="two" unicode="2" 
d="M40 0l8 38l378 356q47 44 69 83t22 76q0 50 -37 81.5t-96 31.5q-46 0 -94 -17t-109 -62l-22 39q57 44 113 64.5t108 20.5q55 0 97 -19.5t66.5 -54t24.5 -78.5q0 -52 -24 -95t-86 -101l-338 -318h356l-10 -45h-426z" />
    <glyph glyph-name="three" unicode="3" 
d="M267 -11q-71 0 -128.5 29t-107.5 89l38 33q42 -54 92.5 -80t113.5 -26q54 0 95 20.5t64 57.5t23 84q0 42 -20.5 74t-55.5 50.5t-81 18.5h-56l9 44h84q44 0 80.5 20t58.5 53.5t22 73.5q0 61 -43.5 98.5t-114.5 37.5q-53 0 -93.5 -15t-84.5 -52l-28 35q41 39 92 58t112 19
q63 0 110.5 -22t74 -60.5t26.5 -90.5q0 -66 -38.5 -113t-113.5 -73q50 -18 80.5 -58t30.5 -90q0 -62 -31 -111t-85.5 -76.5t-124.5 -27.5z" />
    <glyph glyph-name="four" unicode="4" horiz-adv-x="587" 
d="M357 0l42 195h-370l8 38l468 467h51l-99 -460h99l-10 -45h-98l-42 -195h-49zM108 240h300l82 381z" />
    <glyph glyph-name="five" unicode="5" 
d="M266 -11q-72 0 -130.5 29.5t-96.5 81.5l34 32q38 -50 86 -74t109 -24q60 0 107 26.5t74 71.5t27 102q0 73 -45 113t-128 40q-34 0 -69 -8t-78 -25l-31 14l84 332h377l-10 -45h-331l-65 -255q38 16 68.5 23.5t65.5 7.5q66 0 113.5 -23.5t73.5 -66.5t26 -104
q0 -51 -20.5 -96t-56.5 -79t-83 -53.5t-101 -19.5z" />
    <glyph glyph-name="six" unicode="6" 
d="M308 -11q-60 0 -114 33t-88.5 96t-34.5 154q0 104 26.5 185.5t73 138t107 86t127.5 29.5q47 0 90.5 -14t89.5 -44l-23 -41q-43 28 -78.5 41t-75.5 13q-71 0 -131.5 -39.5t-101 -112t-50.5 -173.5q43 46 96 71.5t111 25.5q67 0 116.5 -28t76.5 -75t27 -105
q0 -56 -19.5 -100.5t-54 -76t-78.5 -48t-92 -16.5zM316 34q53 0 94.5 26t66 71t24.5 102q0 72 -45.5 116.5t-127.5 44.5q-56 0 -110.5 -27.5t-95.5 -74.5q-1 -84 24.5 -141.5t70 -87t99.5 -29.5z" />
    <glyph glyph-name="seven" unicode="7" 
d="M66 0l498 655h-426l9 45h490l-8 -38l-504 -662h-59z" />
    <glyph glyph-name="eight" unicode="8" 
d="M285 -11q-68 0 -121.5 25t-84.5 69t-31 99q0 51 25 92t69.5 69t102.5 38q-48 20 -75 57t-27 87q0 54 29 96t79.5 66t114.5 24q61 0 107.5 -21.5t73 -59t26.5 -86.5q0 -44 -19 -80t-56.5 -61.5t-91.5 -40.5q58 -24 92 -69.5t34 -100.5q0 -58 -32.5 -104t-88 -72.5
t-126.5 -26.5zM354 397q49 0 87.5 19.5t61.5 52.5t23 74q0 59 -43 91.5t-121 32.5q-49 0 -88 -19t-61.5 -51.5t-22.5 -74.5q0 -59 43 -92t121 -33zM289 34q88 0 141.5 44.5t53.5 116.5q0 45 -25 79.5t-68.5 54t-99.5 19.5q-88 0 -141.5 -44t-53.5 -116q0 -44 25 -79
t68.5 -55t99.5 -20z" />
    <glyph glyph-name="nine" unicode="9" horiz-adv-x="608" 
d="M330 711q60 0 114.5 -33t88.5 -96t34 -154q0 -104 -26.5 -185.5t-73 -138t-107 -86t-127.5 -29.5q-47 0 -90.5 14t-89.5 44l23 41q43 -28 78.5 -41t75.5 -13q71 0 131.5 39.5t101 112.5t50.5 173q-43 -46 -95.5 -71.5t-111.5 -25.5q-67 0 -116.5 28t-76.5 75t-27 105
q0 56 19.5 100.5t54 76t78.5 48t92 16.5zM322 666q-52 0 -94 -26t-66.5 -71t-24.5 -102q0 -72 45.5 -116.5t127.5 -44.5q56 0 111 27.5t95 74.5q1 84 -24.5 141.5t-70 87t-99.5 29.5z" />
    <glyph glyph-name="colon" unicode=":" horiz-adv-x="250" 
d="M74 -8q-16 0 -27.5 12t-11.5 29q0 15 7.5 26.5t20 18.5t27.5 7q17 0 28 -12t11 -29q0 -14 -7.5 -26t-20 -19t-27.5 -7zM161 402q-16 0 -27.5 12t-11.5 29q0 15 7.5 26.5t20 18.5t27.5 7q17 0 28 -12t11 -29q0 -14 -7.5 -26t-20 -19t-27.5 -7z" />
    <glyph glyph-name="semicolon" unicode=";" horiz-adv-x="250" 
d="M161 402q-16 0 -27.5 12t-11.5 29q0 15 7.5 26.5t20 18.5t27.5 7q17 0 28 -12t11 -29q0 -14 -7.5 -26t-20 -19t-27.5 -7zM-21 -152l95 212h58l-112 -212h-41z" />
    <glyph glyph-name="less" unicode="&#x3c;" 
d="M424 118l-259 231l353 230l22 -38l-307 -196l222 -195z" />
    <glyph glyph-name="equal" unicode="=" 
d="M136 259l10 45h381l-10 -45h-381zM169 411l10 45h381l-10 -45h-381z" />
    <glyph glyph-name="greater" unicode="&#x3e;" 
d="M241 579l259 -231l-353 -230l-22 38l307 196l-222 195z" />
    <glyph glyph-name="question" unicode="?" horiz-adv-x="495" 
d="M164 -8q-16 0 -27.5 12t-11.5 29q0 22 16.5 37t38.5 15q17 0 28 -12t11 -29q0 -14 -7.5 -26t-20 -19t-27.5 -7zM181 201q0 59 29 102.5t90 77.5l62 36q44 26 68 62t24 74q0 47 -37.5 78.5t-96.5 31.5q-45 0 -89.5 -22.5t-86.5 -61.5l-31 40q50 44 103.5 68t105.5 24
q53 0 94 -20.5t64 -56t23 -80.5q0 -54 -28 -94.5t-89 -77.5l-68 -40q-48 -28 -70.5 -62.5t-22.5 -78.5h-44z" />
    <glyph glyph-name="at" unicode="@" horiz-adv-x="762" 
d="M395 -144q-73 0 -134.5 26.5t-107 74t-71 111.5t-25.5 139q0 78 25 145t70 117t105.5 77.5t132.5 27.5q68 0 125.5 -23.5t100.5 -65t66.5 -97.5t23.5 -122q0 -62 -22.5 -109.5t-60 -73.5t-81.5 -26q-61 0 -86 41q-24 -22 -50 -33.5t-51 -11.5q-39 0 -70 19.5t-49 53.5
t-18 76q0 49 21.5 88.5t58 63.5t80.5 24q29 0 54.5 -11t43.5 -31l5 29h42l-36 -189q-7 -38 8 -58.5t50 -20.5q33 0 60.5 22t43.5 60t16 87q0 77 -36 137.5t-98.5 95.5t-142.5 35q-60 0 -113 -25t-92.5 -69.5t-62 -103.5t-22.5 -128q0 -89 39 -160t107.5 -111.5t154.5 -40.5
q89 0 163 43l15 -37q-40 -22 -86 -34t-96 -12zM363 91q47 0 82 38q-2 11 -1.5 23.5t2.5 25.5l21 112q-13 23 -38 36t-54 13q-31 0 -57 -18.5t-41.5 -49t-15.5 -67.5q0 -50 28 -81.5t74 -31.5z" />
    <glyph glyph-name="A" unicode="A" horiz-adv-x="626" 
d="M-40 0l417 700h64l123 -700h-51l-40 234h-317l-138 -234h-58zM180 276h286l-64 377z" />
    <glyph glyph-name="B" unicode="B" horiz-adv-x="640" 
d="M40 0l149 700h243q57 0 97 -19.5t61 -54.5t21 -82q0 -70 -43.5 -119.5t-120.5 -63.5q60 -13 93 -50.5t33 -92.5q0 -62 -31 -111.5t-86 -78t-128 -28.5h-288zM174 388h214q80 0 126.5 43.5t46.5 108.5q0 51 -35 82t-100 31h-196zM101 47h227q60 0 103.5 22.5t67 60.5
t23.5 86q0 57 -39.5 91.5t-112.5 34.5h-206z" />
    <glyph glyph-name="C" unicode="C" horiz-adv-x="714" 
d="M382 -11q-65 0 -120.5 24.5t-96.5 68t-63.5 102t-22.5 126.5q0 83 30.5 155.5t83.5 128t121.5 86.5t143.5 31q80 0 147.5 -33t110.5 -95l-40 -28q-37 53 -94.5 80.5t-128.5 27.5q-66 0 -124.5 -28.5t-103 -78t-70 -113t-25.5 -134.5q0 -74 31.5 -136t89.5 -99t136 -37
q65 0 123 20.5t105 63.5l32 -38q-52 -46 -120 -70t-145 -24z" />
    <glyph glyph-name="D" unicode="D" horiz-adv-x="707" 
d="M40 0l149 700h188q89 0 155.5 -38t104 -107t37.5 -163q0 -82 -28 -153.5t-79.5 -125t-121.5 -83.5t-153 -30h-252zM378 653h-148l-129 -606h200q71 0 130 28t102 76.5t66.5 111t23.5 130.5q0 80 -31 138t-86 90t-128 32z" />
    <glyph glyph-name="E" unicode="E" horiz-adv-x="594" 
d="M40 0l149 700h455l-10 -47h-404l-59 -276h280l-10 -47h-280l-60 -283h408l-10 -47h-459z" />
    <glyph glyph-name="F" unicode="F" horiz-adv-x="584" 
d="M40 0l149 700h454l-10 -47h-403l-60 -281h275l-10 -47h-275l-69 -325h-51z" />
    <glyph glyph-name="G" unicode="G" horiz-adv-x="779" 
d="M382 -11q-65 0 -120.5 24.5t-96.5 68t-63.5 102t-22.5 126.5q0 83 30.5 155.5t83.5 128t121.5 86.5t143.5 31q78 0 148.5 -34.5t116.5 -97.5l-40 -28q-40 55 -99.5 83.5t-130.5 28.5q-66 0 -124.5 -28.5t-103 -78t-70 -113t-25.5 -134.5q0 -74 31.5 -136t89.5 -99
t136 -37q81 0 144.5 35.5t104.5 97t53 139.5h-244l10 47h293l-9 -46q-17 -90 -65.5 -162.5t-122.5 -115.5t-169 -43z" />
    <glyph glyph-name="H" unicode="H" horiz-adv-x="709" 
d="M40 0l149 700h51l-69 -324h425l69 324h51l-149 -700h-51l70 329h-425l-70 -329h-51z" />
    <glyph glyph-name="I" unicode="I" horiz-adv-x="233" 
d="M40 0l149 700h51l-149 -700h-51z" />
    <glyph glyph-name="J" unicode="J" horiz-adv-x="570" 
d="M226 -11q-84 0 -140.5 44t-75.5 126l44 18q17 -70 61.5 -105.5t111.5 -35.5q88 0 142 56.5t76 158.5l96 449h51l-96 -449q-17 -82 -52 -141t-88.5 -90t-129.5 -31z" />
    <glyph glyph-name="K" unicode="K" horiz-adv-x="564" 
d="M40 0l149 700h51l-70 -328l416 328h76l-441 -345l296 -355h-68l-284 348l-74 -348h-51z" />
    <glyph glyph-name="L" unicode="L" horiz-adv-x="583" 
d="M40 0l149 700h51l-139 -653h399l-10 -47h-450z" />
    <glyph glyph-name="M" unicode="M" horiz-adv-x="827" 
d="M40 0l149 700h74l132 -543l360 543h79l-149 -700h-48l137 647l-401 -597l-147 600l-138 -650h-48z" />
    <glyph glyph-name="N" unicode="N" horiz-adv-x="712" 
d="M40 0l149 700h57l294 -626l131 626h48l-149 -700h-47l-301 639l-134 -639h-48z" />
    <glyph glyph-name="O" unicode="O" horiz-adv-x="793" 
d="M382 -11q-65 0 -120.5 24.5t-96.5 68t-63.5 102t-22.5 126.5q0 83 30.5 155.5t83.5 128t121.5 86.5t143.5 31q65 0 120.5 -24.5t96.5 -68t63.5 -102t22.5 -126.5q0 -83 -30.5 -155.5t-83.5 -128t-121.5 -86.5t-143.5 -31zM387 37q66 0 124.5 28.5t103 78t70 113
t25.5 134.5q0 74 -31.5 136t-89 99t-136.5 37q-66 0 -124.5 -28.5t-103 -78t-70 -113t-25.5 -134.5q0 -74 31.5 -136t89.5 -99t136 -37z" />
    <glyph glyph-name="P" unicode="P" horiz-adv-x="626" 
d="M39 0l149 700h253q59 0 101 -20.5t65 -59.5t23 -93q0 -67 -30.5 -119t-84.5 -81.5t-124 -29.5h-238l-63 -297h-51zM163 344h228q56 0 98 23t66 64t24 94q0 60 -38 94t-106 34h-206z" />
    <glyph glyph-name="Q" unicode="Q" horiz-adv-x="792" 
d="M606 -20l-39 62q-42 -25 -88.5 -39t-96.5 -14q-65 0 -120.5 24.5t-96.5 68t-63.5 102t-22.5 126.5q0 83 30.5 155.5t83.5 128t121.5 86.5t143.5 31q65 0 120.5 -24.5t96.5 -68t63.5 -102t22.5 -126.5q0 -99 -43.5 -183.5t-114.5 -139.5l53 -83zM387 37q42 0 81 11.5
t73 33.5l-82 130l49 4l69 -109q60 50 96.5 124.5t36.5 159.5q0 74 -31.5 136t-89 99t-136.5 37q-66 0 -124.5 -28.5t-103 -78t-70 -113t-25.5 -134.5q0 -74 31.5 -136t89.5 -99t136 -37z" />
    <glyph glyph-name="R" unicode="R" horiz-adv-x="619" 
d="M39 0l149 700h252q58 0 100 -20.5t65 -59t23 -91.5q0 -57 -24 -103t-67.5 -76t-100.5 -39l87 -311h-51l-86 308h-230l-66 -308h-51zM166 355h224q55 0 97 22t66 61t24 89q0 59 -38.5 92.5t-105.5 33.5h-204z" />
    <glyph glyph-name="S" unicode="S" horiz-adv-x="604" 
d="M306 -11q-77 0 -154.5 37t-129.5 110l37 35q44 -67 112 -100.5t136 -33.5q58 0 102.5 20t70 55.5t25.5 81.5q0 50 -33.5 81t-113.5 51l-98 25q-79 20 -120 63t-41 107q0 58 29.5 100.5t82.5 66t123 23.5q75 0 144.5 -28.5t127.5 -83.5l-34 -38q-49 48 -112 75t-128 27
q-82 0 -132 -38t-50 -100q0 -48 30.5 -78.5t94.5 -47.5l98 -25q95 -24 139 -66.5t44 -109.5q0 -61 -32 -108t-88.5 -74t-129.5 -27z" />
    <glyph glyph-name="T" unicode="T" horiz-adv-x="592" 
d="M219 0l139 653h-240l10 47h531l-10 -47h-240l-139 -653h-51z" />
    <glyph glyph-name="U" unicode="U" horiz-adv-x="688" 
d="M315 -11q-85 0 -142.5 40t-80 110.5t-3.5 159.5l86 401h51l-88 -411q-16 -75 1 -131.5t61.5 -88.5t113.5 -32q96 0 162.5 62.5t93.5 189.5l88 411h51l-90 -421q-20 -95 -63 -160t-104 -97.5t-137 -32.5z" />
    <glyph glyph-name="V" unicode="V" horiz-adv-x="626" 
d="M233 0l-124 700h50l112 -655l386 655h56l-416 -700h-64z" />
    <glyph glyph-name="W" unicode="W" horiz-adv-x="857" 
d="M160 0l-18 700h50l15 -607l293 607h51l35 -612l273 612h52l-316 -700h-49l-35 626l-302 -626h-49z" />
    <glyph glyph-name="X" unicode="X" horiz-adv-x="615" 
d="M-41 0l347 368l-172 332h55l153 -297l280 297h65l-321 -339l187 -361h-55l-168 326l-307 -326h-64z" />
    <glyph glyph-name="Y" unicode="Y" horiz-adv-x="609" 
d="M227 0l62 291l-176 409h54l154 -364l309 364h62l-353 -412l-61 -288h-51z" />
    <glyph glyph-name="Z" unicode="Z" horiz-adv-x="588" 
d="M-12 0l8 39l565 614h-432l10 47h503l-8 -39l-565 -614h444l-10 -47h-515z" />
    <glyph glyph-name="bracketleft" unicode="[" horiz-adv-x="338" 
d="M-29 -215l195 915h220l-9 -43h-171l-177 -829h171l-9 -43h-220z" />
    <glyph glyph-name="backslash" unicode="\" horiz-adv-x="384" 
d="M315 -209l-200 909h48l200 -909h-48z" />
    <glyph glyph-name="bracketright" unicode="]" horiz-adv-x="338" 
d="M386 700l-195 -915h-220l9 43h171l177 829h-171l9 43h220z" />
    <glyph glyph-name="asciicircum" unicode="^" 
d="M146 350l253 350h45l102 -350h-46l-87 296l-214 -296h-53z" />
    <glyph glyph-name="underscore" unicode="_" horiz-adv-x="443" 
d="M-78 -123l9 43h445l-9 -43h-445z" />
    <glyph glyph-name="grave" unicode="`" 
d="M362 579l-130 116h75l103 -116h-48z" />
    <glyph glyph-name="a" unicode="a" horiz-adv-x="502" 
d="M197 -10q-72 0 -117 39t-45 101q0 45 23 79t64 53.5t93 19.5q51 0 95 -13.5t73 -40.5l15 68q16 72 -10 111.5t-104 39.5q-31 0 -65 -9.5t-78 -29.5l-18 40q47 22 87 31.5t77 9.5q58 0 99 -20t58.5 -61t3.5 -103l-68 -305h-48l10 46q-33 -27 -69 -41.5t-76 -14.5zM206 32
q42 0 77.5 15.5t68.5 43.5l22 98q-29 26 -66 38.5t-89 12.5q-58 0 -97.5 -30t-39.5 -75q0 -46 31 -74.5t93 -28.5z" />
    <glyph glyph-name="b" unicode="b" horiz-adv-x="555" 
d="M253 -9q-49 0 -91.5 20.5t-69.5 63.5l-17 -75h-48l152 725l51 12l-64 -310q31 30 66.5 44t75.5 14q56 0 100 -28t69.5 -77t25.5 -112q0 -57 -19.5 -107t-54 -88t-79.5 -60t-97 -22zM248 36q57 0 104 30.5t74.5 82t27.5 115.5q0 80 -44.5 128.5t-115.5 48.5
q-38 0 -73.5 -15t-63.5 -42l-54 -261q18 -38 58 -62.5t87 -24.5z" />
    <glyph glyph-name="c" unicode="c" horiz-adv-x="489" 
d="M258 -11q-56 0 -102.5 26.5t-74 74.5t-27.5 110q0 59 20 111.5t55.5 92.5t81.5 62.5t98 22.5q54 0 99.5 -24.5t76.5 -68.5l-35 -31q-25 36 -61 57t-81 21q-56 0 -102.5 -33.5t-74.5 -88.5t-28 -122q0 -49 22 -86t58.5 -57.5t79.5 -20.5q35 0 71 14t68 39l27 -38
q-37 -29 -81.5 -45t-89.5 -16z" />
    <glyph glyph-name="d" unicode="d" horiz-adv-x="555" 
d="M250 -8q-56 0 -100 28t-69.5 77t-25.5 112q0 57 19.5 107.5t54 88.5t79.5 60t97 22q47 0 88.5 -19.5t69.5 -60.5l66 318l51 12l-154 -737h-49l10 45q-30 -27 -64.5 -40t-72.5 -13zM264 36q75 0 132 52l57 271q-19 37 -58 59.5t-85 22.5q-57 0 -103.5 -30.5t-74.5 -82
t-28 -115.5q0 -79 45 -128t115 -49z" />
    <glyph glyph-name="e" unicode="e" horiz-adv-x="536" 
d="M260 -10q-59 0 -105.5 27.5t-73 75.5t-26.5 108q0 59 20 111t56 92t82.5 62.5t98.5 22.5q53 0 93 -25t63 -68.5t23 -100.5q0 -16 -1 -31.5t-3 -32.5h-381q-7 -56 11 -100.5t55.5 -69.5t88.5 -25q32 0 67.5 11.5t69.5 33.5l26 -38q-40 -26 -81.5 -39.5t-82.5 -13.5z
M114 272h328q5 48 -10.5 87t-46.5 61.5t-76 22.5q-44 0 -83.5 -22t-68.5 -60.5t-43 -88.5z" />
    <glyph glyph-name="f" unicode="f" horiz-adv-x="339" 
d="M82 0l93 438h-104l9 43h104l27 126q14 67 48.5 98.5t92.5 31.5q20 0 38 -3t35 -10l-9 -47q-32 14 -64 14q-41 0 -62 -21t-31 -67l-26 -122h141l-9 -43h-141l-93 -438h-49z" />
    <glyph glyph-name="g" unicode="g" horiz-adv-x="561" 
d="M237 -219q-52 0 -109.5 18.5t-96.5 51.5l31 40q84 -63 172 -63q55 0 94 33.5t49 91.5l19 100q-31 -31 -68 -46t-78 -15q-56 0 -100 28t-69.5 77t-25.5 112q0 57 19.5 107.5t54 88.5t79.5 60t97 22q51 0 95 -22t70 -69l18 85h48l-113 -540q-16 -77 -64.5 -118.5
t-121.5 -41.5zM264 36q40 0 77 16.5t65 45.5l53 247q-16 42 -57.5 69t-91.5 27q-57 0 -103.5 -30.5t-74.5 -82t-28 -115.5q0 -79 45 -128t115 -49z" />
    <glyph glyph-name="h" unicode="h" horiz-adv-x="525" 
d="M27 0l152 725l51 12l-69 -329q33 40 71 60.5t83 20.5q54 0 91.5 -25t53.5 -69.5t3 -104.5l-63 -290h-49l62 282q17 74 -14.5 118.5t-96.5 44.5q-43 0 -82 -21t-68 -61l-76 -363h-49z" />
    <glyph glyph-name="i" unicode="i" horiz-adv-x="204" 
d="M184 607q-17 0 -29 12.5t-12 30.5q0 14 6.5 25.5t18 18t25.5 6.5q17 0 29 -12.5t12 -30.5q0 -21 -14.5 -35.5t-35.5 -14.5zM26 0l103 481h49l-103 -481h-49z" />
    <glyph glyph-name="j" unicode="j" horiz-adv-x="204" 
d="M184 607q-17 0 -29 12t-12 31q0 13 7 24.5t18.5 18.5t24.5 7q17 0 29 -12t12 -31t-15 -34.5t-35 -15.5zM-71 -219q-10 0 -21 1.5t-20 4.5l10 47q9 -4 18.5 -5.5t18.5 -1.5q29 0 45.5 16t23.5 52l125 586h49l-127 -591q-12 -57 -40 -83t-82 -26z" />
    <glyph glyph-name="k" unicode="k" horiz-adv-x="451" 
d="M27 0l152 725l51 12l-98 -470l286 214h72l-315 -232l212 -249h-59l-202 238l-50 -238h-49z" />
    <glyph glyph-name="l" unicode="l" horiz-adv-x="204" 
d="M27 0l152 725l51 12l-154 -737h-49z" />
    <glyph glyph-name="m" unicode="m" horiz-adv-x="811" 
d="M27 0l103 481h49l-15 -71q32 38 68.5 58.5t78.5 20.5q51 0 86 -26t48 -71q82 97 173 97q49 0 83 -24t48 -67t2 -99l-65 -299h-49l64 295q14 65 -13 107.5t-84 42.5q-43 0 -80.5 -23.5t-72.5 -67.5q1 -13 -0.5 -27t-4.5 -28l-65 -299h-49l62 286q16 72 -12 115.5t-84 43.5
q-86 0 -144 -83l-78 -362h-49z" />
    <glyph glyph-name="n" unicode="n" horiz-adv-x="525" 
d="M27 0l103 481h49l-15 -69q32 38 69.5 57.5t81.5 19.5q54 0 91 -25t53 -69.5t3 -104.5l-62 -290h-49l61 282q16 74 -14.5 118.5t-95.5 44.5q-43 0 -81.5 -20.5t-66.5 -58.5l-78 -366h-49z" />
    <glyph glyph-name="o" unicode="o" horiz-adv-x="560" 
d="M246 -11q-55 0 -98.5 26.5t-68.5 74.5t-25 110q0 53 19 104.5t53.5 93t82 66.5t105.5 25q56 0 99 -26.5t68 -74t25 -110.5q0 -53 -19 -104.5t-53.5 -93t-82 -66.5t-105.5 -25zM248 35q55 0 102.5 32.5t77 88t29.5 123.5q0 74 -40 119t-105 45q-54 0 -102 -32.5
t-77.5 -87.5t-29.5 -124q0 -73 40 -118.5t105 -45.5z" />
    <glyph glyph-name="p" unicode="p" horiz-adv-x="555" 
d="M-16 -209l148 690h48l-11 -49q61 55 139 55q57 0 101 -28t69 -77.5t25 -112.5q0 -57 -19.5 -107t-54 -88.5t-80 -60t-96.5 -21.5q-52 0 -92.5 21t-66.5 61l-61 -283h-49zM294 441q-77 0 -133 -53l-57 -266q19 -37 58.5 -60.5t85.5 -23.5q58 0 104.5 30.5t74 82
t27.5 114.5q0 78 -44.5 127t-115.5 49z" />
    <glyph glyph-name="q" unicode="q" horiz-adv-x="555" 
d="M334 -209l54 255q-30 -28 -64.5 -41t-73.5 -13q-56 0 -100 28t-69.5 77t-25.5 112q0 57 19.5 107.5t54 88.5t79.5 60t97 22q48 0 90 -20t70 -63l17 77h49l-148 -690h-49zM264 36q37 0 71.5 14.5t62.5 39.5l56 265q-19 38 -58 62t-86 24q-57 0 -103.5 -30.5t-74.5 -82
t-28 -115.5q0 -79 45 -128t115 -49z" />
    <glyph glyph-name="r" unicode="r" horiz-adv-x="320" 
d="M25 0l105 481h49l-18 -83q27 44 64 67.5t80 23.5q30 0 49 -7l-10 -46q-13 5 -26 7t-25 2q-41 0 -78 -26t-66 -74l-75 -345h-49z" />
    <glyph glyph-name="s" unicode="s" horiz-adv-x="427" 
d="M194 -10q-52 0 -99.5 20t-85.5 60l33 32q41 -37 77 -52.5t76 -15.5q56 0 94 29.5t38 72.5q0 29 -19 46.5t-64 30.5l-70 20q-55 16 -81.5 45.5t-26.5 76.5q0 59 45.5 96.5t116.5 37.5q47 0 93.5 -19t88.5 -54l-30 -36q-43 35 -80 50t-73 15q-51 0 -82.5 -25t-31.5 -63
q0 -31 17 -49.5t56 -29.5l71 -21q62 -19 89.5 -46t27.5 -71q0 -43 -23 -77t-63.5 -53.5t-93.5 -19.5z" />
    <glyph glyph-name="t" unicode="t" horiz-adv-x="345" 
d="M200 -10q-61 0 -86 35t-14 89l69 324h-98l9 43h98l28 131l52 13l-31 -144h139l-9 -43h-139l-68 -321q-9 -43 6 -62t62 -19q13 0 25 2.5t30 7.5l-10 -46q-16 -5 -31.5 -7.5t-31.5 -2.5z" />
    <glyph glyph-name="u" unicode="u" horiz-adv-x="524" 
d="M211 -8q-53 0 -91 25t-54 70t-3 104l63 290h49l-62 -282q-16 -74 15 -118.5t96 -44.5q41 0 78.5 19.5t66.5 55.5l79 370h49l-103 -481h-49l14 66q-31 -36 -67.5 -55t-80.5 -19z" />
    <glyph glyph-name="v" unicode="v" horiz-adv-x="467" 
d="M154 0l-86 481h50l74 -414l252 414h57l-301 -481h-46z" />
    <glyph glyph-name="w" unicode="w" horiz-adv-x="662" 
d="M107 0l-26 481h47l19 -409l210 409h46l33 -411l196 411h50l-234 -481h-48l-32 414l-212 -414h-49z" />
    <glyph glyph-name="x" unicode="x" horiz-adv-x="451" 
d="M-37 0l241 254l-119 227h55l98 -194l183 194h61l-223 -235l127 -246h-55l-107 213l-200 -213h-61z" />
    <glyph glyph-name="y" unicode="y" horiz-adv-x="467" 
d="M6 -219q-8 0 -18.5 2t-27.5 7l9 45q12 -4 22 -6t17 -2q26 0 48 15.5t41 47.5l62 106l-87 485h52l73 -419l248 419h57l-361 -610q-28 -49 -59.5 -69.5t-75.5 -20.5z" />
    <glyph glyph-name="z" unicode="z" horiz-adv-x="436" 
d="M-10 0l9 43l369 392h-280l10 46h345l-9 -43l-369 -392h285l-10 -46h-350z" />
    <glyph glyph-name="braceleft" unicode="{" horiz-adv-x="370" 
d="M168 -219q-61 0 -89 29.5t-25 76t36 97.5l63 99q24 37 26 68.5t-14.5 51t-51.5 19.5h-72l9 47h73q52 0 81 37.5t18 100.5l-19 116q-9 54 5 96.5t47.5 67t80.5 24.5q20 0 40.5 -5.5t38.5 -14.5l-21 -40q-14 7 -29.5 11t-31.5 4q-38 0 -65 -30t-18 -95l20 -142
q6 -42 -7 -74t-38 -53t-55 -29q38 -18 52.5 -60.5t-20.5 -99.5l-75 -124q-34 -56 -22 -95t69 -39q12 0 23 2t24 6l3 -43q-15 -4 -28.5 -6.5t-27.5 -2.5z" />
    <glyph glyph-name="bar" unicode="|" horiz-adv-x="268" 
d="M16 -209l193 909h46l-193 -909h-46z" />
    <glyph glyph-name="braceright" unicode="}" horiz-adv-x="370" 
d="M197 705q62 0 89.5 -29.5t24.5 -76t-36 -97.5l-63 -99q-23 -37 -25.5 -68.5t14.5 -51t51 -19.5h72l-9 -47h-73q-52 0 -80.5 -37.5t-18.5 -100.5l19 -116q9 -53 -5 -96t-47 -67.5t-81 -24.5q-19 0 -40 5.5t-39 14.5l21 40q14 -7 29.5 -11t31.5 -4q38 0 65 30t18 95
l-20 142q-6 42 7 74t38 53t55 29v0q-25 12 -40.5 35t-15 55t23.5 70l75 124q34 56 22 95t-69 39q-12 0 -23 -2t-24 -6l-3 43q15 4 28.5 6.5t27.5 2.5z" />
    <glyph glyph-name="asciitilde" unicode="~" 
d="M152 307l-41 5q13 65 50.5 101t83.5 36q18 0 39 -7t47 -23l65 -39q20 -12 36 -17.5t29 -5.5q31 0 56.5 23.5t35.5 71.5l41 -6q-12 -65 -48.5 -100.5t-83.5 -35.5q-19 0 -41.5 7t-47.5 22l-63 39q-23 14 -39.5 19t-29.5 5q-30 0 -53.5 -23.5t-35.5 -71.5z" />
    <glyph glyph-name="uni00A0" unicode="&#xa0;" horiz-adv-x="238" 
 />
    <glyph glyph-name="exclamdown" unicode="&#xa1;" horiz-adv-x="201" 
d="M133 293l-105 -511h-53l117 511h41zM153 500q17 0 28 -12t11 -29q0 -22 -16 -37t-39 -15q-16 0 -27.5 12t-11.5 29q0 15 7.5 26.5t20 18.5t27.5 7z" />
    <glyph glyph-name="cent" unicode="&#xa2;" horiz-adv-x="505" 
d="M181 -120l25 118q-66 17 -109 71.5t-43 133.5q0 60 20 112t55.5 92t82 62.5t99.5 22.5l24 113h44l-25 -118q40 -8 73 -30.5t58 -57.5l-35 -31q-20 29 -46.5 48t-59.5 26l-85 -404q38 0 74.5 14t68.5 39l27 -38q-39 -31 -83.5 -46t-96.5 -15l-24 -112h-44zM216 45l85 401
q-54 -2 -99 -36t-72 -88.5t-27 -119.5q0 -60 32.5 -101.5t80.5 -55.5z" />
    <glyph glyph-name="sterling" unicode="&#xa3;" horiz-adv-x="593" 
d="M-4 -25l-32 29q51 77 134 83q60 15 66 103l6 104h-101l10 44h94l7 122q5 80 30.5 136t70 85.5t104.5 29.5q90 0 140.5 -49.5t54.5 -142.5l-47 -8q-2 76 -40 115t-109 39q-70 0 -110 -53t-46 -154l-7 -120h203l-10 -44h-195l-6 -98q-5 -82 -50 -114q8 -1 15.5 -3.5
t15.5 -4.5l120 -35q73 -22 115 -14t73 48l34 -31q-31 -35 -63.5 -51t-73 -15t-96.5 17l-119 36q-67 20 -109.5 8t-78.5 -62z" />
    <glyph glyph-name="currency" unicode="&#xa4;" horiz-adv-x="638" 
d="M85 69l-29 31l94 95q-27 33 -42 74.5t-15 90.5t15 90.5t42 74.5l-94 95l29 31l93 -94q33 29 75 45t89 16t89 -16t75 -45l93 94l29 -31l-94 -95q27 -33 42 -74.5t15 -90.5t-15 -90.5t-42 -74.5l94 -95l-29 -31l-93 94q-33 -28 -75 -44.5t-89 -16.5t-89 16.5t-75 44.5z
M342 150q56 0 100.5 28t70.5 75.5t26 106.5t-26 106.5t-70.5 75.5t-100.5 28q-55 0 -100 -28t-71 -75.5t-26 -106.5t26 -106.5t71 -75.5t100 -28z" />
    <glyph glyph-name="yen" unicode="&#xa5;" horiz-adv-x="609" 
d="M227 0l29 138h-177l9 44h178l18 84h-178l9 44h166l-168 390h54l154 -364l309 364h62l-334 -390h163l-9 -44h-178l-17 -84h177l-9 -44h-178l-29 -138h-51z" />
    <glyph glyph-name="brokenbar" unicode="&#xa6;" horiz-adv-x="270" 
d="M121 288l88 412h46l-88 -412h-46zM16 -209l88 412h46l-88 -412h-46z" />
    <glyph glyph-name="section" unicode="&#xa7;" horiz-adv-x="551" 
d="M246 -49q-46 0 -92 17t-84 47l28 38q77 -56 154 -56q47 0 74 23.5t27 63.5q0 55 -58 84l-95 47q-54 27 -77 57.5t-23 73.5q0 53 37.5 86t104.5 41q-51 39 -51 99q0 42 19.5 73t54 48.5t80.5 17.5q43 0 89.5 -17t84.5 -47l-27 -38q-38 28 -76.5 42t-76.5 14q-46 0 -74 -24
t-28 -64q0 -52 59 -82l95 -47q53 -26 76.5 -57t23.5 -75q0 -53 -37 -87t-104 -43q49 -37 49 -96q0 -41 -19 -72.5t-53.5 -49t-80.5 -17.5zM302 214q68 4 105.5 30t37.5 72q0 57 -74 92l-75 36q-72 -2 -111 -27.5t-39 -69.5q0 -53 74 -91z" />
    <glyph glyph-name="dieresis" unicode="&#xa8;" 
d="M286 607q-17 0 -29 12.5t-12 30.5q0 21 14.5 35.5t35.5 14.5q17 0 29 -12.5t12 -30.5q0 -21 -14.5 -35.5t-35.5 -14.5zM480 607q-17 0 -29 12.5t-12 30.5q0 21 14.5 35.5t35.5 14.5q17 0 29 -12.5t12 -30.5q0 -21 -14.5 -35.5t-35.5 -14.5z" />
    <glyph glyph-name="copyright" unicode="&#xa9;" horiz-adv-x="790" 
d="M409 167q-45 0 -79 22.5t-53 59.5t-19 82q0 57 26.5 102.5t69 72.5t91.5 27q40 0 76.5 -19.5t58.5 -52.5l-31 -26q-16 26 -44.5 42t-60.5 16q-39 0 -72 -22.5t-53 -59.5t-20 -80q0 -58 33.5 -91t79.5 -33q48 0 97 38l19 -36q-27 -20 -57.5 -31t-61.5 -11zM392 -11
q-67 0 -124 24t-99.5 68t-66.5 103t-24 129q0 83 29.5 155.5t81 127t118 85t139.5 30.5q67 0 124 -24t99.5 -68t66.5 -103t24 -129q0 -83 -29.5 -155.5t-81 -127t-118 -85t-139.5 -30.5zM392 26q67 0 126 28.5t104.5 78.5t71.5 114.5t26 136.5q0 83 -35.5 148.5t-97.5 103.5
t-141 38q-67 0 -126 -28.5t-104.5 -78.5t-71.5 -114.5t-26 -136.5q0 -82 35.5 -148t97.5 -104t141 -38z" />
    <glyph glyph-name="ordfeminine" unicode="&#xaa;" horiz-adv-x="389" 
d="M210 327q-58 0 -95 28.5t-37 74.5q0 54 43 87t113 33q72 0 122 -43l14 64q11 49 -14 75t-81 26q-26 0 -51 -6t-61 -21l-13 37q41 17 69.5 23t57.5 6q75 0 112 -36.5t24 -98.5l-52 -245h-43l8 35q-54 -39 -116 -39zM219 363q66 0 114 38l16 72q-45 43 -117 43
q-51 0 -81 -23t-30 -61q0 -32 26 -50.5t72 -18.5z" />
    <glyph glyph-name="guillemotleft" unicode="&#xab;" horiz-adv-x="585" 
d="M218 0l-169 241l262 240h63l-265 -245l162 -236h-53zM424 0l-169 241l262 240h63l-265 -245l162 -236h-53z" />
    <glyph glyph-name="logicalnot" unicode="&#xac;" 
d="M443 0l55 258h-390l9 45h439l-64 -303h-49z" />
    <glyph glyph-name="registered" unicode="&#xae;" horiz-adv-x="486" 
d="M282 313q-49 0 -87 23t-59 63t-21 91q0 46 16 86t44.5 70.5t65.5 47.5t79 17q50 0 87.5 -23t58.5 -62.5t21 -90.5q0 -46 -16 -86.5t-44.5 -71t-65.5 -47.5t-79 -17zM283 343q47 0 86.5 26t63 69.5t23.5 96.5q0 66 -37.5 106t-99.5 40q-47 0 -86.5 -26t-63 -69t-23.5 -96
q0 -67 37.5 -107t99.5 -40zM219 419l40 188h61q26 0 39.5 -13.5t13.5 -39.5q0 -19 -12 -35.5t-32 -24.5l26 -75h-30l-26 72h-37l-15 -72h-28zM268 515h40q17 0 26.5 10t9.5 27q0 30 -29 30h-32z" />
    <glyph glyph-name="macron" unicode="&#xaf;" 
d="M252 607l8 40h253l-8 -40h-253z" />
    <glyph glyph-name="degree" unicode="&#xb0;" horiz-adv-x="399" 
d="M257 431q-36 0 -65 17.5t-45.5 46.5t-16.5 63q0 41 21 76t56 56t76 21q37 0 65.5 -17.5t45 -46.5t16.5 -63q0 -41 -21 -76t-55.5 -56t-76.5 -21zM259 471q29 0 54 15t40.5 40.5t15.5 54.5q0 38 -25.5 64t-62.5 26q-28 0 -53.5 -15t-41 -40t-15.5 -55q0 -38 25.5 -64
t62.5 -26z" />
    <glyph glyph-name="plusminus" unicode="&#xb1;" horiz-adv-x="599" 
d="M59 -1l10 45h381l-10 -45h-381zM263 165l39 182h-169l10 45h168l39 182h45l-39 -182h168l-10 -45h-167l-39 -182h-45z" />
    <glyph glyph-name="uni00B2" unicode="&#xb2;" horiz-adv-x="280" 
d="M49 350l6 30l182 145q28 23 41.5 43.5t13.5 42.5q0 27 -19 43t-51 16q-23 0 -45 -9.5t-51 -29.5l-21 30q65 44 121 44q44 0 74.5 -24.5t30.5 -62.5q0 -32 -16.5 -58t-54.5 -56l-150 -119h179l-7 -35h-233z" />
    <glyph glyph-name="uni00B3" unicode="&#xb3;" horiz-adv-x="300" 
d="M185 345q-40 0 -71 12.5t-57 39.5l24 29q44 -46 103 -46q38 0 65 19t27 49q0 27 -21.5 44.5t-57.5 17.5h-28l6 31h27q41 0 68.5 20t27.5 49q0 26 -20.5 43t-52.5 17q-20 0 -43 -7.5t-55 -25.5l-18 31q59 37 118 37q47 0 78.5 -26t31.5 -64q0 -33 -25 -58t-67 -33
q32 -8 51 -30t19 -51q0 -28 -16.5 -50t-46 -35t-67.5 -13z" />
    <glyph glyph-name="acute" unicode="&#xb4;" 
d="M332 579l126 116h76l-152 -116h-50z" />
    <glyph glyph-name="uni00B5" unicode="&#xb5;" horiz-adv-x="530" 
d="M-16 -209l146 690h49l-63 -297q-14 -67 19 -107.5t95 -40.5q41 0 78.5 19.5t66.5 55.5l79 370h49l-103 -481h-49l14 66q-31 -36 -67.5 -55t-80.5 -19q-43 0 -75.5 17t-52.5 47l-56 -265h-49z" />
    <glyph glyph-name="paragraph" unicode="&#xb6;" horiz-adv-x="621" 
d="M257 0l64 302h-22q-63 0 -107 22t-67 61.5t-23 91.5q0 66 27.5 116t80.5 78.5t129 28.5h289l-149 -700h-51l64 302h-120l-64 -302h-51zM382 349h120l65 304h-120zM286 349h45l65 304h-72q-51 0 -89.5 -22t-60 -60.5t-21.5 -89.5q0 -61 35.5 -96.5t97.5 -35.5z" />
    <glyph glyph-name="periodcentered" unicode="&#xb7;" horiz-adv-x="250" 
d="M128 237q-16 0 -27.5 12t-11.5 29q0 15 7.5 26.5t20 18.5t27.5 7q17 0 28 -12t11 -29q0 -14 -7.5 -26t-20 -19t-27.5 -7z" />
    <glyph glyph-name="cedilla" unicode="&#xb8;" 
d="M206 -235q-34 0 -59.5 12t-39.5 28l24 24q30 -33 73 -33q38 0 57.5 17.5t19.5 42.5q0 23 -18.5 35.5t-49.5 12.5h-24l43 96h33l-30 -68q40 -3 60.5 -22t20.5 -48q0 -28 -14.5 -50t-39.5 -34.5t-56 -12.5z" />
    <glyph glyph-name="uni00B9" unicode="&#xb9;" horiz-adv-x="151" 
d="M103 350l65 308l-64 -26l8 36l78 32h25l-74 -350h-38z" />
    <glyph glyph-name="ordmasculine" unicode="&#xba;" horiz-adv-x="448" 
d="M266 323q-49 0 -88 22.5t-61.5 61t-22.5 87.5q0 59 28.5 108t75 79t101.5 30q49 0 88 -22.5t62 -61t23 -87.5q0 -58 -28.5 -107.5t-75.5 -79.5t-102 -30zM266 364q48 0 84 25.5t56 64.5t20 81q0 58 -35.5 96.5t-90.5 38.5q-48 0 -84 -25t-56 -64.5t-20 -81.5
q0 -58 35.5 -96.5t90.5 -38.5z" />
    <glyph glyph-name="guillemotright" unicode="&#xbb;" horiz-adv-x="584" 
d="M381 481l169 -241l-262 -240h-63l265 245l-162 236h53zM175 481l169 -241l-262 -240h-63l265 245l-162 236h53z" />
    <glyph glyph-name="onequarter" unicode="&#xbc;" horiz-adv-x="580" 
d="M425 0l20 92h-194l5 31l240 227h43l-48 -224h42l-8 -34h-41l-20 -92h-39zM306 126h146l37 173zM103 350l65 308l-64 -26l8 36l78 32h25l-74 -350h-38zM-14 0l544 700h48l-544 -700h-48z" />
    <glyph glyph-name="onehalf" unicode="&#xbd;" horiz-adv-x="616" 
d="M103 350l65 308l-64 -26l8 36l78 32h25l-74 -350h-38zM-21 0l544 700h48l-544 -700h-48zM306 0l6 30l182 145q28 23 41.5 43.5t13.5 42.5q0 27 -19 43t-51 16q-23 0 -45 -9.5t-51 -29.5l-21 30q65 44 121 44q44 0 74.5 -24.5t30.5 -62.5q0 -32 -16.5 -58t-54.5 -56
l-150 -119h179l-7 -35h-233z" />
    <glyph glyph-name="threequarters" unicode="&#xbe;" horiz-adv-x="674" 
d="M185 345q-40 0 -71 12.5t-57 39.5l24 29q44 -46 103 -46q38 0 65 19t27 49q0 27 -21.5 44.5t-57.5 17.5h-28l6 31h27q41 0 68.5 20t27.5 49q0 26 -20.5 43t-52.5 17q-20 0 -43 -7.5t-55 -25.5l-18 31q59 37 118 37q47 0 78.5 -26t31.5 -64q0 -33 -25 -58t-67 -33
q32 -8 51 -30t19 -51q0 -28 -16.5 -50t-46 -35t-67.5 -13zM519 0l20 92h-194l5 31l240 227h43l-48 -224h42l-8 -34h-41l-20 -92h-39zM400 126h146l37 173zM79 0l544 700h48l-544 -700h-48z" />
    <glyph glyph-name="questiondown" unicode="&#xbf;" horiz-adv-x="494" 
d="M311 500q17 0 28 -12t11 -29q0 -22 -16 -37t-39 -15q-16 0 -27.5 12t-11.5 29q0 15 7.5 26.5t20 18.5t27.5 7zM294 291q0 -58 -28.5 -102t-90.5 -78l-62 -36q-44 -26 -68 -62t-24 -74q0 -47 37.5 -78.5t96.5 -31.5q45 0 89.5 22.5t86.5 61.5l31 -40q-49 -44 -102.5 -68
t-106.5 -24t-94 20.5t-64 56t-23 80.5q0 54 28 94.5t89 77.5l68 40q48 29 70.5 63t22.5 78h44z" />
    <glyph glyph-name="Agrave" unicode="&#xc0;" horiz-adv-x="626" 
d="M-40 0l417 700h64l123 -700h-51l-40 234h-317l-138 -234h-58zM180 276h286l-64 377zM415 798l-130 116h75l103 -116h-48z" />
    <glyph glyph-name="Aacute" unicode="&#xc1;" horiz-adv-x="626" 
d="M-40 0l417 700h64l123 -700h-51l-40 234h-317l-138 -234h-58zM180 276h286l-64 377zM385 798l126 116h76l-152 -116h-50z" />
    <glyph glyph-name="Acircumflex" unicode="&#xc2;" horiz-adv-x="626" 
d="M-40 0l417 700h64l123 -700h-51l-40 234h-317l-138 -234h-58zM180 276h286l-64 377zM287 793l132 121h57l84 -121h-40l-77 89l-113 -89h-43z" />
    <glyph glyph-name="Atilde" unicode="&#xc3;" horiz-adv-x="626" 
d="M-40 0l417 700h64l123 -700h-51l-40 234h-317l-138 -234h-58zM180 276h286l-64 377zM311 801l-39 13q20 45 45.5 64.5t52.5 19.5q21 0 39 -9t34 -21t31 -21t30 -9q17 0 29 12t27 46l39 -11q-20 -46 -44 -66t-50 -20q-21 0 -39 9t-34 20.5t-31 20.5t-30 9q-18 0 -32 -13
t-28 -44z" />
    <glyph glyph-name="Adieresis" unicode="&#xc4;" horiz-adv-x="626" 
d="M-40 0l417 700h64l123 -700h-51l-40 234h-317l-138 -234h-58zM180 276h286l-64 377zM339 826q-17 0 -29 12.5t-12 30.5q0 21 14.5 35.5t35.5 14.5q17 0 29 -12.5t12 -30.5q0 -21 -14.5 -35.5t-35.5 -14.5zM533 826q-17 0 -29 12.5t-12 30.5q0 21 14.5 35.5t35.5 14.5
q17 0 29 -12.5t12 -30.5q0 -21 -14.5 -35.5t-35.5 -14.5z" />
    <glyph glyph-name="Aring" unicode="&#xc5;" horiz-adv-x="626" 
d="M-40 0l417 700h64l123 -700h-51l-40 234h-317l-138 -234h-58zM180 276h286l-64 377zM435 787q-43 0 -69.5 26.5t-26.5 68.5q0 32 16 59t42.5 44t57.5 17q43 0 69.5 -26.5t26.5 -68.5q0 -31 -16 -58.5t-42 -44.5t-58 -17zM436 821q33 0 56.5 25t23.5 59q0 29 -18.5 46
t-43.5 17q-33 0 -56.5 -25t-23.5 -59q0 -29 18.5 -46t43.5 -17z" />
    <glyph glyph-name="AE" unicode="&#xc6;" horiz-adv-x="881" 
d="M-40 0l417 700h554l-10 -47h-469l46 -276h240l-10 -47h-223l47 -283h244l-10 -47h-276l-38 234h-317l-138 -234h-57zM179 276h287l-62 382z" />
    <glyph glyph-name="Ccedilla" unicode="&#xc7;" horiz-adv-x="714" 
d="M344 -235q-34 0 -59.5 12t-39.5 28l24 24q30 -33 73 -33q38 0 57.5 17.5t19.5 42.5q0 23 -18.5 35.5t-49.5 12.5h-24l38 85q-82 5 -147 48t-102 114.5t-37 158.5q0 83 30.5 155.5t83.5 128t121.5 86.5t143.5 31q80 0 147.5 -33t110.5 -95l-40 -28q-37 53 -94.5 80.5
t-128.5 27.5q-66 0 -124.5 -28.5t-103 -78t-70 -113t-25.5 -134.5q0 -74 31.5 -136t89.5 -99t136 -37q65 0 123 20.5t105 63.5l32 -38q-49 -44 -113 -67.5t-136 -26.5l-25 -57q40 -3 60.5 -22t20.5 -48q0 -28 -14.5 -50t-39.5 -34.5t-56 -12.5z" />
    <glyph glyph-name="Egrave" unicode="&#xc8;" horiz-adv-x="594" 
d="M40 0l149 700h455l-10 -47h-404l-59 -276h280l-10 -47h-280l-60 -283h408l-10 -47h-459zM419 798l-130 116h75l103 -116h-48z" />
    <glyph glyph-name="Eacute" unicode="&#xc9;" horiz-adv-x="594" 
d="M40 0l149 700h455l-10 -47h-404l-59 -276h280l-10 -47h-280l-60 -283h408l-10 -47h-459zM389 798l126 116h76l-152 -116h-50z" />
    <glyph glyph-name="Ecircumflex" unicode="&#xca;" horiz-adv-x="594" 
d="M40 0l149 700h455l-10 -47h-404l-59 -276h280l-10 -47h-280l-60 -283h408l-10 -47h-459zM291 793l132 121h57l84 -121h-40l-77 89l-113 -89h-43z" />
    <glyph glyph-name="Edieresis" unicode="&#xcb;" horiz-adv-x="594" 
d="M40 0l149 700h455l-10 -47h-404l-59 -276h280l-10 -47h-280l-60 -283h408l-10 -47h-459zM343 826q-17 0 -29 12.5t-12 30.5q0 21 14.5 35.5t35.5 14.5q17 0 29 -12.5t12 -30.5q0 -21 -14.5 -35.5t-35.5 -14.5zM537 826q-17 0 -29 12.5t-12 30.5q0 21 14.5 35.5t35.5 14.5
q17 0 29 -12.5t12 -30.5q0 -21 -14.5 -35.5t-35.5 -14.5z" />
    <glyph glyph-name="Igrave" unicode="&#xcc;" horiz-adv-x="233" 
d="M40 0l149 700h51l-149 -700h-51zM225 798l-130 116h75l103 -116h-48z" />
    <glyph glyph-name="Iacute" unicode="&#xcd;" horiz-adv-x="233" 
d="M40 0l149 700h51l-149 -700h-51zM195 798l126 116h76l-152 -116h-50z" />
    <glyph glyph-name="Icircumflex" unicode="&#xce;" horiz-adv-x="233" 
d="M40 0l149 700h51l-149 -700h-51zM97 793l132 121h57l84 -121h-40l-77 89l-113 -89h-43z" />
    <glyph glyph-name="Idieresis" unicode="&#xcf;" horiz-adv-x="233" 
d="M40 0l149 700h51l-149 -700h-51zM149 826q-17 0 -29 12.5t-12 30.5q0 21 14.5 35.5t35.5 14.5q17 0 29 -12.5t12 -30.5q0 -21 -14.5 -35.5t-35.5 -14.5zM343 826q-17 0 -29 12.5t-12 30.5q0 21 14.5 35.5t35.5 14.5q17 0 29 -12.5t12 -30.5q0 -21 -14.5 -35.5
t-35.5 -14.5z" />
    <glyph glyph-name="Eth" unicode="&#xd0;" horiz-adv-x="707" 
d="M40 0l70 329h-64l9 44h64l70 327h188q89 0 155.5 -38t104 -107t37.5 -163q0 -82 -28 -153.5t-79.5 -125t-121.5 -83.5t-153 -30h-252zM101 47h200q71 0 130 28t102 76.5t66.5 111t23.5 130.5q0 80 -31 138t-86 90t-128 32h-148l-60 -280h209l-10 -44h-208z" />
    <glyph glyph-name="Ntilde" unicode="&#xd1;" horiz-adv-x="712" 
d="M40 0l149 700h57l294 -626l131 626h48l-149 -700h-47l-301 639l-134 -639h-48zM353 801l-39 13q20 45 45.5 64.5t52.5 19.5q21 0 39 -9t34 -21t31 -21t30 -9q17 0 29 12t27 46l39 -11q-20 -46 -44 -66t-50 -20q-21 0 -39 9t-34 20.5t-31 20.5t-30 9q-18 0 -32 -13
t-28 -44z" />
    <glyph glyph-name="Ograve" unicode="&#xd2;" horiz-adv-x="793" 
d="M382 -11q-65 0 -120.5 24.5t-96.5 68t-63.5 102t-22.5 126.5q0 83 30.5 155.5t83.5 128t121.5 86.5t143.5 31q65 0 120.5 -24.5t96.5 -68t63.5 -102t22.5 -126.5q0 -83 -30.5 -155.5t-83.5 -128t-121.5 -86.5t-143.5 -31zM387 37q66 0 124.5 28.5t103 78t70 113
t25.5 134.5q0 74 -31.5 136t-89 99t-136.5 37q-66 0 -124.5 -28.5t-103 -78t-70 -113t-25.5 -134.5q0 -74 31.5 -136t89.5 -99t136 -37zM460 798l-130 116h75l103 -116h-48z" />
    <glyph glyph-name="Oacute" unicode="&#xd3;" horiz-adv-x="793" 
d="M382 -11q-65 0 -120.5 24.5t-96.5 68t-63.5 102t-22.5 126.5q0 83 30.5 155.5t83.5 128t121.5 86.5t143.5 31q65 0 120.5 -24.5t96.5 -68t63.5 -102t22.5 -126.5q0 -83 -30.5 -155.5t-83.5 -128t-121.5 -86.5t-143.5 -31zM387 37q66 0 124.5 28.5t103 78t70 113
t25.5 134.5q0 74 -31.5 136t-89 99t-136.5 37q-66 0 -124.5 -28.5t-103 -78t-70 -113t-25.5 -134.5q0 -74 31.5 -136t89.5 -99t136 -37zM430 798l126 116h76l-152 -116h-50z" />
    <glyph glyph-name="Ocircumflex" unicode="&#xd4;" horiz-adv-x="793" 
d="M382 -11q-65 0 -120.5 24.5t-96.5 68t-63.5 102t-22.5 126.5q0 83 30.5 155.5t83.5 128t121.5 86.5t143.5 31q65 0 120.5 -24.5t96.5 -68t63.5 -102t22.5 -126.5q0 -83 -30.5 -155.5t-83.5 -128t-121.5 -86.5t-143.5 -31zM387 37q66 0 124.5 28.5t103 78t70 113
t25.5 134.5q0 74 -31.5 136t-89 99t-136.5 37q-66 0 -124.5 -28.5t-103 -78t-70 -113t-25.5 -134.5q0 -74 31.5 -136t89.5 -99t136 -37zM332 793l132 121h57l84 -121h-40l-77 89l-113 -89h-43z" />
    <glyph glyph-name="Otilde" unicode="&#xd5;" horiz-adv-x="793" 
d="M382 -11q-65 0 -120.5 24.5t-96.5 68t-63.5 102t-22.5 126.5q0 83 30.5 155.5t83.5 128t121.5 86.5t143.5 31q65 0 120.5 -24.5t96.5 -68t63.5 -102t22.5 -126.5q0 -83 -30.5 -155.5t-83.5 -128t-121.5 -86.5t-143.5 -31zM387 37q66 0 124.5 28.5t103 78t70 113
t25.5 134.5q0 74 -31.5 136t-89 99t-136.5 37q-66 0 -124.5 -28.5t-103 -78t-70 -113t-25.5 -134.5q0 -74 31.5 -136t89.5 -99t136 -37zM356 801l-39 13q20 45 45.5 64.5t52.5 19.5q21 0 39 -9t34 -21t31 -21t30 -9q17 0 29 12t27 46l39 -11q-20 -46 -44 -66t-50 -20
q-21 0 -39 9t-34 20.5t-31 20.5t-30 9q-18 0 -32 -13t-28 -44z" />
    <glyph glyph-name="Odieresis" unicode="&#xd6;" horiz-adv-x="793" 
d="M382 -11q-65 0 -120.5 24.5t-96.5 68t-63.5 102t-22.5 126.5q0 83 30.5 155.5t83.5 128t121.5 86.5t143.5 31q65 0 120.5 -24.5t96.5 -68t63.5 -102t22.5 -126.5q0 -83 -30.5 -155.5t-83.5 -128t-121.5 -86.5t-143.5 -31zM387 37q66 0 124.5 28.5t103 78t70 113
t25.5 134.5q0 74 -31.5 136t-89 99t-136.5 37q-66 0 -124.5 -28.5t-103 -78t-70 -113t-25.5 -134.5q0 -74 31.5 -136t89.5 -99t136 -37zM384 826q-17 0 -29 12.5t-12 30.5q0 21 14.5 35.5t35.5 14.5q17 0 29 -12.5t12 -30.5q0 -21 -14.5 -35.5t-35.5 -14.5zM578 826
q-17 0 -29 12.5t-12 30.5q0 21 14.5 35.5t35.5 14.5q17 0 29 -12.5t12 -30.5q0 -21 -14.5 -35.5t-35.5 -14.5z" />
    <glyph glyph-name="multiply" unicode="&#xd7;" horiz-adv-x="599" 
d="M163 168l-28 32l183 161l-116 160l34 29l116 -160l182 160l28 -32l-185 -162l115 -159l-34 -29l-115 158z" />
    <glyph glyph-name="Oslash" unicode="&#xd8;" horiz-adv-x="793" 
d="M382 -11q-63 0 -117 23.5t-95 63.5l-78 -76h-63l113 110q-30 41 -46.5 91.5t-16.5 108.5q0 83 30.5 155.5t83.5 128t121.5 86.5t143.5 31q63 0 117.5 -23t94.5 -64l78 76h63l-113 -110q30 -40 46.5 -91t16.5 -109q0 -83 -30.5 -155.5t-83.5 -128t-121.5 -86.5t-143.5 -31
zM178 145l456 444q-33 35 -79 54.5t-102 19.5q-66 0 -124.5 -28.5t-103 -78t-70 -113t-25.5 -134.5q0 -93 48 -164zM387 37q66 0 124.5 28.5t103 78t70 113t25.5 134.5q0 46 -12.5 88t-35.5 76l-456 -444q33 -34 79 -54t102 -20z" />
    <glyph glyph-name="Ugrave" unicode="&#xd9;" horiz-adv-x="688" 
d="M315 -11q-85 0 -142.5 40t-80 110.5t-3.5 159.5l86 401h51l-88 -411q-16 -75 1 -131.5t61.5 -88.5t113.5 -32q96 0 162.5 62.5t93.5 189.5l88 411h51l-90 -421q-20 -95 -63 -160t-104 -97.5t-137 -32.5zM453 798l-130 116h75l103 -116h-48z" />
    <glyph glyph-name="Uacute" unicode="&#xda;" horiz-adv-x="688" 
d="M315 -11q-85 0 -142.5 40t-80 110.5t-3.5 159.5l86 401h51l-88 -411q-16 -75 1 -131.5t61.5 -88.5t113.5 -32q96 0 162.5 62.5t93.5 189.5l88 411h51l-90 -421q-20 -95 -63 -160t-104 -97.5t-137 -32.5zM423 798l126 116h76l-152 -116h-50z" />
    <glyph glyph-name="Ucircumflex" unicode="&#xdb;" horiz-adv-x="688" 
d="M315 -11q-85 0 -142.5 40t-80 110.5t-3.5 159.5l86 401h51l-88 -411q-16 -75 1 -131.5t61.5 -88.5t113.5 -32q96 0 162.5 62.5t93.5 189.5l88 411h51l-90 -421q-20 -95 -63 -160t-104 -97.5t-137 -32.5zM325 793l132 121h57l84 -121h-40l-77 89l-113 -89h-43z" />
    <glyph glyph-name="Udieresis" unicode="&#xdc;" horiz-adv-x="688" 
d="M315 -11q-85 0 -142.5 40t-80 110.5t-3.5 159.5l86 401h51l-88 -411q-16 -75 1 -131.5t61.5 -88.5t113.5 -32q96 0 162.5 62.5t93.5 189.5l88 411h51l-90 -421q-20 -95 -63 -160t-104 -97.5t-137 -32.5zM377 826q-17 0 -29 12.5t-12 30.5q0 21 14.5 35.5t35.5 14.5
q17 0 29 -12.5t12 -30.5q0 -21 -14.5 -35.5t-35.5 -14.5zM571 826q-17 0 -29 12.5t-12 30.5q0 21 14.5 35.5t35.5 14.5q17 0 29 -12.5t12 -30.5q0 -21 -14.5 -35.5t-35.5 -14.5z" />
    <glyph glyph-name="Yacute" unicode="&#xdd;" horiz-adv-x="609" 
d="M227 0l62 291l-176 409h54l154 -364l309 364h62l-353 -412l-61 -288h-51zM379 798l126 116h76l-152 -116h-50z" />
    <glyph glyph-name="Thorn" unicode="&#xde;" horiz-adv-x="638" 
d="M39 0l149 700h51l-32 -148h213q59 0 101 -20.5t65 -59.5t23 -93q0 -67 -30.5 -119t-84.5 -81.5t-124 -29.5h-248l-32 -149h-51zM132 196h238q56 0 98 23t66 64t24 94q0 60 -38 94t-106 34h-217z" />
    <glyph glyph-name="germandbls" unicode="&#xdf;" horiz-adv-x="595" 
d="M365 -10q-56 0 -101.5 20t-71.5 56l38 26q19 -27 54 -41.5t81 -14.5q58 0 93.5 28t35.5 73q0 29 -18 49.5t-58 36.5l-64 27q-67 30 -67 96q0 34 16 56t41 37.5t52.5 28.5t52.5 28t41 36t16 54q0 29 -17.5 52.5t-48 38t-69.5 14.5q-71 0 -117 -43t-66 -132l-111 -516h-49
l112 521q23 107 82 161.5t146 54.5q55 0 96.5 -20.5t65 -55.5t23.5 -79q0 -38 -16 -63.5t-41 -43.5t-52.5 -31.5t-52.5 -26t-41 -28t-16 -37.5q0 -23 10 -37t34 -24l63 -27q53 -23 76.5 -54t23.5 -78q0 -41 -23 -73t-62.5 -50.5t-90.5 -18.5z" />
    <glyph glyph-name="agrave" unicode="&#xe0;" horiz-adv-x="502" 
d="M197 -10q-72 0 -117 39t-45 101q0 45 23 79t64 53.5t93 19.5q51 0 95 -13.5t73 -40.5l15 68q16 72 -10 111.5t-104 39.5q-31 0 -65 -9.5t-78 -29.5l-18 40q47 22 87 31.5t77 9.5q58 0 99 -20t58.5 -61t3.5 -103l-68 -305h-48l10 46q-33 -27 -69 -41.5t-76 -14.5zM206 32
q42 0 77.5 15.5t68.5 43.5l22 98q-29 26 -66 38.5t-89 12.5q-58 0 -97.5 -30t-39.5 -75q0 -46 31 -74.5t93 -28.5zM306 579l-130 116h75l103 -116h-48z" />
    <glyph glyph-name="aacute" unicode="&#xe1;" horiz-adv-x="502" 
d="M197 -10q-72 0 -117 39t-45 101q0 45 23 79t64 53.5t93 19.5q51 0 95 -13.5t73 -40.5l15 68q16 72 -10 111.5t-104 39.5q-31 0 -65 -9.5t-78 -29.5l-18 40q47 22 87 31.5t77 9.5q58 0 99 -20t58.5 -61t3.5 -103l-68 -305h-48l10 46q-33 -27 -69 -41.5t-76 -14.5zM206 32
q42 0 77.5 15.5t68.5 43.5l22 98q-29 26 -66 38.5t-89 12.5q-58 0 -97.5 -30t-39.5 -75q0 -46 31 -74.5t93 -28.5zM276 579l126 116h76l-152 -116h-50z" />
    <glyph glyph-name="acircumflex" unicode="&#xe2;" horiz-adv-x="502" 
d="M197 -10q-72 0 -117 39t-45 101q0 45 23 79t64 53.5t93 19.5q51 0 95 -13.5t73 -40.5l15 68q16 72 -10 111.5t-104 39.5q-31 0 -65 -9.5t-78 -29.5l-18 40q47 22 87 31.5t77 9.5q58 0 99 -20t58.5 -61t3.5 -103l-68 -305h-48l10 46q-33 -27 -69 -41.5t-76 -14.5zM206 32
q42 0 77.5 15.5t68.5 43.5l22 98q-29 26 -66 38.5t-89 12.5q-58 0 -97.5 -30t-39.5 -75q0 -46 31 -74.5t93 -28.5zM178 574l132 121h57l84 -121h-40l-77 89l-113 -89h-43z" />
    <glyph glyph-name="atilde" unicode="&#xe3;" horiz-adv-x="502" 
d="M197 -10q-72 0 -117 39t-45 101q0 45 23 79t64 53.5t93 19.5q51 0 95 -13.5t73 -40.5l15 68q16 72 -10 111.5t-104 39.5q-31 0 -65 -9.5t-78 -29.5l-18 40q47 22 87 31.5t77 9.5q58 0 99 -20t58.5 -61t3.5 -103l-68 -305h-48l10 46q-33 -27 -69 -41.5t-76 -14.5zM206 32
q42 0 77.5 15.5t68.5 43.5l22 98q-29 26 -66 38.5t-89 12.5q-58 0 -97.5 -30t-39.5 -75q0 -46 31 -74.5t93 -28.5zM202 582l-39 13q20 45 45.5 64.5t52.5 19.5q21 0 39 -9t34 -21t31 -21t30 -9q17 0 29 12t27 46l39 -11q-20 -46 -44 -66t-50 -20q-21 0 -39 9t-34 20.5
t-31 20.5t-30 9q-18 0 -32 -13t-28 -44z" />
    <glyph glyph-name="adieresis" unicode="&#xe4;" horiz-adv-x="502" 
d="M197 -10q-72 0 -117 39t-45 101q0 45 23 79t64 53.5t93 19.5q51 0 95 -13.5t73 -40.5l15 68q16 72 -10 111.5t-104 39.5q-31 0 -65 -9.5t-78 -29.5l-18 40q47 22 87 31.5t77 9.5q58 0 99 -20t58.5 -61t3.5 -103l-68 -305h-48l10 46q-33 -27 -69 -41.5t-76 -14.5zM206 32
q42 0 77.5 15.5t68.5 43.5l22 98q-29 26 -66 38.5t-89 12.5q-58 0 -97.5 -30t-39.5 -75q0 -46 31 -74.5t93 -28.5zM230 607q-17 0 -29 12.5t-12 30.5q0 21 14.5 35.5t35.5 14.5q17 0 29 -12.5t12 -30.5q0 -21 -14.5 -35.5t-35.5 -14.5zM424 607q-17 0 -29 12.5t-12 30.5
q0 21 14.5 35.5t35.5 14.5q17 0 29 -12.5t12 -30.5q0 -21 -14.5 -35.5t-35.5 -14.5z" />
    <glyph glyph-name="aring" unicode="&#xe5;" horiz-adv-x="502" 
d="M197 -10q-72 0 -117 39t-45 101q0 45 23 79t64 53.5t93 19.5q51 0 95 -13.5t73 -40.5l15 68q16 72 -10 111.5t-104 39.5q-31 0 -65 -9.5t-78 -29.5l-18 40q47 22 87 31.5t77 9.5q58 0 99 -20t58.5 -61t3.5 -103l-68 -305h-48l10 46q-33 -27 -69 -41.5t-76 -14.5zM206 32
q42 0 77.5 15.5t68.5 43.5l22 98q-29 26 -66 38.5t-89 12.5q-58 0 -97.5 -30t-39.5 -75q0 -46 31 -74.5t93 -28.5zM326 568q-43 0 -69.5 26.5t-26.5 68.5q0 32 16 59t42.5 44t57.5 17q43 0 69.5 -26.5t26.5 -68.5q0 -31 -16 -58.5t-42 -44.5t-58 -17zM327 602q33 0 56.5 25
t23.5 59q0 29 -18.5 46t-43.5 17q-33 0 -56.5 -25t-23.5 -59q0 -29 18.5 -46t43.5 -17z" />
    <glyph glyph-name="ae" unicode="&#xe6;" horiz-adv-x="841" 
d="M197 -10q-72 0 -117 39t-45 101q0 45 23 79t64 53.5t93 19.5q89 0 148 -39l10 53q14 78 -13 114.5t-100 36.5q-29 0 -63 -9.5t-80 -29.5l-18 40q46 21 86 31t78 10q67 0 108 -26.5t51 -76.5q37 49 88.5 76t106.5 27q53 0 93 -25t63 -68.5t23 -100.5q0 -17 -1 -33t-3 -31
h-381q-8 -55 10 -99.5t56.5 -70t88.5 -25.5q33 0 68 11.5t69 33.5l26 -38q-40 -26 -81.5 -39.5t-82.5 -13.5q-52 0 -95.5 23t-72.5 64q-43 -43 -93.5 -65t-106.5 -22zM419 272h328q5 50 -11 88.5t-47.5 60.5t-74.5 22t-83 -22t-69 -60.5t-43 -88.5zM206 32q46 0 88 19.5
t85 59.5q-18 41 -18 89q-53 40 -142 40q-58 0 -97.5 -30t-39.5 -75q0 -49 33 -76t91 -27z" />
    <glyph glyph-name="ccedilla" unicode="&#xe7;" horiz-adv-x="489" 
d="M201 -235q-34 0 -59.5 12t-39.5 28l24 24q30 -33 73 -33q38 0 57.5 17.5t19.5 42.5q0 23 -18.5 35.5t-49.5 12.5h-24l39 88q-48 8 -86 36t-60.5 72t-22.5 100q0 59 20 111.5t55.5 92.5t81.5 62.5t98 22.5q54 0 99.5 -24.5t76.5 -68.5l-35 -31q-25 36 -61 57t-81 21
q-56 0 -102.5 -33.5t-74.5 -88.5t-28 -122q0 -49 22 -86t58.5 -57.5t79.5 -20.5q35 0 71 14t68 39l27 -38q-38 -30 -82.5 -45.5t-91.5 -15.5l-25 -57q40 -3 60.5 -22t20.5 -48q0 -28 -14.5 -50t-39.5 -34.5t-56 -12.5z" />
    <glyph glyph-name="egrave" unicode="&#xe8;" horiz-adv-x="536" 
d="M260 -10q-59 0 -105.5 27.5t-73 75.5t-26.5 108q0 59 20 111t56 92t82.5 62.5t98.5 22.5q53 0 93 -25t63 -68.5t23 -100.5q0 -16 -1 -31.5t-3 -32.5h-381q-7 -56 11 -100.5t55.5 -69.5t88.5 -25q32 0 67.5 11.5t69.5 33.5l26 -38q-40 -26 -81.5 -39.5t-82.5 -13.5z
M114 272h328q5 48 -10.5 87t-46.5 61.5t-76 22.5q-44 0 -83.5 -22t-68.5 -60.5t-43 -88.5zM309 579l-130 116h75l103 -116h-48z" />
    <glyph glyph-name="eacute" unicode="&#xe9;" horiz-adv-x="536" 
d="M260 -10q-59 0 -105.5 27.5t-73 75.5t-26.5 108q0 59 20 111t56 92t82.5 62.5t98.5 22.5q53 0 93 -25t63 -68.5t23 -100.5q0 -16 -1 -31.5t-3 -32.5h-381q-7 -56 11 -100.5t55.5 -69.5t88.5 -25q32 0 67.5 11.5t69.5 33.5l26 -38q-40 -26 -81.5 -39.5t-82.5 -13.5z
M114 272h328q5 48 -10.5 87t-46.5 61.5t-76 22.5q-44 0 -83.5 -22t-68.5 -60.5t-43 -88.5zM279 579l126 116h76l-152 -116h-50z" />
    <glyph glyph-name="ecircumflex" unicode="&#xea;" horiz-adv-x="536" 
d="M260 -10q-59 0 -105.5 27.5t-73 75.5t-26.5 108q0 59 20 111t56 92t82.5 62.5t98.5 22.5q53 0 93 -25t63 -68.5t23 -100.5q0 -16 -1 -31.5t-3 -32.5h-381q-7 -56 11 -100.5t55.5 -69.5t88.5 -25q32 0 67.5 11.5t69.5 33.5l26 -38q-40 -26 -81.5 -39.5t-82.5 -13.5z
M114 272h328q5 48 -10.5 87t-46.5 61.5t-76 22.5q-44 0 -83.5 -22t-68.5 -60.5t-43 -88.5zM181 574l132 121h57l84 -121h-40l-77 89l-113 -89h-43z" />
    <glyph glyph-name="edieresis" unicode="&#xeb;" horiz-adv-x="536" 
d="M260 -10q-59 0 -105.5 27.5t-73 75.5t-26.5 108q0 59 20 111t56 92t82.5 62.5t98.5 22.5q53 0 93 -25t63 -68.5t23 -100.5q0 -16 -1 -31.5t-3 -32.5h-381q-7 -56 11 -100.5t55.5 -69.5t88.5 -25q32 0 67.5 11.5t69.5 33.5l26 -38q-40 -26 -81.5 -39.5t-82.5 -13.5z
M114 272h328q5 48 -10.5 87t-46.5 61.5t-76 22.5q-44 0 -83.5 -22t-68.5 -60.5t-43 -88.5zM233 607q-17 0 -29 12.5t-12 30.5q0 21 14.5 35.5t35.5 14.5q17 0 29 -12.5t12 -30.5q0 -21 -14.5 -35.5t-35.5 -14.5zM427 607q-17 0 -29 12.5t-12 30.5q0 21 14.5 35.5t35.5 14.5
q17 0 29 -12.5t12 -30.5q0 -21 -14.5 -35.5t-35.5 -14.5z" />
    <glyph glyph-name="igrave" unicode="&#xec;" horiz-adv-x="204" 
d="M26 0l103 481h49l-103 -481h-49zM164 579l-130 116h75l103 -116h-48z" />
    <glyph glyph-name="iacute" unicode="&#xed;" horiz-adv-x="204" 
d="M26 0l103 481h49l-103 -481h-49zM134 579l126 116h76l-152 -116h-50z" />
    <glyph glyph-name="icircumflex" unicode="&#xee;" horiz-adv-x="204" 
d="M26 0l103 481h49l-103 -481h-49zM36 574l132 121h57l84 -121h-40l-77 89l-113 -89h-43z" />
    <glyph glyph-name="idieresis" unicode="&#xef;" horiz-adv-x="204" 
d="M26 0l103 481h49l-103 -481h-49zM88 607q-17 0 -29 12.5t-12 30.5q0 21 14.5 35.5t35.5 14.5q17 0 29 -12.5t12 -30.5q0 -21 -14.5 -35.5t-35.5 -14.5zM282 607q-17 0 -29 12.5t-12 30.5q0 21 14.5 35.5t35.5 14.5q17 0 29 -12.5t12 -30.5q0 -21 -14.5 -35.5t-35.5 -14.5
z" />
    <glyph glyph-name="eth" unicode="&#xf0;" horiz-adv-x="577" 
d="M258 -10q-59 0 -104.5 27.5t-71.5 76t-26 110.5q0 77 33 139.5t89 99.5t125 37q75 0 126.5 -42.5t64.5 -110.5q8 86 -8 157t-53 123l-108 -52l-14 37l96 46q-19 20 -42.5 35.5t-50.5 26.5l23 37q34 -14 62 -34t50 -45l122 59l13 -37l-111 -54q64 -96 64 -238
q0 -88 -20 -161t-57.5 -126t-88.5 -82t-113 -29zM263 36q55 0 101 31.5t74 84t28 113.5q0 50 -20 88.5t-55.5 60.5t-82.5 22q-54 0 -100.5 -31.5t-74.5 -83.5t-28 -114q0 -50 20 -88.5t56 -60.5t82 -22z" />
    <glyph glyph-name="ntilde" unicode="&#xf1;" horiz-adv-x="525" 
d="M27 0l103 481h49l-15 -69q32 38 69.5 57.5t81.5 19.5q54 0 91 -25t53 -69.5t3 -104.5l-62 -290h-49l61 282q16 74 -14.5 118.5t-95.5 44.5q-43 0 -81.5 -20.5t-66.5 -58.5l-78 -366h-49zM222 582l-39 13q20 45 45.5 64.5t52.5 19.5q21 0 39 -9t34 -21t31 -21t30 -9
q17 0 29 12t27 46l39 -11q-20 -46 -44 -66t-50 -20q-21 0 -39 9t-34 20.5t-31 20.5t-30 9q-18 0 -32 -13t-28 -44z" />
    <glyph glyph-name="ograve" unicode="&#xf2;" horiz-adv-x="560" 
d="M246 -11q-55 0 -98.5 26.5t-68.5 74.5t-25 110q0 53 19 104.5t53.5 93t82 66.5t105.5 25q56 0 99 -26.5t68 -74t25 -110.5q0 -53 -19 -104.5t-53.5 -93t-82 -66.5t-105.5 -25zM248 35q55 0 102.5 32.5t77 88t29.5 123.5q0 74 -40 119t-105 45q-54 0 -102 -32.5
t-77.5 -87.5t-29.5 -124q0 -73 40 -118.5t105 -45.5zM324 579l-130 116h75l103 -116h-48z" />
    <glyph glyph-name="oacute" unicode="&#xf3;" horiz-adv-x="560" 
d="M246 -11q-55 0 -98.5 26.5t-68.5 74.5t-25 110q0 53 19 104.5t53.5 93t82 66.5t105.5 25q56 0 99 -26.5t68 -74t25 -110.5q0 -53 -19 -104.5t-53.5 -93t-82 -66.5t-105.5 -25zM248 35q55 0 102.5 32.5t77 88t29.5 123.5q0 74 -40 119t-105 45q-54 0 -102 -32.5
t-77.5 -87.5t-29.5 -124q0 -73 40 -118.5t105 -45.5zM294 579l126 116h76l-152 -116h-50z" />
    <glyph glyph-name="ocircumflex" unicode="&#xf4;" horiz-adv-x="560" 
d="M246 -11q-55 0 -98.5 26.5t-68.5 74.5t-25 110q0 53 19 104.5t53.5 93t82 66.5t105.5 25q56 0 99 -26.5t68 -74t25 -110.5q0 -53 -19 -104.5t-53.5 -93t-82 -66.5t-105.5 -25zM248 35q55 0 102.5 32.5t77 88t29.5 123.5q0 74 -40 119t-105 45q-54 0 -102 -32.5
t-77.5 -87.5t-29.5 -124q0 -73 40 -118.5t105 -45.5zM196 574l132 121h57l84 -121h-40l-77 89l-113 -89h-43z" />
    <glyph glyph-name="otilde" unicode="&#xf5;" horiz-adv-x="560" 
d="M246 -11q-55 0 -98.5 26.5t-68.5 74.5t-25 110q0 53 19 104.5t53.5 93t82 66.5t105.5 25q56 0 99 -26.5t68 -74t25 -110.5q0 -53 -19 -104.5t-53.5 -93t-82 -66.5t-105.5 -25zM248 35q55 0 102.5 32.5t77 88t29.5 123.5q0 74 -40 119t-105 45q-54 0 -102 -32.5
t-77.5 -87.5t-29.5 -124q0 -73 40 -118.5t105 -45.5zM220 582l-39 13q20 45 45.5 64.5t52.5 19.5q21 0 39 -9t34 -21t31 -21t30 -9q17 0 29 12t27 46l39 -11q-20 -46 -44 -66t-50 -20q-21 0 -39 9t-34 20.5t-31 20.5t-30 9q-18 0 -32 -13t-28 -44z" />
    <glyph glyph-name="odieresis" unicode="&#xf6;" horiz-adv-x="560" 
d="M246 -11q-55 0 -98.5 26.5t-68.5 74.5t-25 110q0 53 19 104.5t53.5 93t82 66.5t105.5 25q56 0 99 -26.5t68 -74t25 -110.5q0 -53 -19 -104.5t-53.5 -93t-82 -66.5t-105.5 -25zM248 35q55 0 102.5 32.5t77 88t29.5 123.5q0 74 -40 119t-105 45q-54 0 -102 -32.5
t-77.5 -87.5t-29.5 -124q0 -73 40 -118.5t105 -45.5zM248 607q-17 0 -29 12.5t-12 30.5q0 21 14.5 35.5t35.5 14.5q17 0 29 -12.5t12 -30.5q0 -21 -14.5 -35.5t-35.5 -14.5zM442 607q-17 0 -29 12.5t-12 30.5q0 21 14.5 35.5t35.5 14.5q17 0 29 -12.5t12 -30.5
q0 -21 -14.5 -35.5t-35.5 -14.5z" />
    <glyph glyph-name="divide" unicode="&#xf7;" 
d="M133 335l10 45h381l-10 -45h-381zM283 142q-15 0 -26 10.5t-11 23.5q0 21 15 36.5t36 15.5q15 0 26 -10t11 -24q0 -21 -15 -36.5t-36 -15.5zM357 490q-15 0 -26 10.5t-11 23.5q0 21 15 36.5t36 15.5q15 0 26 -10t11 -24q0 -21 -15 -36.5t-36 -15.5z" />
    <glyph glyph-name="oslash" unicode="&#xf8;" horiz-adv-x="559" 
d="M246 -11q-41 0 -75.5 15t-60.5 42l-47 -46h-59l81 79q-15 25 -23 56t-8 65q0 53 19 104.5t53.5 93t82 66.5t105.5 25q41 0 75 -14.5t59 -40.5l48 47h59l-81 -80q15 -25 23.5 -56t8.5 -67q0 -53 -19 -104.5t-53.5 -93t-82 -66.5t-105.5 -25zM121 114l293 287
q-19 20 -44.5 31t-57.5 11q-54 0 -102 -32.5t-77.5 -87.5t-29.5 -124q0 -24 4.5 -45.5t13.5 -39.5zM248 35q55 0 102.5 32.5t77 88t29.5 123.5q0 25 -5 47t-14 41l-294 -288q39 -44 104 -44z" />
    <glyph glyph-name="ugrave" unicode="&#xf9;" horiz-adv-x="524" 
d="M211 -8q-53 0 -91 25t-54 70t-3 104l63 290h49l-62 -282q-16 -74 15 -118.5t96 -44.5q41 0 78.5 19.5t66.5 55.5l79 370h49l-103 -481h-49l14 66q-31 -36 -67.5 -55t-80.5 -19zM316 579l-130 116h75l103 -116h-48z" />
    <glyph glyph-name="uacute" unicode="&#xfa;" horiz-adv-x="524" 
d="M211 -8q-53 0 -91 25t-54 70t-3 104l63 290h49l-62 -282q-16 -74 15 -118.5t96 -44.5q41 0 78.5 19.5t66.5 55.5l79 370h49l-103 -481h-49l14 66q-31 -36 -67.5 -55t-80.5 -19zM286 579l126 116h76l-152 -116h-50z" />
    <glyph glyph-name="ucircumflex" unicode="&#xfb;" horiz-adv-x="524" 
d="M211 -8q-53 0 -91 25t-54 70t-3 104l63 290h49l-62 -282q-16 -74 15 -118.5t96 -44.5q41 0 78.5 19.5t66.5 55.5l79 370h49l-103 -481h-49l14 66q-31 -36 -67.5 -55t-80.5 -19zM188 574l132 121h57l84 -121h-40l-77 89l-113 -89h-43z" />
    <glyph glyph-name="udieresis" unicode="&#xfc;" horiz-adv-x="524" 
d="M211 -8q-53 0 -91 25t-54 70t-3 104l63 290h49l-62 -282q-16 -74 15 -118.5t96 -44.5q41 0 78.5 19.5t66.5 55.5l79 370h49l-103 -481h-49l14 66q-31 -36 -67.5 -55t-80.5 -19zM240 607q-17 0 -29 12.5t-12 30.5q0 21 14.5 35.5t35.5 14.5q17 0 29 -12.5t12 -30.5
q0 -21 -14.5 -35.5t-35.5 -14.5zM434 607q-17 0 -29 12.5t-12 30.5q0 21 14.5 35.5t35.5 14.5q17 0 29 -12.5t12 -30.5q0 -21 -14.5 -35.5t-35.5 -14.5z" />
    <glyph glyph-name="yacute" unicode="&#xfd;" horiz-adv-x="467" 
d="M6 -219q-8 0 -18.5 2t-27.5 7l9 45q12 -4 22 -6t17 -2q26 0 48 15.5t41 47.5l62 106l-87 485h52l73 -419l248 419h57l-361 -610q-28 -49 -59.5 -69.5t-75.5 -20.5zM256 579l126 116h76l-152 -116h-50z" />
    <glyph glyph-name="thorn" unicode="&#xfe;" horiz-adv-x="555" 
d="M-16 -209l199 934l51 12l-65 -305q61 55 139 55q57 0 101 -28t69 -77.5t25 -112.5q0 -57 -19.5 -107t-54 -88.5t-80 -60t-96.5 -21.5q-106 0 -159 82l-61 -283h-49zM294 441q-77 0 -133 -53l-57 -266q19 -37 58.5 -60.5t85.5 -23.5q58 0 104.5 30.5t74 82t27.5 114.5
q0 78 -44.5 127t-115.5 49z" />
    <glyph glyph-name="ydieresis" unicode="&#xff;" horiz-adv-x="467" 
d="M6 -219q-8 0 -18.5 2t-27.5 7l9 45q12 -4 22 -6t17 -2q26 0 48 15.5t41 47.5l62 106l-87 485h52l73 -419l248 419h57l-361 -610q-28 -49 -59.5 -69.5t-75.5 -20.5zM210 607q-17 0 -29 12.5t-12 30.5q0 21 14.5 35.5t35.5 14.5q17 0 29 -12.5t12 -30.5q0 -21 -14.5 -35.5
t-35.5 -14.5zM404 607q-17 0 -29 12.5t-12 30.5q0 21 14.5 35.5t35.5 14.5q17 0 29 -12.5t12 -30.5q0 -21 -14.5 -35.5t-35.5 -14.5z" />
    <glyph glyph-name="Amacron" unicode="&#x100;" horiz-adv-x="626" 
d="M-40 0l417 700h64l123 -700h-51l-40 234h-317l-138 -234h-58zM180 276h286l-64 377zM305 826l8 40h253l-8 -40h-253z" />
    <glyph glyph-name="amacron" unicode="&#x101;" horiz-adv-x="502" 
d="M197 -10q-72 0 -117 39t-45 101q0 45 23 79t64 53.5t93 19.5q51 0 95 -13.5t73 -40.5l15 68q16 72 -10 111.5t-104 39.5q-31 0 -65 -9.5t-78 -29.5l-18 40q47 22 87 31.5t77 9.5q58 0 99 -20t58.5 -61t3.5 -103l-68 -305h-48l10 46q-33 -27 -69 -41.5t-76 -14.5zM206 32
q42 0 77.5 15.5t68.5 43.5l22 98q-29 26 -66 38.5t-89 12.5q-58 0 -97.5 -30t-39.5 -75q0 -46 31 -74.5t93 -28.5zM196 607l8 40h253l-8 -40h-253z" />
    <glyph glyph-name="Abreve" unicode="&#x102;" horiz-adv-x="626" 
d="M-40 0l417 700h64l123 -700h-51l-40 234h-317l-138 -234h-58zM180 276h286l-64 377zM430 792q-55 0 -92 33t-39 92l38 6q1 -50 27.5 -72.5t67.5 -22.5q81 0 121 95l38 -12q-23 -55 -65 -87t-96 -32z" />
    <glyph glyph-name="abreve" unicode="&#x103;" horiz-adv-x="502" 
d="M197 -10q-72 0 -117 39t-45 101q0 45 23 79t64 53.5t93 19.5q51 0 95 -13.5t73 -40.5l15 68q16 72 -10 111.5t-104 39.5q-31 0 -65 -9.5t-78 -29.5l-18 40q47 22 87 31.5t77 9.5q58 0 99 -20t58.5 -61t3.5 -103l-68 -305h-48l10 46q-33 -27 -69 -41.5t-76 -14.5zM206 32
q42 0 77.5 15.5t68.5 43.5l22 98q-29 26 -66 38.5t-89 12.5q-58 0 -97.5 -30t-39.5 -75q0 -46 31 -74.5t93 -28.5zM321 573q-55 0 -92 33t-39 92l38 6q1 -50 27.5 -72.5t67.5 -22.5q81 0 121 95l38 -12q-23 -55 -65 -87t-96 -32z" />
    <glyph glyph-name="Aogonek" unicode="&#x104;" horiz-adv-x="626" 
d="M484 -232q-49 0 -73 23.5t-24 54.5q0 84 127 154h-1l-40 234h-317l-138 -234h-58l417 700h64l123 -700q-79 -42 -108 -77.5t-29 -68.5q0 -22 18.5 -36.5t46.5 -14.5q11 0 23.5 2.5t22.5 6.5l3 -32q-11 -5 -26 -8.5t-31 -3.5zM180 276h286l-64 377z" />
    <glyph glyph-name="aogonek" unicode="&#x105;" horiz-adv-x="502" 
d="M300 -232q-49 0 -73 23.5t-24 54.5q0 85 130 154h-1l10 46q-33 -27 -69 -41.5t-76 -14.5q-72 0 -117 39t-45 101q0 45 23 79t64 53.5t93 19.5q51 0 95 -13.5t73 -40.5l15 68q16 72 -10 111.5t-104 39.5q-31 0 -65 -9.5t-78 -29.5l-18 40q47 22 87 31.5t77 9.5
q58 0 99 -20t58.5 -61t3.5 -103l-68 -305q-79 -42 -108 -77.5t-29 -68.5q0 -22 18.5 -36.5t46.5 -14.5q11 0 23.5 2.5t22.5 6.5l3 -32q-11 -5 -26 -8.5t-31 -3.5zM206 32q42 0 77.5 15.5t68.5 43.5l22 98q-29 26 -66 38.5t-89 12.5q-58 0 -97.5 -30t-39.5 -75
q0 -46 31 -74.5t93 -28.5z" />
    <glyph glyph-name="Cacute" unicode="&#x106;" horiz-adv-x="714" 
d="M382 -11q-65 0 -120.5 24.5t-96.5 68t-63.5 102t-22.5 126.5q0 83 30.5 155.5t83.5 128t121.5 86.5t143.5 31q80 0 147.5 -33t110.5 -95l-40 -28q-37 53 -94.5 80.5t-128.5 27.5q-66 0 -124.5 -28.5t-103 -78t-70 -113t-25.5 -134.5q0 -74 31.5 -136t89.5 -99t136 -37
q65 0 123 20.5t105 63.5l32 -38q-52 -46 -120 -70t-145 -24zM432 798l126 116h76l-152 -116h-50z" />
    <glyph glyph-name="cacute" unicode="&#x107;" horiz-adv-x="489" 
d="M258 -11q-56 0 -102.5 26.5t-74 74.5t-27.5 110q0 59 20 111.5t55.5 92.5t81.5 62.5t98 22.5q54 0 99.5 -24.5t76.5 -68.5l-35 -31q-25 36 -61 57t-81 21q-56 0 -102.5 -33.5t-74.5 -88.5t-28 -122q0 -49 22 -86t58.5 -57.5t79.5 -20.5q35 0 71 14t68 39l27 -38
q-37 -29 -81.5 -45t-89.5 -16zM296 579l126 116h76l-152 -116h-50z" />
    <glyph glyph-name="Ccircumflex" unicode="&#x108;" horiz-adv-x="714" 
d="M382 -11q-65 0 -120.5 24.5t-96.5 68t-63.5 102t-22.5 126.5q0 83 30.5 155.5t83.5 128t121.5 86.5t143.5 31q80 0 147.5 -33t110.5 -95l-40 -28q-37 53 -94.5 80.5t-128.5 27.5q-66 0 -124.5 -28.5t-103 -78t-70 -113t-25.5 -134.5q0 -74 31.5 -136t89.5 -99t136 -37
q65 0 123 20.5t105 63.5l32 -38q-52 -46 -120 -70t-145 -24zM334 793l132 121h57l84 -121h-40l-77 89l-113 -89h-43z" />
    <glyph glyph-name="ccircumflex" unicode="&#x109;" horiz-adv-x="489" 
d="M258 -11q-56 0 -102.5 26.5t-74 74.5t-27.5 110q0 59 20 111.5t55.5 92.5t81.5 62.5t98 22.5q54 0 99.5 -24.5t76.5 -68.5l-35 -31q-25 36 -61 57t-81 21q-56 0 -102.5 -33.5t-74.5 -88.5t-28 -122q0 -49 22 -86t58.5 -57.5t79.5 -20.5q35 0 71 14t68 39l27 -38
q-37 -29 -81.5 -45t-89.5 -16zM198 574l132 121h57l84 -121h-40l-77 89l-113 -89h-43z" />
    <glyph glyph-name="Cdotaccent" unicode="&#x10a;" horiz-adv-x="714" 
d="M382 -11q-65 0 -120.5 24.5t-96.5 68t-63.5 102t-22.5 126.5q0 83 30.5 155.5t83.5 128t121.5 86.5t143.5 31q80 0 147.5 -33t110.5 -95l-40 -28q-37 53 -94.5 80.5t-128.5 27.5q-66 0 -124.5 -28.5t-103 -78t-70 -113t-25.5 -134.5q0 -74 31.5 -136t89.5 -99t136 -37
q65 0 123 20.5t105 63.5l32 -38q-52 -46 -120 -70t-145 -24zM483 826q-17 0 -29 12.5t-12 30.5q0 21 14.5 35.5t35.5 14.5q17 0 29 -12.5t12 -30.5q0 -14 -6.5 -25.5t-18 -18t-25.5 -6.5z" />
    <glyph glyph-name="cdotaccent" unicode="&#x10b;" horiz-adv-x="489" 
d="M258 -11q-56 0 -102.5 26.5t-74 74.5t-27.5 110q0 59 20 111.5t55.5 92.5t81.5 62.5t98 22.5q54 0 99.5 -24.5t76.5 -68.5l-35 -31q-25 36 -61 57t-81 21q-56 0 -102.5 -33.5t-74.5 -88.5t-28 -122q0 -49 22 -86t58.5 -57.5t79.5 -20.5q35 0 71 14t68 39l27 -38
q-37 -29 -81.5 -45t-89.5 -16zM347 607q-17 0 -29 12.5t-12 30.5q0 21 14.5 35.5t35.5 14.5q17 0 29 -12.5t12 -30.5q0 -14 -6.5 -25.5t-18 -18t-25.5 -6.5z" />
    <glyph glyph-name="Ccaron" unicode="&#x10c;" horiz-adv-x="714" 
d="M382 -11q-65 0 -120.5 24.5t-96.5 68t-63.5 102t-22.5 126.5q0 83 30.5 155.5t83.5 128t121.5 86.5t143.5 31q80 0 147.5 -33t110.5 -95l-40 -28q-37 53 -94.5 80.5t-128.5 27.5q-66 0 -124.5 -28.5t-103 -78t-70 -113t-25.5 -134.5q0 -74 31.5 -136t89.5 -99t136 -37
q65 0 123 20.5t105 63.5l32 -38q-52 -46 -120 -70t-145 -24zM444 796l-83 121h41l75 -89l111 89h46l-133 -121h-57z" />
    <glyph glyph-name="ccaron" unicode="&#x10d;" horiz-adv-x="489" 
d="M258 -11q-56 0 -102.5 26.5t-74 74.5t-27.5 110q0 59 20 111.5t55.5 92.5t81.5 62.5t98 22.5q54 0 99.5 -24.5t76.5 -68.5l-35 -31q-25 36 -61 57t-81 21q-56 0 -102.5 -33.5t-74.5 -88.5t-28 -122q0 -49 22 -86t58.5 -57.5t79.5 -20.5q35 0 71 14t68 39l27 -38
q-37 -29 -81.5 -45t-89.5 -16zM308 577l-83 121h41l75 -89l111 89h46l-133 -121h-57z" />
    <glyph glyph-name="Dcaron" unicode="&#x10e;" horiz-adv-x="707" 
d="M40 0l149 700h188q89 0 155.5 -38t104 -107t37.5 -163q0 -82 -28 -153.5t-79.5 -125t-121.5 -83.5t-153 -30h-252zM378 653h-148l-129 -606h200q71 0 130 28t102 76.5t66.5 111t23.5 130.5q0 80 -31 138t-86 90t-128 32zM428 796l-83 121h41l75 -89l111 89h46l-133 -121
h-57z" />
    <glyph glyph-name="dcaron" unicode="&#x10f;" horiz-adv-x="627" 
d="M265 -8q-56 0 -100 28t-69.5 77t-25.5 112q0 57 19.5 107.5t54 88.5t79.5 60t97 22q47 0 88.5 -19.5t69.5 -60.5l66 318l51 12l-154 -737h-49l10 45q-30 -27 -64.5 -40t-72.5 -13zM279 36q75 0 132 52l57 271q-19 37 -58 59.5t-85 22.5q-57 0 -103.5 -30.5t-74.5 -82
t-28 -115.5q0 -79 45 -128t115 -49zM641 549l40 176l55 12l-59 -188h-36z" />
    <glyph glyph-name="Dcroat" unicode="&#x110;" horiz-adv-x="707" 
d="M40 0l70 329h-64l9 44h64l70 327h188q89 0 155.5 -38t104 -107t37.5 -163q0 -82 -28 -153.5t-79.5 -125t-121.5 -83.5t-153 -30h-252zM101 47h200q71 0 130 28t102 76.5t66.5 111t23.5 130.5q0 80 -31 138t-86 90t-128 32h-148l-60 -280h209l-10 -44h-208z" />
    <glyph glyph-name="dcroat" unicode="&#x111;" horiz-adv-x="555" 
d="M250 -8q-56 0 -100 28t-69.5 77t-25.5 112q0 57 19.5 107.5t54 88.5t79.5 60t97 22q47 0 88.5 -19.5t69.5 -60.5l35 169h-154l8 40h154l23 109l51 12l-25 -121h83l-8 -40h-84l-120 -576h-49l10 45q-30 -27 -64.5 -40t-72.5 -13zM264 36q75 0 132 52l57 271
q-19 37 -58 59.5t-85 22.5q-57 0 -103.5 -30.5t-74.5 -82t-28 -115.5q0 -79 45 -128t115 -49z" />
    <glyph glyph-name="Emacron" unicode="&#x112;" horiz-adv-x="594" 
d="M40 0l149 700h455l-10 -47h-404l-59 -276h280l-10 -47h-280l-60 -283h408l-10 -47h-459zM309 826l8 40h253l-8 -40h-253z" />
    <glyph glyph-name="emacron" unicode="&#x113;" horiz-adv-x="536" 
d="M260 -10q-59 0 -105.5 27.5t-73 75.5t-26.5 108q0 59 20 111t56 92t82.5 62.5t98.5 22.5q53 0 93 -25t63 -68.5t23 -100.5q0 -16 -1 -31.5t-3 -32.5h-381q-7 -56 11 -100.5t55.5 -69.5t88.5 -25q32 0 67.5 11.5t69.5 33.5l26 -38q-40 -26 -81.5 -39.5t-82.5 -13.5z
M114 272h328q5 48 -10.5 87t-46.5 61.5t-76 22.5q-44 0 -83.5 -22t-68.5 -60.5t-43 -88.5zM199 607l8 40h253l-8 -40h-253z" />
    <glyph glyph-name="Ebreve" unicode="&#x114;" horiz-adv-x="594" 
d="M40 0l149 700h455l-10 -47h-404l-59 -276h280l-10 -47h-280l-60 -283h408l-10 -47h-459zM434 792q-55 0 -92 33t-39 92l38 6q1 -50 27.5 -72.5t67.5 -22.5q81 0 121 95l38 -12q-23 -55 -65 -87t-96 -32z" />
    <glyph glyph-name="ebreve" unicode="&#x115;" horiz-adv-x="536" 
d="M260 -10q-59 0 -105.5 27.5t-73 75.5t-26.5 108q0 59 20 111t56 92t82.5 62.5t98.5 22.5q53 0 93 -25t63 -68.5t23 -100.5q0 -16 -1 -31.5t-3 -32.5h-381q-7 -56 11 -100.5t55.5 -69.5t88.5 -25q32 0 67.5 11.5t69.5 33.5l26 -38q-40 -26 -81.5 -39.5t-82.5 -13.5z
M114 272h328q5 48 -10.5 87t-46.5 61.5t-76 22.5q-44 0 -83.5 -22t-68.5 -60.5t-43 -88.5zM324 573q-55 0 -92 33t-39 92l38 6q1 -50 27.5 -72.5t67.5 -22.5q81 0 121 95l38 -12q-23 -55 -65 -87t-96 -32z" />
    <glyph glyph-name="Edotaccent" unicode="&#x116;" horiz-adv-x="594" 
d="M40 0l149 700h455l-10 -47h-404l-59 -276h280l-10 -47h-280l-60 -283h408l-10 -47h-459zM440 826q-17 0 -29 12.5t-12 30.5q0 21 14.5 35.5t35.5 14.5q17 0 29 -12.5t12 -30.5q0 -14 -6.5 -25.5t-18 -18t-25.5 -6.5z" />
    <glyph glyph-name="edotaccent" unicode="&#x117;" horiz-adv-x="536" 
d="M260 -10q-59 0 -105.5 27.5t-73 75.5t-26.5 108q0 59 20 111t56 92t82.5 62.5t98.5 22.5q53 0 93 -25t63 -68.5t23 -100.5q0 -16 -1 -31.5t-3 -32.5h-381q-7 -56 11 -100.5t55.5 -69.5t88.5 -25q32 0 67.5 11.5t69.5 33.5l26 -38q-40 -26 -81.5 -39.5t-82.5 -13.5z
M114 272h328q5 48 -10.5 87t-46.5 61.5t-76 22.5q-44 0 -83.5 -22t-68.5 -60.5t-43 -88.5zM330 607q-17 0 -29 12.5t-12 30.5q0 21 14.5 35.5t35.5 14.5q17 0 29 -12.5t12 -30.5q0 -14 -6.5 -25.5t-18 -18t-25.5 -6.5z" />
    <glyph glyph-name="Eogonek" unicode="&#x118;" horiz-adv-x="594" 
d="M419 -232q-49 0 -73 23.5t-24 54.5q0 35 26 74t96 80h-404l149 700h455l-10 -47h-404l-59 -276h280l-10 -47h-280l-60 -283h408l-10 -47q-79 -42 -108 -77.5t-29 -68.5q0 -22 18.5 -36.5t46.5 -14.5q11 0 23.5 2.5t22.5 6.5l3 -32q-11 -5 -26 -8.5t-31 -3.5z" />
    <glyph glyph-name="eogonek" unicode="&#x119;" horiz-adv-x="536" 
d="M250 -232q-49 0 -73 23.5t-24 54.5q0 33 22.5 69t83.5 75q-58 0 -104.5 27.5t-73 75.5t-26.5 108q0 59 20 111t56 92t82.5 62.5t98.5 22.5q53 0 93 -25t63 -68.5t23 -100.5q0 -16 -1 -31.5t-3 -32.5h-381q-7 -54 11 -98.5t55.5 -70.5t88.5 -26q32 0 67.5 11.5t69.5 33.5
l26 -38q-23 -16 -47 -26.5t-49 -17.5q-78 -41 -106.5 -76.5t-28.5 -68.5q0 -22 18.5 -36.5t46.5 -14.5q11 0 23.5 2.5t22.5 6.5l3 -32q-11 -5 -26 -8.5t-31 -3.5zM309 443q-44 0 -83.5 -22t-68.5 -60.5t-43 -88.5h328q5 48 -10.5 87t-46.5 61.5t-76 22.5z" />
    <glyph glyph-name="Ecaron" unicode="&#x11a;" horiz-adv-x="594" 
d="M40 0l149 700h455l-10 -47h-404l-59 -276h280l-10 -47h-280l-60 -283h408l-10 -47h-459zM401 796l-83 121h41l75 -89l111 89h46l-133 -121h-57z" />
    <glyph glyph-name="ecaron" unicode="&#x11b;" horiz-adv-x="536" 
d="M260 -10q-59 0 -105.5 27.5t-73 75.5t-26.5 108q0 59 20 111t56 92t82.5 62.5t98.5 22.5q53 0 93 -25t63 -68.5t23 -100.5q0 -16 -1 -31.5t-3 -32.5h-381q-7 -56 11 -100.5t55.5 -69.5t88.5 -25q32 0 67.5 11.5t69.5 33.5l26 -38q-40 -26 -81.5 -39.5t-82.5 -13.5z
M114 272h328q5 48 -10.5 87t-46.5 61.5t-76 22.5q-44 0 -83.5 -22t-68.5 -60.5t-43 -88.5zM291 577l-83 121h41l75 -89l111 89h46l-133 -121h-57z" />
    <glyph glyph-name="Gcircumflex" unicode="&#x11c;" horiz-adv-x="779" 
d="M382 -11q-65 0 -120.5 24.5t-96.5 68t-63.5 102t-22.5 126.5q0 83 30.5 155.5t83.5 128t121.5 86.5t143.5 31q78 0 148.5 -34.5t116.5 -97.5l-40 -28q-40 55 -99.5 83.5t-130.5 28.5q-66 0 -124.5 -28.5t-103 -78t-70 -113t-25.5 -134.5q0 -74 31.5 -136t89.5 -99
t136 -37q81 0 144.5 35.5t104.5 97t53 139.5h-244l10 47h293l-9 -46q-17 -90 -65.5 -162.5t-122.5 -115.5t-169 -43zM330 793l132 121h57l84 -121h-40l-77 89l-113 -89h-43z" />
    <glyph glyph-name="gcircumflex" unicode="&#x11d;" horiz-adv-x="561" 
d="M237 -219q-52 0 -109.5 18.5t-96.5 51.5l31 40q84 -63 172 -63q55 0 94 33.5t49 91.5l19 100q-31 -31 -68 -46t-78 -15q-56 0 -100 28t-69.5 77t-25.5 112q0 57 19.5 107.5t54 88.5t79.5 60t97 22q51 0 95 -22t70 -69l18 85h48l-113 -540q-16 -77 -64.5 -118.5
t-121.5 -41.5zM264 36q40 0 77 16.5t65 45.5l53 247q-16 42 -57.5 69t-91.5 27q-57 0 -103.5 -30.5t-74.5 -82t-28 -115.5q0 -79 45 -128t115 -49zM202 587l132 121h57l84 -121h-40l-77 89l-113 -89h-43z" />
    <glyph glyph-name="Gbreve" unicode="&#x11e;" horiz-adv-x="779" 
d="M382 -11q-65 0 -120.5 24.5t-96.5 68t-63.5 102t-22.5 126.5q0 83 30.5 155.5t83.5 128t121.5 86.5t143.5 31q78 0 148.5 -34.5t116.5 -97.5l-40 -28q-40 55 -99.5 83.5t-130.5 28.5q-66 0 -124.5 -28.5t-103 -78t-70 -113t-25.5 -134.5q0 -74 31.5 -136t89.5 -99
t136 -37q81 0 144.5 35.5t104.5 97t53 139.5h-244l10 47h293l-9 -46q-17 -90 -65.5 -162.5t-122.5 -115.5t-169 -43zM473 792q-55 0 -92 33t-39 92l38 6q1 -50 27.5 -72.5t67.5 -22.5q81 0 121 95l38 -12q-23 -55 -65 -87t-96 -32z" />
    <glyph glyph-name="gbreve" unicode="&#x11f;" horiz-adv-x="561" 
d="M237 -219q-52 0 -109.5 18.5t-96.5 51.5l31 40q84 -63 172 -63q55 0 94 33.5t49 91.5l19 100q-31 -31 -68 -46t-78 -15q-56 0 -100 28t-69.5 77t-25.5 112q0 57 19.5 107.5t54 88.5t79.5 60t97 22q51 0 95 -22t70 -69l18 85h48l-113 -540q-16 -77 -64.5 -118.5
t-121.5 -41.5zM264 36q40 0 77 16.5t65 45.5l53 247q-16 42 -57.5 69t-91.5 27q-57 0 -103.5 -30.5t-74.5 -82t-28 -115.5q0 -79 45 -128t115 -49zM345 586q-55 0 -92 33t-39 92l38 6q1 -50 27.5 -72.5t67.5 -22.5q81 0 121 95l38 -12q-23 -55 -65 -87t-96 -32z" />
    <glyph glyph-name="Gdotaccent" unicode="&#x120;" horiz-adv-x="779" 
d="M382 -11q-65 0 -120.5 24.5t-96.5 68t-63.5 102t-22.5 126.5q0 83 30.5 155.5t83.5 128t121.5 86.5t143.5 31q78 0 148.5 -34.5t116.5 -97.5l-40 -28q-40 55 -99.5 83.5t-130.5 28.5q-66 0 -124.5 -28.5t-103 -78t-70 -113t-25.5 -134.5q0 -74 31.5 -136t89.5 -99
t136 -37q81 0 144.5 35.5t104.5 97t53 139.5h-244l10 47h293l-9 -46q-17 -90 -65.5 -162.5t-122.5 -115.5t-169 -43zM479 826q-17 0 -29 12.5t-12 30.5q0 21 14.5 35.5t35.5 14.5q17 0 29 -12.5t12 -30.5q0 -14 -6.5 -25.5t-18 -18t-25.5 -6.5z" />
    <glyph glyph-name="gdotaccent" unicode="&#x121;" horiz-adv-x="561" 
d="M237 -219q-52 0 -109.5 18.5t-96.5 51.5l31 40q84 -63 172 -63q55 0 94 33.5t49 91.5l19 100q-31 -31 -68 -46t-78 -15q-56 0 -100 28t-69.5 77t-25.5 112q0 57 19.5 107.5t54 88.5t79.5 60t97 22q51 0 95 -22t70 -69l18 85h48l-113 -540q-16 -77 -64.5 -118.5
t-121.5 -41.5zM264 36q40 0 77 16.5t65 45.5l53 247q-16 42 -57.5 69t-91.5 27q-57 0 -103.5 -30.5t-74.5 -82t-28 -115.5q0 -79 45 -128t115 -49zM351 620q-17 0 -29 12.5t-12 30.5q0 21 14.5 35.5t35.5 14.5q17 0 29 -12.5t12 -30.5q0 -14 -6.5 -25.5t-18 -18t-25.5 -6.5z
" />
    <glyph glyph-name="uni0122" unicode="&#x122;" horiz-adv-x="779" 
d="M382 -11q-65 0 -120.5 24.5t-96.5 68t-63.5 102t-22.5 126.5q0 83 30.5 155.5t83.5 128t121.5 86.5t143.5 31q78 0 148.5 -34.5t116.5 -97.5l-40 -28q-40 55 -99.5 83.5t-130.5 28.5q-66 0 -124.5 -28.5t-103 -78t-70 -113t-25.5 -134.5q0 -74 31.5 -136t89.5 -99
t136 -37q81 0 144.5 35.5t104.5 97t53 139.5h-244l10 47h293l-9 -46q-17 -90 -65.5 -162.5t-122.5 -115.5t-169 -43zM264 -266l81 180h56l-98 -180h-39z" />
    <glyph glyph-name="uni0123" unicode="&#x123;" horiz-adv-x="562" 
d="M453 786l-81 -180h-56l98 180h39zM237 -219q-52 0 -109.5 18.5t-96.5 51.5l31 40q84 -63 172 -63q55 0 94 33.5t49 91.5l19 100q-31 -31 -68 -46t-78 -15q-56 0 -100 28t-69.5 77t-25.5 112q0 57 19.5 107.5t54 88.5t79.5 60t97 22q51 0 95 -22t70 -69l18 85h48
l-113 -540q-16 -77 -64.5 -118.5t-121.5 -41.5zM264 36q40 0 77 16.5t65 45.5l53 247q-16 42 -57.5 69t-91.5 27q-57 0 -103.5 -30.5t-74.5 -82t-28 -115.5q0 -79 45 -128t115 -49z" />
    <glyph glyph-name="Hcircumflex" unicode="&#x124;" horiz-adv-x="709" 
d="M40 0l149 700h51l-69 -324h425l69 324h51l-149 -700h-51l70 329h-425l-70 -329h-51zM336 793l132 121h57l84 -121h-40l-77 89l-113 -89h-43z" />
    <glyph glyph-name="hcircumflex" unicode="&#x125;" horiz-adv-x="525" 
d="M27 0l152 725l51 12l-69 -329q33 40 71 60.5t83 20.5q54 0 91.5 -25t53.5 -69.5t3 -104.5l-63 -290h-49l62 282q17 74 -14.5 118.5t-96.5 44.5q-43 0 -82 -21t-68 -61l-76 -363h-49zM81 793l132 121h57l84 -121h-40l-77 89l-113 -89h-43z" />
    <glyph glyph-name="Hbar" unicode="&#x126;" horiz-adv-x="709" 
d="M40 0l112 528h-83l10 44h83l27 128h51l-27 -128h425l27 128h51l-27 -128h83l-10 -44h-83l-112 -528h-51l70 329h-425l-70 -329h-51zM171 376h425l32 152h-425z" />
    <glyph glyph-name="hbar" unicode="&#x127;" horiz-adv-x="525" 
d="M27 0l121 576h-80l8 40h80l23 109l51 12l-25 -121h157l-8 -40h-158l-35 -168q33 40 71 60.5t83 20.5q54 0 91.5 -25t53.5 -69.5t3 -104.5l-63 -290h-49l62 282q17 74 -14.5 118.5t-96.5 44.5q-43 0 -82 -21t-68 -61l-76 -363h-49z" />
    <glyph glyph-name="Itilde" unicode="&#x128;" horiz-adv-x="233" 
d="M40 0l149 700h51l-149 -700h-51zM121 801l-39 13q20 45 45.5 64.5t52.5 19.5q21 0 39 -9t34 -21t31 -21t30 -9q17 0 29 12t27 46l39 -11q-20 -46 -44 -66t-50 -20q-21 0 -39 9t-34 20.5t-31 20.5t-30 9q-18 0 -32 -13t-28 -44z" />
    <glyph glyph-name="itilde" unicode="&#x129;" horiz-adv-x="204" 
d="M26 0l103 481h49l-103 -481h-49zM60 582l-39 13q20 45 45.5 64.5t52.5 19.5q21 0 39 -9t34 -21t31 -21t30 -9q17 0 29 12t27 46l39 -11q-20 -46 -44 -66t-50 -20q-21 0 -39 9t-34 20.5t-31 20.5t-30 9q-18 0 -32 -13t-28 -44z" />
    <glyph glyph-name="Imacron" unicode="&#x12a;" horiz-adv-x="233" 
d="M40 0l149 700h51l-149 -700h-51zM115 826l8 40h253l-8 -40h-253z" />
    <glyph glyph-name="imacron" unicode="&#x12b;" horiz-adv-x="204" 
d="M26 0l103 481h49l-103 -481h-49zM54 607l8 40h253l-8 -40h-253z" />
    <glyph glyph-name="Ibreve" unicode="&#x12c;" horiz-adv-x="233" 
d="M40 0l149 700h51l-149 -700h-51zM240 792q-55 0 -92 33t-39 92l38 6q1 -50 27.5 -72.5t67.5 -22.5q81 0 121 95l38 -12q-23 -55 -65 -87t-96 -32z" />
    <glyph glyph-name="ibreve" unicode="&#x12d;" horiz-adv-x="204" 
d="M26 0l103 481h49l-103 -481h-49zM179 573q-55 0 -92 33t-39 92l38 6q1 -50 27.5 -72.5t67.5 -22.5q81 0 121 95l38 -12q-23 -55 -65 -87t-96 -32z" />
    <glyph glyph-name="Iogonek" unicode="&#x12e;" horiz-adv-x="233" 
d="M11 -232q-49 0 -73 23.5t-24 54.5q0 86 128 154h-2l149 700h51l-149 -700q-79 -42 -108 -77.5t-29 -68.5q0 -22 18.5 -36.5t46.5 -14.5q11 0 23.5 2.5t22.5 6.5l3 -32q-11 -5 -26 -8.5t-31 -3.5z" />
    <glyph glyph-name="iogonek" unicode="&#x12f;" horiz-adv-x="204" 
d="M184 607q-17 0 -29 12.5t-12 30.5q0 14 6.5 25.5t18 18t25.5 6.5q17 0 29 -12.5t12 -30.5q0 -21 -14.5 -35.5t-35.5 -14.5zM-5 -232q-49 0 -73 23.5t-24 54.5q0 87 129 154h-1l103 481h49l-103 -481q-79 -42 -108 -77.5t-29 -68.5q0 -22 18.5 -36.5t46.5 -14.5
q11 0 23.5 2.5t22.5 6.5l3 -32q-11 -5 -26 -8.5t-31 -3.5z" />
    <glyph glyph-name="Idotaccent" unicode="&#x130;" horiz-adv-x="233" 
d="M40 0l149 700h51l-149 -700h-51zM246 826q-17 0 -29 12.5t-12 30.5q0 21 14.5 35.5t35.5 14.5q17 0 29 -12.5t12 -30.5q0 -14 -6.5 -25.5t-18 -18t-25.5 -6.5z" />
    <glyph glyph-name="dotlessi" unicode="&#x131;" horiz-adv-x="204" 
d="M26 0l103 481h49l-103 -481h-49z" />
    <glyph glyph-name="IJ" unicode="&#x132;" horiz-adv-x="803" 
d="M40 0l149 700h51l-149 -700h-51zM459 -11q-84 0 -140.5 44t-75.5 126l44 18q17 -70 61.5 -105.5t111.5 -35.5q88 0 142 56.5t76 158.5l96 449h51l-96 -449q-17 -82 -52 -141t-88.5 -90t-129.5 -31z" />
    <glyph glyph-name="ij" unicode="&#x133;" horiz-adv-x="408" 
d="M184 607q-17 0 -29 12.5t-12 30.5q0 14 6.5 25.5t18 18t25.5 6.5q17 0 29 -12.5t12 -30.5q0 -21 -14.5 -35.5t-35.5 -14.5zM26 0l103 481h49l-103 -481h-49zM388 607q-17 0 -29 12t-12 31q0 13 7 24.5t18.5 18.5t24.5 7q17 0 29 -12t12 -31t-15 -34.5t-35 -15.5z
M133 -219q-10 0 -21 1.5t-20 4.5l10 47q9 -4 18.5 -5.5t18.5 -1.5q29 0 45.5 16t23.5 52l125 586h49l-127 -591q-12 -57 -40 -83t-82 -26z" />
    <glyph glyph-name="Jcircumflex" unicode="&#x134;" horiz-adv-x="570" 
d="M226 -11q-84 0 -140.5 44t-75.5 126l44 18q17 -70 61.5 -105.5t111.5 -35.5q88 0 142 56.5t76 158.5l96 449h51l-96 -449q-17 -82 -52 -141t-88.5 -90t-129.5 -31zM449 793l132 121h57l84 -121h-40l-77 89l-113 -89h-43z" />
    <glyph glyph-name="jcircumflex" unicode="&#x135;" horiz-adv-x="204" 
d="M-71 -219q-10 0 -21 1.5t-20 4.5l10 47q17 -7 37 -7q29 0 45.5 16t23.5 52l125 586h49l-127 -591q-12 -57 -40 -83t-82 -26zM36 574l132 121h57l84 -121h-40l-77 89l-113 -89h-43z" />
    <glyph glyph-name="uni0136" unicode="&#x136;" horiz-adv-x="564" 
d="M40 0l149 700h51l-70 -328l416 328h76l-441 -345l296 -355h-68l-284 348l-74 -348h-51zM159 -266l81 180h56l-98 -180h-39z" />
    <glyph glyph-name="uni0137" unicode="&#x137;" horiz-adv-x="451" 
d="M27 0l152 725l51 12l-98 -470l286 214h72l-315 -232l212 -249h-59l-202 238l-50 -238h-49zM73 -266l81 180h56l-98 -180h-39z" />
    <glyph glyph-name="kgreenlandic" unicode="&#x138;" horiz-adv-x="451" 
d="M27 0l105 481h49l-46 -211l283 211h72l-315 -232l212 -249h-59l-200 236l-52 -236h-49z" />
    <glyph glyph-name="Lacute" unicode="&#x139;" horiz-adv-x="583" 
d="M40 0l149 700h51l-139 -653h399l-10 -47h-450zM195 798l126 116h76l-152 -116h-50z" />
    <glyph glyph-name="lacute" unicode="&#x13a;" horiz-adv-x="204" 
d="M27 0l152 725l51 12l-154 -737h-49zM181 778l126 116h76l-152 -116h-50z" />
    <glyph glyph-name="uni013B" unicode="&#x13b;" horiz-adv-x="583" 
d="M40 0l149 700h51l-139 -653h399l-10 -47h-450zM156 -266l81 180h56l-98 -180h-39z" />
    <glyph glyph-name="uni013C" unicode="&#x13c;" horiz-adv-x="204" 
d="M27 0l152 725l51 12l-154 -737h-49zM-73 -266l81 180h56l-98 -180h-39z" />
    <glyph glyph-name="Lcaron" unicode="&#x13d;" horiz-adv-x="596" 
d="M40 0l149 700h51l-139 -653h399l-10 -47h-450zM497 549l40 176l55 12l-59 -188h-36z" />
    <glyph glyph-name="lcaron" unicode="&#x13e;" horiz-adv-x="265" 
d="M42 0l152 725l51 12l-154 -737h-49zM290 549l40 176l55 12l-59 -188h-36z" />
    <glyph glyph-name="Lslash" unicode="&#x141;" horiz-adv-x="584" 
d="M40 0l53 249l-92 -61l13 61l92 61l83 390h51l-76 -359l228 148l-13 -61l-229 -148l-49 -233h399l-10 -47h-450z" />
    <glyph glyph-name="lslash" unicode="&#x142;" horiz-adv-x="236" 
d="M45 0l64 305l-117 -98l13 62l117 97l75 359l51 12l-69 -330l114 95l-12 -62l-115 -95l-72 -345h-49z" />
    <glyph glyph-name="Nacute" unicode="&#x143;" horiz-adv-x="712" 
d="M40 0l149 700h57l294 -626l131 626h48l-149 -700h-47l-301 639l-134 -639h-48zM427 798l126 116h76l-152 -116h-50z" />
    <glyph glyph-name="nacute" unicode="&#x144;" horiz-adv-x="525" 
d="M27 0l103 481h49l-15 -69q32 38 69.5 57.5t81.5 19.5q54 0 91 -25t53 -69.5t3 -104.5l-62 -290h-49l61 282q16 74 -14.5 118.5t-95.5 44.5q-43 0 -81.5 -20.5t-66.5 -58.5l-78 -366h-49zM296 579l126 116h76l-152 -116h-50z" />
    <glyph glyph-name="uni0145" unicode="&#x145;" horiz-adv-x="712" 
d="M40 0l149 700h57l294 -626l131 626h48l-149 -700h-47l-301 639l-134 -639h-48zM174 -266l81 180h56l-98 -180h-39z" />
    <glyph glyph-name="uni0146" unicode="&#x146;" horiz-adv-x="525" 
d="M27 0l103 481h49l-15 -69q32 38 69.5 57.5t81.5 19.5q54 0 91 -25t53 -69.5t3 -104.5l-62 -290h-49l61 282q16 74 -14.5 118.5t-95.5 44.5q-43 0 -81.5 -20.5t-66.5 -58.5l-78 -366h-49zM89 -266l81 180h56l-98 -180h-39z" />
    <glyph glyph-name="Ncaron" unicode="&#x147;" horiz-adv-x="712" 
d="M40 0l149 700h57l294 -626l131 626h48l-149 -700h-47l-301 639l-134 -639h-48zM439 796l-83 121h41l75 -89l111 89h46l-133 -121h-57z" />
    <glyph glyph-name="ncaron" unicode="&#x148;" horiz-adv-x="525" 
d="M27 0l103 481h49l-15 -69q32 38 69.5 57.5t81.5 19.5q54 0 91 -25t53 -69.5t3 -104.5l-62 -290h-49l61 282q16 74 -14.5 118.5t-95.5 44.5q-43 0 -81.5 -20.5t-66.5 -58.5l-78 -366h-49zM308 577l-83 121h41l75 -89l111 89h46l-133 -121h-57z" />
    <glyph glyph-name="Eng" unicode="&#x14a;" horiz-adv-x="712" 
d="M425 -219q-10 0 -21 1.5t-20 4.5l10 47q9 -4 18.5 -5.5t18.5 -1.5q29 0 45.5 16.5t23.5 51.5l22 105l-300 639l-134 -639h-48l149 700h57l293 -627l132 627h48l-172 -810q-12 -57 -40 -83t-82 -26z" />
    <glyph glyph-name="eng" unicode="&#x14b;" horiz-adv-x="525" 
d="M254 -219q-10 0 -21 1.5t-20 4.5l10 47q9 -4 18.5 -5.5t18.5 -1.5q29 0 45.5 16t23.5 52l83 387q16 74 -14.5 118.5t-95.5 44.5q-86 0 -145 -76l-81 -369h-49l105 481h49l-15 -67q32 37 69 56t80 19q54 0 91.5 -25t53 -69.5t2.5 -104.5l-86 -400q-13 -58 -40.5 -83.5
t-81.5 -25.5z" />
    <glyph glyph-name="Omacron" unicode="&#x14c;" horiz-adv-x="793" 
d="M382 -11q-65 0 -120.5 24.5t-96.5 68t-63.5 102t-22.5 126.5q0 83 30.5 155.5t83.5 128t121.5 86.5t143.5 31q65 0 120.5 -24.5t96.5 -68t63.5 -102t22.5 -126.5q0 -83 -30.5 -155.5t-83.5 -128t-121.5 -86.5t-143.5 -31zM387 37q66 0 124.5 28.5t103 78t70 113
t25.5 134.5q0 74 -31.5 136t-89 99t-136.5 37q-66 0 -124.5 -28.5t-103 -78t-70 -113t-25.5 -134.5q0 -74 31.5 -136t89.5 -99t136 -37zM350 826l8 40h253l-8 -40h-253z" />
    <glyph glyph-name="omacron" unicode="&#x14d;" horiz-adv-x="560" 
d="M246 -11q-55 0 -98.5 26.5t-68.5 74.5t-25 110q0 53 19 104.5t53.5 93t82 66.5t105.5 25q56 0 99 -26.5t68 -74t25 -110.5q0 -53 -19 -104.5t-53.5 -93t-82 -66.5t-105.5 -25zM248 35q55 0 102.5 32.5t77 88t29.5 123.5q0 74 -40 119t-105 45q-54 0 -102 -32.5
t-77.5 -87.5t-29.5 -124q0 -73 40 -118.5t105 -45.5zM214 607l8 40h253l-8 -40h-253z" />
    <glyph glyph-name="Obreve" unicode="&#x14e;" horiz-adv-x="793" 
d="M382 -11q-65 0 -120.5 24.5t-96.5 68t-63.5 102t-22.5 126.5q0 83 30.5 155.5t83.5 128t121.5 86.5t143.5 31q65 0 120.5 -24.5t96.5 -68t63.5 -102t22.5 -126.5q0 -83 -30.5 -155.5t-83.5 -128t-121.5 -86.5t-143.5 -31zM387 37q66 0 124.5 28.5t103 78t70 113
t25.5 134.5q0 74 -31.5 136t-89 99t-136.5 37q-66 0 -124.5 -28.5t-103 -78t-70 -113t-25.5 -134.5q0 -74 31.5 -136t89.5 -99t136 -37zM475 792q-55 0 -92 33t-39 92l38 6q1 -50 27.5 -72.5t67.5 -22.5q81 0 121 95l38 -12q-23 -55 -65 -87t-96 -32z" />
    <glyph glyph-name="obreve" unicode="&#x14f;" horiz-adv-x="560" 
d="M246 -11q-55 0 -98.5 26.5t-68.5 74.5t-25 110q0 53 19 104.5t53.5 93t82 66.5t105.5 25q56 0 99 -26.5t68 -74t25 -110.5q0 -53 -19 -104.5t-53.5 -93t-82 -66.5t-105.5 -25zM248 35q55 0 102.5 32.5t77 88t29.5 123.5q0 74 -40 119t-105 45q-54 0 -102 -32.5
t-77.5 -87.5t-29.5 -124q0 -73 40 -118.5t105 -45.5zM339 573q-55 0 -92 33t-39 92l38 6q1 -50 27.5 -72.5t67.5 -22.5q81 0 121 95l38 -12q-23 -55 -65 -87t-96 -32z" />
    <glyph glyph-name="Ohungarumlaut" unicode="&#x150;" horiz-adv-x="793" 
d="M382 -11q-65 0 -120.5 24.5t-96.5 68t-63.5 102t-22.5 126.5q0 83 30.5 155.5t83.5 128t121.5 86.5t143.5 31q65 0 120.5 -24.5t96.5 -68t63.5 -102t22.5 -126.5q0 -83 -30.5 -155.5t-83.5 -128t-121.5 -86.5t-143.5 -31zM387 37q66 0 124.5 28.5t103 78t70 113
t25.5 134.5q0 74 -31.5 136t-89 99t-136.5 37q-66 0 -124.5 -28.5t-103 -78t-70 -113t-25.5 -134.5q0 -74 31.5 -136t89.5 -99t136 -37zM481 914h69l-160 -118h-57zM637 914h69l-160 -118h-57z" />
    <glyph glyph-name="ohungarumlaut" unicode="&#x151;" horiz-adv-x="560" 
d="M246 -11q-55 0 -98.5 26.5t-68.5 74.5t-25 110q0 53 19 104.5t53.5 93t82 66.5t105.5 25q56 0 99 -26.5t68 -74t25 -110.5q0 -53 -19 -104.5t-53.5 -93t-82 -66.5t-105.5 -25zM248 35q55 0 102.5 32.5t77 88t29.5 123.5q0 74 -40 119t-105 45q-54 0 -102 -32.5
t-77.5 -87.5t-29.5 -124q0 -73 40 -118.5t105 -45.5zM345 695h69l-160 -118h-57zM501 695h69l-160 -118h-57z" />
    <glyph glyph-name="OE" unicode="&#x152;" horiz-adv-x="1034" 
d="M370 0q-84 0 -149.5 41t-103.5 112t-38 159q0 79 28 149t77.5 124t114.5 84.5t138 30.5h647l-10 -47h-486q71 -44 105.5 -115.5t34.5 -160.5h171l-10 -47h-165q-14 -92 -67 -166.5t-129 -116.5h421l-10 -47h-569zM371 48q62 0 117 26.5t97.5 73.5t67 108t24.5 130
q0 76 -30.5 136t-85 95t-125.5 35q-62 0 -117 -26.5t-97.5 -73.5t-67 -108t-24.5 -130q0 -76 30.5 -136t85 -95t125.5 -35z" />
    <glyph glyph-name="oe" unicode="&#x153;" horiz-adv-x="933" 
d="M246 -11q-55 0 -98.5 26.5t-68.5 74.5t-25 110q0 53 19 104.5t53.5 93t82 66.5t105.5 25q65 0 112.5 -37.5t66.5 -100.5q34 62 91.5 100t124.5 38q53 0 93 -25t63 -68.5t23 -100.5q0 -16 -1 -31.5t-3 -32.5h-381q-6 -56 12 -100t55 -69.5t88 -25.5q32 0 67.5 11.5
t69.5 33.5l26 -38q-40 -26 -81.5 -39.5t-82.5 -13.5q-69 0 -120.5 39t-71.5 102q-32 -61 -88.5 -101.5t-130.5 -40.5zM248 35q55 0 102.5 32.5t77 88t29.5 123.5q0 74 -40 119t-105 45q-54 0 -102 -32.5t-77.5 -87.5t-29.5 -124q0 -73 40 -118.5t105 -45.5zM706 443
q-44 0 -83.5 -22t-68.5 -60.5t-43 -88.5h328q5 48 -10.5 87t-46.5 61.5t-76 22.5z" />
    <glyph glyph-name="Racute" unicode="&#x154;" horiz-adv-x="619" 
d="M39 0l149 700h252q58 0 100 -20.5t65 -59t23 -91.5q0 -57 -24 -103t-67.5 -76t-100.5 -39l87 -311h-51l-86 308h-230l-66 -308h-51zM166 355h224q55 0 97 22t66 61t24 89q0 59 -38.5 92.5t-105.5 33.5h-204zM382 798l126 116h76l-152 -116h-50z" />
    <glyph glyph-name="racute" unicode="&#x155;" horiz-adv-x="320" 
d="M25 0l105 481h49l-18 -83q27 44 64 67.5t80 23.5q30 0 49 -7l-10 -46q-13 5 -26 7t-25 2q-41 0 -78 -26t-66 -74l-75 -345h-49zM211 579l126 116h76l-152 -116h-50z" />
    <glyph glyph-name="uni0156" unicode="&#x156;" horiz-adv-x="619" 
d="M39 0l149 700h252q58 0 100 -20.5t65 -59t23 -91.5q0 -57 -24 -103t-67.5 -76t-100.5 -39l87 -311h-51l-86 308h-230l-66 -308h-51zM166 355h224q55 0 97 22t66 61t24 89q0 59 -38.5 92.5t-105.5 33.5h-204zM128 -266l81 180h56l-98 -180h-39z" />
    <glyph glyph-name="uni0157" unicode="&#x157;" horiz-adv-x="320" 
d="M25 0l105 481h49l-18 -83q27 44 64 67.5t80 23.5q30 0 49 -7l-10 -46q-13 5 -26 7t-25 2q-41 0 -78 -26t-66 -74l-75 -345h-49zM-75 -266l81 180h56l-98 -180h-39z" />
    <glyph glyph-name="Rcaron" unicode="&#x158;" horiz-adv-x="619" 
d="M39 0l149 700h252q58 0 100 -20.5t65 -59t23 -91.5q0 -57 -24 -103t-67.5 -76t-100.5 -39l87 -311h-51l-86 308h-230l-66 -308h-51zM166 355h224q55 0 97 22t66 61t24 89q0 59 -38.5 92.5t-105.5 33.5h-204zM394 796l-83 121h41l75 -89l111 89h46l-133 -121h-57z" />
    <glyph glyph-name="rcaron" unicode="&#x159;" horiz-adv-x="320" 
d="M25 0l105 481h49l-18 -83q27 44 64 67.5t80 23.5q30 0 49 -7l-10 -46q-13 5 -26 7t-25 2q-41 0 -78 -26t-66 -74l-75 -345h-49zM223 577l-83 121h41l75 -89l111 89h46l-133 -121h-57z" />
    <glyph glyph-name="Sacute" unicode="&#x15a;" horiz-adv-x="604" 
d="M306 -11q-77 0 -154.5 37t-129.5 110l37 35q44 -67 112 -100.5t136 -33.5q58 0 102.5 20t70 55.5t25.5 81.5q0 50 -33.5 81t-113.5 51l-98 25q-79 20 -120 63t-41 107q0 58 29.5 100.5t82.5 66t123 23.5q75 0 144.5 -28.5t127.5 -83.5l-34 -38q-49 48 -112 75t-128 27
q-82 0 -132 -38t-50 -100q0 -48 30.5 -78.5t94.5 -47.5l98 -25q95 -24 139 -66.5t44 -109.5q0 -61 -32 -108t-88.5 -74t-129.5 -27zM340 798l126 116h76l-152 -116h-50z" />
    <glyph glyph-name="sacute" unicode="&#x15b;" horiz-adv-x="427" 
d="M194 -10q-52 0 -99.5 20t-85.5 60l33 32q41 -37 77 -52.5t76 -15.5q56 0 94 29.5t38 72.5q0 29 -19 46.5t-64 30.5l-70 20q-55 16 -81.5 45.5t-26.5 76.5q0 59 45.5 96.5t116.5 37.5q47 0 93.5 -19t88.5 -54l-30 -36q-43 35 -80 50t-73 15q-51 0 -82.5 -25t-31.5 -63
q0 -31 17 -49.5t56 -29.5l71 -21q62 -19 89.5 -46t27.5 -71q0 -43 -23 -77t-63.5 -53.5t-93.5 -19.5zM208 579l126 116h76l-152 -116h-50z" />
    <glyph glyph-name="Scircumflex" unicode="&#x15c;" horiz-adv-x="604" 
d="M306 -11q-77 0 -154.5 37t-129.5 110l37 35q44 -67 112 -100.5t136 -33.5q58 0 102.5 20t70 55.5t25.5 81.5q0 50 -33.5 81t-113.5 51l-98 25q-79 20 -120 63t-41 107q0 58 29.5 100.5t82.5 66t123 23.5q75 0 144.5 -28.5t127.5 -83.5l-34 -38q-49 48 -112 75t-128 27
q-82 0 -132 -38t-50 -100q0 -48 30.5 -78.5t94.5 -47.5l98 -25q95 -24 139 -66.5t44 -109.5q0 -61 -32 -108t-88.5 -74t-129.5 -27zM242 793l132 121h57l84 -121h-40l-77 89l-113 -89h-43z" />
    <glyph glyph-name="scircumflex" unicode="&#x15d;" horiz-adv-x="427" 
d="M194 -10q-52 0 -99.5 20t-85.5 60l33 32q41 -37 77 -52.5t76 -15.5q56 0 94 29.5t38 72.5q0 29 -19 46.5t-64 30.5l-70 20q-55 16 -81.5 45.5t-26.5 76.5q0 59 45.5 96.5t116.5 37.5q47 0 93.5 -19t88.5 -54l-30 -36q-43 35 -80 50t-73 15q-51 0 -82.5 -25t-31.5 -63
q0 -31 17 -49.5t56 -29.5l71 -21q62 -19 89.5 -46t27.5 -71q0 -43 -23 -77t-63.5 -53.5t-93.5 -19.5zM110 574l132 121h57l84 -121h-40l-77 89l-113 -89h-43z" />
    <glyph glyph-name="Scedilla" unicode="&#x15e;" horiz-adv-x="604" 
d="M254 -235q-34 0 -59.5 12t-39.5 28l24 24q30 -33 73 -33q38 0 57.5 17.5t19.5 42.5q0 23 -18.5 35.5t-49.5 12.5h-24l39 86q-70 7 -138 43.5t-115 102.5l37 35q44 -67 113 -100.5t137 -33.5q58 0 102 20t69 55.5t25 81.5q0 50 -34 81t-114 51l-98 25q-79 20 -120 63
t-41 107q0 58 29 100.5t82 66t123 23.5q75 0 145 -28.5t128 -83.5l-34 -38q-49 48 -112 75t-128 27q-82 0 -132 -38t-50 -100q0 -48 30.5 -78.5t94.5 -47.5l98 -25q95 -24 139.5 -66.5t44.5 -109.5q0 -61 -32 -108t-88 -74t-129 -27l-25 -57q40 -3 60.5 -22t20.5 -48
q0 -28 -14.5 -50t-39.5 -34.5t-56 -12.5z" />
    <glyph glyph-name="scedilla" unicode="&#x15f;" horiz-adv-x="427" 
d="M146 -235q-34 0 -59.5 12t-39.5 28l24 24q30 -33 73 -33q38 0 57.5 17.5t19.5 42.5q0 23 -18.5 35.5t-49.5 12.5h-24l39 87q-46 5 -85 24.5t-74 54.5l33 32q44 -37 78 -51.5t74 -14.5q56 0 94.5 28.5t38.5 71.5q0 29 -19 46.5t-64 30.5l-70 20q-55 16 -81.5 46.5
t-26.5 77.5q0 59 45.5 95.5t116.5 36.5q98 0 182 -73l-30 -36q-44 33 -80.5 48t-72.5 15q-51 0 -82.5 -24t-31.5 -62q0 -31 17 -49.5t56 -29.5l71 -21q62 -19 89.5 -47t27.5 -72q0 -42 -22 -75t-61 -52t-90 -21l-26 -58q40 -3 60.5 -22t20.5 -48q0 -28 -14.5 -50
t-39.5 -34.5t-56 -12.5z" />
    <glyph glyph-name="Scaron" unicode="&#x160;" horiz-adv-x="604" 
d="M306 -11q-77 0 -154.5 37t-129.5 110l37 35q44 -67 112 -100.5t136 -33.5q58 0 102.5 20t70 55.5t25.5 81.5q0 50 -33.5 81t-113.5 51l-98 25q-79 20 -120 63t-41 107q0 58 29.5 100.5t82.5 66t123 23.5q75 0 144.5 -28.5t127.5 -83.5l-34 -38q-49 48 -112 75t-128 27
q-82 0 -132 -38t-50 -100q0 -48 30.5 -78.5t94.5 -47.5l98 -25q95 -24 139 -66.5t44 -109.5q0 -61 -32 -108t-88.5 -74t-129.5 -27zM352 796l-83 121h41l75 -89l111 89h46l-133 -121h-57z" />
    <glyph glyph-name="scaron" unicode="&#x161;" horiz-adv-x="427" 
d="M194 -10q-52 0 -99.5 20t-85.5 60l33 32q41 -37 77 -52.5t76 -15.5q56 0 94 29.5t38 72.5q0 29 -19 46.5t-64 30.5l-70 20q-55 16 -81.5 45.5t-26.5 76.5q0 59 45.5 96.5t116.5 37.5q47 0 93.5 -19t88.5 -54l-30 -36q-43 35 -80 50t-73 15q-51 0 -82.5 -25t-31.5 -63
q0 -31 17 -49.5t56 -29.5l71 -21q62 -19 89.5 -46t27.5 -71q0 -43 -23 -77t-63.5 -53.5t-93.5 -19.5zM220 577l-83 121h41l75 -89l111 89h46l-133 -121h-57z" />
    <glyph glyph-name="uni0162" unicode="&#x162;" horiz-adv-x="592" 
d="M201 -235q-34 0 -59.5 12t-39.5 28l24 24q30 -33 73 -33q38 0 57.5 17.5t19.5 42.5q0 23 -18.5 35.5t-49.5 12.5h-24l43 96h-8l139 653h-240l10 47h531l-10 -47h-240l-139 -653h-10l-30 -68q40 -3 60.5 -22t20.5 -48q0 -28 -14.5 -50t-39.5 -34.5t-56 -12.5z" />
    <glyph glyph-name="uni0163" unicode="&#x163;" horiz-adv-x="345" 
d="M147 -235q-34 0 -59.5 12t-39.5 28l24 24q30 -33 73 -33q38 0 57.5 17.5t19.5 42.5q0 23 -18.5 35.5t-49.5 12.5h-24l40 89q-45 8 -62.5 41.5t-7.5 79.5l69 324h-98l9 43h98l28 131l52 13l-31 -144h139l-9 -43h-139l-68 -321q-9 -43 6 -62t62 -19q13 0 25 2.5t30 7.5
l-10 -46q-16 -5 -31.5 -7.5t-29.5 -2.5l-26 -58q40 -3 60.5 -22t20.5 -48q0 -28 -14.5 -50t-39.5 -34.5t-56 -12.5z" />
    <glyph glyph-name="Tcaron" unicode="&#x164;" horiz-adv-x="592" 
d="M219 0l139 653h-240l10 47h531l-10 -47h-240l-139 -653h-51zM387 796l-83 121h41l75 -89l111 89h46l-133 -121h-57z" />
    <glyph glyph-name="tcaron" unicode="&#x165;" horiz-adv-x="345" 
d="M302 552l40 173l55 12l-59 -185h-36zM200 -10q-61 0 -86 35t-14 89l69 324h-98l9 43h98l28 131l52 13l-31 -144h139l-9 -43h-139l-68 -321q-9 -43 6 -62t62 -19q13 0 25 2.5t30 7.5l-10 -46q-16 -5 -31.5 -7.5t-31.5 -2.5z" />
    <glyph glyph-name="Tbar" unicode="&#x166;" horiz-adv-x="592" 
d="M219 0l70 329h-159l9 44h159l60 280h-240l10 47h531l-10 -47h-240l-60 -280h159l-9 -44h-159l-70 -329h-51z" />
    <glyph glyph-name="tbar" unicode="&#x167;" horiz-adv-x="350" 
d="M200 -10q-61 0 -86 35t-14 89l31 144h-93l8 40h93l30 140h-98l9 43h98l28 131l52 13l-31 -144h139l-9 -43h-139l-30 -140h144l-8 -40h-144l-30 -141q-9 -43 6 -62t62 -19q13 0 25 2.5t30 7.5l-10 -46q-16 -5 -31.5 -7.5t-31.5 -2.5z" />
    <glyph glyph-name="Utilde" unicode="&#x168;" horiz-adv-x="688" 
d="M315 -11q-85 0 -142.5 40t-80 110.5t-3.5 159.5l86 401h51l-88 -411q-16 -75 1 -131.5t61.5 -88.5t113.5 -32q96 0 162.5 62.5t93.5 189.5l88 411h51l-90 -421q-20 -95 -63 -160t-104 -97.5t-137 -32.5zM349 801l-39 13q20 45 45.5 64.5t52.5 19.5q21 0 39 -9t34 -21
t31 -21t30 -9q17 0 29 12t27 46l39 -11q-20 -46 -44 -66t-50 -20q-21 0 -39 9t-34 20.5t-31 20.5t-30 9q-18 0 -32 -13t-28 -44z" />
    <glyph glyph-name="utilde" unicode="&#x169;" horiz-adv-x="524" 
d="M211 -8q-53 0 -91 25t-54 70t-3 104l63 290h49l-62 -282q-16 -74 15 -118.5t96 -44.5q41 0 78.5 19.5t66.5 55.5l79 370h49l-103 -481h-49l14 66q-31 -36 -67.5 -55t-80.5 -19zM212 582l-39 13q20 45 45.5 64.5t52.5 19.5q21 0 39 -9t34 -21t31 -21t30 -9q17 0 29 12
t27 46l39 -11q-20 -46 -44 -66t-50 -20q-21 0 -39 9t-34 20.5t-31 20.5t-30 9q-18 0 -32 -13t-28 -44z" />
    <glyph glyph-name="Umacron" unicode="&#x16a;" horiz-adv-x="688" 
d="M315 -11q-85 0 -142.5 40t-80 110.5t-3.5 159.5l86 401h51l-88 -411q-16 -75 1 -131.5t61.5 -88.5t113.5 -32q96 0 162.5 62.5t93.5 189.5l88 411h51l-90 -421q-20 -95 -63 -160t-104 -97.5t-137 -32.5zM343 826l8 40h253l-8 -40h-253z" />
    <glyph glyph-name="umacron" unicode="&#x16b;" horiz-adv-x="524" 
d="M211 -8q-53 0 -91 25t-54 70t-3 104l63 290h49l-62 -282q-16 -74 15 -118.5t96 -44.5q41 0 78.5 19.5t66.5 55.5l79 370h49l-103 -481h-49l14 66q-31 -36 -67.5 -55t-80.5 -19zM206 607l8 40h253l-8 -40h-253z" />
    <glyph glyph-name="Ubreve" unicode="&#x16c;" horiz-adv-x="688" 
d="M315 -11q-85 0 -142.5 40t-80 110.5t-3.5 159.5l86 401h51l-88 -411q-16 -75 1 -131.5t61.5 -88.5t113.5 -32q96 0 162.5 62.5t93.5 189.5l88 411h51l-90 -421q-20 -95 -63 -160t-104 -97.5t-137 -32.5zM468 792q-55 0 -92 33t-39 92l38 6q1 -50 27.5 -72.5t67.5 -22.5
q81 0 121 95l38 -12q-23 -55 -65 -87t-96 -32z" />
    <glyph glyph-name="ubreve" unicode="&#x16d;" horiz-adv-x="524" 
d="M211 -8q-53 0 -91 25t-54 70t-3 104l63 290h49l-62 -282q-16 -74 15 -118.5t96 -44.5q41 0 78.5 19.5t66.5 55.5l79 370h49l-103 -481h-49l14 66q-31 -36 -67.5 -55t-80.5 -19zM331 573q-55 0 -92 33t-39 92l38 6q1 -50 27.5 -72.5t67.5 -22.5q81 0 121 95l38 -12
q-23 -55 -65 -87t-96 -32z" />
    <glyph glyph-name="Uring" unicode="&#x16e;" horiz-adv-x="688" 
d="M315 -11q-85 0 -142.5 40t-80 110.5t-3.5 159.5l86 401h51l-88 -411q-16 -75 1 -131.5t61.5 -88.5t113.5 -32q96 0 162.5 62.5t93.5 189.5l88 411h51l-90 -421q-20 -95 -63 -160t-104 -97.5t-137 -32.5zM473 787q-43 0 -69.5 26.5t-26.5 68.5q0 32 16 59t42.5 44t57.5 17
q43 0 69.5 -26.5t26.5 -68.5q0 -31 -16 -58.5t-42 -44.5t-58 -17zM474 821q33 0 56.5 25t23.5 59q0 29 -18.5 46t-43.5 17q-33 0 -56.5 -25t-23.5 -59q0 -29 18.5 -46t43.5 -17z" />
    <glyph glyph-name="uring" unicode="&#x16f;" horiz-adv-x="524" 
d="M211 -8q-53 0 -91 25t-54 70t-3 104l63 290h49l-62 -282q-16 -74 15 -118.5t96 -44.5q41 0 78.5 19.5t66.5 55.5l79 370h49l-103 -481h-49l14 66q-31 -36 -67.5 -55t-80.5 -19zM336 568q-43 0 -69.5 26.5t-26.5 68.5q0 32 16 59t42.5 44t57.5 17q43 0 69.5 -26.5
t26.5 -68.5q0 -31 -16 -58.5t-42 -44.5t-58 -17zM337 602q33 0 56.5 25t23.5 59q0 29 -18.5 46t-43.5 17q-33 0 -56.5 -25t-23.5 -59q0 -29 18.5 -46t43.5 -17z" />
    <glyph glyph-name="Uhungarumlaut" unicode="&#x170;" horiz-adv-x="688" 
d="M315 -11q-85 0 -142.5 40t-80 110.5t-3.5 159.5l86 401h51l-88 -411q-16 -75 1 -131.5t61.5 -88.5t113.5 -32q96 0 162.5 62.5t93.5 189.5l88 411h51l-90 -421q-20 -95 -63 -160t-104 -97.5t-137 -32.5zM474 914h69l-160 -118h-57zM630 914h69l-160 -118h-57z" />
    <glyph glyph-name="uhungarumlaut" unicode="&#x171;" horiz-adv-x="524" 
d="M211 -8q-53 0 -91 25t-54 70t-3 104l63 290h49l-62 -282q-16 -74 15 -118.5t96 -44.5q41 0 78.5 19.5t66.5 55.5l79 370h49l-103 -481h-49l14 66q-31 -36 -67.5 -55t-80.5 -19zM337 695h69l-160 -118h-57zM493 695h69l-160 -118h-57z" />
    <glyph glyph-name="Uogonek" unicode="&#x172;" horiz-adv-x="688" 
d="M312 -232q-49 0 -73 23.5t-24 54.5q0 33 22.5 69t82.5 74q-89 0 -147.5 40t-80.5 110.5t-3 159.5l86 401h51l-88 -411q-16 -75 1 -131.5t61.5 -88.5t113.5 -32q96 0 162.5 62.5t93.5 189.5l88 411h51l-90 -421q-25 -120 -85.5 -191t-147.5 -91q-76 -41 -103.5 -76
t-27.5 -67q0 -22 18.5 -36.5t46.5 -14.5q11 0 23.5 2.5t22.5 6.5l3 -32q-11 -5 -26 -8.5t-31 -3.5z" />
    <glyph glyph-name="uogonek" unicode="&#x173;" horiz-adv-x="524" 
d="M314 -232q-49 0 -73 23.5t-24 54.5q0 84 129 154h-1l14 66q-31 -36 -67.5 -55t-80.5 -19q-53 0 -91 25t-54 70t-3 104l63 290h49l-62 -282q-16 -74 15 -118.5t96 -44.5q41 0 78.5 19.5t66.5 55.5l79 370h49l-103 -481q-79 -42 -108 -77.5t-29 -68.5q0 -22 18.5 -36.5
t46.5 -14.5q11 0 23.5 2.5t22.5 6.5l3 -32q-11 -5 -26 -8.5t-31 -3.5z" />
    <glyph glyph-name="Wcircumflex" unicode="&#x174;" horiz-adv-x="857" 
d="M160 0l-18 700h50l15 -607l293 607h51l35 -612l273 612h52l-316 -700h-49l-35 626l-302 -626h-49zM408 793l132 121h57l84 -121h-40l-77 89l-113 -89h-43z" />
    <glyph glyph-name="wcircumflex" unicode="&#x175;" horiz-adv-x="662" 
d="M107 0l-26 481h47l19 -409l210 409h46l33 -411l196 411h50l-234 -481h-48l-32 414l-212 -414h-49zM260 574l132 121h57l84 -121h-40l-77 89l-113 -89h-43z" />
    <glyph glyph-name="Ycircumflex" unicode="&#x176;" horiz-adv-x="609" 
d="M227 0l62 291l-176 409h54l154 -364l309 364h62l-353 -412l-61 -288h-51zM281 793l132 121h57l84 -121h-40l-77 89l-113 -89h-43z" />
    <glyph glyph-name="ycircumflex" unicode="&#x177;" horiz-adv-x="467" 
d="M6 -219q-8 0 -18.5 2t-27.5 7l9 45q12 -4 22 -6t17 -2q26 0 48 15.5t41 47.5l62 106l-87 485h52l73 -419l248 419h57l-361 -610q-28 -49 -59.5 -69.5t-75.5 -20.5zM158 574l132 121h57l84 -121h-40l-77 89l-113 -89h-43z" />
    <glyph glyph-name="Ydieresis" unicode="&#x178;" horiz-adv-x="609" 
d="M227 0l62 291l-176 409h54l154 -364l309 364h62l-353 -412l-61 -288h-51zM333 826q-17 0 -29 12.5t-12 30.5q0 21 14.5 35.5t35.5 14.5q17 0 29 -12.5t12 -30.5q0 -21 -14.5 -35.5t-35.5 -14.5zM527 826q-17 0 -29 12.5t-12 30.5q0 21 14.5 35.5t35.5 14.5q17 0 29 -12.5
t12 -30.5q0 -21 -14.5 -35.5t-35.5 -14.5z" />
    <glyph glyph-name="Zacute" unicode="&#x179;" horiz-adv-x="588" 
d="M-12 0l8 39l565 614h-432l10 47h503l-8 -39l-565 -614h444l-10 -47h-515zM348 798l126 116h76l-152 -116h-50z" />
    <glyph glyph-name="zacute" unicode="&#x17a;" horiz-adv-x="436" 
d="M-10 0l9 43l369 392h-280l10 46h345l-9 -43l-369 -392h285l-10 -46h-350zM239 579l126 116h76l-152 -116h-50z" />
    <glyph glyph-name="Zdotaccent" unicode="&#x17b;" horiz-adv-x="588" 
d="M-12 0l8 39l565 614h-432l10 47h503l-8 -39l-565 -614h444l-10 -47h-515zM399 826q-17 0 -29 12.5t-12 30.5q0 21 14.5 35.5t35.5 14.5q17 0 29 -12.5t12 -30.5q0 -14 -6.5 -25.5t-18 -18t-25.5 -6.5z" />
    <glyph glyph-name="zdotaccent" unicode="&#x17c;" horiz-adv-x="436" 
d="M-10 0l9 43l369 392h-280l10 46h345l-9 -43l-369 -392h285l-10 -46h-350zM290 607q-17 0 -29 12.5t-12 30.5q0 21 14.5 35.5t35.5 14.5q17 0 29 -12.5t12 -30.5q0 -14 -6.5 -25.5t-18 -18t-25.5 -6.5z" />
    <glyph glyph-name="Zcaron" unicode="&#x17d;" horiz-adv-x="588" 
d="M-12 0l8 39l565 614h-432l10 47h503l-8 -39l-565 -614h444l-10 -47h-515zM360 796l-83 121h41l75 -89l111 89h46l-133 -121h-57z" />
    <glyph glyph-name="zcaron" unicode="&#x17e;" horiz-adv-x="436" 
d="M-10 0l9 43l369 392h-280l10 46h345l-9 -43l-369 -392h285l-10 -46h-350zM251 577l-83 121h41l75 -89l111 89h46l-133 -121h-57z" />
    <glyph glyph-name="uni0218" unicode="&#x218;" horiz-adv-x="604" 
d="M306 -11q-77 0 -154.5 37t-129.5 110l37 35q44 -67 112 -100.5t136 -33.5q58 0 102.5 20t70 55.5t25.5 81.5q0 50 -33.5 81t-113.5 51l-98 25q-79 20 -120 63t-41 107q0 58 29.5 100.5t82.5 66t123 23.5q75 0 144.5 -28.5t127.5 -83.5l-34 -38q-49 48 -112 75t-128 27
q-82 0 -132 -38t-50 -100q0 -48 30.5 -78.5t94.5 -47.5l98 -25q95 -24 139 -66.5t44 -109.5q0 -61 -32 -108t-88.5 -74t-129.5 -27zM174 -266l81 180h56l-98 -180h-39z" />
    <glyph glyph-name="uni0219" unicode="&#x219;" horiz-adv-x="427" 
d="M194 -10q-52 0 -99.5 20t-85.5 60l33 32q41 -37 77 -52.5t76 -15.5q56 0 94 29.5t38 72.5q0 29 -19 46.5t-64 30.5l-70 20q-55 16 -81.5 45.5t-26.5 76.5q0 59 45.5 96.5t116.5 37.5q47 0 93.5 -19t88.5 -54l-30 -36q-43 35 -80 50t-73 15q-51 0 -82.5 -25t-31.5 -63
q0 -31 17 -49.5t56 -29.5l71 -21q62 -19 89.5 -46t27.5 -71q0 -43 -23 -77t-63.5 -53.5t-93.5 -19.5zM66 -266l81 180h56l-98 -180h-39z" />
    <glyph glyph-name="uni021A" unicode="&#x21a;" horiz-adv-x="592" 
d="M219 0l139 653h-240l10 47h531l-10 -47h-240l-139 -653h-51zM121 -266l81 180h56l-98 -180h-39z" />
    <glyph glyph-name="uni021B" unicode="&#x21b;" horiz-adv-x="345" 
d="M200 -10q-61 0 -86 35t-14 89l69 324h-98l9 43h98l28 131l52 13l-31 -144h139l-9 -43h-139l-68 -321q-9 -43 6 -62t62 -19q13 0 25 2.5t30 7.5l-10 -46q-16 -5 -31.5 -7.5t-31.5 -2.5zM62 -266l81 180h56l-98 -180h-39z" />
    <glyph glyph-name="uni0237" unicode="&#x237;" horiz-adv-x="204" 
d="M-71 -219q-10 0 -21 1.5t-20 4.5l10 47q17 -7 37 -7q29 0 45.5 16t23.5 52l125 586h49l-127 -591q-12 -57 -40 -83t-82 -26z" />
    <glyph glyph-name="uni02BB" unicode="&#x2bb;" horiz-adv-x="250" 
d="M278 750l-95 -212h-58l112 212h41z" />
    <glyph glyph-name="uni02BC" unicode="&#x2bc;" horiz-adv-x="250" 
d="M125 538l95 212h58l-112 -212h-41z" />
    <glyph glyph-name="circumflex" unicode="&#x2c6;" 
d="M234 574l132 121h57l84 -121h-40l-77 89l-113 -89h-43z" />
    <glyph glyph-name="caron" unicode="&#x2c7;" 
d="M344 577l-83 121h41l75 -89l111 89h46l-133 -121h-57z" />
    <glyph glyph-name="breve" unicode="&#x2d8;" 
d="M377 573q-55 0 -92 33t-39 92l38 6q1 -50 27.5 -72.5t67.5 -22.5q81 0 121 95l38 -12q-23 -55 -65 -87t-96 -32z" />
    <glyph glyph-name="dotaccent" unicode="&#x2d9;" 
d="M393 607q-17 0 -29 12.5t-12 30.5q0 21 14.5 35.5t35.5 14.5q17 0 29 -12.5t12 -30.5q0 -14 -6.5 -25.5t-18 -18t-25.5 -6.5z" />
    <glyph glyph-name="ring" unicode="&#x2da;" 
d="M382 568q-43 0 -69.5 26.5t-26.5 68.5q0 32 16 59t42.5 44t57.5 17q43 0 69.5 -26.5t26.5 -68.5q0 -31 -16 -58.5t-42 -44.5t-58 -17zM383 602q33 0 56.5 25t23.5 59q0 29 -18.5 46t-43.5 17q-33 0 -56.5 -25t-23.5 -59q0 -29 18.5 -46t43.5 -17z" />
    <glyph glyph-name="ogonek" unicode="&#x2db;" 
d="M220 -232q-49 0 -73 23.5t-24 54.5q0 39 32.5 82t120.5 89l24 -17q-79 -42 -108 -77.5t-29 -68.5q0 -22 18.5 -36.5t46.5 -14.5q11 0 23.5 2.5t22.5 6.5l3 -32q-11 -5 -26 -8.5t-31 -3.5z" />
    <glyph glyph-name="tilde" unicode="&#x2dc;" 
d="M258 582l-39 13q20 45 45.5 64.5t52.5 19.5q21 0 39 -9t34 -21t31 -21t30 -9q17 0 29 12t27 46l39 -11q-20 -46 -44 -66t-50 -20q-21 0 -39 9t-34 20.5t-31 20.5t-30 9q-18 0 -32 -13t-28 -44z" />
    <glyph glyph-name="hungarumlaut" unicode="&#x2dd;" 
d="M383 695h69l-160 -118h-57zM539 695h69l-160 -118h-57z" />
    <glyph glyph-name="gravecomb" unicode="&#x300;" horiz-adv-x="0" 
d="M362 579l-130 116h75l103 -116h-48z" />
    <glyph glyph-name="acutecomb" unicode="&#x301;" horiz-adv-x="0" 
d="M332 579l126 116h76l-152 -116h-50z" />
    <glyph glyph-name="uni0302" unicode="&#x302;" horiz-adv-x="0" 
d="M234 574l132 121h57l84 -121h-40l-77 89l-113 -89h-43z" />
    <glyph glyph-name="tildecomb" unicode="&#x303;" horiz-adv-x="0" 
d="M258 582l-39 13q20 45 45.5 64.5t52.5 19.5q21 0 39 -9t34 -21t31 -21t30 -9q17 0 29 12t27 46l39 -11q-20 -46 -44 -66t-50 -20q-21 0 -39 9t-34 20.5t-31 20.5t-30 9q-18 0 -32 -13t-28 -44z" />
    <glyph glyph-name="uni0304" unicode="&#x304;" horiz-adv-x="0" 
d="M252 607l8 40h253l-8 -40h-253z" />
    <glyph glyph-name="uni0306" unicode="&#x306;" horiz-adv-x="0" 
d="M377 573q-55 0 -92 33t-39 92l38 6q1 -50 27.5 -72.5t67.5 -22.5q81 0 121 95l38 -12q-23 -55 -65 -87t-96 -32z" />
    <glyph glyph-name="uni0307" unicode="&#x307;" horiz-adv-x="0" 
d="M393 607q-17 0 -29 12.5t-12 30.5q0 21 14.5 35.5t35.5 14.5q17 0 29 -12.5t12 -30.5q0 -14 -6.5 -25.5t-18 -18t-25.5 -6.5z" />
    <glyph glyph-name="uni0308" unicode="&#x308;" horiz-adv-x="0" 
d="M286 607q-17 0 -29 12.5t-12 30.5q0 21 14.5 35.5t35.5 14.5q17 0 29 -12.5t12 -30.5q0 -21 -14.5 -35.5t-35.5 -14.5zM480 607q-17 0 -29 12.5t-12 30.5q0 21 14.5 35.5t35.5 14.5q17 0 29 -12.5t12 -30.5q0 -21 -14.5 -35.5t-35.5 -14.5z" />
    <glyph glyph-name="uni030A" unicode="&#x30a;" horiz-adv-x="0" 
d="M382 568q-43 0 -69.5 26.5t-26.5 68.5q0 32 16 59t42.5 44t57.5 17q43 0 69.5 -26.5t26.5 -68.5q0 -31 -16 -58.5t-42 -44.5t-58 -17zM383 602q33 0 56.5 25t23.5 59q0 29 -18.5 46t-43.5 17q-33 0 -56.5 -25t-23.5 -59q0 -29 18.5 -46t43.5 -17z" />
    <glyph glyph-name="uni030B" unicode="&#x30b;" horiz-adv-x="0" 
d="M383 695h69l-160 -118h-57zM539 695h69l-160 -118h-57z" />
    <glyph glyph-name="uni030C" unicode="&#x30c;" horiz-adv-x="0" 
d="M344 577l-83 121h41l75 -89l111 89h46l-133 -121h-57z" />
    <glyph glyph-name="uni0312" unicode="&#x312;" horiz-adv-x="0" 
d="M125 538l112 212h41l-95 -212h-58z" />
    <glyph glyph-name="uni0326" unicode="&#x326;" horiz-adv-x="0" 
d="M125 -266l81 180h56l-98 -180h-39z" />
    <glyph glyph-name="uni0327" unicode="&#x327;" horiz-adv-x="0" 
d="M206 -235q-34 0 -59.5 12t-39.5 28l24 24q30 -33 73 -33q38 0 57.5 17.5t19.5 42.5q0 23 -18.5 35.5t-49.5 12.5h-24l43 96h33l-30 -68q40 -3 60.5 -22t20.5 -48q0 -28 -14.5 -50t-39.5 -34.5t-56 -12.5z" />
    <glyph glyph-name="uni0328" unicode="&#x328;" horiz-adv-x="0" 
d="M220 -232q-49 0 -73 23.5t-24 54.5q0 39 32.5 82t120.5 89l24 -17q-79 -42 -108 -77.5t-29 -68.5q0 -22 18.5 -36.5t46.5 -14.5q11 0 23.5 2.5t22.5 6.5l3 -32q-11 -5 -26 -8.5t-31 -3.5z" />
    <glyph glyph-name="Wgrave" unicode="&#x1e80;" horiz-adv-x="857" 
d="M160 0l-18 700h50l15 -607l293 607h51l35 -612l273 612h52l-316 -700h-49l-35 626l-302 -626h-49zM536 798l-130 116h75l103 -116h-48z" />
    <glyph glyph-name="wgrave" unicode="&#x1e81;" horiz-adv-x="662" 
d="M107 0l-26 481h47l19 -409l210 409h46l33 -411l196 411h50l-234 -481h-48l-32 414l-212 -414h-49zM388 579l-130 116h75l103 -116h-48z" />
    <glyph glyph-name="Wacute" unicode="&#x1e82;" horiz-adv-x="857" 
d="M160 0l-18 700h50l15 -607l293 607h51l35 -612l273 612h52l-316 -700h-49l-35 626l-302 -626h-49zM506 798l126 116h76l-152 -116h-50z" />
    <glyph glyph-name="wacute" unicode="&#x1e83;" horiz-adv-x="662" 
d="M107 0l-26 481h47l19 -409l210 409h46l33 -411l196 411h50l-234 -481h-48l-32 414l-212 -414h-49zM358 579l126 116h76l-152 -116h-50z" />
    <glyph glyph-name="Wdieresis" unicode="&#x1e84;" horiz-adv-x="857" 
d="M160 0l-18 700h50l15 -607l293 607h51l35 -612l273 612h52l-316 -700h-49l-35 626l-302 -626h-49zM460 826q-17 0 -29 12.5t-12 30.5q0 21 14.5 35.5t35.5 14.5q17 0 29 -12.5t12 -30.5q0 -21 -14.5 -35.5t-35.5 -14.5zM654 826q-17 0 -29 12.5t-12 30.5q0 21 14.5 35.5
t35.5 14.5q17 0 29 -12.5t12 -30.5q0 -21 -14.5 -35.5t-35.5 -14.5z" />
    <glyph glyph-name="wdieresis" unicode="&#x1e85;" horiz-adv-x="662" 
d="M107 0l-26 481h47l19 -409l210 409h46l33 -411l196 411h50l-234 -481h-48l-32 414l-212 -414h-49zM312 607q-17 0 -29 12.5t-12 30.5q0 21 14.5 35.5t35.5 14.5q17 0 29 -12.5t12 -30.5q0 -21 -14.5 -35.5t-35.5 -14.5zM506 607q-17 0 -29 12.5t-12 30.5q0 21 14.5 35.5
t35.5 14.5q17 0 29 -12.5t12 -30.5q0 -21 -14.5 -35.5t-35.5 -14.5z" />
    <glyph glyph-name="uni1E9E" unicode="&#x1e9e;" horiz-adv-x="635" 
d="M346 -11q-58 0 -95.5 14.5t-66.5 49.5l38 43q21 -29 56.5 -46t75.5 -17q43 0 79 21t58.5 55.5t22.5 74.5q0 32 -19 56t-60 48q-48 29 -69 50t-21 46q0 23 14.5 43t51.5 58l165 168h-345l-139 -653h-52l149 700h451l-13 -59l-165 -163q-39 -38 -51.5 -54t-12.5 -29
q0 -16 17.5 -30.5t57.5 -36.5q49 -26 71 -60t22 -75t-18 -78t-49.5 -65.5t-71 -44.5t-81.5 -16z" />
    <glyph glyph-name="Ygrave" unicode="&#x1ef2;" horiz-adv-x="609" 
d="M227 0l62 291l-176 409h54l154 -364l309 364h62l-353 -412l-61 -288h-51zM409 798l-130 116h75l103 -116h-48z" />
    <glyph glyph-name="ygrave" unicode="&#x1ef3;" horiz-adv-x="467" 
d="M6 -219q-8 0 -18.5 2t-27.5 7l9 45q12 -4 22 -6t17 -2q26 0 48 15.5t41 47.5l62 106l-87 485h52l73 -419l248 419h57l-361 -610q-28 -49 -59.5 -69.5t-75.5 -20.5zM286 579l-130 116h75l103 -116h-48z" />
    <glyph glyph-name="uni2002" unicode="&#x2002;" horiz-adv-x="505" 
 />
    <glyph glyph-name="uni2003" unicode="&#x2003;" horiz-adv-x="980" 
 />
    <glyph glyph-name="uni2009" unicode="&#x2009;" horiz-adv-x="198" 
 />
    <glyph glyph-name="uni200A" unicode="&#x200a;" horiz-adv-x="125" 
 />
    <glyph glyph-name="uni200B" unicode="&#x200b;" horiz-adv-x="0" 
 />
    <glyph glyph-name="endash" unicode="&#x2013;" horiz-adv-x="536" 
d="M66 258l11 44h409l-11 -44h-409z" />
    <glyph glyph-name="emdash" unicode="&#x2014;" horiz-adv-x="675" 
d="M66 258l11 44h549l-11 -44h-549z" />
    <glyph glyph-name="uni2015" unicode="&#x2015;" horiz-adv-x="908" 
d="M66 258l11 44h781l-11 -44h-781z" />
    <glyph glyph-name="quoteleft" unicode="&#x2018;" horiz-adv-x="250" 
d="M278 750l-95 -212h-58l112 212h41z" />
    <glyph glyph-name="quoteright" unicode="&#x2019;" horiz-adv-x="250" 
d="M125 538l95 212h58l-112 -212h-41z" />
    <glyph glyph-name="quotesinglbase" unicode="&#x201a;" horiz-adv-x="250" 
d="M-21 -152l95 212h58l-112 -212h-41z" />
    <glyph glyph-name="quotedblleft" unicode="&#x201c;" horiz-adv-x="391" 
d="M278 750l-95 -212h-58l112 212h41zM419 750l-95 -212h-58l112 212h41z" />
    <glyph glyph-name="quotedblright" unicode="&#x201d;" horiz-adv-x="392" 
d="M267 538l95 212h58l-112 -212h-41zM125 538l95 212h58l-112 -212h-41z" />
    <glyph glyph-name="quotedblbase" unicode="&#x201e;" horiz-adv-x="395" 
d="M124 -152l95 212h58l-112 -212h-41zM-21 -152l95 212h58l-112 -212h-41z" />
    <glyph glyph-name="dagger" unicode="&#x2020;" horiz-adv-x="418" 
d="M134 0l96 452h-136l10 44h136l43 204h48l-43 -204h136l-10 -44h-136l-96 -452h-48z" />
    <glyph glyph-name="daggerdbl" unicode="&#x2021;" horiz-adv-x="418" 
d="M135 0l43 204h-136l9 44h137l43 204h-137l10 44h137l43 204h48l-43 -204h135l-9 -44h-136l-43 -204h135l-9 -44h-136l-43 -204h-48z" />
    <glyph glyph-name="bullet" unicode="&#x2022;" horiz-adv-x="327" 
d="M180 268q-35 0 -59.5 24t-24.5 59q0 29 14.5 52.5t38.5 38t51 14.5q35 0 58.5 -23.5t23.5 -58.5q0 -28 -14 -52.5t-37.5 -39t-50.5 -14.5z" />
    <glyph glyph-name="ellipsis" unicode="&#x2026;" horiz-adv-x="652" 
d="M74 -8q-16 0 -27.5 12t-11.5 29q0 15 7.5 26.5t20 18.5t27.5 7q17 0 28 -12t11 -29q0 -14 -7.5 -26t-20 -19t-27.5 -7zM275 -8q-16 0 -27.5 12t-11.5 29q0 15 7.5 26.5t20 18.5t27.5 7q17 0 28 -12t11 -29q0 -14 -7.5 -26t-20 -19t-27.5 -7zM476 -8q-16 0 -27.5 12
t-11.5 29q0 15 7.5 26.5t20 18.5t27.5 7q17 0 28 -12t11 -29q0 -14 -7.5 -26t-20 -19t-27.5 -7z" />
    <glyph glyph-name="perthousand" unicode="&#x2030;" horiz-adv-x="1081" 
d="M210 345q-55 0 -89 37.5t-34 99.5q0 60 23 110.5t61.5 81.5t84.5 31q56 0 89.5 -37.5t33.5 -99.5q0 -60 -23 -110.5t-61.5 -81.5t-84.5 -31zM215 381q33 0 61 26t45.5 68.5t17.5 92.5q0 47 -24 74t-63 27q-32 0 -61 -26t-46.5 -68.5t-17.5 -92.5q0 -47 24.5 -74t63.5 -27
zM102 0l544 700h48l-544 -700h-48zM538 -5q-55 0 -89 37.5t-34 99.5q0 60 23 110.5t61.5 81.5t84.5 31q56 0 89.5 -37.5t33.5 -99.5q0 -60 -23 -111t-61.5 -81.5t-84.5 -30.5zM543 31q33 0 61 26t45.5 68.5t17.5 92.5q0 47 -24 74t-63 27q-32 0 -61 -26t-46.5 -68.5
t-17.5 -92.5q0 -47 24.5 -74t63.5 -27zM873 -5q-55 0 -89 37.5t-34 99.5q0 60 23 110.5t61.5 81.5t84.5 31q56 0 89.5 -37.5t33.5 -99.5q0 -60 -23 -111t-61.5 -81.5t-84.5 -30.5zM878 31q33 0 61 26t45.5 68.5t17.5 92.5q0 47 -24 74t-63 27q-32 0 -61 -26t-46.5 -68.5
t-17.5 -92.5q0 -47 24.5 -74t63.5 -27z" />
    <glyph glyph-name="minute" unicode="&#x2032;" horiz-adv-x="250" 
d="M125 538l95 212h58l-112 -212h-41z" />
    <glyph glyph-name="second" unicode="&#x2033;" horiz-adv-x="392" 
d="M267 538l95 212h58l-112 -212h-41zM125 538l95 212h58l-112 -212h-41z" />
    <glyph glyph-name="guilsinglleft" unicode="&#x2039;" horiz-adv-x="379" 
d="M218 0l-169 241l262 240h63l-265 -245l162 -236h-53z" />
    <glyph glyph-name="guilsinglright" unicode="&#x203a;" horiz-adv-x="379" 
d="M175 481l169 -241l-262 -240h-63l265 245l-162 236h53z" />
    <glyph glyph-name="fraction" unicode="&#x2044;" horiz-adv-x="566" 
d="M9 0l544 700h48l-544 -700h-48z" />
    <glyph glyph-name="uni2070" unicode="&#x2070;" horiz-adv-x="343" 
d="M210 345q-55 0 -89 37.5t-34 99.5q0 60 23 110.5t61.5 81.5t84.5 31q56 0 89.5 -37.5t33.5 -99.5q0 -60 -23 -110.5t-61.5 -81.5t-84.5 -31zM215 381q33 0 61 26t45.5 68.5t17.5 92.5q0 47 -24 74t-63 27q-32 0 -61 -26t-46.5 -68.5t-17.5 -92.5q0 -47 24.5 -74t63.5 -27
z" />
    <glyph glyph-name="uni2074" unicode="&#x2074;" horiz-adv-x="314" 
d="M239 350l20 92h-194l5 31l240 227h43l-48 -224h42l-8 -34h-41l-20 -92h-39zM120 476h146l37 173z" />
    <glyph glyph-name="uni2075" unicode="&#x2075;" horiz-adv-x="292" 
d="M179 345q-73 0 -121 46l22 31q23 -21 48 -31.5t52 -10.5q41 0 69.5 24.5t28.5 60.5q0 34 -21.5 51.5t-62.5 17.5t-71 -11l-21 10l41 167h207l-8 -35h-172l-27 -110q16 5 30.5 7.5t28.5 2.5q52 0 83.5 -27t31.5 -71q0 -34 -18.5 -62t-50 -44t-69.5 -16z" />
    <glyph glyph-name="uni2076" unicode="&#x2076;" horiz-adv-x="318" 
d="M205 345q-54 0 -86.5 37t-32.5 98q0 63 26.5 114t70.5 81t96 30q44 0 87 -24l-20 -33q-17 11 -35 16.5t-35 5.5q-50 0 -91.5 -40.5t-55.5 -102.5q20 18 48 28.5t58 10.5q44 0 73.5 -27t29.5 -69q0 -34 -18 -62.5t-48 -45.5t-67 -17zM210 380q37 0 63.5 25.5t26.5 59.5
q0 31 -22.5 50t-58.5 19q-53 0 -94 -39q-5 -51 18.5 -83t66.5 -32z" />
    <glyph glyph-name="uni2077" unicode="&#x2077;" horiz-adv-x="285" 
d="M76 350l241 315h-211l8 35h258l-5 -31l-243 -319h-48z" />
    <glyph glyph-name="uni2078" unicode="&#x2078;" horiz-adv-x="318" 
d="M196 345q-54 0 -88 26t-34 66q0 35 27 63.5t68 36.5q-22 11 -34.5 28.5t-12.5 41.5q0 27 17 49.5t45.5 35.5t62.5 13q46 0 76.5 -24t30.5 -61q0 -31 -22.5 -56t-58.5 -34q29 -10 45 -30.5t16 -46.5q0 -30 -18.5 -54.5t-49.5 -39t-70 -14.5zM232 549q35 0 59 19.5t24 47.5
q0 24 -20.5 40t-50.5 16q-34 0 -58.5 -19t-24.5 -48q0 -24 20.5 -40t50.5 -16zM199 378q38 0 67 22t29 52q0 28 -24 46t-62 18q-39 0 -67.5 -22t-28.5 -52q0 -28 24.5 -46t61.5 -18z" />
    <glyph glyph-name="uni2079" unicode="&#x2079;" horiz-adv-x="318" 
d="M238 705q54 0 86.5 -37t32.5 -98q0 -63 -26.5 -114t-70 -81t-96.5 -30q-43 0 -87 24l20 33q17 -11 35 -16.5t35 -5.5q50 0 92 40.5t55 102.5q-20 -18 -48 -28.5t-58 -10.5q-44 0 -73.5 27t-29.5 69q0 34 18 62.5t48.5 45.5t66.5 17zM233 670q-37 0 -63.5 -25t-26.5 -60
q0 -31 22.5 -50t58.5 -19q53 0 94 39q5 51 -18 83t-67 32z" />
    <glyph glyph-name="uni2080" unicode="&#x2080;" horiz-adv-x="346" 
d="M136 -5q-55 0 -89 37.5t-34 99.5q0 60 23 110.5t61.5 81.5t84.5 31q56 0 89.5 -37.5t33.5 -99.5q0 -60 -23 -111t-61.5 -81.5t-84.5 -30.5zM141 31q33 0 61 26t45.5 68.5t17.5 92.5q0 47 -24 74t-63 27q-32 0 -61 -26t-46.5 -68.5t-17.5 -92.5q0 -47 24.5 -74t63.5 -27z
" />
    <glyph glyph-name="uni2081" unicode="&#x2081;" horiz-adv-x="151" 
d="M29 0l65 308l-64 -26l8 36l78 32h25l-74 -350h-38z" />
    <glyph glyph-name="uni2082" unicode="&#x2082;" horiz-adv-x="280" 
d="M-25 0l6 30l182 145q28 23 41.5 43.5t13.5 42.5q0 27 -19 43t-51 16q-23 0 -45 -9.5t-51 -29.5l-21 30q65 44 121 44q44 0 74.5 -24.5t30.5 -62.5q0 -32 -16.5 -58t-54.5 -56l-150 -119h179l-7 -35h-233z" />
    <glyph glyph-name="uni2083" unicode="&#x2083;" horiz-adv-x="300" 
d="M111 -5q-40 0 -71 12.5t-57 39.5l24 29q44 -46 103 -46q38 0 65 19t27 49q0 27 -21.5 44.5t-57.5 17.5h-28l6 31h27q41 0 68.5 20t27.5 49q0 26 -20.5 43t-52.5 17q-20 0 -43 -7.5t-55 -25.5l-18 31q59 37 118 37q47 0 78.5 -26t31.5 -64q0 -33 -25 -58t-67 -33
q32 -8 51 -30t19 -51q0 -28 -16.5 -50t-46 -35t-67.5 -13z" />
    <glyph glyph-name="uni2084" unicode="&#x2084;" horiz-adv-x="314" 
d="M165 0l20 92h-194l5 31l240 227h43l-48 -224h42l-8 -34h-41l-20 -92h-39zM46 126h146l37 173z" />
    <glyph glyph-name="uni2085" unicode="&#x2085;" horiz-adv-x="292" 
d="M105 -5q-73 0 -121 46l22 31q23 -21 48 -31.5t52 -10.5q41 0 69.5 24.5t28.5 60.5q0 34 -21.5 51.5t-62.5 17.5t-71 -11l-21 10l41 167h207l-8 -35h-172l-27 -110q16 5 30.5 7.5t28.5 2.5q52 0 83.5 -27t31.5 -71q0 -34 -18.5 -62t-50 -44t-69.5 -16z" />
    <glyph glyph-name="uni2086" unicode="&#x2086;" horiz-adv-x="318" 
d="M131 -5q-54 0 -86.5 37t-32.5 98q0 63 26.5 114t70.5 81t96 30q44 0 87 -24l-20 -33q-17 11 -35 16.5t-35 5.5q-50 0 -91.5 -40.5t-55.5 -102.5q20 18 48 28.5t58 10.5q44 0 73.5 -27t29.5 -69q0 -34 -18 -62.5t-48 -45.5t-67 -17zM136 30q37 0 63.5 25.5t26.5 59.5
q0 31 -22.5 50t-58.5 19q-53 0 -94 -39q-5 -51 18.5 -83t66.5 -32z" />
    <glyph glyph-name="uni2087" unicode="&#x2087;" horiz-adv-x="285" 
d="M2 0l241 315h-211l8 35h258l-5 -31l-243 -319h-48z" />
    <glyph glyph-name="uni2088" unicode="&#x2088;" horiz-adv-x="318" 
d="M122 -5q-54 0 -88 26t-34 66q0 35 27 63.5t68 36.5q-22 11 -34.5 28.5t-12.5 41.5q0 27 17 49.5t45.5 35.5t62.5 13q46 0 76.5 -24t30.5 -61q0 -31 -22.5 -56t-58.5 -34q29 -10 45 -30.5t16 -46.5q0 -30 -18.5 -54.5t-49.5 -39t-70 -14.5zM158 199q35 0 59 19.5t24 47.5
q0 24 -20.5 40t-50.5 16q-34 0 -58.5 -19t-24.5 -48q0 -24 20.5 -40t50.5 -16zM125 28q38 0 67 22t29 52q0 28 -24 46t-62 18q-39 0 -67.5 -22t-28.5 -52q0 -28 24.5 -46t61.5 -18z" />
    <glyph glyph-name="uni2089" unicode="&#x2089;" horiz-adv-x="317" 
d="M163 355q54 0 86.5 -37t32.5 -98q0 -63 -26.5 -114t-70 -81t-96.5 -30q-43 0 -87 24l20 33q17 -11 35 -16.5t35 -5.5q50 0 92 40.5t55 102.5q-20 -18 -48 -28.5t-58 -10.5q-44 0 -73.5 27t-29.5 69q0 34 18 62.5t48 45.5t67 17zM158 320q-37 0 -63.5 -25t-26.5 -60
q0 -31 22.5 -50t58.5 -19q53 0 94 39q5 51 -18 83t-67 32z" />
    <glyph glyph-name="Euro" unicode="&#x20ac;" horiz-adv-x="708" 
d="M404 -11q-72 0 -127.5 34t-87.5 95.5t-36 143.5h-104l9 44h96q1 24 4 46.5t7 44.5h-88l10 44h90q25 80 72.5 141t111 95t136.5 34q74 0 133.5 -39t91.5 -109l-41 -24q-29 62 -76 94t-109 32q-58 0 -110.5 -28.5t-92.5 -79t-63 -116.5h279l-24 -44h-268q-5 -22 -8.5 -44.5
t-4.5 -46.5h232l-22 -44h-210q5 -104 59.5 -165.5t139.5 -61.5q50 0 96.5 23t89.5 68l34 -32q-100 -105 -219 -105z" />
    <glyph glyph-name="trademark" unicode="&#x2122;" horiz-adv-x="654" 
d="M346 424l59 276h40l49 -194l130 194h45l-59 -276h-32l49 230l-145 -211l-56 206l-48 -225h-32zM181 424l53 246h-94l7 30h219l-6 -30h-94l-53 -246h-32z" />
    <glyph glyph-name="arrowup" unicode="&#x2191;" horiz-adv-x="480" 
d="M229 0v644l-170 -228l-36 26l230 308l230 -308l-34 -24l-174 233v-651h-46z" />
    <glyph glyph-name="arrowdown" unicode="&#x2193;" horiz-adv-x="480" 
d="M238 700v-644l170 228l36 -26l-230 -308l-230 308l34 24l174 -233v651h46z" />
    <glyph glyph-name="minus" unicode="&#x2212;" 
d="M153 335l10 45h381l-10 -45h-381z" />
    <glyph glyph-name="uni2215" unicode="&#x2215;" 
d="M29 0l544 700h48l-544 -700h-48z" />
    <glyph glyph-name="notequal" unicode="&#x2260;" 
d="M120 134l115 125h-99l10 45h130l99 107h-206l10 45h237l115 125h44l-115 -125h100l-10 -45h-131l-99 -107h207l-10 -45h-238l-115 -125h-44z" />
    <glyph glyph-name="uniFEFF" unicode="&#xfeff;" horiz-adv-x="0" 
 />
    <glyph glyph-name="uniFFFD" unicode="&#xfffd;" 
d="M127 -100v850h394v-850h-394z" />
    <glyph glyph-name="i.loclTRK" horiz-adv-x="204" 
d="M184 607q-17 0 -29 12.5t-12 30.5q0 14 6.5 25.5t18 18t25.5 6.5q17 0 29 -12.5t12 -30.5q0 -21 -14.5 -35.5t-35.5 -14.5zM26 0l103 481h49l-103 -481h-49z" />
    <glyph glyph-name="a.ss01" horiz-adv-x="555" 
d="M250 -8q-56 0 -100 28t-69.5 77t-25.5 112q0 57 19.5 107.5t54 88.5t79.5 60t97 22q48 0 89.5 -19.5t69.5 -61.5l16 75h49l-103 -481h-49l10 44q-30 -26 -64.5 -39t-72.5 -13zM264 36q75 0 132 52l57 269q-19 38 -57.5 61t-85.5 23q-57 0 -103.5 -30.5t-74.5 -82
t-28 -115.5q0 -79 45 -128t115 -49z" />
    <glyph glyph-name="aacute.ss01" horiz-adv-x="555" 
d="M250 -8q-56 0 -100 28t-69.5 77t-25.5 112q0 57 19.5 107.5t54 88.5t79.5 60t97 22q48 0 89.5 -19.5t69.5 -61.5l16 75h49l-103 -481h-49l10 44q-30 -26 -64.5 -39t-72.5 -13zM264 36q75 0 132 52l57 269q-19 38 -57.5 61t-85.5 23q-57 0 -103.5 -30.5t-74.5 -82
t-28 -115.5q0 -79 45 -128t115 -49zM307 579l126 116h76l-152 -116h-50z" />
    <glyph glyph-name="abreve.ss01" horiz-adv-x="555" 
d="M250 -8q-56 0 -100 28t-69.5 77t-25.5 112q0 57 19.5 107.5t54 88.5t79.5 60t97 22q48 0 89.5 -19.5t69.5 -61.5l16 75h49l-103 -481h-49l10 44q-30 -26 -64.5 -39t-72.5 -13zM264 36q75 0 132 52l57 269q-19 38 -57.5 61t-85.5 23q-57 0 -103.5 -30.5t-74.5 -82
t-28 -115.5q0 -79 45 -128t115 -49zM352 573q-55 0 -92 33t-39 92l38 6q1 -50 27.5 -72.5t67.5 -22.5q81 0 121 95l38 -12q-23 -55 -65 -87t-96 -32z" />
    <glyph glyph-name="acircumflex.ss01" horiz-adv-x="555" 
d="M250 -8q-56 0 -100 28t-69.5 77t-25.5 112q0 57 19.5 107.5t54 88.5t79.5 60t97 22q48 0 89.5 -19.5t69.5 -61.5l16 75h49l-103 -481h-49l10 44q-30 -26 -64.5 -39t-72.5 -13zM264 36q75 0 132 52l57 269q-19 38 -57.5 61t-85.5 23q-57 0 -103.5 -30.5t-74.5 -82
t-28 -115.5q0 -79 45 -128t115 -49zM209 574l132 121h57l84 -121h-40l-77 89l-113 -89h-43z" />
    <glyph glyph-name="adieresis.ss01" horiz-adv-x="555" 
d="M250 -8q-56 0 -100 28t-69.5 77t-25.5 112q0 57 19.5 107.5t54 88.5t79.5 60t97 22q48 0 89.5 -19.5t69.5 -61.5l16 75h49l-103 -481h-49l10 44q-30 -26 -64.5 -39t-72.5 -13zM264 36q75 0 132 52l57 269q-19 38 -57.5 61t-85.5 23q-57 0 -103.5 -30.5t-74.5 -82
t-28 -115.5q0 -79 45 -128t115 -49zM261 607q-17 0 -29 12.5t-12 30.5q0 21 14.5 35.5t35.5 14.5q17 0 29 -12.5t12 -30.5q0 -21 -14.5 -35.5t-35.5 -14.5zM455 607q-17 0 -29 12.5t-12 30.5q0 21 14.5 35.5t35.5 14.5q17 0 29 -12.5t12 -30.5q0 -21 -14.5 -35.5
t-35.5 -14.5z" />
    <glyph glyph-name="agrave.ss01" horiz-adv-x="555" 
d="M250 -8q-56 0 -100 28t-69.5 77t-25.5 112q0 57 19.5 107.5t54 88.5t79.5 60t97 22q48 0 89.5 -19.5t69.5 -61.5l16 75h49l-103 -481h-49l10 44q-30 -26 -64.5 -39t-72.5 -13zM264 36q75 0 132 52l57 269q-19 38 -57.5 61t-85.5 23q-57 0 -103.5 -30.5t-74.5 -82
t-28 -115.5q0 -79 45 -128t115 -49zM337 579l-130 116h75l103 -116h-48z" />
    <glyph glyph-name="amacron.ss01" horiz-adv-x="555" 
d="M250 -8q-56 0 -100 28t-69.5 77t-25.5 112q0 57 19.5 107.5t54 88.5t79.5 60t97 22q48 0 89.5 -19.5t69.5 -61.5l16 75h49l-103 -481h-49l10 44q-30 -26 -64.5 -39t-72.5 -13zM264 36q75 0 132 52l57 269q-19 38 -57.5 61t-85.5 23q-57 0 -103.5 -30.5t-74.5 -82
t-28 -115.5q0 -79 45 -128t115 -49zM227 607l8 40h253l-8 -40h-253z" />
    <glyph glyph-name="aogonek.ss01" horiz-adv-x="555" 
d="M346 -232q-49 0 -73 23.5t-24 54.5q0 84 129 154h-1l10 44q-30 -26 -64.5 -39t-72.5 -13q-56 0 -100 28t-69.5 77t-25.5 112q0 57 19.5 107.5t54 88.5t79.5 60t97 22q48 0 89.5 -19.5t69.5 -61.5l16 75h49l-103 -481q-79 -42 -108 -77.5t-29 -68.5q0 -22 18.5 -36.5
t46.5 -14.5q11 0 23.5 2.5t22.5 6.5l3 -32q-11 -5 -26 -8.5t-31 -3.5zM104 213q0 -79 45 -128t115 -49q75 0 132 52l57 269q-19 38 -57.5 61t-85.5 23q-57 0 -103.5 -30.5t-74.5 -82t-28 -115.5z" />
    <glyph glyph-name="aring.ss01" horiz-adv-x="555" 
d="M250 -8q-56 0 -100 28t-69.5 77t-25.5 112q0 57 19.5 107.5t54 88.5t79.5 60t97 22q48 0 89.5 -19.5t69.5 -61.5l16 75h49l-103 -481h-49l10 44q-30 -26 -64.5 -39t-72.5 -13zM264 36q75 0 132 52l57 269q-19 38 -57.5 61t-85.5 23q-57 0 -103.5 -30.5t-74.5 -82
t-28 -115.5q0 -79 45 -128t115 -49zM357 568q-43 0 -69.5 26.5t-26.5 68.5q0 32 16 59t42.5 44t57.5 17q43 0 69.5 -26.5t26.5 -68.5q0 -31 -16 -58.5t-42 -44.5t-58 -17zM358 602q33 0 56.5 25t23.5 59q0 29 -18.5 46t-43.5 17q-33 0 -56.5 -25t-23.5 -59q0 -29 18.5 -46
t43.5 -17z" />
    <glyph glyph-name="atilde.ss01" horiz-adv-x="555" 
d="M250 -8q-56 0 -100 28t-69.5 77t-25.5 112q0 57 19.5 107.5t54 88.5t79.5 60t97 22q48 0 89.5 -19.5t69.5 -61.5l16 75h49l-103 -481h-49l10 44q-30 -26 -64.5 -39t-72.5 -13zM264 36q75 0 132 52l57 269q-19 38 -57.5 61t-85.5 23q-57 0 -103.5 -30.5t-74.5 -82
t-28 -115.5q0 -79 45 -128t115 -49zM233 582l-39 13q20 45 45.5 64.5t52.5 19.5q21 0 39 -9t34 -21t31 -21t30 -9q17 0 29 12t27 46l39 -11q-20 -46 -44 -66t-50 -20q-21 0 -39 9t-34 20.5t-31 20.5t-30 9q-18 0 -32 -13t-28 -44z" />
    <glyph glyph-name="g.ss02" horiz-adv-x="500" 
d="M194 -219q-69 0 -117.5 16.5t-73.5 45.5t-25 64q0 38 26 61t86 39q-42 20 -42 62q0 32 29 58t72 34q-32 22 -51 56.5t-19 76.5q0 51 28 95.5t74 72t101 27.5q43 0 78.5 -17.5t58.5 -46.5q8 45 36.5 69t70.5 24q8 0 18 -1t17 -3l-10 -54l-20 4t-22 2q-28 0 -48 -18.5
t-24 -50.5q8 -16 12 -33.5t4 -37.5q0 -50 -28 -95t-74 -72.5t-101 -27.5q-19 0 -36 3.5t-34 9.5q-36 -4 -59.5 -21t-23.5 -40q0 -36 52 -42l169 -18q51 -5 79.5 -33t28.5 -73q0 -39 -30 -70t-82 -48.5t-120 -17.5zM252 175q41 0 75.5 20.5t55.5 55t21 74.5q0 53 -35 86.5
t-89 33.5q-41 0 -75.5 -20.5t-55.5 -54.5t-21 -75q0 -53 35 -86.5t89 -33.5zM196 -178q52 0 92.5 13t64 34.5t23.5 48.5q0 28 -18.5 41.5t-54.5 17.5l-166 17q-2 0 -5 0.5t-5 0.5q-46 -10 -72.5 -32t-26.5 -55q0 -40 43 -63t125 -23z" />
    <glyph glyph-name="gbreve.ss02" horiz-adv-x="500" 
d="M194 -219q-69 0 -117.5 16.5t-73.5 45.5t-25 64q0 38 26 61t86 39q-42 20 -42 62q0 32 29 58t72 34q-32 22 -51 56.5t-19 76.5q0 51 28 95.5t74 72t101 27.5q43 0 78.5 -17.5t58.5 -46.5q8 45 36.5 69t70.5 24q8 0 18 -1t17 -3l-10 -54l-20 4t-22 2q-28 0 -48 -18.5
t-24 -50.5q8 -16 12 -33.5t4 -37.5q0 -50 -28 -95t-74 -72.5t-101 -27.5q-19 0 -36 3.5t-34 9.5q-36 -4 -59.5 -21t-23.5 -40q0 -36 52 -42l169 -18q51 -5 79.5 -33t28.5 -73q0 -39 -30 -70t-82 -48.5t-120 -17.5zM252 175q41 0 75.5 20.5t55.5 55t21 74.5q0 53 -35 86.5
t-89 33.5q-41 0 -75.5 -20.5t-55.5 -54.5t-21 -75q0 -53 35 -86.5t89 -33.5zM196 -178q52 0 92.5 13t64 34.5t23.5 48.5q0 28 -18.5 41.5t-54.5 17.5l-166 17q-2 0 -5 0.5t-5 0.5q-46 -10 -72.5 -32t-26.5 -55q0 -40 43 -63t125 -23zM312 572q-55 0 -92 33t-39 92l38 6
q1 -50 27.5 -72.5t67.5 -22.5q81 0 121 95l38 -12q-23 -55 -65 -87t-96 -32z" />
    <glyph glyph-name="gcircumflex.ss02" horiz-adv-x="500" 
d="M194 -219q-69 0 -117.5 16.5t-73.5 45.5t-25 64q0 38 26 61t86 39q-42 20 -42 62q0 32 29 58t72 34q-32 22 -51 56.5t-19 76.5q0 51 28 95.5t74 72t101 27.5q43 0 78.5 -17.5t58.5 -46.5q8 45 36.5 69t70.5 24q8 0 18 -1t17 -3l-10 -54l-20 4t-22 2q-28 0 -48 -18.5
t-24 -50.5q8 -16 12 -33.5t4 -37.5q0 -50 -28 -95t-74 -72.5t-101 -27.5q-19 0 -36 3.5t-34 9.5q-36 -4 -59.5 -21t-23.5 -40q0 -36 52 -42l169 -18q51 -5 79.5 -33t28.5 -73q0 -39 -30 -70t-82 -48.5t-120 -17.5zM252 175q41 0 75.5 20.5t55.5 55t21 74.5q0 53 -35 86.5
t-89 33.5q-41 0 -75.5 -20.5t-55.5 -54.5t-21 -75q0 -53 35 -86.5t89 -33.5zM196 -178q52 0 92.5 13t64 34.5t23.5 48.5q0 28 -18.5 41.5t-54.5 17.5l-166 17q-2 0 -5 0.5t-5 0.5q-46 -10 -72.5 -32t-26.5 -55q0 -40 43 -63t125 -23zM169 573l132 121h57l84 -121h-40l-77 89
l-113 -89h-43z" />
    <glyph glyph-name="uni0123.ss02" horiz-adv-x="500" 
d="M453 786l-81 -180h-56l98 180h39zM194 -219q-69 0 -117.5 16.5t-73.5 45.5t-25 64q0 38 26 61t86 39q-42 20 -42 62q0 32 29 58t72 34q-32 22 -51 56.5t-19 76.5q0 51 28 95.5t74 72t101 27.5q43 0 78.5 -17.5t58.5 -46.5q8 45 36.5 69t70.5 24q8 0 18 -1t17 -3l-10 -54
l-20 4t-22 2q-28 0 -48 -18.5t-24 -50.5q8 -16 12 -33.5t4 -37.5q0 -50 -28 -95t-74 -72.5t-101 -27.5q-19 0 -36 3.5t-34 9.5q-36 -4 -59.5 -21t-23.5 -40q0 -36 52 -42l169 -18q51 -5 79.5 -33t28.5 -73q0 -39 -30 -70t-82 -48.5t-120 -17.5zM252 175q41 0 75.5 20.5
t55.5 55t21 74.5q0 53 -35 86.5t-89 33.5q-41 0 -75.5 -20.5t-55.5 -54.5t-21 -75q0 -53 35 -86.5t89 -33.5zM196 -178q52 0 92.5 13t64 34.5t23.5 48.5q0 28 -18.5 41.5t-54.5 17.5l-166 17q-2 0 -5 0.5t-5 0.5q-46 -10 -72.5 -32t-26.5 -55q0 -40 43 -63t125 -23z" />
    <glyph glyph-name="gdotaccent.ss02" horiz-adv-x="500" 
d="M194 -219q-69 0 -117.5 16.5t-73.5 45.5t-25 64q0 38 26 61t86 39q-42 20 -42 62q0 32 29 58t72 34q-32 22 -51 56.5t-19 76.5q0 51 28 95.5t74 72t101 27.5q43 0 78.5 -17.5t58.5 -46.5q8 45 36.5 69t70.5 24q8 0 18 -1t17 -3l-10 -54l-20 4t-22 2q-28 0 -48 -18.5
t-24 -50.5q8 -16 12 -33.5t4 -37.5q0 -50 -28 -95t-74 -72.5t-101 -27.5q-19 0 -36 3.5t-34 9.5q-36 -4 -59.5 -21t-23.5 -40q0 -36 52 -42l169 -18q51 -5 79.5 -33t28.5 -73q0 -39 -30 -70t-82 -48.5t-120 -17.5zM252 175q41 0 75.5 20.5t55.5 55t21 74.5q0 53 -35 86.5
t-89 33.5q-41 0 -75.5 -20.5t-55.5 -54.5t-21 -75q0 -53 35 -86.5t89 -33.5zM196 -178q52 0 92.5 13t64 34.5t23.5 48.5q0 28 -18.5 41.5t-54.5 17.5l-166 17q-2 0 -5 0.5t-5 0.5q-46 -10 -72.5 -32t-26.5 -55q0 -40 43 -63t125 -23zM318 606q-17 0 -29 12.5t-12 30.5
q0 21 14.5 35.5t35.5 14.5q17 0 29 -12.5t12 -30.5q0 -14 -6.5 -25.5t-18 -18t-25.5 -6.5z" />
    <glyph glyph-name="exclamdown.cap" horiz-adv-x="201" 
d="M179 506l-105 -511h-53l117 511h41zM199 713q17 0 28 -12t11 -29q0 -22 -16 -37t-39 -15q-16 0 -27.5 12t-11.5 29q0 15 7.5 26.5t20 18.5t27.5 7z" />
    <glyph glyph-name="questiondown.cap" horiz-adv-x="494" 
d="M355 705q17 0 28 -12t11 -29q0 -22 -16 -37t-39 -15q-16 0 -27.5 12t-11.5 29q0 15 7.5 26.5t20 18.5t27.5 7zM338 496q0 -58 -28.5 -102t-90.5 -78l-62 -36q-44 -26 -68 -62t-24 -74q0 -47 37.5 -78.5t96.5 -31.5q45 0 89.5 22.5t86.5 61.5l31 -40q-49 -44 -102.5 -68
t-106.5 -24t-94 20.5t-64 56t-23 80.5q0 54 28 94.5t89 77.5l68 40q48 29 70.5 63t22.5 78h44z" />
    <glyph glyph-name="periodcentered.cap" horiz-adv-x="204" 
d="M143 302q-16 0 -27.5 12t-11.5 29q0 15 7.5 26.5t20 18.5t27.5 7q17 0 28 -12t11 -29q0 -14 -7.5 -26t-20 -19t-27.5 -7z" />
    <glyph glyph-name="periodcentered.loclCAT" horiz-adv-x="250" 
d="M128 237q-16 0 -27.5 12t-11.5 29q0 15 7.5 26.5t20 18.5t27.5 7q17 0 28 -12t11 -29q0 -14 -7.5 -26t-20 -19t-27.5 -7z" />
    <glyph glyph-name="periodcentered.loclCAT.case" horiz-adv-x="250" 
d="M128 237q-16 0 -27.5 12t-11.5 29q0 15 7.5 26.5t20 18.5t27.5 7q17 0 28 -12t11 -29q0 -14 -7.5 -26t-20 -19t-27.5 -7z" />
    <glyph glyph-name="hyphen.cap" horiz-adv-x="450" 
d="M84 323l11 44h316l-11 -44h-316z" />
    <glyph glyph-name="endash.cap" horiz-adv-x="545" 
d="M85 323l11 44h409l-11 -44h-409z" />
    <glyph glyph-name="emdash.cap" horiz-adv-x="689" 
d="M87 323l11 44h549l-11 -44h-549z" />
    <glyph glyph-name="uni2015.cap" horiz-adv-x="925" 
d="M89 323l11 44h781l-11 -44h-781z" />
    <glyph glyph-name="at.cap" horiz-adv-x="758" 
d="M423 -8q-73 0 -134.5 26.5t-107 74t-71 111.5t-25.5 139q0 78 25 145t70 117t105.5 77.5t132.5 27.5q68 0 125.5 -23.5t100.5 -65t66.5 -97.5t23.5 -122q0 -62 -22.5 -109.5t-60 -73.5t-81.5 -26q-61 0 -86 41q-24 -22 -50 -33.5t-51 -11.5q-39 0 -70 19.5t-49 53.5
t-18 76q0 49 21.5 88.5t58 63.5t80.5 24q29 0 54.5 -11t43.5 -31l5 29h42l-36 -189q-7 -38 8 -58.5t50 -20.5q33 0 60.5 22t43.5 60t16 87q0 77 -36 137.5t-98.5 95.5t-142.5 35q-60 0 -113 -25t-92.5 -69.5t-62 -103.5t-22.5 -128q0 -89 39 -160t107.5 -111.5t154.5 -40.5
q89 0 163 43l15 -37q-40 -22 -86 -34t-96 -12zM391 227q47 0 82 38q-2 11 -1.5 23.5t2.5 25.5l21 112q-13 23 -38 36t-54 13q-31 0 -57 -18.5t-41.5 -49t-15.5 -67.5q0 -50 28 -81.5t74 -31.5z" />
    <glyph glyph-name="uni030C.ss02" horiz-adv-x="0" 
d="M333 549l40 176l55 12l-59 -188h-36z" />
    <glyph glyph-name="zero.tf" 
d="M283 -11q-61 0 -109.5 32t-76.5 95t-28 156q0 95 25 175.5t67 139.5t95 91.5t109 32.5q61 0 109.5 -32t76.5 -95t28 -156q0 -95 -25 -175.5t-67 -139.5t-95 -91.5t-109 -32.5zM281 35q48 0 92.5 29.5t79 82.5t55 124t20.5 153q0 42 -8.5 85t-27.5 78t-50 56.5t-75 21.5
q-48 0 -92.5 -29.5t-79 -82.5t-55 -123.5t-20.5 -153.5q0 -87 24 -140t61 -77t76 -24z" />
    <glyph glyph-name="one.tf" 
d="M44 0l9 45h187l125 592l-203 -79l12 54l225 88h29l-139 -655h199l-9 -45h-435z" />
    <glyph glyph-name="two.tf" 
d="M40 0l8 38l378 356q47 44 69 83t22 76q0 50 -37 81.5t-96 31.5q-46 0 -94 -17t-109 -62l-22 39q57 44 113 64.5t108 20.5q55 0 97 -19.5t66.5 -54t24.5 -78.5q0 -52 -24 -95t-86 -101l-338 -318h356l-10 -45h-426z" />
    <glyph glyph-name="three.tf" 
d="M267 -11q-71 0 -128.5 29t-107.5 89l38 33q42 -54 92.5 -80t113.5 -26q54 0 95 20.5t64 57.5t23 84q0 42 -20.5 74t-55.5 50.5t-81 18.5h-56l9 44h84q44 0 80.5 20t58.5 53.5t22 73.5q0 61 -43.5 98.5t-114.5 37.5q-53 0 -93.5 -15t-84.5 -52l-28 35q41 39 92 58t112 19
q63 0 110.5 -22t74 -60.5t26.5 -90.5q0 -66 -38.5 -113t-113.5 -73q50 -18 80.5 -58t30.5 -90q0 -62 -31 -111t-85.5 -76.5t-124.5 -27.5z" />
    <glyph glyph-name="four.tf" horiz-adv-x="599" 
d="M368 0l42 195h-383l8 38l481 467h51l-99 -460h102l-10 -45h-101l-42 -195h-49zM107 240h312l82 382z" />
    <glyph glyph-name="five.tf" 
d="M266 -11q-72 0 -130.5 29.5t-96.5 81.5l34 32q38 -50 86 -74t109 -24q60 0 107 26.5t74 71.5t27 102q0 73 -45 113t-128 40q-34 0 -69 -8t-78 -25l-31 14l84 332h377l-10 -45h-331l-65 -255q38 16 68.5 23.5t65.5 7.5q66 0 113.5 -23.5t73.5 -66.5t26 -104
q0 -51 -20.5 -96t-56.5 -79t-83 -53.5t-101 -19.5z" />
    <glyph glyph-name="six.tf" 
d="M308 -11q-60 0 -114 33t-88.5 96t-34.5 154q0 104 26.5 185.5t73 138t107 86t127.5 29.5q47 0 90.5 -14t89.5 -44l-23 -41q-43 28 -78.5 41t-75.5 13q-71 0 -131.5 -39.5t-101 -112t-50.5 -173.5q43 46 96 71.5t111 25.5q67 0 116.5 -28t76.5 -75t27 -105
q0 -56 -19.5 -100.5t-54 -76t-78.5 -48t-92 -16.5zM316 34q53 0 94.5 26t66 71t24.5 102q0 72 -45.5 116.5t-127.5 44.5q-56 0 -110.5 -27.5t-95.5 -74.5q-1 -84 24.5 -141.5t70 -87t99.5 -29.5z" />
    <glyph glyph-name="seven.tf" 
d="M66 0l498 655h-426l9 45h490l-8 -38l-504 -662h-59z" />
    <glyph glyph-name="eight.tf" 
d="M285 -11q-68 0 -121.5 25t-84.5 69t-31 99q0 51 25 92t69.5 69t102.5 38q-48 20 -75 57t-27 87q0 54 29 96t79.5 66t114.5 24q61 0 107.5 -21.5t73 -59t26.5 -86.5q0 -44 -19 -80t-56.5 -61.5t-91.5 -40.5q58 -24 92 -69.5t34 -100.5q0 -58 -32.5 -104t-88 -72.5
t-126.5 -26.5zM354 397q49 0 87.5 19.5t61.5 52.5t23 74q0 59 -43 91.5t-121 32.5q-49 0 -88 -19t-61.5 -51.5t-22.5 -74.5q0 -59 43 -92t121 -33zM289 34q88 0 141.5 44.5t53.5 116.5q0 45 -25 79.5t-68.5 54t-99.5 19.5q-88 0 -141.5 -44t-53.5 -116q0 -44 25 -79
t68.5 -55t99.5 -20z" />
    <glyph glyph-name="nine.tf" horiz-adv-x="608" 
d="M330 711q60 0 114.5 -33t88.5 -96t34 -154q0 -104 -26.5 -185.5t-73 -138t-107 -86t-127.5 -29.5q-47 0 -90.5 14t-89.5 44l23 41q43 -28 78.5 -41t75.5 -13q71 0 131.5 39.5t101 112.5t50.5 173q-43 -46 -95.5 -71.5t-111.5 -25.5q-67 0 -116.5 28t-76.5 75t-27 105
q0 56 19.5 100.5t54 76t78.5 48t92 16.5zM322 666q-52 0 -94 -26t-66.5 -71t-24.5 -102q0 -72 45.5 -116.5t127.5 -44.5q56 0 111 27.5t95 74.5q1 84 -24.5 141.5t-70 87t-99.5 29.5z" />
    <glyph glyph-name="zero.tf.slash" 
d="M283 -11q-61 0 -109.5 32t-76.5 95t-28 156q0 95 25 175.5t67 139.5t95 91.5t109 32.5q61 0 109.5 -32t76.5 -95t28 -156q0 -95 -25 -175.5t-67 -139.5t-95 -91.5t-109 -32.5zM281 35q48 0 92.5 29.5t79 82.5t55 124t20.5 153q0 42 -6.5 77.5t-18.5 63.5l-336 -471
q44 -59 114 -59zM145 135l336 471q-44 59 -114 59q-48 0 -92.5 -29.5t-79 -82.5t-55 -123.5t-20.5 -153.5q0 -42 6.5 -77t18.5 -64z" />
    <glyph glyph-name="caronSlovak" 
d="M333 549l40 176l55 12l-59 -188h-36z" />
    </font>
</defs>
</svg>
