<?xml version="1.0" standalone="no"?>
<!DOCTYPE svg PUBLIC "-//W3C//DTD SVG 1.1//EN" "http://www.w3.org/Graphics/SVG/1.1/DTD/svg11.dtd" >
<svg xmlns="http://www.w3.org/2000/svg" xmlns:xlink="http://www.w3.org/1999/xlink" version="1.1">
<metadata>
Created by FontForge 20201107 at Fri Nov 15 16:57:23 2024
 By 
Copyright 2024 The Red Hat Project Authors (https://github.com/RedHatOfficial/RedHatFont)
</metadata>
<defs>
<font id="RedHatText-Regular" horiz-adv-x="600" >
  <font-face 
    font-family="Red Hat Text"
    font-weight="400"
    font-stretch="normal"
    units-per-em="1000"
    panose-1="2 1 5 3 4 2 1 6 3 3"
    ascent="800"
    descent="-200"
    x-height="488"
    cap-height="700"
    bbox="-59 -274 1055 1006"
    underline-thickness="100"
    underline-position="-250"
    unicode-range="U+000D-FFFD"
  />
<missing-glyph horiz-adv-x="514" 
d="M60 -100v850h394v-850h-394z" />
    <glyph glyph-name="fi" unicode="fi" horiz-adv-x="592" 
d="M137 0v428h-109v60h109v102q0 72 38 111t108 39q20 0 36.5 -2t29.5 -7v-66q-16 5 -29 7t-30 2q-42 0 -61 -20.5t-19 -64.5v-101h139v-60h-139v-428h-73zM444 0v488h73v-488h-73zM481 609q-22 0 -37.5 15.5t-15.5 36.5t15.5 36.5t37.5 15.5t37.5 -15.5t15.5 -36.5
t-15.5 -36.5t-37.5 -15.5z" />
    <glyph glyph-name="fl" unicode="fl" horiz-adv-x="593" 
d="M137 0v428h-109v60h109v102q0 72 38 111t108 39q20 0 36.5 -2t29.5 -7v-66q-16 5 -29 7t-30 2q-42 0 -61 -20.5t-19 -64.5v-101h139v-60h-139v-428h-73zM445 0v722l73 15v-737h-73z" />
    <glyph glyph-name=".notdef" horiz-adv-x="514" 
d="M60 -100v850h394v-850h-394z" />
    <glyph glyph-name=".null" horiz-adv-x="0" 
 />
    <glyph glyph-name="nonmarkingreturn" horiz-adv-x="333" 
 />
    <glyph glyph-name="CR" unicode="&#xd;" horiz-adv-x="233" 
 />
    <glyph glyph-name="space" unicode=" " horiz-adv-x="233" 
 />
    <glyph glyph-name="exclam" unicode="!" horiz-adv-x="222" 
d="M82 205l-9 522h75l-9 -522h-57zM111 -8q-22 0 -37.5 15.5t-15.5 37.5q0 23 15.5 38t37.5 15t37.5 -15t15.5 -38q0 -22 -15.5 -37.5t-37.5 -15.5z" />
    <glyph glyph-name="quotedbl" unicode="&#x22;" horiz-adv-x="356" 
d="M81 530l-11 220h73l-10 -220h-52zM224 530l-11 220h73l-10 -220h-52z" />
    <glyph glyph-name="numbersign" unicode="#" horiz-adv-x="690" 
d="M66 0l75 219h-97v58h117l50 146h-119v58h139l75 219h66l-75 -219h187l75 219h66l-75 -219h96v-58h-116l-50 -146h118v-58h-138l-75 -219h-66l75 219h-187l-75 -219h-66zM227 277h187l50 146h-187z" />
    <glyph glyph-name="dollar" unicode="$" horiz-adv-x="550" 
d="M253 -67v89q-56 4 -110 24t-98 55l36 54q41 -31 84.5 -49t87.5 -23v247l-51 14q-76 23 -112.5 62.5t-36.5 98.5q0 76 54.5 123t145.5 51v88h48v-90q50 -5 97.5 -25.5t88.5 -53.5l-37 -52q-69 57 -149 69v-231l51 -15q81 -24 116.5 -62.5t35.5 -100.5q0 -51 -25.5 -91.5
t-71 -64.5t-106.5 -28v-89h-48zM253 398v220q-61 -2 -96.5 -31.5t-35.5 -76.5q0 -38 24.5 -62.5t79.5 -41.5zM301 83q61 5 97.5 36.5t36.5 80.5q0 39 -23.5 62.5t-83.5 44.5l-27 9v-233z" />
    <glyph glyph-name="percent" unicode="%" horiz-adv-x="739" 
d="M175 345q-65 0 -105.5 50t-40.5 130t40.5 130t105.5 50t105.5 -50t40.5 -130t-40.5 -130t-105.5 -50zM175 390q44 0 70 36.5t26 98.5t-26 98.5t-70 36.5q-43 0 -69.5 -36.5t-26.5 -98.5t26.5 -98.5t69.5 -36.5zM144 0l393 700h58l-394 -700h-57zM565 -5q-65 0 -105.5 50
t-40.5 130t40.5 130t105.5 50t105.5 -50t40.5 -130t-40.5 -130t-105.5 -50zM565 40q44 0 70 36.5t26 98.5t-26 98.5t-70 36.5q-43 0 -69.5 -36.5t-26.5 -98.5t26.5 -98.5t69.5 -36.5z" />
    <glyph glyph-name="ampersand" unicode="&#x26;" horiz-adv-x="669" 
d="M265 -11q-69 0 -121 25t-81 69.5t-29 104.5q0 62 34 108t121 93q-35 44 -49.5 80.5t-14.5 76.5q0 48 22 85t60.5 58.5t86.5 21.5q46 0 81.5 -18.5t56 -51t20.5 -75.5q0 -49 -27 -88t-85 -73l-50 -30q41 -46 90 -94t100 -95q25 40 41.5 88t26.5 100l68 -11
q-13 -64 -34 -119.5t-52 -102.5q32 -28 64 -53.5t60 -47.5l-45 -53q-28 22 -58.5 46.5t-61.5 50.5q-89 -95 -224 -95zM251 421l57 33q37 22 55.5 49t18.5 61q0 38 -26 62.5t-64 24.5q-42 0 -69.5 -28.5t-27.5 -75.5q0 -31 12.5 -59.5t43.5 -66.5zM268 52q50 0 94 19.5
t78 56.5q-58 53 -113 107.5t-99 105.5q-46 -25 -73.5 -47.5t-39 -47t-11.5 -56.5q0 -63 45.5 -100.5t118.5 -37.5z" />
    <glyph glyph-name="quotesingle" unicode="'" horiz-adv-x="214" 
d="M81 530l-11 220h73l-10 -220h-52z" />
    <glyph glyph-name="parenleft" unicode="(" horiz-adv-x="401" 
d="M312 -219q-76 48 -129 117.5t-80.5 157.5t-27.5 190q0 103 27.5 191t80.5 157.5t129 117.5l38 -51q-98 -61 -151.5 -169t-53.5 -246t53.5 -246t151.5 -169z" />
    <glyph glyph-name="parenright" unicode=")" horiz-adv-x="401" 
d="M89 711q77 -47 129.5 -117t80 -157.5t27.5 -190.5t-27.5 -191t-80 -157.5t-129.5 -117.5l-38 51q98 61 151.5 169t53.5 246t-53.5 246t-151.5 169z" />
    <glyph glyph-name="asterisk" unicode="*" horiz-adv-x="455" 
d="M201 341l2 138l-112 -73l-29 45l118 73l-114 72l28 44l108 -71l-1 131h52l-1 -130l107 70l30 -44l-115 -72l119 -73l-30 -45l-112 73l2 -138h-52z" />
    <glyph glyph-name="plus" unicode="+" 
d="M269 145v181h-167v60h167v181h62v-181h167v-60h-167v-181h-62z" />
    <glyph glyph-name="comma" unicode="," horiz-adv-x="250" 
d="M50 -157l60 231h78l-81 -231h-57z" />
    <glyph glyph-name="hyphen" unicode="-" horiz-adv-x="455" 
d="M61 250v63h333v-63h-333z" />
    <glyph glyph-name="period" unicode="." horiz-adv-x="250" 
d="M125 -8q-22 0 -37.5 16t-15.5 38q0 23 15.5 38.5t37.5 15.5t37.5 -15.5t15.5 -38.5q0 -22 -15.5 -38t-37.5 -16z" />
    <glyph glyph-name="slash" unicode="/" horiz-adv-x="466" 
d="M-48 -209l399 909h73l-400 -909h-72z" />
    <glyph glyph-name="zero" unicode="0" horiz-adv-x="660" 
d="M330 -11q-80 0 -141.5 46t-96.5 127.5t-35 187.5q0 107 35 188t96.5 127t141.5 46t141.5 -46t96.5 -127t35 -188q0 -106 -35 -187.5t-96.5 -127.5t-141.5 -46zM330 54q61 0 105.5 36.5t69.5 103t25 156.5t-25 156.5t-69.5 103t-105.5 36.5q-60 0 -105 -36.5t-70 -103
t-25 -156.5t25 -156.5t70 -103t105 -36.5z" />
    <glyph glyph-name="one" unicode="1" horiz-adv-x="307" 
d="M153 0v622l-112 -50v66l139 62h45v-700h-72z" />
    <glyph glyph-name="two" unicode="2" 
d="M74 0v53l280 306q33 36 51.5 63.5t26 51.5t7.5 51q0 53 -41.5 87.5t-105.5 34.5q-49 0 -91 -19t-94 -66l-42 50q55 50 111 74.5t117 24.5q63 0 112 -23.5t77 -64.5t28 -94q0 -35 -9 -64.5t-32 -63t-66 -80.5l-239 -259l361 1v-63h-451z" />
    <glyph glyph-name="three" unicode="3" 
d="M286 -11q-72 0 -134.5 25t-110.5 74l48 47q44 -44 90.5 -63.5t105.5 -19.5q51 0 90.5 18t61.5 50t22 73q0 39 -19.5 69.5t-53.5 47.5t-78 17h-83v62h80q57 0 92.5 35t35.5 91q0 37 -20 67t-54.5 47.5t-77.5 17.5q-54 0 -96.5 -19.5t-86.5 -65.5l-48 48q47 50 106 75.5
t126 25.5q64 0 114.5 -25t79.5 -68.5t29 -98.5t-36 -98.5t-95 -60.5q71 -16 114 -62t43 -107q0 -58 -31.5 -104t-87 -72t-126.5 -26z" />
    <glyph glyph-name="four" unicode="4" horiz-adv-x="618" 
d="M417 0v187h-378v57l372 456h77v-450h97v-63h-97v-187h-71zM123 250h294v363z" />
    <glyph glyph-name="five" unicode="5" 
d="M288 -11q-138 0 -238 95l45 49q46 -43 91.5 -62.5t102.5 -19.5q51 0 90 21t60.5 59t21.5 87q0 70 -47.5 113t-124.5 43q-40 0 -78 -9.5t-79 -30.5l-50 16l16 350h398v-63h-336l-11 -242q40 20 77 28.5t78 8.5q69 0 120.5 -26.5t80 -74t28.5 -110.5q0 -69 -31 -121
t-86 -81.5t-128 -29.5z" />
    <glyph glyph-name="six" unicode="6" 
d="M321 -10q-81 0 -142.5 43t-96.5 118.5t-35 174.5q0 116 39 202.5t110 134.5t165 48q44 0 87 -12t77 -35l-36 -56q-31 18 -65 28t-69 10q-72 0 -124.5 -37.5t-81 -107.5t-30.5 -168q39 50 93 78t112 28q68 0 121 -28t83 -77.5t30 -112.5q0 -66 -31 -118.5t-84.5 -82.5
t-121.5 -30zM314 380q-55 0 -105.5 -27.5t-87.5 -75.5q8 -67 34.5 -117.5t69 -78.5t95.5 -28q48 0 85.5 21.5t59 59.5t21.5 85t-22 83.5t-60.5 57t-89.5 20.5z" />
    <glyph glyph-name="seven" unicode="7" 
d="M123 0l348 637h-420v63h498v-56l-344 -644h-82z" />
    <glyph glyph-name="eight" unicode="8" 
d="M300 -11q-72 0 -128 26t-88.5 71.5t-32.5 102.5q0 43 21 79.5t58.5 63t85.5 37.5q-61 17 -99.5 61t-38.5 99q0 52 29 93t79.5 65t113.5 24q64 0 114 -24t79 -65t29 -93q0 -55 -38 -99t-100 -61q73 -17 119 -66.5t46 -113.5q0 -57 -32 -102.5t-88.5 -71.5t-128.5 -26z
M300 399q43 0 77.5 17t54.5 45.5t20 64.5t-20 65t-54.5 45.5t-77.5 16.5t-77.5 -16.5t-54.5 -45.5t-20 -65t20 -64.5t54.5 -45.5t77.5 -17zM300 47q51 0 91 19t63.5 52t23.5 74t-23.5 74t-63.5 52t-91 19t-91 -19t-63.5 -52t-23.5 -74t23.5 -74t63.5 -52t91 -19z" />
    <glyph glyph-name="nine" unicode="9" horiz-adv-x="619" 
d="M288 711q81 0 142.5 -43t96.5 -118.5t35 -174.5q0 -116 -39 -202.5t-109.5 -134.5t-165.5 -48q-43 0 -86.5 12.5t-77.5 34.5l36 56q31 -18 65.5 -28t68.5 -10q72 0 124.5 37.5t81.5 108t30 167.5q-39 -50 -93 -78t-112 -28q-68 0 -121 28.5t-83 77.5t-30 112q0 67 31 119
t84.5 82t121.5 30zM295 321q55 0 105.5 27.5t87.5 75.5q-7 68 -34 118t-69 78t-96 28q-48 0 -85.5 -21.5t-59 -59t-21.5 -85.5q0 -47 22 -83.5t60.5 -57t89.5 -20.5z" />
    <glyph glyph-name="colon" unicode=":" horiz-adv-x="250" 
d="M125 -8q-22 0 -37.5 16t-15.5 38q0 23 15.5 38.5t37.5 15.5t37.5 -15.5t15.5 -38.5q0 -22 -15.5 -38t-37.5 -16zM125 389q-22 0 -37.5 16t-15.5 38q0 23 15.5 38.5t37.5 15.5t37.5 -15.5t15.5 -38.5q0 -22 -15.5 -38t-37.5 -16z" />
    <glyph glyph-name="semicolon" unicode=";" horiz-adv-x="250" 
d="M133 389q-22 0 -37.5 16t-15.5 38q0 23 15.5 38.5t37.5 15.5t37.5 -15.5t15.5 -38.5q0 -22 -15.5 -38t-37.5 -16zM43 -157l60 231h78l-81 -231h-57z" />
    <glyph glyph-name="less" unicode="&#x3c;" 
d="M423 103l-316 246l317 245l37 -47l-261 -197l261 -199z" />
    <glyph glyph-name="equal" unicode="=" 
d="M102 245v60h396v-60h-396zM102 408v60h396v-60h-396z" />
    <glyph glyph-name="greater" unicode="&#x3e;" 
d="M177 594l316 -246l-317 -245l-37 47l261 197l-261 199z" />
    <glyph glyph-name="question" unicode="?" horiz-adv-x="512" 
d="M193 207q-2 42 4.5 73t24.5 56.5t49 48.5l42 31q41 32 58 58t17 60q0 31 -18 55t-49 38.5t-70 14.5q-47 0 -88 -23t-73 -67l-56 38q41 57 97.5 87.5t122.5 30.5q59 0 105 -22.5t73 -61.5t27 -89q0 -34 -10.5 -61.5t-34.5 -53.5t-67 -57l-32 -24q-34 -25 -48 -56t-11 -76
h-63zM226 -8q-22 0 -37.5 15.5t-15.5 37.5q0 23 15.5 38t37.5 15t37 -15t15 -38q0 -22 -15 -37.5t-37 -15.5z" />
    <glyph glyph-name="at" unicode="@" horiz-adv-x="767" 
d="M398 -144q-73 0 -135.5 26.5t-109 74t-72 111.5t-25.5 139q0 79 25.5 146.5t71 117.5t107.5 77.5t134 27.5q68 0 125.5 -23t100.5 -64.5t67 -97.5t24 -122q0 -61 -22 -109.5t-60 -76.5t-86 -28q-64 0 -89 41q-48 -45 -101 -45q-39 0 -70 20t-49 54t-18 77q0 49 22 89
t59 64t81 24q28 0 52.5 -10t42.5 -28l5 25h55l-37 -192q-7 -36 7 -55.5t46 -19.5q33 0 59.5 22t41.5 60.5t15 85.5q0 76 -35.5 136t-97.5 94.5t-140 34.5q-61 0 -113.5 -24.5t-92 -69t-61.5 -103t-22 -126.5q0 -89 38.5 -158.5t106 -109.5t153.5 -40q44 0 84.5 10.5
t76.5 30.5l17 -41q-40 -22 -86 -33.5t-95 -11.5zM365 98q43 0 76 35q-1 11 -0.5 22t2.5 24l20 106q-13 22 -36 34t-50 12q-29 0 -53.5 -17t-39 -45.5t-14.5 -62.5q0 -48 26.5 -78t68.5 -30z" />
    <glyph glyph-name="A" unicode="A" horiz-adv-x="660" 
d="M9 0l277 700h92l273 -700h-83l-83 220h-312l-83 -220h-81zM197 281h265l-133 349z" />
    <glyph glyph-name="B" unicode="B" horiz-adv-x="669" 
d="M89 0v700h283q64 0 111.5 -22t73.5 -62t26 -94q0 -58 -33.5 -99.5t-90.5 -58.5q70 -16 110.5 -60.5t40.5 -109.5q0 -58 -28 -102t-79 -68t-120 -24h-294zM166 394h200q64 0 102 32.5t38 87.5t-38 87.5t-102 32.5h-200v-240zM166 66h209q71 0 114 36.5t43 96.5t-42.5 96
t-114.5 36h-209v-265z" />
    <glyph glyph-name="C" unicode="C" horiz-adv-x="726" 
d="M412 -11q-75 0 -139.5 27.5t-113.5 77t-76 115t-27 141.5t27 141.5t76 115t113.5 77t139.5 27.5q52 0 99.5 -13.5t89.5 -39t75 -62.5l-51 -53q-39 47 -95.5 72.5t-117.5 25.5q-59 0 -110 -22t-88.5 -62t-58.5 -92.5t-21 -114.5q0 -61 21 -114t58.5 -93t88.5 -62t110 -22
q61 0 117.5 26t95.5 72l51 -53q-33 -37 -75 -62.5t-89.5 -39t-99.5 -13.5z" />
    <glyph glyph-name="D" unicode="D" horiz-adv-x="728" 
d="M166 69h160q76 0 136 37t95.5 100.5t35.5 143.5t-35.5 143.5t-95.5 100.5t-136 37h-160v-562zM89 0v700h232q77 0 141.5 -26.5t111 -74t72 -111t25.5 -138.5t-25.5 -138.5t-72 -111t-111 -74t-141.5 -26.5h-232z" />
    <glyph glyph-name="E" unicode="E" horiz-adv-x="619" 
d="M89 0v700h478v-68h-401v-245h278v-67h-278v-252h405v-68h-482z" />
    <glyph glyph-name="F" unicode="F" horiz-adv-x="610" 
d="M89 0v700h478v-68h-401v-250h274v-67h-274v-315h-77z" />
    <glyph glyph-name="G" unicode="G" horiz-adv-x="799" 
d="M410 -11q-75 0 -139 28t-112.5 77.5t-75.5 115t-27 140.5t27 140.5t75.5 115t112.5 77.5t139 28q80 0 151.5 -29t121.5 -86l-52 -52q-39 47 -98 72t-123 25q-59 0 -109 -22.5t-87.5 -62t-58.5 -92.5t-21 -114t21 -114t58.5 -92.5t87.5 -62t109 -22.5q70 0 125.5 31
t90 85.5t40.5 122.5h-236v68h314v-31q0 -73 -25 -135.5t-70.5 -110t-106.5 -74t-132 -26.5z" />
    <glyph glyph-name="H" unicode="H" horiz-adv-x="732" 
d="M88 0v700h77v-313h402v313h77v-700h-77v318h-402v-318h-77z" />
    <glyph glyph-name="I" unicode="I" horiz-adv-x="253" 
d="M88 0v700h77v-700h-77z" />
    <glyph glyph-name="J" unicode="J" 
d="M267 -11q-89 0 -154.5 47t-94.5 132l70 28q25 -67 70 -102t110 -35q82 0 131 56t49 150v435h77v-436q0 -84 -31.5 -146t-89.5 -95.5t-137 -33.5z" />
    <glyph glyph-name="K" unicode="K" horiz-adv-x="610" 
d="M89 0v700h77v-332l340 332h98l-357 -344l365 -356h-105l-341 335v-335h-77z" />
    <glyph glyph-name="L" unicode="L" horiz-adv-x="607" 
d="M89 0v700h77v-632h395v-68h-472z" />
    <glyph glyph-name="M" unicode="M" horiz-adv-x="860" 
d="M89 0v700h107l234 -498l234 498h107v-700h-73v609l-268 -559l-269 561v-611h-72z" />
    <glyph glyph-name="N" unicode="N" horiz-adv-x="739" 
d="M89 0v700h80l410 -580l-2 580h73v-700h-70l-420 593l2 -593h-73z" />
    <glyph glyph-name="O" unicode="O" horiz-adv-x="810" 
d="M405 -11q-73 0 -136 27.5t-110.5 77t-74.5 115t-27 141.5t27 141.5t74.5 115t110.5 77t136 27.5t136 -27.5t110.5 -77t74.5 -115t27 -141.5t-27 -141.5t-74.5 -115t-110.5 -77t-136 -27.5zM405 59q57 0 106 22t86 62t57.5 93t20.5 114q0 62 -20.5 114.5t-57.5 92.5
t-86 62t-106 22t-106 -22t-86 -62t-57.5 -92.5t-20.5 -114.5q0 -61 20.5 -114t57.5 -93t86 -62t106 -22z" />
    <glyph glyph-name="P" unicode="P" horiz-adv-x="654" 
d="M89 0v700h289q68 0 118 -25.5t77.5 -72t27.5 -109.5q0 -62 -27.5 -109t-77.5 -72.5t-118 -25.5h-212v-286h-77zM166 352h203q73 0 114 38t41 103t-41 102t-114 37h-203v-280z" />
    <glyph glyph-name="Q" unicode="Q" horiz-adv-x="810" 
d="M643 -24l-55 66q-40 -25 -86 -39t-97 -14q-73 0 -136 27.5t-110.5 77t-74.5 115t-27 141.5t27 141.5t74.5 115t110.5 77t136 27.5t136 -27.5t110.5 -77t74.5 -115t27 -141.5q0 -79 -30 -148t-81 -118l80 -97zM405 59q38 0 72.5 10t64.5 28l-102 121l79 12l75 -90
q38 40 59.5 93.5t21.5 116.5q0 62 -20.5 114.5t-57.5 92.5t-86 62t-106 22t-106 -22t-86 -62t-57.5 -92.5t-20.5 -114.5q0 -61 20.5 -114t57.5 -93t86 -62t106 -22z" />
    <glyph glyph-name="R" unicode="R" horiz-adv-x="647" 
d="M89 0v700h287q67 0 117 -25.5t78 -70.5t28 -106q0 -70 -39 -119.5t-107 -69.5l149 -309h-85l-142 299h-209v-299h-77zM166 363h204q69 0 110.5 36.5t41.5 97.5q0 62 -41.5 98.5t-110.5 36.5h-204v-269z" />
    <glyph glyph-name="S" unicode="S" horiz-adv-x="623" 
d="M315 -11q-82 0 -152 29.5t-135 89.5l47 56q63 -59 118.5 -84t123.5 -25q54 0 96.5 18.5t66.5 50.5t24 73q0 53 -35 80.5t-121 42.5l-113 19q-96 17 -140.5 58.5t-44.5 111.5q0 59 30.5 104.5t84.5 71.5t125 26q78 0 145 -21.5t132 -67.5l-40 -60q-54 41 -114 62.5
t-122 21.5q-49 0 -86.5 -17t-59 -46t-21.5 -66q0 -46 31 -72t101 -37l112 -19q112 -20 162.5 -64.5t50.5 -123.5q0 -61 -34.5 -109t-94.5 -75.5t-137 -27.5z" />
    <glyph glyph-name="T" unicode="T" horiz-adv-x="617" 
d="M270 0v632h-242v68h561v-68h-242v-632h-77z" />
    <glyph glyph-name="U" unicode="U" horiz-adv-x="712" 
d="M356 -11q-86 0 -149.5 37.5t-97.5 106.5t-34 163v404h77v-404q0 -72 25 -125t71 -82.5t108 -29.5t108 29.5t71 82.5t25 125v404h77v-404q0 -94 -34 -163t-97 -106.5t-150 -37.5z" />
    <glyph glyph-name="V" unicode="V" horiz-adv-x="660" 
d="M283 0l-274 700h82l240 -626l241 626h79l-276 -700h-92z" />
    <glyph glyph-name="W" unicode="W" horiz-adv-x="897" 
d="M193 0l-151 700h78l119 -579l173 579h75l173 -577l120 577h75l-151 -700h-78l-177 594l-178 -594h-78z" />
    <glyph glyph-name="X" unicode="X" horiz-adv-x="654" 
d="M11 0l270 362l-253 338h92l209 -281l207 281h90l-253 -339l270 -361h-93l-224 305l-225 -305h-90z" />
    <glyph glyph-name="Y" unicode="Y" horiz-adv-x="646" 
d="M284 0v286l-272 414h90l223 -347l224 347h85l-273 -416v-284h-77z" />
    <glyph glyph-name="Z" unicode="Z" horiz-adv-x="605" 
d="M37 0v54l430 581l-427 -2v67h524v-54l-431 -581l439 2v-67h-535z" />
    <glyph glyph-name="bracketleft" unicode="[" horiz-adv-x="361" 
d="M69 -215v915h241v-60h-171v-795h171v-60h-241z" />
    <glyph glyph-name="backslash" unicode="\" horiz-adv-x="471" 
d="M443 -209l-400 909h76l400 -909h-76z" />
    <glyph glyph-name="bracketright" unicode="]" horiz-adv-x="361" 
d="M292 700v-915h-241v60h171v795h-171v60h241z" />
    <glyph glyph-name="asciicircum" unicode="^" 
d="M91 350l177 350h64l177 -350h-66l-143 284l-143 -284h-66z" />
    <glyph glyph-name="underscore" unicode="_" horiz-adv-x="457" 
d="M-1 -137v57h459v-57h-459z" />
    <glyph glyph-name="grave" unicode="`" 
d="M294 584l-144 122h103l112 -122h-71z" />
    <glyph glyph-name="a" unicode="a" horiz-adv-x="526" 
d="M226 -9q-52 0 -92 19t-62.5 52.5t-22.5 77.5t23 76.5t64 50.5t96 18q42 0 79.5 -9t69.5 -29v67q0 60 -32 90.5t-94 30.5q-34 0 -69.5 -10t-78.5 -32l-27 56q98 47 184 47q91 0 140 -44.5t49 -127.5v-324h-72v57q-32 -33 -71 -49.5t-84 -16.5zM119 142q0 -43 33.5 -69
t88.5 -26q41 0 75.5 14t64.5 42v94q-31 18 -64 26.5t-74 8.5q-56 0 -90 -24.5t-34 -65.5z" />
    <glyph glyph-name="b" unicode="b" horiz-adv-x="583" 
d="M75 0v715l73 15v-309q28 35 68 54t89 19q64 0 114.5 -33.5t80.5 -90t30 -126.5t-30.5 -127t-82 -90.5t-116.5 -33.5q-46 0 -85.5 18.5t-68.5 52.5v-64h-72zM287 56q49 0 87.5 24.5t61 67t22.5 95.5q0 54 -22.5 96t-61 66.5t-87.5 24.5q-43 0 -79.5 -17.5t-59.5 -49.5
v-239q24 -32 60.5 -50t78.5 -18z" />
    <glyph glyph-name="c" unicode="c" horiz-adv-x="509" 
d="M294 -8q-68 0 -122.5 33.5t-86.5 91t-32 127.5q0 71 32 128t86.5 90.5t122.5 33.5q54 0 103 -20t85 -56l-47 -51q-26 29 -63 45t-75 16q-48 0 -86.5 -25t-61.5 -67t-23 -94t23 -94t61.5 -67t86.5 -25q38 0 75 16.5t63 44.5l47 -51q-36 -36 -85 -56t-103 -20z" />
    <glyph glyph-name="d" unicode="d" horiz-adv-x="582" 
d="M278 -7q-63 0 -114 33.5t-81 90t-30 126.5q0 71 30.5 127.5t82.5 90t116 33.5q45 0 84 -17.5t68 -50.5v296l73 15v-737h-73v65q-28 -35 -68 -53.5t-88 -18.5zM296 57q43 0 79 17t59 48v242q-24 31 -60.5 48.5t-77.5 17.5q-49 0 -87.5 -24t-61 -66t-22.5 -96
q0 -53 22.5 -95.5t61 -67t87.5 -24.5z" />
    <glyph glyph-name="e" unicode="e" horiz-adv-x="557" 
d="M295 -10q-68 0 -123 33.5t-87 91t-32 129.5t30.5 129t82.5 90t117 33q64 0 114.5 -32.5t80 -88t29.5 -125.5v-22h-383q4 -50 27.5 -89.5t62 -62t84.5 -22.5q38 0 73.5 13.5t60.5 36.5l46 -49q-42 -33 -87 -49t-96 -16zM126 280h309q-5 44 -26.5 78.5t-54 54.5t-72.5 20
t-73 -19.5t-54.5 -54t-28.5 -79.5z" />
    <glyph glyph-name="f" unicode="f" horiz-adv-x="370" 
d="M137 0v428h-109v60h109v102q0 72 38 111t108 39q20 0 36.5 -2t29.5 -7v-66q-16 5 -29 7t-30 2q-42 0 -61 -20.5t-19 -64.5v-101h139v-60h-139v-428h-73z" />
    <glyph glyph-name="g" unicode="g" horiz-adv-x="582" 
d="M301 -219q-49 0 -98.5 13.5t-91.5 37.5l31 56q45 -23 82 -34t74 -11q67 0 101.5 32t34.5 93v98q-28 -35 -68 -53.5t-88 -18.5q-63 0 -114 33.5t-81 90t-30 126.5t30.5 126.5t82.5 90t116 33.5q46 0 85 -17.5t68 -51.5v63h72v-519q0 -91 -53 -139.5t-153 -48.5zM296 57
q43 0 79 17.5t59 48.5v241q-24 31 -60.5 48.5t-77.5 17.5q-49 0 -87.5 -24t-61 -66t-22.5 -96q0 -53 22.5 -95.5t61 -67t87.5 -24.5z" />
    <glyph glyph-name="h" unicode="h" horiz-adv-x="552" 
d="M75 0v722l73 15v-328q28 44 67 65.5t88 21.5q53 0 92.5 -22.5t62 -63t22.5 -94.5v-316h-73v295q0 65 -35.5 102.5t-95.5 37.5q-40 0 -73 -19t-55 -56v-360h-73z" />
    <glyph glyph-name="i" unicode="i" horiz-adv-x="222" 
d="M74 0v488h73v-488h-73zM111 609q-22 0 -37.5 15.5t-15.5 36.5t15.5 36.5t37.5 15.5t37.5 -15.5t15.5 -36.5t-15.5 -36.5t-37.5 -15.5z" />
    <glyph glyph-name="j" unicode="j" horiz-adv-x="223" 
d="M112 609q-22 0 -37.5 15.5t-15.5 36.5t15.5 36.5t37.5 15.5t37.5 -15.5t15.5 -36.5t-15.5 -36.5t-37.5 -15.5zM25 -219q-12 0 -23.5 2t-21.5 4v63q9 -2 17.5 -3t18.5 -1q32 0 45.5 15t13.5 49v578h73v-582q0 -59 -31.5 -92t-91.5 -33z" />
    <glyph glyph-name="k" unicode="k" horiz-adv-x="489" 
d="M75 0v722l73 15v-468l232 219h88l-248 -232l259 -256h-96l-235 233v-233h-73z" />
    <glyph glyph-name="l" unicode="l" horiz-adv-x="223" 
d="M75 0v722l73 15v-737h-73z" />
    <glyph glyph-name="m" unicode="m" horiz-adv-x="845" 
d="M75 0v488h73v-76q28 42 64 63t81 21q52 0 91 -25.5t59 -69.5q29 47 69.5 71t93.5 24q49 0 86.5 -23t58.5 -63.5t21 -94.5v-315h-73v297q0 64 -32 101t-88 37q-38 0 -68.5 -19t-53.5 -58q2 -10 3 -21t1 -22v-315h-73v297q0 64 -32.5 101t-88.5 37q-75 0 -119 -72v-363h-73
z" />
    <glyph glyph-name="n" unicode="n" horiz-adv-x="552" 
d="M75 0v488h73v-79q28 44 67 65.5t88 21.5q53 0 92.5 -22.5t62 -63t22.5 -94.5v-316h-73v295q0 65 -35.5 102.5t-95.5 37.5q-40 0 -73 -19t-55 -56v-360h-73z" />
    <glyph glyph-name="o" unicode="o" horiz-adv-x="580" 
d="M290 -8q-67 0 -121 33t-85 90t-31 129t31 129t85 90t121 33q68 0 121.5 -33t84.5 -90t31 -129t-31 -129t-84.5 -90t-121.5 -33zM290 56q48 0 85 24.5t58.5 67.5t21.5 96q0 54 -21.5 96.5t-58.5 67t-85 24.5t-85 -24.5t-58.5 -67t-21.5 -96.5q0 -53 21.5 -96t58.5 -67.5
t85 -24.5z" />
    <glyph glyph-name="p" unicode="p" horiz-adv-x="583" 
d="M75 -209v697h72v-70q28 37 68.5 56.5t89.5 19.5q64 0 114.5 -33.5t80.5 -90t30 -126.5t-30.5 -127t-82 -90.5t-116.5 -33.5q-46 0 -85 17.5t-68 50.5v-270h-73zM287 56q49 0 87.5 24.5t61 67t22.5 95.5q0 54 -22.5 96t-61 66.5t-87.5 24.5q-43 0 -79.5 -17.5t-59.5 -49.5
v-239q24 -32 60.5 -50t78.5 -18z" />
    <glyph glyph-name="q" unicode="q" horiz-adv-x="582" 
d="M434 -209v274q-28 -35 -68 -53.5t-88 -18.5q-63 0 -114 33.5t-81 90t-30 126.5q0 71 30.5 127.5t82.5 90t116 33.5q45 0 84 -17.5t68 -50.5v62h73v-697h-73zM296 57q43 0 79 17t59 48v242q-24 31 -60.5 48.5t-77.5 17.5q-49 0 -87.5 -24t-61 -66t-22.5 -96
q0 -53 22.5 -95.5t61 -67t87.5 -24.5z" />
    <glyph glyph-name="r" unicode="r" horiz-adv-x="352" 
d="M75 0v488h73v-100q19 51 54.5 79.5t81.5 28.5q13 0 24 -1.5t22 -5.5v-66q-12 4 -25.5 6.5t-25.5 2.5q-45 0 -78.5 -26t-52.5 -73v-333h-73z" />
    <glyph glyph-name="s" unicode="s" horiz-adv-x="452" 
d="M226 -10q-60 0 -111 18.5t-87 53.5l39 48q44 -32 81 -46.5t76 -14.5q53 0 88 25t35 64q0 30 -20.5 47t-67.5 26l-80 14q-71 13 -104.5 44t-33.5 84q0 42 22.5 74t62.5 50.5t91 18.5q50 0 95 -14.5t91 -46.5l-36 -51q-38 27 -76 39.5t-77 12.5q-48 0 -77 -21t-29 -57
q0 -30 18.5 -46t65.5 -24l82 -15q74 -13 108 -45t34 -86q0 -43 -25 -77.5t-68 -54.5t-97 -20z" />
    <glyph glyph-name="t" unicode="t" horiz-adv-x="378" 
d="M261 -10q-63 0 -95.5 30.5t-32.5 88.5v319h-101v60h101v134l73 17v-151h140v-60h-140v-300q0 -39 16.5 -56t54.5 -17q19 0 34 3t35 10v-65q-20 -7 -42 -10t-43 -3z" />
    <glyph glyph-name="u" unicode="u" horiz-adv-x="552" 
d="M249 -8q-52 0 -92 23t-62.5 64t-22.5 94v315h74v-294q0 -65 35 -103t95 -38q41 0 73.5 19t54.5 55v361h73v-488h-73v79q-28 -43 -66.5 -65t-88.5 -22z" />
    <glyph glyph-name="v" unicode="v" horiz-adv-x="501" 
d="M215 0l-200 488h79l158 -397l156 397h78l-201 -488h-70z" />
    <glyph glyph-name="w" unicode="w" horiz-adv-x="698" 
d="M162 0l-134 488h71l102 -390l117 390h65l117 -390l101 390h69l-133 -488h-71l-116 394l-116 -394h-72z" />
    <glyph glyph-name="x" unicode="x" horiz-adv-x="487" 
d="M13 0l187 253l-176 235h87l135 -186l134 186h83l-177 -237l188 -251h-87l-146 199l-145 -199h-83z" />
    <glyph glyph-name="y" unicode="y" horiz-adv-x="498" 
d="M96 -219q-23 0 -47 7v65q10 -2 21 -3t19 -1q28 0 46.5 15t31.5 47l36 89l-188 488h81l148 -401l157 401h81l-246 -599q-16 -39 -35 -63t-44 -34.5t-61 -10.5z" />
    <glyph glyph-name="z" unicode="z" horiz-adv-x="459" 
d="M41 0v58l281 364l-278 -1v67h367v-57l-282 -366l286 1v-66h-374z" />
    <glyph glyph-name="braceleft" unicode="{" horiz-adv-x="394" 
d="M265 -219q-55 0 -89.5 26t-43 71.5t13.5 101.5l40 101q22 57 2 95.5t-72 38.5h-74v61h74q52 0 72.5 38.5t-2.5 95.5l-40 102q-22 57 -13.5 102t43 71t89.5 26q20 0 38 -3.5t39 -11.5l-14 -56q-16 6 -30 8.5t-29 2.5q-31 0 -49 -16t-21.5 -43.5t9.5 -62.5l46 -123
q14 -36 8 -69t-28 -57t-57 -34q36 -10 57.5 -34.5t27 -57t-7.5 -69.5l-46 -122q-13 -35 -9.5 -62.5t21.5 -43t49 -16.5q15 0 29 2.5t30 8.5l14 -56q-21 -8 -39 -11.5t-38 -3.5z" />
    <glyph glyph-name="bar" unicode="|" horiz-adv-x="291" 
d="M112 -209v909h67v-909h-67z" />
    <glyph glyph-name="braceright" unicode="}" horiz-adv-x="394" 
d="M129 711q56 0 90 -26t42.5 -71t-13.5 -102l-40 -101q-22 -57 -2 -95.5t72 -38.5h74v-61h-74q-52 0 -72 -38.5t2 -95.5l40 -102q22 -56 13.5 -101.5t-42.5 -71.5t-90 -26q-19 0 -37.5 3.5t-39.5 11.5l14 56q17 -6 30.5 -8.5t28.5 -2.5q31 1 49 16.5t21.5 43t-9.5 62.5
l-46 123q-13 37 -7.5 69.5t27.5 57t57 33.5q-35 11 -57 35t-27.5 57t7.5 69l46 122q13 36 9.5 63t-21.5 43t-49 16q-15 0 -28.5 -2.5t-30.5 -8.5l-14 56q21 8 39.5 11.5t37.5 3.5z" />
    <glyph glyph-name="asciitilde" unicode="~" 
d="M120 301l-57 7q8 70 40 108t81 38q19 0 39.5 -6.5t48.5 -22.5l75 -40q24 -12 37.5 -17t26.5 -5q59 0 70 91l56 -7q-7 -70 -39 -108t-81 -38q-19 0 -40.5 6.5t-48.5 21.5l-75 40q-25 14 -38 18.5t-26 4.5q-57 0 -69 -91z" />
    <glyph glyph-name="uni00A0" unicode="&#xa0;" horiz-adv-x="233" 
 />
    <glyph glyph-name="exclamdown" unicode="&#xa1;" horiz-adv-x="222" 
d="M140 284l9 -522h-75l9 522h57zM111 497q22 0 37.5 -15t15.5 -38q0 -22 -15.5 -37.5t-37.5 -15.5t-37.5 15.5t-15.5 37.5q0 23 15.5 38t37.5 15z" />
    <glyph glyph-name="cent" unicode="&#xa2;" horiz-adv-x="509" 
d="M264 -118v112q-60 8 -108 42.5t-75.5 88.5t-27.5 119t27.5 119t75.5 89t108 42v115h50v-114q48 -3 91.5 -22.5t76.5 -52.5l-47 -51q-23 26 -55 41.5t-66 18.5v-370q34 3 66 19t55 41l47 -51q-33 -33 -76.5 -52.5t-91.5 -22.5v-111h-50zM126 244q0 -46 18 -84.5t49 -64
t71 -34.5v366q-40 -8 -71 -34t-49 -64.5t-18 -84.5z" />
    <glyph glyph-name="sterling" unicode="&#xa3;" horiz-adv-x="616" 
d="M457 -21q-13 0 -27.5 1.5t-30.5 5.5l-194 41q-10 2 -20 3t-19 1q-65 0 -100 -68l-54 36q26 45 59.5 68.5t76.5 27.5q30 21 30 65q0 4 -1 13.5t-6.5 40.5t-17.5 98h-101v57h91q-6 39 -9.5 62t-5 37.5t-1.5 25.5q0 67 24.5 115.5t70.5 75t110 26.5q86 0 141.5 -45
t75.5 -131l-66 -19q-14 65 -52.5 98.5t-98.5 33.5q-66 0 -100 -38t-34 -109q0 -9 1 -22t4.5 -38t11.5 -72h199v-57h-189q10 -59 14 -87.5t5 -39t1 -16.5q0 -51 -27 -80l194 -40q11 -2 21.5 -3.5t20.5 -1.5q62 0 94 60l55 -35q-52 -90 -146 -90z" />
    <glyph glyph-name="currency" unicode="&#xa4;" horiz-adv-x="682" 
d="M85 64l-39 40l93 94q-25 33 -39.5 75t-14.5 88q0 47 14.5 88t40.5 74l-94 95l40 41l94 -95q33 27 74 42t87 15t87 -15t74 -42l94 95l39 -40l-95 -95q26 -33 41 -74.5t15 -88.5q0 -46 -14 -87.5t-40 -74.5l94 -95l-40 -41l-94 94q-33 -27 -74 -42t-87 -15t-88 15.5
t-75 42.5zM341 167q51 0 92.5 26t66 70t24.5 98q0 55 -24.5 98.5t-66 69.5t-92.5 26t-92.5 -26t-66 -69.5t-24.5 -98.5q0 -54 24.5 -98t66 -70t92.5 -26z" />
    <glyph glyph-name="yen" unicode="&#xa5;" horiz-adv-x="646" 
d="M284 0v134h-178v54h178v75h-178v54h158l-252 383h90l223 -347l224 347h85l-251 -383h155v-54h-177v-75h177v-54h-177v-134h-77z" />
    <glyph glyph-name="brokenbar" unicode="&#xa6;" horiz-adv-x="292" 
d="M112 287v413h68v-413h-68zM112 -209v413h68v-413h-68z" />
    <glyph glyph-name="section" unicode="&#xa7;" horiz-adv-x="568" 
d="M281 -50q-86 0 -171 48l29 53q40 -22 75.5 -34t66.5 -12q46 0 72 21t26 58q0 29 -17 48.5t-55 32.5l-104 36q-73 25 -103 57.5t-30 86.5q0 47 27.5 79.5t76.5 45.5q-52 39 -52 104q0 62 45.5 99.5t119.5 37.5q41 0 84.5 -13t86.5 -36l-29 -53q-40 23 -76 35t-66 12
q-46 0 -72.5 -21t-26.5 -58q0 -29 18 -48.5t55 -32.5l103 -36q74 -25 104 -57.5t30 -87.5q0 -46 -28 -78.5t-77 -46.5q52 -39 52 -104q0 -61 -45 -98.5t-119 -37.5zM336 220q45 5 72 29.5t27 60.5q0 32 -21 53t-65 37l-110 37q-2 1 -4 1.5t-4 1.5q-45 -5 -71.5 -28.5
t-26.5 -61.5q0 -31 20.5 -52t65.5 -38l109 -37q2 -1 4 -1.5t4 -1.5z" />
    <glyph glyph-name="dieresis" unicode="&#xa8;" 
d="M212 609q-22 0 -37.5 15.5t-15.5 36.5t15.5 36.5t37.5 15.5t37.5 -15.5t15.5 -36.5t-15.5 -36.5t-37.5 -15.5zM388 609q-22 0 -37.5 15.5t-15.5 36.5t15.5 36.5t37.5 15.5t37.5 -15.5t15.5 -36.5t-15.5 -36.5t-37.5 -15.5z" />
    <glyph glyph-name="copyright" unicode="&#xa9;" horiz-adv-x="797" 
d="M408 166q-48 0 -87 24.5t-62 66.5t-23 93q0 52 23 93.5t62 66.5t87 25q38 0 73.5 -15t60.5 -43l-35 -40q-19 22 -45 34t-52 12q-33 0 -60 -17.5t-43 -47.5t-16 -68q0 -37 16 -67t43 -47.5t60 -17.5q27 0 51 11t46 33l34 -39q-26 -27 -60.5 -42t-72.5 -15zM398 -11
q-72 0 -134 27.5t-109 77t-73 115t-26 141.5t26 141.5t73 115t109 77t134 27.5t134.5 -27.5t109.5 -76.5t73 -114.5t26 -142.5q0 -76 -26 -142t-73 -115t-109.5 -76.5t-134.5 -27.5zM398 32q63 0 117 24.5t94.5 68t63.5 101.5t23 124t-23 124t-63.5 101.5t-94.5 68
t-117 24.5q-61 0 -115 -24.5t-94.5 -68t-63.5 -101.5t-23 -124t23 -124t63.5 -101.5t94.5 -68t115 -24.5z" />
    <glyph glyph-name="ordfeminine" unicode="&#xaa;" horiz-adv-x="408" 
d="M173 319q-62 0 -101 32t-39 82q0 53 41.5 84t111.5 31q57 0 107 -26v49q0 87 -97 87q-27 0 -55 -7.5t-63 -24.5l-23 47q42 20 78 29t70 9q73 0 112 -34.5t39 -98.5v-252h-61v40q-51 -47 -120 -47zM185 367q32 0 59 10t49 29v71q-22 14 -47.5 20.5t-57.5 6.5
q-43 0 -69 -18.5t-26 -50.5q0 -31 25.5 -49.5t66.5 -18.5z" />
    <glyph glyph-name="guillemotleft" unicode="&#xab;" horiz-adv-x="625" 
d="M267 0l-223 245l223 243h77l-217 -241l220 -247h-80zM491 0l-223 245l223 243h77l-217 -241l220 -247h-80z" />
    <glyph glyph-name="logicalnot" unicode="&#xac;" horiz-adv-x="583" 
d="M462 0v254h-395v60h457v-314h-62z" />
    <glyph glyph-name="registered" unicode="&#xae;" horiz-adv-x="496" 
d="M247 312q-53 0 -96.5 26.5t-68.5 72.5t-25 102q0 57 25 102.5t68.5 72t96.5 26.5q54 0 97 -26.5t68.5 -72t25.5 -102.5q0 -56 -25.5 -102t-68.5 -72.5t-97 -26.5zM247 346q46 0 81 21.5t55 59.5t20 86t-20 86t-55 59.5t-81 21.5q-44 0 -79 -21.5t-55 -59.5t-20 -86
q0 -47 20 -85t55 -60t79 -22zM184 420v188h72q28 0 43.5 -15.5t15.5 -42.5q0 -36 -33 -52l45 -78h-36l-40 71h-34v-71h-33zM251 580h-34v-63h34q32 0 32 32q0 31 -32 31z" />
    <glyph glyph-name="macron" unicode="&#xaf;" 
d="M164 611v52h272v-52h-272z" />
    <glyph glyph-name="degree" unicode="&#xb0;" horiz-adv-x="404" 
d="M202 423q-39 0 -71.5 19.5t-52 52.5t-19.5 72q0 40 19.5 72.5t52 52t71.5 19.5q40 0 72 -19.5t51.5 -52t19.5 -72.5q0 -39 -19.5 -72t-51.5 -52.5t-72 -19.5zM202 472q38 0 65.5 28t27.5 67t-27.5 67t-65.5 28t-65.5 -28t-27.5 -67t27.5 -67t65.5 -28z" />
    <glyph glyph-name="plusminus" unicode="&#xb1;" 
d="M102 -1v60h396v-60h-396zM269 173v176h-167v60h167v176h62v-176h167v-60h-167v-176h-62z" />
    <glyph glyph-name="uni00B2" unicode="&#xb2;" horiz-adv-x="291" 
d="M27 350v38l140 130q26 25 36.5 43t10.5 39q0 26 -20 43t-51 17q-24 0 -45.5 -9t-49.5 -34l-29 35q29 26 60 39.5t65 13.5q53 0 86.5 -28.5t33.5 -72.5q0 -30 -14 -54t-49 -56l-107 -100h175v-44h-242z" />
    <glyph glyph-name="uni00B3" unicode="&#xb3;" horiz-adv-x="313" 
d="M151 345q-74 0 -131 45l30 38q26 -20 51 -29t50 -9q36 0 59 16t23 42t-22 41.5t-59 15.5h-33v40h28q32 0 52.5 17t20.5 43q0 24 -20 39.5t-50 15.5q-25 0 -47 -9t-47 -29l-31 36q27 23 59.5 35.5t66.5 12.5q53 0 87 -27t34 -70q0 -28 -19.5 -49.5t-53.5 -30.5
q38 -7 61.5 -28.5t23.5 -53.5q0 -45 -37 -73.5t-96 -28.5z" />
    <glyph glyph-name="acute" unicode="&#xb4;" 
d="M236 584l112 122h99l-144 -122h-67z" />
    <glyph glyph-name="uni00B5" unicode="&#xb5;" horiz-adv-x="555" 
d="M75 -209v697h73v-295q0 -64 35.5 -102t95.5 -38q41 0 73.5 19t54.5 56v360h73v-488h-73v79q-28 -43 -67 -65t-88 -22q-61 0 -104 34v-235h-73z" />
    <glyph glyph-name="paragraph" unicode="&#xb6;" horiz-adv-x="650" 
d="M316 0v289h-54q-62 0 -110 26t-74.5 72.5t-26.5 106.5q0 62 26.5 108t74 72t109.5 26h301v-700h-66v289h-113v-289h-67zM383 352h113v285h-113v-285zM262 352h54v285h-54q-64 0 -103 -39t-39 -103q0 -65 39 -104t103 -39z" />
    <glyph glyph-name="periodcentered" unicode="&#xb7;" horiz-adv-x="250" 
d="M128 229q-22 0 -37.5 16t-15.5 38q0 23 15.5 38.5t37.5 15.5t37.5 -15.5t15.5 -38.5q0 -22 -15.5 -38t-37.5 -16z" />
    <glyph glyph-name="cedilla" unicode="&#xb8;" 
d="M285 -239q-34 0 -62 9t-48 27l28 32q35 -29 79 -29q31 0 48 14t17 38q0 23 -18.5 36t-52.5 13h-29l25 99h42l-15 -66q44 -2 70.5 -23.5t26.5 -56.5q0 -40 -31 -66.5t-80 -26.5z" />
    <glyph glyph-name="uni00B9" unicode="&#xb9;" horiz-adv-x="165" 
d="M84 350v296l-63 -26v45l82 35h32v-350h-51z" />
    <glyph glyph-name="ordmasculine" unicode="&#xba;" horiz-adv-x="464" 
d="M232 317q-54 0 -98 26t-70 71t-26 100q0 56 26 100.5t70 70.5t98 26t98 -26t70 -70.5t26 -100.5q0 -55 -26 -100t-70 -71t-98 -26zM232 372q37 0 67 19t47.5 51t17.5 72t-17.5 72t-47.5 51t-67 19t-67 -19t-47.5 -51t-17.5 -72t17.5 -72t47.5 -51t67 -19z" />
    <glyph glyph-name="guillemotright" unicode="&#xbb;" horiz-adv-x="624" 
d="M357 488l223 -245l-223 -243h-77l217 241l-220 247h80zM134 488l223 -245l-223 -243h-77l217 241l-220 247h80z" />
    <glyph glyph-name="onequarter" unicode="&#xbc;" horiz-adv-x="603" 
d="M492 0v88h-197v41l191 221h57v-220h42v-42h-42v-88h-51zM349 130h143v165zM84 350v296l-63 -26v45l82 35h32v-350h-51zM40 0l393 700h58l-394 -700h-57z" />
    <glyph glyph-name="onehalf" unicode="&#xbd;" horiz-adv-x="637" 
d="M84 350v296l-63 -26v45l82 35h32v-350h-51zM40 0l393 700h58l-394 -700h-57zM373 0v38l140 130q26 25 36.5 43t10.5 39q0 26 -20 43t-51 17q-24 0 -45.5 -9t-49.5 -34l-29 35q29 26 60 39.5t65 13.5q53 0 86.5 -28.5t33.5 -72.5q0 -30 -14 -54t-49 -56l-107 -100h175v-44
h-242z" />
    <glyph glyph-name="threequarters" unicode="&#xbe;" horiz-adv-x="697" 
d="M586 0v88h-197v41l191 221h57v-220h42v-42h-42v-88h-51zM443 130h143v165zM151 345q-74 0 -131 45l30 38q26 -20 51 -29t50 -9q36 0 59 16t23 42t-22 41.5t-59 15.5h-33v40h28q32 0 52.5 17t20.5 43q0 24 -20 39.5t-50 15.5q-25 0 -47 -9t-47 -29l-31 36q27 23 59.5 35.5
t66.5 12.5q53 0 87 -27t34 -70q0 -28 -19.5 -49.5t-53.5 -30.5q38 -7 61.5 -28.5t23.5 -53.5q0 -45 -37 -73.5t-96 -28.5zM134 0l393 700h58l-394 -700h-57z" />
    <glyph glyph-name="questiondown" unicode="&#xbf;" horiz-adv-x="512" 
d="M319 282q3 -41 -4 -72.5t-25 -57t-49 -48.5l-42 -31q-41 -31 -58 -57.5t-17 -60.5q0 -30 18 -54.5t49.5 -39t69.5 -14.5q47 0 88 23t73 67l56 -38q-40 -57 -97 -87.5t-123 -30.5q-58 0 -104.5 22.5t-73.5 62t-27 88.5q0 35 10.5 62t34.5 53.5t67 56.5l32 24
q35 26 48.5 56.5t10.5 75.5h63zM286 497q23 0 38 -15.5t15 -37.5t-15 -37.5t-38 -15.5q-22 0 -37 15.5t-15 37.5t15 37.5t37 15.5z" />
    <glyph glyph-name="Agrave" unicode="&#xc0;" horiz-adv-x="660" 
d="M9 0l277 700h92l273 -700h-83l-83 220h-312l-83 -220h-81zM197 281h265l-133 349zM326 796l-144 122h103l112 -122h-71z" />
    <glyph glyph-name="Aacute" unicode="&#xc1;" horiz-adv-x="660" 
d="M9 0l277 700h92l273 -700h-83l-83 220h-312l-83 -220h-81zM197 281h265l-133 349zM268 796l112 122h99l-144 -122h-67z" />
    <glyph glyph-name="Acircumflex" unicode="&#xc2;" horiz-adv-x="660" 
d="M9 0l277 700h92l273 -700h-83l-83 220h-312l-83 -220h-81zM197 281h265l-133 349zM425 791l-94 84l-93 -84h-59l114 127h78l114 -127h-60z" />
    <glyph glyph-name="Atilde" unicode="&#xc3;" horiz-adv-x="660" 
d="M9 0l277 700h92l273 -700h-83l-83 220h-312l-83 -220h-81zM197 281h265l-133 349zM212 792l-51 10q14 51 39 77.5t61 26.5q29 0 54.5 -15t48 -30t42.5 -15q17 0 26.5 14t19.5 50l51 -10q-13 -51 -37.5 -77.5t-58.5 -26.5q-28 0 -53 15t-47.5 30t-43.5 15
q-19 0 -30.5 -14.5t-20.5 -49.5z" />
    <glyph glyph-name="Adieresis" unicode="&#xc4;" horiz-adv-x="660" 
d="M9 0l277 700h92l273 -700h-83l-83 220h-312l-83 -220h-81zM197 281h265l-133 349zM244 821q-22 0 -37.5 15.5t-15.5 36.5t15.5 36.5t37.5 15.5t37.5 -15.5t15.5 -36.5t-15.5 -36.5t-37.5 -15.5zM420 821q-22 0 -37.5 15.5t-15.5 36.5t15.5 36.5t37.5 15.5t37.5 -15.5
t15.5 -36.5t-15.5 -36.5t-37.5 -15.5z" />
    <glyph glyph-name="Aring" unicode="&#xc5;" horiz-adv-x="660" 
d="M9 0l277 700h92l273 -700h-83l-83 220h-312l-83 -220h-81zM197 281h265l-133 349zM332 784q-31 0 -56.5 15t-40.5 40.5t-15 55.5q0 31 15 56t40.5 40t56.5 15t56.5 -15t40.5 -40t15 -56q0 -30 -15 -55.5t-40.5 -40.5t-56.5 -15zM332 825q29 0 49.5 20.5t20.5 49.5
t-20.5 49.5t-49.5 20.5t-49.5 -20.5t-20.5 -49.5t20.5 -49.5t49.5 -20.5z" />
    <glyph glyph-name="AE" unicode="&#xc6;" horiz-adv-x="918" 
d="M9 0l277 700h584v-68h-461l92 -245h237v-67h-212l95 -252h249v-68h-303l-83 220h-311l-84 -220h-80zM196 281h265l-132 350z" />
    <glyph glyph-name="Ccedilla" unicode="&#xc7;" horiz-adv-x="726" 
d="M403 -239q-34 0 -62 9t-48 27l28 32q35 -29 79 -29q31 0 48 14t17 38q0 23 -18.5 36t-52.5 13h-29l22 89q-70 5 -130.5 34t-105.5 77.5t-70 112t-25 136.5q0 76 27 141.5t76 115t113.5 77t139.5 27.5q52 0 99.5 -13.5t89.5 -39t75 -62.5l-51 -53q-39 47 -95.5 72.5
t-117.5 25.5q-59 0 -110 -22t-88.5 -62t-58.5 -92.5t-21 -114.5q0 -61 21 -114t58.5 -93t88.5 -62t110 -22q61 0 117.5 26t95.5 72l51 -53q-46 -52 -110 -81.5t-136 -33.5l-13 -55q44 -2 70.5 -23.5t26.5 -56.5q0 -40 -31 -66.5t-80 -26.5z" />
    <glyph glyph-name="Egrave" unicode="&#xc8;" horiz-adv-x="619" 
d="M89 0v700h478v-68h-401v-245h278v-67h-278v-252h405v-68h-482zM323 796l-144 122h103l112 -122h-71z" />
    <glyph glyph-name="Eacute" unicode="&#xc9;" horiz-adv-x="619" 
d="M89 0v700h478v-68h-401v-245h278v-67h-278v-252h405v-68h-482zM265 796l112 122h99l-144 -122h-67z" />
    <glyph glyph-name="Ecircumflex" unicode="&#xca;" horiz-adv-x="619" 
d="M89 0v700h478v-68h-401v-245h278v-67h-278v-252h405v-68h-482zM422 791l-94 84l-93 -84h-59l114 127h78l114 -127h-60z" />
    <glyph glyph-name="Edieresis" unicode="&#xcb;" horiz-adv-x="619" 
d="M89 0v700h478v-68h-401v-245h278v-67h-278v-252h405v-68h-482zM241 821q-22 0 -37.5 15.5t-15.5 36.5t15.5 36.5t37.5 15.5t37.5 -15.5t15.5 -36.5t-15.5 -36.5t-37.5 -15.5zM417 821q-22 0 -37.5 15.5t-15.5 36.5t15.5 36.5t37.5 15.5t37.5 -15.5t15.5 -36.5
t-15.5 -36.5t-37.5 -15.5z" />
    <glyph glyph-name="Igrave" unicode="&#xcc;" horiz-adv-x="253" 
d="M88 0v700h77v-700h-77zM120 796l-144 122h103l112 -122h-71z" />
    <glyph glyph-name="Iacute" unicode="&#xcd;" horiz-adv-x="253" 
d="M88 0v700h77v-700h-77zM62 796l112 122h99l-144 -122h-67z" />
    <glyph glyph-name="Icircumflex" unicode="&#xce;" horiz-adv-x="253" 
d="M88 0v700h77v-700h-77zM219 791l-94 84l-93 -84h-59l114 127h78l114 -127h-60z" />
    <glyph glyph-name="Idieresis" unicode="&#xcf;" horiz-adv-x="253" 
d="M88 0v700h77v-700h-77zM38 821q-22 0 -37.5 15.5t-15.5 36.5t15.5 36.5t37.5 15.5t37.5 -15.5t15.5 -36.5t-15.5 -36.5t-37.5 -15.5zM214 821q-22 0 -37.5 15.5t-15.5 36.5t15.5 36.5t37.5 15.5t37.5 -15.5t15.5 -36.5t-15.5 -36.5t-37.5 -15.5z" />
    <glyph glyph-name="Eth" unicode="&#xd0;" horiz-adv-x="760" 
d="M121 0v322h-96v61h96v317h232q77 0 141.5 -26.5t111 -74t72 -111t25.5 -138.5t-25.5 -138.5t-72 -111t-111 -74t-141.5 -26.5h-232zM198 69h160q76 0 136 37t95.5 100.5t35.5 143.5t-35.5 143.5t-95.5 100.5t-136 37h-160v-248h166v-61h-166v-253z" />
    <glyph glyph-name="Ntilde" unicode="&#xd1;" horiz-adv-x="739" 
d="M89 0v700h80l410 -580l-2 580h73v-700h-70l-420 593l2 -593h-73zM253 792l-51 10q14 51 39 77.5t61 26.5q29 0 54.5 -15t48 -30t42.5 -15q17 0 26.5 14t19.5 50l51 -10q-13 -51 -37.5 -77.5t-58.5 -26.5q-28 0 -53 15t-47.5 30t-43.5 15q-19 0 -30.5 -14.5t-20.5 -49.5z
" />
    <glyph glyph-name="Ograve" unicode="&#xd2;" horiz-adv-x="810" 
d="M405 -11q-73 0 -136 27.5t-110.5 77t-74.5 115t-27 141.5t27 141.5t74.5 115t110.5 77t136 27.5t136 -27.5t110.5 -77t74.5 -115t27 -141.5t-27 -141.5t-74.5 -115t-110.5 -77t-136 -27.5zM405 59q57 0 106 22t86 62t57.5 93t20.5 114q0 62 -20.5 114.5t-57.5 92.5
t-86 62t-106 22t-106 -22t-86 -62t-57.5 -92.5t-20.5 -114.5q0 -61 20.5 -114t57.5 -93t86 -62t106 -22zM398 796l-144 122h103l112 -122h-71z" />
    <glyph glyph-name="Oacute" unicode="&#xd3;" horiz-adv-x="810" 
d="M405 -11q-73 0 -136 27.5t-110.5 77t-74.5 115t-27 141.5t27 141.5t74.5 115t110.5 77t136 27.5t136 -27.5t110.5 -77t74.5 -115t27 -141.5t-27 -141.5t-74.5 -115t-110.5 -77t-136 -27.5zM405 59q57 0 106 22t86 62t57.5 93t20.5 114q0 62 -20.5 114.5t-57.5 92.5
t-86 62t-106 22t-106 -22t-86 -62t-57.5 -92.5t-20.5 -114.5q0 -61 20.5 -114t57.5 -93t86 -62t106 -22zM340 796l112 122h99l-144 -122h-67z" />
    <glyph glyph-name="Ocircumflex" unicode="&#xd4;" horiz-adv-x="810" 
d="M405 -11q-73 0 -136 27.5t-110.5 77t-74.5 115t-27 141.5t27 141.5t74.5 115t110.5 77t136 27.5t136 -27.5t110.5 -77t74.5 -115t27 -141.5t-27 -141.5t-74.5 -115t-110.5 -77t-136 -27.5zM405 59q57 0 106 22t86 62t57.5 93t20.5 114q0 62 -20.5 114.5t-57.5 92.5
t-86 62t-106 22t-106 -22t-86 -62t-57.5 -92.5t-20.5 -114.5q0 -61 20.5 -114t57.5 -93t86 -62t106 -22zM497 791l-94 84l-93 -84h-59l114 127h78l114 -127h-60z" />
    <glyph glyph-name="Otilde" unicode="&#xd5;" horiz-adv-x="810" 
d="M405 -11q-73 0 -136 27.5t-110.5 77t-74.5 115t-27 141.5t27 141.5t74.5 115t110.5 77t136 27.5t136 -27.5t110.5 -77t74.5 -115t27 -141.5t-27 -141.5t-74.5 -115t-110.5 -77t-136 -27.5zM405 59q57 0 106 22t86 62t57.5 93t20.5 114q0 62 -20.5 114.5t-57.5 92.5
t-86 62t-106 22t-106 -22t-86 -62t-57.5 -92.5t-20.5 -114.5q0 -61 20.5 -114t57.5 -93t86 -62t106 -22zM284 792l-51 10q14 51 39 77.5t61 26.5q29 0 54.5 -15t48 -30t42.5 -15q17 0 26.5 14t19.5 50l51 -10q-13 -51 -37.5 -77.5t-58.5 -26.5q-28 0 -53 15t-47.5 30
t-43.5 15q-19 0 -30.5 -14.5t-20.5 -49.5z" />
    <glyph glyph-name="Odieresis" unicode="&#xd6;" horiz-adv-x="810" 
d="M405 -11q-73 0 -136 27.5t-110.5 77t-74.5 115t-27 141.5t27 141.5t74.5 115t110.5 77t136 27.5t136 -27.5t110.5 -77t74.5 -115t27 -141.5t-27 -141.5t-74.5 -115t-110.5 -77t-136 -27.5zM405 59q57 0 106 22t86 62t57.5 93t20.5 114q0 62 -20.5 114.5t-57.5 92.5
t-86 62t-106 22t-106 -22t-86 -62t-57.5 -92.5t-20.5 -114.5q0 -61 20.5 -114t57.5 -93t86 -62t106 -22zM316 821q-22 0 -37.5 15.5t-15.5 36.5t15.5 36.5t37.5 15.5t37.5 -15.5t15.5 -36.5t-15.5 -36.5t-37.5 -15.5zM492 821q-22 0 -37.5 15.5t-15.5 36.5t15.5 36.5
t37.5 15.5t37.5 -15.5t15.5 -36.5t-15.5 -36.5t-37.5 -15.5z" />
    <glyph glyph-name="multiply" unicode="&#xd7;" 
d="M151 162l-37 40l147 157l-147 157l38 41l147 -157l147 157l39 -40l-148 -157l149 -158l-40 -41l-148 158z" />
    <glyph glyph-name="Oslash" unicode="&#xd8;" horiz-adv-x="810" 
d="M405 -11q-58 0 -109.5 18t-95.5 50l-50 -62h-73l81 99q-47 49 -74 114.5t-27 141.5t27 141.5t74.5 115t110.5 77t136 27.5q57 0 108.5 -17t94.5 -49l49 60h75l-80 -98q47 -49 74 -115t27 -142t-26.5 -141.5t-74 -115t-111 -77t-136.5 -27.5zM205 152l357 437
q-33 25 -73 38.5t-84 13.5q-57 0 -106 -22t-86 -62t-57.5 -92.5t-20.5 -114.5q0 -58 18.5 -109t51.5 -89zM405 59q57 0 106.5 22t86 62t57 93t20.5 114q0 59 -18.5 110t-52.5 89l-358 -436q34 -25 74 -39.5t85 -14.5z" />
    <glyph glyph-name="Ugrave" unicode="&#xd9;" horiz-adv-x="712" 
d="M356 -11q-86 0 -149.5 37.5t-97.5 106.5t-34 163v404h77v-404q0 -72 25 -125t71 -82.5t108 -29.5t108 29.5t71 82.5t25 125v404h77v-404q0 -94 -34 -163t-97 -106.5t-150 -37.5zM350 796l-144 122h103l112 -122h-71z" />
    <glyph glyph-name="Uacute" unicode="&#xda;" horiz-adv-x="712" 
d="M356 -11q-86 0 -149.5 37.5t-97.5 106.5t-34 163v404h77v-404q0 -72 25 -125t71 -82.5t108 -29.5t108 29.5t71 82.5t25 125v404h77v-404q0 -94 -34 -163t-97 -106.5t-150 -37.5zM292 796l112 122h99l-144 -122h-67z" />
    <glyph glyph-name="Ucircumflex" unicode="&#xdb;" horiz-adv-x="712" 
d="M356 -11q-86 0 -149.5 37.5t-97.5 106.5t-34 163v404h77v-404q0 -72 25 -125t71 -82.5t108 -29.5t108 29.5t71 82.5t25 125v404h77v-404q0 -94 -34 -163t-97 -106.5t-150 -37.5zM449 791l-94 84l-93 -84h-59l114 127h78l114 -127h-60z" />
    <glyph glyph-name="Udieresis" unicode="&#xdc;" horiz-adv-x="712" 
d="M356 -11q-86 0 -149.5 37.5t-97.5 106.5t-34 163v404h77v-404q0 -72 25 -125t71 -82.5t108 -29.5t108 29.5t71 82.5t25 125v404h77v-404q0 -94 -34 -163t-97 -106.5t-150 -37.5zM268 821q-22 0 -37.5 15.5t-15.5 36.5t15.5 36.5t37.5 15.5t37.5 -15.5t15.5 -36.5
t-15.5 -36.5t-37.5 -15.5zM444 821q-22 0 -37.5 15.5t-15.5 36.5t15.5 36.5t37.5 15.5t37.5 -15.5t15.5 -36.5t-15.5 -36.5t-37.5 -15.5z" />
    <glyph glyph-name="Yacute" unicode="&#xdd;" horiz-adv-x="646" 
d="M284 0v286l-272 414h90l223 -347l224 347h85l-273 -416v-284h-77zM262 796l112 122h99l-144 -122h-67z" />
    <glyph glyph-name="Thorn" unicode="&#xde;" horiz-adv-x="654" 
d="M89 0v700h77v-143h212q68 0 118 -25.5t77.5 -72t27.5 -109.5q0 -62 -27.5 -109t-77.5 -72.5t-118 -25.5h-212v-143h-77zM166 209h203q73 0 114 38.5t41 102.5q0 65 -41 102.5t-114 37.5h-203v-281z" />
    <glyph glyph-name="germandbls" unicode="&#xdf;" horiz-adv-x="592" 
d="M393 -11q-99 0 -167 61l41 48q54 -51 125 -51q47 0 76 25t29 66q0 35 -18 55.5t-60 36.5l-65 25q-35 14 -56.5 30t-31 37t-9.5 49q0 35 16 57.5t39.5 38.5t46.5 30.5t39 33t16 47.5q0 41 -35 68t-89 27q-69 0 -105.5 -46t-36.5 -125v-502h-73v501q0 72 25.5 125t73.5 82
t115 29q59 0 102.5 -21t67.5 -57.5t24 -82.5q0 -37 -16 -62t-39.5 -42.5t-47 -32t-39.5 -30.5t-16 -38q0 -21 12.5 -33t49.5 -27l61 -24q61 -24 89.5 -59t28.5 -88q0 -67 -48 -109t-125 -42z" />
    <glyph glyph-name="agrave" unicode="&#xe0;" horiz-adv-x="526" 
d="M226 -9q-52 0 -92 19t-62.5 52.5t-22.5 77.5t23 76.5t64 50.5t96 18q42 0 79.5 -9t69.5 -29v67q0 60 -32 90.5t-94 30.5q-34 0 -69.5 -10t-78.5 -32l-27 56q98 47 184 47q91 0 140 -44.5t49 -127.5v-324h-72v57q-32 -33 -71 -49.5t-84 -16.5zM119 142q0 -43 33.5 -69
t88.5 -26q41 0 75.5 14t64.5 42v94q-31 18 -64 26.5t-74 8.5q-56 0 -90 -24.5t-34 -65.5zM258 584l-144 122h103l112 -122h-71z" />
    <glyph glyph-name="aacute" unicode="&#xe1;" horiz-adv-x="526" 
d="M226 -9q-52 0 -92 19t-62.5 52.5t-22.5 77.5t23 76.5t64 50.5t96 18q42 0 79.5 -9t69.5 -29v67q0 60 -32 90.5t-94 30.5q-34 0 -69.5 -10t-78.5 -32l-27 56q98 47 184 47q91 0 140 -44.5t49 -127.5v-324h-72v57q-32 -33 -71 -49.5t-84 -16.5zM119 142q0 -43 33.5 -69
t88.5 -26q41 0 75.5 14t64.5 42v94q-31 18 -64 26.5t-74 8.5q-56 0 -90 -24.5t-34 -65.5zM200 584l112 122h99l-144 -122h-67z" />
    <glyph glyph-name="acircumflex" unicode="&#xe2;" horiz-adv-x="526" 
d="M226 -9q-52 0 -92 19t-62.5 52.5t-22.5 77.5t23 76.5t64 50.5t96 18q42 0 79.5 -9t69.5 -29v67q0 60 -32 90.5t-94 30.5q-34 0 -69.5 -10t-78.5 -32l-27 56q98 47 184 47q91 0 140 -44.5t49 -127.5v-324h-72v57q-32 -33 -71 -49.5t-84 -16.5zM119 142q0 -43 33.5 -69
t88.5 -26q41 0 75.5 14t64.5 42v94q-31 18 -64 26.5t-74 8.5q-56 0 -90 -24.5t-34 -65.5zM357 579l-94 84l-93 -84h-59l114 127h78l114 -127h-60z" />
    <glyph glyph-name="atilde" unicode="&#xe3;" horiz-adv-x="526" 
d="M226 -9q-52 0 -92 19t-62.5 52.5t-22.5 77.5t23 76.5t64 50.5t96 18q42 0 79.5 -9t69.5 -29v67q0 60 -32 90.5t-94 30.5q-34 0 -69.5 -10t-78.5 -32l-27 56q98 47 184 47q91 0 140 -44.5t49 -127.5v-324h-72v57q-32 -33 -71 -49.5t-84 -16.5zM119 142q0 -43 33.5 -69
t88.5 -26q41 0 75.5 14t64.5 42v94q-31 18 -64 26.5t-74 8.5q-56 0 -90 -24.5t-34 -65.5zM144 580l-51 10q14 51 39 77.5t61 26.5q29 0 54.5 -15t48 -30t42.5 -15q17 0 26.5 14t19.5 50l51 -10q-13 -51 -37.5 -77.5t-58.5 -26.5q-28 0 -53 15t-47.5 30t-43.5 15
q-19 0 -30.5 -14.5t-20.5 -49.5z" />
    <glyph glyph-name="adieresis" unicode="&#xe4;" horiz-adv-x="526" 
d="M226 -9q-52 0 -92 19t-62.5 52.5t-22.5 77.5t23 76.5t64 50.5t96 18q42 0 79.5 -9t69.5 -29v67q0 60 -32 90.5t-94 30.5q-34 0 -69.5 -10t-78.5 -32l-27 56q98 47 184 47q91 0 140 -44.5t49 -127.5v-324h-72v57q-32 -33 -71 -49.5t-84 -16.5zM119 142q0 -43 33.5 -69
t88.5 -26q41 0 75.5 14t64.5 42v94q-31 18 -64 26.5t-74 8.5q-56 0 -90 -24.5t-34 -65.5zM176 609q-22 0 -37.5 15.5t-15.5 36.5t15.5 36.5t37.5 15.5t37.5 -15.5t15.5 -36.5t-15.5 -36.5t-37.5 -15.5zM352 609q-22 0 -37.5 15.5t-15.5 36.5t15.5 36.5t37.5 15.5t37.5 -15.5
t15.5 -36.5t-15.5 -36.5t-37.5 -15.5z" />
    <glyph glyph-name="aring" unicode="&#xe5;" horiz-adv-x="526" 
d="M226 -9q-52 0 -92 19t-62.5 52.5t-22.5 77.5t23 76.5t64 50.5t96 18q42 0 79.5 -9t69.5 -29v67q0 60 -32 90.5t-94 30.5q-34 0 -69.5 -10t-78.5 -32l-27 56q98 47 184 47q91 0 140 -44.5t49 -127.5v-324h-72v57q-32 -33 -71 -49.5t-84 -16.5zM119 142q0 -43 33.5 -69
t88.5 -26q41 0 75.5 14t64.5 42v94q-31 18 -64 26.5t-74 8.5q-56 0 -90 -24.5t-34 -65.5zM264 572q-31 0 -56.5 15t-40.5 40.5t-15 55.5q0 31 15 56t40.5 40t56.5 15t56.5 -15t40.5 -40t15 -56q0 -30 -15 -55.5t-40.5 -40.5t-56.5 -15zM264 613q29 0 49.5 20.5t20.5 49.5
t-20.5 49.5t-49.5 20.5t-49.5 -20.5t-20.5 -49.5t20.5 -49.5t49.5 -20.5z" />
    <glyph glyph-name="ae" unicode="&#xe6;" horiz-adv-x="886" 
d="M228 -9q-53 0 -93 19t-62.5 53t-22.5 78q0 43 22.5 75.5t63.5 50.5t96 18q83 0 149 -37v66q0 60 -32 90.5t-94 30.5q-34 0 -69.5 -10t-78.5 -32l-27 56q98 47 184 47q64 0 107.5 -23.5t62.5 -68.5q31 44 77 68t101 24q64 0 114.5 -32.5t80 -88t29.5 -125.5v-22h-383
q4 -50 27.5 -89.5t62 -62t84.5 -22.5q38 0 73.5 13.5t59.5 36.5l46 -49q-42 -33 -86.5 -49t-96.5 -16q-61 0 -111 27t-83 73q-40 -49 -89.5 -74t-111.5 -25zM455 280h309q-5 44 -26.5 78.5t-54 54.5t-72.5 20q-41 0 -74 -19.5t-54 -54t-28 -79.5zM241 47q50 0 91 22t72 65
q-13 27 -19 61q-31 20 -65.5 29t-76.5 9q-56 0 -90 -25t-34 -66q0 -43 33.5 -69t88.5 -26z" />
    <glyph glyph-name="ccedilla" unicode="&#xe7;" horiz-adv-x="509" 
d="M288 -232q-34 0 -62 9t-48 27l28 32q35 -29 79 -29q31 0 48 14t17 38q0 23 -18.5 36t-52.5 13h-29l21 85q-62 6 -111.5 40.5t-78 89.5t-28.5 121q0 71 32 128t86.5 90.5t122.5 33.5q54 0 103 -20t85 -56l-47 -51q-26 29 -63 45t-75 16q-48 0 -86.5 -25t-61.5 -67t-23 -94
t23 -94t61.5 -67t86.5 -25q38 0 75 16.5t63 44.5l47 -51q-33 -33 -76.5 -52.5t-91.5 -22.5l-12 -52q44 -2 70.5 -23.5t26.5 -56.5q0 -40 -31 -66.5t-80 -26.5z" />
    <glyph glyph-name="egrave" unicode="&#xe8;" horiz-adv-x="557" 
d="M295 -10q-68 0 -123 33.5t-87 91t-32 129.5t30.5 129t82.5 90t117 33q64 0 114.5 -32.5t80 -88t29.5 -125.5v-22h-383q4 -50 27.5 -89.5t62 -62t84.5 -22.5q38 0 73.5 13.5t60.5 36.5l46 -49q-42 -33 -87 -49t-96 -16zM126 280h309q-5 44 -26.5 78.5t-54 54.5t-72.5 20
t-73 -19.5t-54.5 -54t-28.5 -79.5zM281 584l-144 122h103l112 -122h-71z" />
    <glyph glyph-name="eacute" unicode="&#xe9;" horiz-adv-x="557" 
d="M295 -10q-68 0 -123 33.5t-87 91t-32 129.5t30.5 129t82.5 90t117 33q64 0 114.5 -32.5t80 -88t29.5 -125.5v-22h-383q4 -50 27.5 -89.5t62 -62t84.5 -22.5q38 0 73.5 13.5t60.5 36.5l46 -49q-42 -33 -87 -49t-96 -16zM126 280h309q-5 44 -26.5 78.5t-54 54.5t-72.5 20
t-73 -19.5t-54.5 -54t-28.5 -79.5zM223 584l112 122h99l-144 -122h-67z" />
    <glyph glyph-name="ecircumflex" unicode="&#xea;" horiz-adv-x="557" 
d="M295 -10q-68 0 -123 33.5t-87 91t-32 129.5t30.5 129t82.5 90t117 33q64 0 114.5 -32.5t80 -88t29.5 -125.5v-22h-383q4 -50 27.5 -89.5t62 -62t84.5 -22.5q38 0 73.5 13.5t60.5 36.5l46 -49q-42 -33 -87 -49t-96 -16zM126 280h309q-5 44 -26.5 78.5t-54 54.5t-72.5 20
t-73 -19.5t-54.5 -54t-28.5 -79.5zM380 579l-94 84l-93 -84h-59l114 127h78l114 -127h-60z" />
    <glyph glyph-name="edieresis" unicode="&#xeb;" horiz-adv-x="557" 
d="M295 -10q-68 0 -123 33.5t-87 91t-32 129.5t30.5 129t82.5 90t117 33q64 0 114.5 -32.5t80 -88t29.5 -125.5v-22h-383q4 -50 27.5 -89.5t62 -62t84.5 -22.5q38 0 73.5 13.5t60.5 36.5l46 -49q-42 -33 -87 -49t-96 -16zM126 280h309q-5 44 -26.5 78.5t-54 54.5t-72.5 20
t-73 -19.5t-54.5 -54t-28.5 -79.5zM199 609q-22 0 -37.5 15.5t-15.5 36.5t15.5 36.5t37.5 15.5t37.5 -15.5t15.5 -36.5t-15.5 -36.5t-37.5 -15.5zM375 609q-22 0 -37.5 15.5t-15.5 36.5t15.5 36.5t37.5 15.5t37.5 -15.5t15.5 -36.5t-15.5 -36.5t-37.5 -15.5z" />
    <glyph glyph-name="igrave" unicode="&#xec;" horiz-adv-x="223" 
d="M75 0v488h73v-488h-73zM106 584l-144 122h103l112 -122h-71z" />
    <glyph glyph-name="iacute" unicode="&#xed;" horiz-adv-x="223" 
d="M75 0v488h73v-488h-73zM48 584l112 122h99l-144 -122h-67z" />
    <glyph glyph-name="icircumflex" unicode="&#xee;" horiz-adv-x="223" 
d="M75 0v488h73v-488h-73zM205 579l-94 84l-93 -84h-59l114 127h78l114 -127h-60z" />
    <glyph glyph-name="idieresis" unicode="&#xef;" horiz-adv-x="223" 
d="M75 0v488h73v-488h-73zM24 609q-22 0 -37.5 15.5t-15.5 36.5t15.5 36.5t37.5 15.5t37.5 -15.5t15.5 -36.5t-15.5 -36.5t-37.5 -15.5zM200 609q-22 0 -37.5 15.5t-15.5 36.5t15.5 36.5t37.5 15.5t37.5 -15.5t15.5 -36.5t-15.5 -36.5t-37.5 -15.5z" />
    <glyph glyph-name="eth" unicode="&#xf0;" horiz-adv-x="590" 
d="M289 -10q-66 0 -120 33t-85.5 89.5t-31.5 125.5t29.5 122.5t80.5 84.5t115 31t113.5 -31.5t74.5 -82.5q-9 73 -36.5 133.5t-71.5 103.5l-95 -62l-29 42l85 55q-23 17 -49 29.5t-55 21.5l30 52q37 -12 69 -28.5t60 -38.5l103 67l27 -42l-91 -60q60 -61 91 -148.5
t31 -197.5q0 -90 -30.5 -157t-85.5 -104.5t-129 -37.5zM291 54q48 0 86 24t59.5 65.5t21.5 92.5q0 52 -21.5 93t-59.5 65t-86 24t-85.5 -24t-59.5 -65t-22 -93q0 -51 22 -92.5t59.5 -65.5t85.5 -24z" />
    <glyph glyph-name="ntilde" unicode="&#xf1;" horiz-adv-x="552" 
d="M75 0v488h73v-79q28 44 67 65.5t88 21.5q53 0 92.5 -22.5t62 -63t22.5 -94.5v-316h-73v295q0 65 -35.5 102.5t-95.5 37.5q-40 0 -73 -19t-55 -56v-360h-73zM157 580l-51 10q14 51 39 77.5t61 26.5q29 0 54.5 -15t48 -30t42.5 -15q17 0 26.5 14t19.5 50l51 -10
q-13 -51 -37.5 -77.5t-58.5 -26.5q-28 0 -53 15t-47.5 30t-43.5 15q-19 0 -30.5 -14.5t-20.5 -49.5z" />
    <glyph glyph-name="ograve" unicode="&#xf2;" horiz-adv-x="580" 
d="M290 -8q-67 0 -121 33t-85 90t-31 129t31 129t85 90t121 33q68 0 121.5 -33t84.5 -90t31 -129t-31 -129t-84.5 -90t-121.5 -33zM290 56q48 0 85 24.5t58.5 67.5t21.5 96q0 54 -21.5 96.5t-58.5 67t-85 24.5t-85 -24.5t-58.5 -67t-21.5 -96.5q0 -53 21.5 -96t58.5 -67.5
t85 -24.5zM284 584l-144 122h103l112 -122h-71z" />
    <glyph glyph-name="oacute" unicode="&#xf3;" horiz-adv-x="580" 
d="M290 -8q-67 0 -121 33t-85 90t-31 129t31 129t85 90t121 33q68 0 121.5 -33t84.5 -90t31 -129t-31 -129t-84.5 -90t-121.5 -33zM290 56q48 0 85 24.5t58.5 67.5t21.5 96q0 54 -21.5 96.5t-58.5 67t-85 24.5t-85 -24.5t-58.5 -67t-21.5 -96.5q0 -53 21.5 -96t58.5 -67.5
t85 -24.5zM226 584l112 122h99l-144 -122h-67z" />
    <glyph glyph-name="ocircumflex" unicode="&#xf4;" horiz-adv-x="580" 
d="M290 -8q-67 0 -121 33t-85 90t-31 129t31 129t85 90t121 33q68 0 121.5 -33t84.5 -90t31 -129t-31 -129t-84.5 -90t-121.5 -33zM290 56q48 0 85 24.5t58.5 67.5t21.5 96q0 54 -21.5 96.5t-58.5 67t-85 24.5t-85 -24.5t-58.5 -67t-21.5 -96.5q0 -53 21.5 -96t58.5 -67.5
t85 -24.5zM383 579l-94 84l-93 -84h-59l114 127h78l114 -127h-60z" />
    <glyph glyph-name="otilde" unicode="&#xf5;" horiz-adv-x="580" 
d="M290 -8q-67 0 -121 33t-85 90t-31 129t31 129t85 90t121 33q68 0 121.5 -33t84.5 -90t31 -129t-31 -129t-84.5 -90t-121.5 -33zM290 56q48 0 85 24.5t58.5 67.5t21.5 96q0 54 -21.5 96.5t-58.5 67t-85 24.5t-85 -24.5t-58.5 -67t-21.5 -96.5q0 -53 21.5 -96t58.5 -67.5
t85 -24.5zM170 580l-51 10q14 51 39 77.5t61 26.5q29 0 54.5 -15t48 -30t42.5 -15q17 0 26.5 14t19.5 50l51 -10q-13 -51 -37.5 -77.5t-58.5 -26.5q-28 0 -53 15t-47.5 30t-43.5 15q-19 0 -30.5 -14.5t-20.5 -49.5z" />
    <glyph glyph-name="odieresis" unicode="&#xf6;" horiz-adv-x="580" 
d="M290 -8q-67 0 -121 33t-85 90t-31 129t31 129t85 90t121 33q68 0 121.5 -33t84.5 -90t31 -129t-31 -129t-84.5 -90t-121.5 -33zM290 56q48 0 85 24.5t58.5 67.5t21.5 96q0 54 -21.5 96.5t-58.5 67t-85 24.5t-85 -24.5t-58.5 -67t-21.5 -96.5q0 -53 21.5 -96t58.5 -67.5
t85 -24.5zM202 609q-22 0 -37.5 15.5t-15.5 36.5t15.5 36.5t37.5 15.5t37.5 -15.5t15.5 -36.5t-15.5 -36.5t-37.5 -15.5zM378 609q-22 0 -37.5 15.5t-15.5 36.5t15.5 36.5t37.5 15.5t37.5 -15.5t15.5 -36.5t-15.5 -36.5t-37.5 -15.5z" />
    <glyph glyph-name="divide" unicode="&#xf7;" 
d="M300 489q-22 0 -37.5 15.5t-15.5 37.5t15.5 37.5t37.5 15.5t37.5 -15.5t15.5 -37.5t-15.5 -37.5t-37.5 -15.5zM300 121q-22 0 -37.5 15.5t-15.5 37.5t15.5 37.5t37.5 15.5t37.5 -15.5t15.5 -37.5t-15.5 -37.5t-37.5 -15.5zM102 328v60h396v-60h-396z" />
    <glyph glyph-name="oslash" unicode="&#xf8;" horiz-adv-x="580" 
d="M290 -8q-40 0 -75.5 12t-64.5 34l-32 -38h-61l58 70q-29 34 -45.5 78t-16.5 96q0 72 31 129t85 90t121 33q41 0 76.5 -12t64.5 -35l32 39h61l-59 -71q29 -33 45.5 -77t16.5 -96q0 -72 -31 -129t-84.5 -90t-121.5 -33zM161 124l227 274q-20 16 -45 25t-53 9
q-48 0 -85 -24.5t-58.5 -67t-21.5 -96.5q0 -34 9.5 -65t26.5 -55zM290 56q48 0 85 24.5t58.5 67.5t21.5 96q0 35 -9 65t-26 54l-227 -273q20 -16 44.5 -25t52.5 -9z" />
    <glyph glyph-name="ugrave" unicode="&#xf9;" horiz-adv-x="552" 
d="M249 -8q-52 0 -92 23t-62.5 64t-22.5 94v315h74v-294q0 -65 35 -103t95 -38q41 0 73.5 19t54.5 55v361h73v-488h-73v79q-28 -43 -66.5 -65t-88.5 -22zM270 584l-144 122h103l112 -122h-71z" />
    <glyph glyph-name="uacute" unicode="&#xfa;" horiz-adv-x="552" 
d="M249 -8q-52 0 -92 23t-62.5 64t-22.5 94v315h74v-294q0 -65 35 -103t95 -38q41 0 73.5 19t54.5 55v361h73v-488h-73v79q-28 -43 -66.5 -65t-88.5 -22zM212 584l112 122h99l-144 -122h-67z" />
    <glyph glyph-name="ucircumflex" unicode="&#xfb;" horiz-adv-x="552" 
d="M249 -8q-52 0 -92 23t-62.5 64t-22.5 94v315h74v-294q0 -65 35 -103t95 -38q41 0 73.5 19t54.5 55v361h73v-488h-73v79q-28 -43 -66.5 -65t-88.5 -22zM369 579l-94 84l-93 -84h-59l114 127h78l114 -127h-60z" />
    <glyph glyph-name="udieresis" unicode="&#xfc;" horiz-adv-x="552" 
d="M249 -8q-52 0 -92 23t-62.5 64t-22.5 94v315h74v-294q0 -65 35 -103t95 -38q41 0 73.5 19t54.5 55v361h73v-488h-73v79q-28 -43 -66.5 -65t-88.5 -22zM188 609q-22 0 -37.5 15.5t-15.5 36.5t15.5 36.5t37.5 15.5t37.5 -15.5t15.5 -36.5t-15.5 -36.5t-37.5 -15.5zM364 609
q-22 0 -37.5 15.5t-15.5 36.5t15.5 36.5t37.5 15.5t37.5 -15.5t15.5 -36.5t-15.5 -36.5t-37.5 -15.5z" />
    <glyph glyph-name="yacute" unicode="&#xfd;" horiz-adv-x="498" 
d="M96 -219q-23 0 -47 7v65q10 -2 21 -3t19 -1q28 0 46.5 15t31.5 47l36 89l-188 488h81l148 -401l157 401h81l-246 -599q-16 -39 -35 -63t-44 -34.5t-61 -10.5zM185 584l112 122h99l-144 -122h-67z" />
    <glyph glyph-name="thorn" unicode="&#xfe;" horiz-adv-x="583" 
d="M75 -209v931l73 15v-317q28 35 68 54.5t89 19.5q64 0 114.5 -33.5t80.5 -90t30 -126.5t-30.5 -127t-82 -90.5t-116.5 -33.5q-46 0 -85 17.5t-68 50.5v-270h-73zM287 430q-43 0 -79.5 -17.5t-59.5 -49.5v-239q24 -32 60.5 -50t78.5 -18q49 0 87.5 24.5t61 67t22.5 95.5
q0 54 -22.5 96t-61 66.5t-87.5 24.5z" />
    <glyph glyph-name="ydieresis" unicode="&#xff;" horiz-adv-x="498" 
d="M96 -219q-23 0 -47 7v65q10 -2 21 -3t19 -1q28 0 46.5 15t31.5 47l36 89l-188 488h81l148 -401l157 401h81l-246 -599q-16 -39 -35 -63t-44 -34.5t-61 -10.5zM161 609q-22 0 -37.5 15.5t-15.5 36.5t15.5 36.5t37.5 15.5t37.5 -15.5t15.5 -36.5t-15.5 -36.5t-37.5 -15.5z
M337 609q-22 0 -37.5 15.5t-15.5 36.5t15.5 36.5t37.5 15.5t37.5 -15.5t15.5 -36.5t-15.5 -36.5t-37.5 -15.5z" />
    <glyph glyph-name="Amacron" unicode="&#x100;" horiz-adv-x="660" 
d="M9 0l277 700h92l273 -700h-83l-83 220h-312l-83 -220h-81zM197 281h265l-133 349zM196 823v52h272v-52h-272z" />
    <glyph glyph-name="amacron" unicode="&#x101;" horiz-adv-x="526" 
d="M226 -9q-52 0 -92 19t-62.5 52.5t-22.5 77.5t23 76.5t64 50.5t96 18q42 0 79.5 -9t69.5 -29v67q0 60 -32 90.5t-94 30.5q-34 0 -69.5 -10t-78.5 -32l-27 56q98 47 184 47q91 0 140 -44.5t49 -127.5v-324h-72v57q-32 -33 -71 -49.5t-84 -16.5zM119 142q0 -43 33.5 -69
t88.5 -26q41 0 75.5 14t64.5 42v94q-31 18 -64 26.5t-74 8.5q-56 0 -90 -24.5t-34 -65.5zM128 611v52h272v-52h-272z" />
    <glyph glyph-name="Abreve" unicode="&#x102;" horiz-adv-x="660" 
d="M9 0l277 700h92l273 -700h-83l-83 220h-312l-83 -220h-81zM197 281h265l-133 349zM333 791q-61 0 -103 33.5t-56 92.5l51 12q23 -92 108 -92q41 0 68.5 24t38.5 68l50 -12q-13 -59 -55 -92.5t-102 -33.5z" />
    <glyph glyph-name="abreve" unicode="&#x103;" horiz-adv-x="526" 
d="M226 -9q-52 0 -92 19t-62.5 52.5t-22.5 77.5t23 76.5t64 50.5t96 18q42 0 79.5 -9t69.5 -29v67q0 60 -32 90.5t-94 30.5q-34 0 -69.5 -10t-78.5 -32l-27 56q98 47 184 47q91 0 140 -44.5t49 -127.5v-324h-72v57q-32 -33 -71 -49.5t-84 -16.5zM119 142q0 -43 33.5 -69
t88.5 -26q41 0 75.5 14t64.5 42v94q-31 18 -64 26.5t-74 8.5q-56 0 -90 -24.5t-34 -65.5zM265 579q-61 0 -103 33.5t-56 92.5l51 12q23 -92 108 -92q41 0 68.5 24t38.5 68l50 -12q-13 -59 -55 -92.5t-102 -33.5z" />
    <glyph glyph-name="Aogonek" unicode="&#x104;" horiz-adv-x="660" 
d="M603 -231q-48 0 -77 25t-29 66q0 37 23.5 70t75.5 70h-28l-83 220h-312l-83 -220h-81l277 700h92l273 -700q-54 -35 -79 -66t-25 -62q0 -27 18 -42t49 -15q13 0 26 3t22 9l14 -39q-30 -19 -73 -19zM197 281h265l-133 349z" />
    <glyph glyph-name="aogonek" unicode="&#x105;" horiz-adv-x="526" 
d="M405 -231q-48 0 -77 25t-29 66q0 37 23.5 70t75.5 70h-17v57q-32 -33 -71 -49.5t-84 -16.5q-52 0 -92 19t-62.5 52.5t-22.5 77.5t23 76.5t64 50.5t96 18q42 0 79.5 -9t69.5 -29v67q0 60 -32 90.5t-94 30.5q-34 0 -69.5 -10t-78.5 -32l-27 56q98 47 184 47q91 0 140 -44.5
t49 -127.5v-324q-54 -35 -79 -66t-25 -62q0 -27 18 -42t49 -15q13 0 26 3t22 9l14 -39q-30 -19 -73 -19zM241 47q41 0 75.5 14t64.5 42v94q-31 18 -64 26.5t-74 8.5q-56 0 -90 -24.5t-34 -65.5q0 -43 33.5 -69t88.5 -26z" />
    <glyph glyph-name="Cacute" unicode="&#x106;" horiz-adv-x="726" 
d="M412 -11q-75 0 -139.5 27.5t-113.5 77t-76 115t-27 141.5t27 141.5t76 115t113.5 77t139.5 27.5q52 0 99.5 -13.5t89.5 -39t75 -62.5l-51 -53q-39 47 -95.5 72.5t-117.5 25.5q-59 0 -110 -22t-88.5 -62t-58.5 -92.5t-21 -114.5q0 -61 21 -114t58.5 -93t88.5 -62t110 -22
q61 0 117.5 26t95.5 72l51 -53q-33 -37 -75 -62.5t-89.5 -39t-99.5 -13.5zM343 796l112 122h99l-144 -122h-67z" />
    <glyph glyph-name="cacute" unicode="&#x107;" horiz-adv-x="509" 
d="M294 -8q-68 0 -122.5 33.5t-86.5 91t-32 127.5q0 71 32 128t86.5 90.5t122.5 33.5q54 0 103 -20t85 -56l-47 -51q-26 29 -63 45t-75 16q-48 0 -86.5 -25t-61.5 -67t-23 -94t23 -94t61.5 -67t86.5 -25q38 0 75 16.5t63 44.5l47 -51q-36 -36 -85 -56t-103 -20zM231 584
l112 122h99l-144 -122h-67z" />
    <glyph glyph-name="Ccircumflex" unicode="&#x108;" horiz-adv-x="726" 
d="M412 -11q-75 0 -139.5 27.5t-113.5 77t-76 115t-27 141.5t27 141.5t76 115t113.5 77t139.5 27.5q52 0 99.5 -13.5t89.5 -39t75 -62.5l-51 -53q-39 47 -95.5 72.5t-117.5 25.5q-59 0 -110 -22t-88.5 -62t-58.5 -92.5t-21 -114.5q0 -61 21 -114t58.5 -93t88.5 -62t110 -22
q61 0 117.5 26t95.5 72l51 -53q-33 -37 -75 -62.5t-89.5 -39t-99.5 -13.5zM500 791l-94 84l-93 -84h-59l114 127h78l114 -127h-60z" />
    <glyph glyph-name="ccircumflex" unicode="&#x109;" horiz-adv-x="509" 
d="M294 -8q-68 0 -122.5 33.5t-86.5 91t-32 127.5q0 71 32 128t86.5 90.5t122.5 33.5q54 0 103 -20t85 -56l-47 -51q-26 29 -63 45t-75 16q-48 0 -86.5 -25t-61.5 -67t-23 -94t23 -94t61.5 -67t86.5 -25q38 0 75 16.5t63 44.5l47 -51q-36 -36 -85 -56t-103 -20zM388 579
l-94 84l-93 -84h-59l114 127h78l114 -127h-60z" />
    <glyph glyph-name="Cdotaccent" unicode="&#x10a;" horiz-adv-x="726" 
d="M412 -11q-75 0 -139.5 27.5t-113.5 77t-76 115t-27 141.5t27 141.5t76 115t113.5 77t139.5 27.5q52 0 99.5 -13.5t89.5 -39t75 -62.5l-51 -53q-39 47 -95.5 72.5t-117.5 25.5q-59 0 -110 -22t-88.5 -62t-58.5 -92.5t-21 -114.5q0 -61 21 -114t58.5 -93t88.5 -62t110 -22
q61 0 117.5 26t95.5 72l51 -53q-33 -37 -75 -62.5t-89.5 -39t-99.5 -13.5zM407 821q-22 0 -37.5 15.5t-15.5 36.5t15.5 36.5t37.5 15.5t37.5 -15.5t15.5 -36.5t-15.5 -36.5t-37.5 -15.5z" />
    <glyph glyph-name="cdotaccent" unicode="&#x10b;" horiz-adv-x="509" 
d="M294 -8q-68 0 -122.5 33.5t-86.5 91t-32 127.5q0 71 32 128t86.5 90.5t122.5 33.5q54 0 103 -20t85 -56l-47 -51q-26 29 -63 45t-75 16q-48 0 -86.5 -25t-61.5 -67t-23 -94t23 -94t61.5 -67t86.5 -25q38 0 75 16.5t63 44.5l47 -51q-36 -36 -85 -56t-103 -20zM295 609
q-22 0 -37.5 15.5t-15.5 36.5t15.5 36.5t37.5 15.5t37.5 -15.5t15.5 -36.5t-15.5 -36.5t-37.5 -15.5z" />
    <glyph glyph-name="Ccaron" unicode="&#x10c;" horiz-adv-x="726" 
d="M412 -11q-75 0 -139.5 27.5t-113.5 77t-76 115t-27 141.5t27 141.5t76 115t113.5 77t139.5 27.5q52 0 99.5 -13.5t89.5 -39t75 -62.5l-51 -53q-39 47 -95.5 72.5t-117.5 25.5q-59 0 -110 -22t-88.5 -62t-58.5 -92.5t-21 -114.5q0 -61 21 -114t58.5 -93t88.5 -62t110 -22
q61 0 117.5 26t95.5 72l51 -53q-33 -37 -75 -62.5t-89.5 -39t-99.5 -13.5zM315 922l92 -83l92 83h61l-114 -127h-78l-114 127h61z" />
    <glyph glyph-name="ccaron" unicode="&#x10d;" horiz-adv-x="509" 
d="M294 -8q-68 0 -122.5 33.5t-86.5 91t-32 127.5q0 71 32 128t86.5 90.5t122.5 33.5q54 0 103 -20t85 -56l-47 -51q-26 29 -63 45t-75 16q-48 0 -86.5 -25t-61.5 -67t-23 -94t23 -94t61.5 -67t86.5 -25q38 0 75 16.5t63 44.5l47 -51q-36 -36 -85 -56t-103 -20zM203 710
l92 -83l92 83h61l-114 -127h-78l-114 127h61z" />
    <glyph glyph-name="Dcaron" unicode="&#x10e;" horiz-adv-x="728" 
d="M166 69h160q76 0 136 37t95.5 100.5t35.5 143.5t-35.5 143.5t-95.5 100.5t-136 37h-160v-562zM89 0v700h232q77 0 141.5 -26.5t111 -74t72 -111t25.5 -138.5t-25.5 -138.5t-72 -111t-111 -74t-141.5 -26.5h-232zM262 922l92 -83l92 83h61l-114 -127h-78l-114 127h61z" />
    <glyph glyph-name="dcaron" unicode="&#x10f;" horiz-adv-x="660" 
d="M278 -7q-63 0 -114 33.5t-81 90t-30 126.5q0 71 30.5 127.5t82.5 90t116 33.5q45 0 84 -17.5t68 -50.5v296l73 15v-737h-73v65q-28 -35 -68 -53.5t-88 -18.5zM296 57q43 0 79 17t59 48v242q-24 31 -60.5 48.5t-77.5 17.5q-49 0 -87.5 -24t-61 -66t-22.5 -96
q0 -53 22.5 -95.5t61 -67t87.5 -24.5zM578 527l5 195l76 15l-25 -210h-56z" />
    <glyph glyph-name="Dcroat" unicode="&#x110;" horiz-adv-x="760" 
d="M121 0v322h-96v61h96v317h232q77 0 141.5 -26.5t111 -74t72 -111t25.5 -138.5t-25.5 -138.5t-72 -111t-111 -74t-141.5 -26.5h-232zM198 69h160q76 0 136 37t95.5 100.5t35.5 143.5t-35.5 143.5t-95.5 100.5t-136 37h-160v-248h166v-61h-166v-253z" />
    <glyph glyph-name="dcroat" unicode="&#x111;" horiz-adv-x="588" 
d="M278 -7q-63 0 -114 33.5t-81 90t-30 126.5q0 71 30.5 127.5t82.5 90t116 33.5q45 0 84 -17.5t68 -50.5v147h-146v54h146v95l73 15v-110h61v-54h-61v-573h-73v65q-28 -35 -68 -53.5t-88 -18.5zM296 57q43 0 79 17t59 48v242q-24 31 -60.5 48.5t-77.5 17.5q-49 0 -87.5 -24
t-61 -66t-22.5 -96q0 -53 22.5 -95.5t61 -67t87.5 -24.5z" />
    <glyph glyph-name="Emacron" unicode="&#x112;" horiz-adv-x="619" 
d="M89 0v700h478v-68h-401v-245h278v-67h-278v-252h405v-68h-482zM193 823v52h272v-52h-272z" />
    <glyph glyph-name="emacron" unicode="&#x113;" horiz-adv-x="557" 
d="M295 -10q-68 0 -123 33.5t-87 91t-32 129.5t30.5 129t82.5 90t117 33q64 0 114.5 -32.5t80 -88t29.5 -125.5v-22h-383q4 -50 27.5 -89.5t62 -62t84.5 -22.5q38 0 73.5 13.5t60.5 36.5l46 -49q-42 -33 -87 -49t-96 -16zM126 280h309q-5 44 -26.5 78.5t-54 54.5t-72.5 20
t-73 -19.5t-54.5 -54t-28.5 -79.5zM151 611v52h272v-52h-272z" />
    <glyph glyph-name="Ebreve" unicode="&#x114;" horiz-adv-x="619" 
d="M89 0v700h478v-68h-401v-245h278v-67h-278v-252h405v-68h-482zM330 791q-61 0 -103 33.5t-56 92.5l51 12q23 -92 108 -92q41 0 68.5 24t38.5 68l50 -12q-13 -59 -55 -92.5t-102 -33.5z" />
    <glyph glyph-name="ebreve" unicode="&#x115;" horiz-adv-x="557" 
d="M295 -10q-68 0 -123 33.5t-87 91t-32 129.5t30.5 129t82.5 90t117 33q64 0 114.5 -32.5t80 -88t29.5 -125.5v-22h-383q4 -50 27.5 -89.5t62 -62t84.5 -22.5q38 0 73.5 13.5t60.5 36.5l46 -49q-42 -33 -87 -49t-96 -16zM126 280h309q-5 44 -26.5 78.5t-54 54.5t-72.5 20
t-73 -19.5t-54.5 -54t-28.5 -79.5zM288 579q-61 0 -103 33.5t-56 92.5l51 12q23 -92 108 -92q41 0 68.5 24t38.5 68l50 -12q-13 -59 -55 -92.5t-102 -33.5z" />
    <glyph glyph-name="Edotaccent" unicode="&#x116;" horiz-adv-x="619" 
d="M89 0v700h478v-68h-401v-245h278v-67h-278v-252h405v-68h-482zM329 821q-22 0 -37.5 15.5t-15.5 36.5t15.5 36.5t37.5 15.5t37.5 -15.5t15.5 -36.5t-15.5 -36.5t-37.5 -15.5z" />
    <glyph glyph-name="edotaccent" unicode="&#x117;" horiz-adv-x="557" 
d="M295 -10q-68 0 -123 33.5t-87 91t-32 129.5t30.5 129t82.5 90t117 33q64 0 114.5 -32.5t80 -88t29.5 -125.5v-22h-383q4 -50 27.5 -89.5t62 -62t84.5 -22.5q38 0 73.5 13.5t60.5 36.5l46 -49q-42 -33 -87 -49t-96 -16zM126 280h309q-5 44 -26.5 78.5t-54 54.5t-72.5 20
t-73 -19.5t-54.5 -54t-28.5 -79.5zM287 609q-22 0 -37.5 15.5t-15.5 36.5t15.5 36.5t37.5 15.5t37.5 -15.5t15.5 -36.5t-15.5 -36.5t-37.5 -15.5z" />
    <glyph glyph-name="Eogonek" unicode="&#x118;" horiz-adv-x="619" 
d="M596 -212q-30 -19 -73 -19q-48 0 -77 25t-29 66q0 37 23.5 70t75.5 70h-427v700h478v-68h-401v-245h278v-67h-278v-252h405v-68q-54 -35 -79 -66t-25 -62q0 -27 18 -42t49 -15q13 0 26 3t22 9z" />
    <glyph glyph-name="eogonek" unicode="&#x119;" horiz-adv-x="557" 
d="M323 -231q-48 0 -77 25t-29 66q0 35 20 65.5t65 64.5q-69 -2 -125.5 31t-90 91.5t-33.5 131.5q0 72 30.5 129t82.5 90t117 33q64 0 114.5 -32.5t80 -88t29.5 -125.5v-22h-383q4 -50 27.5 -89.5t62 -62t84.5 -22.5q38 0 73.5 13.5t60.5 36.5l46 -49q-50 -40 -108 -55
q-53 -35 -78 -66t-25 -62q0 -27 18 -42t49 -15q13 0 26 3t22 9l14 -39q-30 -19 -73 -19zM126 280h309q-5 44 -26.5 78.5t-54 54.5t-72.5 20t-73 -19.5t-54.5 -54t-28.5 -79.5z" />
    <glyph glyph-name="Ecaron" unicode="&#x11a;" horiz-adv-x="619" 
d="M89 0v700h478v-68h-401v-245h278v-67h-278v-252h405v-68h-482zM237 922l92 -83l92 83h61l-114 -127h-78l-114 127h61z" />
    <glyph glyph-name="ecaron" unicode="&#x11b;" horiz-adv-x="557" 
d="M295 -10q-68 0 -123 33.5t-87 91t-32 129.5t30.5 129t82.5 90t117 33q64 0 114.5 -32.5t80 -88t29.5 -125.5v-22h-383q4 -50 27.5 -89.5t62 -62t84.5 -22.5q38 0 73.5 13.5t60.5 36.5l46 -49q-42 -33 -87 -49t-96 -16zM126 280h309q-5 44 -26.5 78.5t-54 54.5t-72.5 20
t-73 -19.5t-54.5 -54t-28.5 -79.5zM195 710l92 -83l92 83h61l-114 -127h-78l-114 127h61z" />
    <glyph glyph-name="Gcircumflex" unicode="&#x11c;" horiz-adv-x="799" 
d="M410 -11q-75 0 -139 28t-112.5 77.5t-75.5 115t-27 140.5t27 140.5t75.5 115t112.5 77.5t139 28q80 0 151.5 -29t121.5 -86l-52 -52q-39 47 -98 72t-123 25q-59 0 -109 -22.5t-87.5 -62t-58.5 -92.5t-21 -114t21 -114t58.5 -92.5t87.5 -62t109 -22.5q70 0 125.5 31
t90 85.5t40.5 122.5h-236v68h314v-31q0 -73 -25 -135.5t-70.5 -110t-106.5 -74t-132 -26.5zM502 791l-94 84l-93 -84h-59l114 127h78l114 -127h-60z" />
    <glyph glyph-name="gcircumflex" unicode="&#x11d;" horiz-adv-x="582" 
d="M301 -219q-49 0 -98.5 13.5t-91.5 37.5l31 56q45 -23 82 -34t74 -11q67 0 101.5 32t34.5 93v98q-28 -35 -68 -53.5t-88 -18.5q-63 0 -114 33.5t-81 90t-30 126.5t30.5 126.5t82.5 90t116 33.5q46 0 85 -17.5t68 -51.5v63h72v-519q0 -91 -53 -139.5t-153 -48.5zM296 57
q43 0 79 17.5t59 48.5v241q-24 31 -60.5 48.5t-77.5 17.5q-49 0 -87.5 -24t-61 -66t-22.5 -96q0 -53 22.5 -95.5t61 -67t87.5 -24.5zM379 579l-94 84l-93 -84h-59l114 127h78l114 -127h-60z" />
    <glyph glyph-name="Gbreve" unicode="&#x11e;" horiz-adv-x="799" 
d="M410 -11q-75 0 -139 28t-112.5 77.5t-75.5 115t-27 140.5t27 140.5t75.5 115t112.5 77.5t139 28q80 0 151.5 -29t121.5 -86l-52 -52q-39 47 -98 72t-123 25q-59 0 -109 -22.5t-87.5 -62t-58.5 -92.5t-21 -114t21 -114t58.5 -92.5t87.5 -62t109 -22.5q70 0 125.5 31
t90 85.5t40.5 122.5h-236v68h314v-31q0 -73 -25 -135.5t-70.5 -110t-106.5 -74t-132 -26.5zM410 791q-61 0 -103 33.5t-56 92.5l51 12q23 -92 108 -92q41 0 68.5 24t38.5 68l50 -12q-13 -59 -55 -92.5t-102 -33.5z" />
    <glyph glyph-name="gbreve" unicode="&#x11f;" horiz-adv-x="582" 
d="M301 -219q-49 0 -98.5 13.5t-91.5 37.5l31 56q45 -23 82 -34t74 -11q67 0 101.5 32t34.5 93v98q-28 -35 -68 -53.5t-88 -18.5q-63 0 -114 33.5t-81 90t-30 126.5t30.5 126.5t82.5 90t116 33.5q46 0 85 -17.5t68 -51.5v63h72v-519q0 -91 -53 -139.5t-153 -48.5zM296 57
q43 0 79 17.5t59 48.5v241q-24 31 -60.5 48.5t-77.5 17.5q-49 0 -87.5 -24t-61 -66t-22.5 -96q0 -53 22.5 -95.5t61 -67t87.5 -24.5zM287 579q-61 0 -103 33.5t-56 92.5l51 12q23 -92 108 -92q41 0 68.5 24t38.5 68l50 -12q-13 -59 -55 -92.5t-102 -33.5z" />
    <glyph glyph-name="Gdotaccent" unicode="&#x120;" horiz-adv-x="799" 
d="M410 -11q-75 0 -139 28t-112.5 77.5t-75.5 115t-27 140.5t27 140.5t75.5 115t112.5 77.5t139 28q80 0 151.5 -29t121.5 -86l-52 -52q-39 47 -98 72t-123 25q-59 0 -109 -22.5t-87.5 -62t-58.5 -92.5t-21 -114t21 -114t58.5 -92.5t87.5 -62t109 -22.5q70 0 125.5 31
t90 85.5t40.5 122.5h-236v68h314v-31q0 -73 -25 -135.5t-70.5 -110t-106.5 -74t-132 -26.5zM409 821q-22 0 -37.5 15.5t-15.5 36.5t15.5 36.5t37.5 15.5t37.5 -15.5t15.5 -36.5t-15.5 -36.5t-37.5 -15.5z" />
    <glyph glyph-name="gdotaccent" unicode="&#x121;" horiz-adv-x="582" 
d="M301 -219q-49 0 -98.5 13.5t-91.5 37.5l31 56q45 -23 82 -34t74 -11q67 0 101.5 32t34.5 93v98q-28 -35 -68 -53.5t-88 -18.5q-63 0 -114 33.5t-81 90t-30 126.5t30.5 126.5t82.5 90t116 33.5q46 0 85 -17.5t68 -51.5v63h72v-519q0 -91 -53 -139.5t-153 -48.5zM296 57
q43 0 79 17.5t59 48.5v241q-24 31 -60.5 48.5t-77.5 17.5q-49 0 -87.5 -24t-61 -66t-22.5 -96q0 -53 22.5 -95.5t61 -67t87.5 -24.5zM286 609q-22 0 -37.5 15.5t-15.5 36.5t15.5 36.5t37.5 15.5t37.5 -15.5t15.5 -36.5t-15.5 -36.5t-37.5 -15.5z" />
    <glyph glyph-name="uni0122" unicode="&#x122;" horiz-adv-x="799" 
d="M410 -11q-75 0 -139 28t-112.5 77.5t-75.5 115t-27 140.5t27 140.5t75.5 115t112.5 77.5t139 28q80 0 151.5 -29t121.5 -86l-52 -52q-39 47 -98 72t-123 25q-59 0 -109 -22.5t-87.5 -62t-58.5 -92.5t-21 -114t21 -114t58.5 -92.5t87.5 -62t109 -22.5q70 0 125.5 31
t90 85.5t40.5 122.5h-236v68h314v-31q0 -73 -25 -135.5t-70.5 -110t-106.5 -74t-132 -26.5zM331 -274l49 187h73l-69 -187h-53z" />
    <glyph glyph-name="uni0123" unicode="&#x123;" horiz-adv-x="582" 
d="M383 797l-49 -187h-73l69 187h53zM301 -219q-49 0 -98.5 13.5t-91.5 37.5l31 56q45 -23 82 -34t74 -11q67 0 101.5 32t34.5 93v98q-28 -35 -68 -53.5t-88 -18.5q-63 0 -114 33.5t-81 90t-30 126.5t30.5 126.5t82.5 90t116 33.5q46 0 85 -17.5t68 -51.5v63h72v-519
q0 -91 -53 -139.5t-153 -48.5zM296 57q43 0 79 17.5t59 48.5v241q-24 31 -60.5 48.5t-77.5 17.5q-49 0 -87.5 -24t-61 -66t-22.5 -96q0 -53 22.5 -95.5t61 -67t87.5 -24.5z" />
    <glyph glyph-name="Hcircumflex" unicode="&#x124;" horiz-adv-x="732" 
d="M88 0v700h77v-313h402v313h77v-700h-77v318h-402v-318h-77zM459 791l-94 84l-93 -84h-59l114 127h78l114 -127h-60z" />
    <glyph glyph-name="hcircumflex" unicode="&#x125;" horiz-adv-x="552" 
d="M75 0v722l73 15v-328q28 44 67 65.5t88 21.5q53 0 92.5 -22.5t62 -63t22.5 -94.5v-316h-73v295q0 65 -35.5 102.5t-95.5 37.5q-40 0 -73 -19t-55 -56v-360h-73zM204 791l-94 84l-93 -84h-59l114 127h78l114 -127h-60z" />
    <glyph glyph-name="Hbar" unicode="&#x126;" horiz-adv-x="748" 
d="M96 0v521h-84v61h84v118h77v-118h402v118h77v-118h84v-61h-84v-521h-77v318h-402v-318h-77zM173 386h402v135h-402v-135z" />
    <glyph glyph-name="hbar" unicode="&#x127;" horiz-adv-x="558" 
d="M81 0v573h-61v54h61v95l73 15v-110h145v-54h-145v-164q28 44 67 65.5t88 21.5q53 0 92.5 -22.5t62 -63t22.5 -94.5v-316h-73v295q0 65 -35.5 102.5t-95.5 37.5q-40 0 -73 -19t-55 -56v-360h-73z" />
    <glyph glyph-name="Itilde" unicode="&#x128;" horiz-adv-x="253" 
d="M88 0v700h77v-700h-77zM6 792l-51 10q14 51 39 77.5t61 26.5q29 0 54.5 -15t48 -30t42.5 -15q17 0 26.5 14t19.5 50l51 -10q-13 -51 -37.5 -77.5t-58.5 -26.5q-28 0 -53 15t-47.5 30t-43.5 15q-19 0 -30.5 -14.5t-20.5 -49.5z" />
    <glyph glyph-name="itilde" unicode="&#x129;" horiz-adv-x="223" 
d="M75 0v488h73v-488h-73zM-8 580l-51 10q14 51 39 77.5t61 26.5q29 0 54.5 -15t48 -30t42.5 -15q17 0 26.5 14t19.5 50l51 -10q-13 -51 -37.5 -77.5t-58.5 -26.5q-28 0 -53 15t-47.5 30t-43.5 15q-19 0 -30.5 -14.5t-20.5 -49.5z" />
    <glyph glyph-name="Imacron" unicode="&#x12a;" horiz-adv-x="253" 
d="M88 0v700h77v-700h-77zM-10 823v52h272v-52h-272z" />
    <glyph glyph-name="imacron" unicode="&#x12b;" horiz-adv-x="223" 
d="M75 0v488h73v-488h-73zM-24 611v52h272v-52h-272z" />
    <glyph glyph-name="Ibreve" unicode="&#x12c;" horiz-adv-x="253" 
d="M88 0v700h77v-700h-77zM127 791q-61 0 -103 33.5t-56 92.5l51 12q23 -92 108 -92q41 0 68.5 24t38.5 68l50 -12q-13 -59 -55 -92.5t-102 -33.5z" />
    <glyph glyph-name="ibreve" unicode="&#x12d;" horiz-adv-x="223" 
d="M75 0v488h73v-488h-73zM113 579q-61 0 -103 33.5t-56 92.5l51 12q23 -92 108 -92q41 0 68.5 24t38.5 68l50 -12q-13 -59 -55 -92.5t-102 -33.5z" />
    <glyph glyph-name="Iogonek" unicode="&#x12e;" horiz-adv-x="253" 
d="M117 -231q-48 0 -77 25t-29 66q0 37 23.5 70t75.5 70h-22v700h77v-700q-54 -35 -79 -66t-25 -62q0 -27 18 -42t49 -15q13 0 26 3t22 9l14 -39q-30 -19 -73 -19z" />
    <glyph glyph-name="iogonek" unicode="&#x12f;" horiz-adv-x="222" 
d="M111 609q-22 0 -37.5 15.5t-15.5 36.5t15.5 36.5t37.5 15.5t37.5 -15.5t15.5 -36.5t-15.5 -36.5t-37.5 -15.5zM99 -231q-48 0 -77 25t-29 66q0 37 23.5 70t75.5 70h-18v488h73v-488q-54 -35 -79 -66t-25 -62q0 -27 18 -42t49 -15q13 0 26 3t22 9l14 -39q-30 -19 -73 -19z
" />
    <glyph glyph-name="Idotaccent" unicode="&#x130;" horiz-adv-x="253" 
d="M88 0v700h77v-700h-77zM126 821q-22 0 -37.5 15.5t-15.5 36.5t15.5 36.5t37.5 15.5t37.5 -15.5t15.5 -36.5t-15.5 -36.5t-37.5 -15.5z" />
    <glyph glyph-name="dotlessi" unicode="&#x131;" horiz-adv-x="223" 
d="M75 0v488h73v-488h-73z" />
    <glyph glyph-name="IJ" unicode="&#x132;" horiz-adv-x="853" 
d="M88 0v700h77v-700h-77zM520 -11q-89 0 -154.5 47t-94.5 132l70 28q25 -67 70 -102t110 -35q82 0 131 56t49 150v435h77v-436q0 -84 -31.5 -146t-89.5 -95.5t-137 -33.5z" />
    <glyph glyph-name="ij" unicode="&#x133;" horiz-adv-x="445" 
d="M74 0v488h73v-488h-73zM111 609q-22 0 -37.5 15.5t-15.5 36.5t15.5 36.5t37.5 15.5t37.5 -15.5t15.5 -36.5t-15.5 -36.5t-37.5 -15.5zM334 609q-22 0 -37.5 15.5t-15.5 36.5t15.5 36.5t37.5 15.5t37.5 -15.5t15.5 -36.5t-15.5 -36.5t-37.5 -15.5zM247 -219q-12 0 -23.5 2
t-21.5 4v63q9 -2 17.5 -3t18.5 -1q32 0 45.5 15t13.5 49v578h73v-582q0 -59 -31.5 -92t-91.5 -33z" />
    <glyph glyph-name="Jcircumflex" unicode="&#x134;" 
d="M267 -11q-89 0 -154.5 47t-94.5 132l70 28q25 -67 70 -102t110 -35q82 0 131 56t49 150v435h77v-436q0 -84 -31.5 -146t-89.5 -95.5t-137 -33.5zM579 791l-94 84l-93 -84h-59l114 127h78l114 -127h-60z" />
    <glyph glyph-name="jcircumflex" unicode="&#x135;" horiz-adv-x="223" 
d="M25 -219q-12 0 -23.5 2t-21.5 4v63q9 -2 17.5 -3t18.5 -1q32 0 45.5 15t13.5 49v578h73v-582q0 -59 -32 -92t-91 -33zM205 579l-94 84l-93 -84h-59l114 127h78l114 -127h-60z" />
    <glyph glyph-name="uni0136" unicode="&#x136;" horiz-adv-x="610" 
d="M89 0v700h77v-332l340 332h98l-357 -344l365 -356h-105l-341 335v-335h-77zM247 -274l49 187h73l-69 -187h-53z" />
    <glyph glyph-name="uni0137" unicode="&#x137;" horiz-adv-x="489" 
d="M75 0v722l73 15v-468l232 219h88l-248 -232l259 -256h-96l-235 233v-233h-73zM159 -274l49 187h73l-69 -187h-53z" />
    <glyph glyph-name="kgreenlandic" unicode="&#x138;" horiz-adv-x="489" 
d="M75 0v488h73v-219l232 219h88l-248 -232l259 -256h-96l-235 233v-233h-73z" />
    <glyph glyph-name="Lacute" unicode="&#x139;" horiz-adv-x="607" 
d="M89 0v700h77v-632h395v-68h-472zM54 796l112 122h99l-144 -122h-67z" />
    <glyph glyph-name="lacute" unicode="&#x13a;" horiz-adv-x="223" 
d="M75 0v722l73 15v-737h-73zM47 796l112 122h99l-144 -122h-67z" />
    <glyph glyph-name="uni013B" unicode="&#x13b;" horiz-adv-x="607" 
d="M89 0v700h77v-632h395v-68h-472zM243 -274l49 187h73l-69 -187h-53z" />
    <glyph glyph-name="uni013C" unicode="&#x13c;" horiz-adv-x="223" 
d="M75 0v722l73 15v-737h-73zM28 -274l49 187h73l-69 -187h-53z" />
    <glyph glyph-name="Lcaron" unicode="&#x13d;" horiz-adv-x="606" 
d="M89 0v700h77v-632h395v-68h-472zM426 527l5 195l76 15l-25 -210h-56z" />
    <glyph glyph-name="lcaron" unicode="&#x13e;" horiz-adv-x="305" 
d="M90 0v722l73 15v-737h-73zM234 527l5 195l76 15l-25 -210h-56z" />
    <glyph glyph-name="Lslash" unicode="&#x141;" horiz-adv-x="625" 
d="M107 0v244l-93 -73v74l93 73v382h77v-322l176 137v-74l-176 -137v-236h395v-68h-472z" />
    <glyph glyph-name="lslash" unicode="&#x142;" horiz-adv-x="281" 
d="M105 0v304l-96 -76v76l96 76v342l73 15v-299l94 74v-75l-94 -75v-362h-73z" />
    <glyph glyph-name="Nacute" unicode="&#x143;" horiz-adv-x="739" 
d="M89 0v700h80l410 -580l-2 580h73v-700h-70l-420 593l2 -593h-73zM309 796l112 122h99l-144 -122h-67z" />
    <glyph glyph-name="nacute" unicode="&#x144;" horiz-adv-x="552" 
d="M75 0v488h73v-79q28 44 67 65.5t88 21.5q53 0 92.5 -22.5t62 -63t22.5 -94.5v-316h-73v295q0 65 -35.5 102.5t-95.5 37.5q-40 0 -73 -19t-55 -56v-360h-73zM213 584l112 122h99l-144 -122h-67z" />
    <glyph glyph-name="uni0145" unicode="&#x145;" horiz-adv-x="739" 
d="M89 0v700h80l410 -580l-2 580h73v-700h-70l-420 593l2 -593h-73zM290 -274l49 187h73l-69 -187h-53z" />
    <glyph glyph-name="uni0146" unicode="&#x146;" horiz-adv-x="552" 
d="M75 0v488h73v-79q28 44 67 65.5t88 21.5q53 0 92.5 -22.5t62 -63t22.5 -94.5v-316h-73v295q0 65 -35.5 102.5t-95.5 37.5q-40 0 -73 -19t-55 -56v-360h-73zM194 -274l49 187h73l-69 -187h-53z" />
    <glyph glyph-name="Ncaron" unicode="&#x147;" horiz-adv-x="739" 
d="M89 0v700h80l410 -580l-2 580h73v-700h-70l-420 593l2 -593h-73zM281 922l92 -83l92 83h61l-114 -127h-78l-114 127h61z" />
    <glyph glyph-name="ncaron" unicode="&#x148;" horiz-adv-x="552" 
d="M75 0v488h73v-79q28 44 67 65.5t88 21.5q53 0 92.5 -22.5t62 -63t22.5 -94.5v-316h-73v295q0 65 -35.5 102.5t-95.5 37.5q-40 0 -73 -19t-55 -56v-360h-73zM185 710l92 -83l92 83h61l-114 -127h-78l-114 127h61z" />
    <glyph glyph-name="Eng" unicode="&#x14a;" horiz-adv-x="739" 
d="M527 -219q-12 0 -23.5 2t-21.5 4v62q15 -4 36 -4q32 0 46.5 16t14.5 52v88l-418 589l1 -590h-73v700h80l409 -577l-1 577h73v-794q0 -59 -31.5 -92t-91.5 -33z" />
    <glyph glyph-name="eng" unicode="&#x14b;" horiz-adv-x="552" 
d="M357 -219q-10 0 -20.5 1.5t-24.5 4.5v64q9 -2 17.5 -3t18.5 -1q32 0 45.5 15t13.5 49v384q0 65 -35.5 102.5t-95.5 37.5q-40 0 -73 -19t-55 -56v-360h-73v488h73v-79q28 44 67 65.5t88 21.5q53 0 92.5 -22.5t62 -63t22.5 -94.5v-409q0 -61 -32 -93.5t-91 -32.5z" />
    <glyph glyph-name="Omacron" unicode="&#x14c;" horiz-adv-x="810" 
d="M405 -11q-73 0 -136 27.5t-110.5 77t-74.5 115t-27 141.5t27 141.5t74.5 115t110.5 77t136 27.5t136 -27.5t110.5 -77t74.5 -115t27 -141.5t-27 -141.5t-74.5 -115t-110.5 -77t-136 -27.5zM405 59q57 0 106 22t86 62t57.5 93t20.5 114q0 62 -20.5 114.5t-57.5 92.5
t-86 62t-106 22t-106 -22t-86 -62t-57.5 -92.5t-20.5 -114.5q0 -61 20.5 -114t57.5 -93t86 -62t106 -22zM268 823v52h272v-52h-272z" />
    <glyph glyph-name="omacron" unicode="&#x14d;" horiz-adv-x="580" 
d="M290 -8q-67 0 -121 33t-85 90t-31 129t31 129t85 90t121 33q68 0 121.5 -33t84.5 -90t31 -129t-31 -129t-84.5 -90t-121.5 -33zM290 56q48 0 85 24.5t58.5 67.5t21.5 96q0 54 -21.5 96.5t-58.5 67t-85 24.5t-85 -24.5t-58.5 -67t-21.5 -96.5q0 -53 21.5 -96t58.5 -67.5
t85 -24.5zM154 611v52h272v-52h-272z" />
    <glyph glyph-name="Obreve" unicode="&#x14e;" horiz-adv-x="810" 
d="M405 -11q-73 0 -136 27.5t-110.5 77t-74.5 115t-27 141.5t27 141.5t74.5 115t110.5 77t136 27.5t136 -27.5t110.5 -77t74.5 -115t27 -141.5t-27 -141.5t-74.5 -115t-110.5 -77t-136 -27.5zM405 59q57 0 106 22t86 62t57.5 93t20.5 114q0 62 -20.5 114.5t-57.5 92.5
t-86 62t-106 22t-106 -22t-86 -62t-57.5 -92.5t-20.5 -114.5q0 -61 20.5 -114t57.5 -93t86 -62t106 -22zM405 791q-61 0 -103 33.5t-56 92.5l51 12q23 -92 108 -92q41 0 68.5 24t38.5 68l50 -12q-13 -59 -55 -92.5t-102 -33.5z" />
    <glyph glyph-name="obreve" unicode="&#x14f;" horiz-adv-x="580" 
d="M290 -8q-67 0 -121 33t-85 90t-31 129t31 129t85 90t121 33q68 0 121.5 -33t84.5 -90t31 -129t-31 -129t-84.5 -90t-121.5 -33zM290 56q48 0 85 24.5t58.5 67.5t21.5 96q0 54 -21.5 96.5t-58.5 67t-85 24.5t-85 -24.5t-58.5 -67t-21.5 -96.5q0 -53 21.5 -96t58.5 -67.5
t85 -24.5zM291 579q-61 0 -103 33.5t-56 92.5l51 12q23 -92 108 -92q41 0 68.5 24t38.5 68l50 -12q-13 -59 -55 -92.5t-102 -33.5z" />
    <glyph glyph-name="Ohungarumlaut" unicode="&#x150;" horiz-adv-x="810" 
d="M405 -11q-73 0 -136 27.5t-110.5 77t-74.5 115t-27 141.5t27 141.5t74.5 115t110.5 77t136 27.5t136 -27.5t110.5 -77t74.5 -115t27 -141.5t-27 -141.5t-74.5 -115t-110.5 -77t-136 -27.5zM405 59q57 0 106 22t86 62t57.5 93t20.5 114q0 62 -20.5 114.5t-57.5 92.5
t-86 62t-106 22t-106 -22t-86 -62t-57.5 -92.5t-20.5 -114.5q0 -61 20.5 -114t57.5 -93t86 -62t106 -22zM269 794l129 124h84l-144 -124h-69zM442 794l129 124h85l-147 -124h-67z" />
    <glyph glyph-name="ohungarumlaut" unicode="&#x151;" horiz-adv-x="580" 
d="M290 -8q-67 0 -121 33t-85 90t-31 129t31 129t85 90t121 33q68 0 121.5 -33t84.5 -90t31 -129t-31 -129t-84.5 -90t-121.5 -33zM290 56q48 0 85 24.5t58.5 67.5t21.5 96q0 54 -21.5 96.5t-58.5 67t-85 24.5t-85 -24.5t-58.5 -67t-21.5 -96.5q0 -53 21.5 -96t58.5 -67.5
t85 -24.5zM155 582l129 124h84l-144 -124h-69zM328 582l129 124h85l-147 -124h-67z" />
    <glyph glyph-name="OE" unicode="&#x152;" horiz-adv-x="1060" 
d="M399 0q-73 0 -135.5 26.5t-109 74t-72.5 111t-26 138.5t26 138.5t72.5 111t109 74t135.5 26.5h613v-68h-434q58 -40 94.5 -104t43.5 -141h174v-67h-173q-7 -78 -43 -144t-95 -108h433v-68h-613zM389 69q73 0 130.5 37t91.5 101t34 143q0 80 -34 143.5t-91.5 100.5
t-130.5 37q-72 0 -130 -37t-92 -100.5t-34 -143.5q0 -79 34 -143t92 -101t130 -37z" />
    <glyph glyph-name="oe" unicode="&#x153;" horiz-adv-x="960" 
d="M290 -8q-67 0 -121 33t-85 90t-31 129t31 129t85 90t121 33q66 0 119 -34t82 -90q29 56 80 90t115 34t114.5 -32.5t80 -88t29.5 -125.5v-22h-383q4 -50 27.5 -89.5t62 -62t84.5 -22.5q38 0 73.5 13.5t60.5 36.5l46 -49q-42 -33 -87 -49t-96 -16q-68 0 -122.5 34.5
t-83.5 92.5q-29 -57 -82 -91t-120 -34zM290 56q48 0 85 24.5t58.5 67.5t21.5 96q0 54 -21.5 96.5t-58.5 67t-85 24.5t-85 -24.5t-58.5 -67t-21.5 -96.5q0 -53 21.5 -96t58.5 -67.5t85 -24.5zM529 280h309q-5 44 -26.5 78.5t-54 54.5t-72.5 20t-73 -19.5t-54.5 -54
t-28.5 -79.5z" />
    <glyph glyph-name="Racute" unicode="&#x154;" horiz-adv-x="647" 
d="M89 0v700h287q67 0 117 -25.5t78 -70.5t28 -106q0 -70 -39 -119.5t-107 -69.5l149 -309h-85l-142 299h-209v-299h-77zM166 363h204q69 0 110.5 36.5t41.5 97.5q0 62 -41.5 98.5t-110.5 36.5h-204v-269zM261 796l112 122h99l-144 -122h-67z" />
    <glyph glyph-name="racute" unicode="&#x155;" horiz-adv-x="352" 
d="M75 0v488h73v-100q19 51 54.5 79.5t81.5 28.5q13 0 24 -1.5t22 -5.5v-66q-12 4 -25.5 6.5t-25.5 2.5q-45 0 -78.5 -26t-52.5 -73v-333h-73zM122 584l112 122h99l-144 -122h-67z" />
    <glyph glyph-name="uni0156" unicode="&#x156;" horiz-adv-x="647" 
d="M89 0v700h287q67 0 117 -25.5t78 -70.5t28 -106q0 -70 -39 -119.5t-107 -69.5l149 -309h-85l-142 299h-209v-299h-77zM166 363h204q69 0 110.5 36.5t41.5 97.5q0 62 -41.5 98.5t-110.5 36.5h-204v-269zM242 -274l49 187h73l-69 -187h-53z" />
    <glyph glyph-name="uni0157" unicode="&#x157;" horiz-adv-x="352" 
d="M75 0v488h73v-100q19 51 54.5 79.5t81.5 28.5q13 0 24 -1.5t22 -5.5v-66q-12 4 -25.5 6.5t-25.5 2.5q-45 0 -78.5 -26t-52.5 -73v-333h-73zM30 -274l49 187h73l-69 -187h-53z" />
    <glyph glyph-name="Rcaron" unicode="&#x158;" horiz-adv-x="647" 
d="M89 0v700h287q67 0 117 -25.5t78 -70.5t28 -106q0 -70 -39 -119.5t-107 -69.5l149 -309h-85l-142 299h-209v-299h-77zM166 363h204q69 0 110.5 36.5t41.5 97.5q0 62 -41.5 98.5t-110.5 36.5h-204v-269zM233 922l92 -83l92 83h61l-114 -127h-78l-114 127h61z" />
    <glyph glyph-name="rcaron" unicode="&#x159;" horiz-adv-x="352" 
d="M75 0v488h73v-100q19 51 54.5 79.5t81.5 28.5q13 0 24 -1.5t22 -5.5v-66q-12 4 -25.5 6.5t-25.5 2.5q-45 0 -78.5 -26t-52.5 -73v-333h-73zM94 710l92 -83l92 83h61l-114 -127h-78l-114 127h61z" />
    <glyph glyph-name="Sacute" unicode="&#x15a;" horiz-adv-x="623" 
d="M315 -11q-82 0 -152 29.5t-135 89.5l47 56q63 -59 118.5 -84t123.5 -25q54 0 96.5 18.5t66.5 50.5t24 73q0 53 -35 80.5t-121 42.5l-113 19q-96 17 -140.5 58.5t-44.5 111.5q0 59 30.5 104.5t84.5 71.5t125 26q78 0 145 -21.5t132 -67.5l-40 -60q-54 41 -114 62.5
t-122 21.5q-49 0 -86.5 -17t-59 -46t-21.5 -66q0 -46 31 -72t101 -37l112 -19q112 -20 162.5 -64.5t50.5 -123.5q0 -61 -34.5 -109t-94.5 -75.5t-137 -27.5zM226 798l112 122h99l-144 -122h-67z" />
    <glyph glyph-name="sacute" unicode="&#x15b;" horiz-adv-x="452" 
d="M226 -10q-60 0 -111 18.5t-87 53.5l39 48q44 -32 81 -46.5t76 -14.5q53 0 88 25t35 64q0 30 -20.5 47t-67.5 26l-80 14q-71 13 -104.5 44t-33.5 84q0 42 22.5 74t62.5 50.5t91 18.5q50 0 95 -14.5t91 -46.5l-36 -51q-38 27 -76 39.5t-77 12.5q-48 0 -77 -21t-29 -57
q0 -30 18.5 -46t65.5 -24l82 -15q74 -13 108 -45t34 -86q0 -43 -25 -77.5t-68 -54.5t-97 -20zM152 584l112 122h99l-144 -122h-67z" />
    <glyph glyph-name="Scircumflex" unicode="&#x15c;" horiz-adv-x="623" 
d="M315 -11q-82 0 -152 29.5t-135 89.5l47 56q63 -59 118.5 -84t123.5 -25q54 0 96.5 18.5t66.5 50.5t24 73q0 53 -35 80.5t-121 42.5l-113 19q-96 17 -140.5 58.5t-44.5 111.5q0 59 30.5 104.5t84.5 71.5t125 26q78 0 145 -21.5t132 -67.5l-40 -60q-54 41 -114 62.5
t-122 21.5q-49 0 -86.5 -17t-59 -46t-21.5 -66q0 -46 31 -72t101 -37l112 -19q112 -20 162.5 -64.5t50.5 -123.5q0 -61 -34.5 -109t-94.5 -75.5t-137 -27.5zM383 793l-94 84l-93 -84h-59l114 127h78l114 -127h-60z" />
    <glyph glyph-name="scircumflex" unicode="&#x15d;" horiz-adv-x="452" 
d="M226 -10q-60 0 -111 18.5t-87 53.5l39 48q44 -32 81 -46.5t76 -14.5q53 0 88 25t35 64q0 30 -20.5 47t-67.5 26l-80 14q-71 13 -104.5 44t-33.5 84q0 42 22.5 74t62.5 50.5t91 18.5q50 0 95 -14.5t91 -46.5l-36 -51q-38 27 -76 39.5t-77 12.5q-48 0 -77 -21t-29 -57
q0 -30 18.5 -46t65.5 -24l82 -15q74 -13 108 -45t34 -86q0 -43 -25 -77.5t-68 -54.5t-97 -20zM309 579l-94 84l-93 -84h-59l114 127h78l114 -127h-60z" />
    <glyph glyph-name="Scedilla" unicode="&#x15e;" horiz-adv-x="623" 
d="M306 -237q-34 0 -62 9t-48 27l28 32q35 -29 79 -29q31 0 48 14t17 38q0 23 -18.5 36t-52.5 13h-29l22 87q-74 4 -138.5 33.5t-123.5 84.5l47 56q63 -59 118.5 -84t123.5 -25q54 0 96.5 18.5t66.5 50.5t24 73q0 53 -35 80.5t-121 42.5l-113 19q-96 17 -140.5 58.5
t-44.5 111.5q0 59 30.5 104.5t84.5 71.5t125 26q78 0 145 -21.5t132 -67.5l-40 -60q-54 41 -114 62.5t-122 21.5q-49 0 -86.5 -17t-59 -46t-21.5 -66q0 -46 31 -72t101 -37l112 -19q112 -20 162.5 -64.5t50.5 -123.5q0 -58 -32 -105t-88 -75t-129 -32l-12 -53
q44 -2 70.5 -23.5t26.5 -56.5q0 -40 -31 -66.5t-80 -26.5z" />
    <glyph glyph-name="scedilla" unicode="&#x15f;" horiz-adv-x="452" 
d="M218 -239q-34 0 -62 9t-48 27l28 32q35 -29 79 -29q31 0 48 14t17 38q0 23 -18.5 36t-52.5 13h-29l23 90q-109 6 -175 71l39 48q44 -32 81 -46.5t76 -14.5q53 0 88 25t35 64q0 30 -20.5 47t-67.5 26l-80 14q-71 13 -104.5 44t-33.5 84q0 42 22.5 74t62.5 50.5t91 18.5
q50 0 95 -14.5t91 -46.5l-36 -51q-38 27 -76 39.5t-77 12.5q-48 0 -77 -21t-29 -57q0 -30 18.5 -46t65.5 -24l82 -15q74 -13 108 -45t34 -86q0 -40 -22.5 -73t-61 -53.5t-87.5 -24.5l-13 -57q44 -2 70.5 -23.5t26.5 -56.5q0 -40 -31 -66.5t-80 -26.5z" />
    <glyph glyph-name="Scaron" unicode="&#x160;" horiz-adv-x="623" 
d="M315 -11q-82 0 -152 29.5t-135 89.5l47 56q63 -59 118.5 -84t123.5 -25q54 0 96.5 18.5t66.5 50.5t24 73q0 53 -35 80.5t-121 42.5l-113 19q-96 17 -140.5 58.5t-44.5 111.5q0 59 30.5 104.5t84.5 71.5t125 26q78 0 145 -21.5t132 -67.5l-40 -60q-54 41 -114 62.5
t-122 21.5q-49 0 -86.5 -17t-59 -46t-21.5 -66q0 -46 31 -72t101 -37l112 -19q112 -20 162.5 -64.5t50.5 -123.5q0 -61 -34.5 -109t-94.5 -75.5t-137 -27.5zM198 924l92 -83l92 83h61l-114 -127h-78l-114 127h61z" />
    <glyph glyph-name="scaron" unicode="&#x161;" horiz-adv-x="452" 
d="M226 -10q-60 0 -111 18.5t-87 53.5l39 48q44 -32 81 -46.5t76 -14.5q53 0 88 25t35 64q0 30 -20.5 47t-67.5 26l-80 14q-71 13 -104.5 44t-33.5 84q0 42 22.5 74t62.5 50.5t91 18.5q50 0 95 -14.5t91 -46.5l-36 -51q-38 27 -76 39.5t-77 12.5q-48 0 -77 -21t-29 -57
q0 -30 18.5 -46t65.5 -24l82 -15q74 -13 108 -45t34 -86q0 -43 -25 -77.5t-68 -54.5t-97 -20zM124 710l92 -83l92 83h61l-114 -127h-78l-114 127h61z" />
    <glyph glyph-name="uni0162" unicode="&#x162;" horiz-adv-x="617" 
d="M300 -239q-34 0 -62 9t-48 27l28 32q35 -29 79 -29q31 0 48 14t17 38q0 23 -18.5 36t-52.5 13h-29l25 99h-17v632h-242v68h561v-68h-242v-632h-18l-15 -66q44 -2 70.5 -23.5t26.5 -56.5q0 -40 -31 -66.5t-80 -26.5z" />
    <glyph glyph-name="uni0163" unicode="&#x163;" horiz-adv-x="378" 
d="M226 -239q-34 0 -62 9t-48 27l28 32q35 -29 79 -29q31 0 48 14t17 38q0 23 -18.5 36t-52.5 13h-29l24 95q-79 21 -79 113v319h-101v60h101v134l73 17v-151h140v-60h-140v-300q0 -39 16.5 -56t54.5 -17q19 0 34 3t35 10v-65q-20 -7 -42 -10t-43 -3h-4h-4l-13 -56
q44 -2 70.5 -23.5t26.5 -56.5q0 -40 -31 -66.5t-80 -26.5z" />
    <glyph glyph-name="Tcaron" unicode="&#x164;" horiz-adv-x="617" 
d="M270 0v632h-242v68h561v-68h-242v-632h-77zM216 922l92 -83l92 83h61l-114 -127h-78l-114 127h61z" />
    <glyph glyph-name="tcaron" unicode="&#x165;" horiz-adv-x="378" 
d="M293 587l5 185l76 15l-25 -200h-56zM261 -10q-63 0 -95.5 30.5t-32.5 88.5v319h-101v60h101v134l73 17v-151h140v-60h-140v-300q0 -39 16.5 -56t54.5 -17q19 0 34 3t35 10v-65q-20 -7 -42 -10t-43 -3z" />
    <glyph glyph-name="Tbar" unicode="&#x166;" horiz-adv-x="617" 
d="M270 0v312h-154v61h154v259h-242v68h561v-68h-242v-259h154v-61h-154v-312h-77z" />
    <glyph glyph-name="tbar" unicode="&#x167;" horiz-adv-x="378" 
d="M261 -10q-63 0 -95.5 30.5t-32.5 88.5v142h-101v54h101v123h-101v60h101v134l73 17v-151h140v-60h-140v-123h140v-54h-140v-123q0 -39 16.5 -56t54.5 -17q19 0 34 3t35 10v-65q-20 -7 -42 -10t-43 -3z" />
    <glyph glyph-name="Utilde" unicode="&#x168;" horiz-adv-x="712" 
d="M356 -11q-86 0 -149.5 37.5t-97.5 106.5t-34 163v404h77v-404q0 -72 25 -125t71 -82.5t108 -29.5t108 29.5t71 82.5t25 125v404h77v-404q0 -94 -34 -163t-97 -106.5t-150 -37.5zM236 792l-51 10q14 51 39 77.5t61 26.5q29 0 54.5 -15t48 -30t42.5 -15q17 0 26.5 14
t19.5 50l51 -10q-13 -51 -37.5 -77.5t-58.5 -26.5q-28 0 -53 15t-47.5 30t-43.5 15q-19 0 -30.5 -14.5t-20.5 -49.5z" />
    <glyph glyph-name="utilde" unicode="&#x169;" horiz-adv-x="552" 
d="M249 -8q-52 0 -92 23t-62.5 64t-22.5 94v315h74v-294q0 -65 35 -103t95 -38q41 0 73.5 19t54.5 55v361h73v-488h-73v79q-28 -43 -66.5 -65t-88.5 -22zM156 580l-51 10q14 51 39 77.5t61 26.5q29 0 54.5 -15t48 -30t42.5 -15q17 0 26.5 14t19.5 50l51 -10
q-13 -51 -37.5 -77.5t-58.5 -26.5q-28 0 -53 15t-47.5 30t-43.5 15q-19 0 -30.5 -14.5t-20.5 -49.5z" />
    <glyph glyph-name="Umacron" unicode="&#x16a;" horiz-adv-x="712" 
d="M356 -11q-86 0 -149.5 37.5t-97.5 106.5t-34 163v404h77v-404q0 -72 25 -125t71 -82.5t108 -29.5t108 29.5t71 82.5t25 125v404h77v-404q0 -94 -34 -163t-97 -106.5t-150 -37.5zM220 823v52h272v-52h-272z" />
    <glyph glyph-name="umacron" unicode="&#x16b;" horiz-adv-x="552" 
d="M249 -8q-52 0 -92 23t-62.5 64t-22.5 94v315h74v-294q0 -65 35 -103t95 -38q41 0 73.5 19t54.5 55v361h73v-488h-73v79q-28 -43 -66.5 -65t-88.5 -22zM140 611v52h272v-52h-272z" />
    <glyph glyph-name="Ubreve" unicode="&#x16c;" horiz-adv-x="712" 
d="M356 -11q-86 0 -149.5 37.5t-97.5 106.5t-34 163v404h77v-404q0 -72 25 -125t71 -82.5t108 -29.5t108 29.5t71 82.5t25 125v404h77v-404q0 -94 -34 -163t-97 -106.5t-150 -37.5zM357 791q-61 0 -103 33.5t-56 92.5l51 12q23 -92 108 -92q41 0 68.5 24t38.5 68l50 -12
q-13 -59 -55 -92.5t-102 -33.5z" />
    <glyph glyph-name="ubreve" unicode="&#x16d;" horiz-adv-x="552" 
d="M249 -8q-52 0 -92 23t-62.5 64t-22.5 94v315h74v-294q0 -65 35 -103t95 -38q41 0 73.5 19t54.5 55v361h73v-488h-73v79q-28 -43 -66.5 -65t-88.5 -22zM277 579q-61 0 -103 33.5t-56 92.5l51 12q23 -92 108 -92q41 0 68.5 24t38.5 68l50 -12q-13 -59 -55 -92.5t-102 -33.5
z" />
    <glyph glyph-name="Uring" unicode="&#x16e;" horiz-adv-x="712" 
d="M356 -11q-86 0 -149.5 37.5t-97.5 106.5t-34 163v404h77v-404q0 -72 25 -125t71 -82.5t108 -29.5t108 29.5t71 82.5t25 125v404h77v-404q0 -94 -34 -163t-97 -106.5t-150 -37.5zM356 784q-31 0 -56.5 15t-40.5 40.5t-15 55.5q0 31 15 56t40.5 40t56.5 15t56.5 -15
t40.5 -40t15 -56q0 -30 -15 -55.5t-40.5 -40.5t-56.5 -15zM356 825q29 0 49.5 20.5t20.5 49.5t-20.5 49.5t-49.5 20.5t-49.5 -20.5t-20.5 -49.5t20.5 -49.5t49.5 -20.5z" />
    <glyph glyph-name="uring" unicode="&#x16f;" horiz-adv-x="552" 
d="M249 -8q-52 0 -92 23t-62.5 64t-22.5 94v315h74v-294q0 -65 35 -103t95 -38q41 0 73.5 19t54.5 55v361h73v-488h-73v79q-28 -43 -66.5 -65t-88.5 -22zM276 572q-31 0 -56.5 15t-40.5 40.5t-15 55.5q0 31 15 56t40.5 40t56.5 15t56.5 -15t40.5 -40t15 -56q0 -30 -15 -55.5
t-40.5 -40.5t-56.5 -15zM276 613q29 0 49.5 20.5t20.5 49.5t-20.5 49.5t-49.5 20.5t-49.5 -20.5t-20.5 -49.5t20.5 -49.5t49.5 -20.5z" />
    <glyph glyph-name="Uhungarumlaut" unicode="&#x170;" horiz-adv-x="712" 
d="M356 -11q-86 0 -149.5 37.5t-97.5 106.5t-34 163v404h77v-404q0 -72 25 -125t71 -82.5t108 -29.5t108 29.5t71 82.5t25 125v404h77v-404q0 -94 -34 -163t-97 -106.5t-150 -37.5zM221 794l129 124h84l-144 -124h-69zM394 794l129 124h85l-147 -124h-67z" />
    <glyph glyph-name="uhungarumlaut" unicode="&#x171;" horiz-adv-x="552" 
d="M249 -8q-52 0 -92 23t-62.5 64t-22.5 94v315h74v-294q0 -65 35 -103t95 -38q41 0 73.5 19t54.5 55v361h73v-488h-73v79q-28 -43 -66.5 -65t-88.5 -22zM141 582l129 124h84l-144 -124h-69zM314 582l129 124h85l-147 -124h-67z" />
    <glyph glyph-name="Uogonek" unicode="&#x172;" horiz-adv-x="712" 
d="M394 -231q-48 0 -77 25t-29 66q0 34 20 64.5t65 64.5q-90 -4 -157 32.5t-104 106.5t-37 168v404h77v-404q0 -72 25 -125t71 -82.5t108 -29.5t108 29.5t71 82.5t25 125v404h77v-404q0 -116 -51.5 -193.5t-143.5 -102.5q-54 -35 -79 -66t-25 -62q0 -27 18 -42t49 -15
q13 0 26 3t22 9l14 -39q-30 -19 -73 -19z" />
    <glyph glyph-name="uogonek" unicode="&#x173;" horiz-adv-x="552" 
d="M429 -231q-48 0 -77 25t-29 66q0 37 23.5 70t75.5 70h-18v79q-28 -43 -66.5 -65t-88.5 -22q-52 0 -92 23t-62.5 64t-22.5 94v315h74v-294q0 -65 35 -103t95 -38q41 0 73.5 19t54.5 55v361h73v-488q-54 -35 -79 -66t-25 -62q0 -27 18 -42t49 -15q13 0 26 3t22 9l14 -39
q-30 -19 -73 -19z" />
    <glyph glyph-name="Wcircumflex" unicode="&#x174;" horiz-adv-x="897" 
d="M193 0l-151 700h78l119 -579l173 579h75l173 -577l120 577h75l-151 -700h-78l-177 594l-178 -594h-78zM543 791l-94 84l-93 -84h-59l114 127h78l114 -127h-60z" />
    <glyph glyph-name="wcircumflex" unicode="&#x175;" horiz-adv-x="698" 
d="M162 0l-134 488h71l102 -390l117 390h65l117 -390l101 390h69l-133 -488h-71l-116 394l-116 -394h-72zM443 579l-94 84l-93 -84h-59l114 127h78l114 -127h-60z" />
    <glyph glyph-name="Ycircumflex" unicode="&#x176;" horiz-adv-x="646" 
d="M284 0v286l-272 414h90l223 -347l224 347h85l-273 -416v-284h-77zM419 791l-94 84l-93 -84h-59l114 127h78l114 -127h-60z" />
    <glyph glyph-name="ycircumflex" unicode="&#x177;" horiz-adv-x="498" 
d="M96 -219q-23 0 -47 7v65q10 -2 21 -3t19 -1q28 0 46.5 15t31.5 47l36 89l-188 488h81l148 -401l157 401h81l-246 -599q-16 -39 -35 -63t-44 -34.5t-61 -10.5zM342 579l-94 84l-93 -84h-59l114 127h78l114 -127h-60z" />
    <glyph glyph-name="Ydieresis" unicode="&#x178;" horiz-adv-x="646" 
d="M284 0v286l-272 414h90l223 -347l224 347h85l-273 -416v-284h-77zM238 821q-22 0 -37.5 15.5t-15.5 36.5t15.5 36.5t37.5 15.5t37.5 -15.5t15.5 -36.5t-15.5 -36.5t-37.5 -15.5zM414 821q-22 0 -37.5 15.5t-15.5 36.5t15.5 36.5t37.5 15.5t37.5 -15.5t15.5 -36.5
t-15.5 -36.5t-37.5 -15.5z" />
    <glyph glyph-name="Zacute" unicode="&#x179;" horiz-adv-x="605" 
d="M37 0v54l430 581l-427 -2v67h524v-54l-431 -581l439 2v-67h-535zM241 796l112 122h99l-144 -122h-67z" />
    <glyph glyph-name="zacute" unicode="&#x17a;" horiz-adv-x="459" 
d="M41 0v58l281 364l-278 -1v67h367v-57l-282 -366l286 1v-66h-374zM164 584l112 122h99l-144 -122h-67z" />
    <glyph glyph-name="Zdotaccent" unicode="&#x17b;" horiz-adv-x="605" 
d="M37 0v54l430 581l-427 -2v67h524v-54l-431 -581l439 2v-67h-535zM305 821q-22 0 -37.5 15.5t-15.5 36.5t15.5 36.5t37.5 15.5t37.5 -15.5t15.5 -36.5t-15.5 -36.5t-37.5 -15.5z" />
    <glyph glyph-name="zdotaccent" unicode="&#x17c;" horiz-adv-x="459" 
d="M41 0v58l281 364l-278 -1v67h367v-57l-282 -366l286 1v-66h-374zM228 609q-22 0 -37.5 15.5t-15.5 36.5t15.5 36.5t37.5 15.5t37.5 -15.5t15.5 -36.5t-15.5 -36.5t-37.5 -15.5z" />
    <glyph glyph-name="Zcaron" unicode="&#x17d;" horiz-adv-x="605" 
d="M37 0v54l430 581l-427 -2v67h524v-54l-431 -581l439 2v-67h-535zM213 922l92 -83l92 83h61l-114 -127h-78l-114 127h61z" />
    <glyph glyph-name="zcaron" unicode="&#x17e;" horiz-adv-x="459" 
d="M41 0v58l281 364l-278 -1v67h367v-57l-282 -366l286 1v-66h-374zM136 710l92 -83l92 83h61l-114 -127h-78l-114 127h61z" />
    <glyph glyph-name="uni0218" unicode="&#x218;" horiz-adv-x="623" 
d="M315 -11q-82 0 -152 29.5t-135 89.5l47 56q63 -59 118.5 -84t123.5 -25q54 0 96.5 18.5t66.5 50.5t24 73q0 53 -35 80.5t-121 42.5l-113 19q-96 17 -140.5 58.5t-44.5 111.5q0 59 30.5 104.5t84.5 71.5t125 26q78 0 145 -21.5t132 -67.5l-40 -60q-54 41 -114 62.5
t-122 21.5q-49 0 -86.5 -17t-59 -46t-21.5 -66q0 -46 31 -72t101 -37l112 -19q112 -20 162.5 -64.5t50.5 -123.5q0 -61 -34.5 -109t-94.5 -75.5t-137 -27.5zM231 -272l49 187h73l-69 -187h-53z" />
    <glyph glyph-name="uni0219" unicode="&#x219;" horiz-adv-x="452" 
d="M226 -10q-60 0 -111 18.5t-87 53.5l39 48q44 -32 81 -46.5t76 -14.5q53 0 88 25t35 64q0 30 -20.5 47t-67.5 26l-80 14q-71 13 -104.5 44t-33.5 84q0 42 22.5 74t62.5 50.5t91 18.5q50 0 95 -14.5t91 -46.5l-36 -51q-38 27 -76 39.5t-77 12.5q-48 0 -77 -21t-29 -57
q0 -30 18.5 -46t65.5 -24l82 -15q74 -13 108 -45t34 -86q0 -43 -25 -77.5t-68 -54.5t-97 -20zM143 -274l49 187h73l-69 -187h-53z" />
    <glyph glyph-name="uni021A" unicode="&#x21a;" horiz-adv-x="617" 
d="M270 0v632h-242v68h561v-68h-242v-632h-77zM225 -274l49 187h73l-69 -187h-53z" />
    <glyph glyph-name="uni021B" unicode="&#x21b;" horiz-adv-x="378" 
d="M261 -10q-63 0 -95.5 30.5t-32.5 88.5v319h-101v60h101v134l73 17v-151h140v-60h-140v-300q0 -39 16.5 -56t54.5 -17q19 0 34 3t35 10v-65q-20 -7 -42 -10t-43 -3zM151 -274l49 187h73l-69 -187h-53z" />
    <glyph glyph-name="uni0237" unicode="&#x237;" horiz-adv-x="223" 
d="M25 -219q-12 0 -23.5 2t-21.5 4v63q9 -2 17.5 -3t18.5 -1q32 0 45.5 15t13.5 49v578h73v-582q0 -59 -32 -92t-91 -33z" />
    <glyph glyph-name="uni02BB" unicode="&#x2bb;" horiz-adv-x="250" 
d="M200 750l-60 -231h-78l81 231h57z" />
    <glyph glyph-name="uni02BC" unicode="&#x2bc;" horiz-adv-x="250" 
d="M50 519l60 231h78l-81 -231h-57z" />
    <glyph glyph-name="circumflex" unicode="&#x2c6;" 
d="M393 579l-94 84l-93 -84h-59l114 127h78l114 -127h-60z" />
    <glyph glyph-name="caron" unicode="&#x2c7;" 
d="M208 710l92 -83l92 83h61l-114 -127h-78l-114 127h61z" />
    <glyph glyph-name="breve" unicode="&#x2d8;" 
d="M301 579q-61 0 -103 33.5t-56 92.5l51 12q23 -92 108 -92q41 0 68.5 24t38.5 68l50 -12q-13 -59 -55 -92.5t-102 -33.5z" />
    <glyph glyph-name="dotaccent" unicode="&#x2d9;" 
d="M300 609q-22 0 -37.5 15.5t-15.5 36.5t15.5 36.5t37.5 15.5t37.5 -15.5t15.5 -36.5t-15.5 -36.5t-37.5 -15.5z" />
    <glyph glyph-name="ring" unicode="&#x2da;" 
d="M300 572q-31 0 -56.5 15t-40.5 40.5t-15 55.5q0 31 15 56t40.5 40t56.5 15t56.5 -15t40.5 -40t15 -56q0 -30 -15 -55.5t-40.5 -40.5t-56.5 -15zM300 613q29 0 49.5 20.5t20.5 49.5t-20.5 49.5t-49.5 20.5t-49.5 -20.5t-20.5 -49.5t20.5 -49.5t49.5 -20.5z" />
    <glyph glyph-name="ogonek" unicode="&#x2db;" 
d="M305 -231q-48 0 -77 25t-29 66t28.5 77t93.5 79l32 -16q-54 -35 -79 -66t-25 -62q0 -27 18 -42t49 -15q13 0 26 3t22 9l14 -39q-30 -19 -73 -19z" />
    <glyph glyph-name="tilde" unicode="&#x2dc;" 
d="M180 580l-51 10q14 51 39 77.5t61 26.5q29 0 54.5 -15t48 -30t42.5 -15q17 0 26.5 14t19.5 50l51 -10q-13 -51 -37.5 -77.5t-58.5 -26.5q-28 0 -53 15t-47.5 30t-43.5 15q-19 0 -30.5 -14.5t-20.5 -49.5z" />
    <glyph glyph-name="hungarumlaut" unicode="&#x2dd;" 
d="M165 582l129 124h84l-144 -124h-69zM338 582l129 124h85l-147 -124h-67z" />
    <glyph glyph-name="gravecomb" unicode="&#x300;" horiz-adv-x="0" 
d="M294 584l-144 122h103l112 -122h-71z" />
    <glyph glyph-name="acutecomb" unicode="&#x301;" horiz-adv-x="0" 
d="M236 584l112 122h99l-144 -122h-67z" />
    <glyph glyph-name="uni0302" unicode="&#x302;" horiz-adv-x="0" 
d="M393 579l-94 84l-93 -84h-59l114 127h78l114 -127h-60z" />
    <glyph glyph-name="tildecomb" unicode="&#x303;" horiz-adv-x="0" 
d="M180 580l-51 10q14 51 39 77.5t61 26.5q29 0 54.5 -15t48 -30t42.5 -15q17 0 26.5 14t19.5 50l51 -10q-13 -51 -37.5 -77.5t-58.5 -26.5q-28 0 -53 15t-47.5 30t-43.5 15q-19 0 -30.5 -14.5t-20.5 -49.5z" />
    <glyph glyph-name="uni0304" unicode="&#x304;" horiz-adv-x="0" 
d="M164 611v52h272v-52h-272z" />
    <glyph glyph-name="uni0306" unicode="&#x306;" horiz-adv-x="0" 
d="M301 579q-61 0 -103 33.5t-56 92.5l51 12q23 -92 108 -92q41 0 68.5 24t38.5 68l50 -12q-13 -59 -55 -92.5t-102 -33.5z" />
    <glyph glyph-name="uni0307" unicode="&#x307;" horiz-adv-x="0" 
d="M300 609q-22 0 -37.5 15.5t-15.5 36.5t15.5 36.5t37.5 15.5t37.5 -15.5t15.5 -36.5t-15.5 -36.5t-37.5 -15.5z" />
    <glyph glyph-name="uni0308" unicode="&#x308;" horiz-adv-x="0" 
d="M212 609q-22 0 -37.5 15.5t-15.5 36.5t15.5 36.5t37.5 15.5t37.5 -15.5t15.5 -36.5t-15.5 -36.5t-37.5 -15.5zM388 609q-22 0 -37.5 15.5t-15.5 36.5t15.5 36.5t37.5 15.5t37.5 -15.5t15.5 -36.5t-15.5 -36.5t-37.5 -15.5z" />
    <glyph glyph-name="uni030A" unicode="&#x30a;" horiz-adv-x="0" 
d="M300 572q-31 0 -56.5 15t-40.5 40.5t-15 55.5q0 31 15 56t40.5 40t56.5 15t56.5 -15t40.5 -40t15 -56q0 -30 -15 -55.5t-40.5 -40.5t-56.5 -15zM300 613q29 0 49.5 20.5t20.5 49.5t-20.5 49.5t-49.5 20.5t-49.5 -20.5t-20.5 -49.5t20.5 -49.5t49.5 -20.5z" />
    <glyph glyph-name="uni030B" unicode="&#x30b;" horiz-adv-x="0" 
d="M165 582l129 124h84l-144 -124h-69zM338 582l129 124h85l-147 -124h-67z" />
    <glyph glyph-name="uni030C" unicode="&#x30c;" horiz-adv-x="0" 
d="M208 710l92 -83l92 83h61l-114 -127h-78l-114 127h61z" />
    <glyph glyph-name="uni0312" unicode="&#x312;" horiz-adv-x="0" 
d="M62 519l81 231h57l-60 -231h-78z" />
    <glyph glyph-name="uni0326" unicode="&#x326;" horiz-adv-x="0" 
d="M219 -274l49 187h73l-69 -187h-53z" />
    <glyph glyph-name="uni0327" unicode="&#x327;" horiz-adv-x="0" 
d="M285 -239q-34 0 -62 9t-48 27l28 32q35 -29 79 -29q31 0 48 14t17 38q0 23 -18.5 36t-52.5 13h-29l25 99h42l-15 -66q44 -2 70.5 -23.5t26.5 -56.5q0 -40 -31 -66.5t-80 -26.5z" />
    <glyph glyph-name="uni0328" unicode="&#x328;" horiz-adv-x="0" 
d="M305 -231q-48 0 -77 25t-29 66t28.5 77t93.5 79l32 -16q-54 -35 -79 -66t-25 -62q0 -27 18 -42t49 -15q13 0 26 3t22 9l14 -39q-30 -19 -73 -19z" />
    <glyph glyph-name="Wgrave" unicode="&#x1e80;" horiz-adv-x="897" 
d="M193 0l-151 700h78l119 -579l173 579h75l173 -577l120 577h75l-151 -700h-78l-177 594l-178 -594h-78zM444 796l-144 122h103l112 -122h-71z" />
    <glyph glyph-name="wgrave" unicode="&#x1e81;" horiz-adv-x="698" 
d="M162 0l-134 488h71l102 -390l117 390h65l117 -390l101 390h69l-133 -488h-71l-116 394l-116 -394h-72zM344 584l-144 122h103l112 -122h-71z" />
    <glyph glyph-name="Wacute" unicode="&#x1e82;" horiz-adv-x="897" 
d="M193 0l-151 700h78l119 -579l173 579h75l173 -577l120 577h75l-151 -700h-78l-177 594l-178 -594h-78zM386 796l112 122h99l-144 -122h-67z" />
    <glyph glyph-name="wacute" unicode="&#x1e83;" horiz-adv-x="698" 
d="M162 0l-134 488h71l102 -390l117 390h65l117 -390l101 390h69l-133 -488h-71l-116 394l-116 -394h-72zM286 584l112 122h99l-144 -122h-67z" />
    <glyph glyph-name="Wdieresis" unicode="&#x1e84;" horiz-adv-x="897" 
d="M193 0l-151 700h78l119 -579l173 579h75l173 -577l120 577h75l-151 -700h-78l-177 594l-178 -594h-78zM362 821q-22 0 -37.5 15.5t-15.5 36.5t15.5 36.5t37.5 15.5t37.5 -15.5t15.5 -36.5t-15.5 -36.5t-37.5 -15.5zM538 821q-22 0 -37.5 15.5t-15.5 36.5t15.5 36.5
t37.5 15.5t37.5 -15.5t15.5 -36.5t-15.5 -36.5t-37.5 -15.5z" />
    <glyph glyph-name="wdieresis" unicode="&#x1e85;" horiz-adv-x="698" 
d="M162 0l-134 488h71l102 -390l117 390h65l117 -390l101 390h69l-133 -488h-71l-116 394l-116 -394h-72zM262 609q-22 0 -37.5 15.5t-15.5 36.5t15.5 36.5t37.5 15.5t37.5 -15.5t15.5 -36.5t-15.5 -36.5t-37.5 -15.5zM438 609q-22 0 -37.5 15.5t-15.5 36.5t15.5 36.5
t37.5 15.5t37.5 -15.5t15.5 -36.5t-15.5 -36.5t-37.5 -15.5z" />
    <glyph glyph-name="uni1E9E" unicode="&#x1e9e;" horiz-adv-x="664" 
d="M416 -11q-47 0 -94 16.5t-83 45.5l40 59q30 -26 65.5 -40.5t70.5 -14.5q32 0 57.5 13.5t41 36t15.5 49.5q0 30 -8 50.5t-28 37.5t-57 36q-64 34 -87 57.5t-23 54.5q0 22 9 40.5t37 54.5l116 151h-323v-636h-77v700h471v-89l-123 -153q-19 -23 -27 -38.5t-8 -26.5
q0 -16 17.5 -29.5t70.5 -39.5q118 -57 118 -170q0 -45 -26 -82.5t-69 -60t-96 -22.5z" />
    <glyph glyph-name="Ygrave" unicode="&#x1ef2;" horiz-adv-x="646" 
d="M284 0v286l-272 414h90l223 -347l224 347h85l-273 -416v-284h-77zM320 796l-144 122h103l112 -122h-71z" />
    <glyph glyph-name="ygrave" unicode="&#x1ef3;" horiz-adv-x="498" 
d="M96 -219q-23 0 -47 7v65q10 -2 21 -3t19 -1q28 0 46.5 15t31.5 47l36 89l-188 488h81l148 -401l157 401h81l-246 -599q-16 -39 -35 -63t-44 -34.5t-61 -10.5zM243 584l-144 122h103l112 -122h-71z" />
    <glyph glyph-name="uni2002" unicode="&#x2002;" horiz-adv-x="505" 
 />
    <glyph glyph-name="uni2003" unicode="&#x2003;" horiz-adv-x="980" 
 />
    <glyph glyph-name="uni2009" unicode="&#x2009;" horiz-adv-x="198" 
 />
    <glyph glyph-name="uni200A" unicode="&#x200a;" horiz-adv-x="125" 
 />
    <glyph glyph-name="uni200B" unicode="&#x200b;" horiz-adv-x="0" 
 />
    <glyph glyph-name="endash" unicode="&#x2013;" horiz-adv-x="550" 
d="M61 250v63h428v-63h-428z" />
    <glyph glyph-name="emdash" unicode="&#x2014;" horiz-adv-x="692" 
d="M61 250v63h570v-63h-570z" />
    <glyph glyph-name="uni2015" unicode="&#x2015;" horiz-adv-x="930" 
d="M61 250v63h808v-63h-808z" />
    <glyph glyph-name="quoteleft" unicode="&#x2018;" horiz-adv-x="250" 
d="M200 750l-60 -231h-78l81 231h57z" />
    <glyph glyph-name="quoteright" unicode="&#x2019;" horiz-adv-x="250" 
d="M50 519l60 231h78l-81 -231h-57z" />
    <glyph glyph-name="quotesinglbase" unicode="&#x201a;" horiz-adv-x="250" 
d="M50 -157l60 231h78l-81 -231h-57z" />
    <glyph glyph-name="quotedblleft" unicode="&#x201c;" horiz-adv-x="410" 
d="M200 750l-60 -231h-78l81 231h57zM360 750l-60 -231h-78l81 231h57z" />
    <glyph glyph-name="quotedblright" unicode="&#x201d;" horiz-adv-x="410" 
d="M210 519l60 231h78l-81 -231h-57zM50 519l60 231h78l-81 -231h-57z" />
    <glyph glyph-name="quotedblbase" unicode="&#x201e;" horiz-adv-x="413" 
d="M213 -157l60 231h78l-81 -231h-57zM50 -157l60 231h78l-81 -231h-57z" />
    <glyph glyph-name="dagger" unicode="&#x2020;" horiz-adv-x="432" 
d="M184 0v443h-134v57h134v200h64v-200h134v-57h-134v-443h-64z" />
    <glyph glyph-name="daggerdbl" unicode="&#x2021;" horiz-adv-x="432" 
d="M184 0v200h-134v57h134v186h-134v57h134v200h64v-200h134v-57h-134v-186h134v-57h-134v-200h-64z" />
    <glyph glyph-name="bullet" unicode="&#x2022;" horiz-adv-x="342" 
d="M171 252q-40 0 -70 29t-30 72t30 72t70 29q41 0 70.5 -29t29.5 -72t-29.5 -72t-70.5 -29z" />
    <glyph glyph-name="ellipsis" unicode="&#x2026;" horiz-adv-x="689" 
d="M125 -8q-22 0 -37.5 16t-15.5 38q0 23 15.5 38.5t37.5 15.5t37.5 -15.5t15.5 -38.5q0 -22 -15.5 -38t-37.5 -16zM345 -8q-22 0 -37.5 16t-15.5 38q0 23 15.5 38.5t37.5 15.5t37.5 -15.5t15.5 -38.5q0 -22 -15.5 -38t-37.5 -16zM564 -8q-22 0 -37.5 16t-15.5 38
q0 23 15.5 38.5t37.5 15.5t37.5 -15.5t15.5 -38.5q0 -22 -15.5 -38t-37.5 -16z" />
    <glyph glyph-name="perthousand" unicode="&#x2030;" horiz-adv-x="1084" 
d="M175 345q-65 0 -105.5 50t-40.5 130t40.5 130t105.5 50t105.5 -50t40.5 -130t-40.5 -130t-105.5 -50zM175 390q44 0 70 36.5t26 98.5t-26 98.5t-70 36.5q-43 0 -69.5 -36.5t-26.5 -98.5t26.5 -98.5t69.5 -36.5zM144 0l393 700h58l-394 -700h-57zM565 -5q-65 0 -105.5 50
t-40.5 130t40.5 130t105.5 50t105.5 -50t40.5 -130t-40.5 -130t-105.5 -50zM565 40q44 0 70 36.5t26 98.5t-26 98.5t-70 36.5q-43 0 -69.5 -36.5t-26.5 -98.5t26.5 -98.5t69.5 -36.5zM909 -5q-65 0 -105.5 50t-40.5 130t40.5 130t105.5 50t105.5 -50t40.5 -130t-40.5 -130
t-105.5 -50zM909 40q44 0 70 36.5t26 98.5t-26 98.5t-70 36.5q-43 0 -69.5 -36.5t-26.5 -98.5t26.5 -98.5t69.5 -36.5z" />
    <glyph glyph-name="minute" unicode="&#x2032;" horiz-adv-x="250" 
d="M50 519l60 231h78l-81 -231h-57z" />
    <glyph glyph-name="second" unicode="&#x2033;" horiz-adv-x="410" 
d="M210 519l60 231h78l-81 -231h-57zM50 519l60 231h78l-81 -231h-57z" />
    <glyph glyph-name="guilsinglleft" unicode="&#x2039;" horiz-adv-x="401" 
d="M267 0l-223 245l223 243h77l-217 -241l220 -247h-80z" />
    <glyph glyph-name="guilsinglright" unicode="&#x203a;" horiz-adv-x="401" 
d="M134 488l223 -245l-223 -243h-77l217 241l-220 247h80z" />
    <glyph glyph-name="fraction" unicode="&#x2044;" horiz-adv-x="578" 
d="M32 0l393 700h58l-394 -700h-57z" />
    <glyph glyph-name="uni2070" unicode="&#x2070;" horiz-adv-x="350" 
d="M175 345q-65 0 -105.5 50t-40.5 130t40.5 130t105.5 50t105.5 -50t40.5 -130t-40.5 -130t-105.5 -50zM175 390q44 0 70 36.5t26 98.5t-26 98.5t-70 36.5q-43 0 -69.5 -36.5t-26.5 -98.5t26.5 -98.5t69.5 -36.5z" />
    <glyph glyph-name="uni2074" unicode="&#x2074;" horiz-adv-x="330" 
d="M219 350v88h-197v41l191 221h57v-220h42v-42h-42v-88h-51zM76 480h143v165z" />
    <glyph glyph-name="uni2075" unicode="&#x2075;" horiz-adv-x="309" 
d="M147 345q-67 0 -124 37l25 40q29 -18 52 -26.5t46 -8.5q38 0 61 20.5t23 51.5t-22 50t-60 19q-19 0 -37.5 -3.5t-38.5 -11.5l-32 10l8 177h215v-42h-173l-4 -105q33 14 68 14q59 -1 93.5 -30.5t34.5 -76.5q0 -52 -37 -83.5t-98 -31.5z" />
    <glyph glyph-name="uni2076" unicode="&#x2076;" horiz-adv-x="326" 
d="M175 345q-65 0 -106 47t-41 123q0 86 46.5 137.5t122.5 51.5q46 0 87 -22l-21 -43q-18 9 -37 14.5t-34 5.5q-53 0 -83 -38t-30 -103q18 22 45.5 34.5t58.5 12.5q52 0 85 -29t33 -76q0 -49 -35.5 -82t-90.5 -33zM169 526q-25 0 -48 -11t-40 -32q8 -43 33 -68.5t62 -25.5
q32 0 53 20t21 50q0 29 -22.5 48t-58.5 19z" />
    <glyph glyph-name="uni2077" unicode="&#x2077;" horiz-adv-x="298" 
d="M57 350l172 305h-212v45h269v-39l-169 -311h-60z" />
    <glyph glyph-name="uni2078" unicode="&#x2078;" horiz-adv-x="327" 
d="M164 345q-58 0 -96 28.5t-38 71.5q0 31 21 54.5t55 32.5q-28 9 -45.5 30.5t-17.5 49.5q0 41 34.5 67.5t85.5 26.5q35 0 62.5 -12.5t43.5 -33.5t16 -48q0 -28 -18 -49.5t-47 -30.5q35 -9 56 -32.5t21 -54.5q0 -43 -37.5 -71.5t-95.5 -28.5zM164 552q29 0 49.5 16t20.5 40
t-20.5 40.5t-49.5 16.5q-31 0 -51 -16.5t-20 -40.5t20 -40t51 -16zM164 387q35 0 58.5 18t23.5 44q0 27 -23.5 45t-58.5 18q-36 0 -59.5 -18t-23.5 -45q0 -26 24 -44t59 -18z" />
    <glyph glyph-name="uni2079" unicode="&#x2079;" horiz-adv-x="326" 
d="M151 704q65 0 106 -47t41 -123q0 -85 -46 -137t-123 -52q-46 0 -87 22l21 43q18 -9 37 -14.5t34 -5.5q53 0 83 38t30 103q-18 -22 -45.5 -34.5t-58.5 -12.5q-52 0 -85 29.5t-33 75.5q0 50 35.5 82.5t90.5 32.5zM157 523q25 0 48 11t40 32q-7 43 -32.5 68.5t-62.5 25.5
q-32 0 -53 -20t-21 -50q0 -29 22.5 -48t58.5 -19z" />
    <glyph glyph-name="uni2080" unicode="&#x2080;" horiz-adv-x="350" 
d="M175 -5q-65 0 -105.5 50t-40.5 130t40.5 130t105.5 50t105.5 -50t40.5 -130t-40.5 -130t-105.5 -50zM175 40q44 0 70 36.5t26 98.5t-26 98.5t-70 36.5q-43 0 -69.5 -36.5t-26.5 -98.5t26.5 -98.5t69.5 -36.5z" />
    <glyph glyph-name="uni2081" unicode="&#x2081;" horiz-adv-x="166" 
d="M84 0v296l-63 -26v45l82 35h32v-350h-51z" />
    <glyph glyph-name="uni2082" unicode="&#x2082;" horiz-adv-x="292" 
d="M27 0v38l140 130q26 25 36.5 43t10.5 39q0 26 -20 43t-51 17q-24 0 -45.5 -9t-49.5 -34l-29 35q29 26 60 39.5t65 13.5q53 0 86.5 -28.5t33.5 -72.5q0 -30 -14 -54t-49 -56l-107 -100h175v-44h-242z" />
    <glyph glyph-name="uni2083" unicode="&#x2083;" horiz-adv-x="313" 
d="M151 -5q-74 0 -131 45l30 38q26 -20 51 -29t50 -9q36 0 59 16t23 42t-22 41.5t-59 15.5h-33v40h28q32 0 52.5 17t20.5 43q0 24 -20 39.5t-50 15.5q-25 0 -47 -9t-47 -29l-31 36q27 23 59.5 35.5t66.5 12.5q53 0 87 -27t34 -70q0 -28 -19.5 -49.5t-53.5 -30.5
q38 -7 61.5 -28.5t23.5 -53.5q0 -45 -37 -73.5t-96 -28.5z" />
    <glyph glyph-name="uni2084" unicode="&#x2084;" horiz-adv-x="329" 
d="M219 0v88h-197v41l191 221h57v-220h42v-42h-42v-88h-51zM76 130h143v165z" />
    <glyph glyph-name="uni2085" unicode="&#x2085;" horiz-adv-x="309" 
d="M147 -5q-67 0 -124 37l25 40q29 -18 52 -26.5t46 -8.5q38 0 61 20.5t23 51.5t-22 50t-60 19q-19 0 -37.5 -3.5t-38.5 -11.5l-32 10l8 177h215v-42h-173l-4 -105q33 14 68 14q59 -1 93.5 -30.5t34.5 -76.5q0 -52 -37 -83.5t-98 -31.5z" />
    <glyph glyph-name="uni2086" unicode="&#x2086;" horiz-adv-x="327" 
d="M175 -5q-65 0 -106 47t-41 123q0 86 46.5 137.5t122.5 51.5q46 0 87 -22l-21 -43q-18 9 -37 14.5t-34 5.5q-53 0 -83 -38t-30 -103q18 22 45.5 34.5t58.5 12.5q52 0 85 -29t33 -76q0 -49 -35.5 -82t-90.5 -33zM169 176q-25 0 -48 -11t-40 -32q8 -43 33 -68.5t62 -25.5
q32 0 53 20t21 50q0 29 -22.5 48t-58.5 19z" />
    <glyph glyph-name="uni2087" unicode="&#x2087;" horiz-adv-x="298" 
d="M57 0l172 305h-212v45h269v-39l-169 -311h-60z" />
    <glyph glyph-name="uni2088" unicode="&#x2088;" horiz-adv-x="327" 
d="M164 -5q-58 0 -96 28.5t-38 71.5q0 31 21 54.5t55 32.5q-28 9 -45.5 30.5t-17.5 49.5q0 41 34.5 67.5t85.5 26.5q35 0 62.5 -12.5t43.5 -33.5t16 -48q0 -28 -18 -49.5t-47 -30.5q35 -9 56 -32.5t21 -54.5q0 -43 -37.5 -71.5t-95.5 -28.5zM164 202q29 0 49.5 16t20.5 40
t-20.5 40.5t-49.5 16.5q-31 0 -51 -16.5t-20 -40.5t20 -40t51 -16zM164 37q35 0 58.5 18t23.5 44q0 27 -23.5 45t-58.5 18q-36 0 -59.5 -18t-23.5 -45q0 -26 24 -44t59 -18z" />
    <glyph glyph-name="uni2089" unicode="&#x2089;" horiz-adv-x="326" 
d="M151 354q65 0 106 -47t41 -123q0 -85 -46 -137t-123 -52q-46 0 -87 22l21 43q18 -9 37 -14.5t34 -5.5q53 0 83 38t30 103q-18 -22 -45.5 -34.5t-58.5 -12.5q-52 0 -85 29.5t-33 75.5q0 50 35.5 82.5t90.5 32.5zM157 173q25 0 48 11t40 32q-7 43 -32.5 68.5t-62.5 25.5
q-32 0 -53 -20t-21 -50q0 -29 22.5 -48t58.5 -19z" />
    <glyph glyph-name="Euro" unicode="&#x20ac;" horiz-adv-x="729" 
d="M439 -11q-74 0 -135.5 33.5t-103 93.5t-57.5 140h-99v54h92q-1 10 -1.5 20t-0.5 20q0 11 0.5 20.5t1.5 19.5h-92v54h99q16 80 57.5 140t103 93.5t135.5 33.5q71 0 130 -31.5t103 -93.5l-53 -41q-34 50 -80 76t-102 26q-84 0 -143 -55t-79 -148h269l-18 -54h-259
q-1 -10 -1.5 -19.5t-0.5 -20.5q0 -10 0.5 -20t1.5 -20h231l-17 -54h-206q20 -93 79 -148t143 -55q56 0 102 26t80 76l53 -41q-44 -62 -103 -93.5t-130 -31.5z" />
    <glyph glyph-name="trademark" unicode="&#x2122;" horiz-adv-x="672" 
d="M323 421v279h53l83 -181l83 181h53v-279h-41l2 224l-97 -205l-97 203l1 -222h-40zM140 421v241h-93v38h229v-38h-94v-241h-42z" />
    <glyph glyph-name="arrowup" unicode="&#x2191;" horiz-adv-x="572" 
d="M251 0v609l-163 -215l-48 38l246 318l246 -318l-47 -37l-166 219v-614h-68z" />
    <glyph glyph-name="arrowdown" unicode="&#x2193;" horiz-adv-x="572" 
d="M321 700v-609l163 215l48 -38l-246 -318l-246 318l47 37l166 -219v614h68z" />
    <glyph glyph-name="minus" unicode="&#x2212;" 
d="M102 328v60h396v-60h-396z" />
    <glyph glyph-name="uni2215" unicode="&#x2215;" horiz-adv-x="578" 
d="M32 0l393 700h58l-394 -700h-57z" />
    <glyph glyph-name="notequal" unicode="&#x2260;" 
d="M111 123l84 122h-93v60h134l71 103h-205v60h246l83 121h58l-83 -121h92v-60h-133l-71 -103h204v-60h-245l-84 -122h-58z" />
    <glyph glyph-name="uniFEFF" unicode="&#xfeff;" horiz-adv-x="0" 
 />
    <glyph glyph-name="uniFFFD" unicode="&#xfffd;" horiz-adv-x="514" 
d="M60 -100v850h394v-850h-394z" />
    <glyph glyph-name="i.loclTRK" horiz-adv-x="222" 
d="M74 0v488h73v-488h-73zM111 609q-22 0 -37.5 15.5t-15.5 36.5t15.5 36.5t37.5 15.5t37.5 -15.5t15.5 -36.5t-15.5 -36.5t-37.5 -15.5z" />
    <glyph glyph-name="a.ss01" horiz-adv-x="582" 
d="M278 -7q-63 0 -114 33.5t-81 90t-30 126.5q0 71 30.5 127.5t82.5 90t116 33.5q45 0 84 -17.5t68 -50.5v62h73v-488h-73v65q-28 -35 -68 -53.5t-88 -18.5zM296 57q43 0 79 17t59 48v242q-24 31 -60.5 48.5t-77.5 17.5q-49 0 -87.5 -24t-61 -66t-22.5 -96q0 -53 22.5 -95.5
t61 -67t87.5 -24.5z" />
    <glyph glyph-name="aacute.ss01" horiz-adv-x="582" 
d="M278 -7q-63 0 -114 33.5t-81 90t-30 126.5q0 71 30.5 127.5t82.5 90t116 33.5q45 0 84 -17.5t68 -50.5v62h73v-488h-73v65q-28 -35 -68 -53.5t-88 -18.5zM296 57q43 0 79 17t59 48v242q-24 31 -60.5 48.5t-77.5 17.5q-49 0 -87.5 -24t-61 -66t-22.5 -96q0 -53 22.5 -95.5
t61 -67t87.5 -24.5zM218 584l112 122h99l-144 -122h-67z" />
    <glyph glyph-name="abreve.ss01" horiz-adv-x="582" 
d="M278 -7q-63 0 -114 33.5t-81 90t-30 126.5q0 71 30.5 127.5t82.5 90t116 33.5q45 0 84 -17.5t68 -50.5v62h73v-488h-73v65q-28 -35 -68 -53.5t-88 -18.5zM296 57q43 0 79 17t59 48v242q-24 31 -60.5 48.5t-77.5 17.5q-49 0 -87.5 -24t-61 -66t-22.5 -96q0 -53 22.5 -95.5
t61 -67t87.5 -24.5zM283 579q-61 0 -103 33.5t-56 92.5l51 12q23 -92 108 -92q41 0 68.5 24t38.5 68l50 -12q-13 -59 -55 -92.5t-102 -33.5z" />
    <glyph glyph-name="acircumflex.ss01" horiz-adv-x="582" 
d="M278 -7q-63 0 -114 33.5t-81 90t-30 126.5q0 71 30.5 127.5t82.5 90t116 33.5q45 0 84 -17.5t68 -50.5v62h73v-488h-73v65q-28 -35 -68 -53.5t-88 -18.5zM296 57q43 0 79 17t59 48v242q-24 31 -60.5 48.5t-77.5 17.5q-49 0 -87.5 -24t-61 -66t-22.5 -96q0 -53 22.5 -95.5
t61 -67t87.5 -24.5zM375 579l-94 84l-93 -84h-59l114 127h78l114 -127h-60z" />
    <glyph glyph-name="adieresis.ss01" horiz-adv-x="582" 
d="M278 -7q-63 0 -114 33.5t-81 90t-30 126.5q0 71 30.5 127.5t82.5 90t116 33.5q45 0 84 -17.5t68 -50.5v62h73v-488h-73v65q-28 -35 -68 -53.5t-88 -18.5zM296 57q43 0 79 17t59 48v242q-24 31 -60.5 48.5t-77.5 17.5q-49 0 -87.5 -24t-61 -66t-22.5 -96q0 -53 22.5 -95.5
t61 -67t87.5 -24.5zM194 609q-22 0 -37.5 15.5t-15.5 36.5t15.5 36.5t37.5 15.5t37.5 -15.5t15.5 -36.5t-15.5 -36.5t-37.5 -15.5zM370 609q-22 0 -37.5 15.5t-15.5 36.5t15.5 36.5t37.5 15.5t37.5 -15.5t15.5 -36.5t-15.5 -36.5t-37.5 -15.5z" />
    <glyph glyph-name="agrave.ss01" horiz-adv-x="582" 
d="M278 -7q-63 0 -114 33.5t-81 90t-30 126.5q0 71 30.5 127.5t82.5 90t116 33.5q45 0 84 -17.5t68 -50.5v62h73v-488h-73v65q-28 -35 -68 -53.5t-88 -18.5zM296 57q43 0 79 17t59 48v242q-24 31 -60.5 48.5t-77.5 17.5q-49 0 -87.5 -24t-61 -66t-22.5 -96q0 -53 22.5 -95.5
t61 -67t87.5 -24.5zM276 584l-144 122h103l112 -122h-71z" />
    <glyph glyph-name="amacron.ss01" horiz-adv-x="582" 
d="M278 -7q-63 0 -114 33.5t-81 90t-30 126.5q0 71 30.5 127.5t82.5 90t116 33.5q45 0 84 -17.5t68 -50.5v62h73v-488h-73v65q-28 -35 -68 -53.5t-88 -18.5zM296 57q43 0 79 17t59 48v242q-24 31 -60.5 48.5t-77.5 17.5q-49 0 -87.5 -24t-61 -66t-22.5 -96q0 -53 22.5 -95.5
t61 -67t87.5 -24.5zM146 611v52h272v-52h-272z" />
    <glyph glyph-name="aogonek.ss01" horiz-adv-x="582" 
d="M459 -231q-48 0 -77 25t-29 66q0 37 23.5 70t75.5 70h-18v65q-28 -35 -68 -53.5t-88 -18.5q-63 0 -114 33.5t-81 90t-30 126.5q0 71 30.5 127.5t82.5 90t116 33.5q45 0 84 -17.5t68 -50.5v62h73v-488q-54 -35 -79 -66t-25 -62q0 -27 18 -42t49 -15q13 0 26 3t22 9l14 -39
q-30 -19 -73 -19zM125 244q0 -53 22.5 -95.5t61 -67t87.5 -24.5q43 0 79 17t59 48v242q-24 31 -60.5 48.5t-77.5 17.5q-49 0 -87.5 -24t-61 -66t-22.5 -96z" />
    <glyph glyph-name="aring.ss01" horiz-adv-x="582" 
d="M278 -7q-63 0 -114 33.5t-81 90t-30 126.5q0 71 30.5 127.5t82.5 90t116 33.5q45 0 84 -17.5t68 -50.5v62h73v-488h-73v65q-28 -35 -68 -53.5t-88 -18.5zM296 57q43 0 79 17t59 48v242q-24 31 -60.5 48.5t-77.5 17.5q-49 0 -87.5 -24t-61 -66t-22.5 -96q0 -53 22.5 -95.5
t61 -67t87.5 -24.5zM282 572q-31 0 -56.5 15t-40.5 40.5t-15 55.5q0 31 15 56t40.5 40t56.5 15t56.5 -15t40.5 -40t15 -56q0 -30 -15 -55.5t-40.5 -40.5t-56.5 -15zM282 613q29 0 49.5 20.5t20.5 49.5t-20.5 49.5t-49.5 20.5t-49.5 -20.5t-20.5 -49.5t20.5 -49.5t49.5 -20.5
z" />
    <glyph glyph-name="atilde.ss01" horiz-adv-x="582" 
d="M278 -7q-63 0 -114 33.5t-81 90t-30 126.5q0 71 30.5 127.5t82.5 90t116 33.5q45 0 84 -17.5t68 -50.5v62h73v-488h-73v65q-28 -35 -68 -53.5t-88 -18.5zM296 57q43 0 79 17t59 48v242q-24 31 -60.5 48.5t-77.5 17.5q-49 0 -87.5 -24t-61 -66t-22.5 -96q0 -53 22.5 -95.5
t61 -67t87.5 -24.5zM162 580l-51 10q14 51 39 77.5t61 26.5q29 0 54.5 -15t48 -30t42.5 -15q17 0 26.5 14t19.5 50l51 -10q-13 -51 -37.5 -77.5t-58.5 -26.5q-28 0 -53 15t-47.5 30t-43.5 15q-19 0 -30.5 -14.5t-20.5 -49.5z" />
    <glyph glyph-name="g.ss02" horiz-adv-x="537" 
d="M261 -219q-105 0 -163 31t-58 87q0 29 26.5 50.5t78.5 37.5q-31 11 -47 31t-16 48q0 29 24.5 53t64.5 35q-46 23 -75 65.5t-29 94.5q0 51 26.5 92t72 65.5t100.5 24.5q44 0 81 -15.5t64 -41.5q8 41 34.5 64.5t66.5 23.5q8 0 14 -0.5t11 -1.5v-71q-9 3 -20 4t-25 1
q-45 0 -64 -39q17 -22 27 -49t10 -57q0 -50 -26.5 -91.5t-71.5 -66t-101 -24.5q-16 0 -31 2t-30 6q-25 -6 -41 -21.5t-16 -35.5q0 -37 59 -40l186 -10q62 -3 95 -29t33 -72t-31.5 -80t-90 -52.5t-138.5 -18.5zM266 188q36 0 65 16.5t46 45.5t17 64q0 36 -17 64.5t-46 45
t-65 16.5t-65 -16.5t-46 -45t-17 -64.5q0 -35 17 -64t46 -45.5t65 -16.5zM255 -166q89 0 141 23.5t52 63.5q0 42 -63 46l-179 9q-6 0 -12 0.5t-12 1.5q-34 -10 -53 -27.5t-19 -39.5q0 -36 38.5 -56.5t106.5 -20.5z" />
    <glyph glyph-name="gbreve.ss02" horiz-adv-x="537" 
d="M261 -219q-105 0 -163 31t-58 87q0 29 26.5 50.5t78.5 37.5q-31 11 -47 31t-16 48q0 29 24.5 53t64.5 35q-46 23 -75 65.5t-29 94.5q0 51 26.5 92t72 65.5t100.5 24.5q44 0 81 -15.5t64 -41.5q8 41 34.5 64.5t66.5 23.5q8 0 14 -0.5t11 -1.5v-71q-9 3 -20 4t-25 1
q-45 0 -64 -39q17 -22 27 -49t10 -57q0 -50 -26.5 -91.5t-71.5 -66t-101 -24.5q-16 0 -31 2t-30 6q-25 -6 -41 -21.5t-16 -35.5q0 -37 59 -40l186 -10q62 -3 95 -29t33 -72t-31.5 -80t-90 -52.5t-138.5 -18.5zM266 188q36 0 65 16.5t46 45.5t17 64q0 36 -17 64.5t-46 45
t-65 16.5t-65 -16.5t-46 -45t-17 -64.5q0 -35 17 -64t46 -45.5t65 -16.5zM255 -166q89 0 141 23.5t52 63.5q0 42 -63 46l-179 9q-6 0 -12 0.5t-12 1.5q-34 -10 -53 -27.5t-19 -39.5q0 -36 38.5 -56.5t106.5 -20.5zM267 579q-61 0 -103 33.5t-56 92.5l51 12q23 -92 108 -92
q41 0 68.5 24t38.5 68l50 -12q-13 -59 -55 -92.5t-102 -33.5z" />
    <glyph glyph-name="gcircumflex.ss02" horiz-adv-x="537" 
d="M261 -219q-105 0 -163 31t-58 87q0 29 26.5 50.5t78.5 37.5q-31 11 -47 31t-16 48q0 29 24.5 53t64.5 35q-46 23 -75 65.5t-29 94.5q0 51 26.5 92t72 65.5t100.5 24.5q44 0 81 -15.5t64 -41.5q8 41 34.5 64.5t66.5 23.5q8 0 14 -0.5t11 -1.5v-71q-9 3 -20 4t-25 1
q-45 0 -64 -39q17 -22 27 -49t10 -57q0 -50 -26.5 -91.5t-71.5 -66t-101 -24.5q-16 0 -31 2t-30 6q-25 -6 -41 -21.5t-16 -35.5q0 -37 59 -40l186 -10q62 -3 95 -29t33 -72t-31.5 -80t-90 -52.5t-138.5 -18.5zM266 188q36 0 65 16.5t46 45.5t17 64q0 36 -17 64.5t-46 45
t-65 16.5t-65 -16.5t-46 -45t-17 -64.5q0 -35 17 -64t46 -45.5t65 -16.5zM255 -166q89 0 141 23.5t52 63.5q0 42 -63 46l-179 9q-6 0 -12 0.5t-12 1.5q-34 -10 -53 -27.5t-19 -39.5q0 -36 38.5 -56.5t106.5 -20.5zM359 579l-94 84l-93 -84h-59l114 127h78l114 -127h-60z" />
    <glyph glyph-name="uni0123.ss02" horiz-adv-x="537" 
d="M365 797l-49 -187h-73l69 187h53zM261 -219q-105 0 -163 31t-58 87q0 29 26.5 50.5t78.5 37.5q-31 11 -47 31t-16 48q0 29 24.5 53t64.5 35q-46 23 -75 65.5t-29 94.5q0 51 26.5 92t72 65.5t100.5 24.5q44 0 81 -15.5t64 -41.5q8 41 34.5 64.5t66.5 23.5q8 0 14 -0.5
t11 -1.5v-71q-9 3 -20 4t-25 1q-45 0 -64 -39q17 -22 27 -49t10 -57q0 -50 -26.5 -91.5t-71.5 -66t-101 -24.5q-16 0 -31 2t-30 6q-25 -6 -41 -21.5t-16 -35.5q0 -37 59 -40l186 -10q62 -3 95 -29t33 -72t-31.5 -80t-90 -52.5t-138.5 -18.5zM266 188q36 0 65 16.5t46 45.5
t17 64q0 36 -17 64.5t-46 45t-65 16.5t-65 -16.5t-46 -45t-17 -64.5q0 -35 17 -64t46 -45.5t65 -16.5zM255 -166q89 0 141 23.5t52 63.5q0 42 -63 46l-179 9q-6 0 -12 0.5t-12 1.5q-34 -10 -53 -27.5t-19 -39.5q0 -36 38.5 -56.5t106.5 -20.5z" />
    <glyph glyph-name="gdotaccent.ss02" horiz-adv-x="537" 
d="M261 -219q-105 0 -163 31t-58 87q0 29 26.5 50.5t78.5 37.5q-31 11 -47 31t-16 48q0 29 24.5 53t64.5 35q-46 23 -75 65.5t-29 94.5q0 51 26.5 92t72 65.5t100.5 24.5q44 0 81 -15.5t64 -41.5q8 41 34.5 64.5t66.5 23.5q8 0 14 -0.5t11 -1.5v-71q-9 3 -20 4t-25 1
q-45 0 -64 -39q17 -22 27 -49t10 -57q0 -50 -26.5 -91.5t-71.5 -66t-101 -24.5q-16 0 -31 2t-30 6q-25 -6 -41 -21.5t-16 -35.5q0 -37 59 -40l186 -10q62 -3 95 -29t33 -72t-31.5 -80t-90 -52.5t-138.5 -18.5zM266 188q36 0 65 16.5t46 45.5t17 64q0 36 -17 64.5t-46 45
t-65 16.5t-65 -16.5t-46 -45t-17 -64.5q0 -35 17 -64t46 -45.5t65 -16.5zM255 -166q89 0 141 23.5t52 63.5q0 42 -63 46l-179 9q-6 0 -12 0.5t-12 1.5q-34 -10 -53 -27.5t-19 -39.5q0 -36 38.5 -56.5t106.5 -20.5zM266 609q-22 0 -37.5 15.5t-15.5 36.5t15.5 36.5t37.5 15.5
t37.5 -15.5t15.5 -36.5t-15.5 -36.5t-37.5 -15.5z" />
    <glyph glyph-name="exclamdown.cap" horiz-adv-x="222" 
d="M140 522l9 -522h-75l9 522h57zM111 735q22 0 37.5 -15t15.5 -38q0 -22 -15.5 -37.5t-37.5 -15.5t-37.5 15.5t-15.5 37.5q0 23 15.5 38t37.5 15z" />
    <glyph glyph-name="questiondown.cap" horiz-adv-x="512" 
d="M319 490q3 -41 -4 -72.5t-25 -57t-49 -48.5l-42 -31q-41 -31 -58 -57.5t-17 -60.5q0 -30 18 -54.5t49.5 -39t69.5 -14.5q47 0 88 23t73 67l56 -38q-40 -57 -97 -87.5t-123 -30.5q-58 0 -104.5 22.5t-73.5 62t-27 88.5q0 35 10.5 62t34.5 53.5t67 56.5l32 24
q35 26 48.5 56.5t10.5 75.5h63zM286 705q23 0 38 -15.5t15 -37.5t-15 -37.5t-38 -15.5q-22 0 -37 15.5t-15 37.5t15 37.5t37 15.5z" />
    <glyph glyph-name="periodcentered.cap" horiz-adv-x="250" 
d="M125 294q-22 0 -37.5 16t-15.5 38q0 23 15.5 38.5t37.5 15.5t37.5 -15.5t15.5 -38.5q0 -22 -15.5 -38t-37.5 -16z" />
    <glyph glyph-name="periodcentered.loclCAT" horiz-adv-x="250" 
d="M128 229q-22 0 -37.5 16t-15.5 38q0 23 15.5 38.5t37.5 15.5t37.5 -15.5t15.5 -38.5q0 -22 -15.5 -38t-37.5 -16z" />
    <glyph glyph-name="periodcentered.loclCAT.case" horiz-adv-x="250" 
d="M128 251q-22 0 -37.5 16t-15.5 38q0 23 15.5 38.5t37.5 15.5t37.5 -15.5t15.5 -38.5q0 -22 -15.5 -38t-37.5 -16z" />
    <glyph glyph-name="hyphen.cap" horiz-adv-x="455" 
d="M61 315v63h333v-63h-333z" />
    <glyph glyph-name="endash.cap" horiz-adv-x="550" 
d="M61 315v63h428v-63h-428z" />
    <glyph glyph-name="emdash.cap" horiz-adv-x="693" 
d="M61 315v63h570v-63h-570z" />
    <glyph glyph-name="uni2015.cap" horiz-adv-x="930" 
d="M61 315v63h808v-63h-808z" />
    <glyph glyph-name="at.cap" horiz-adv-x="771" 
d="M398 -9q-73 0 -135.5 26.5t-109 74t-72 111.5t-25.5 139q0 79 25.5 146.5t71 117.5t107.5 77.5t134 27.5q68 0 125.5 -23t100.5 -64.5t67 -97.5t24 -122q0 -61 -22 -109.5t-60 -76.5t-86 -28q-64 0 -89 41q-48 -45 -101 -45q-39 0 -70 20t-49 54t-18 77q0 49 22 89t59 64
t81 24q28 0 52.5 -10t42.5 -28l5 25h55l-37 -192q-7 -36 7 -55.5t46 -19.5q33 0 59.5 22t41.5 60.5t15 85.5q0 76 -35.5 136t-97.5 94.5t-140 34.5q-61 0 -113.5 -24.5t-92 -69t-61.5 -103t-22 -126.5q0 -89 38.5 -158.5t106 -109.5t153.5 -40q44 0 84.5 10.5t76.5 30.5
l17 -41q-40 -22 -86 -33.5t-95 -11.5zM365 233q43 0 76 35q-1 11 -0.5 22t2.5 24l20 106q-13 22 -36 34t-50 12q-29 0 -53.5 -17t-39 -45.5t-14.5 -62.5q0 -48 26.5 -78t68.5 -30z" />
    <glyph glyph-name="uni030C.ss02" horiz-adv-x="0" 
d="M123 527l5 195l76 15l-25 -210h-56z" />
    <glyph glyph-name="zero.tf" 
d="M300 -11q-75 0 -133.5 44t-91.5 125t-33 192q0 112 33 192.5t91.5 124.5t133.5 44q76 0 134 -44t91 -124.5t33 -192.5q0 -111 -33 -192t-91 -125t-134 -44zM300 54q56 0 97.5 36.5t64.5 103t23 156.5q0 53 -10 105t-32 95.5t-57.5 69.5t-85.5 26q-56 0 -97.5 -36.5
t-64.5 -103t-23 -156.5q0 -61 11.5 -115t35 -94.5t58 -63.5t80.5 -23z" />
    <glyph glyph-name="one.tf" 
d="M84 0v63h177v559l-177 -78v66l204 90h45v-637h202v-63h-451z" />
    <glyph glyph-name="two.tf" 
d="M74 0v53l280 306q33 36 51.5 63.5t26 51.5t7.5 51q0 53 -41.5 87.5t-105.5 34.5q-49 0 -91 -19t-94 -66l-42 50q55 50 111 74.5t117 24.5q63 0 112 -23.5t77 -64.5t28 -94q0 -35 -9 -64.5t-32 -63t-66 -80.5l-239 -259l361 1v-63h-451z" />
    <glyph glyph-name="three.tf" 
d="M286 -11q-72 0 -134.5 25t-110.5 74l48 47q44 -44 90.5 -63.5t105.5 -19.5q51 0 90.5 18t61.5 50t22 73q0 39 -19.5 69.5t-53.5 47.5t-78 17h-83v62h80q57 0 92.5 35t35.5 91q0 37 -20 67t-54.5 47.5t-77.5 17.5q-54 0 -96.5 -19.5t-86.5 -65.5l-48 48q47 50 106 75.5
t126 25.5q64 0 114.5 -25t79.5 -68.5t29 -98.5t-36 -98.5t-95 -60.5q71 -16 114 -62t43 -107q0 -58 -31.5 -104t-87 -72t-126.5 -26z" />
    <glyph glyph-name="four.tf" 
d="M407 0v187h-378v57l372 456h77v-450h97v-63h-97v-187h-71zM113 250h294v363z" />
    <glyph glyph-name="five.tf" 
d="M288 -11q-138 0 -238 95l45 49q46 -43 91.5 -62.5t102.5 -19.5q51 0 90 21t60.5 59t21.5 87q0 70 -47.5 113t-124.5 43q-40 0 -78 -9.5t-79 -30.5l-50 16l16 350h398v-63h-336l-11 -242q40 20 77 28.5t78 8.5q69 0 120.5 -26.5t80 -74t28.5 -110.5q0 -69 -31 -121
t-86 -81.5t-128 -29.5z" />
    <glyph glyph-name="six.tf" 
d="M321 -10q-81 0 -142.5 43t-96.5 118.5t-35 174.5q0 116 39 202.5t110 134.5t165 48q44 0 87 -12t77 -35l-36 -56q-31 18 -65 28t-69 10q-72 0 -124.5 -37.5t-81 -107.5t-30.5 -168q39 50 93 78t112 28q68 0 121 -28t83 -77.5t30 -112.5q0 -66 -31 -118.5t-84.5 -82.5
t-121.5 -30zM314 380q-55 0 -105.5 -27.5t-87.5 -75.5q8 -67 34.5 -117.5t69 -78.5t95.5 -28q48 0 85.5 21.5t59 59.5t21.5 85t-22 83.5t-60.5 57t-89.5 20.5z" />
    <glyph glyph-name="seven.tf" 
d="M123 0l348 637h-420v63h498v-56l-344 -644h-82z" />
    <glyph glyph-name="eight.tf" 
d="M300 -11q-72 0 -128 26t-88.5 71.5t-32.5 102.5q0 43 21 79.5t58.5 63t85.5 37.5q-61 17 -99.5 61t-38.5 99q0 52 29 93t79.5 65t113.5 24q64 0 114 -24t79 -65t29 -93q0 -55 -38 -99t-100 -61q73 -17 119 -66.5t46 -113.5q0 -57 -32 -102.5t-88.5 -71.5t-128.5 -26z
M300 399q43 0 77.5 17t54.5 45.5t20 64.5t-20 65t-54.5 45.5t-77.5 16.5t-77.5 -16.5t-54.5 -45.5t-20 -65t20 -64.5t54.5 -45.5t77.5 -17zM300 47q51 0 91 19t63.5 52t23.5 74t-23.5 74t-63.5 52t-91 19t-91 -19t-63.5 -52t-23.5 -74t23.5 -74t63.5 -52t91 -19z" />
    <glyph glyph-name="nine.tf" 
d="M288 711q81 0 142.5 -43t96.5 -118.5t35 -174.5q0 -116 -39 -202.5t-109.5 -134.5t-165.5 -48q-43 0 -86.5 12.5t-77.5 34.5l36 56q31 -18 65.5 -28t68.5 -10q72 0 124.5 37.5t81.5 108t30 167.5q-39 -50 -93 -78t-112 -28q-68 0 -121 28.5t-83 77.5t-30 112q0 67 31 119
t84.5 82t121.5 30zM295 321q55 0 105.5 27.5t87.5 75.5q-7 68 -34 118t-69 78t-96 28q-48 0 -85.5 -21.5t-59 -59t-21.5 -85.5q0 -47 22 -83.5t60.5 -57t89.5 -20.5z" />
    <glyph glyph-name="zero.tf.slash" 
d="M300 -11q-75 0 -133.5 44t-91.5 125t-33 192q0 112 33 192.5t91.5 124.5t133.5 44q76 0 134 -44t91 -124.5t33 -192.5q0 -111 -33 -192t-91 -125t-134 -44zM158 147l238 464q-41 35 -96 35q-56 0 -97.5 -36.5t-64.5 -103t-23 -156.5q0 -62 11.5 -113.5t31.5 -89.5z
M300 54q56 0 97.5 36.5t64.5 103t23 156.5q0 62 -11.5 113.5t-31.5 89.5l-238 -464q41 -35 96 -35z" />
    <glyph glyph-name="caronSlovak" 
d="M267 527l5 195l76 15l-25 -210h-56z" />
    </font>
</defs>
</svg>
