<?xml version="1.0" standalone="no"?>
<!DOCTYPE svg PUBLIC "-//W3C//DTD SVG 1.1//EN" "http://www.w3.org/Graphics/SVG/1.1/DTD/svg11.dtd" >
<svg xmlns="http://www.w3.org/2000/svg" xmlns:xlink="http://www.w3.org/1999/xlink" version="1.1">
<metadata>
Created by FontForge 20201107 at Fri Nov 15 16:57:23 2024
 By 
Copyright 2024 The Red Hat Project Authors (https://github.com/RedHatOfficial/RedHatFont)
</metadata>
<defs>
<font id="RedHatText-Bold" horiz-adv-x="600" >
  <font-face 
    font-family="Red Hat Text"
    font-weight="700"
    font-stretch="normal"
    units-per-em="1000"
    panose-1="2 1 5 3 4 2 1 6 3 3"
    ascent="800"
    descent="-200"
    x-height="516"
    cap-height="700"
    bbox="-100 -305 1145 1018"
    underline-thickness="100"
    underline-position="-250"
    unicode-range="U+000D-FFFD"
  />
<missing-glyph horiz-adv-x="514" 
d="M60 -100v850h394v-850h-394z" />
    <glyph glyph-name="fi" unicode="fi" horiz-adv-x="748" 
d="M139 0v391h-107v125h107v68q0 92 53 141t153 49q21 0 45.5 -2.5t40.5 -7.5v-133q-22 4 -35 5t-27 1q-34 0 -51 -13.5t-17 -42.5v-65h130v-125h-130v-391h-162zM523 0v516h162v-516h-162zM604 595q-37 0 -64 27t-27 64q0 38 27 64.5t65 26.5q37 0 63.5 -26.5t26.5 -63.5
q0 -38 -26.5 -65t-64.5 -27z" />
    <glyph glyph-name="fl" unicode="fl" horiz-adv-x="748" 
d="M139 0v391h-107v125h107v68q0 92 53 141t153 49q21 0 45.5 -2.5t40.5 -7.5v-133q-22 4 -35 5t-27 1q-34 0 -51 -13.5t-17 -42.5v-65h130v-125h-130v-391h-162zM523 0v712l162 25v-737h-162z" />
    <glyph glyph-name=".notdef" horiz-adv-x="514" 
d="M60 -100v850h394v-850h-394z" />
    <glyph glyph-name=".null" horiz-adv-x="0" 
 />
    <glyph glyph-name="nonmarkingreturn" horiz-adv-x="333" 
 />
    <glyph glyph-name="CR" unicode="&#xd;" horiz-adv-x="215" 
 />
    <glyph glyph-name="space" unicode=" " horiz-adv-x="215" 
 />
    <glyph glyph-name="exclam" unicode="!" horiz-adv-x="275" 
d="M79 227l-19 500h156l-19 -500h-118zM138 -11q-37 0 -63 27t-26 64q0 38 26 64.5t63 26.5q36 0 62 -26.5t26 -64.5q0 -37 -26 -64t-62 -27z" />
    <glyph glyph-name="quotedbl" unicode="&#x22;" horiz-adv-x="509" 
d="M90 440l-18 310h149l-18 -310h-113zM307 440l-18 310h149l-18 -310h-113z" />
    <glyph glyph-name="numbersign" unicode="#" horiz-adv-x="750" 
d="M54 0l63 184h-74v114h113l36 104h-102v114h141l63 184h138l-63 -184h126l63 184h137l-63 -184h75v-114h-114l-36 -104h102v-114h-141l-63 -184h-137l63 184h-126l-63 -184h-138zM294 298h126l36 104h-126z" />
    <glyph glyph-name="dollar" unicode="$" horiz-adv-x="594" 
d="M251 -66v86q-61 5 -120.5 23.5t-109.5 49.5l68 121q39 -24 80 -39t82 -21v131l-73 18q-73 18 -110 62t-37 113q0 91 57.5 144t162.5 60v86h78v-87q57 -6 110.5 -24.5t97.5 -47.5l-62 -120q-72 43 -146 57v-131l71 -17q77 -19 115.5 -61t38.5 -107q0 -60 -26.5 -105
t-77 -71.5t-121.5 -32.5v-87h-78zM251 430v120q-36 -3 -56.5 -19t-20.5 -41q0 -23 15 -36t53 -22zM329 153q38 4 57.5 19t19.5 39q0 23 -14.5 34.5t-55.5 23.5l-7 2v-118z" />
    <glyph glyph-name="percent" unicode="%" horiz-adv-x="814" 
d="M184 345q-70 0 -113.5 48.5t-43.5 132.5q0 83 43.5 131.5t113.5 48.5t113 -48.5t43 -131.5q0 -84 -43 -132.5t-113 -48.5zM184 427q29 0 47 25t18 74q0 47 -18 72.5t-47 25.5q-30 0 -48 -25.5t-18 -72.5q0 -49 18 -74t48 -25zM145 0l397 700h115l-398 -700h-114zM630 -5
q-70 0 -113.5 48.5t-43.5 132.5q0 83 43.5 131.5t113.5 48.5t113 -48.5t43 -131.5q0 -84 -43 -132.5t-113 -48.5zM630 77q29 0 47 25t18 74q0 47 -18 72.5t-47 25.5q-30 0 -48 -25.5t-18 -72.5q0 -49 18 -74t48 -25z" />
    <glyph glyph-name="ampersand" unicode="&#x26;" horiz-adv-x="696" 
d="M277 -11q-75 0 -132 25t-89 70.5t-32 104.5q0 65 29 107.5t99 82.5q-31 40 -43.5 75t-12.5 76q0 52 26.5 93t73 64.5t106.5 23.5q58 0 103.5 -22.5t72 -61.5t26.5 -89q0 -45 -23.5 -82t-70.5 -66l-51 -32q25 -25 53 -52.5t58 -54.5q16 30 28.5 66.5t21.5 79.5l138 -23
q-16 -66 -36.5 -119.5t-47.5 -94.5q23 -19 46 -36.5t44 -33.5l-96 -114q-22 17 -45 34.5t-46 36.5q-85 -58 -200 -58zM282 449l35 21q23 14 32.5 29t9.5 34q0 26 -17.5 43t-43.5 17q-25 0 -41.5 -17t-16.5 -43q0 -18 9 -36.5t33 -47.5zM289 115q24 0 45.5 5t40.5 16
q-39 36 -76 73.5t-70 74.5q-20 -13 -32.5 -25.5t-18 -26t-5.5 -30.5q0 -40 31 -63.5t85 -23.5z" />
    <glyph glyph-name="quotesingle" unicode="'" horiz-adv-x="292" 
d="M90 440l-18 310h149l-18 -310h-113z" />
    <glyph glyph-name="parenleft" unicode="(" horiz-adv-x="430" 
d="M311 -225q-81 49 -137 119.5t-84.5 158.5t-28.5 190t28.5 190t84.5 158.5t137 119.5l86 -99q-95 -63 -144.5 -156.5t-49.5 -212.5q0 -118 49.5 -212t144.5 -157z" />
    <glyph glyph-name="parenright" unicode=")" horiz-adv-x="430" 
d="M119 711q81 -49 137 -119.5t84.5 -158.5t28.5 -190t-28.5 -190t-84.5 -158.5t-137 -119.5l-86 99q95 63 144.5 157t49.5 212q0 119 -49.5 212.5t-144.5 156.5z" />
    <glyph glyph-name="asterisk" unicode="*" horiz-adv-x="493" 
d="M198 306l2 106l-94 -61l-53 87l103 63l-105 66l54 85l95 -62l-2 110h98l-2 -111l95 63l55 -85l-105 -66l103 -63l-55 -87l-93 61l2 -106h-98z" />
    <glyph glyph-name="plus" unicode="+" 
d="M238 123v174h-163v120h163v174h124v-174h163v-120h-163v-174h-124z" />
    <glyph glyph-name="comma" unicode="," horiz-adv-x="250" 
d="M-10 -177l75 304h159l-118 -304h-116z" />
    <glyph glyph-name="hyphen" unicode="-" horiz-adv-x="470" 
d="M51 219v135h368v-135h-368z" />
    <glyph glyph-name="period" unicode="." horiz-adv-x="250" 
d="M125 -11q-37 0 -64 28t-27 67t27 67t64 28q38 0 64.5 -28t26.5 -67t-26.5 -67t-64.5 -28z" />
    <glyph glyph-name="slash" unicode="/" horiz-adv-x="534" 
d="M-53 -209l402 909h154l-401 -909h-155z" />
    <glyph glyph-name="zero" unicode="0" horiz-adv-x="690" 
d="M345 -9q-91 0 -159 45t-106 126t-38 189t38 189t106 126t159 45t159 -45t106 -126t38 -189t-38 -189t-106 -126t-159 -45zM345 127q46 0 79.5 27.5t52 78t18.5 118.5q0 69 -18.5 119t-52 77.5t-79.5 27.5t-79.5 -27.5t-52 -77.5t-18.5 -119q0 -68 18.5 -118.5t52 -78
t79.5 -27.5z" />
    <glyph glyph-name="one" unicode="1" horiz-adv-x="385" 
d="M170 0v540l-138 -57v136l195 81h97v-700h-154z" />
    <glyph glyph-name="two" unicode="2" 
d="M49 0v110l296 293q17 16 27 31.5t15 31.5t5 32q0 34 -29.5 56.5t-73.5 22.5q-47 0 -88 -19.5t-89 -66.5l-86 105q60 57 127.5 86t140.5 29q75 0 130.5 -25.5t86.5 -71t31 -106.5q0 -33 -9.5 -63.5t-29.5 -59.5t-52 -60l-202 -195l303 1v-131h-503z" />
    <glyph glyph-name="three" unicode="3" 
d="M290 -11q-84 0 -156.5 30t-119.5 83l104 96q39 -42 75.5 -58t94.5 -16q38 0 66.5 10.5t44 30t15.5 45.5q0 23 -11.5 39t-32 25t-48.5 9h-90v127h74q43 0 67 20.5t24 57.5q0 25 -14.5 44.5t-39 30.5t-56.5 11q-51 0 -86.5 -17.5t-76.5 -62.5l-105 95q50 57 122.5 89.5
t151.5 32.5q77 0 135 -25.5t91 -71t33 -105.5q0 -57 -37 -100t-96 -60q69 -13 110 -53.5t41 -98.5q0 -60 -36 -107t-99 -74t-145 -27z" />
    <glyph glyph-name="four" unicode="4" horiz-adv-x="694" 
d="M421 0v155h-394v131l367 414h189v-410h87v-135h-87v-155h-162zM214 290h207v232z" />
    <glyph glyph-name="five" unicode="5" 
d="M279 -11q-147 0 -256 94l92 107q44 -36 85 -52t87 -16q37 0 64 12.5t42.5 35.5t15.5 53q0 44 -36.5 73t-92.5 29q-28 0 -56 -8.5t-58 -25.5l-111 33l17 376h458v-131h-322l-7 -152q36 17 68 22t62 5q71 0 124 -26.5t82.5 -74.5t29.5 -112q0 -72 -36 -126.5t-101 -85
t-151 -30.5z" />
    <glyph glyph-name="six" unicode="6" 
d="M325 -11q-92 0 -161.5 44t-108 122.5t-38.5 183.5q0 112 42.5 195.5t119 130t178.5 46.5q59 0 117.5 -20.5t95.5 -55.5l-89 -110q-29 25 -61.5 36.5t-74.5 11.5q-57 0 -96 -28t-59 -81t-20 -130q33 47 80 73t99 26q69 0 122 -27t83 -75t30 -110q0 -66 -33.5 -118.5
t-92 -83t-133.5 -30.5zM323 313q-43 0 -79.5 -16t-64.5 -45q10 -40 29.5 -69.5t47.5 -45.5t61 -16t59 12.5t41.5 34.5t15.5 50t-14 49.5t-38.5 33.5t-57.5 12z" />
    <glyph glyph-name="seven" unicode="7" 
d="M106 0l300 564h-380v136h547v-115l-282 -585h-185z" />
    <glyph glyph-name="eight" unicode="8" 
d="M300 -11q-81 0 -142.5 26.5t-96 73.5t-34.5 109q0 37 16.5 69t46.5 56t69 36q-50 20 -81 60t-31 89q0 58 33.5 104t90.5 72.5t129 26.5t129.5 -26.5t90.5 -72.5t33 -104q0 -49 -31 -89t-81 -60q59 -19 95.5 -62t36.5 -99q0 -62 -34.5 -109t-96 -73.5t-142.5 -26.5z
M300 411q29 0 52 11t36 30.5t13 44.5t-13 44.5t-36 30.5t-52 11t-52 -11t-36 -30.5t-13 -44.5t13 -44.5t36 -30.5t52 -11zM300 118q35 0 61 11.5t41 32.5t15 47q0 27 -15 47.5t-41 32t-61 11.5q-34 0 -60.5 -11.5t-41.5 -32t-15 -47.5q0 -26 15 -47t41.5 -32.5t60.5 -11.5z
" />
    <glyph glyph-name="nine" unicode="9" horiz-adv-x="651" 
d="M295 711q92 0 161.5 -44t108 -122.5t38.5 -183.5q0 -111 -42.5 -195t-119 -130.5t-178.5 -46.5q-58 0 -117 21t-96 55l89 110q29 -25 61.5 -36.5t74.5 -11.5q57 0 96 28t59 81.5t20 129.5q-33 -47 -79.5 -73t-99.5 -26q-69 0 -122 27t-83 75t-30 110q0 67 33.5 119
t92.5 82.5t133 30.5zM297 387q43 0 79.5 16t64.5 45q-10 40 -29.5 69.5t-47 45.5t-61.5 16q-33 0 -59.5 -12.5t-41.5 -34.5t-15 -50t14 -49.5t39 -33.5t57 -12z" />
    <glyph glyph-name="colon" unicode=":" horiz-adv-x="250" 
d="M125 -11q-37 0 -64 28t-27 67t27 67t64 28q38 0 64.5 -28t26.5 -67t-26.5 -67t-64.5 -28zM125 337q-37 0 -64 28t-27 67t27 67t64 28q38 0 64.5 -28t26.5 -67t-26.5 -67t-64.5 -28z" />
    <glyph glyph-name="semicolon" unicode=";" horiz-adv-x="250" 
d="M135 337q-37 0 -64 28t-27 67t27 67t64 28q38 0 64.5 -28t26.5 -67t-26.5 -67t-64.5 -28zM-17 -177l75 304h159l-118 -304h-116z" />
    <glyph glyph-name="less" unicode="&#x3c;" 
d="M417 43l-354 304l357 305l82 -93l-250 -210l250 -211z" />
    <glyph glyph-name="equal" unicode="=" 
d="M75 191v120h450v-120h-450zM75 393v120h450v-120h-450z" />
    <glyph glyph-name="greater" unicode="&#x3e;" 
d="M183 652l354 -304l-357 -305l-82 93l250 210l-250 211z" />
    <glyph glyph-name="question" unicode="?" horiz-adv-x="537" 
d="M182 229q-2 43 3 72.5t21.5 52.5t46.5 46l52 40q24 20 35.5 36.5t11.5 32.5q0 20 -11 35t-30.5 24t-45.5 9q-42 0 -75 -23t-47 -61l-125 49q27 77 96 123t157 46q66 0 118.5 -25.5t83 -68.5t30.5 -98q0 -36 -11 -65.5t-37 -57t-72 -60.5l-24 -17q-28 -20 -38.5 -39
t-9.5 -51h-129zM247 -11q-37 0 -63 27t-26 64q0 38 26 64.5t63 26.5t63 -26.5t26 -64.5q0 -37 -26 -64t-63 -27z" />
    <glyph glyph-name="at" unicode="@" horiz-adv-x="822" 
d="M428 -144q-82 0 -150.5 26t-119 73.5t-78.5 111.5t-28 140q0 81 28 150t79 120t120 79.5t151 28.5q72 0 134 -23t109 -64.5t73 -97t26 -119.5q0 -70 -25 -123.5t-69.5 -83.5t-103.5 -30q-79 0 -109 41q-44 -39 -104 -39q-41 0 -74 21t-52.5 57t-19.5 79q0 53 24 95.5
t65.5 67t92.5 24.5q25 0 47.5 -7.5t40.5 -21.5l3 16h114l-45 -212q-5 -20 4.5 -31t30.5 -11q29 0 50.5 19t33.5 52.5t12 78.5q0 70 -34 124.5t-93 86.5t-134 32q-63 0 -116.5 -23t-93.5 -63.5t-62 -95.5t-22 -119q0 -84 37 -148t103 -99.5t153 -35.5q46 0 86 8.5t76 24.5
l30 -66q-49 -22 -94.5 -32.5t-95.5 -10.5zM389 138q32 0 57 21q0 5 1 11t2 13l16 83q-10 14 -25.5 21t-37.5 7q-21 0 -39 -11t-29 -29t-11 -41q0 -32 19 -53.5t47 -21.5z" />
    <glyph glyph-name="A" unicode="A" horiz-adv-x="742" 
d="M2 0l273 700h196l269 -700h-186l-58 167h-256l-59 -167h-179zM287 300h163l-81 232z" />
    <glyph glyph-name="B" unicode="B" horiz-adv-x="729" 
d="M78 0v700h346q68 0 120.5 -24.5t82.5 -67.5t30 -99q0 -49 -28 -88.5t-74 -63.5q55 -22 88.5 -64.5t33.5 -96.5q0 -57 -30.5 -101.5t-83.5 -69.5t-123 -25h-362zM250 419h154q36 0 58 20t22 52q0 33 -21.5 52.5t-58.5 19.5h-154v-144zM250 137h168q39 0 62 21t23 56
t-23 56t-62 21h-168v-154z" />
    <glyph glyph-name="C" unicode="C" horiz-adv-x="720" 
d="M414 -11q-78 0 -145 27.5t-117.5 76.5t-78.5 115t-28 142q0 77 28 142.5t78.5 114.5t117.5 76.5t145 27.5q56 0 109.5 -16.5t99 -47t75.5 -72.5l-116 -110q-34 47 -76 70t-92 23q-41 0 -75.5 -15.5t-60.5 -44t-40.5 -66t-14.5 -82.5t14.5 -82.5t40.5 -66t60.5 -44
t75.5 -15.5q50 0 92 23.5t76 69.5l116 -110q-30 -41 -75.5 -72t-99 -47.5t-109.5 -16.5z" />
    <glyph glyph-name="D" unicode="D" horiz-adv-x="760" 
d="M250 147h113q49 0 88 27t62.5 73.5t23.5 102.5q0 57 -23.5 103t-62.5 73t-88 27h-113v-406zM78 0v700h285q74 0 137.5 -27t112 -75t75.5 -111.5t27 -136.5t-27 -136.5t-75.5 -111.5t-112 -75t-137.5 -27h-285z" />
    <glyph glyph-name="E" unicode="E" horiz-adv-x="668" 
d="M78 0v700h529v-144h-357v-133h252v-140h-252v-139h361v-144h-533z" />
    <glyph glyph-name="F" unicode="F" horiz-adv-x="663" 
d="M78 0v700h533v-144h-361v-138h252v-140h-252v-278h-172z" />
    <glyph glyph-name="G" unicode="G" horiz-adv-x="806" 
d="M413 -11q-78 0 -144.5 27.5t-117 77t-78.5 115t-28 141.5t28 141.5t77.5 115t116 77t143.5 27.5q88 0 166.5 -35.5t127.5 -100.5l-121 -105q-33 44 -77 66t-96 22q-40 0 -74.5 -15.5t-59.5 -44t-39 -66t-14 -82.5t14.5 -83.5t40.5 -66.5t61 -44t77 -16q40 0 72.5 15
t55.5 41.5t32 60.5h-175v145h360v-49q0 -79 -25.5 -145.5t-72.5 -115.5t-110.5 -76t-139.5 -27z" />
    <glyph glyph-name="H" unicode="H" horiz-adv-x="763" 
d="M68 0v700h172v-272h283v272h172v-700h-172v277h-283v-277h-172z" />
    <glyph glyph-name="I" unicode="I" horiz-adv-x="308" 
d="M68 0v700h172v-700h-172z" />
    <glyph glyph-name="J" unicode="J" horiz-adv-x="670" 
d="M314 -10q-109 0 -183.5 55t-104.5 159l159 57q18 -61 50 -90.5t80 -29.5q53 0 86 38.5t33 99.5v421h172v-426q0 -85 -36.5 -149t-102 -99.5t-153.5 -35.5z" />
    <glyph glyph-name="K" unicode="K" horiz-adv-x="738" 
d="M78 0v700h172v-304l261 304h205l-306 -329l324 -371h-225l-259 318v-318h-172z" />
    <glyph glyph-name="L" unicode="L" horiz-adv-x="648" 
d="M78 0v700h172v-553h347v-147h-519z" />
    <glyph glyph-name="M" unicode="M" horiz-adv-x="925" 
d="M78 0v700h216l169 -336l168 336h216v-700h-162v475l-224 -425l-225 429v-479h-158z" />
    <glyph glyph-name="N" unicode="N" horiz-adv-x="788" 
d="M78 0v700h162l311 -424l-3 424h162v-700h-152l-321 438l3 -438h-162z" />
    <glyph glyph-name="O" unicode="O" horiz-adv-x="814" 
d="M407 -11q-76 0 -142 27.5t-115.5 77t-77 115t-27.5 141.5t27.5 141.5t77 115t115.5 77t142 27.5t142 -27.5t115.5 -77t77 -115t27.5 -141.5t-27.5 -141.5t-77 -115t-115.5 -77t-142 -27.5zM407 142q39 0 73 15.5t59 44t39 66t14 82.5t-14 82.5t-39 66t-59 44t-73 15.5
t-73 -15.5t-59 -44t-39 -66t-14 -82.5t14 -82.5t39 -66t59 -44t73 -15.5z" />
    <glyph glyph-name="P" unicode="P" horiz-adv-x="710" 
d="M78 0v700h342q75 0 130.5 -30t86 -82t30.5 -119q0 -63 -30.5 -114t-86 -81t-130.5 -30h-170v-244h-172zM250 381h139q53 0 78.5 25.5t25.5 63.5t-25.5 63t-77.5 25h-140v-177z" />
    <glyph glyph-name="Q" unicode="Q" horiz-adv-x="814" 
d="M594 -52l-53 66q-31 -12 -64.5 -18.5t-69.5 -6.5q-76 0 -142 27.5t-115.5 77t-77 115t-27.5 141.5t27.5 141.5t77 115t115.5 77t142 27.5t142 -27.5t115.5 -77t77 -115t27.5 -141.5q0 -75 -27.5 -140.5t-76.5 -114.5l75 -93zM407 142q8 0 16 1t15 2l-71 90l146 54l47 -59
q15 25 23.5 55.5t8.5 64.5q0 45 -14 82.5t-39 66t-59 44t-73 15.5t-73 -15.5t-59 -44t-39 -66t-14 -82.5t14 -82.5t39 -66t59 -44t73 -15.5z" />
    <glyph glyph-name="R" unicode="R" horiz-adv-x="703" 
d="M78 0v700h340q72 0 128 -28.5t87.5 -79t31.5 -115.5q0 -67 -35.5 -118.5t-94.5 -77.5l147 -281h-192l-127 257h-113v-257h-172zM250 392h152q40 0 64.5 23t24.5 60q0 38 -24.5 60.5t-64.5 22.5h-152v-166z" />
    <glyph glyph-name="S" unicode="S" horiz-adv-x="655" 
d="M322 -11q-83 0 -158 27t-145 79l88 127q73 -51 124 -72t103 -21q37 0 63.5 9.5t41 26t14.5 38.5q0 31 -20.5 47.5t-71.5 25.5l-149 26q-83 14 -127.5 64t-44.5 124q0 68 33 117.5t95.5 76.5t149.5 27q81 0 157 -24.5t130 -67.5l-87 -125q-51 39 -102 58t-107 19
q-34 0 -58 -8.5t-36.5 -23.5t-12.5 -34q0 -27 18.5 -41.5t60.5 -22.5l140 -24q98 -16 149 -67t51 -131q0 -68 -36.5 -120t-103.5 -81t-159 -29z" />
    <glyph glyph-name="T" unicode="T" horiz-adv-x="664" 
d="M246 0v553h-225v147h622v-147h-225v-553h-172z" />
    <glyph glyph-name="U" unicode="U" horiz-adv-x="748" 
d="M374 -10q-94 0 -164 38.5t-108 109t-38 166.5v396h172v-396q0 -48 17 -84t48 -56t73 -20t73 20t48 56t17 84v396h172v-396q0 -96 -38 -166.5t-107.5 -109t-164.5 -38.5z" />
    <glyph glyph-name="V" unicode="V" horiz-adv-x="742" 
d="M271 0l-269 700h186l185 -521l188 521h179l-273 -700h-196z" />
    <glyph glyph-name="W" unicode="W" horiz-adv-x="983" 
d="M186 0l-156 700h177l85 -434l122 434h161l122 -434l85 434h171l-156 -700h-182l-123 451l-124 -451h-182z" />
    <glyph glyph-name="X" unicode="X" horiz-adv-x="755" 
d="M10 0l269 364l-253 336h205l151 -212l150 212h197l-252 -342l268 -358h-205l-166 236l-167 -236h-197z" />
    <glyph glyph-name="Y" unicode="Y" horiz-adv-x="739" 
d="M283 0v265l-284 435h198l177 -287l179 287h187l-285 -434v-266h-172z" />
    <glyph glyph-name="Z" unicode="Z" horiz-adv-x="623" 
d="M29 0v112l347 447l-345 -3v144h565v-112l-345 -447l348 3v-144h-570z" />
    <glyph glyph-name="bracketleft" unicode="[" horiz-adv-x="422" 
d="M68 -215v915h303v-126h-157v-663h157v-126h-303z" />
    <glyph glyph-name="backslash" unicode="\" horiz-adv-x="543" 
d="M434 -209l-403 909h163l402 -909h-162z" />
    <glyph glyph-name="bracketright" unicode="]" horiz-adv-x="422" 
d="M354 700v-915h-303v126h157v663h-157v126h303z" />
    <glyph glyph-name="asciicircum" unicode="^" 
d="M60 350l174 350h132l174 -350h-125l-115 234l-115 -234h-125z" />
    <glyph glyph-name="underscore" unicode="_" horiz-adv-x="473" 
d="M-1 -191v111h476v-111h-476z" />
    <glyph glyph-name="grave" unicode="`" 
d="M258 601l-192 146h202l138 -146h-148z" />
    <glyph glyph-name="a" unicode="a" horiz-adv-x="579" 
d="M217 -8q-52 0 -92.5 20t-63 55t-22.5 81q0 48 24 81.5t69 51t108 17.5q28 0 57 -5.5t63 -18.5v42q0 38 -25 56.5t-77 18.5q-29 0 -64.5 -8.5t-80.5 -27.5l-56 113q125 56 237 56q107 0 166.5 -51t59.5 -143v-330h-160v45q-34 -28 -68 -40.5t-75 -12.5zM188 151
q0 -25 21 -38.5t58 -13.5q26 0 49 6.5t44 19.5v66q-22 5 -44 8t-45 3q-40 0 -61.5 -13t-21.5 -38z" />
    <glyph glyph-name="b" unicode="b" horiz-adv-x="644" 
d="M63 0v712l162 25v-287q26 32 65.5 50.5t85.5 18.5q64 0 115.5 -35.5t82 -94.5t30.5 -132q0 -72 -32 -131t-86.5 -94t-121.5 -35q-42 0 -78.5 17.5t-62.5 48.5v-63h-160zM322 130q36 0 63.5 16.5t43.5 45.5t16 66t-16 65.5t-44 45t-63 16.5q-30 0 -53.5 -10.5t-43.5 -31.5
v-172q19 -19 44 -30t53 -11z" />
    <glyph glyph-name="c" unicode="c" horiz-adv-x="539" 
d="M307 -10q-75 0 -135.5 35.5t-96 96t-35.5 135.5q0 76 35.5 136t96 95.5t135.5 35.5q64 0 120 -24.5t95 -70.5l-99 -99q-25 29 -51 42.5t-59 13.5q-32 0 -57.5 -17t-40 -46t-14.5 -66t14.5 -66t40 -46t57.5 -17q33 0 59 13.5t51 42.5l99 -99q-39 -46 -95 -70.5t-120 -24.5
z" />
    <glyph glyph-name="d" unicode="d" horiz-adv-x="643" 
d="M268 -3q-63 0 -115 35.5t-82.5 95t-30.5 131.5q0 73 32 131.5t86.5 93.5t121.5 35q41 0 76.5 -16t61.5 -46v255l162 25v-737h-160v67q-25 -32 -65.5 -51t-86.5 -19zM322 131q29 0 53 10.5t43 30.5v174q-19 20 -43.5 30t-52.5 10q-35 0 -63 -16.5t-44 -45.5t-16 -66
q0 -36 16 -65t44 -45.5t63 -16.5z" />
    <glyph glyph-name="e" unicode="e" horiz-adv-x="592" 
d="M312 -10q-76 0 -137.5 35.5t-98 96t-36.5 135.5q0 76 34 136t93 95.5t133 35.5q75 0 132 -35t89.5 -96.5t32.5 -141.5v-35h-355q8 -29 25 -51t42 -34t54 -12q32 0 58.5 11t43.5 32l107 -89q-50 -44 -101 -63.5t-116 -19.5zM199 308h205q-7 28 -22 48t-36 31t-47 11
q-25 0 -45.5 -10.5t-34 -30.5t-20.5 -49z" />
    <glyph glyph-name="f" unicode="f" horiz-adv-x="460" 
d="M139 0v391h-107v125h107v68q0 92 53 141t153 49q21 0 45.5 -2.5t40.5 -7.5v-133q-22 4 -35 5t-27 1q-34 0 -51 -13.5t-17 -42.5v-65h130v-125h-130v-391h-162z" />
    <glyph glyph-name="g" unicode="g" horiz-adv-x="642" 
d="M307 -219q-58 0 -112.5 12t-101.5 34l50 117q43 -20 82 -30t76 -10q58 0 87.5 24t29.5 71v70q-25 -31 -65 -49.5t-85 -18.5q-63 0 -115 35t-82.5 94t-30.5 131t32 130.5t86.5 93t121.5 34.5q41 0 77.5 -16.5t62.5 -48.5v62h159v-519q0 -104 -70 -160t-202 -56zM322 133
q29 0 53 10.5t43 30.5v172q-19 20 -43.5 30t-52.5 10q-35 0 -63 -16.5t-44 -44.5t-16 -65q0 -36 16 -65t44 -45.5t63 -16.5z" />
    <glyph glyph-name="h" unicode="h" horiz-adv-x="618" 
d="M63 0v712l162 25v-305q30 45 71.5 68.5t91.5 23.5t88.5 -22.5t60.5 -62t22 -91.5v-348h-162v301q0 44 -23.5 70t-62.5 26q-26 0 -47.5 -10.5t-38.5 -32.5v-354h-162z" />
    <glyph glyph-name="i" unicode="i" horiz-adv-x="288" 
d="M63 0v516h162v-516h-162zM144 595q-37 0 -64 27t-27 64q0 38 27 64.5t65 26.5q37 0 63.5 -26.5t26.5 -63.5q0 -38 -26.5 -65t-64.5 -27z" />
    <glyph glyph-name="j" unicode="j" horiz-adv-x="288" 
d="M144 595q-37 0 -64 27t-27 64q0 38 27 64.5t64 26.5q38 0 64.5 -26.5t26.5 -64.5q0 -37 -26.5 -64t-64.5 -27zM46 -219q-21 0 -44 3t-36 7v123q11 -2 21.5 -3t23.5 -1q27 0 39.5 11t12.5 33v562h162v-569q0 -79 -46.5 -122.5t-132.5 -43.5z" />
    <glyph glyph-name="k" unicode="k" horiz-adv-x="604" 
d="M63 0v715l162 25v-429l180 205h179l-210 -231l225 -285h-202l-172 228v-228h-162z" />
    <glyph glyph-name="l" unicode="l" horiz-adv-x="288" 
d="M63 0v712l162 25v-737h-162z" />
    <glyph glyph-name="m" unicode="m" horiz-adv-x="913" 
d="M63 0v516h162v-82q29 44 67.5 67t85.5 23q50 0 88 -26t57 -70q30 47 73 71.5t96 24.5q48 0 84.5 -23t57 -64t20.5 -94v-343h-162v311q0 39 -21 62.5t-56 23.5q-22 0 -40.5 -9.5t-34.5 -29.5v-7.5v-7.5v-343h-162v311q0 39 -21 62.5t-56 23.5q-45 0 -76 -40v-357h-162z
" />
    <glyph glyph-name="n" unicode="n" horiz-adv-x="618" 
d="M63 0v516h162v-84q30 45 71.5 68.5t91.5 23.5t88.5 -22.5t60.5 -62t22 -91.5v-348h-162v301q0 44 -23.5 70t-62.5 26q-26 0 -47.5 -10.5t-38.5 -32.5v-354h-162z" />
    <glyph glyph-name="o" unicode="o" horiz-adv-x="618" 
d="M309 -10q-76 0 -137 35t-96.5 95.5t-35.5 136.5t35.5 136.5t96.5 95.5t137 35q77 0 137.5 -35t96 -95.5t35.5 -136.5t-35.5 -136.5t-96 -95.5t-137.5 -35zM309 125q33 0 58 17t39 47t14 68q0 39 -14 68.5t-39 46.5t-58 17q-32 0 -57.5 -17t-39.5 -46.5t-14 -68.5
q0 -38 14 -68t39.5 -47t57.5 -17z" />
    <glyph glyph-name="p" unicode="p" horiz-adv-x="644" 
d="M63 -209v725h160v-72q26 35 66.5 55t86.5 20q64 0 115.5 -35.5t82 -94.5t30.5 -132q0 -72 -32 -131t-86.5 -94t-121.5 -35q-42 0 -77.5 15.5t-61.5 44.5v-266h-162zM322 130q36 0 63.5 16.5t43.5 45.5t16 66t-16 65.5t-44 45t-63 16.5q-30 0 -53.5 -10.5t-43.5 -31.5
v-172q19 -19 44 -30t53 -11z" />
    <glyph glyph-name="q" unicode="q" horiz-adv-x="643" 
d="M418 -211v276q-25 -31 -65 -49.5t-85 -18.5q-63 0 -115 35.5t-82.5 95t-30.5 131.5q0 73 32 131.5t86.5 93.5t121.5 35q41 0 77.5 -16.5t62.5 -48.5v62h160v-727h-162zM322 131q29 0 53 10.5t43 30.5v174q-19 20 -43.5 30t-52.5 10q-35 0 -63 -16.5t-44 -45.5t-16 -66
q0 -36 16 -65t44 -45.5t63 -16.5z" />
    <glyph glyph-name="r" unicode="r" horiz-adv-x="442" 
d="M63 0v516h162v-117q25 65 59.5 96t80.5 31q17 -1 28 -3t26 -10v-139q-15 8 -35 12t-41 4q-36 0 -67 -17.5t-51 -46.5v-326h-162z" />
    <glyph glyph-name="s" unicode="s" horiz-adv-x="511" 
d="M258 -10q-70 0 -131 16t-106 47l71 108q56 -29 92.5 -40.5t73.5 -11.5q35 0 54.5 11.5t19.5 30.5q0 15 -11.5 24t-36.5 13l-99 18q-75 14 -113.5 52t-38.5 98q0 53 26 90.5t74.5 57.5t115.5 20q54 0 107 -15t103 -44l-74 -103q-39 23 -75.5 33.5t-72.5 10.5
q-29 0 -45.5 -9t-16.5 -26q0 -16 11.5 -24t41.5 -13l97 -18q77 -14 116 -52t39 -97q0 -50 -29 -90.5t-79 -63.5t-114 -23z" />
    <glyph glyph-name="t" unicode="t" horiz-adv-x="458" 
d="M316 -10q-91 0 -138 42t-47 124v235h-100v125h100v143l162 33v-176h138v-125h-138v-203q0 -34 15.5 -48t52.5 -14q14 0 28 2t38 9v-131q-22 -7 -54 -11.5t-57 -4.5z" />
    <glyph glyph-name="u" unicode="u" horiz-adv-x="618" 
d="M230 -8q-50 0 -88.5 22.5t-60.5 62t-22 91.5v348h162v-301q0 -43 23.5 -69.5t62.5 -26.5q26 0 47.5 10.5t38.5 32.5v354h162v-516h-162v84q-30 -45 -71.5 -68.5t-91.5 -23.5z" />
    <glyph glyph-name="v" unicode="v" horiz-adv-x="592" 
d="M216 0l-209 516h176l117 -324l118 324h167l-211 -516h-158z" />
    <glyph glyph-name="w" unicode="w" horiz-adv-x="783" 
d="M154 0l-138 516h153l72 -308l87 308h133l86 -307l71 307h149l-137 -516h-154l-84 304l-82 -304h-156z" />
    <glyph glyph-name="x" unicode="x" horiz-adv-x="591" 
d="M10 0l193 263l-187 253h187l96 -139l96 139h180l-190 -256l196 -260h-188l-102 147l-102 -147h-179z" />
    <glyph glyph-name="y" unicode="y" horiz-adv-x="584" 
d="M119 -219q-32 0 -67 8v136q9 -1 21.5 -2.5t26.5 -1.5q33 0 52.5 13.5t31.5 38.5l8 17l-190 526h179l103 -333l118 333h175l-232 -574q-24 -59 -53.5 -94.5t-71 -51t-101.5 -15.5z" />
    <glyph glyph-name="z" unicode="z" horiz-adv-x="510" 
d="M36 0v113l231 269l-229 -2v136h428v-113l-232 -270l240 2v-135h-438z" />
    <glyph glyph-name="braceleft" unicode="{" horiz-adv-x="456" 
d="M301 -219q-67 0 -111 27.5t-59 75.5t5 109l29 88q16 47 -2 76.5t-62 29.5h-76v118h76q44 0 62 29.5t2 76.5l-29 88q-20 61 -5 109t59 75.5t111 27.5q27 0 52 -4.5t50 -13.5l-21 -115q-14 5 -29 8t-31 3q-25 0 -40 -11.5t-18.5 -32t5.5 -46.5l32 -92q14 -38 5 -71.5
t-36 -57t-70 -32.5q43 -8 70 -31.5t36 -57t-5 -72.5l-32 -92q-9 -26 -5.5 -46.5t18.5 -32t40 -11.5q16 0 31 3t29 8l21 -115q-25 -9 -50 -13.5t-52 -4.5z" />
    <glyph glyph-name="bar" unicode="|" horiz-adv-x="356" 
d="M106 -209v909h144v-909h-144z" />
    <glyph glyph-name="braceright" unicode="}" horiz-adv-x="456" 
d="M155 711q68 0 111.5 -27.5t58.5 -75.5t-5 -109l-29 -88q-16 -47 2.5 -76.5t61.5 -29.5h76v-118h-76q-43 0 -61.5 -29.5t-2.5 -76.5l29 -88q20 -61 5 -109t-58.5 -75.5t-111.5 -27.5q-27 0 -51.5 4.5t-50.5 13.5l21 115q14 -5 29 -8t31 -3q25 0 40 11.5t18.5 32t-5.5 46.5
l-32 92q-13 39 -4.5 72.5t36 57t69.5 31.5q-42 9 -69.5 32.5t-36 57t4.5 71.5l32 92q9 26 5.5 46.5t-18.5 32t-40 11.5q-16 0 -31 -3t-29 -8l-21 115q26 9 50.5 13.5t51.5 4.5z" />
    <glyph glyph-name="asciitilde" unicode="~" 
d="M133 279l-106 12q10 87 47.5 133.5t98.5 46.5q23 0 46.5 -6t45.5 -17l88 -43q20 -10 33 -14t23 -4q49 0 58 74l106 -12q-10 -87 -48 -133.5t-99 -46.5q-22 0 -46.5 6t-45.5 17l-88 43q-21 10 -33 14t-23 4q-50 0 -57 -74z" />
    <glyph glyph-name="uni00A0" unicode="&#xa0;" horiz-adv-x="215" 
 />
    <glyph glyph-name="exclamdown" unicode="&#xa1;" horiz-adv-x="275" 
d="M196 265l19 -500h-156l19 500h118zM137 503q37 0 63 -26.5t26 -64.5q0 -37 -26 -64t-63 -27q-36 0 -62 27t-26 64q0 38 26 64.5t62 26.5z" />
    <glyph glyph-name="cent" unicode="&#xa2;" horiz-adv-x="540" 
d="M278 -110v101q-68 7 -122 43.5t-85 94.5t-31 128q0 71 31 128.5t85 94t122 43.5v102h68v-103q53 -7 98 -30.5t78 -62.5l-99 -99q-18 22 -36.5 34.5t-40.5 17.5v-250q22 5 40.5 17.5t36.5 34.5l99 -99q-33 -39 -78 -62.5t-98 -30.5v-102h-68zM201 257q0 -30 9.5 -55
t27 -42.5t40.5 -25.5v246q-23 -8 -40.5 -25.5t-27 -42.5t-9.5 -55z" />
    <glyph glyph-name="sterling" unicode="&#xa3;" horiz-adv-x="659" 
d="M474 -31q-19 0 -39.5 3t-42.5 10l-145 43q-10 3 -19.5 4.5t-17.5 1.5q-52 0 -84 -66l-123 76q28 52 64 81t81 37q12 14 12 33q0 3 -1 8t-4 22t-11 53h-94v102h73q-5 24 -8 41t-4 30t-1 25q0 70 30 123.5t85 84t129 30.5q103 0 169.5 -46.5t95.5 -138.5l-138 -44
q-18 49 -46.5 73t-72.5 24q-49 0 -75.5 -27.5t-26.5 -76.5q0 -7 1.5 -17t5 -28.5t9.5 -52.5h170v-102h-148q2 -13 3.5 -22t2 -16t0.5 -13q0 -48 -28 -80l134 -39q11 -3 20.5 -4.5t18.5 -1.5q51 0 82 60l118 -70q-65 -120 -175 -120z" />
    <glyph glyph-name="currency" unicode="&#xa4;" horiz-adv-x="688" 
d="M97 37l-77 77l95 96q-22 32 -35 71.5t-13 82.5q0 44 13 83t35 71l-96 98l77 77l99 -100q32 20 70 30.5t79 10.5q42 0 80 -11t70 -31l99 99l75 -75l-96 -97q23 -32 36 -71.5t13 -83.5q0 -43 -13 -83t-36 -72l97 -97l-75 -75l-100 99q-32 -20 -70 -31t-80 -11q-41 0 -79 11
t-70 30zM344 229q36 0 65.5 18t46.5 48.5t17 68.5t-17 68.5t-46.5 48.5t-65.5 18t-65 -18t-46.5 -48.5t-17.5 -68.5t17.5 -68.5t46.5 -48.5t65 -18z" />
    <glyph glyph-name="yen" unicode="&#xa5;" horiz-adv-x="749" 
d="M283 0v130h-159v81h159v53h-159v81h107l-232 355h198l177 -287l179 287h187l-233 -355h107v-81h-159v-53h159v-81h-159v-130h-172z" />
    <glyph glyph-name="brokenbar" unicode="&#xa6;" horiz-adv-x="362" 
d="M106 288v412h150v-412h-150zM106 -209v412h150v-412h-150z" />
    <glyph glyph-name="section" unicode="&#xa7;" horiz-adv-x="585" 
d="M280 -55q-111 0 -200 58l59 94q42 -26 77 -38.5t66 -11.5q28 0 44 12.5t16 33.5q0 16 -11 27t-40 21l-98 35q-83 29 -116.5 63t-33.5 92q0 46 23.5 80.5t65.5 53.5q-27 31 -27 82q0 74 55.5 118.5t146.5 44.5q51 0 102 -15t97 -44l-60 -94q-40 26 -75 38t-67 12
q-28 0 -44 -12t-16 -34q0 -16 11.5 -27t39.5 -21l97 -35q84 -29 117 -63t33 -92q0 -46 -23 -81t-64 -55q25 -32 25 -81q0 -73 -54.5 -117t-145.5 -44zM361 247q25 5 39.5 19.5t14.5 36.5q0 20 -13.5 34.5t-43.5 24.5l-114 38q-5 2 -9.5 4t-9.5 3q-25 -5 -40 -19.5t-15 -37.5
q0 -20 13 -33.5t44 -24.5l114 -38q5 -1 10 -3z" />
    <glyph glyph-name="dieresis" unicode="&#xa8;" 
d="M184 602q-34 0 -57.5 23t-23.5 59t23.5 59t57.5 23q35 0 58 -23t23 -59t-23 -59t-58 -23zM416 602q-34 0 -57.5 23t-23.5 59t23.5 59t57.5 23q35 0 58 -23t23 -59t-23 -59t-58 -23z" />
    <glyph glyph-name="copyright" unicode="&#xa9;" horiz-adv-x="813" 
d="M412 159q-56 0 -101 25.5t-71.5 69t-26.5 97.5q0 55 26.5 98.5t71.5 69t101 25.5q47 0 89.5 -18.5t70.5 -52.5l-79 -81q-19 23 -36.5 32t-40.5 9q-21 0 -37.5 -10.5t-26.5 -29t-10 -42.5q0 -23 10 -41t27.5 -28.5t38.5 -10.5q22 0 39.5 10t33.5 29l78 -80
q-30 -34 -71 -52.5t-86 -18.5zM406 -11q-75 0 -140 27.5t-114 77t-76.5 115t-27.5 141.5t27.5 141.5t76.5 115t114 77t140 27.5t140.5 -27.5t114 -77t76 -115t27.5 -141.5t-27.5 -141.5t-76 -115t-114 -77t-140.5 -27.5zM406 64q58 0 108.5 22t89 61.5t60 91.5t21.5 111
t-21.5 111t-60 91.5t-89 61.5t-108.5 22t-108.5 -22t-88.5 -61.5t-59.5 -91.5t-21.5 -111t21.5 -111t59.5 -91.5t88.5 -61.5t108.5 -22z" />
    <glyph glyph-name="ordfeminine" unicode="&#xaa;" horiz-adv-x="450" 
d="M172 298q-64 0 -104.5 34.5t-40.5 89.5q0 57 43 88t122 31q43 0 88 -12v19q0 57 -74 57q-22 0 -50.5 -7t-69.5 -24l-45 93q51 23 97.5 33.5t90.5 10.5q84 0 130 -40t46 -112v-254h-125v30q-50 -37 -108 -37zM207 387q22 0 40 4.5t33 11.5v50q-16 4 -33.5 5.5t-35.5 1.5
q-31 0 -47 -9.5t-16 -26.5t15.5 -27t43.5 -10z" />
    <glyph glyph-name="guillemotleft" unicode="&#xab;" horiz-adv-x="746" 
d="M262 0l-234 259l234 257h156l-227 -256l230 -260h-159zM552 0l-234 259l234 257h156l-227 -256l230 -260h-159z" />
    <glyph glyph-name="logicalnot" unicode="&#xac;" horiz-adv-x="598" 
d="M418 0v234h-362v120h486v-354h-124z" />
    <glyph glyph-name="registered" unicode="&#xae;" horiz-adv-x="498" 
d="M249 304q-55 0 -100.5 28t-72.5 75.5t-27 105.5t27 105.5t72.5 75.5t100.5 28q56 0 101 -28t72 -75.5t27 -105.5t-27 -105.5t-72 -75.5t-101 -28zM248 353q44 0 78 20.5t53 57t19 82.5q0 47 -19 83t-53 56.5t-78 20.5q-43 0 -76.5 -20.5t-52.5 -56.5t-19 -83
q0 -46 19 -82.5t52.5 -57t76.5 -20.5zM178 420v188h85q28 0 44.5 -16.5t16.5 -43.5q0 -35 -30 -52l40 -76h-55l-32 65h-19v-65h-50zM252 568h-24v-46h23q23 0 23 23t-22 23z" />
    <glyph glyph-name="macron" unicode="&#xaf;" 
d="M136 626v100h329v-100h-329z" />
    <glyph glyph-name="degree" unicode="&#xb0;" horiz-adv-x="402" 
d="M201 411q-44 0 -79.5 20.5t-55.5 55t-20 74.5q0 41 20 75t55.5 54.5t79.5 20.5q45 0 80 -20.5t55 -54.5t20 -75q0 -40 -20 -74.5t-55 -55t-80 -20.5zM201 492q30 0 51 20.5t21 48.5q0 29 -21 49t-51 20t-51 -20t-21 -49q0 -28 21 -48.5t51 -20.5z" />
    <glyph glyph-name="plusminus" unicode="&#xb1;" 
d="M75 -1v120h450v-120h-450zM239 209v152h-164v119h164v149h122v-149h164v-119h-164v-152h-122z" />
    <glyph glyph-name="uni00B2" unicode="&#xb2;" horiz-adv-x="313" 
d="M33 350v68l147 139q9 8 14 17t5 17q0 14 -12.5 23.5t-30.5 9.5q-22 0 -43 -10t-44 -33l-52 62q32 31 68 46.5t74 15.5q59 0 95 -29.5t36 -76.5q0 -22 -11.5 -43.5t-34.5 -43.5l-88 -83h138v-79h-261z" />
    <glyph glyph-name="uni00B3" unicode="&#xb3;" horiz-adv-x="335" 
d="M164 345q-87 0 -142 52l56 64q22 -19 41 -27t44 -8q24 0 38.5 8.5t14.5 22.5q0 13 -10 20t-29 7h-42v74h31q21 0 32 8t11 23t-12.5 24.5t-33.5 9.5t-38.5 -8t-40.5 -28l-59 61q26 26 64.5 42t77.5 16q61 0 99 -28.5t38 -74.5q0 -27 -17 -47.5t-46 -29.5q32 -8 51 -28
t19 -48q0 -46 -41 -75.5t-106 -29.5z" />
    <glyph glyph-name="acute" unicode="&#xb4;" 
d="M198 601l138 146h193l-192 -146h-139z" />
    <glyph glyph-name="uni00B5" unicode="&#xb5;" horiz-adv-x="622" 
d="M63 -209v725h162v-301q0 -43 23.5 -69.5t62.5 -26.5q26 0 47.5 10.5t38.5 31.5v355h162v-516h-162v79q-27 -42 -63 -64.5t-80 -22.5q-15 0 -29 3v-204h-162z" />
    <glyph glyph-name="paragraph" unicode="&#xb6;" horiz-adv-x="711" 
d="M310 0v238h-27q-72 0 -128 29t-87.5 80t-31.5 117q0 72 30.5 125t86.5 82t130 29h358v-700h-124v238h-83v-238h-124zM434 365h83v205h-83v-205zM276 365h34v205h-34q-47 0 -76 -28t-29 -74t29 -74.5t76 -28.5z" />
    <glyph glyph-name="periodcentered" unicode="&#xb7;" horiz-adv-x="250" 
d="M125 194q-37 0 -64 28t-27 67t27 67t64 28q38 0 64.5 -28t26.5 -67t-26.5 -67t-64.5 -28z" />
    <glyph glyph-name="cedilla" unicode="&#xb8;" 
d="M319 -254q-44 0 -77.5 10.5t-57.5 31.5l49 57q36 -28 77 -28q26 0 40 9.5t14 27.5q0 17 -15 26t-41 9h-45l27 111h73l-14 -58q47 -4 74.5 -26.5t27.5 -59.5q0 -46 -38 -78t-94 -32z" />
    <glyph glyph-name="uni00B9" unicode="&#xb9;" horiz-adv-x="207" 
d="M95 350v253l-73 -29v81l109 45h59v-350h-95z" />
    <glyph glyph-name="ordmasculine" unicode="&#xba;" horiz-adv-x="490" 
d="M245 295q-61 0 -110 28t-78 75t-29 105t29 105t78 75t110 28t110 -28t78 -75t29 -105t-29 -105t-78 -75t-110 -28zM245 405q26 0 47 13t33.5 35.5t12.5 49.5q0 28 -12.5 50t-33.5 35t-47 13t-47 -13t-33.5 -35t-12.5 -50q0 -27 12.5 -49.5t33.5 -35.5t47 -13z" />
    <glyph glyph-name="guillemotright" unicode="&#xbb;" horiz-adv-x="746" 
d="M484 516l234 -259l-234 -257h-156l227 256l-230 260h159zM194 516l234 -259l-234 -257h-156l227 256l-230 260h159z" />
    <glyph glyph-name="onequarter" unicode="&#xbc;" horiz-adv-x="690" 
d="M537 0v73h-186v77l170 200h110v-203h42v-74h-42v-73h-94zM445 147h92v109zM95 350v253l-73 -29v81l109 45h59v-350h-95zM61 0l397 700h115l-398 -700h-114z" />
    <glyph glyph-name="onehalf" unicode="&#xbd;" horiz-adv-x="715" 
d="M95 350v253l-73 -29v81l109 45h59v-350h-95zM61 0l397 700h115l-398 -700h-114zM435 0v68l147 139q9 8 14 17t5 17q0 14 -12.5 23.5t-30.5 9.5q-22 0 -43 -10t-44 -33l-52 62q32 31 68 46.5t74 15.5q59 0 95 -29.5t36 -76.5q0 -22 -11.5 -43.5t-34.5 -43.5l-88 -83h138
v-79h-261z" />
    <glyph glyph-name="threequarters" unicode="&#xbe;" horiz-adv-x="783" 
d="M630 0v73h-186v77l170 200h110v-203h42v-74h-42v-73h-94zM538 147h92v109zM164 345q-87 0 -142 52l56 64q22 -19 41 -27t44 -8q24 0 38.5 8.5t14.5 22.5q0 13 -10 20t-29 7h-42v74h31q21 0 32 8t11 23t-12.5 24.5t-33.5 9.5t-38.5 -8t-40.5 -28l-59 61q26 26 64.5 42
t77.5 16q61 0 99 -28.5t38 -74.5q0 -27 -17 -47.5t-46 -29.5q32 -8 51 -28t19 -48q0 -46 -41 -75.5t-106 -29.5zM154 0l397 700h115l-398 -700h-114z" />
    <glyph glyph-name="questiondown" unicode="&#xbf;" horiz-adv-x="537" 
d="M355 263q3 -42 -2.5 -72t-22 -53t-46.5 -46l-52 -40q-24 -19 -35.5 -36t-11.5 -33q0 -19 11 -34.5t31 -24.5t45 -9q42 0 75.5 23t46.5 61l125 -49q-27 -77 -95.5 -123t-157.5 -46q-66 0 -118.5 25.5t-83 69t-30.5 97.5q0 37 11 66t37.5 57t71.5 60l24 17q29 20 39 39.5
t9 50.5h129zM290 503q37 0 63 -26.5t26 -64.5q0 -37 -26 -64t-63 -27t-63 27t-26 64q0 38 26 64.5t63 26.5z" />
    <glyph glyph-name="Agrave" unicode="&#xc0;" horiz-adv-x="742" 
d="M2 0l273 700h196l269 -700h-186l-58 167h-256l-59 -167h-179zM287 300h163l-81 232zM320 785l-192 146h202l138 -146h-148z" />
    <glyph glyph-name="Aacute" unicode="&#xc1;" horiz-adv-x="742" 
d="M2 0l273 700h196l269 -700h-186l-58 167h-256l-59 -167h-179zM287 300h163l-81 232zM280 785l138 146h193l-192 -146h-139z" />
    <glyph glyph-name="Acircumflex" unicode="&#xc2;" horiz-adv-x="742" 
d="M2 0l273 700h196l269 -700h-186l-58 167h-256l-59 -167h-179zM287 300h163l-81 232zM452 783l-82 83l-81 -83h-123l128 151h156l128 -151h-126z" />
    <glyph glyph-name="Atilde" unicode="&#xc3;" horiz-adv-x="742" 
d="M2 0l273 700h196l269 -700h-186l-58 167h-256l-59 -167h-179zM287 300h163l-81 232zM254 774l-90 21q17 71 49 106.5t80 35.5q30 0 58 -15t52.5 -30t42.5 -15q15 0 24.5 14.5t19.5 52.5l90 -21q-17 -70 -47.5 -106t-76.5 -36q-29 0 -57.5 15t-53 30t-42.5 15
q-16 0 -27 -14.5t-22 -52.5z" />
    <glyph glyph-name="Adieresis" unicode="&#xc4;" horiz-adv-x="742" 
d="M2 0l273 700h196l269 -700h-186l-58 167h-256l-59 -167h-179zM287 300h163l-81 232zM256 786q-34 0 -57.5 23t-23.5 59t23.5 59t57.5 23q35 0 58 -23t23 -59t-23 -59t-58 -23zM488 786q-34 0 -57.5 23t-23.5 59t23.5 59t57.5 23q35 0 58 -23t23 -59t-23 -59t-58 -23z" />
    <glyph glyph-name="Aring" unicode="&#xc5;" horiz-adv-x="742" 
d="M2 0l273 700h196l269 -700h-186l-58 167h-256l-59 -167h-179zM287 300h163l-81 232zM372 770q-35 0 -64 17t-46 45t-17 62t17 62t46 45t64 17t64 -17t46 -45t17 -62t-17 -62t-46 -45t-64 -17zM372 834q25 0 42.5 17.5t17.5 42.5t-17.5 42.5t-42.5 17.5t-42.5 -17.5
t-17.5 -42.5t17.5 -42.5t42.5 -17.5z" />
    <glyph glyph-name="AE" unicode="&#xc6;" horiz-adv-x="986" 
d="M2 0l273 700h654v-149h-393l45 -126h231v-144h-179l47 -132h249v-149h-375l-58 167h-256l-59 -167h-179zM287 300h163l-81 232z" />
    <glyph glyph-name="Ccedilla" unicode="&#xc7;" horiz-adv-x="720" 
d="M398 -254q-44 0 -77.5 10.5t-57.5 31.5l49 57q36 -28 77 -28q26 0 40 9.5t14 27.5q0 17 -15 26t-41 9h-45l25 103q-69 8 -128 38t-102.5 78t-67.5 110t-24 132q0 77 28 142.5t78.5 114.5t117.5 76.5t145 27.5q56 0 109.5 -16.5t99 -47t75.5 -72.5l-116 -110
q-34 47 -76 70t-92 23q-41 0 -75.5 -15.5t-60.5 -44t-40.5 -66t-14.5 -82.5t14.5 -82.5t40.5 -66t60.5 -44t75.5 -15.5q50 0 92 23.5t76 69.5l116 -110q-42 -58 -111.5 -94t-146.5 -41l-12 -48q47 -4 74.5 -26.5t27.5 -59.5q0 -46 -38 -78t-94 -32z" />
    <glyph glyph-name="Egrave" unicode="&#xc8;" horiz-adv-x="668" 
d="M78 0v700h529v-144h-357v-133h252v-140h-252v-139h361v-144h-533zM302 785l-192 146h202l138 -146h-148z" />
    <glyph glyph-name="Eacute" unicode="&#xc9;" horiz-adv-x="668" 
d="M78 0v700h529v-144h-357v-133h252v-140h-252v-139h361v-144h-533zM262 785l138 146h193l-192 -146h-139z" />
    <glyph glyph-name="Ecircumflex" unicode="&#xca;" horiz-adv-x="668" 
d="M78 0v700h529v-144h-357v-133h252v-140h-252v-139h361v-144h-533zM434 783l-82 83l-81 -83h-123l128 151h156l128 -151h-126z" />
    <glyph glyph-name="Edieresis" unicode="&#xcb;" horiz-adv-x="668" 
d="M78 0v700h529v-144h-357v-133h252v-140h-252v-139h361v-144h-533zM238 786q-34 0 -57.5 23t-23.5 59t23.5 59t57.5 23q35 0 58 -23t23 -59t-23 -59t-58 -23zM470 786q-34 0 -57.5 23t-23.5 59t23.5 59t57.5 23q35 0 58 -23t23 -59t-23 -59t-58 -23z" />
    <glyph glyph-name="Igrave" unicode="&#xcc;" horiz-adv-x="308" 
d="M68 0v700h172v-700h-172zM102 785l-192 146h202l138 -146h-148z" />
    <glyph glyph-name="Iacute" unicode="&#xcd;" horiz-adv-x="308" 
d="M68 0v700h172v-700h-172zM62 785l138 146h193l-192 -146h-139z" />
    <glyph glyph-name="Icircumflex" unicode="&#xce;" horiz-adv-x="308" 
d="M68 0v700h172v-700h-172zM234 783l-82 83l-81 -83h-123l128 151h156l128 -151h-126z" />
    <glyph glyph-name="Idieresis" unicode="&#xcf;" horiz-adv-x="308" 
d="M68 0v700h172v-700h-172zM38 786q-34 0 -57.5 23t-23.5 59t23.5 59t57.5 23q35 0 58 -23t23 -59t-23 -59t-58 -23zM270 786q-34 0 -57.5 23t-23.5 59t23.5 59t57.5 23q35 0 58 -23t23 -59t-23 -59t-58 -23z" />
    <glyph glyph-name="Eth" unicode="&#xd0;" horiz-adv-x="785" 
d="M103 0v293h-80v120h80v287h285q74 0 137.5 -27t112 -75t75.5 -111.5t27 -136.5t-27 -136.5t-75.5 -111.5t-112 -75t-137.5 -27h-285zM275 147h113q49 0 88 27t62.5 73.5t23.5 102.5q0 57 -23.5 103t-62.5 73t-88 27h-113v-140h141v-120h-141v-146z" />
    <glyph glyph-name="Ntilde" unicode="&#xd1;" horiz-adv-x="788" 
d="M78 0v700h162l311 -424l-3 424h162v-700h-152l-321 438l3 -438h-162zM269 774l-90 21q17 71 49 106.5t80 35.5q30 0 58 -15t52.5 -30t42.5 -15q15 0 24.5 14.5t19.5 52.5l90 -21q-17 -70 -47.5 -106t-76.5 -36q-29 0 -57.5 15t-53 30t-42.5 15q-16 0 -27 -14.5t-22 -52.5
z" />
    <glyph glyph-name="Ograve" unicode="&#xd2;" horiz-adv-x="814" 
d="M407 -11q-76 0 -142 27.5t-115.5 77t-77 115t-27.5 141.5t27.5 141.5t77 115t115.5 77t142 27.5t142 -27.5t115.5 -77t77 -115t27.5 -141.5t-27.5 -141.5t-77 -115t-115.5 -77t-142 -27.5zM407 142q39 0 73 15.5t59 44t39 66t14 82.5t-14 82.5t-39 66t-59 44t-73 15.5
t-73 -15.5t-59 -44t-39 -66t-14 -82.5t14 -82.5t39 -66t59 -44t73 -15.5zM355 785l-192 146h202l138 -146h-148z" />
    <glyph glyph-name="Oacute" unicode="&#xd3;" horiz-adv-x="814" 
d="M407 -11q-76 0 -142 27.5t-115.5 77t-77 115t-27.5 141.5t27.5 141.5t77 115t115.5 77t142 27.5t142 -27.5t115.5 -77t77 -115t27.5 -141.5t-27.5 -141.5t-77 -115t-115.5 -77t-142 -27.5zM407 142q39 0 73 15.5t59 44t39 66t14 82.5t-14 82.5t-39 66t-59 44t-73 15.5
t-73 -15.5t-59 -44t-39 -66t-14 -82.5t14 -82.5t39 -66t59 -44t73 -15.5zM315 785l138 146h193l-192 -146h-139z" />
    <glyph glyph-name="Ocircumflex" unicode="&#xd4;" horiz-adv-x="814" 
d="M407 -11q-76 0 -142 27.5t-115.5 77t-77 115t-27.5 141.5t27.5 141.5t77 115t115.5 77t142 27.5t142 -27.5t115.5 -77t77 -115t27.5 -141.5t-27.5 -141.5t-77 -115t-115.5 -77t-142 -27.5zM407 142q39 0 73 15.5t59 44t39 66t14 82.5t-14 82.5t-39 66t-59 44t-73 15.5
t-73 -15.5t-59 -44t-39 -66t-14 -82.5t14 -82.5t39 -66t59 -44t73 -15.5zM487 783l-82 83l-81 -83h-123l128 151h156l128 -151h-126z" />
    <glyph glyph-name="Otilde" unicode="&#xd5;" horiz-adv-x="814" 
d="M407 -11q-76 0 -142 27.5t-115.5 77t-77 115t-27.5 141.5t27.5 141.5t77 115t115.5 77t142 27.5t142 -27.5t115.5 -77t77 -115t27.5 -141.5t-27.5 -141.5t-77 -115t-115.5 -77t-142 -27.5zM407 142q39 0 73 15.5t59 44t39 66t14 82.5t-14 82.5t-39 66t-59 44t-73 15.5
t-73 -15.5t-59 -44t-39 -66t-14 -82.5t14 -82.5t39 -66t59 -44t73 -15.5zM289 774l-90 21q17 71 49 106.5t80 35.5q30 0 58 -15t52.5 -30t42.5 -15q15 0 24.5 14.5t19.5 52.5l90 -21q-17 -70 -47.5 -106t-76.5 -36q-29 0 -57.5 15t-53 30t-42.5 15q-16 0 -27 -14.5
t-22 -52.5z" />
    <glyph glyph-name="Odieresis" unicode="&#xd6;" horiz-adv-x="814" 
d="M407 -11q-76 0 -142 27.5t-115.5 77t-77 115t-27.5 141.5t27.5 141.5t77 115t115.5 77t142 27.5t142 -27.5t115.5 -77t77 -115t27.5 -141.5t-27.5 -141.5t-77 -115t-115.5 -77t-142 -27.5zM407 142q39 0 73 15.5t59 44t39 66t14 82.5t-14 82.5t-39 66t-59 44t-73 15.5
t-73 -15.5t-59 -44t-39 -66t-14 -82.5t14 -82.5t39 -66t59 -44t73 -15.5zM291 786q-34 0 -57.5 23t-23.5 59t23.5 59t57.5 23q35 0 58 -23t23 -59t-23 -59t-58 -23zM523 786q-34 0 -57.5 23t-23.5 59t23.5 59t57.5 23q35 0 58 -23t23 -59t-23 -59t-58 -23z" />
    <glyph glyph-name="multiply" unicode="&#xd7;" 
d="M159 133l-72 75l141 150l-141 151l73 77l141 -150l140 149l71 -75l-140 -150l141 -151l-73 -77l-141 151z" />
    <glyph glyph-name="Oslash" unicode="&#xd8;" horiz-adv-x="814" 
d="M407 -11q-53 0 -102 14.5t-90 39.5l-37 -43h-140l95 112q-41 47 -64.5 108t-23.5 130q0 76 27.5 141.5t77 115t115.5 77t142 27.5q53 0 102 -14t90 -40l37 43h140l-95 -112q41 -47 64.5 -108t23.5 -130q0 -76 -27.5 -141.5t-77 -115t-115.5 -77t-142 -27.5zM246 244
l249 291q-19 11 -41.5 17t-46.5 6q-39 0 -73 -15.5t-59 -44t-39 -66t-14 -82.5q0 -29 6.5 -56t17.5 -50zM407 142q39 0 73 15.5t59 44t39 66t14 82.5q0 29 -6.5 56.5t-17.5 49.5l-249 -291q20 -11 42 -17t46 -6z" />
    <glyph glyph-name="Ugrave" unicode="&#xd9;" horiz-adv-x="748" 
d="M374 -10q-94 0 -164 38.5t-108 109t-38 166.5v396h172v-396q0 -48 17 -84t48 -56t73 -20t73 20t48 56t17 84v396h172v-396q0 -96 -38 -166.5t-107.5 -109t-164.5 -38.5zM318 785l-192 146h202l138 -146h-148z" />
    <glyph glyph-name="Uacute" unicode="&#xda;" horiz-adv-x="748" 
d="M374 -10q-94 0 -164 38.5t-108 109t-38 166.5v396h172v-396q0 -48 17 -84t48 -56t73 -20t73 20t48 56t17 84v396h172v-396q0 -96 -38 -166.5t-107.5 -109t-164.5 -38.5zM278 785l138 146h193l-192 -146h-139z" />
    <glyph glyph-name="Ucircumflex" unicode="&#xdb;" horiz-adv-x="748" 
d="M374 -10q-94 0 -164 38.5t-108 109t-38 166.5v396h172v-396q0 -48 17 -84t48 -56t73 -20t73 20t48 56t17 84v396h172v-396q0 -96 -38 -166.5t-107.5 -109t-164.5 -38.5zM450 783l-82 83l-81 -83h-123l128 151h156l128 -151h-126z" />
    <glyph glyph-name="Udieresis" unicode="&#xdc;" horiz-adv-x="748" 
d="M374 -10q-94 0 -164 38.5t-108 109t-38 166.5v396h172v-396q0 -48 17 -84t48 -56t73 -20t73 20t48 56t17 84v396h172v-396q0 -96 -38 -166.5t-107.5 -109t-164.5 -38.5zM254 786q-34 0 -57.5 23t-23.5 59t23.5 59t57.5 23q35 0 58 -23t23 -59t-23 -59t-58 -23zM486 786
q-34 0 -57.5 23t-23.5 59t23.5 59t57.5 23q35 0 58 -23t23 -59t-23 -59t-58 -23z" />
    <glyph glyph-name="Yacute" unicode="&#xdd;" horiz-adv-x="739" 
d="M283 0v265l-284 435h198l177 -287l179 287h187l-285 -434v-266h-172zM274 785l138 146h193l-192 -146h-139z" />
    <glyph glyph-name="Thorn" unicode="&#xde;" horiz-adv-x="710" 
d="M78 0v700h172v-122h170q75 0 130.5 -30t86 -82t30.5 -119q0 -63 -30.5 -114t-86 -81t-130.5 -30h-170v-122h-172zM250 259h139q53 0 78.5 25.5t25.5 63.5t-25.5 63t-77.5 25h-140v-177z" />
    <glyph glyph-name="germandbls" unicode="&#xdf;" horiz-adv-x="668" 
d="M446 -11q-113 0 -194 65l68 100q66 -51 120 -51q32 0 50.5 14t18.5 38q0 20 -12 31t-46 24l-72 27q-34 13 -56 29.5t-32.5 37.5t-10.5 48q0 36 12.5 59t30.5 39t36 28.5t30.5 27t12.5 35.5q0 29 -27 48t-69 19q-51 0 -85 -31.5t-34 -78.5v-498h-161v489q0 75 34 130.5
t96 86.5t144 31q73 0 129 -22.5t87.5 -62.5t31.5 -93q0 -38 -11.5 -64t-28.5 -43t-34.5 -29.5t-29 -23t-11.5 -23.5q0 -12 7 -19.5t26 -15.5l63 -27q68 -29 97.5 -64t29.5 -87q0 -80 -56.5 -127t-153.5 -47z" />
    <glyph glyph-name="agrave" unicode="&#xe0;" horiz-adv-x="579" 
d="M217 -8q-52 0 -92.5 20t-63 55t-22.5 81q0 48 24 81.5t69 51t108 17.5q28 0 57 -5.5t63 -18.5v42q0 38 -25 56.5t-77 18.5q-29 0 -64.5 -8.5t-80.5 -27.5l-56 113q125 56 237 56q107 0 166.5 -51t59.5 -143v-330h-160v45q-34 -28 -68 -40.5t-75 -12.5zM188 151
q0 -25 21 -38.5t58 -13.5q26 0 49 6.5t44 19.5v66q-22 5 -44 8t-45 3q-40 0 -61.5 -13t-21.5 -38zM242 601l-192 146h202l138 -146h-148z" />
    <glyph glyph-name="aacute" unicode="&#xe1;" horiz-adv-x="579" 
d="M217 -8q-52 0 -92.5 20t-63 55t-22.5 81q0 48 24 81.5t69 51t108 17.5q28 0 57 -5.5t63 -18.5v42q0 38 -25 56.5t-77 18.5q-29 0 -64.5 -8.5t-80.5 -27.5l-56 113q125 56 237 56q107 0 166.5 -51t59.5 -143v-330h-160v45q-34 -28 -68 -40.5t-75 -12.5zM188 151
q0 -25 21 -38.5t58 -13.5q26 0 49 6.5t44 19.5v66q-22 5 -44 8t-45 3q-40 0 -61.5 -13t-21.5 -38zM202 601l138 146h193l-192 -146h-139z" />
    <glyph glyph-name="acircumflex" unicode="&#xe2;" horiz-adv-x="579" 
d="M217 -8q-52 0 -92.5 20t-63 55t-22.5 81q0 48 24 81.5t69 51t108 17.5q28 0 57 -5.5t63 -18.5v42q0 38 -25 56.5t-77 18.5q-29 0 -64.5 -8.5t-80.5 -27.5l-56 113q125 56 237 56q107 0 166.5 -51t59.5 -143v-330h-160v45q-34 -28 -68 -40.5t-75 -12.5zM188 151
q0 -25 21 -38.5t58 -13.5q26 0 49 6.5t44 19.5v66q-22 5 -44 8t-45 3q-40 0 -61.5 -13t-21.5 -38zM374 599l-82 83l-81 -83h-123l128 151h156l128 -151h-126z" />
    <glyph glyph-name="atilde" unicode="&#xe3;" horiz-adv-x="579" 
d="M217 -8q-52 0 -92.5 20t-63 55t-22.5 81q0 48 24 81.5t69 51t108 17.5q28 0 57 -5.5t63 -18.5v42q0 38 -25 56.5t-77 18.5q-29 0 -64.5 -8.5t-80.5 -27.5l-56 113q125 56 237 56q107 0 166.5 -51t59.5 -143v-330h-160v45q-34 -28 -68 -40.5t-75 -12.5zM188 151
q0 -25 21 -38.5t58 -13.5q26 0 49 6.5t44 19.5v66q-22 5 -44 8t-45 3q-40 0 -61.5 -13t-21.5 -38zM176 590l-90 21q17 71 49 106.5t80 35.5q30 0 58 -15t52.5 -30t42.5 -15q15 0 24.5 14.5t19.5 52.5l90 -21q-17 -70 -47.5 -106t-76.5 -36q-29 0 -57.5 15t-53 30t-42.5 15
q-16 0 -27 -14.5t-22 -52.5z" />
    <glyph glyph-name="adieresis" unicode="&#xe4;" horiz-adv-x="579" 
d="M217 -8q-52 0 -92.5 20t-63 55t-22.5 81q0 48 24 81.5t69 51t108 17.5q28 0 57 -5.5t63 -18.5v42q0 38 -25 56.5t-77 18.5q-29 0 -64.5 -8.5t-80.5 -27.5l-56 113q125 56 237 56q107 0 166.5 -51t59.5 -143v-330h-160v45q-34 -28 -68 -40.5t-75 -12.5zM188 151
q0 -25 21 -38.5t58 -13.5q26 0 49 6.5t44 19.5v66q-22 5 -44 8t-45 3q-40 0 -61.5 -13t-21.5 -38zM178 602q-34 0 -57.5 23t-23.5 59t23.5 59t57.5 23q35 0 58 -23t23 -59t-23 -59t-58 -23zM410 602q-34 0 -57.5 23t-23.5 59t23.5 59t57.5 23q35 0 58 -23t23 -59t-23 -59
t-58 -23z" />
    <glyph glyph-name="aring" unicode="&#xe5;" horiz-adv-x="579" 
d="M217 -8q-52 0 -92.5 20t-63 55t-22.5 81q0 48 24 81.5t69 51t108 17.5q28 0 57 -5.5t63 -18.5v42q0 38 -25 56.5t-77 18.5q-29 0 -64.5 -8.5t-80.5 -27.5l-56 113q125 56 237 56q107 0 166.5 -51t59.5 -143v-330h-160v45q-34 -28 -68 -40.5t-75 -12.5zM188 151
q0 -25 21 -38.5t58 -13.5q26 0 49 6.5t44 19.5v66q-22 5 -44 8t-45 3q-40 0 -61.5 -13t-21.5 -38zM294 586q-35 0 -64 17t-46 45t-17 62t17 62t46 45t64 17t64 -17t46 -45t17 -62t-17 -62t-46 -45t-64 -17zM294 650q25 0 42.5 17.5t17.5 42.5t-17.5 42.5t-42.5 17.5
t-42.5 -17.5t-17.5 -42.5t17.5 -42.5t42.5 -17.5z" />
    <glyph glyph-name="ae" unicode="&#xe6;" horiz-adv-x="912" 
d="M223 -8q-54 0 -95 20t-64 56t-23 83t23.5 79.5t68 50t107.5 17.5q55 0 120 -23v41q0 38 -25 56.5t-77 18.5q-29 0 -64.5 -8.5t-80.5 -27.5l-56 113q125 56 237 56q53 0 94 -15.5t67 -44.5q33 29 75 44.5t90 15.5q75 0 132 -35t89.5 -96.5t32.5 -141.5v-35h-355
q8 -29 25 -51t42 -34t54 -12q32 0 58.5 11t43.5 32l107 -89q-50 -44 -101 -63.5t-116 -19.5q-61 0 -112.5 23t-89.5 63q-46 -44 -94.5 -64t-112.5 -20zM519 308h205q-7 28 -22 48t-36 31t-47 11q-25 0 -45.5 -10.5t-34 -30.5t-20.5 -49zM266 101q33 0 64 12.5t53 34.5
q-9 22 -15 43q-24 8 -48.5 11t-48.5 3q-40 0 -61.5 -13t-21.5 -38t20.5 -39t57.5 -14z" />
    <glyph glyph-name="ccedilla" unicode="&#xe7;" horiz-adv-x="539" 
d="M299 -254q-44 0 -77.5 10.5t-57.5 31.5l49 57q36 -28 77 -28q26 0 40 9.5t14 27.5q0 17 -15 26t-41 9h-45l25 104q-65 9 -117 45.5t-81.5 93t-29.5 125.5q0 76 35.5 136t96 95.5t135.5 35.5q64 0 120 -24.5t95 -70.5l-99 -99q-25 29 -51 42.5t-59 13.5q-32 0 -57.5 -17
t-40 -46t-14.5 -66t14.5 -66t40 -46t57.5 -17q33 0 59 13.5t51 42.5l99 -99q-34 -40 -80.5 -63.5t-100.5 -29.5l-12 -50q47 -4 74.5 -26.5t27.5 -59.5q0 -46 -38 -78t-94 -32z" />
    <glyph glyph-name="egrave" unicode="&#xe8;" horiz-adv-x="592" 
d="M312 -10q-76 0 -137.5 35.5t-98 96t-36.5 135.5q0 76 34 136t93 95.5t133 35.5q75 0 132 -35t89.5 -96.5t32.5 -141.5v-35h-355q8 -29 25 -51t42 -34t54 -12q32 0 58.5 11t43.5 32l107 -89q-50 -44 -101 -63.5t-116 -19.5zM199 308h205q-7 28 -22 48t-36 31t-47 11
q-25 0 -45.5 -10.5t-34 -30.5t-20.5 -49zM248 601l-192 146h202l138 -146h-148z" />
    <glyph glyph-name="eacute" unicode="&#xe9;" horiz-adv-x="592" 
d="M312 -10q-76 0 -137.5 35.5t-98 96t-36.5 135.5q0 76 34 136t93 95.5t133 35.5q75 0 132 -35t89.5 -96.5t32.5 -141.5v-35h-355q8 -29 25 -51t42 -34t54 -12q32 0 58.5 11t43.5 32l107 -89q-50 -44 -101 -63.5t-116 -19.5zM199 308h205q-7 28 -22 48t-36 31t-47 11
q-25 0 -45.5 -10.5t-34 -30.5t-20.5 -49zM208 601l138 146h193l-192 -146h-139z" />
    <glyph glyph-name="ecircumflex" unicode="&#xea;" horiz-adv-x="592" 
d="M312 -10q-76 0 -137.5 35.5t-98 96t-36.5 135.5q0 76 34 136t93 95.5t133 35.5q75 0 132 -35t89.5 -96.5t32.5 -141.5v-35h-355q8 -29 25 -51t42 -34t54 -12q32 0 58.5 11t43.5 32l107 -89q-50 -44 -101 -63.5t-116 -19.5zM199 308h205q-7 28 -22 48t-36 31t-47 11
q-25 0 -45.5 -10.5t-34 -30.5t-20.5 -49zM380 599l-82 83l-81 -83h-123l128 151h156l128 -151h-126z" />
    <glyph glyph-name="edieresis" unicode="&#xeb;" horiz-adv-x="592" 
d="M312 -10q-76 0 -137.5 35.5t-98 96t-36.5 135.5q0 76 34 136t93 95.5t133 35.5q75 0 132 -35t89.5 -96.5t32.5 -141.5v-35h-355q8 -29 25 -51t42 -34t54 -12q32 0 58.5 11t43.5 32l107 -89q-50 -44 -101 -63.5t-116 -19.5zM199 308h205q-7 28 -22 48t-36 31t-47 11
q-25 0 -45.5 -10.5t-34 -30.5t-20.5 -49zM184 602q-34 0 -57.5 23t-23.5 59t23.5 59t57.5 23q35 0 58 -23t23 -59t-23 -59t-58 -23zM416 602q-34 0 -57.5 23t-23.5 59t23.5 59t57.5 23q35 0 58 -23t23 -59t-23 -59t-58 -23z" />
    <glyph glyph-name="igrave" unicode="&#xec;" horiz-adv-x="288" 
d="M63 0v516h162v-516h-162zM92 601l-192 146h202l138 -146h-148z" />
    <glyph glyph-name="iacute" unicode="&#xed;" horiz-adv-x="288" 
d="M63 0v516h162v-516h-162zM52 601l138 146h193l-192 -146h-139z" />
    <glyph glyph-name="icircumflex" unicode="&#xee;" horiz-adv-x="288" 
d="M63 0v516h162v-516h-162zM224 599l-82 83l-81 -83h-123l128 151h156l128 -151h-126z" />
    <glyph glyph-name="idieresis" unicode="&#xef;" horiz-adv-x="288" 
d="M63 0v516h162v-516h-162zM28 602q-34 0 -57.5 23t-23.5 59t23.5 59t57.5 23q35 0 58 -23t23 -59t-23 -59t-58 -23zM260 602q-34 0 -57.5 23t-23.5 59t23.5 59t57.5 23q35 0 58 -23t23 -59t-23 -59t-58 -23z" />
    <glyph glyph-name="eth" unicode="&#xf0;" horiz-adv-x="596" 
d="M289 -10q-70 0 -126.5 32.5t-89.5 88t-33 124.5q0 63 29 114.5t78.5 82t109.5 30.5q47 0 86.5 -17t58.5 -46q-6 38 -24.5 76t-47.5 72l-80 -55l-53 76l64 43q-20 15 -42 28.5t-46 24.5l82 106q34 -17 64.5 -36.5t57.5 -42.5l83 56l53 -76l-69 -47q54 -65 83 -145t29 -170
q0 -96 -32.5 -168t-92 -111.5t-142.5 -39.5zM295 128q29 0 53 14.5t38 39t14 53.5q0 30 -14 54t-38 38.5t-53 14.5t-53 -14.5t-38 -38.5t-14 -54q0 -29 14 -53.5t38 -39t53 -14.5z" />
    <glyph glyph-name="ntilde" unicode="&#xf1;" horiz-adv-x="618" 
d="M63 0v516h162v-84q30 45 71.5 68.5t91.5 23.5t88.5 -22.5t60.5 -62t22 -91.5v-348h-162v301q0 44 -23.5 70t-62.5 26q-26 0 -47.5 -10.5t-38.5 -32.5v-354h-162zM190 590l-90 21q17 71 49 106.5t80 35.5q30 0 58 -15t52.5 -30t42.5 -15q15 0 24.5 14.5t19.5 52.5l90 -21
q-17 -70 -47.5 -106t-76.5 -36q-29 0 -57.5 15t-53 30t-42.5 15q-16 0 -27 -14.5t-22 -52.5z" />
    <glyph glyph-name="ograve" unicode="&#xf2;" horiz-adv-x="618" 
d="M309 -10q-76 0 -137 35t-96.5 95.5t-35.5 136.5t35.5 136.5t96.5 95.5t137 35q77 0 137.5 -35t96 -95.5t35.5 -136.5t-35.5 -136.5t-96 -95.5t-137.5 -35zM309 125q33 0 58 17t39 47t14 68q0 39 -14 68.5t-39 46.5t-58 17q-32 0 -57.5 -17t-39.5 -46.5t-14 -68.5
q0 -38 14 -68t39.5 -47t57.5 -17zM257 601l-192 146h202l138 -146h-148z" />
    <glyph glyph-name="oacute" unicode="&#xf3;" horiz-adv-x="618" 
d="M309 -10q-76 0 -137 35t-96.5 95.5t-35.5 136.5t35.5 136.5t96.5 95.5t137 35q77 0 137.5 -35t96 -95.5t35.5 -136.5t-35.5 -136.5t-96 -95.5t-137.5 -35zM309 125q33 0 58 17t39 47t14 68q0 39 -14 68.5t-39 46.5t-58 17q-32 0 -57.5 -17t-39.5 -46.5t-14 -68.5
q0 -38 14 -68t39.5 -47t57.5 -17zM217 601l138 146h193l-192 -146h-139z" />
    <glyph glyph-name="ocircumflex" unicode="&#xf4;" horiz-adv-x="618" 
d="M309 -10q-76 0 -137 35t-96.5 95.5t-35.5 136.5t35.5 136.5t96.5 95.5t137 35q77 0 137.5 -35t96 -95.5t35.5 -136.5t-35.5 -136.5t-96 -95.5t-137.5 -35zM309 125q33 0 58 17t39 47t14 68q0 39 -14 68.5t-39 46.5t-58 17q-32 0 -57.5 -17t-39.5 -46.5t-14 -68.5
q0 -38 14 -68t39.5 -47t57.5 -17zM389 599l-82 83l-81 -83h-123l128 151h156l128 -151h-126z" />
    <glyph glyph-name="otilde" unicode="&#xf5;" horiz-adv-x="618" 
d="M309 -10q-76 0 -137 35t-96.5 95.5t-35.5 136.5t35.5 136.5t96.5 95.5t137 35q77 0 137.5 -35t96 -95.5t35.5 -136.5t-35.5 -136.5t-96 -95.5t-137.5 -35zM309 125q33 0 58 17t39 47t14 68q0 39 -14 68.5t-39 46.5t-58 17q-32 0 -57.5 -17t-39.5 -46.5t-14 -68.5
q0 -38 14 -68t39.5 -47t57.5 -17zM191 590l-90 21q17 71 49 106.5t80 35.5q30 0 58 -15t52.5 -30t42.5 -15q15 0 24.5 14.5t19.5 52.5l90 -21q-17 -70 -47.5 -106t-76.5 -36q-29 0 -57.5 15t-53 30t-42.5 15q-16 0 -27 -14.5t-22 -52.5z" />
    <glyph glyph-name="odieresis" unicode="&#xf6;" horiz-adv-x="618" 
d="M309 -10q-76 0 -137 35t-96.5 95.5t-35.5 136.5t35.5 136.5t96.5 95.5t137 35q77 0 137.5 -35t96 -95.5t35.5 -136.5t-35.5 -136.5t-96 -95.5t-137.5 -35zM309 125q33 0 58 17t39 47t14 68q0 39 -14 68.5t-39 46.5t-58 17q-32 0 -57.5 -17t-39.5 -46.5t-14 -68.5
q0 -38 14 -68t39.5 -47t57.5 -17zM193 602q-34 0 -57.5 23t-23.5 59t23.5 59t57.5 23q35 0 58 -23t23 -59t-23 -59t-58 -23zM425 602q-34 0 -57.5 23t-23.5 59t23.5 59t57.5 23q35 0 58 -23t23 -59t-23 -59t-58 -23z" />
    <glyph glyph-name="divide" unicode="&#xf7;" 
d="M300 498q-37 0 -64 27.5t-27 65.5q0 37 27 64t64 27q38 0 64.5 -27t26.5 -65q0 -37 -26.5 -64.5t-64.5 -27.5zM300 36q-37 0 -64 27.5t-27 65.5q0 37 27 64t64 27q38 0 64.5 -27t26.5 -65q0 -37 -26.5 -64.5t-64.5 -27.5zM75 299v120h450v-120h-450z" />
    <glyph glyph-name="oslash" unicode="&#xf8;" horiz-adv-x="618" 
d="M309 -10q-40 0 -76.5 10.5t-68.5 29.5l-25 -30h-102l68 79q-31 35 -48 80.5t-17 97.5q0 76 35.5 136.5t96.5 95.5t137 35q41 0 77 -10t67 -29l26 31h102l-69 -80q31 -35 48.5 -80.5t17.5 -98.5q0 -76 -35.5 -136.5t-96 -95.5t-137.5 -35zM208 199l151 177q-10 7 -23 10
t-27 3q-32 0 -57.5 -17t-39.5 -46.5t-14 -68.5q0 -16 2.5 -30.5t7.5 -27.5zM309 125q33 0 58 17t39 47t14 68q0 17 -2.5 31.5t-7.5 27.5l-153 -178q12 -6 25 -9.5t27 -3.5z" />
    <glyph glyph-name="ugrave" unicode="&#xf9;" horiz-adv-x="618" 
d="M230 -8q-50 0 -88.5 22.5t-60.5 62t-22 91.5v348h162v-301q0 -43 23.5 -69.5t62.5 -26.5q26 0 47.5 10.5t38.5 32.5v354h162v-516h-162v84q-30 -45 -71.5 -68.5t-91.5 -23.5zM248 601l-192 146h202l138 -146h-148z" />
    <glyph glyph-name="uacute" unicode="&#xfa;" horiz-adv-x="618" 
d="M230 -8q-50 0 -88.5 22.5t-60.5 62t-22 91.5v348h162v-301q0 -43 23.5 -69.5t62.5 -26.5q26 0 47.5 10.5t38.5 32.5v354h162v-516h-162v84q-30 -45 -71.5 -68.5t-91.5 -23.5zM208 601l138 146h193l-192 -146h-139z" />
    <glyph glyph-name="ucircumflex" unicode="&#xfb;" horiz-adv-x="618" 
d="M230 -8q-50 0 -88.5 22.5t-60.5 62t-22 91.5v348h162v-301q0 -43 23.5 -69.5t62.5 -26.5q26 0 47.5 10.5t38.5 32.5v354h162v-516h-162v84q-30 -45 -71.5 -68.5t-91.5 -23.5zM380 599l-82 83l-81 -83h-123l128 151h156l128 -151h-126z" />
    <glyph glyph-name="udieresis" unicode="&#xfc;" horiz-adv-x="618" 
d="M230 -8q-50 0 -88.5 22.5t-60.5 62t-22 91.5v348h162v-301q0 -43 23.5 -69.5t62.5 -26.5q26 0 47.5 10.5t38.5 32.5v354h162v-516h-162v84q-30 -45 -71.5 -68.5t-91.5 -23.5zM184 602q-34 0 -57.5 23t-23.5 59t23.5 59t57.5 23q35 0 58 -23t23 -59t-23 -59t-58 -23z
M416 602q-34 0 -57.5 23t-23.5 59t23.5 59t57.5 23q35 0 58 -23t23 -59t-23 -59t-58 -23z" />
    <glyph glyph-name="yacute" unicode="&#xfd;" horiz-adv-x="584" 
d="M119 -219q-32 0 -67 8v136q9 -1 21.5 -2.5t26.5 -1.5q33 0 52.5 13.5t31.5 38.5l8 17l-190 526h179l103 -333l118 333h175l-232 -574q-24 -59 -53.5 -94.5t-71 -51t-101.5 -15.5zM198 601l138 146h193l-192 -146h-139z" />
    <glyph glyph-name="thorn" unicode="&#xfe;" horiz-adv-x="642" 
d="M63 -209v921l162 25v-290q26 33 65.5 52.5t85.5 19.5q64 0 115.5 -35.5t82 -94.5t30.5 -132q0 -72 -32 -131t-86.5 -94t-121.5 -35q-42 0 -77.5 15.5t-61.5 44.5v-266h-162zM322 385q-30 0 -53.5 -10.5t-43.5 -31.5v-172q19 -19 44 -30t53 -11q36 0 63.5 16.5t43.5 45.5
t16 66t-16 65.5t-44 45t-63 16.5z" />
    <glyph glyph-name="ydieresis" unicode="&#xff;" horiz-adv-x="584" 
d="M119 -219q-32 0 -67 8v136q9 -1 21.5 -2.5t26.5 -1.5q33 0 52.5 13.5t31.5 38.5l8 17l-190 526h179l103 -333l118 333h175l-232 -574q-24 -59 -53.5 -94.5t-71 -51t-101.5 -15.5zM174 602q-34 0 -57.5 23t-23.5 59t23.5 59t57.5 23q35 0 58 -23t23 -59t-23 -59t-58 -23z
M406 602q-34 0 -57.5 23t-23.5 59t23.5 59t57.5 23q35 0 58 -23t23 -59t-23 -59t-58 -23z" />
    <glyph glyph-name="Amacron" unicode="&#x100;" horiz-adv-x="742" 
d="M2 0l273 700h196l269 -700h-186l-58 167h-256l-59 -167h-179zM287 300h163l-81 232zM208 810v100h329v-100h-329z" />
    <glyph glyph-name="amacron" unicode="&#x101;" horiz-adv-x="579" 
d="M217 -8q-52 0 -92.5 20t-63 55t-22.5 81q0 48 24 81.5t69 51t108 17.5q28 0 57 -5.5t63 -18.5v42q0 38 -25 56.5t-77 18.5q-29 0 -64.5 -8.5t-80.5 -27.5l-56 113q125 56 237 56q107 0 166.5 -51t59.5 -143v-330h-160v45q-34 -28 -68 -40.5t-75 -12.5zM188 151
q0 -25 21 -38.5t58 -13.5q26 0 49 6.5t44 19.5v66q-22 5 -44 8t-45 3q-40 0 -61.5 -13t-21.5 -38zM130 626v100h329v-100h-329z" />
    <glyph glyph-name="Abreve" unicode="&#x102;" horiz-adv-x="742" 
d="M2 0l273 700h196l269 -700h-186l-58 167h-256l-59 -167h-179zM287 300h163l-81 232zM372 774q-74 0 -123.5 37t-66.5 106l93 25q25 -81 97 -81q36 0 60.5 20.5t37.5 60.5l92 -25q-17 -69 -66.5 -106t-123.5 -37z" />
    <glyph glyph-name="abreve" unicode="&#x103;" horiz-adv-x="579" 
d="M217 -8q-52 0 -92.5 20t-63 55t-22.5 81q0 48 24 81.5t69 51t108 17.5q28 0 57 -5.5t63 -18.5v42q0 38 -25 56.5t-77 18.5q-29 0 -64.5 -8.5t-80.5 -27.5l-56 113q125 56 237 56q107 0 166.5 -51t59.5 -143v-330h-160v45q-34 -28 -68 -40.5t-75 -12.5zM188 151
q0 -25 21 -38.5t58 -13.5q26 0 49 6.5t44 19.5v66q-22 5 -44 8t-45 3q-40 0 -61.5 -13t-21.5 -38zM294 590q-74 0 -123.5 37t-66.5 106l93 25q25 -81 97 -81q36 0 60.5 20.5t37.5 60.5l92 -25q-17 -69 -66.5 -106t-123.5 -37z" />
    <glyph glyph-name="Aogonek" unicode="&#x104;" horiz-adv-x="742" 
d="M677 -231q-49 0 -78.5 27.5t-29.5 71.5q0 38 21 69.5t67 62.5h-103l-58 167h-256l-59 -167h-179l273 700h196l269 -700q-43 -26 -63.5 -51t-20.5 -52q0 -22 13.5 -34t35.5 -12q14 0 26 3t19 8l20 -70q-36 -23 -93 -23zM287 300h163l-81 232z" />
    <glyph glyph-name="aogonek" unicode="&#x105;" horiz-adv-x="579" 
d="M456 -231q-49 0 -78.5 27.5t-29.5 71.5q0 38 21 69.5t67 62.5h-76v45q-34 -28 -68 -40.5t-75 -12.5q-52 0 -92.5 20t-63 55t-22.5 81q0 48 24 81.5t69 51t108 17.5q28 0 57 -5.5t63 -18.5v42q0 38 -25 56.5t-77 18.5q-29 0 -64.5 -8.5t-80.5 -27.5l-56 113q125 56 237 56
q107 0 166.5 -51t59.5 -143v-330q-43 -26 -64 -51t-21 -52q0 -22 13.5 -34t35.5 -12q14 0 26 3t19 8l20 -70q-36 -23 -93 -23zM267 99q26 0 49 6.5t44 19.5v66q-22 5 -44 8t-45 3q-40 0 -61.5 -13t-21.5 -38t21 -38.5t58 -13.5z" />
    <glyph glyph-name="Cacute" unicode="&#x106;" horiz-adv-x="720" 
d="M414 -11q-78 0 -145 27.5t-117.5 76.5t-78.5 115t-28 142q0 77 28 142.5t78.5 114.5t117.5 76.5t145 27.5q56 0 109.5 -16.5t99 -47t75.5 -72.5l-116 -110q-34 47 -76 70t-92 23q-41 0 -75.5 -15.5t-60.5 -44t-40.5 -66t-14.5 -82.5t14.5 -82.5t40.5 -66t60.5 -44
t75.5 -15.5q50 0 92 23.5t76 69.5l116 -110q-30 -41 -75.5 -72t-99 -47.5t-109.5 -16.5zM311 785l138 146h193l-192 -146h-139z" />
    <glyph glyph-name="cacute" unicode="&#x107;" horiz-adv-x="539" 
d="M307 -10q-75 0 -135.5 35.5t-96 96t-35.5 135.5q0 76 35.5 136t96 95.5t135.5 35.5q64 0 120 -24.5t95 -70.5l-99 -99q-25 29 -51 42.5t-59 13.5q-32 0 -57.5 -17t-40 -46t-14.5 -66t14.5 -66t40 -46t57.5 -17q33 0 59 13.5t51 42.5l99 -99q-39 -46 -95 -70.5t-120 -24.5
zM209 601l138 146h193l-192 -146h-139z" />
    <glyph glyph-name="Ccircumflex" unicode="&#x108;" horiz-adv-x="720" 
d="M414 -11q-78 0 -145 27.5t-117.5 76.5t-78.5 115t-28 142q0 77 28 142.5t78.5 114.5t117.5 76.5t145 27.5q56 0 109.5 -16.5t99 -47t75.5 -72.5l-116 -110q-34 47 -76 70t-92 23q-41 0 -75.5 -15.5t-60.5 -44t-40.5 -66t-14.5 -82.5t14.5 -82.5t40.5 -66t60.5 -44
t75.5 -15.5q50 0 92 23.5t76 69.5l116 -110q-30 -41 -75.5 -72t-99 -47.5t-109.5 -16.5zM483 783l-82 83l-81 -83h-123l128 151h156l128 -151h-126z" />
    <glyph glyph-name="ccircumflex" unicode="&#x109;" horiz-adv-x="539" 
d="M307 -10q-75 0 -135.5 35.5t-96 96t-35.5 135.5q0 76 35.5 136t96 95.5t135.5 35.5q64 0 120 -24.5t95 -70.5l-99 -99q-25 29 -51 42.5t-59 13.5q-32 0 -57.5 -17t-40 -46t-14.5 -66t14.5 -66t40 -46t57.5 -17q33 0 59 13.5t51 42.5l99 -99q-39 -46 -95 -70.5t-120 -24.5
zM381 599l-82 83l-81 -83h-123l128 151h156l128 -151h-126z" />
    <glyph glyph-name="Cdotaccent" unicode="&#x10a;" horiz-adv-x="720" 
d="M414 -11q-78 0 -145 27.5t-117.5 76.5t-78.5 115t-28 142q0 77 28 142.5t78.5 114.5t117.5 76.5t145 27.5q56 0 109.5 -16.5t99 -47t75.5 -72.5l-116 -110q-34 47 -76 70t-92 23q-41 0 -75.5 -15.5t-60.5 -44t-40.5 -66t-14.5 -82.5t14.5 -82.5t40.5 -66t60.5 -44
t75.5 -15.5q50 0 92 23.5t76 69.5l116 -110q-30 -41 -75.5 -72t-99 -47.5t-109.5 -16.5zM403 786q-37 0 -62.5 26t-25.5 62q0 37 25.5 63t62.5 26q36 0 62 -26t26 -62q0 -37 -26 -63t-62 -26z" />
    <glyph glyph-name="cdotaccent" unicode="&#x10b;" horiz-adv-x="539" 
d="M307 -10q-75 0 -135.5 35.5t-96 96t-35.5 135.5q0 76 35.5 136t96 95.5t135.5 35.5q64 0 120 -24.5t95 -70.5l-99 -99q-25 29 -51 42.5t-59 13.5q-32 0 -57.5 -17t-40 -46t-14.5 -66t14.5 -66t40 -46t57.5 -17q33 0 59 13.5t51 42.5l99 -99q-39 -46 -95 -70.5t-120 -24.5
zM301 602q-37 0 -62.5 26t-25.5 62q0 37 25.5 63t62.5 26q36 0 62 -26t26 -62q0 -37 -26 -63t-62 -26z" />
    <glyph glyph-name="Ccaron" unicode="&#x10c;" horiz-adv-x="720" 
d="M414 -11q-78 0 -145 27.5t-117.5 76.5t-78.5 115t-28 142q0 77 28 142.5t78.5 114.5t117.5 76.5t145 27.5q56 0 109.5 -16.5t99 -47t75.5 -72.5l-116 -110q-34 47 -76 70t-92 23q-41 0 -75.5 -15.5t-60.5 -44t-40.5 -66t-14.5 -82.5t14.5 -82.5t40.5 -66t60.5 -44
t75.5 -15.5q50 0 92 23.5t76 69.5l116 -110q-30 -41 -75.5 -72t-99 -47.5t-109.5 -16.5zM323 939l82 -83l81 83h123l-128 -151h-156l-128 151h126z" />
    <glyph glyph-name="ccaron" unicode="&#x10d;" horiz-adv-x="539" 
d="M307 -10q-75 0 -135.5 35.5t-96 96t-35.5 135.5q0 76 35.5 136t96 95.5t135.5 35.5q64 0 120 -24.5t95 -70.5l-99 -99q-25 29 -51 42.5t-59 13.5q-32 0 -57.5 -17t-40 -46t-14.5 -66t14.5 -66t40 -46t57.5 -17q33 0 59 13.5t51 42.5l99 -99q-39 -46 -95 -70.5t-120 -24.5
zM221 755l82 -83l81 83h123l-128 -151h-156l-128 151h126z" />
    <glyph glyph-name="Dcaron" unicode="&#x10e;" horiz-adv-x="760" 
d="M250 147h113q49 0 88 27t62.5 73.5t23.5 102.5q0 57 -23.5 103t-62.5 73t-88 27h-113v-406zM78 0v700h285q74 0 137.5 -27t112 -75t75.5 -111.5t27 -136.5t-27 -136.5t-75.5 -111.5t-112 -75t-137.5 -27h-285zM301 939l82 -83l81 83h123l-128 -151h-156l-128 151h126z
" />
    <glyph glyph-name="dcaron" unicode="&#x10f;" horiz-adv-x="823" 
d="M283 -3q-63 0 -115 35.5t-82.5 95t-30.5 131.5q0 73 32 131.5t86.5 93.5t121.5 35q41 0 76.5 -16t61.5 -46v255l162 25v-737h-160v67q-25 -32 -65.5 -51t-86.5 -19zM337 131q29 0 53 10.5t43 30.5v174q-19 20 -43.5 30t-52.5 10q-35 0 -63 -16.5t-44 -45.5t-16 -66
q0 -36 16 -65t44 -45.5t63 -16.5zM682 498l4 216l125 23l-40 -239h-89z" />
    <glyph glyph-name="Dcroat" unicode="&#x110;" horiz-adv-x="785" 
d="M103 0v293h-80v120h80v287h285q74 0 137.5 -27t112 -75t75.5 -111.5t27 -136.5t-27 -136.5t-75.5 -111.5t-112 -75t-137.5 -27h-285zM275 147h113q49 0 88 27t62.5 73.5t23.5 102.5q0 57 -23.5 103t-62.5 73t-88 27h-113v-140h141v-120h-141v-146z" />
    <glyph glyph-name="dcroat" unicode="&#x111;" horiz-adv-x="651" 
d="M268 -3q-63 0 -115 35.5t-82.5 95t-30.5 131.5q0 73 32 131.5t86.5 93.5t121.5 35q41 0 76.5 -16t61.5 -46v103h-105v88h105v64l162 25v-89h57v-88h-57v-560h-160v67q-25 -32 -65.5 -51t-86.5 -19zM322 131q29 0 53 10.5t43 30.5v174q-19 20 -43.5 30t-52.5 10
q-35 0 -63 -16.5t-44 -45.5t-16 -66q0 -36 16 -65t44 -45.5t63 -16.5z" />
    <glyph glyph-name="Emacron" unicode="&#x112;" horiz-adv-x="668" 
d="M78 0v700h529v-144h-357v-133h252v-140h-252v-139h361v-144h-533zM190 810v100h329v-100h-329z" />
    <glyph glyph-name="emacron" unicode="&#x113;" horiz-adv-x="592" 
d="M312 -10q-76 0 -137.5 35.5t-98 96t-36.5 135.5q0 76 34 136t93 95.5t133 35.5q75 0 132 -35t89.5 -96.5t32.5 -141.5v-35h-355q8 -29 25 -51t42 -34t54 -12q32 0 58.5 11t43.5 32l107 -89q-50 -44 -101 -63.5t-116 -19.5zM199 308h205q-7 28 -22 48t-36 31t-47 11
q-25 0 -45.5 -10.5t-34 -30.5t-20.5 -49zM136 626v100h329v-100h-329z" />
    <glyph glyph-name="Ebreve" unicode="&#x114;" horiz-adv-x="668" 
d="M78 0v700h529v-144h-357v-133h252v-140h-252v-139h361v-144h-533zM354 774q-74 0 -123.5 37t-66.5 106l93 25q25 -81 97 -81q36 0 60.5 20.5t37.5 60.5l92 -25q-17 -69 -66.5 -106t-123.5 -37z" />
    <glyph glyph-name="ebreve" unicode="&#x115;" horiz-adv-x="592" 
d="M312 -10q-76 0 -137.5 35.5t-98 96t-36.5 135.5q0 76 34 136t93 95.5t133 35.5q75 0 132 -35t89.5 -96.5t32.5 -141.5v-35h-355q8 -29 25 -51t42 -34t54 -12q32 0 58.5 11t43.5 32l107 -89q-50 -44 -101 -63.5t-116 -19.5zM199 308h205q-7 28 -22 48t-36 31t-47 11
q-25 0 -45.5 -10.5t-34 -30.5t-20.5 -49zM300 590q-74 0 -123.5 37t-66.5 106l93 25q25 -81 97 -81q36 0 60.5 20.5t37.5 60.5l92 -25q-17 -69 -66.5 -106t-123.5 -37z" />
    <glyph glyph-name="Edotaccent" unicode="&#x116;" horiz-adv-x="668" 
d="M78 0v700h529v-144h-357v-133h252v-140h-252v-139h361v-144h-533zM354 786q-37 0 -62.5 26t-25.5 62q0 37 25.5 63t62.5 26q36 0 62 -26t26 -62q0 -37 -26 -63t-62 -26z" />
    <glyph glyph-name="edotaccent" unicode="&#x117;" horiz-adv-x="592" 
d="M312 -10q-76 0 -137.5 35.5t-98 96t-36.5 135.5q0 76 34 136t93 95.5t133 35.5q75 0 132 -35t89.5 -96.5t32.5 -141.5v-35h-355q8 -29 25 -51t42 -34t54 -12q32 0 58.5 11t43.5 32l107 -89q-50 -44 -101 -63.5t-116 -19.5zM199 308h205q-7 28 -22 48t-36 31t-47 11
q-25 0 -45.5 -10.5t-34 -30.5t-20.5 -49zM300 602q-37 0 -62.5 26t-25.5 62q0 37 25.5 63t62.5 26q36 0 62 -26t26 -62q0 -37 -26 -63t-62 -26z" />
    <glyph glyph-name="Eogonek" unicode="&#x118;" horiz-adv-x="668" 
d="M640 -208q-36 -23 -93 -23q-49 0 -78.5 27.5t-29.5 71.5q0 38 21 69.5t67 62.5h-449v700h529v-144h-357v-133h252v-140h-252v-139h361v-144q-43 -26 -64 -51t-21 -52q0 -22 13.5 -34t35.5 -12q14 0 26 3t19 8z" />
    <glyph glyph-name="eogonek" unicode="&#x119;" horiz-adv-x="592" 
d="M331 -231q-49 0 -78.5 27.5t-29.5 71.5q0 35 18 64.5t57 57.5q-73 4 -131.5 40t-92.5 95.5t-34 131.5q0 76 34 136t93 95.5t133 35.5q75 0 132 -35t89.5 -96.5t32.5 -141.5v-35h-355q8 -29 25 -51t42 -34t54 -12q32 0 58.5 11t43.5 32l107 -89q-66 -58 -136 -74
q-43 -26 -63 -51t-20 -51q0 -22 13.5 -34t35.5 -12q14 0 26 3t19 8l20 -70q-36 -23 -93 -23zM199 308h205q-7 28 -22 48t-36 31t-47 11q-25 0 -45.5 -10.5t-34 -30.5t-20.5 -49z" />
    <glyph glyph-name="Ecaron" unicode="&#x11a;" horiz-adv-x="668" 
d="M78 0v700h529v-144h-357v-133h252v-140h-252v-139h361v-144h-533zM274 939l82 -83l81 83h123l-128 -151h-156l-128 151h126z" />
    <glyph glyph-name="ecaron" unicode="&#x11b;" horiz-adv-x="592" 
d="M312 -10q-76 0 -137.5 35.5t-98 96t-36.5 135.5q0 76 34 136t93 95.5t133 35.5q75 0 132 -35t89.5 -96.5t32.5 -141.5v-35h-355q8 -29 25 -51t42 -34t54 -12q32 0 58.5 11t43.5 32l107 -89q-50 -44 -101 -63.5t-116 -19.5zM199 308h205q-7 28 -22 48t-36 31t-47 11
q-25 0 -45.5 -10.5t-34 -30.5t-20.5 -49zM220 755l82 -83l81 83h123l-128 -151h-156l-128 151h126z" />
    <glyph glyph-name="Gcircumflex" unicode="&#x11c;" horiz-adv-x="806" 
d="M413 -11q-78 0 -144.5 27.5t-117 77t-78.5 115t-28 141.5t28 141.5t77.5 115t116 77t143.5 27.5q88 0 166.5 -35.5t127.5 -100.5l-121 -105q-33 44 -77 66t-96 22q-40 0 -74.5 -15.5t-59.5 -44t-39 -66t-14 -82.5t14.5 -83.5t40.5 -66.5t61 -44t77 -16q40 0 72.5 15
t55.5 41.5t32 60.5h-175v145h360v-49q0 -79 -25.5 -145.5t-72.5 -115.5t-110.5 -76t-139.5 -27zM481 783l-82 83l-81 -83h-123l128 151h156l128 -151h-126z" />
    <glyph glyph-name="gcircumflex" unicode="&#x11d;" horiz-adv-x="642" 
d="M307 -219q-58 0 -112.5 12t-101.5 34l50 117q43 -20 82 -30t76 -10q58 0 87.5 24t29.5 71v70q-25 -31 -65 -49.5t-85 -18.5q-63 0 -115 35t-82.5 94t-30.5 131t32 130.5t86.5 93t121.5 34.5q41 0 77.5 -16.5t62.5 -48.5v62h159v-519q0 -104 -70 -160t-202 -56zM322 133
q29 0 53 10.5t43 30.5v172q-19 20 -43.5 30t-52.5 10q-35 0 -63 -16.5t-44 -44.5t-16 -65q0 -36 16 -65t44 -45.5t63 -16.5zM401 599l-82 83l-81 -83h-123l128 151h156l128 -151h-126z" />
    <glyph glyph-name="Gbreve" unicode="&#x11e;" horiz-adv-x="806" 
d="M413 -11q-78 0 -144.5 27.5t-117 77t-78.5 115t-28 141.5t28 141.5t77.5 115t116 77t143.5 27.5q88 0 166.5 -35.5t127.5 -100.5l-121 -105q-33 44 -77 66t-96 22q-40 0 -74.5 -15.5t-59.5 -44t-39 -66t-14 -82.5t14.5 -83.5t40.5 -66.5t61 -44t77 -16q40 0 72.5 15
t55.5 41.5t32 60.5h-175v145h360v-49q0 -79 -25.5 -145.5t-72.5 -115.5t-110.5 -76t-139.5 -27zM401 774q-74 0 -123.5 37t-66.5 106l93 25q25 -81 97 -81q36 0 60.5 20.5t37.5 60.5l92 -25q-17 -69 -66.5 -106t-123.5 -37z" />
    <glyph glyph-name="gbreve" unicode="&#x11f;" horiz-adv-x="642" 
d="M307 -219q-58 0 -112.5 12t-101.5 34l50 117q43 -20 82 -30t76 -10q58 0 87.5 24t29.5 71v70q-25 -31 -65 -49.5t-85 -18.5q-63 0 -115 35t-82.5 94t-30.5 131t32 130.5t86.5 93t121.5 34.5q41 0 77.5 -16.5t62.5 -48.5v62h159v-519q0 -104 -70 -160t-202 -56zM322 133
q29 0 53 10.5t43 30.5v172q-19 20 -43.5 30t-52.5 10q-35 0 -63 -16.5t-44 -44.5t-16 -65q0 -36 16 -65t44 -45.5t63 -16.5zM321 590q-74 0 -123.5 37t-66.5 106l93 25q25 -81 97 -81q36 0 60.5 20.5t37.5 60.5l92 -25q-17 -69 -66.5 -106t-123.5 -37z" />
    <glyph glyph-name="Gdotaccent" unicode="&#x120;" horiz-adv-x="806" 
d="M413 -11q-78 0 -144.5 27.5t-117 77t-78.5 115t-28 141.5t28 141.5t77.5 115t116 77t143.5 27.5q88 0 166.5 -35.5t127.5 -100.5l-121 -105q-33 44 -77 66t-96 22q-40 0 -74.5 -15.5t-59.5 -44t-39 -66t-14 -82.5t14.5 -83.5t40.5 -66.5t61 -44t77 -16q40 0 72.5 15
t55.5 41.5t32 60.5h-175v145h360v-49q0 -79 -25.5 -145.5t-72.5 -115.5t-110.5 -76t-139.5 -27zM401 786q-37 0 -62.5 26t-25.5 62q0 37 25.5 63t62.5 26q36 0 62 -26t26 -62q0 -37 -26 -63t-62 -26z" />
    <glyph glyph-name="gdotaccent" unicode="&#x121;" horiz-adv-x="642" 
d="M307 -219q-58 0 -112.5 12t-101.5 34l50 117q43 -20 82 -30t76 -10q58 0 87.5 24t29.5 71v70q-25 -31 -65 -49.5t-85 -18.5q-63 0 -115 35t-82.5 94t-30.5 131t32 130.5t86.5 93t121.5 34.5q41 0 77.5 -16.5t62.5 -48.5v62h159v-519q0 -104 -70 -160t-202 -56zM322 133
q29 0 53 10.5t43 30.5v172q-19 20 -43.5 30t-52.5 10q-35 0 -63 -16.5t-44 -44.5t-16 -65q0 -36 16 -65t44 -45.5t63 -16.5zM321 602q-37 0 -62.5 26t-25.5 62q0 37 25.5 63t62.5 26q36 0 62 -26t26 -62q0 -37 -26 -63t-62 -26z" />
    <glyph glyph-name="uni0122" unicode="&#x122;" horiz-adv-x="806" 
d="M413 -11q-78 0 -144.5 27.5t-117 77t-78.5 115t-28 141.5t28 141.5t77.5 115t116 77t143.5 27.5q88 0 166.5 -35.5t127.5 -100.5l-121 -105q-33 44 -77 66t-96 22q-40 0 -74.5 -15.5t-59.5 -44t-39 -66t-14 -82.5t14.5 -83.5t40.5 -66.5t61 -44t77 -16q40 0 72.5 15
t55.5 41.5t32 60.5h-175v145h360v-49q0 -79 -25.5 -145.5t-72.5 -115.5t-110.5 -76t-139.5 -27zM271 -305l63 215h144l-95 -215h-112z" />
    <glyph glyph-name="uni0123" unicode="&#x123;" horiz-adv-x="642" 
d="M455 842l-63 -215h-144l95 215h112zM307 -219q-58 0 -112.5 12t-101.5 34l50 117q43 -20 82 -30t76 -10q58 0 87.5 24t29.5 71v70q-25 -31 -65 -49.5t-85 -18.5q-63 0 -115 35t-82.5 94t-30.5 131t32 130.5t86.5 93t121.5 34.5q41 0 77.5 -16.5t62.5 -48.5v62h159v-519
q0 -104 -70 -160t-202 -56zM322 133q29 0 53 10.5t43 30.5v172q-19 20 -43.5 30t-52.5 10q-35 0 -63 -16.5t-44 -44.5t-16 -65q0 -36 16 -65t44 -45.5t63 -16.5z" />
    <glyph glyph-name="Hcircumflex" unicode="&#x124;" horiz-adv-x="763" 
d="M68 0v700h172v-272h283v272h172v-700h-172v277h-283v-277h-172zM462 783l-82 83l-81 -83h-123l128 151h156l128 -151h-126z" />
    <glyph glyph-name="hcircumflex" unicode="&#x125;" horiz-adv-x="618" 
d="M63 0v712l162 25v-305q30 45 71.5 68.5t91.5 23.5t88.5 -22.5t60.5 -62t22 -91.5v-348h-162v301q0 44 -23.5 70t-62.5 26q-26 0 -47.5 -10.5t-38.5 -32.5v-354h-162zM219 782l-82 83l-81 -83h-123l128 151h156l128 -151h-126z" />
    <glyph glyph-name="Hbar" unicode="&#x126;" horiz-adv-x="813" 
d="M93 0v493h-80v120h80v87h172v-87h283v87h172v-87h80v-120h-80v-493h-172v277h-283v-277h-172zM265 417h283v76h-283v-76z" />
    <glyph glyph-name="hbar" unicode="&#x127;" horiz-adv-x="628" 
d="M73 0v560h-59v88h59v64l162 25v-89h103v-88h-103v-128q30 45 71.5 68.5t91.5 23.5t88.5 -22.5t60.5 -62t22 -91.5v-348h-162v301q0 44 -23.5 70t-62.5 26q-26 0 -47.5 -10.5t-38.5 -32.5v-354h-162z" />
    <glyph glyph-name="Itilde" unicode="&#x128;" horiz-adv-x="308" 
d="M68 0v700h172v-700h-172zM36 774l-90 21q17 71 49 106.5t80 35.5q30 0 58 -15t52.5 -30t42.5 -15q15 0 24.5 14.5t19.5 52.5l90 -21q-17 -70 -47.5 -106t-76.5 -36q-29 0 -57.5 15t-53 30t-42.5 15q-16 0 -27 -14.5t-22 -52.5z" />
    <glyph glyph-name="itilde" unicode="&#x129;" horiz-adv-x="288" 
d="M63 0v516h162v-516h-162zM26 590l-90 21q17 71 49 106.5t80 35.5q30 0 58 -15t52.5 -30t42.5 -15q15 0 24.5 14.5t19.5 52.5l90 -21q-17 -70 -47.5 -106t-76.5 -36q-29 0 -57.5 15t-53 30t-42.5 15q-16 0 -27 -14.5t-22 -52.5z" />
    <glyph glyph-name="Imacron" unicode="&#x12a;" horiz-adv-x="308" 
d="M68 0v700h172v-700h-172zM-10 810v100h329v-100h-329z" />
    <glyph glyph-name="imacron" unicode="&#x12b;" horiz-adv-x="288" 
d="M63 0v516h162v-516h-162zM-20 626v100h329v-100h-329z" />
    <glyph glyph-name="Ibreve" unicode="&#x12c;" horiz-adv-x="308" 
d="M68 0v700h172v-700h-172zM154 774q-74 0 -123.5 37t-66.5 106l93 25q25 -81 97 -81q36 0 60.5 20.5t37.5 60.5l92 -25q-17 -69 -66.5 -106t-123.5 -37z" />
    <glyph glyph-name="ibreve" unicode="&#x12d;" horiz-adv-x="288" 
d="M63 0v516h162v-516h-162zM144 590q-74 0 -123.5 37t-66.5 106l93 25q25 -81 97 -81q36 0 60.5 20.5t37.5 60.5l92 -25q-17 -69 -66.5 -106t-123.5 -37z" />
    <glyph glyph-name="Iogonek" unicode="&#x12e;" horiz-adv-x="308" 
d="M176 -231q-49 0 -78.5 27.5t-29.5 71.5q0 38 21 69.5t67 62.5h-88v700h172v-700q-43 -26 -64 -51t-21 -52q0 -22 13.5 -34t35.5 -12q14 0 26 3t19 8l20 -70q-36 -23 -93 -23z" />
    <glyph glyph-name="iogonek" unicode="&#x12f;" horiz-adv-x="288" 
d="M144 595q-37 0 -64 27t-27 64q0 38 27 64.5t64 26.5q38 0 64.5 -26.5t26.5 -64.5q0 -37 -26.5 -64t-64.5 -27zM161 -231q-49 0 -78.5 27.5t-29.5 71.5q0 38 21 69.5t67 62.5h-78v516h162v-516q-43 -26 -64 -51t-21 -52q0 -22 13.5 -34t35.5 -12q14 0 26 3t19 8l20 -70
q-36 -23 -93 -23z" />
    <glyph glyph-name="Idotaccent" unicode="&#x130;" horiz-adv-x="308" 
d="M68 0v700h172v-700h-172zM154 786q-37 0 -62.5 26t-25.5 62q0 37 25.5 63t62.5 26q36 0 62 -26t26 -62q0 -37 -26 -63t-62 -26z" />
    <glyph glyph-name="dotlessi" unicode="&#x131;" horiz-adv-x="288" 
d="M63 0v516h162v-516h-162z" />
    <glyph glyph-name="IJ" unicode="&#x132;" horiz-adv-x="978" 
d="M68 0v700h172v-700h-172zM622 -10q-109 0 -183.5 55t-104.5 159l159 57q18 -61 50 -90.5t80 -29.5q53 0 86 38.5t33 99.5v421h172v-426q0 -85 -36.5 -149t-102 -99.5t-153.5 -35.5z" />
    <glyph glyph-name="ij" unicode="&#x133;" horiz-adv-x="576" 
d="M63 0v516h162v-516h-162zM144 595q-37 0 -64 27t-27 64q0 38 27 64.5t65 26.5q37 0 63.5 -26.5t26.5 -63.5q0 -38 -26.5 -65t-64.5 -27zM432 595q-37 0 -64 27t-27 64q0 38 27 64.5t64 26.5q38 0 64.5 -26.5t26.5 -64.5q0 -37 -26.5 -64t-64.5 -27zM334 -219q-21 0 -44 3
t-36 7v123q11 -2 21.5 -3t23.5 -1q27 0 39.5 11t12.5 33v562h162v-569q0 -79 -46.5 -122.5t-132.5 -43.5z" />
    <glyph glyph-name="Jcircumflex" unicode="&#x134;" horiz-adv-x="670" 
d="M314 -10q-109 0 -183.5 55t-104.5 159l159 57q18 -61 50 -90.5t80 -29.5q53 0 86 38.5t33 99.5v421h172v-426q0 -85 -36.5 -149t-102 -99.5t-153.5 -35.5zM593 783l-82 83l-81 -83h-123l128 151h156l128 -151h-126z" />
    <glyph glyph-name="jcircumflex" unicode="&#x135;" horiz-adv-x="288" 
d="M46 -219q-19 0 -42.5 3t-37.5 7v123q11 -2 21.5 -3t23.5 -1q27 0 39.5 11t12.5 33v562h162v-569q0 -79 -47 -122.5t-132 -43.5zM224 599l-82 83l-81 -83h-123l128 151h156l128 -151h-126z" />
    <glyph glyph-name="uni0136" unicode="&#x136;" horiz-adv-x="738" 
d="M78 0v700h172v-304l261 304h205l-306 -329l324 -371h-225l-259 318v-318h-172zM256 -305l63 215h144l-95 -215h-112z" />
    <glyph glyph-name="uni0137" unicode="&#x137;" horiz-adv-x="604" 
d="M63 0v715l162 25v-429l180 205h179l-210 -231l225 -285h-202l-172 228v-228h-162zM177 -305l63 215h144l-95 -215h-112z" />
    <glyph glyph-name="kgreenlandic" unicode="&#x138;" horiz-adv-x="604" 
d="M63 0v516h162v-205l180 205h179l-210 -231l225 -285h-202l-172 228v-228h-162z" />
    <glyph glyph-name="Lacute" unicode="&#x139;" horiz-adv-x="648" 
d="M78 0v700h172v-553h347v-147h-519zM71 785l138 146h193l-192 -146h-139z" />
    <glyph glyph-name="lacute" unicode="&#x13a;" horiz-adv-x="288" 
d="M63 0v712l162 25v-737h-162zM52 780l138 146h193l-192 -146h-139z" />
    <glyph glyph-name="uni013B" unicode="&#x13b;" horiz-adv-x="648" 
d="M78 0v700h172v-553h347v-147h-519zM226 -305l63 215h144l-95 -215h-112z" />
    <glyph glyph-name="uni013C" unicode="&#x13c;" horiz-adv-x="288" 
d="M63 0v712l162 25v-737h-162zM10 -305l63 215h144l-95 -215h-112z" />
    <glyph glyph-name="Lcaron" unicode="&#x13d;" horiz-adv-x="643" 
d="M78 0v700h172v-553h347v-147h-519zM408 498l4 216l125 23l-40 -239h-89z" />
    <glyph glyph-name="lcaron" unicode="&#x13e;" horiz-adv-x="455" 
d="M78 0v712l162 25v-737h-162zM327 498l4 216l125 23l-40 -239h-89z" />
    <glyph glyph-name="Lslash" unicode="&#x141;" horiz-adv-x="677" 
d="M107 0v211l-97 -57v142l97 57v347h172v-247l153 90v-142l-153 -90v-164h347v-147h-519z" />
    <glyph glyph-name="lslash" unicode="&#x142;" horiz-adv-x="322" 
d="M81 0v222l-90 -62v151l90 62v339l162 25v-253l88 61v-152l-88 -60v-333h-162z" />
    <glyph glyph-name="Nacute" unicode="&#x143;" horiz-adv-x="788" 
d="M78 0v700h162l311 -424l-3 424h162v-700h-152l-321 438l3 -438h-162zM295 785l138 146h193l-192 -146h-139z" />
    <glyph glyph-name="nacute" unicode="&#x144;" horiz-adv-x="618" 
d="M63 0v516h162v-84q30 45 71.5 68.5t91.5 23.5t88.5 -22.5t60.5 -62t22 -91.5v-348h-162v301q0 44 -23.5 70t-62.5 26q-26 0 -47.5 -10.5t-38.5 -32.5v-354h-162zM216 601l138 146h193l-192 -146h-139z" />
    <glyph glyph-name="uni0145" unicode="&#x145;" horiz-adv-x="788" 
d="M78 0v700h162l311 -424l-3 424h162v-700h-152l-321 438l3 -438h-162zM253 -305l63 215h144l-95 -215h-112z" />
    <glyph glyph-name="uni0146" unicode="&#x146;" horiz-adv-x="618" 
d="M63 0v516h162v-84q30 45 71.5 68.5t91.5 23.5t88.5 -22.5t60.5 -62t22 -91.5v-348h-162v301q0 44 -23.5 70t-62.5 26q-26 0 -47.5 -10.5t-38.5 -32.5v-354h-162zM174 -305l63 215h144l-95 -215h-112z" />
    <glyph glyph-name="Ncaron" unicode="&#x147;" horiz-adv-x="788" 
d="M78 0v700h162l311 -424l-3 424h162v-700h-152l-321 438l3 -438h-162zM307 939l82 -83l81 83h123l-128 -151h-156l-128 151h126z" />
    <glyph glyph-name="ncaron" unicode="&#x148;" horiz-adv-x="618" 
d="M63 0v516h162v-84q30 45 71.5 68.5t91.5 23.5t88.5 -22.5t60.5 -62t22 -91.5v-348h-162v301q0 44 -23.5 70t-62.5 26q-26 0 -47.5 -10.5t-38.5 -32.5v-354h-162zM228 755l82 -83l81 83h123l-128 -151h-156l-128 151h126z" />
    <glyph glyph-name="Eng" unicode="&#x14a;" horiz-adv-x="788" 
d="M535 -219q-19 0 -41.5 3t-36.5 7v122q20 -4 46 -4q27 0 40 11.5t13 36.5v46l-316 425v-428h-162v700h162l308 -414v414h162v-753q0 -79 -45.5 -122.5t-129.5 -43.5z" />
    <glyph glyph-name="eng" unicode="&#x14b;" horiz-adv-x="618" 
d="M381 -219q-20 0 -43.5 3t-36.5 7v127q11 -2 21.5 -3t24.5 -1q26 0 38 11t12 33v343q0 44 -23.5 70t-62.5 26q-26 0 -47.5 -10.5t-38.5 -32.5v-354h-162v516h162v-84q30 45 71.5 68.5t91.5 23.5t88.5 -22.5t60.5 -62t22 -91.5v-400q0 -80 -46 -123.5t-132 -43.5z" />
    <glyph glyph-name="Omacron" unicode="&#x14c;" horiz-adv-x="814" 
d="M407 -11q-76 0 -142 27.5t-115.5 77t-77 115t-27.5 141.5t27.5 141.5t77 115t115.5 77t142 27.5t142 -27.5t115.5 -77t77 -115t27.5 -141.5t-27.5 -141.5t-77 -115t-115.5 -77t-142 -27.5zM407 142q39 0 73 15.5t59 44t39 66t14 82.5t-14 82.5t-39 66t-59 44t-73 15.5
t-73 -15.5t-59 -44t-39 -66t-14 -82.5t14 -82.5t39 -66t59 -44t73 -15.5zM243 810v100h329v-100h-329z" />
    <glyph glyph-name="omacron" unicode="&#x14d;" horiz-adv-x="618" 
d="M309 -10q-76 0 -137 35t-96.5 95.5t-35.5 136.5t35.5 136.5t96.5 95.5t137 35q77 0 137.5 -35t96 -95.5t35.5 -136.5t-35.5 -136.5t-96 -95.5t-137.5 -35zM309 125q33 0 58 17t39 47t14 68q0 39 -14 68.5t-39 46.5t-58 17q-32 0 -57.5 -17t-39.5 -46.5t-14 -68.5
q0 -38 14 -68t39.5 -47t57.5 -17zM145 626v100h329v-100h-329z" />
    <glyph glyph-name="Obreve" unicode="&#x14e;" horiz-adv-x="814" 
d="M407 -11q-76 0 -142 27.5t-115.5 77t-77 115t-27.5 141.5t27.5 141.5t77 115t115.5 77t142 27.5t142 -27.5t115.5 -77t77 -115t27.5 -141.5t-27.5 -141.5t-77 -115t-115.5 -77t-142 -27.5zM407 142q39 0 73 15.5t59 44t39 66t14 82.5t-14 82.5t-39 66t-59 44t-73 15.5
t-73 -15.5t-59 -44t-39 -66t-14 -82.5t14 -82.5t39 -66t59 -44t73 -15.5zM407 774q-74 0 -123.5 37t-66.5 106l93 25q25 -81 97 -81q36 0 60.5 20.5t37.5 60.5l92 -25q-17 -69 -66.5 -106t-123.5 -37z" />
    <glyph glyph-name="obreve" unicode="&#x14f;" horiz-adv-x="618" 
d="M309 -10q-76 0 -137 35t-96.5 95.5t-35.5 136.5t35.5 136.5t96.5 95.5t137 35q77 0 137.5 -35t96 -95.5t35.5 -136.5t-35.5 -136.5t-96 -95.5t-137.5 -35zM309 125q33 0 58 17t39 47t14 68q0 39 -14 68.5t-39 46.5t-58 17q-32 0 -57.5 -17t-39.5 -46.5t-14 -68.5
q0 -38 14 -68t39.5 -47t57.5 -17zM309 590q-74 0 -123.5 37t-66.5 106l93 25q25 -81 97 -81q36 0 60.5 20.5t37.5 60.5l92 -25q-17 -69 -66.5 -106t-123.5 -37z" />
    <glyph glyph-name="Ohungarumlaut" unicode="&#x150;" horiz-adv-x="814" 
d="M407 -11q-76 0 -142 27.5t-115.5 77t-77 115t-27.5 141.5t27.5 141.5t77 115t115.5 77t142 27.5t142 -27.5t115.5 -77t77 -115t27.5 -141.5t-27.5 -141.5t-77 -115t-115.5 -77t-142 -27.5zM407 142q39 0 73 15.5t59 44t39 66t14 82.5t-14 82.5t-39 66t-59 44t-73 15.5
t-73 -15.5t-59 -44t-39 -66t-14 -82.5t14 -82.5t39 -66t59 -44t73 -15.5zM212 787l135 143h144l-158 -143h-121zM439 787l135 143h146l-169 -143h-112z" />
    <glyph glyph-name="ohungarumlaut" unicode="&#x151;" horiz-adv-x="618" 
d="M309 -10q-76 0 -137 35t-96.5 95.5t-35.5 136.5t35.5 136.5t96.5 95.5t137 35q77 0 137.5 -35t96 -95.5t35.5 -136.5t-35.5 -136.5t-96 -95.5t-137.5 -35zM309 125q33 0 58 17t39 47t14 68q0 39 -14 68.5t-39 46.5t-58 17q-32 0 -57.5 -17t-39.5 -46.5t-14 -68.5
q0 -38 14 -68t39.5 -47t57.5 -17zM114 603l135 143h144l-158 -143h-121zM341 603l135 143h146l-169 -143h-112z" />
    <glyph glyph-name="OE" unicode="&#x152;" horiz-adv-x="1076" 
d="M401 0q-77 0 -142 26t-113 73.5t-74.5 111.5t-26.5 139t26.5 139t74.5 111.5t113 73.5t142 26h618v-149h-351q20 -28 34 -59.5t21 -66.5h179v-144h-178q-7 -36 -21.5 -69.5t-35.5 -62.5h352v-149h-618zM391 147q50 0 90 27t63.5 73t23.5 103q0 58 -23.5 103.5t-63.5 72.5
t-90 27t-90 -27t-63.5 -72.5t-23.5 -103.5q0 -57 23.5 -103t63.5 -73t90 -27z" />
    <glyph glyph-name="oe" unicode="&#x153;" horiz-adv-x="975" 
d="M309 -10q-76 0 -137 35.5t-96.5 96t-35.5 135.5q0 76 35.5 136.5t96.5 95.5t137 35q57 0 105.5 -21t83.5 -59q34 38 82 59.5t103 21.5q75 0 132 -35t89.5 -96.5t32.5 -142.5v-35h-355q8 -29 25 -51t42 -34t54 -12q32 0 58.5 11t43.5 32l107 -89q-50 -44 -101 -63.5
t-116 -19.5q-58 0 -108.5 22.5t-86.5 60.5q-35 -39 -84 -61t-107 -22zM309 127q33 0 58.5 16.5t39.5 46t14 67.5q0 39 -14.5 68.5t-39.5 46.5t-58 17q-32 0 -57.5 -17t-39.5 -46.5t-14 -68.5q0 -38 14 -67.5t39.5 -46t57.5 -16.5zM582 308h205q-6 28 -21 48.5t-36.5 31.5
t-47.5 11q-25 0 -45.5 -11t-34 -31t-20.5 -49z" />
    <glyph glyph-name="Racute" unicode="&#x154;" horiz-adv-x="703" 
d="M78 0v700h340q72 0 128 -28.5t87.5 -79t31.5 -115.5q0 -67 -35.5 -118.5t-94.5 -77.5l147 -281h-192l-127 257h-113v-257h-172zM250 392h152q40 0 64.5 23t24.5 60q0 38 -24.5 60.5t-64.5 22.5h-152v-166zM257 785l138 146h193l-192 -146h-139z" />
    <glyph glyph-name="racute" unicode="&#x155;" horiz-adv-x="442" 
d="M63 0v516h162v-117q25 65 59.5 96t80.5 31q17 -1 28 -3t26 -10v-139q-15 8 -35 12t-41 4q-36 0 -67 -17.5t-51 -46.5v-326h-162zM174 601l138 146h193l-192 -146h-139z" />
    <glyph glyph-name="uni0156" unicode="&#x156;" horiz-adv-x="703" 
d="M78 0v700h340q72 0 128 -28.5t87.5 -79t31.5 -115.5q0 -67 -35.5 -118.5t-94.5 -77.5l147 -281h-192l-127 257h-113v-257h-172zM250 392h152q40 0 64.5 23t24.5 60q0 38 -24.5 60.5t-64.5 22.5h-152v-166zM221 -305l63 215h144l-95 -215h-112z" />
    <glyph glyph-name="uni0157" unicode="&#x157;" horiz-adv-x="442" 
d="M63 0v516h162v-117q25 65 59.5 96t80.5 31q17 -1 28 -3t26 -10v-139q-15 8 -35 12t-41 4q-36 0 -67 -17.5t-51 -46.5v-326h-162zM8 -305l63 215h144l-95 -215h-112z" />
    <glyph glyph-name="Rcaron" unicode="&#x158;" horiz-adv-x="703" 
d="M78 0v700h340q72 0 128 -28.5t87.5 -79t31.5 -115.5q0 -67 -35.5 -118.5t-94.5 -77.5l147 -281h-192l-127 257h-113v-257h-172zM250 392h152q40 0 64.5 23t24.5 60q0 38 -24.5 60.5t-64.5 22.5h-152v-166zM269 939l82 -83l81 83h123l-128 -151h-156l-128 151h126z" />
    <glyph glyph-name="rcaron" unicode="&#x159;" horiz-adv-x="442" 
d="M63 0v516h162v-117q25 65 59.5 96t80.5 31q17 -1 28 -3t26 -10v-139q-15 8 -35 12t-41 4q-36 0 -67 -17.5t-51 -46.5v-326h-162zM186 755l82 -83l81 83h123l-128 -151h-156l-128 151h126z" />
    <glyph glyph-name="Sacute" unicode="&#x15a;" horiz-adv-x="655" 
d="M322 -11q-83 0 -158 27t-145 79l88 127q73 -51 124 -72t103 -21q37 0 63.5 9.5t41 26t14.5 38.5q0 31 -20.5 47.5t-71.5 25.5l-149 26q-83 14 -127.5 64t-44.5 124q0 68 33 117.5t95.5 76.5t149.5 27q81 0 157 -24.5t130 -67.5l-87 -125q-51 39 -102 58t-107 19
q-34 0 -58 -8.5t-36.5 -23.5t-12.5 -34q0 -27 18.5 -41.5t60.5 -22.5l140 -24q98 -16 149 -67t51 -131q0 -68 -36.5 -120t-103.5 -81t-159 -29zM228 785l138 146h193l-192 -146h-139z" />
    <glyph glyph-name="sacute" unicode="&#x15b;" horiz-adv-x="511" 
d="M258 -10q-70 0 -131 16t-106 47l71 108q56 -29 92.5 -40.5t73.5 -11.5q35 0 54.5 11.5t19.5 30.5q0 15 -11.5 24t-36.5 13l-99 18q-75 14 -113.5 52t-38.5 98q0 53 26 90.5t74.5 57.5t115.5 20q54 0 107 -15t103 -44l-74 -103q-39 23 -75.5 33.5t-72.5 10.5
q-29 0 -45.5 -9t-16.5 -26q0 -16 11.5 -24t41.5 -13l97 -18q77 -14 116 -52t39 -97q0 -50 -29 -90.5t-79 -63.5t-114 -23zM152 601l138 146h193l-192 -146h-139z" />
    <glyph glyph-name="Scircumflex" unicode="&#x15c;" horiz-adv-x="655" 
d="M322 -11q-83 0 -158 27t-145 79l88 127q73 -51 124 -72t103 -21q37 0 63.5 9.5t41 26t14.5 38.5q0 31 -20.5 47.5t-71.5 25.5l-149 26q-83 14 -127.5 64t-44.5 124q0 68 33 117.5t95.5 76.5t149.5 27q81 0 157 -24.5t130 -67.5l-87 -125q-51 39 -102 58t-107 19
q-34 0 -58 -8.5t-36.5 -23.5t-12.5 -34q0 -27 18.5 -41.5t60.5 -22.5l140 -24q98 -16 149 -67t51 -131q0 -68 -36.5 -120t-103.5 -81t-159 -29zM400 783l-82 83l-81 -83h-123l128 151h156l128 -151h-126z" />
    <glyph glyph-name="scircumflex" unicode="&#x15d;" horiz-adv-x="511" 
d="M258 -10q-70 0 -131 16t-106 47l71 108q56 -29 92.5 -40.5t73.5 -11.5q35 0 54.5 11.5t19.5 30.5q0 15 -11.5 24t-36.5 13l-99 18q-75 14 -113.5 52t-38.5 98q0 53 26 90.5t74.5 57.5t115.5 20q54 0 107 -15t103 -44l-74 -103q-39 23 -75.5 33.5t-72.5 10.5
q-29 0 -45.5 -9t-16.5 -26q0 -16 11.5 -24t41.5 -13l97 -18q77 -14 116 -52t39 -97q0 -50 -29 -90.5t-79 -63.5t-114 -23zM324 599l-82 83l-81 -83h-123l128 151h156l128 -151h-126z" />
    <glyph glyph-name="Scedilla" unicode="&#x15e;" horiz-adv-x="655" 
d="M312 -254q-44 0 -77.5 10.5t-57.5 31.5l49 57q36 -28 77 -28q26 0 40 9.5t14 27.5q0 17 -15 26t-41 9h-45l25 102q-71 6 -136 32.5t-126 71.5l88 127q73 -51 124 -72t103 -21q37 0 63.5 9.5t41 26t14.5 38.5q0 31 -20.5 47.5t-71.5 25.5l-149 26q-83 14 -127.5 64
t-44.5 124q0 68 33 117.5t95.5 76.5t149.5 27q81 0 157 -24.5t130 -67.5l-87 -125q-51 39 -102 58t-107 19q-34 0 -58 -8.5t-36.5 -23.5t-12.5 -34q0 -27 18.5 -41.5t60.5 -22.5l140 -24q98 -16 149 -67t51 -131q0 -64 -32.5 -114t-92.5 -80t-142 -35l-12 -48
q47 -4 74.5 -26.5t27.5 -59.5q0 -46 -38 -78t-94 -32z" />
    <glyph glyph-name="scedilla" unicode="&#x15f;" horiz-adv-x="511" 
d="M250 -254q-44 0 -77.5 10.5t-57.5 31.5l49 57q36 -28 77 -28q26 0 40 9.5t14 27.5q0 17 -15 26t-41 9h-45l25 102q-120 9 -198 62l71 108q56 -29 92.5 -40.5t73.5 -11.5q35 0 54.5 11.5t19.5 30.5q0 15 -11.5 24t-36.5 13l-99 18q-75 14 -113.5 52t-38.5 98q0 53 26 90.5
t74.5 57.5t115.5 20q54 0 107 -15t103 -44l-74 -103q-39 23 -75.5 33.5t-72.5 10.5q-29 0 -45.5 -9t-16.5 -26q0 -16 11.5 -24t41.5 -13l97 -18q77 -14 116 -52t39 -97q0 -46 -24 -83.5t-66.5 -61.5t-97.5 -30l-12 -50q47 -4 74.5 -26.5t27.5 -59.5q0 -46 -38 -78t-94 -32z
" />
    <glyph glyph-name="Scaron" unicode="&#x160;" horiz-adv-x="655" 
d="M322 -11q-83 0 -158 27t-145 79l88 127q73 -51 124 -72t103 -21q37 0 63.5 9.5t41 26t14.5 38.5q0 31 -20.5 47.5t-71.5 25.5l-149 26q-83 14 -127.5 64t-44.5 124q0 68 33 117.5t95.5 76.5t149.5 27q81 0 157 -24.5t130 -67.5l-87 -125q-51 39 -102 58t-107 19
q-34 0 -58 -8.5t-36.5 -23.5t-12.5 -34q0 -27 18.5 -41.5t60.5 -22.5l140 -24q98 -16 149 -67t51 -131q0 -68 -36.5 -120t-103.5 -81t-159 -29zM240 939l82 -83l81 83h123l-128 -151h-156l-128 151h126z" />
    <glyph glyph-name="scaron" unicode="&#x161;" horiz-adv-x="511" 
d="M258 -10q-70 0 -131 16t-106 47l71 108q56 -29 92.5 -40.5t73.5 -11.5q35 0 54.5 11.5t19.5 30.5q0 15 -11.5 24t-36.5 13l-99 18q-75 14 -113.5 52t-38.5 98q0 53 26 90.5t74.5 57.5t115.5 20q54 0 107 -15t103 -44l-74 -103q-39 23 -75.5 33.5t-72.5 10.5
q-29 0 -45.5 -9t-16.5 -26q0 -16 11.5 -24t41.5 -13l97 -18q77 -14 116 -52t39 -97q0 -50 -29 -90.5t-79 -63.5t-114 -23zM164 755l82 -83l81 83h123l-128 -151h-156l-128 151h126z" />
    <glyph glyph-name="uni0162" unicode="&#x162;" horiz-adv-x="664" 
d="M325 -254q-44 0 -77.5 10.5t-57.5 31.5l49 57q36 -28 77 -28q26 0 40 9.5t14 27.5q0 17 -15 26t-41 9h-45l27 111h-50v553h-225v147h622v-147h-225v-553h-49l-14 -58q47 -4 74.5 -26.5t27.5 -59.5q0 -46 -38 -78t-94 -32z" />
    <glyph glyph-name="uni0163" unicode="&#x163;" horiz-adv-x="458" 
d="M273 -254q-44 0 -77.5 10.5t-57.5 31.5l49 57q36 -28 77 -28q26 0 40 9.5t14 27.5q0 17 -15 26t-41 9h-45l27 109q-113 29 -113 158v235h-100v125h100v143l162 33v-176h138v-125h-138v-203q0 -34 15.5 -48t52.5 -14q14 0 28 2t38 9v-131q-22 -7 -54 -11.5t-57 -4.5h-0.5
h-0.5l-12 -48q47 -4 74.5 -26.5t27.5 -59.5q0 -46 -38 -78t-94 -32z" />
    <glyph glyph-name="Tcaron" unicode="&#x164;" horiz-adv-x="664" 
d="M246 0v553h-225v147h622v-147h-225v-553h-172zM252 939l82 -83l81 83h123l-128 -151h-156l-128 151h126z" />
    <glyph glyph-name="tcaron" unicode="&#x165;" horiz-adv-x="458" 
d="M361 602l4 182l125 23l-40 -205h-89zM316 -10q-91 0 -138 42t-47 124v235h-100v125h100v143l162 33v-176h138v-125h-138v-203q0 -34 15.5 -48t52.5 -14q14 0 28 2t38 9v-131q-22 -7 -54 -11.5t-57 -4.5z" />
    <glyph glyph-name="Tbar" unicode="&#x166;" horiz-adv-x="664" 
d="M246 0v259h-122v120h122v174h-225v147h622v-147h-225v-174h122v-120h-122v-259h-172z" />
    <glyph glyph-name="tbar" unicode="&#x167;" horiz-adv-x="458" 
d="M316 -10q-91 0 -138 42t-47 124v70h-100v88h100v77h-100v125h100v143l162 33v-176h138v-125h-138v-77h138v-88h-138v-38q0 -34 15.5 -48t52.5 -14q14 0 28 2t38 9v-131q-22 -7 -54 -11.5t-57 -4.5z" />
    <glyph glyph-name="Utilde" unicode="&#x168;" horiz-adv-x="748" 
d="M374 -10q-94 0 -164 38.5t-108 109t-38 166.5v396h172v-396q0 -48 17 -84t48 -56t73 -20t73 20t48 56t17 84v396h172v-396q0 -96 -38 -166.5t-107.5 -109t-164.5 -38.5zM252 774l-90 21q17 71 49 106.5t80 35.5q30 0 58 -15t52.5 -30t42.5 -15q15 0 24.5 14.5t19.5 52.5
l90 -21q-17 -70 -47.5 -106t-76.5 -36q-29 0 -57.5 15t-53 30t-42.5 15q-16 0 -27 -14.5t-22 -52.5z" />
    <glyph glyph-name="utilde" unicode="&#x169;" horiz-adv-x="618" 
d="M230 -8q-50 0 -88.5 22.5t-60.5 62t-22 91.5v348h162v-301q0 -43 23.5 -69.5t62.5 -26.5q26 0 47.5 10.5t38.5 32.5v354h162v-516h-162v84q-30 -45 -71.5 -68.5t-91.5 -23.5zM182 590l-90 21q17 71 49 106.5t80 35.5q30 0 58 -15t52.5 -30t42.5 -15q15 0 24.5 14.5
t19.5 52.5l90 -21q-17 -70 -47.5 -106t-76.5 -36q-29 0 -57.5 15t-53 30t-42.5 15q-16 0 -27 -14.5t-22 -52.5z" />
    <glyph glyph-name="Umacron" unicode="&#x16a;" horiz-adv-x="748" 
d="M374 -10q-94 0 -164 38.5t-108 109t-38 166.5v396h172v-396q0 -48 17 -84t48 -56t73 -20t73 20t48 56t17 84v396h172v-396q0 -96 -38 -166.5t-107.5 -109t-164.5 -38.5zM206 810v100h329v-100h-329z" />
    <glyph glyph-name="umacron" unicode="&#x16b;" horiz-adv-x="618" 
d="M230 -8q-50 0 -88.5 22.5t-60.5 62t-22 91.5v348h162v-301q0 -43 23.5 -69.5t62.5 -26.5q26 0 47.5 10.5t38.5 32.5v354h162v-516h-162v84q-30 -45 -71.5 -68.5t-91.5 -23.5zM136 626v100h329v-100h-329z" />
    <glyph glyph-name="Ubreve" unicode="&#x16c;" horiz-adv-x="748" 
d="M374 -10q-94 0 -164 38.5t-108 109t-38 166.5v396h172v-396q0 -48 17 -84t48 -56t73 -20t73 20t48 56t17 84v396h172v-396q0 -96 -38 -166.5t-107.5 -109t-164.5 -38.5zM370 774q-74 0 -123.5 37t-66.5 106l93 25q25 -81 97 -81q36 0 60.5 20.5t37.5 60.5l92 -25
q-17 -69 -66.5 -106t-123.5 -37z" />
    <glyph glyph-name="ubreve" unicode="&#x16d;" horiz-adv-x="618" 
d="M230 -8q-50 0 -88.5 22.5t-60.5 62t-22 91.5v348h162v-301q0 -43 23.5 -69.5t62.5 -26.5q26 0 47.5 10.5t38.5 32.5v354h162v-516h-162v84q-30 -45 -71.5 -68.5t-91.5 -23.5zM300 590q-74 0 -123.5 37t-66.5 106l93 25q25 -81 97 -81q36 0 60.5 20.5t37.5 60.5l92 -25
q-17 -69 -66.5 -106t-123.5 -37z" />
    <glyph glyph-name="Uring" unicode="&#x16e;" horiz-adv-x="748" 
d="M374 -10q-94 0 -164 38.5t-108 109t-38 166.5v396h172v-396q0 -48 17 -84t48 -56t73 -20t73 20t48 56t17 84v396h172v-396q0 -96 -38 -166.5t-107.5 -109t-164.5 -38.5zM370 770q-35 0 -64 17t-46 45t-17 62t17 62t46 45t64 17t64 -17t46 -45t17 -62t-17 -62t-46 -45
t-64 -17zM370 834q25 0 42.5 17.5t17.5 42.5t-17.5 42.5t-42.5 17.5t-42.5 -17.5t-17.5 -42.5t17.5 -42.5t42.5 -17.5z" />
    <glyph glyph-name="uring" unicode="&#x16f;" horiz-adv-x="618" 
d="M230 -8q-50 0 -88.5 22.5t-60.5 62t-22 91.5v348h162v-301q0 -43 23.5 -69.5t62.5 -26.5q26 0 47.5 10.5t38.5 32.5v354h162v-516h-162v84q-30 -45 -71.5 -68.5t-91.5 -23.5zM300 586q-35 0 -64 17t-46 45t-17 62t17 62t46 45t64 17t64 -17t46 -45t17 -62t-17 -62
t-46 -45t-64 -17zM300 650q25 0 42.5 17.5t17.5 42.5t-17.5 42.5t-42.5 17.5t-42.5 -17.5t-17.5 -42.5t17.5 -42.5t42.5 -17.5z" />
    <glyph glyph-name="Uhungarumlaut" unicode="&#x170;" horiz-adv-x="748" 
d="M374 -10q-94 0 -164 38.5t-108 109t-38 166.5v396h172v-396q0 -48 17 -84t48 -56t73 -20t73 20t48 56t17 84v396h172v-396q0 -96 -38 -166.5t-107.5 -109t-164.5 -38.5zM175 787l135 143h144l-158 -143h-121zM402 787l135 143h146l-169 -143h-112z" />
    <glyph glyph-name="uhungarumlaut" unicode="&#x171;" horiz-adv-x="618" 
d="M230 -8q-50 0 -88.5 22.5t-60.5 62t-22 91.5v348h162v-301q0 -43 23.5 -69.5t62.5 -26.5q26 0 47.5 10.5t38.5 32.5v354h162v-516h-162v84q-30 -45 -71.5 -68.5t-91.5 -23.5zM105 603l135 143h144l-158 -143h-121zM332 603l135 143h146l-169 -143h-112z" />
    <glyph glyph-name="Uogonek" unicode="&#x172;" horiz-adv-x="748" 
d="M399 -231q-49 0 -78.5 27.5t-29.5 71.5q0 35 18 64.5t57 57.5q-92 2 -160 40.5t-105 108.5t-37 165v396h172v-396q0 -48 17 -84t48 -56t73 -20t73 20t48 56t17 84v396h172v-396q0 -120 -59 -199.5t-162 -104.5q-43 -26 -64 -51t-21 -52q0 -22 13.5 -34t35.5 -12
q14 0 26 3t19 8l20 -70q-36 -23 -93 -23z" />
    <glyph glyph-name="uogonek" unicode="&#x173;" horiz-adv-x="618" 
d="M491 -231q-49 0 -78.5 27.5t-29.5 71.5q0 38 21 69.5t67 62.5h-78v84q-30 -45 -71.5 -68.5t-91.5 -23.5t-88.5 22.5t-60.5 62t-22 91.5v348h162v-301q0 -43 23.5 -69.5t62.5 -26.5q26 0 47.5 10.5t38.5 32.5v354h162v-516q-43 -26 -64 -51t-21 -52q0 -22 13.5 -34
t35.5 -12q14 0 26 3t19 8l20 -70q-36 -23 -93 -23z" />
    <glyph glyph-name="Wcircumflex" unicode="&#x174;" horiz-adv-x="983" 
d="M186 0l-156 700h177l85 -434l122 434h161l122 -434l85 434h171l-156 -700h-182l-123 451l-124 -451h-182zM570 783l-82 83l-81 -83h-123l128 151h156l128 -151h-126z" />
    <glyph glyph-name="wcircumflex" unicode="&#x175;" horiz-adv-x="783" 
d="M154 0l-138 516h153l72 -308l87 308h133l86 -307l71 307h149l-137 -516h-154l-84 304l-82 -304h-156zM473 599l-82 83l-81 -83h-123l128 151h156l128 -151h-126z" />
    <glyph glyph-name="Ycircumflex" unicode="&#x176;" horiz-adv-x="739" 
d="M283 0v265l-284 435h198l177 -287l179 287h187l-285 -434v-266h-172zM446 783l-82 83l-81 -83h-123l128 151h156l128 -151h-126z" />
    <glyph glyph-name="ycircumflex" unicode="&#x177;" horiz-adv-x="584" 
d="M119 -219q-32 0 -67 8v136q9 -1 21.5 -2.5t26.5 -1.5q33 0 52.5 13.5t31.5 38.5l8 17l-190 526h179l103 -333l118 333h175l-232 -574q-24 -59 -53.5 -94.5t-71 -51t-101.5 -15.5zM370 599l-82 83l-81 -83h-123l128 151h156l128 -151h-126z" />
    <glyph glyph-name="Ydieresis" unicode="&#x178;" horiz-adv-x="739" 
d="M283 0v265l-284 435h198l177 -287l179 287h187l-285 -434v-266h-172zM250 786q-34 0 -57.5 23t-23.5 59t23.5 59t57.5 23q35 0 58 -23t23 -59t-23 -59t-58 -23zM482 786q-34 0 -57.5 23t-23.5 59t23.5 59t57.5 23q35 0 58 -23t23 -59t-23 -59t-58 -23z" />
    <glyph glyph-name="Zacute" unicode="&#x179;" horiz-adv-x="623" 
d="M29 0v112l347 447l-345 -3v144h565v-112l-345 -447l348 3v-144h-570zM223 785l138 146h193l-192 -146h-139z" />
    <glyph glyph-name="zacute" unicode="&#x17a;" horiz-adv-x="510" 
d="M36 0v113l231 269l-229 -2v136h428v-113l-232 -270l240 2v-135h-438zM159 601l138 146h193l-192 -146h-139z" />
    <glyph glyph-name="Zdotaccent" unicode="&#x17b;" horiz-adv-x="623" 
d="M29 0v112l347 447l-345 -3v144h565v-112l-345 -447l348 3v-144h-570zM315 786q-37 0 -62.5 26t-25.5 62q0 37 25.5 63t62.5 26q36 0 62 -26t26 -62q0 -37 -26 -63t-62 -26z" />
    <glyph glyph-name="zdotaccent" unicode="&#x17c;" horiz-adv-x="510" 
d="M36 0v113l231 269l-229 -2v136h428v-113l-232 -270l240 2v-135h-438zM251 602q-37 0 -62.5 26t-25.5 62q0 37 25.5 63t62.5 26q36 0 62 -26t26 -62q0 -37 -26 -63t-62 -26z" />
    <glyph glyph-name="Zcaron" unicode="&#x17d;" horiz-adv-x="623" 
d="M29 0v112l347 447l-345 -3v144h565v-112l-345 -447l348 3v-144h-570zM235 939l82 -83l81 83h123l-128 -151h-156l-128 151h126z" />
    <glyph glyph-name="zcaron" unicode="&#x17e;" horiz-adv-x="510" 
d="M36 0v113l231 269l-229 -2v136h428v-113l-232 -270l240 2v-135h-438zM171 755l82 -83l81 83h123l-128 -151h-156l-128 151h126z" />
    <glyph glyph-name="uni0218" unicode="&#x218;" horiz-adv-x="655" 
d="M322 -11q-83 0 -158 27t-145 79l88 127q73 -51 124 -72t103 -21q37 0 63.5 9.5t41 26t14.5 38.5q0 31 -20.5 47.5t-71.5 25.5l-149 26q-83 14 -127.5 64t-44.5 124q0 68 33 117.5t95.5 76.5t149.5 27q81 0 157 -24.5t130 -67.5l-87 -125q-51 39 -102 58t-107 19
q-34 0 -58 -8.5t-36.5 -23.5t-12.5 -34q0 -27 18.5 -41.5t60.5 -22.5l140 -24q98 -16 149 -67t51 -131q0 -68 -36.5 -120t-103.5 -81t-159 -29zM185 -305l63 215h144l-95 -215h-112z" />
    <glyph glyph-name="uni0219" unicode="&#x219;" horiz-adv-x="511" 
d="M258 -10q-70 0 -131 16t-106 47l71 108q56 -29 92.5 -40.5t73.5 -11.5q35 0 54.5 11.5t19.5 30.5q0 15 -11.5 24t-36.5 13l-99 18q-75 14 -113.5 52t-38.5 98q0 53 26 90.5t74.5 57.5t115.5 20q54 0 107 -15t103 -44l-74 -103q-39 23 -75.5 33.5t-72.5 10.5
q-29 0 -45.5 -9t-16.5 -26q0 -16 11.5 -24t41.5 -13l97 -18q77 -14 116 -52t39 -97q0 -50 -29 -90.5t-79 -63.5t-114 -23zM123 -305l63 215h144l-95 -215h-112z" />
    <glyph glyph-name="uni021A" unicode="&#x21a;" horiz-adv-x="664" 
d="M246 0v553h-225v147h622v-147h-225v-553h-172zM198 -305l63 215h144l-95 -215h-112z" />
    <glyph glyph-name="uni021B" unicode="&#x21b;" horiz-adv-x="458" 
d="M316 -10q-91 0 -138 42t-47 124v235h-100v125h100v143l162 33v-176h138v-125h-138v-203q0 -34 15.5 -48t52.5 -14q14 0 28 2t38 9v-131q-22 -7 -54 -11.5t-57 -4.5zM148 -305l63 215h144l-95 -215h-112z" />
    <glyph glyph-name="uni0237" unicode="&#x237;" horiz-adv-x="288" 
d="M46 -219q-19 0 -42.5 3t-37.5 7v123q11 -2 21.5 -3t23.5 -1q27 0 39.5 11t12.5 33v562h162v-569q0 -79 -47 -122.5t-132 -43.5z" />
    <glyph glyph-name="uni02BB" unicode="&#x2bb;" horiz-adv-x="275" 
d="M278 750l-75 -304h-159l118 304h116z" />
    <glyph glyph-name="uni02BC" unicode="&#x2bc;" horiz-adv-x="275" 
d="M29 446l75 304h159l-118 -304h-116z" />
    <glyph glyph-name="circumflex" unicode="&#x2c6;" 
d="M380 599l-82 83l-81 -83h-123l128 151h156l128 -151h-126z" />
    <glyph glyph-name="caron" unicode="&#x2c7;" 
d="M220 755l82 -83l81 83h123l-128 -151h-156l-128 151h126z" />
    <glyph glyph-name="breve" unicode="&#x2d8;" 
d="M300 590q-74 0 -123.5 37t-66.5 106l93 25q25 -81 97 -81q36 0 60.5 20.5t37.5 60.5l92 -25q-17 -69 -66.5 -106t-123.5 -37z" />
    <glyph glyph-name="dotaccent" unicode="&#x2d9;" 
d="M300 602q-37 0 -62.5 26t-25.5 62q0 37 25.5 63t62.5 26q36 0 62 -26t26 -62q0 -37 -26 -63t-62 -26z" />
    <glyph glyph-name="ring" unicode="&#x2da;" 
d="M300 586q-35 0 -64 17t-46 45t-17 62t17 62t46 45t64 17t64 -17t46 -45t17 -62t-17 -62t-46 -45t-64 -17zM300 650q25 0 42.5 17.5t17.5 42.5t-17.5 42.5t-42.5 17.5t-42.5 -17.5t-17.5 -42.5t17.5 -42.5t42.5 -17.5z" />
    <glyph glyph-name="ogonek" unicode="&#x2db;" 
d="M305 -231q-49 0 -78.5 27.5t-29.5 71.5t30 81t95 73l47 -22q-43 -26 -64 -51t-21 -52q0 -22 13.5 -34t35.5 -12q14 0 26 3t19 8l20 -70q-36 -23 -93 -23z" />
    <glyph glyph-name="tilde" unicode="&#x2dc;" 
d="M182 590l-90 21q17 71 49 106.5t80 35.5q30 0 58 -15t52.5 -30t42.5 -15q15 0 24.5 14.5t19.5 52.5l90 -21q-17 -70 -47.5 -106t-76.5 -36q-29 0 -57.5 15t-53 30t-42.5 15q-16 0 -27 -14.5t-22 -52.5z" />
    <glyph glyph-name="hungarumlaut" unicode="&#x2dd;" 
d="M105 603l135 143h144l-158 -143h-121zM332 603l135 143h146l-169 -143h-112z" />
    <glyph glyph-name="gravecomb" unicode="&#x300;" horiz-adv-x="0" 
d="M258 601l-192 146h202l138 -146h-148z" />
    <glyph glyph-name="acutecomb" unicode="&#x301;" horiz-adv-x="0" 
d="M198 601l138 146h193l-192 -146h-139z" />
    <glyph glyph-name="uni0302" unicode="&#x302;" horiz-adv-x="0" 
d="M380 599l-82 83l-81 -83h-123l128 151h156l128 -151h-126z" />
    <glyph glyph-name="tildecomb" unicode="&#x303;" horiz-adv-x="0" 
d="M182 590l-90 21q17 71 49 106.5t80 35.5q30 0 58 -15t52.5 -30t42.5 -15q15 0 24.5 14.5t19.5 52.5l90 -21q-17 -70 -47.5 -106t-76.5 -36q-29 0 -57.5 15t-53 30t-42.5 15q-16 0 -27 -14.5t-22 -52.5z" />
    <glyph glyph-name="uni0304" unicode="&#x304;" horiz-adv-x="0" 
d="M136 626v100h329v-100h-329z" />
    <glyph glyph-name="uni0306" unicode="&#x306;" horiz-adv-x="0" 
d="M300 590q-74 0 -123.5 37t-66.5 106l93 25q25 -81 97 -81q36 0 60.5 20.5t37.5 60.5l92 -25q-17 -69 -66.5 -106t-123.5 -37z" />
    <glyph glyph-name="uni0307" unicode="&#x307;" horiz-adv-x="0" 
d="M300 602q-37 0 -62.5 26t-25.5 62q0 37 25.5 63t62.5 26q36 0 62 -26t26 -62q0 -37 -26 -63t-62 -26z" />
    <glyph glyph-name="uni0308" unicode="&#x308;" horiz-adv-x="0" 
d="M184 602q-34 0 -57.5 23t-23.5 59t23.5 59t57.5 23q35 0 58 -23t23 -59t-23 -59t-58 -23zM416 602q-34 0 -57.5 23t-23.5 59t23.5 59t57.5 23q35 0 58 -23t23 -59t-23 -59t-58 -23z" />
    <glyph glyph-name="uni030A" unicode="&#x30a;" horiz-adv-x="0" 
d="M300 586q-35 0 -64 17t-46 45t-17 62t17 62t46 45t64 17t64 -17t46 -45t17 -62t-17 -62t-46 -45t-64 -17zM300 650q25 0 42.5 17.5t17.5 42.5t-17.5 42.5t-42.5 17.5t-42.5 -17.5t-17.5 -42.5t17.5 -42.5t42.5 -17.5z" />
    <glyph glyph-name="uni030B" unicode="&#x30b;" horiz-adv-x="0" 
d="M105 603l135 143h144l-158 -143h-121zM332 603l135 143h146l-169 -143h-112z" />
    <glyph glyph-name="uni030C" unicode="&#x30c;" horiz-adv-x="0" 
d="M220 755l82 -83l81 83h123l-128 -151h-156l-128 151h126z" />
    <glyph glyph-name="uni0312" unicode="&#x312;" horiz-adv-x="0" 
d="M45 556l118 304h116l-75 -304h-159z" />
    <glyph glyph-name="uni0326" unicode="&#x326;" horiz-adv-x="0" 
d="M171 -305l63 215h144l-95 -215h-112z" />
    <glyph glyph-name="uni0327" unicode="&#x327;" horiz-adv-x="0" 
d="M319 -254q-44 0 -77.5 10.5t-57.5 31.5l49 57q36 -28 77 -28q26 0 40 9.5t14 27.5q0 17 -15 26t-41 9h-45l27 111h73l-14 -58q47 -4 74.5 -26.5t27.5 -59.5q0 -46 -38 -78t-94 -32z" />
    <glyph glyph-name="uni0328" unicode="&#x328;" horiz-adv-x="0" 
d="M305 -231q-49 0 -78.5 27.5t-29.5 71.5t30 81t95 73l47 -22q-43 -26 -64 -51t-21 -52q0 -22 13.5 -34t35.5 -12q14 0 26 3t19 8l20 -70q-36 -23 -93 -23z" />
    <glyph glyph-name="Wgrave" unicode="&#x1e80;" horiz-adv-x="983" 
d="M186 0l-156 700h177l85 -434l122 434h161l122 -434l85 434h171l-156 -700h-182l-123 451l-124 -451h-182zM438 785l-192 146h202l138 -146h-148z" />
    <glyph glyph-name="wgrave" unicode="&#x1e81;" horiz-adv-x="783" 
d="M154 0l-138 516h153l72 -308l87 308h133l86 -307l71 307h149l-137 -516h-154l-84 304l-82 -304h-156zM341 601l-192 146h202l138 -146h-148z" />
    <glyph glyph-name="Wacute" unicode="&#x1e82;" horiz-adv-x="983" 
d="M186 0l-156 700h177l85 -434l122 434h161l122 -434l85 434h171l-156 -700h-182l-123 451l-124 -451h-182zM398 785l138 146h193l-192 -146h-139z" />
    <glyph glyph-name="wacute" unicode="&#x1e83;" horiz-adv-x="783" 
d="M154 0l-138 516h153l72 -308l87 308h133l86 -307l71 307h149l-137 -516h-154l-84 304l-82 -304h-156zM301 601l138 146h193l-192 -146h-139z" />
    <glyph glyph-name="Wdieresis" unicode="&#x1e84;" horiz-adv-x="983" 
d="M186 0l-156 700h177l85 -434l122 434h161l122 -434l85 434h171l-156 -700h-182l-123 451l-124 -451h-182zM374 786q-34 0 -57.5 23t-23.5 59t23.5 59t57.5 23q35 0 58 -23t23 -59t-23 -59t-58 -23zM606 786q-34 0 -57.5 23t-23.5 59t23.5 59t57.5 23q35 0 58 -23t23 -59
t-23 -59t-58 -23z" />
    <glyph glyph-name="wdieresis" unicode="&#x1e85;" horiz-adv-x="783" 
d="M154 0l-138 516h153l72 -308l87 308h133l86 -307l71 307h149l-137 -516h-154l-84 304l-82 -304h-156zM277 602q-34 0 -57.5 23t-23.5 59t23.5 59t57.5 23q35 0 58 -23t23 -59t-23 -59t-58 -23zM509 602q-34 0 -57.5 23t-23.5 59t23.5 59t57.5 23q35 0 58 -23t23 -59
t-23 -59t-58 -23z" />
    <glyph glyph-name="uni1E9E" unicode="&#x1e9e;" horiz-adv-x="705" 
d="M456 -11q-47 0 -89 13.5t-79 39.5l68 129q30 -23 48 -31t38 -8q18 0 29 4.5t16.5 14.5t5.5 24q0 15 -7 25.5t-25 22t-53 26.5q-38 17 -61 47.5t-23 68.5q0 26 11 55t29 55l62 91h-190v-566h-168v700h563v-98l-113 -154q-10 -13 -16 -26.5t-6 -28.5t17 -28t51 -28
q96 -42 96 -159q0 -58 -25 -100.5t-70.5 -65.5t-108.5 -23z" />
    <glyph glyph-name="Ygrave" unicode="&#x1ef2;" horiz-adv-x="739" 
d="M283 0v265l-284 435h198l177 -287l179 287h187l-285 -434v-266h-172zM314 785l-192 146h202l138 -146h-148z" />
    <glyph glyph-name="ygrave" unicode="&#x1ef3;" horiz-adv-x="584" 
d="M119 -219q-32 0 -67 8v136q9 -1 21.5 -2.5t26.5 -1.5q33 0 52.5 13.5t31.5 38.5l8 17l-190 526h179l103 -333l118 333h175l-232 -574q-24 -59 -53.5 -94.5t-71 -51t-101.5 -15.5zM238 601l-192 146h202l138 -146h-148z" />
    <glyph glyph-name="uni2002" unicode="&#x2002;" horiz-adv-x="505" 
 />
    <glyph glyph-name="uni2003" unicode="&#x2003;" horiz-adv-x="980" 
 />
    <glyph glyph-name="uni2009" unicode="&#x2009;" horiz-adv-x="198" 
 />
    <glyph glyph-name="uni200A" unicode="&#x200a;" horiz-adv-x="125" 
 />
    <glyph glyph-name="uni200B" unicode="&#x200b;" horiz-adv-x="30" 
 />
    <glyph glyph-name="endash" unicode="&#x2013;" horiz-adv-x="565" 
d="M51 219v135h463v-135h-463z" />
    <glyph glyph-name="emdash" unicode="&#x2014;" horiz-adv-x="707" 
d="M51 219v135h605v-135h-605z" />
    <glyph glyph-name="uni2015" unicode="&#x2015;" horiz-adv-x="945" 
d="M51 219v135h843v-135h-843z" />
    <glyph glyph-name="quoteleft" unicode="&#x2018;" horiz-adv-x="275" 
d="M278 750l-75 -304h-159l118 304h116z" />
    <glyph glyph-name="quoteright" unicode="&#x2019;" horiz-adv-x="275" 
d="M29 446l75 304h159l-118 -304h-116z" />
    <glyph glyph-name="quotesinglbase" unicode="&#x201a;" horiz-adv-x="258" 
d="M-10 -177l75 304h159l-118 -304h-116z" />
    <glyph glyph-name="quotedblleft" unicode="&#x201c;" horiz-adv-x="504" 
d="M278 750l-75 -304h-159l118 304h116zM507 750l-75 -304h-159l118 304h116z" />
    <glyph glyph-name="quotedblright" unicode="&#x201d;" horiz-adv-x="504" 
d="M258 446l75 304h159l-118 -304h-116zM29 446l75 304h159l-118 -304h-116z" />
    <glyph glyph-name="quotedblbase" unicode="&#x201e;" horiz-adv-x="487" 
d="M219 -177l75 304h159l-118 -304h-116zM-10 -177l75 304h159l-118 -304h-116z" />
    <glyph glyph-name="dagger" unicode="&#x2020;" horiz-adv-x="467" 
d="M172 0v407h-128v109h128v184h123v-184h128v-109h-128v-407h-123z" />
    <glyph glyph-name="daggerdbl" unicode="&#x2021;" horiz-adv-x="467" 
d="M172 0v184h-128v109h128v114h-128v109h128v184h123v-184h128v-109h-128v-114h128v-109h-128v-184h-123z" />
    <glyph glyph-name="bullet" unicode="&#x2022;" horiz-adv-x="378" 
d="M189 201q-49 0 -83.5 35t-34.5 87t34.5 87t83.5 35q50 0 84 -35t34 -87t-34 -87t-84 -35z" />
    <glyph glyph-name="ellipsis" unicode="&#x2026;" horiz-adv-x="800" 
d="M125 -11q-37 0 -64 28t-27 67t27 67t64 28q38 0 64.5 -28t26.5 -67t-26.5 -67t-64.5 -28zM400 -11q-37 0 -64 28t-27 67t27 67t64 28q38 0 64.5 -28t26.5 -67t-26.5 -67t-64.5 -28zM675 -11q-37 0 -64 28t-27 67t27 67t64 28q38 0 64.5 -28t26.5 -67t-26.5 -67t-64.5 -28
z" />
    <glyph glyph-name="perthousand" unicode="&#x2030;" horiz-adv-x="1173" 
d="M184 345q-70 0 -113.5 48.5t-43.5 132.5q0 83 43.5 131.5t113.5 48.5t113 -48.5t43 -131.5q0 -84 -43 -132.5t-113 -48.5zM184 427q29 0 47 25t18 74q0 47 -18 72.5t-47 25.5q-30 0 -48 -25.5t-18 -72.5q0 -49 18 -74t48 -25zM145 0l397 700h115l-398 -700h-114zM630 -5
q-70 0 -113.5 48.5t-43.5 132.5q0 83 43.5 131.5t113.5 48.5t113 -48.5t43 -131.5q0 -84 -43 -132.5t-113 -48.5zM630 77q29 0 47 25t18 74q0 47 -18 72.5t-47 25.5q-30 0 -48 -25.5t-18 -72.5q0 -49 18 -74t48 -25zM989 -5q-70 0 -113.5 48.5t-43.5 132.5q0 83 43.5 131.5
t113.5 48.5t113 -48.5t43 -131.5q0 -84 -43 -132.5t-113 -48.5zM989 77q29 0 47 25t18 74q0 47 -18 72.5t-47 25.5q-30 0 -48 -25.5t-18 -72.5q0 -49 18 -74t48 -25z" />
    <glyph glyph-name="minute" unicode="&#x2032;" horiz-adv-x="275" 
d="M29 446l75 304h159l-118 -304h-116z" />
    <glyph glyph-name="second" unicode="&#x2033;" horiz-adv-x="504" 
d="M258 446l75 304h159l-118 -304h-116zM29 446l75 304h159l-118 -304h-116z" />
    <glyph glyph-name="guilsinglleft" unicode="&#x2039;" horiz-adv-x="456" 
d="M262 0l-234 259l234 257h156l-227 -256l230 -260h-159z" />
    <glyph glyph-name="guilsinglright" unicode="&#x203a;" horiz-adv-x="456" 
d="M194 516l234 -259l-234 -257h-156l227 256l-230 260h159z" />
    <glyph glyph-name="fraction" unicode="&#x2044;" horiz-adv-x="577" 
d="M15 0l397 700h115l-398 -700h-114z" />
    <glyph glyph-name="uni2070" unicode="&#x2070;" horiz-adv-x="367" 
d="M184 345q-70 0 -113.5 48.5t-43.5 132.5q0 83 43.5 131.5t113.5 48.5t113 -48.5t43 -131.5q0 -84 -43 -132.5t-113 -48.5zM184 427q29 0 47 25t18 74q0 47 -18 72.5t-47 25.5q-30 0 -48 -25.5t-18 -72.5q0 -49 18 -74t48 -25z" />
    <glyph glyph-name="uni2074" unicode="&#x2074;" horiz-adv-x="367" 
d="M214 350v73h-186v77l170 200h110v-203h42v-74h-42v-73h-94zM122 497h92v109z" />
    <glyph glyph-name="uni2075" unicode="&#x2075;" horiz-adv-x="330" 
d="M154 344q-68 0 -129 37l46 70q26 -16 45 -22.5t38 -6.5q24 0 39 11.5t15 30.5q0 17 -14 28.5t-37 11.5q-15 0 -27 -4t-26 -12l-66 20l9 192h240v-77h-164l-3 -65q32 15 62 15q57 0 90.5 -29.5t33.5 -78.5q0 -54 -42 -87.5t-110 -33.5z" />
    <glyph glyph-name="uni2076" unicode="&#x2076;" horiz-adv-x="343" 
d="M186 344q-73 0 -117 49t-44 130q0 83 48 133.5t126 50.5q63 0 114 -40l-48 -71q-18 14 -36 21t-37 7q-37 0 -55.5 -26t-18.5 -76q16 20 38.5 30.5t48.5 10.5q52 0 83.5 -28t31.5 -74q0 -50 -38 -83.5t-96 -33.5zM184 494q-17 0 -32 -6t-27 -17q8 -22 23.5 -34.5
t34.5 -12.5q20 0 33 10t13 25q0 16 -12.5 25.5t-32.5 9.5z" />
    <glyph glyph-name="uni2077" unicode="&#x2077;" horiz-adv-x="329" 
d="M67 350l139 268h-180v82h284v-69l-130 -281h-113z" />
    <glyph glyph-name="uni2078" unicode="&#x2078;" horiz-adv-x="340" 
d="M170 344q-63 0 -102.5 28.5t-39.5 73.5q0 29 19 51t50 30q-27 10 -43.5 30.5t-16.5 47.5q0 43 38.5 72t93.5 29q37 0 67 -13.5t48 -36.5t18 -51q0 -27 -16.5 -47.5t-43.5 -30.5q31 -8 50 -30t19 -51q0 -45 -39.5 -73.5t-101.5 -28.5zM170 558q17 0 28.5 10.5t11.5 25.5
q0 16 -11.5 26t-28.5 10q-18 0 -29.5 -10t-11.5 -26q0 -15 12 -25.5t29 -10.5zM170 421q21 0 33.5 9.5t12.5 25.5q0 17 -12.5 26.5t-33.5 9.5q-22 0 -34.5 -9.5t-12.5 -26.5q0 -16 13 -25.5t34 -9.5z" />
    <glyph glyph-name="uni2079" unicode="&#x2079;" horiz-adv-x="343" 
d="M157 707q73 0 117 -49t44 -130q0 -82 -48 -133t-126 -51q-63 0 -114 40l48 71q18 -14 36 -21t37 -7q37 0 55.5 26.5t18.5 75.5q-16 -19 -38.5 -30t-48.5 -11q-52 0 -83.5 28t-31.5 74q0 50 38 83.5t96 33.5zM159 557q17 0 32 6t27 17q-8 22 -23 34.5t-35 12.5
q-19 0 -32.5 -10t-13.5 -25q0 -16 12.5 -25.5t32.5 -9.5z" />
    <glyph glyph-name="uni2080" unicode="&#x2080;" horiz-adv-x="366" 
d="M184 -5q-70 0 -113.5 48.5t-43.5 132.5q0 83 43.5 131.5t113.5 48.5t113 -48.5t43 -131.5q0 -84 -43 -132.5t-113 -48.5zM184 77q29 0 47 25t18 74q0 47 -18 72.5t-47 25.5q-30 0 -48 -25.5t-18 -72.5q0 -49 18 -74t48 -25z" />
    <glyph glyph-name="uni2081" unicode="&#x2081;" horiz-adv-x="213" 
d="M95 0v253l-73 -29v81l109 45h59v-350h-95z" />
    <glyph glyph-name="uni2082" unicode="&#x2082;" horiz-adv-x="318" 
d="M33 0v68l147 139q9 8 14 17t5 17q0 14 -12.5 23.5t-30.5 9.5q-22 0 -43 -10t-44 -33l-52 62q32 31 68 46.5t74 15.5q59 0 95 -29.5t36 -76.5q0 -22 -11.5 -43.5t-34.5 -43.5l-88 -83h138v-79h-261z" />
    <glyph glyph-name="uni2083" unicode="&#x2083;" horiz-adv-x="337" 
d="M164 -5q-87 0 -142 52l56 64q22 -19 41 -27t44 -8q24 0 38.5 8.5t14.5 22.5q0 13 -10 20t-29 7h-42v74h31q21 0 32 8t11 23t-12.5 24.5t-33.5 9.5t-38.5 -8t-40.5 -28l-59 61q26 26 64.5 42t77.5 16q61 0 99 -28.5t38 -74.5q0 -27 -17 -47.5t-46 -29.5q32 -8 51 -28
t19 -48q0 -46 -41 -75.5t-106 -29.5z" />
    <glyph glyph-name="uni2084" unicode="&#x2084;" horiz-adv-x="365" 
d="M214 0v73h-186v77l170 200h110v-203h42v-74h-42v-73h-94zM122 147h92v109z" />
    <glyph glyph-name="uni2085" unicode="&#x2085;" horiz-adv-x="330" 
d="M154 -6q-68 0 -129 37l46 70q26 -16 45 -22.5t38 -6.5q24 0 39 11.5t15 30.5q0 17 -14 28.5t-37 11.5q-15 0 -27 -4t-26 -12l-66 20l9 192h240v-77h-164l-3 -65q32 15 62 15q57 0 90.5 -29.5t33.5 -78.5q0 -54 -42 -87.5t-110 -33.5z" />
    <glyph glyph-name="uni2086" unicode="&#x2086;" horiz-adv-x="346" 
d="M186 -6q-73 0 -117 49t-44 130q0 83 48 133.5t126 50.5q63 0 114 -40l-48 -71q-18 14 -36 21t-37 7q-37 0 -55.5 -26t-18.5 -76q16 20 38.5 30.5t48.5 10.5q52 0 83.5 -28t31.5 -74q0 -50 -38 -83.5t-96 -33.5zM184 144q-17 0 -32 -6t-27 -17q8 -22 23.5 -34.5
t34.5 -12.5q20 0 33 10t13 25q0 16 -12.5 25.5t-32.5 9.5z" />
    <glyph glyph-name="uni2087" unicode="&#x2087;" horiz-adv-x="329" 
d="M67 0l139 268h-180v82h284v-69l-130 -281h-113z" />
    <glyph glyph-name="uni2088" unicode="&#x2088;" horiz-adv-x="339" 
d="M170 -6q-63 0 -102.5 28.5t-39.5 73.5q0 29 19 51t50 30q-27 10 -43.5 30.5t-16.5 47.5q0 43 38.5 72t93.5 29q37 0 67 -13.5t48 -36.5t18 -51q0 -27 -16.5 -47.5t-43.5 -30.5q31 -8 50 -30t19 -51q0 -45 -39.5 -73.5t-101.5 -28.5zM170 208q17 0 28.5 10.5t11.5 25.5
q0 16 -11.5 26t-28.5 10q-18 0 -29.5 -10t-11.5 -26q0 -15 12 -25.5t29 -10.5zM170 71q21 0 33.5 9.5t12.5 25.5q0 17 -12.5 26.5t-33.5 9.5q-22 0 -34.5 -9.5t-12.5 -26.5q0 -16 13 -25.5t34 -9.5z" />
    <glyph glyph-name="uni2089" unicode="&#x2089;" horiz-adv-x="343" 
d="M157 357q73 0 117 -49t44 -130q0 -82 -48 -133t-126 -51q-63 0 -114 40l48 71q18 -14 36 -21t37 -7q37 0 55.5 26.5t18.5 75.5q-16 -19 -38.5 -30t-48.5 -11q-52 0 -83.5 28t-31.5 74q0 50 38 83.5t96 33.5zM159 207q17 0 32 6t27 17q-8 22 -23 34.5t-35 12.5
q-19 0 -32.5 -10t-13.5 -25q0 -16 12.5 -25.5t32.5 -9.5z" />
    <glyph glyph-name="Euro" unicode="&#x20ac;" horiz-adv-x="748" 
d="M447 -11q-80 0 -145 31.5t-109.5 89.5t-63.5 135h-90v78h79q-1 7 -1 13.5v13.5v13t1 13h-79v79h90q19 78 63.5 135.5t109.5 89t145 31.5q82 0 147.5 -32.5t110.5 -97.5l-103 -82q-25 38 -66 59.5t-88 21.5q-61 0 -105.5 -33t-65.5 -92h235l-29 -79h-222q-1 -6 -1 -12.5
v-13.5v-13.5t1 -13.5h204l-30 -78h-158q21 -58 65.5 -91.5t105.5 -33.5q47 0 88 22t66 59l103 -82q-45 -64 -110.5 -97t-147.5 -33z" />
    <glyph glyph-name="trademark" unicode="&#x2122;" horiz-adv-x="689" 
d="M328 421v279h92l64 -135l64 135h92v-279h-73l2 186l-85 -169l-87 168l1 -185h-70zM123 421v212h-86v67h251v-67h-87v-212h-78z" />
    <glyph glyph-name="arrowup" unicode="&#x2191;" horiz-adv-x="659" 
d="M254 0v476l-136 -165l-93 82l305 357l304 -356l-95 -85l-134 163v-472h-151z" />
    <glyph glyph-name="arrowdown" unicode="&#x2193;" horiz-adv-x="659" 
d="M405 700v-476l136 165l93 -82l-305 -357l-304 356l95 85l134 -163v472h151z" />
    <glyph glyph-name="minus" unicode="&#x2212;" 
d="M75 299v120h450v-120h-450z" />
    <glyph glyph-name="uni2215" unicode="&#x2215;" horiz-adv-x="577" 
d="M15 0l397 700h115l-398 -700h-114z" />
    <glyph glyph-name="notequal" unicode="&#x2260;" 
d="M80 81l66 110h-71v120h142l49 82h-191v120h263l64 108h118l-64 -108h69v-120h-140l-49 -82h189v-120h-260l-65 -110h-120z" />
    <glyph glyph-name="uniFEFF" unicode="&#xfeff;" horiz-adv-x="0" 
 />
    <glyph glyph-name="uniFFFD" unicode="&#xfffd;" horiz-adv-x="514" 
d="M60 -100v850h394v-850h-394z" />
    <glyph glyph-name="i.loclTRK" horiz-adv-x="288" 
d="M63 0v516h162v-516h-162zM144 595q-37 0 -64 27t-27 64q0 38 27 64.5t65 26.5q37 0 63.5 -26.5t26.5 -63.5q0 -38 -26.5 -65t-64.5 -27z" />
    <glyph glyph-name="a.ss01" horiz-adv-x="643" 
d="M268 -3q-63 0 -115 35.5t-82.5 95t-30.5 131.5q0 73 32 131.5t86.5 93.5t121.5 35q41 0 76.5 -16t61.5 -46v59h162v-516h-160v67q-25 -32 -65.5 -51t-86.5 -19zM322 131q29 0 53 10.5t43 30.5v174q-19 20 -43.5 30t-52.5 10q-35 0 -63 -16.5t-44 -45.5t-16 -66
q0 -36 16 -65t44 -45.5t63 -16.5z" />
    <glyph glyph-name="aacute.ss01" horiz-adv-x="643" 
d="M268 -3q-63 0 -115 35.5t-82.5 95t-30.5 131.5q0 73 32 131.5t86.5 93.5t121.5 35q41 0 76.5 -16t61.5 -46v59h162v-516h-160v67q-25 -32 -65.5 -51t-86.5 -19zM322 131q29 0 53 10.5t43 30.5v174q-19 20 -43.5 30t-52.5 10q-35 0 -63 -16.5t-44 -45.5t-16 -66
q0 -36 16 -65t44 -45.5t63 -16.5zM217 601l138 146h193l-192 -146h-139z" />
    <glyph glyph-name="abreve.ss01" horiz-adv-x="643" 
d="M268 -3q-63 0 -115 35.5t-82.5 95t-30.5 131.5q0 73 32 131.5t86.5 93.5t121.5 35q41 0 76.5 -16t61.5 -46v59h162v-516h-160v67q-25 -32 -65.5 -51t-86.5 -19zM322 131q29 0 53 10.5t43 30.5v174q-19 20 -43.5 30t-52.5 10q-35 0 -63 -16.5t-44 -45.5t-16 -66
q0 -36 16 -65t44 -45.5t63 -16.5zM309 590q-74 0 -123.5 37t-66.5 106l93 25q25 -81 97 -81q36 0 60.5 20.5t37.5 60.5l92 -25q-17 -69 -66.5 -106t-123.5 -37z" />
    <glyph glyph-name="acircumflex.ss01" horiz-adv-x="643" 
d="M268 -3q-63 0 -115 35.5t-82.5 95t-30.5 131.5q0 73 32 131.5t86.5 93.5t121.5 35q41 0 76.5 -16t61.5 -46v59h162v-516h-160v67q-25 -32 -65.5 -51t-86.5 -19zM322 131q29 0 53 10.5t43 30.5v174q-19 20 -43.5 30t-52.5 10q-35 0 -63 -16.5t-44 -45.5t-16 -66
q0 -36 16 -65t44 -45.5t63 -16.5zM389 599l-82 83l-81 -83h-123l128 151h156l128 -151h-126z" />
    <glyph glyph-name="adieresis.ss01" horiz-adv-x="643" 
d="M268 -3q-63 0 -115 35.5t-82.5 95t-30.5 131.5q0 73 32 131.5t86.5 93.5t121.5 35q41 0 76.5 -16t61.5 -46v59h162v-516h-160v67q-25 -32 -65.5 -51t-86.5 -19zM322 131q29 0 53 10.5t43 30.5v174q-19 20 -43.5 30t-52.5 10q-35 0 -63 -16.5t-44 -45.5t-16 -66
q0 -36 16 -65t44 -45.5t63 -16.5zM193 602q-34 0 -57.5 23t-23.5 59t23.5 59t57.5 23q35 0 58 -23t23 -59t-23 -59t-58 -23zM425 602q-34 0 -57.5 23t-23.5 59t23.5 59t57.5 23q35 0 58 -23t23 -59t-23 -59t-58 -23z" />
    <glyph glyph-name="agrave.ss01" horiz-adv-x="643" 
d="M268 -3q-63 0 -115 35.5t-82.5 95t-30.5 131.5q0 73 32 131.5t86.5 93.5t121.5 35q41 0 76.5 -16t61.5 -46v59h162v-516h-160v67q-25 -32 -65.5 -51t-86.5 -19zM322 131q29 0 53 10.5t43 30.5v174q-19 20 -43.5 30t-52.5 10q-35 0 -63 -16.5t-44 -45.5t-16 -66
q0 -36 16 -65t44 -45.5t63 -16.5zM257 601l-192 146h202l138 -146h-148z" />
    <glyph glyph-name="amacron.ss01" horiz-adv-x="643" 
d="M268 -3q-63 0 -115 35.5t-82.5 95t-30.5 131.5q0 73 32 131.5t86.5 93.5t121.5 35q41 0 76.5 -16t61.5 -46v59h162v-516h-160v67q-25 -32 -65.5 -51t-86.5 -19zM322 131q29 0 53 10.5t43 30.5v174q-19 20 -43.5 30t-52.5 10q-35 0 -63 -16.5t-44 -45.5t-16 -66
q0 -36 16 -65t44 -45.5t63 -16.5zM145 626v100h329v-100h-329z" />
    <glyph glyph-name="aogonek.ss01" horiz-adv-x="643" 
d="M516 -231q-49 0 -78.5 27.5t-29.5 71.5q0 38 21 69.5t67 62.5h-76v67q-25 -32 -65.5 -51t-86.5 -19q-63 0 -115 35.5t-82.5 95t-30.5 131.5q0 73 32 131.5t86.5 93.5t121.5 35q41 0 76.5 -16t61.5 -46v59h162v-516q-43 -26 -64 -51t-21 -52q0 -22 13.5 -34t35.5 -12
q14 0 26 3t19 8l20 -70q-36 -23 -93 -23zM199 258q0 -36 16 -65t44 -45.5t63 -16.5q29 0 53 10.5t43 30.5v174q-19 20 -43.5 30t-52.5 10q-35 0 -63 -16.5t-44 -45.5t-16 -66z" />
    <glyph glyph-name="aring.ss01" horiz-adv-x="643" 
d="M268 -3q-63 0 -115 35.5t-82.5 95t-30.5 131.5q0 73 32 131.5t86.5 93.5t121.5 35q41 0 76.5 -16t61.5 -46v59h162v-516h-160v67q-25 -32 -65.5 -51t-86.5 -19zM322 131q29 0 53 10.5t43 30.5v174q-19 20 -43.5 30t-52.5 10q-35 0 -63 -16.5t-44 -45.5t-16 -66
q0 -36 16 -65t44 -45.5t63 -16.5zM309 586q-35 0 -64 17t-46 45t-17 62t17 62t46 45t64 17t64 -17t46 -45t17 -62t-17 -62t-46 -45t-64 -17zM309 650q25 0 42.5 17.5t17.5 42.5t-17.5 42.5t-42.5 17.5t-42.5 -17.5t-17.5 -42.5t17.5 -42.5t42.5 -17.5z" />
    <glyph glyph-name="atilde.ss01" horiz-adv-x="643" 
d="M268 -3q-63 0 -115 35.5t-82.5 95t-30.5 131.5q0 73 32 131.5t86.5 93.5t121.5 35q41 0 76.5 -16t61.5 -46v59h162v-516h-160v67q-25 -32 -65.5 -51t-86.5 -19zM322 131q29 0 53 10.5t43 30.5v174q-19 20 -43.5 30t-52.5 10q-35 0 -63 -16.5t-44 -45.5t-16 -66
q0 -36 16 -65t44 -45.5t63 -16.5zM191 590l-90 21q17 71 49 106.5t80 35.5q30 0 58 -15t52.5 -30t42.5 -15q15 0 24.5 14.5t19.5 52.5l90 -21q-17 -70 -47.5 -106t-76.5 -36q-29 0 -57.5 15t-53 30t-42.5 15q-16 0 -27 -14.5t-22 -52.5z" />
    <glyph glyph-name="g.ss02" horiz-adv-x="633" 
d="M293 -219q-131 0 -200.5 28.5t-69.5 84.5q0 29 31.5 50t86.5 29q-31 14 -47.5 35.5t-16.5 50.5q0 38 29.5 65t80.5 37q-59 24 -95 69.5t-36 101.5q0 54 32.5 97.5t88.5 69t125 25.5q53 0 98 -15.5t78 -41.5q21 50 49 73t65 23q9 0 15.5 -1t15.5 -4v-126q-13 5 -26.5 7
t-24.5 2q-33 0 -56 -13q15 -21 23.5 -45.5t8.5 -50.5q0 -53 -32.5 -97t-88 -69.5t-125.5 -25.5q-19 0 -38 2t-36 6q-10 -4 -15.5 -11.5t-5.5 -16.5q0 -28 51 -29l177 -6q83 -3 129.5 -35.5t46.5 -89.5q0 -55 -38.5 -95t-110 -62t-169.5 -22zM302 251q27 0 48.5 10.5t33.5 29
t12 41.5t-12 41.5t-33.5 29t-48.5 10.5t-48 -10.5t-33.5 -29t-12.5 -41.5t12.5 -41.5t33.5 -29t48 -10.5zM293 -121q73 0 114.5 12.5t41.5 34.5q0 21 -40 22l-150 4q-19 1 -36 2.5t-32 4.5q-11 -6 -17 -14t-6 -19q0 -25 30.5 -36t94.5 -11z" />
    <glyph glyph-name="gbreve.ss02" horiz-adv-x="633" 
d="M293 -219q-131 0 -200.5 28.5t-69.5 84.5q0 29 31.5 50t86.5 29q-31 14 -47.5 35.5t-16.5 50.5q0 38 29.5 65t80.5 37q-59 24 -95 69.5t-36 101.5q0 54 32.5 97.5t88.5 69t125 25.5q53 0 98 -15.5t78 -41.5q21 50 49 73t65 23q9 0 15.5 -1t15.5 -4v-126q-13 5 -26.5 7
t-24.5 2q-33 0 -56 -13q15 -21 23.5 -45.5t8.5 -50.5q0 -53 -32.5 -97t-88 -69.5t-125.5 -25.5q-19 0 -38 2t-36 6q-10 -4 -15.5 -11.5t-5.5 -16.5q0 -28 51 -29l177 -6q83 -3 129.5 -35.5t46.5 -89.5q0 -55 -38.5 -95t-110 -62t-169.5 -22zM302 251q27 0 48.5 10.5t33.5 29
t12 41.5t-12 41.5t-33.5 29t-48.5 10.5t-48 -10.5t-33.5 -29t-12.5 -41.5t12.5 -41.5t33.5 -29t48 -10.5zM293 -121q73 0 114.5 12.5t41.5 34.5q0 21 -40 22l-150 4q-19 1 -36 2.5t-32 4.5q-11 -6 -17 -14t-6 -19q0 -25 30.5 -36t94.5 -11zM302 590q-74 0 -123.5 37
t-66.5 106l93 25q25 -81 97 -81q36 0 60.5 20.5t37.5 60.5l92 -25q-17 -69 -66.5 -106t-123.5 -37z" />
    <glyph glyph-name="gcircumflex.ss02" horiz-adv-x="633" 
d="M293 -219q-131 0 -200.5 28.5t-69.5 84.5q0 29 31.5 50t86.5 29q-31 14 -47.5 35.5t-16.5 50.5q0 38 29.5 65t80.5 37q-59 24 -95 69.5t-36 101.5q0 54 32.5 97.5t88.5 69t125 25.5q53 0 98 -15.5t78 -41.5q21 50 49 73t65 23q9 0 15.5 -1t15.5 -4v-126q-13 5 -26.5 7
t-24.5 2q-33 0 -56 -13q15 -21 23.5 -45.5t8.5 -50.5q0 -53 -32.5 -97t-88 -69.5t-125.5 -25.5q-19 0 -38 2t-36 6q-10 -4 -15.5 -11.5t-5.5 -16.5q0 -28 51 -29l177 -6q83 -3 129.5 -35.5t46.5 -89.5q0 -55 -38.5 -95t-110 -62t-169.5 -22zM302 251q27 0 48.5 10.5t33.5 29
t12 41.5t-12 41.5t-33.5 29t-48.5 10.5t-48 -10.5t-33.5 -29t-12.5 -41.5t12.5 -41.5t33.5 -29t48 -10.5zM293 -121q73 0 114.5 12.5t41.5 34.5q0 21 -40 22l-150 4q-19 1 -36 2.5t-32 4.5q-11 -6 -17 -14t-6 -19q0 -25 30.5 -36t94.5 -11zM382 599l-82 83l-81 -83h-123
l128 151h156l128 -151h-126z" />
    <glyph glyph-name="uni0123.ss02" horiz-adv-x="633" 
d="M454 842l-63 -215h-144l95 215h112zM293 -219q-131 0 -200.5 28.5t-69.5 84.5q0 29 31.5 50t86.5 29q-31 14 -47.5 35.5t-16.5 50.5q0 38 29.5 65t80.5 37q-59 24 -95 69.5t-36 101.5q0 54 32.5 97.5t88.5 69t125 25.5q53 0 98 -15.5t78 -41.5q21 50 49 73t65 23
q9 0 15.5 -1t15.5 -4v-126q-13 5 -26.5 7t-24.5 2q-33 0 -56 -13q15 -21 23.5 -45.5t8.5 -50.5q0 -53 -32.5 -97t-88 -69.5t-125.5 -25.5q-19 0 -38 2t-36 6q-10 -4 -15.5 -11.5t-5.5 -16.5q0 -28 51 -29l177 -6q83 -3 129.5 -35.5t46.5 -89.5q0 -55 -38.5 -95t-110 -62
t-169.5 -22zM302 251q27 0 48.5 10.5t33.5 29t12 41.5t-12 41.5t-33.5 29t-48.5 10.5t-48 -10.5t-33.5 -29t-12.5 -41.5t12.5 -41.5t33.5 -29t48 -10.5zM293 -121q73 0 114.5 12.5t41.5 34.5q0 21 -40 22l-150 4q-19 1 -36 2.5t-32 4.5q-11 -6 -17 -14t-6 -19
q0 -25 30.5 -36t94.5 -11z" />
    <glyph glyph-name="gdotaccent.ss02" horiz-adv-x="633" 
d="M293 -219q-131 0 -200.5 28.5t-69.5 84.5q0 29 31.5 50t86.5 29q-31 14 -47.5 35.5t-16.5 50.5q0 38 29.5 65t80.5 37q-59 24 -95 69.5t-36 101.5q0 54 32.5 97.5t88.5 69t125 25.5q53 0 98 -15.5t78 -41.5q21 50 49 73t65 23q9 0 15.5 -1t15.5 -4v-126q-13 5 -26.5 7
t-24.5 2q-33 0 -56 -13q15 -21 23.5 -45.5t8.5 -50.5q0 -53 -32.5 -97t-88 -69.5t-125.5 -25.5q-19 0 -38 2t-36 6q-10 -4 -15.5 -11.5t-5.5 -16.5q0 -28 51 -29l177 -6q83 -3 129.5 -35.5t46.5 -89.5q0 -55 -38.5 -95t-110 -62t-169.5 -22zM302 251q27 0 48.5 10.5t33.5 29
t12 41.5t-12 41.5t-33.5 29t-48.5 10.5t-48 -10.5t-33.5 -29t-12.5 -41.5t12.5 -41.5t33.5 -29t48 -10.5zM293 -121q73 0 114.5 12.5t41.5 34.5q0 21 -40 22l-150 4q-19 1 -36 2.5t-32 4.5q-11 -6 -17 -14t-6 -19q0 -25 30.5 -36t94.5 -11zM302 602q-37 0 -62.5 26t-25.5 62
q0 37 25.5 63t62.5 26q36 0 62 -26t26 -62q0 -37 -26 -63t-62 -26z" />
    <glyph glyph-name="exclamdown.cap" horiz-adv-x="275" 
d="M196 473l19 -500h-156l19 500h118zM137 711q37 0 63 -26.5t26 -64.5q0 -37 -26 -64t-63 -27q-36 0 -62 27t-26 64q0 38 26 64.5t62 26.5z" />
    <glyph glyph-name="questiondown.cap" horiz-adv-x="537" 
d="M355 471q3 -42 -2.5 -72t-22 -53t-46.5 -46l-52 -40q-24 -19 -35.5 -36t-11.5 -33q0 -19 11 -34.5t31 -24.5t45 -9q42 0 75.5 23t46.5 61l125 -49q-27 -77 -95.5 -123t-157.5 -46q-66 0 -118.5 25.5t-83 68.5t-30.5 98q0 37 11 66t37.5 57t71.5 60l24 17q29 20 39 39.5
t9 50.5h129zM290 711q37 0 63 -26.5t26 -64.5q0 -37 -26 -64t-63 -27t-63 27t-26 64q0 38 26 64.5t63 26.5z" />
    <glyph glyph-name="periodcentered.cap" horiz-adv-x="250" 
d="M125 259q-37 0 -64 28t-27 67t27 67t64 28q38 0 64.5 -28t26.5 -67t-26.5 -67t-64.5 -28z" />
    <glyph glyph-name="periodcentered.loclCAT" horiz-adv-x="250" 
d="M125 194q-37 0 -64 28t-27 67t27 67t64 28q38 0 64.5 -28t26.5 -67t-26.5 -67t-64.5 -28z" />
    <glyph glyph-name="periodcentered.loclCAT.case" horiz-adv-x="250" 
d="M125 254q-37 0 -64 28t-27 67t27 67t64 28q38 0 64.5 -28t26.5 -67t-26.5 -67t-64.5 -28z" />
    <glyph glyph-name="hyphen.cap" horiz-adv-x="470" 
d="M51 284v135h368v-135h-368z" />
    <glyph glyph-name="endash.cap" horiz-adv-x="565" 
d="M51 284v135h463v-135h-463z" />
    <glyph glyph-name="emdash.cap" horiz-adv-x="707" 
d="M51 284v135h605v-135h-605z" />
    <glyph glyph-name="uni2015.cap" horiz-adv-x="945" 
d="M51 284v135h843v-135h-843z" />
    <glyph glyph-name="at.cap" horiz-adv-x="822" 
d="M428 -15q-82 0 -150.5 26t-119 73.5t-78.5 111.5t-28 140q0 81 28 150t79 120t120 79.5t151 28.5q72 0 134 -23t109 -64.5t73 -97t26 -119.5q0 -70 -25 -123.5t-69.5 -83.5t-103.5 -30q-79 0 -109 41q-44 -39 -104 -39q-41 0 -74 21t-52.5 57t-19.5 79q0 53 24 95.5
t65.5 67t92.5 24.5q25 0 47.5 -7.5t40.5 -21.5l3 16h114l-45 -212q-5 -20 4.5 -31t30.5 -11q29 0 50.5 19t33.5 52.5t12 78.5q0 70 -34 124.5t-93 86.5t-134 32q-63 0 -116.5 -23t-93.5 -63.5t-62 -95.5t-22 -119q0 -84 37 -148t103 -99.5t153 -35.5q46 0 86 8.5t76 24.5
l30 -66q-49 -22 -94.5 -32.5t-95.5 -10.5zM389 267q32 0 57 21q0 5 1 11t2 13l16 83q-10 14 -25.5 21t-37.5 7q-21 0 -39 -11t-29 -29t-11 -41q0 -32 19 -53.5t47 -21.5z" />
    <glyph glyph-name="uni030C.ss02" horiz-adv-x="0" 
d="M107 498l4 216l125 23l-40 -239h-89z" />
    <glyph glyph-name="zero.tf" 
d="M300 -11q-82 0 -143.5 43t-95.5 123.5t-34 194.5t34 194.5t95.5 123.5t143.5 43t143.5 -43t95.5 -123.5t34 -194.5t-34 -194.5t-95.5 -123.5t-143.5 -43zM300 125q37 0 64 27.5t41.5 78t14.5 119.5q0 52 -8.5 93.5t-24 71t-37.5 45t-50 15.5q-37 0 -64 -27.5t-41.5 -78
t-14.5 -119.5q0 -52 8.5 -93.5t24 -71t37.5 -45t50 -15.5z" />
    <glyph glyph-name="one.tf" 
d="M52 0v131h177v409l-177 -73v136l234 97h97v-569h172v-131h-503z" />
    <glyph glyph-name="two.tf" 
d="M49 0v110l296 293q17 16 27 31.5t15 31.5t5 32q0 34 -29.5 56.5t-73.5 22.5q-47 0 -88 -19.5t-89 -66.5l-86 105q60 57 127.5 86t140.5 29q75 0 130.5 -25.5t86.5 -71t31 -106.5q0 -33 -9.5 -63.5t-29.5 -59.5t-52 -60l-202 -195l303 1v-131h-503z" />
    <glyph glyph-name="three.tf" 
d="M290 -11q-84 0 -156.5 30t-119.5 83l104 96q39 -42 75.5 -58t94.5 -16q38 0 66.5 10.5t44 30t15.5 45.5q0 23 -11.5 39t-32 25t-48.5 9h-90v127h74q43 0 67 20.5t24 57.5q0 25 -14.5 44.5t-39 30.5t-56.5 11q-51 0 -86.5 -17.5t-76.5 -62.5l-105 95q50 57 122.5 89.5
t151.5 32.5q77 0 135 -25.5t91 -71t33 -105.5q0 -57 -37 -100t-96 -60q69 -13 110 -53.5t41 -98.5q0 -60 -36 -107t-99 -74t-145 -27z" />
    <glyph glyph-name="four.tf" 
d="M363 0v157h-354v127l333 416h170v-412h78v-131h-78v-157h-149zM174 288h189v234z" />
    <glyph glyph-name="five.tf" 
d="M279 -11q-147 0 -256 94l92 107q44 -36 85 -52t87 -16q37 0 64 12.5t42.5 35.5t15.5 53q0 44 -36.5 73t-92.5 29q-28 0 -56 -8.5t-58 -25.5l-111 33l17 376h458v-131h-322l-7 -152q36 17 68 22t62 5q71 0 124 -26.5t82.5 -74.5t29.5 -112q0 -72 -36 -126.5t-101 -85
t-151 -30.5z" />
    <glyph glyph-name="six.tf" 
d="M325 -11q-92 0 -161.5 44t-108 122.5t-38.5 183.5q0 112 42.5 195.5t119 130t178.5 46.5q59 0 117.5 -20.5t95.5 -55.5l-89 -110q-29 25 -61.5 36.5t-74.5 11.5q-57 0 -96 -28t-59 -81t-20 -130q33 47 80 73t99 26q69 0 122 -27t83 -75t30 -110q0 -66 -33.5 -118.5
t-92 -83t-133.5 -30.5zM323 313q-43 0 -79.5 -16t-64.5 -45q10 -40 29.5 -69.5t47.5 -45.5t61 -16t59 12.5t41.5 34.5t15.5 50t-14 49.5t-38.5 33.5t-57.5 12z" />
    <glyph glyph-name="seven.tf" 
d="M106 0l300 564h-380v136h547v-115l-282 -585h-185z" />
    <glyph glyph-name="eight.tf" 
d="M300 -11q-81 0 -142.5 26.5t-96 73.5t-34.5 109q0 37 16.5 69t46.5 56t69 36q-50 20 -81 60t-31 89q0 58 33.5 104t90.5 72.5t129 26.5t129.5 -26.5t90.5 -72.5t33 -104q0 -49 -31 -89t-81 -60q59 -19 95.5 -62t36.5 -99q0 -62 -34.5 -109t-96 -73.5t-142.5 -26.5z
M300 411q29 0 52 11t36 30.5t13 44.5t-13 44.5t-36 30.5t-52 11t-52 -11t-36 -30.5t-13 -44.5t13 -44.5t36 -30.5t52 -11zM300 118q35 0 61 11.5t41 32.5t15 47q0 27 -15 47.5t-41 32t-61 11.5q-34 0 -60.5 -11.5t-41.5 -32t-15 -47.5q0 -26 15 -47t41.5 -32.5t60.5 -11.5z
" />
    <glyph glyph-name="nine.tf" horiz-adv-x="651" 
d="M295 711q92 0 161.5 -44t108 -122.5t38.5 -183.5q0 -111 -42.5 -195t-119 -130.5t-178.5 -46.5q-58 0 -117 21t-96 55l89 110q29 -25 61.5 -36.5t74.5 -11.5q57 0 96 28t59 81.5t20 129.5q-33 -47 -79.5 -73t-99.5 -26q-69 0 -122 27t-83 75t-30 110q0 67 33.5 119
t92.5 82.5t133 30.5zM297 387q43 0 79.5 16t64.5 45q-10 40 -29.5 69.5t-47 45.5t-61.5 16q-33 0 -59.5 -12.5t-41.5 -34.5t-15 -50t14 -49.5t39 -33.5t57 -12z" />
    <glyph glyph-name="zero.tf.slash" 
d="M300 -11q-82 0 -143.5 43t-95.5 123.5t-34 194.5t34 194.5t95.5 123.5t143.5 43t143.5 -43t95.5 -123.5t34 -194.5t-34 -194.5t-95.5 -123.5t-143.5 -43zM192 240l170 309q-26 26 -62 26q-37 0 -64 -27.5t-41.5 -78t-14.5 -119.5q0 -31 3 -59t9 -51zM300 125
q37 0 64 27.5t41.5 78t14.5 119.5q0 32 -3 60t-9 51l-170 -310q26 -26 62 -26z" />
    <glyph glyph-name="caronSlovak" 
d="M321 498l4 216l125 23l-40 -239h-89z" />
    </font>
</defs>
</svg>
