<?xml version="1.0" standalone="no"?>
<!DOCTYPE svg PUBLIC "-//W3C//DTD SVG 1.1//EN" "http://www.w3.org/Graphics/SVG/1.1/DTD/svg11.dtd" >
<svg xmlns="http://www.w3.org/2000/svg" xmlns:xlink="http://www.w3.org/1999/xlink" version="1.1">
<metadata></metadata>
<defs>
<font id="chakra_petchsemibold" horiz-adv-x="1417" >
<font-face units-per-em="2048" ascent="1638" descent="-410" />
<missing-glyph horiz-adv-x="538" />
<glyph unicode="&#xfb01;" horiz-adv-x="1239" d="M41 821v199h184v217l197 199h356v-195h-254l-67 -70v-151h649v-1020h-229v821h-420v-821h-232v821h-184z" />
<glyph unicode="&#xfb02;" horiz-adv-x="1304" d="M41 821v199h184v237l197 197h739v-1454h-233v1264h-404l-67 -68v-176h307v-199h-307v-821h-232v821h-184z" />
<glyph horiz-adv-x="0" />
<glyph unicode="&#xd;" horiz-adv-x="538" />
<glyph horiz-adv-x="0" />
<glyph horiz-adv-x="0" />
<glyph unicode=" "  horiz-adv-x="538" />
<glyph unicode="&#x09;" horiz-adv-x="538" />
<glyph unicode="&#xa0;" horiz-adv-x="538" />
<glyph unicode="!" horiz-adv-x="540" d="M133 78v108l78 78h119l78 -78v-108l-78 -78h-119zM152 1159v275h237v-275l-33 -772h-172z" />
<glyph unicode="&#x22;" horiz-adv-x="860" d="M123 1200v234h237v-234l-32 -285h-172zM500 1200v234h237v-234l-32 -285h-172z" />
<glyph unicode="#" horiz-adv-x="1447" d="M92 375v198h244l51 295h-254v199h287l63 367h230l-64 -367h264l64 367h229l-63 -367h213v-199h-248l-51 -295h258v-198h-291l-66 -375h-227l64 375h-265l-65 -375h-227l63 375h-209zM563 573h266l52 295h-267z" />
<glyph unicode="$" horiz-adv-x="1288" d="M113 211v180h233v-108l78 -78h131v426h-227l-211 209v383l211 211h227v225h203v-225h200l211 -211v-183h-233v111l-80 78h-98v-393h217l211 -211v-410l-215 -215h-213v-225h-203v225h-231zM350 913l80 -77h125v393h-125l-80 -78v-238zM758 205h112l82 82v264l-80 80h-114 v-426z" />
<glyph unicode="%" horiz-adv-x="1759" d="M92 834v446l154 154h342l153 -154v-446l-153 -154h-342zM295 905l51 -49h141l50 49v303l-50 49h-141l-51 -49v-303zM369 0l786 1434h238l-787 -1434h-237zM1018 154v446l153 154h342l154 -154v-446l-154 -154h-342zM1221 225l51 -49h141l49 49v303l-49 50h-141l-51 -50 v-303z" />
<glyph unicode="&#x26;" horiz-adv-x="1339" d="M113 209v393l135 135l-76 76v410l209 211h532l205 -207v-144h-231v70l-76 76h-334l-74 -76v-266l78 -80h467v133h226v-133h135v-201h-131v-395l-209 -211h-647zM344 285l78 -80h444l80 80v321h-524l-78 -80v-241z" />
<glyph unicode="'" horiz-adv-x="483" d="M123 1200v234h237v-234l-32 -285h-172z" />
<glyph unicode="(" horiz-adv-x="686" d="M143 -2v1436l238 237h268v-201h-160l-114 -114v-1280l114 -115h160v-201h-268z" />
<glyph unicode=")" horiz-adv-x="686" d="M37 -39h160l114 115v1280l-114 114h-160v201h268l238 -237v-1436l-238 -238h-268v201z" />
<glyph unicode="*" horiz-adv-x="708" d="M92 1110l172 68l-172 67l70 131l137 -110l-23 168h156l-24 -168l139 110l69 -131l-172 -67l172 -68l-69 -129l-139 106l24 -165h-156l23 165l-137 -106z" />
<glyph unicode="+" horiz-adv-x="1138" d="M92 442v197h363v336h229v-336h363v-197h-363v-336h-229v336h-363z" />
<glyph unicode="," horiz-adv-x="464" d="M88 78v119l78 77h133l76 -79v-195l-111 -268h-135l76 268h-39z" />
<glyph unicode="-" horiz-adv-x="864" d="M92 424v201h680v-201h-680z" />
<glyph unicode="." horiz-adv-x="464" d="M90 78v119l78 77h131l76 -79v-115l-76 -80h-131z" />
<glyph unicode="/" horiz-adv-x="1030" d="M0 0l791 1434h239l-790 -1434h-240z" />
<glyph unicode="0" horiz-adv-x="1318" d="M123 227v979l227 228h619l227 -228v-979l-227 -227h-619zM360 303l101 -98h397l100 98v827l-100 99h-397l-101 -99v-827z" />
<glyph unicode="1" horiz-adv-x="765" d="M61 1020v219l355 195h196v-1434h-237v1182z" />
<glyph unicode="2" horiz-adv-x="1159" d="M82 1018v205l211 211h565l211 -211v-299l-735 -678v-43h743v-203h-987v301l741 692v158l-79 78h-353l-80 -78v-133h-237z" />
<glyph unicode="3" horiz-adv-x="1218" d="M82 211v203h237v-131l80 -78h389l80 78v260l-75 75h-410v205h410l75 76v252l-80 78h-376l-80 -78v-131h-238v203l211 211h590l211 -211v-394l-111 -108l111 -111v-399l-211 -211h-602z" />
<glyph unicode="4" horiz-adv-x="1169" d="M31 274v269l628 891h306v-955h174v-205h-174v-274h-238v274h-696zM262 473h473v709h-10l-463 -662v-47z" />
<glyph unicode="5" horiz-adv-x="1224" d="M102 211v209h238v-137l80 -78h385l80 78v352l-80 80h-682v719h971v-205h-738v-309h553l213 -213v-496l-211 -211h-598z" />
<glyph unicode="6" horiz-adv-x="1257" d="M123 211v1012l211 211h602l211 -211v-189h-238v113l-82 82h-385l-82 -82v-385l136 133h448l211 -211v-473l-211 -211h-610zM360 287l82 -82h394l82 82v321l-82 82h-308l-168 -172v-231z" />
<glyph unicode="7" horiz-adv-x="1052" d="M20 1229v205h971v-250l-571 -1184h-250l575 1190v39h-725z" />
<glyph unicode="8" horiz-adv-x="1290" d="M113 211v399l129 129l-109 109v375l211 211h602l211 -211v-375l-108 -109l129 -129v-399l-211 -211h-643zM350 287l82 -82h426l82 82v260l-82 80h-426l-82 -80v-260zM371 909l82 -82h385l82 82v238l-82 82h-385l-82 -82v-238z" />
<glyph unicode="9" horiz-adv-x="1267" d="M113 741v482l211 211h610l211 -211v-1012l-211 -211h-590l-211 211v174h238v-98l82 -82h372l82 82v370l-127 -127h-456zM350 817l82 -82h324l151 152v260l-82 82h-393l-82 -82v-330z" />
<glyph unicode=":" horiz-adv-x="456" d="M90 76v114l76 76h127l74 -78v-110l-74 -78h-127zM90 750v114l76 76h127l74 -76v-112l-74 -78h-127z" />
<glyph unicode=";" horiz-adv-x="456" d="M90 78v119l78 77h133l78 -79v-195l-113 -268h-135l76 268h-39zM92 750v114l76 76h127l76 -76v-112l-76 -78h-127z" />
<glyph unicode="&#x3c;" horiz-adv-x="1241" d="M86 487v213l1077 471v-229l-807 -342v-12l807 -359v-229z" />
<glyph unicode="=" horiz-adv-x="1138" d="M92 264v197h955v-197h-955zM92 621v196h955v-196h-955z" />
<glyph unicode="&#x3e;" horiz-adv-x="1241" d="M92 0v229l807 359v12l-807 342v229l1077 -471v-213z" />
<glyph unicode="?" horiz-adv-x="1130" d="M61 1018v176l240 240h490l247 -248v-254l-372 -361v-200h-230v272l369 356v115l-117 117h-285l-108 -109v-104h-234zM414 78v108l78 78h118l78 -78v-108l-78 -78h-118z" />
<glyph unicode="@" horiz-adv-x="1693" d="M92 299v604l410 410h698l402 -402v-475l-220 -219h-260l-88 88v47l-139 -135h-244l-190 191v368l192 193h265l98 -99v91h172v-566h106l103 107v332l-295 294h-494l-309 -307v-440l305 -303h838v-184h-944zM672 473l71 -72h127l111 111v190l-84 86h-156l-69 -71v-244z" />
<glyph unicode="A" horiz-adv-x="1304" d="M20 0l521 1434h225l518 -1434h-242l-122 340h-535l-123 -340h-242zM442 539h422l-211 606h-4z" />
<glyph unicode="B" horiz-adv-x="1355" d="M143 0v1434h869l198 -199v-401l-88 -89l152 -151v-379l-215 -215h-916zM375 201h567l98 98v229l-98 97h-567v-424zM375 817h518l84 84v250l-82 82h-520v-416z" />
<glyph unicode="C" horiz-adv-x="1325" d="M123 231v971l231 232h672l227 -228v-188h-237v104l-109 107h-430l-117 -115v-795l117 -114h430l109 106v105h237v-189l-227 -227h-672z" />
<glyph unicode="D" horiz-adv-x="1392" d="M143 0v1434h887l240 -240v-954l-240 -240h-887zM381 205h534l117 114v795l-117 115h-534v-1024z" />
<glyph unicode="E" horiz-adv-x="1224" d="M143 0v1434h1000v-203h-762v-410h702v-200h-702v-418h762v-203h-1000z" />
<glyph unicode="F" horiz-adv-x="1163" d="M143 0v1434h979v-203h-741v-438h643v-203h-643v-590h-238z" />
<glyph unicode="G" horiz-adv-x="1368" d="M123 231v971l231 232h684l228 -228v-188h-238v104l-108 107h-443l-117 -115v-795l117 -114h443l114 112v261h-313v204h545v-551l-232 -231h-680z" />
<glyph unicode="H" horiz-adv-x="1413" d="M143 0v1434h238v-617h651v617h238v-1434h-238v612h-651v-612h-238z" />
<glyph unicode="I" horiz-adv-x="544" d="M154 0v1434h237v-1434h-237z" />
<glyph unicode="J" horiz-adv-x="1171" d="M51 240v245h232v-166l114 -114h299l105 102v1127h237v-1207l-227 -227h-520z" />
<glyph unicode="K" horiz-adv-x="1310" d="M143 0v1434h238v-617h256l354 617h264l-415 -715l450 -719h-270l-383 612h-256v-612h-238z" />
<glyph unicode="L" horiz-adv-x="1132" d="M143 0v1434h238v-1231h721v-203h-959z" />
<glyph unicode="M" horiz-adv-x="1624" d="M143 0v1434h228l438 -988h4l438 988h230v-1434h-228v958h-4l-360 -776h-156l-358 776h-4v-958h-228z" />
<glyph unicode="N" horiz-adv-x="1411" d="M143 0v1434h217l676 -1043h4v1043h228v-1434h-217l-676 1040h-4v-1040h-228z" />
<glyph unicode="O" d="M123 231v971l231 232h709l231 -232v-971l-231 -231h-709zM360 319l117 -114h463l117 114v795l-117 115h-463l-117 -115v-795z" />
<glyph unicode="P" horiz-adv-x="1306" d="M143 0v1434h873l209 -211v-488l-211 -213h-633v-522h-238zM381 723h528l82 82v346l-82 82h-528v-510z" />
<glyph unicode="Q" d="M123 231v971l231 232h709l231 -232v-971l-149 -149l194 -201l-145 -145l-266 264h-574zM360 319l117 -114h463l117 114v795l-117 115h-463l-117 -115v-795z" />
<glyph unicode="R" horiz-adv-x="1366" d="M143 0v1434h873l209 -211v-441l-150 -149l158 -170v-463h-238v406l-147 161h-467v-567h-238zM381 764h528l82 82v305l-82 82h-528v-469z" />
<glyph unicode="S" horiz-adv-x="1288" d="M113 211v180h233v-108l78 -78h446l82 82v264l-80 80h-544l-211 209v383l211 211h630l211 -211v-183h-233v111l-80 78h-426l-80 -78v-238l80 -77h545l211 -211v-410l-215 -215h-647z" />
<glyph unicode="T" horiz-adv-x="1179" d="M41 1231v203h1098v-203h-430v-1231h-238v1231h-430z" />
<glyph unicode="U" d="M143 240v1194h238v-1115l117 -114h422l116 114v1115h238v-1194l-240 -240h-651z" />
<glyph unicode="V" horiz-adv-x="1314" d="M31 1434h245l379 -1151h4l379 1151h246l-508 -1434h-237z" />
<glyph unicode="W" horiz-adv-x="1789" d="M61 1434h240l193 -1080h6l305 1080h190l295 -1080h8l191 1080h240l-295 -1434h-230l-301 1075h-6l-311 -1075h-230z" />
<glyph unicode="X" horiz-adv-x="1302" d="M20 0l498 739l-477 695h266l344 -506l344 506h267l-476 -703l496 -731h-266l-365 541l-364 -541h-267z" />
<glyph unicode="Y" horiz-adv-x="1269" d="M10 1434h260l363 -623h4l362 623h261l-506 -844v-590h-238v590z" />
<glyph unicode="Z" horiz-adv-x="1196" d="M82 0v199l754 1030v4h-734v201h1012v-199l-754 -1030v-4h754v-201h-1032z" />
<glyph unicode="[" horiz-adv-x="679" d="M143 -240v1911h500v-198h-268v-1514h268v-199h-500z" />
<glyph unicode="\" horiz-adv-x="1060" d="M0 1434h240l821 -1434h-240z" />
<glyph unicode="]" horiz-adv-x="679" d="M37 -41h270v1514h-270v198h500v-1911h-500v199z" />
<glyph unicode="^" horiz-adv-x="1331" d="M92 506l457 928h227l463 -928h-240l-329 678h-13l-325 -678h-240z" />
<glyph unicode="_" horiz-adv-x="946" d="M0 -20h946v-197h-946v197z" />
<glyph unicode="`" horiz-adv-x="491" d="M45 1462h248l156 -338h-207z" />
<glyph unicode="a" horiz-adv-x="1161" d="M102 182v242l183 180h526v152l-76 75h-321l-76 -75v-66h-227v119l208 211h510l209 -211v-809h-211v158l-163 -158h-379zM330 244l61 -62h250l170 164v86h-416l-65 -63v-125z" />
<glyph unicode="b" horiz-adv-x="1214" d="M133 211v1251h232v-602l165 160h367l205 -205v-610l-205 -205h-555zM365 285l86 -86h333l86 86v450l-86 86h-217l-202 -203v-333z" />
<glyph unicode="c" horiz-adv-x="1126" d="M113 203v614l200 203h539l203 -205v-168h-232v94l-82 80h-315l-82 -80v-462l82 -80h315l82 80v94h232v-168l-203 -205h-539z" />
<glyph unicode="d" horiz-adv-x="1218" d="M113 205v610l202 205h402l137 -119v561h231v-1462h-219v168l-168 -168h-383zM344 285l86 -86h242l182 184v299l-158 139h-266l-86 -86v-450z" />
<glyph unicode="e" horiz-adv-x="1179" d="M113 203v612l202 205h555l207 -205v-381h-733v-164l78 -77h350l74 75v62h229v-131l-198 -199h-564zM344 604h502v141l-80 82h-342l-80 -82v-141z" />
<glyph unicode="f" horiz-adv-x="802" d="M41 823v197h184v211l197 196h350v-192h-250l-69 -68v-147h319v-197h-315v-823h-232v823h-184z" />
<glyph unicode="g" horiz-adv-x="1218" d="M113 205v610l202 205h398l155 -152v152h217v-1262l-211 -209h-538l-178 179v135h229v-68l51 -51h336l80 82v319l-158 -145h-381zM344 285l86 -86h242l182 178v291l-164 153h-260l-86 -86v-450z" />
<glyph unicode="h" horiz-adv-x="1200" d="M133 0v1462h232v-618l176 176h321l215 -215v-805h-231v741l-80 80h-188l-213 -215v-606h-232z" />
<glyph unicode="i" horiz-adv-x="538" d="M123 1239v119l84 82h125l84 -82v-119l-84 -82h-125zM154 0v1020h231v-1020h-231z" />
<glyph unicode="j" horiz-adv-x="569" d="M-123 -248h225l82 80v1188h232v-1258l-209 -208h-330v198zM154 1239v119l84 82h124l84 -82v-119l-84 -82h-124z" />
<glyph unicode="k" horiz-adv-x="1132" d="M133 0v1462h232v-833h198l273 391h256l-342 -492l362 -528h-256l-297 432h-194v-432h-232z" />
<glyph unicode="l" horiz-adv-x="518" d="M143 0v1462h232v-1462h-232z" />
<glyph unicode="m" horiz-adv-x="1746" d="M133 0v1020h215v-178l176 178h254l146 -148l147 148h344l209 -211v-809h-231v741l-80 80h-191l-118 -119v-702h-226v743l-78 78h-139l-196 -198v-623h-232z" />
<glyph unicode="n" horiz-adv-x="1196" d="M133 0v1020h215v-186l187 186h323l215 -215v-805h-231v741l-80 80h-184l-213 -215v-606h-232z" />
<glyph unicode="o" horiz-adv-x="1198" d="M113 205v610l202 205h566l204 -205v-610l-204 -205h-566zM344 276l82 -81h346l82 81v467l-82 82h-346l-82 -82v-467z" />
<glyph unicode="p" horiz-adv-x="1218" d="M133 -434v1454h215v-160l162 160h391l205 -205v-610l-205 -205h-393l-143 121v-555h-232zM365 354l172 -155h256l81 80v462l-81 80h-246l-182 -182v-285z" />
<glyph unicode="q" horiz-adv-x="1204" d="M113 205v610l202 205h557l209 -211v-1243h-231v598l-164 -164h-371zM344 279l80 -80h225l201 209v333l-80 80h-346l-80 -80v-462z" />
<glyph unicode="r" horiz-adv-x="821" d="M133 0v1020h215v-174l170 174h283v-199h-232l-204 -209v-612h-232z" />
<glyph unicode="s" horiz-adv-x="1081" d="M82 190v125h227v-65l58 -60h348l57 60v110l-59 60h-441l-182 184v230l186 186h515l188 -191v-124h-227v65l-58 59h-319l-58 -59v-102l60 -60h438l184 -186v-236l-186 -186h-543z" />
<glyph unicode="t" horiz-adv-x="831" d="M41 823v197h188v332h228v-332h313v-197h-313v-547l80 -79h233v-197h-342l-203 203v620h-184z" />
<glyph unicode="u" horiz-adv-x="1193" d="M123 207v813h231v-741l80 -80h178l217 217v604h232v-1020h-215v188l-191 -188h-325z" />
<glyph unicode="v" horiz-adv-x="1026" d="M10 1020h240l258 -764h8l260 764h240l-387 -1020h-234z" />
<glyph unicode="w" horiz-adv-x="1478" d="M51 1020h236l135 -711h8l205 711h213l186 -711h8l150 711h235l-262 -1020h-223l-201 739h-8l-215 -739h-223z" />
<glyph unicode="x" horiz-adv-x="1054" d="M20 0l379 518l-368 502h260l235 -328l238 328h260l-367 -506l377 -514h-260l-248 342l-245 -342h-261z" />
<glyph unicode="y" horiz-adv-x="1198" d="M123 211v809h231v-741l80 -80h187l213 221v600h231v-1262l-211 -209h-520l-180 179v135h231v-68l49 -51h320l80 82v348l-172 -174h-330z" />
<glyph unicode="z" horiz-adv-x="1003" d="M61 0v186l590 641v4h-569v189h860v-186l-590 -641v-5h590v-188h-881z" />
<glyph unicode="{" horiz-adv-x="749" d="M72 657v119l159 164v524l207 207h275v-201h-170l-80 -79v-512l-150 -154v-16l150 -154v-514l80 -80h170v-201h-275l-207 207v527z" />
<glyph unicode="|" horiz-adv-x="520" d="M143 -418v2151h234v-2151h-234z" />
<glyph unicode="}" horiz-adv-x="749" d="M37 -39h170l80 80v514l149 154v16l-149 154v512l-80 79h-170v201h274l207 -207v-524l160 -164v-119l-160 -163v-527l-207 -207h-274v201z" />
<glyph unicode="~" horiz-adv-x="1183" d="M92 375v178l207 207h188l267 -199h39l71 74v104h228v-178l-207 -207h-189l-266 199h-47l-64 -66v-112h-227z" />
<glyph unicode="&#xa1;" horiz-adv-x="540" d="M133 834v108l78 78h119l78 -78v-108l-78 -78h-119zM152 -139l32 772h172l33 -772v-275h-237v275z" />
<glyph unicode="&#xa2;" horiz-adv-x="1126" d="M113 203v614l200 203h168v205h209v-205h162l203 -205v-168h-232v94l-82 80h-315l-82 -80v-462l82 -80h315l82 80v94h232v-168l-203 -205h-162v-219h-209v219h-168z" />
<glyph unicode="&#xa3;" horiz-adv-x="1277" d="M92 594v197h191v395l247 248h457l217 -220v-159h-229v90l-88 86h-254l-115 -115v-325h488v-197h-488v-164l-151 -174v-55h860v-201h-1100v283l156 180v131h-191z" />
<glyph unicode="&#xa4;" horiz-adv-x="1333" d="M92 240l158 157l-60 60v450l60 60l-158 157l137 138l158 -158l53 53h455l53 -53l156 158l137 -138l-156 -155l60 -62v-450l-60 -60l156 -157l-137 -138l-156 158l-53 -53h-455l-55 55l-156 -160zM414 508l98 -100h311l99 100v348l-99 98h-311l-98 -98v-348z" />
<glyph unicode="&#xa5;" horiz-adv-x="1269" d="M10 1434h260l363 -623h4l362 623h261l-457 -762h272v-176h-321v-115h321v-176h-321v-205h-238v205h-313v176h313v115h-313v176h264z" />
<glyph unicode="&#xa6;" horiz-adv-x="520" d="M143 -418v946h234v-946h-234zM143 827v906h234v-906h-234z" />
<glyph unicode="&#xa7;" horiz-adv-x="1101" d="M92 528v279l115 111l-84 83v242l190 191h465l191 -191v-135h-234v76l-59 59h-266l-60 -59v-133l62 -60h407l191 -190v-266l-119 -119l88 -88v-236l-191 -190h-462l-191 190v135h234v-75l59 -60h264l60 60v127l-62 65h-414zM319 592l62 -62h342l59 60v153l-61 62h-342 l-60 -60v-153z" />
<glyph unicode="&#xa8;" horiz-adv-x="817" d="M59 1212v111l72 72h123l70 -74v-107l-70 -73h-123zM496 1214v107l69 74h123l72 -72v-111l-72 -71h-123z" />
<glyph unicode="&#xa9;" horiz-adv-x="1701" d="M92 385v664l385 385h750l383 -385v-664l-383 -385h-750zM287 461l276 -277h576l276 277v512l-276 276h-576l-276 -276v-512zM436 530v375l226 225h382l224 -223v-125h-193v70l-96 98h-236l-104 -104v-258l104 -103h234l98 97v77h193v-131l-221 -223h-385z" />
<glyph unicode="&#xaa;" horiz-adv-x="868" d="M82 856v150l137 139h356v88l-36 37h-215l-33 -33v-41h-203v78l158 160h370l160 -160v-555h-178v102l-115 -102h-264zM283 909l34 -35h168l90 84v52h-258l-34 -33v-68z" />
<glyph unicode="&#xab;" horiz-adv-x="1132" d="M51 469v164l492 389v-250l-277 -215v-12l277 -215v-250zM549 469v164l491 389v-250l-276 -215v-12l276 -215v-250z" />
<glyph unicode="&#xac;" horiz-adv-x="1132" d="M92 616v197h948v-514h-229v317h-719z" />
<glyph unicode="&#xad;" horiz-adv-x="864" d="M92 424v201h680v-201h-680z" />
<glyph unicode="&#xae;" horiz-adv-x="1120" d="M92 793v432l244 243h448l244 -243v-432l-244 -244h-448zM244 840l153 -152h326l154 152v338l-154 151h-326l-153 -151v-338zM375 795v448h301l86 -86v-135l-55 -53l57 -64v-110h-125v82l-43 49h-94v-131h-127zM498 1030h114l27 27v55l-27 29h-114v-111z" />
<glyph unicode="&#xaf;" horiz-adv-x="700" d="M23 1153v184h655v-184h-655z" />
<glyph unicode="&#xb0;" horiz-adv-x="720" d="M92 1102v217l152 149h233l152 -149v-217l-152 -150h-233zM254 1161l57 -57h99l57 57v99l-57 57h-99l-57 -57v-99z" />
<glyph unicode="&#xb1;" horiz-adv-x="1138" d="M92 0v199h955v-199h-955zM92 633v196h363v328h229v-328h363v-196h-363v-316h-229v316h-363z" />
<glyph unicode="&#xb2;" horiz-adv-x="798" d="M61 1131v149l154 154h375l153 -154v-206l-399 -314v-10h404v-176h-682v192l456 375v74l-35 33h-174l-32 -33v-84h-220z" />
<glyph unicode="&#xb3;" horiz-adv-x="866" d="M72 723v129h219v-63l33 -33h196l33 33v106l-29 29h-245v164h245l29 31v100l-33 33h-188l-33 -33v-64h-219v129l149 150h396l149 -150v-215l-63 -63l63 -64v-219l-149 -149h-404z" />
<glyph unicode="&#xb4;" horiz-adv-x="518" d="M57 1124l156 338h248l-197 -338h-207z" />
<glyph unicode="&#xb6;" horiz-adv-x="1202" d="M92 829v381l223 224h408v-1852h-215v1024h-193zM844 -418v1852h215v-1852h-215z" />
<glyph unicode="&#xb7;" horiz-adv-x="464" d="M90 496v119l78 77h131l76 -79v-115l-76 -80h-131z" />
<glyph unicode="&#xb8;" horiz-adv-x="571" d="M66 -328h241l31 31v59l-31 29h-205v70l91 233h172l-72 -178h113l102 -102v-170l-107 -107h-335v135z" />
<glyph unicode="&#xb9;" horiz-adv-x="577" d="M51 1100v203l240 131h174v-860h-221v622z" />
<glyph unicode="&#xba;" horiz-adv-x="872" d="M82 872v408l154 154h401l154 -154v-408l-154 -153h-401zM287 938l47 -47h205l47 47v276l-47 48h-205l-47 -48v-276z" />
<glyph unicode="&#xbb;" horiz-adv-x="1132" d="M92 80v250l275 215v12l-275 215v250l492 -389v-164zM590 80v250l274 215v12l-274 215v250l491 -389v-164z" />
<glyph unicode="&#xbc;" horiz-adv-x="1744" d="M92 1100v203l240 131h174v-860h-221v622zM305 0l822 1434h239l-821 -1434h-240zM899 143v195l389 522h260v-530h105v-187h-105v-143h-221v143h-428zM1122 319h223v320h-4l-219 -299v-21z" />
<glyph unicode="&#xbd;" horiz-adv-x="1837" d="M92 1100v203l240 131h174v-860h-221v622zM297 0l822 1434h239l-821 -1434h-240zM1058 557v149l154 154h375l153 -154v-206l-399 -314v-10h404v-176h-682v192l456 375v74l-35 33h-174l-32 -33v-84h-220z" />
<glyph unicode="&#xbe;" horiz-adv-x="1951" d="M92 723v129h219v-63l33 -33h196l33 33v106l-29 29h-245v164h245l29 31v100l-33 33h-188l-33 -33v-64h-219v129l149 150h396l149 -150v-215l-63 -63l63 -64v-219l-149 -149h-404zM514 0l822 1434h239l-821 -1434h-240zM1106 143v195l389 522h260v-530h105v-187h-105v-143 h-221v143h-428zM1329 319h223v320h-4l-219 -299v-21z" />
<glyph unicode="&#xbf;" horiz-adv-x="1130" d="M92 88l373 361v200h229v-272l-368 -357v-114l116 -117h285l109 109v104h233v-176l-240 -240h-489l-248 248v254zM442 834v108l78 78h119l78 -78v-108l-78 -78h-119z" />
<glyph unicode="&#xc0;" horiz-adv-x="1304" d="M20 0l521 1434h225l518 -1434h-242l-122 340h-535l-123 -340h-242zM342 1876h248l155 -338h-207zM442 539h422l-211 606h-4z" />
<glyph unicode="&#xc1;" horiz-adv-x="1304" d="M20 0l521 1434h225l518 -1434h-242l-122 340h-535l-123 -340h-242zM442 539h422l-211 606h-4zM549 1538l155 338h248l-197 -338h-206z" />
<glyph unicode="&#xc2;" horiz-adv-x="1304" d="M20 0l521 1434h225l518 -1434h-242l-122 340h-535l-123 -340h-242zM291 1538l264 316h196l264 -316h-223l-133 164h-12l-133 -164h-223zM442 539h422l-211 606h-4z" />
<glyph unicode="&#xc3;" horiz-adv-x="1304" d="M20 0l521 1434h225l518 -1434h-242l-122 340h-535l-123 -340h-242zM321 1571v129l131 129h158l131 -106h43l29 28v66h172v-127l-131 -131h-158l-131 106h-41l-31 -28v-64zM442 539h422l-211 606h-4z" />
<glyph unicode="&#xc4;" horiz-adv-x="1304" d="M20 0l521 1434h225l518 -1434h-242l-122 340h-535l-123 -340h-242zM303 1626v111l71 72h123l70 -74v-107l-70 -73h-123zM442 539h422l-211 606h-4zM739 1628v107l70 74h123l71 -72v-111l-71 -71h-123z" />
<glyph unicode="&#xc5;" horiz-adv-x="1304" d="M20 0l521 1434h225l518 -1434h-242l-122 340h-535l-123 -340h-242zM415 1665v191l134 133h208l134 -133v-191l-134 -133h-208zM442 539h422l-211 606h-4zM557 1719l51 -50h90l51 50v84l-51 51h-90l-51 -51v-84z" />
<glyph unicode="&#xc6;" horiz-adv-x="1937" d="M10 0l639 1434h1206v-207h-733v-406h674v-205h-674v-409h733v-207h-970v373h-465l-162 -373h-248zM508 575h377v652h-92z" />
<glyph unicode="&#xc7;" horiz-adv-x="1325" d="M123 231v971l231 232h672l227 -228v-188h-237v104l-109 107h-430l-117 -115v-795l117 -114h430l109 106v105h237v-189l-227 -227h-270l-33 -84h115l102 -102v-170l-106 -107h-338v135h241l31 31v59l-31 29h-205v70l54 139h-232z" />
<glyph unicode="&#xc8;" horiz-adv-x="1224" d="M143 0v1434h1000v-203h-762v-410h702v-200h-702v-418h762v-203h-1000zM367 1876h248l155 -338h-207z" />
<glyph unicode="&#xc9;" horiz-adv-x="1224" d="M143 0v1434h1000v-203h-762v-410h702v-200h-702v-418h762v-203h-1000zM551 1538l155 338h248l-197 -338h-206z" />
<glyph unicode="&#xca;" horiz-adv-x="1224" d="M143 0v1434h1000v-203h-762v-410h702v-200h-702v-418h762v-203h-1000zM293 1538l264 316h196l264 -316h-223l-133 164h-12l-133 -164h-223z" />
<glyph unicode="&#xcb;" horiz-adv-x="1224" d="M143 0v1434h1000v-203h-762v-410h702v-200h-702v-418h762v-203h-1000zM305 1626v111l71 72h123l70 -74v-107l-70 -73h-123zM741 1628v107l70 74h123l71 -72v-111l-71 -71h-123z" />
<glyph unicode="&#xcc;" horiz-adv-x="544" d="M-39 1876h248l155 -338h-207zM154 0v1434h237v-1434h-237z" />
<glyph unicode="&#xcd;" horiz-adv-x="544" d="M154 0v1434h237v-1434h-237zM168 1538l155 338h248l-197 -338h-206z" />
<glyph unicode="&#xce;" horiz-adv-x="544" d="M-90 1538l264 316h196l264 -316h-223l-133 164h-12l-133 -164h-223zM154 0v1434h237v-1434h-237z" />
<glyph unicode="&#xcf;" horiz-adv-x="544" d="M-78 1626v111l71 72h123l70 -74v-107l-70 -73h-123zM154 0v1434h237v-1434h-237zM358 1628v107l70 74h123l71 -72v-111l-71 -71h-123z" />
<glyph unicode="&#xd0;" horiz-adv-x="1488" d="M31 616v205h209v613h886l240 -240v-954l-240 -240h-886v616h-209zM477 205h535l116 114v795l-116 115h-535v-408h326v-205h-326v-411z" />
<glyph unicode="&#xd1;" horiz-adv-x="1411" d="M143 0v1434h217l676 -1043h4v1043h228v-1434h-217l-676 1040h-4v-1040h-228zM375 1571v129l131 129h158l131 -106h43l29 28v66h172v-127l-131 -131h-158l-131 106h-41l-31 -28v-64z" />
<glyph unicode="&#xd2;" d="M123 231v971l231 232h709l231 -232v-971l-231 -231h-709zM360 319l117 -114h463l117 114v795l-117 115h-463l-117 -115v-795zM398 1876h248l155 -338h-207z" />
<glyph unicode="&#xd3;" d="M123 231v971l231 232h709l231 -232v-971l-231 -231h-709zM360 319l117 -114h463l117 114v795l-117 115h-463l-117 -115v-795zM605 1538l155 338h248l-197 -338h-206z" />
<glyph unicode="&#xd4;" d="M123 231v971l231 232h709l231 -232v-971l-231 -231h-709zM347 1538l264 316h196l264 -316h-223l-133 164h-12l-133 -164h-223zM360 319l117 -114h463l117 114v795l-117 115h-463l-117 -115v-795z" />
<glyph unicode="&#xd5;" d="M123 231v971l231 232h709l231 -232v-971l-231 -231h-709zM360 319l117 -114h463l117 114v795l-117 115h-463l-117 -115v-795zM377 1571v129l131 129h158l131 -106h43l29 28v66h172v-127l-131 -131h-158l-131 106h-41l-31 -28v-64z" />
<glyph unicode="&#xd6;" d="M123 231v971l231 232h709l231 -232v-971l-231 -231h-709zM359 1626v111l71 72h123l70 -74v-107l-70 -73h-123zM360 319l117 -114h463l117 114v795l-117 115h-463l-117 -115v-795zM795 1628v107l70 74h123l71 -72v-111l-71 -71h-123z" />
<glyph unicode="&#xd7;" horiz-adv-x="1021" d="M92 266l275 275l-275 274l144 143l276 -274l274 274l144 -143l-275 -274l275 -275l-144 -143l-274 274l-276 -274z" />
<glyph unicode="&#xd8;" d="M2 -76l184 244l-63 63v971l231 232h709l45 -45l90 120h201l-176 -235l71 -72v-971l-231 -231h-709l-53 53l-98 -129h-201zM360 399l607 803l-27 27h-463l-117 -115v-715zM440 240l37 -35h463l117 114v738z" />
<glyph unicode="&#xd9;" d="M143 240v1194h238v-1115l117 -114h422l116 114v1115h238v-1194l-240 -240h-651zM420 1876h248l155 -338h-207z" />
<glyph unicode="&#xda;" d="M143 240v1194h238v-1115l117 -114h422l116 114v1115h238v-1194l-240 -240h-651zM605 1538l155 338h248l-197 -338h-206z" />
<glyph unicode="&#xdb;" d="M143 240v1194h238v-1115l117 -114h422l116 114v1115h238v-1194l-240 -240h-651zM347 1538l264 316h196l264 -316h-223l-133 164h-12l-133 -164h-223z" />
<glyph unicode="&#xdc;" d="M143 240v1194h238v-1115l117 -114h422l116 114v1115h238v-1194l-240 -240h-651zM359 1626v111l71 72h123l70 -74v-107l-70 -73h-123zM795 1628v107l70 74h123l71 -72v-111l-71 -71h-123z" />
<glyph unicode="&#xdd;" horiz-adv-x="1269" d="M10 1434h260l363 -623h4l362 623h261l-506 -844v-590h-238v590zM531 1538l155 338h248l-197 -338h-206z" />
<glyph unicode="&#xde;" horiz-adv-x="1306" d="M143 0v1434h238v-263h635l209 -208v-490l-211 -211h-633v-262h-238zM381 463h528l82 80v348l-82 80h-528v-508z" />
<glyph unicode="&#xdf;" horiz-adv-x="1320" d="M143 0v1229l201 198h530l201 -198v-240l-168 -196v-52l21 -22h155l187 -187v-342l-191 -190h-366l-191 190v140h230v-78l57 -57h172l57 57v215l-59 59h-160l-143 144v149l168 203v141l-68 68h-334l-67 -68v-1163h-232z" />
<glyph unicode="&#xe0;" horiz-adv-x="1161" d="M102 182v242l183 180h526v152l-76 75h-321l-76 -75v-66h-227v119l208 211h510l209 -211v-809h-211v158l-163 -158h-379zM303 1462h248l155 -338h-207zM330 244l61 -62h250l170 164v86h-416l-65 -63v-125z" />
<glyph unicode="&#xe1;" horiz-adv-x="1161" d="M102 182v242l183 180h526v152l-76 75h-321l-76 -75v-66h-227v119l208 211h510l209 -211v-809h-211v158l-163 -158h-379zM330 244l61 -62h250l170 164v86h-416l-65 -63v-125zM480 1124l155 338h248l-197 -338h-206z" />
<glyph unicode="&#xe2;" horiz-adv-x="1161" d="M102 182v242l183 180h526v152l-76 75h-321l-76 -75v-66h-227v119l208 211h510l209 -211v-809h-211v158l-163 -158h-379zM222 1124l264 316h196l264 -316h-223l-133 164h-12l-133 -164h-223zM330 244l61 -62h250l170 164v86h-416l-65 -63v-125z" />
<glyph unicode="&#xe3;" horiz-adv-x="1161" d="M102 182v242l183 180h526v152l-76 75h-321l-76 -75v-66h-227v119l208 211h510l209 -211v-809h-211v158l-163 -158h-379zM252 1157v129l131 129h158l131 -106h43l29 28v66h172v-127l-131 -131h-158l-131 106h-41l-31 -28v-64zM330 244l61 -62h250l170 164v86h-416l-65 -63 v-125z" />
<glyph unicode="&#xe4;" horiz-adv-x="1161" d="M102 182v242l183 180h526v152l-76 75h-321l-76 -75v-66h-227v119l208 211h510l209 -211v-809h-211v158l-163 -158h-379zM234 1212v111l71 72h123l70 -74v-107l-70 -73h-123zM330 244l61 -62h250l170 164v86h-416l-65 -63v-125zM670 1214v107l70 74h123l71 -72v-111 l-71 -71h-123z" />
<glyph unicode="&#xe5;" horiz-adv-x="1161" d="M102 182v242l183 180h526v152l-76 75h-321l-76 -75v-66h-227v119l208 211h510l209 -211v-809h-211v158l-163 -158h-379zM330 244l61 -62h250l170 164v86h-416l-65 -63v-125zM346 1251v191l134 133h208l134 -133v-191l-134 -133h-208zM488 1305l51 -50h90l51 50v84l-51 51 h-90l-51 -51v-84z" />
<glyph unicode="&#xe6;" horiz-adv-x="1853" d="M102 182v242l183 180h526v152l-76 75h-321l-76 -75v-66h-227v119l208 211h502l113 -111l110 111h496l211 -211v-373h-702v-162l79 -79h316l76 75v68h231v-131l-209 -207h-512l-143 145l-146 -145h-456zM330 244l61 -62h273l153 154v96h-422l-65 -63v-125zM1049 606h473 v144l-80 77h-314l-79 -77v-144z" />
<glyph unicode="&#xe7;" horiz-adv-x="1126" d="M113 203v614l200 203h539l203 -205v-168h-232v94l-82 80h-315l-82 -80v-462l82 -80h315l82 80v94h232v-168l-203 -205h-186l-33 -84h115l102 -102v-170l-107 -107h-337v135h241l31 31v59l-31 29h-205v70l54 139h-183z" />
<glyph unicode="&#xe8;" horiz-adv-x="1179" d="M113 203v612l202 205h555l207 -205v-381h-733v-164l78 -77h350l74 75v62h229v-131l-198 -199h-564zM285 1462h248l155 -338h-207zM344 604h502v141l-80 82h-342l-80 -82v-141z" />
<glyph unicode="&#xe9;" horiz-adv-x="1179" d="M113 203v612l202 205h555l207 -205v-381h-733v-164l78 -77h350l74 75v62h229v-131l-198 -199h-564zM344 604h502v141l-80 82h-342l-80 -82v-141zM492 1124l155 338h248l-197 -338h-206z" />
<glyph unicode="&#xea;" horiz-adv-x="1179" d="M113 203v612l202 205h555l207 -205v-381h-733v-164l78 -77h350l74 75v62h229v-131l-198 -199h-564zM234 1124l264 316h196l264 -316h-223l-133 164h-12l-133 -164h-223zM344 604h502v141l-80 82h-342l-80 -82v-141z" />
<glyph unicode="&#xeb;" horiz-adv-x="1179" d="M113 203v612l202 205h555l207 -205v-381h-733v-164l78 -77h350l74 75v62h229v-131l-198 -199h-564zM246 1212v111l71 72h123l70 -74v-107l-70 -73h-123zM344 604h502v141l-80 82h-342l-80 -82v-141zM682 1214v107l70 74h123l71 -72v-111l-71 -71h-123z" />
<glyph unicode="&#xec;" horiz-adv-x="538" d="M-43 1462h248l155 -338h-207zM154 0v1020h231v-1020h-231z" />
<glyph unicode="&#xed;" horiz-adv-x="538" d="M154 0v1020h231v-1020h-231zM164 1124l155 338h248l-197 -338h-206z" />
<glyph unicode="&#xee;" horiz-adv-x="538" d="M-94 1124l264 316h196l264 -316h-223l-133 164h-12l-133 -164h-223zM154 0v1020h231v-1020h-231z" />
<glyph unicode="&#xef;" horiz-adv-x="538" d="M-82 1212v111l71 72h123l70 -74v-107l-70 -73h-123zM154 0v1020h231v-1020h-231zM354 1214v107l70 74h123l71 -72v-111l-71 -71h-123z" />
<glyph unicode="&#xf0;" horiz-adv-x="1239" d="M113 211v489l211 211h428l139 -120v178l-74 106l-182 -106l-82 143l170 98l-33 50h-276v174h413l80 -117l178 102l82 -143l-166 -96l123 -176v-793l-211 -211h-589zM346 287l82 -80h381l82 80v268l-174 156h-289l-82 -82v-342z" />
<glyph unicode="&#xf1;" horiz-adv-x="1196" d="M133 0v1020h215v-186l187 186h323l215 -215v-805h-231v741l-80 80h-184l-213 -215v-606h-232zM278 1157v129l131 129h158l131 -106h43l29 28v66h172v-127l-131 -131h-158l-131 106h-41l-31 -28v-64z" />
<glyph unicode="&#xf2;" horiz-adv-x="1198" d="M113 205v610l202 205h566l204 -205v-610l-204 -205h-566zM289 1462h248l155 -338h-207zM344 276l82 -81h346l82 81v467l-82 82h-346l-82 -82v-467z" />
<glyph unicode="&#xf3;" horiz-adv-x="1198" d="M113 205v610l202 205h566l204 -205v-610l-204 -205h-566zM344 276l82 -81h346l82 81v467l-82 82h-346l-82 -82v-467zM496 1124l155 338h248l-197 -338h-206z" />
<glyph unicode="&#xf4;" horiz-adv-x="1198" d="M113 205v610l202 205h566l204 -205v-610l-204 -205h-566zM238 1124l264 316h196l264 -316h-223l-133 164h-12l-133 -164h-223zM344 276l82 -81h346l82 81v467l-82 82h-346l-82 -82v-467z" />
<glyph unicode="&#xf5;" horiz-adv-x="1198" d="M113 205v610l202 205h566l204 -205v-610l-204 -205h-566zM268 1157v129l131 129h158l131 -106h43l29 28v66h172v-127l-131 -131h-158l-131 106h-41l-31 -28v-64zM344 276l82 -81h346l82 81v467l-82 82h-346l-82 -82v-467z" />
<glyph unicode="&#xf6;" horiz-adv-x="1198" d="M113 205v610l202 205h566l204 -205v-610l-204 -205h-566zM250 1212v111l71 72h123l70 -74v-107l-70 -73h-123zM344 276l82 -81h346l82 81v467l-82 82h-346l-82 -82v-467zM686 1214v107l70 74h123l71 -72v-111l-71 -71h-123z" />
<glyph unicode="&#xf7;" horiz-adv-x="1138" d="M92 442v197h955v-197h-955zM436 164v104l74 76h115l75 -76v-104l-75 -74h-115zM436 813v105l76 73h115l75 -73v-105l-75 -76h-115z" />
<glyph unicode="&#xf8;" horiz-adv-x="1198" d="M41 -82l158 201l-86 86v610l202 205h566l10 -10l74 92h200l-159 -207l79 -80v-610l-204 -205h-566l-4 4l-67 -86h-203zM344 307l406 518h-324l-82 -82v-436zM459 195h313l82 81v426z" />
<glyph unicode="&#xf9;" horiz-adv-x="1193" d="M123 207v813h231v-741l80 -80h178l217 217v604h232v-1020h-215v188l-191 -188h-325zM285 1462h248l155 -338h-207z" />
<glyph unicode="&#xfa;" horiz-adv-x="1193" d="M123 207v813h231v-741l80 -80h178l217 217v604h232v-1020h-215v188l-191 -188h-325zM490 1124l155 338h248l-197 -338h-206z" />
<glyph unicode="&#xfb;" horiz-adv-x="1193" d="M123 207v813h231v-741l80 -80h178l217 217v604h232v-1020h-215v188l-191 -188h-325zM232 1124l264 316h196l264 -316h-223l-133 164h-12l-133 -164h-223z" />
<glyph unicode="&#xfc;" horiz-adv-x="1193" d="M123 207v813h231v-741l80 -80h178l217 217v604h232v-1020h-215v188l-191 -188h-325zM244 1212v111l71 72h123l70 -74v-107l-70 -73h-123zM680 1214v107l70 74h123l71 -72v-111l-71 -71h-123z" />
<glyph unicode="&#xfd;" horiz-adv-x="1198" d="M123 211v809h231v-741l80 -80h187l213 221v600h231v-1262l-211 -209h-520l-180 179v135h231v-68l49 -51h320l80 82v348l-172 -174h-330zM492 1124l155 338h248l-197 -338h-206z" />
<glyph unicode="&#xfe;" horiz-adv-x="1218" d="M133 -434v1888h229v-577l148 143h391l205 -205v-610l-205 -205h-393l-143 121v-555h-232zM365 354l172 -155h256l81 80v462l-81 80h-246l-182 -182v-285z" />
<glyph unicode="&#xff;" horiz-adv-x="1198" d="M123 211v809h231v-741l80 -80h187l213 221v600h231v-1262l-211 -209h-520l-180 179v135h231v-68l49 -51h320l80 82v348l-172 -174h-330zM246 1212v111l71 72h123l70 -74v-107l-70 -73h-123zM682 1214v107l70 74h123l71 -72v-111l-71 -71h-123z" />
<glyph unicode="&#x152;" horiz-adv-x="2134" d="M123 231v971l231 232h639l125 -125v125h934v-207h-758v-406h699v-205h-699v-409h758v-207h-934v131l-131 -131h-633zM360 319l117 -114h457l123 123v778l-123 123h-457l-117 -115v-795z" />
<glyph unicode="&#x153;" horiz-adv-x="1906" d="M113 205v610l202 205h543l105 -102l102 102h526l213 -211v-373h-723v-162l80 -79h334l76 75v68h231v-131l-207 -207h-530l-102 104l-105 -104h-543zM344 276l82 -81h346l82 81v467l-82 82h-346l-82 -82v-467zM1081 606h492v144l-80 77h-332l-80 -77v-144z" />
<glyph unicode="&#x178;" horiz-adv-x="1269" d="M10 1434h260l363 -623h4l362 623h261l-506 -844v-590h-238v590zM285 1626v111l71 72h123l70 -74v-107l-70 -73h-123zM721 1628v107l70 74h123l71 -72v-111l-71 -71h-123z" />
<glyph unicode="&#x2c6;" horiz-adv-x="860" d="M68 1124l264 316h196l265 -316h-224l-133 164h-12l-133 -164h-223z" />
<glyph unicode="&#x2dc;" horiz-adv-x="800" d="M70 1157v129l131 129h157l131 -106h43l29 28v66h172v-127l-131 -131h-158l-131 106h-41l-30 -28v-64z" />
<glyph unicode="&#x2000;" horiz-adv-x="994" />
<glyph unicode="&#x2001;" horiz-adv-x="1989" />
<glyph unicode="&#x2002;" horiz-adv-x="994" />
<glyph unicode="&#x2003;" horiz-adv-x="1989" />
<glyph unicode="&#x2004;" horiz-adv-x="663" />
<glyph unicode="&#x2005;" horiz-adv-x="497" />
<glyph unicode="&#x2006;" horiz-adv-x="331" />
<glyph unicode="&#x2007;" horiz-adv-x="331" />
<glyph unicode="&#x2008;" horiz-adv-x="248" />
<glyph unicode="&#x2009;" horiz-adv-x="397" />
<glyph unicode="&#x200a;" horiz-adv-x="110" />
<glyph unicode="&#x2010;" horiz-adv-x="864" d="M92 424v201h680v-201h-680z" />
<glyph unicode="&#x2011;" horiz-adv-x="864" d="M92 424v201h680v-201h-680z" />
<glyph unicode="&#x2012;" horiz-adv-x="864" d="M92 424v201h680v-201h-680z" />
<glyph unicode="&#x2013;" horiz-adv-x="1294" d="M92 424v201h1110v-201h-1110z" />
<glyph unicode="&#x2014;" horiz-adv-x="1521" d="M92 424v201h1338v-201h-1338z" />
<glyph unicode="&#x2018;" horiz-adv-x="460" d="M86 971v194l113 269h133l-74 -269h37l80 -78v-116l-80 -80h-131z" />
<glyph unicode="&#x2019;" horiz-adv-x="460" d="M88 1237v119l78 77h133l76 -79v-195l-111 -268h-135l76 268h-39z" />
<glyph unicode="&#x201a;" horiz-adv-x="460" d="M88 78v119l78 77h133l76 -79v-195l-111 -268h-135l76 268h-39z" />
<glyph unicode="&#x201c;" horiz-adv-x="843" d="M86 971v194l113 269h133l-74 -269h37l80 -78v-116l-80 -80h-131zM471 971v194l111 269h135l-76 -269h39l78 -78v-116l-78 -80h-133z" />
<glyph unicode="&#x201d;" horiz-adv-x="843" d="M88 1237v119l78 77h133l76 -79v-195l-111 -268h-135l76 268h-39zM473 1237v119l78 77h133l76 -79v-195l-111 -268h-135l76 268h-39z" />
<glyph unicode="&#x201e;" horiz-adv-x="843" d="M88 78v119l78 77h133l76 -79v-195l-111 -268h-135l76 268h-39zM473 78v119l78 77h133l76 -79v-195l-111 -268h-135l76 268h-39z" />
<glyph unicode="&#x2022;" horiz-adv-x="643" d="M92 496v198l125 129h209l125 -129v-198l-125 -129h-209z" />
<glyph unicode="&#x2026;" horiz-adv-x="1396" d="M90 78v119l78 77h131l76 -79v-115l-76 -80h-131zM555 78v119l78 77h131l76 -79v-115l-76 -80h-131zM1022 78v119l78 77h131l76 -79v-115l-76 -80h-131z" />
<glyph unicode="&#x202f;" horiz-adv-x="397" />
<glyph unicode="&#x2039;" horiz-adv-x="634" d="M51 469v164l492 389v-250l-277 -215v-12l277 -215v-250z" />
<glyph unicode="&#x203a;" horiz-adv-x="634" d="M92 80v250l275 215v12l-275 215v250l492 -389v-164z" />
<glyph unicode="&#x205f;" horiz-adv-x="497" />
<glyph unicode="&#x20ac;" horiz-adv-x="1423" d="M41 463v178h180v135h-180v178h180v248l234 232h671l226 -228v-188h-238v104l-106 107h-433l-116 -115v-160h440v-178h-440v-135h440v-178h-440v-144l116 -114h433l106 106v105h238v-189l-226 -227h-671l-234 231v232h-180z" />
<glyph unicode="&#x2122;" horiz-adv-x="1658" d="M92 1255v179h621v-179h-207v-536h-209v536h-205zM788 719v715h205l183 -361h2l184 361h205v-715h-201v389h-4l-143 -268h-84l-142 268h-4v-389h-201z" />
<glyph unicode="&#x25fc;" horiz-adv-x="1024" d="M0 0v1024h1024v-1024h-1024z" />
</font>
</defs>
</svg>
