<?xml version="1.0" standalone="no"?>
<!DOCTYPE svg PUBLIC "-//W3C//DTD SVG 1.1//EN" "http://www.w3.org/Graphics/SVG/1.1/DTD/svg11.dtd" >
<svg xmlns="http://www.w3.org/2000/svg" xmlns:xlink="http://www.w3.org/1999/xlink" version="1.1">
<metadata></metadata>
<defs>
<font id="chakra_petchlight_italic" horiz-adv-x="1368" >
<font-face units-per-em="2048" ascent="1638" descent="-410" />
<missing-glyph horiz-adv-x="483" />
<glyph unicode="&#xfb01;" horiz-adv-x="1146" d="M143 918l19 102h184l45 260l191 160h274l-18 -101h-220l-120 -102l-37 -217h612l-180 -1020h-115l162 918h-498l-161 -918h-115l162 918h-185z" />
<glyph unicode="&#xfb02;" horiz-adv-x="1181" d="M143 918l19 102h184l47 274l189 160h594l-256 -1454h-115l239 1356h-421l-123 -103l-39 -233h321l-18 -102h-322l-161 -918h-115l162 918h-185z" />
<glyph horiz-adv-x="0" />
<glyph unicode="&#xd;" horiz-adv-x="483" />
<glyph horiz-adv-x="0" />
<glyph horiz-adv-x="0" />
<glyph unicode=" "  horiz-adv-x="483" />
<glyph unicode="&#x09;" horiz-adv-x="483" />
<glyph unicode="&#xa0;" horiz-adv-x="483" />
<glyph unicode="!" horiz-adv-x="483" d="M84 45l10 68l53 45h64l37 -45l-10 -68l-54 -45h-63zM168 307l131 852l47 275h119l-49 -275l-170 -852h-78z" />
<glyph unicode="&#x22;" horiz-adv-x="622" d="M233 963l19 264l35 207h119l-37 -207l-74 -264h-62zM493 963l19 264l35 207h119l-37 -207l-74 -264h-62z" />
<glyph unicode="#" horiz-adv-x="1390" d="M109 424l16 100h240l137 396h-266l18 100h283l143 414h113l-144 -414h365l143 414h113l-144 -414h230l-19 -100h-245l-138 -396h273l-17 -100h-290l-148 -424h-113l148 424h-367l-147 -424h-111l148 424h-221zM475 524h367l137 396h-365z" />
<glyph unicode="$" horiz-adv-x="1239" d="M88 188l16 99h117l-12 -68l92 -113h211l100 578h-254l-147 180l72 402l196 168h266l39 225h111l-39 -225h209l156 -187l-19 -102h-117l13 72l-92 110h-170l-95 -536h232l149 -181l-78 -442l-196 -168h-246l-39 -225h-110l39 225h-248zM334 901l92 -110h205l94 536h-203 l-133 -110zM623 106h182l133 117l61 348l-92 113h-184z" />
<glyph unicode="%" horiz-adv-x="1660" d="M176 811l90 508l135 115h293l111 -131l-90 -508l-131 -115h-299zM285 840l55 -66h203l78 66l75 436l-55 65h-201l-78 -65zM291 0l1040 1434h123l-1042 -1434h-121zM930 131l90 508l133 115h295l108 -131l-88 -508l-133 -115h-297zM1038 160l56 -66h200l78 66l78 436 l-55 66h-203l-78 -66z" />
<glyph unicode="&#x26;" horiz-adv-x="1290" d="M86 186l72 410l170 143l-70 84l78 443l199 168h479l151 -183l-20 -116h-115l14 84l-90 108h-383l-129 -108l-63 -365l78 -94h565l25 131h114l-22 -131h133l-19 -105h-133l-86 -489l-194 -166h-600zM207 219l94 -113h494l133 113l76 436h-613l-125 -106z" />
<glyph unicode="'" horiz-adv-x="364" d="M233 963l19 264l35 207h119l-37 -207l-74 -264h-62z" />
<glyph unicode="(" horiz-adv-x="610" d="M76 -53l274 1556l197 168h211l-17 -102h-151l-135 -113l-260 -1481l94 -112h151l-18 -103h-193z" />
<glyph unicode=")" horiz-adv-x="610" d="M-76 -240l19 103h151l135 112l260 1481l-94 113h-151l18 102h193l153 -186l-274 -1557l-197 -168h-213z" />
<glyph unicode="*" horiz-adv-x="686" d="M231 1126l170 76l-143 76l64 84l118 -107l19 181h98l-53 -181l164 107l30 -84l-172 -76l146 -76l-62 -84l-125 107l-12 -178h-98l47 178l-158 -107z" />
<glyph unicode="+" horiz-adv-x="1087" d="M121 489l16 103h365l63 360h115l-64 -360h363l-18 -103h-363l-63 -360h-115l63 360h-362z" />
<glyph unicode="," horiz-adv-x="413" d="M-2 -248l108 248h-26l-41 51l12 76l62 49h73l41 -49l-22 -127l-135 -248h-72z" />
<glyph unicode="-" horiz-adv-x="806" d="M115 465l18 102h561l-18 -102h-561z" />
<glyph unicode="." horiz-adv-x="413" d="M37 51l14 76l60 49h75l41 -49l-14 -76l-57 -51h-76z" />
<glyph unicode="/" horiz-adv-x="915" d="M-90 0l1048 1438h121l-1046 -1438h-123z" />
<glyph unicode="0" horiz-adv-x="1269" d="M100 203l185 1046l215 185h573l170 -205l-186 -1049l-213 -180h-580zM221 233l107 -127h471l149 127l172 967l-106 127h-471l-150 -127z" />
<glyph unicode="1" horiz-adv-x="716" d="M207 1151l18 109l353 174h118l-254 -1434h-118l233 1319z" />
<glyph unicode="2" horiz-adv-x="1110" d="M33 0l45 256l885 772l32 189l-94 110h-414l-131 -110l-18 -99h-117l27 148l198 168h517l155 -187l-45 -260l-885 -768l-20 -113h758l-19 -106h-874z" />
<glyph unicode="3" horiz-adv-x="1169" d="M55 186l25 131h117l-19 -98l94 -113h451l131 113l61 340l-92 109h-397l20 106h398l129 109l59 334l-94 110h-438l-131 -110l-19 -99h-119l29 148l197 168h540l158 -187l-72 -399l-153 -131l108 -129l-73 -420l-197 -168h-559z" />
<glyph unicode="4" horiz-adv-x="1120" d="M25 301l38 219l795 914h189l-181 -1026h174l-18 -107h-174l-53 -301h-119l53 301h-704zM158 406h590l163 921h-12l-725 -831z" />
<glyph unicode="5" horiz-adv-x="1175" d="M76 186l24 129h117l-18 -96l94 -113h448l131 113l78 436l-94 111h-657l118 668h859l-19 -105h-743l-80 -457h581l156 -190l-90 -516l-195 -166h-555z" />
<glyph unicode="6" horiz-adv-x="1208" d="M96 186l191 1080l198 168h555l156 -189l-22 -127h-119l18 101l-90 108h-457l-131 -108l-94 -533l217 182h436l152 -182l-92 -520l-195 -166h-569zM219 217l92 -111h465l129 111l78 434l-94 111h-352l-261 -221z" />
<glyph unicode="7" horiz-adv-x="1003" d="M143 0l779 1239l14 88h-739l18 107h858l-35 -205l-772 -1229h-123z" />
<glyph unicode="8" horiz-adv-x="1241" d="M88 186l74 430l151 129l-88 109l74 412l197 168h555l155 -187l-71 -409l-129 -109l106 -129l-76 -434l-194 -166h-602zM209 217l94 -111h494l131 111l61 352l-90 109h-498l-129 -109zM348 887l88 -105h465l125 105l57 330l-92 110h-452l-131 -110z" />
<glyph unicode="9" horiz-adv-x="1218" d="M106 186l25 140h117l-19 -109l93 -111h442l129 111l90 504l-190 -162h-457l-152 182l92 525l199 168h561l158 -187l-190 -1081l-197 -166h-545zM309 776l92 -110h373l234 198l63 353l-92 110h-463l-131 -110z" />
<glyph unicode=":" horiz-adv-x="413" d="M39 51l12 76l60 49h73l41 -49l-12 -76l-57 -51h-74zM172 803l12 76l60 49h73l41 -49l-12 -76l-59 -51h-74z" />
<glyph unicode=";" horiz-adv-x="413" d="M-2 -248l106 248h-24l-43 51l14 76l60 49h73l43 -49l-22 -127l-135 -248h-72zM170 803l12 76l62 49h73l41 -49l-12 -76l-59 -51h-74z" />
<glyph unicode="&#x3c;" horiz-adv-x="1191" d="M102 512l25 133l1059 526l-23 -120l-942 -471l-2 -13l778 -454l-18 -113z" />
<glyph unicode="=" horiz-adv-x="1087" d="M90 317l16 103h842l-16 -103h-842zM150 662l18 102h842l-19 -102h-841z" />
<glyph unicode="&#x3e;" horiz-adv-x="1191" d="M33 0l22 121l942 471l2 12l-778 455l19 112l876 -509l-24 -134z" />
<glyph unicode="?" horiz-adv-x="1073" d="M199 1108l22 129l234 197h430l186 -224l-41 -241l-434 -361l-53 -297h-113l57 332l433 361l32 178l-125 149h-331l-168 -141l-15 -82h-114zM362 45l11 68l53 45h66l36 -45l-12 -68l-51 -45h-66z" />
<glyph unicode="@" horiz-adv-x="1644" d="M84 285l115 651l448 377h627l319 -385l-90 -514l-217 -187h-231l-58 70l13 78l-172 -148h-240l-152 187l66 374l199 170h299l90 -104l18 104h103l-62 -346l-51 -282h139l152 127l76 438l-258 315h-529l-385 -325l-100 -566l264 -323h813l-16 -102h-856zM563 436l88 -106 h178l201 172l41 241l-96 115h-232l-125 -106z" />
<glyph unicode="A" horiz-adv-x="1239" d="M-39 0l752 1434h139l246 -1434h-119l-68 410h-612l-211 -410h-127zM352 514h543l-129 791h-4z" />
<glyph unicode="B" horiz-adv-x="1306" d="M86 0l252 1434h768l156 -185l-74 -407l-121 -103l137 -168l-69 -395l-207 -176h-842zM221 104h658l149 127l55 314l-104 125h-660zM338 772h614l129 111l60 336l-92 110h-613z" />
<glyph unicode="C" horiz-adv-x="1275" d="M104 225l179 1004l239 205h594l180 -217l-18 -99h-117l13 72l-115 137h-494l-174 -147l-164 -924l125 -150h492l164 138l12 71h119l-23 -118l-231 -197h-596z" />
<glyph unicode="D" horiz-adv-x="1343" d="M86 0l252 1434h786l189 -226l-178 -1007l-236 -201h-813zM223 106h627l176 150l162 924l-123 147h-627z" />
<glyph unicode="E" horiz-adv-x="1175" d="M86 0l252 1434h887l-19 -107h-768l-98 -553h711l-19 -106h-710l-99 -562h768l-18 -106h-887z" />
<glyph unicode="F" horiz-adv-x="1114" d="M86 0l252 1434h866l-18 -107h-748l-98 -557h649l-18 -106h-649l-117 -664h-119z" />
<glyph unicode="G" horiz-adv-x="1318" d="M104 225l177 1004l241 205h608l179 -215l-17 -101h-118l14 72l-117 137h-506l-176 -147l-164 -924l125 -150h498l174 148l65 373h-329l18 106h449l-95 -530l-239 -203h-602z" />
<glyph unicode="H" horiz-adv-x="1363" d="M86 0l252 1434h119l-117 -666h778l115 666h119l-252 -1434h-119l117 662h-779l-116 -662h-117z" />
<glyph unicode="I" horiz-adv-x="487" d="M94 0l254 1434h119l-254 -1434h-119z" />
<glyph unicode="J" horiz-adv-x="1122" d="M33 223l28 172h115l-24 -139l124 -150h367l148 125l213 1203h116l-221 -1254l-211 -180h-473z" />
<glyph unicode="K" horiz-adv-x="1234" d="M86 0l252 1434h119l-117 -664h356l484 664h137l-520 -715l297 -719h-123l-275 664h-374l-117 -664h-119z" />
<glyph unicode="L" horiz-adv-x="1083" d="M86 0l252 1434h119l-234 -1328h727l-18 -106h-846z" />
<glyph unicode="M" horiz-adv-x="1574" d="M86 0l252 1434h135l268 -1166h4l678 1166h140l-252 -1434h-113l215 1212h-4l-637 -1079h-100l-256 1079h-4l-213 -1212h-113z" />
<glyph unicode="N" horiz-adv-x="1361" d="M86 0l252 1434h119l559 -1239h4l219 1239h111l-252 -1434h-119l-557 1241h-4l-219 -1241h-113z" />
<glyph unicode="O" d="M104 225l177 1004l241 205h631l184 -224l-178 -1007l-237 -203h-633zM225 256l125 -150h527l174 150l163 924l-124 147h-525l-176 -147z" />
<glyph unicode="P" horiz-adv-x="1257" d="M86 0l252 1434h780l156 -187l-80 -452l-197 -168h-682l-110 -627h-119zM334 731h620l133 111l66 377l-92 110h-623z" />
<glyph unicode="Q" d="M104 225l177 1004l241 205h631l184 -224l-178 -1007l-180 -154l154 -188l-86 -74l-177 213h-581zM225 256l125 -150h527l174 150l163 924l-124 147h-525l-176 -147z" />
<glyph unicode="R" horiz-adv-x="1316" d="M86 0l252 1434h780l156 -187l-80 -450l-186 -158l135 -180l-80 -459h-119l78 436l-137 185h-572l-108 -621h-119zM332 725h620l133 111l68 383l-92 110h-623z" />
<glyph unicode="S" horiz-adv-x="1239" d="M88 188l16 99h117l-12 -68l92 -113h504l133 117l61 348l-92 113h-549l-147 180l72 402l196 168h586l156 -187l-19 -102h-117l13 72l-92 110h-484l-133 -110l-55 -316l92 -110h547l149 -181l-78 -442l-196 -168h-604z" />
<glyph unicode="T" horiz-adv-x="1130" d="M217 1329l19 105h985l-19 -105h-432l-235 -1329h-117l233 1329h-434z" />
<glyph unicode="U" d="M125 225l213 1209h119l-209 -1180l123 -148h485l174 148l209 1180h119l-219 -1231l-238 -203h-592z" />
<glyph unicode="V" horiz-adv-x="1251" d="M225 1434h115l211 -1303h4l670 1303h129l-748 -1434h-137z" />
<glyph unicode="W" horiz-adv-x="1742" d="M256 1434h117l16 -1268h4l588 1268h117l133 -1268h4l459 1268h121l-533 -1434h-131l-135 1266h-4l-594 -1266h-131z" />
<glyph unicode="X" horiz-adv-x="1191" d="M-49 0l620 735l-348 699h123l299 -605l506 605h141l-592 -703l361 -731h-123l-311 637l-535 -637h-141z" />
<glyph unicode="Y" horiz-adv-x="1171" d="M205 1434h119l286 -723h4l545 723h135l-632 -832l-105 -602h-119l107 602z" />
<glyph unicode="Z" horiz-adv-x="1146" d="M25 0l20 123l1010 1206v4h-776l16 101h901l-20 -121l-1012 -1207v-4h797l-17 -102h-919z" />
<glyph unicode="[" horiz-adv-x="610" d="M41 -240l338 1911h381l-21 -100h-264l-301 -1710h264l-16 -101h-381z" />
<glyph unicode="\" horiz-adv-x="946" d="M164 1434h123l569 -1434h-121z" />
<glyph unicode="]" horiz-adv-x="610" d="M-78 -240l21 101h266l301 1710h-266l18 100h379l-338 -1911h-381z" />
<glyph unicode="^" horiz-adv-x="1288" d="M125 522l612 912h135l295 -912h-110l-258 803h-13l-536 -803h-125z" />
<glyph unicode="_" horiz-adv-x="827" d="M-113 -123l19 103h827l-18 -103h-828z" />
<glyph unicode="`" horiz-adv-x="491" d="M272 1470h136l96 -313h-109z" />
<glyph unicode="a" horiz-adv-x="1112" d="M74 162l45 268l180 150h557l39 227l-92 113h-361l-135 -113l-14 -92h-115l23 133l202 172h461l152 -182l-148 -838h-112l35 199l-240 -199h-344zM193 190l73 -88h273l272 226l27 149h-506l-105 -86z" />
<glyph unicode="b" horiz-adv-x="1167" d="M106 182l226 1280h114l-116 -665l262 223h336l151 -186l-116 -670l-191 -164h-514zM227 215l92 -111h408l131 111l103 592l-91 111h-260l-305 -261z" />
<glyph unicode="c" horiz-adv-x="1077" d="M86 182l119 672l194 166h475l156 -186l-16 -97h-115l12 70l-92 111h-379l-131 -111l-104 -592l92 -111h379l131 111l12 68h115l-23 -117l-194 -166h-481z" />
<glyph unicode="d" horiz-adv-x="1171" d="M86 182l119 672l194 166h392l161 -166l107 608h115l-256 -1462h-113l33 199l-232 -199h-370zM205 215l92 -111h293l270 230l70 397l-180 187h-308l-131 -111z" />
<glyph unicode="e" horiz-adv-x="1132" d="M86 184l119 670l194 166h502l156 -186l-64 -355h-739l-47 -262l94 -113h395l133 111l17 90h115l-25 -135l-199 -170h-497zM270 580h627l39 225l-92 113h-402l-131 -113z" />
<glyph unicode="f" horiz-adv-x="753" d="M143 918l19 102h184l43 246l191 159h274l-18 -100h-220l-120 -102l-35 -203h321l-18 -102h-322l-161 -918h-115l162 918h-185z" />
<glyph unicode="g" horiz-adv-x="1171" d="M55 -289l17 107h114l-12 -78l66 -82h391l131 111l72 415l-236 -184h-360l-152 184l119 670l194 166h381l166 -207l37 207h113l-228 -1299l-196 -165h-490zM205 215l92 -111h293l268 211l64 369l-191 234h-289l-131 -111z" />
<glyph unicode="h" horiz-adv-x="1150" d="M74 0l262 1462h115l-123 -674l270 232h303l152 -184l-146 -836h-114l141 805l-92 110h-221l-318 -268l-115 -647h-114z" />
<glyph unicode="i" horiz-adv-x="483" d="M94 0l180 1020h115l-180 -1020h-115zM287 1260l14 77l59 52h74l43 -52l-14 -80l-60 -49h-75z" />
<glyph unicode="j" horiz-adv-x="514" d="M-260 -446l18 102h195l133 113l219 1251h115l-230 -1301l-196 -165h-254zM317 1260l15 77l59 52h74l43 -52l-14 -80l-58 -49h-76z" />
<glyph unicode="k" horiz-adv-x="1042" d="M74 0l262 1462h115l-160 -880h246l385 438h139l-430 -492l270 -528h-123l-243 479h-263l-84 -479h-114z" />
<glyph unicode="l" horiz-adv-x="462" d="M84 0l260 1462h115l-260 -1462h-115z" />
<glyph unicode="m" horiz-adv-x="1697" d="M74 0l180 1020h113l-37 -209l245 209h240l131 -162l191 162h315l150 -180l-148 -840h-115l142 807l-92 111h-240l-182 -156l-136 -762h-112l141 795l-102 123h-172l-277 -236l-121 -682h-114z" />
<glyph unicode="n" horiz-adv-x="1146" d="M74 0l180 1020h113l-41 -232l272 232h299l152 -184l-146 -836h-115l142 805l-92 110h-217l-318 -268l-115 -647h-114z" />
<glyph unicode="o" horiz-adv-x="1150" d="M86 182l119 672l194 166h512l154 -186l-119 -670l-192 -164h-516zM207 215l92 -111h410l131 111l104 592l-92 111h-410l-131 -111z" />
<glyph unicode="p" horiz-adv-x="1171" d="M-2 -434l256 1454h113l-35 -197l231 197h369l153 -186l-118 -666l-197 -168h-401l-152 162l-104 -596h-115zM242 293l174 -189h313l131 111l105 592l-93 111h-290l-271 -230z" />
<glyph unicode="q" horiz-adv-x="1157" d="M86 184l119 670l194 166h510l152 -182l-225 -1272h-115l117 651l-254 -217h-346zM207 215l92 -111h268l295 254l78 449l-92 111h-406l-131 -111z" />
<glyph unicode="r" horiz-adv-x="772" d="M74 0l180 1020h113l-33 -191l225 191h252l-18 -102h-215l-269 -228l-121 -690h-114z" />
<glyph unicode="s" horiz-adv-x="1032" d="M51 164l23 121h114l-16 -92l76 -91h391l109 91l30 180l-76 92h-438l-125 151l45 258l172 146h465l137 -166l-22 -119h-115l17 92l-74 93h-365l-108 -93l-31 -172l78 -92h430l131 -160l-45 -256l-174 -147h-492z" />
<glyph unicode="t" horiz-adv-x="782" d="M145 920l17 100h188l60 332h110l-59 -332h317l-16 -102h-320l-123 -703l93 -113h204l-16 -102h-250l-151 184l129 736h-183z" />
<glyph unicode="u" horiz-adv-x="1144" d="M98 184l146 836h114l-141 -805l92 -111h217l316 271l114 645h115l-180 -1020h-113l39 233l-270 -233h-299z" />
<glyph unicode="v" horiz-adv-x="960" d="M131 1020h115l155 -909h9l475 909h125l-545 -1020h-146z" />
<glyph unicode="w" horiz-adv-x="1421" d="M172 1020h117l28 -887h7l421 887h115l82 -887h6l361 887h121l-435 -1020h-127l-86 883h-6l-420 -883h-129z" />
<glyph unicode="x" horiz-adv-x="980" d="M-39 0l467 518l-276 502h124l226 -414l370 414h138l-453 -506l283 -514h-125l-232 430l-385 -430h-137z" />
<glyph unicode="y" horiz-adv-x="1148" d="M43 -291l18 107h115l-14 -80l65 -78h381l131 111l82 464l-274 -233h-301l-150 182l148 838h114l-141 -805l92 -111h219l318 271l112 645h115l-225 -1288l-211 -176h-467z" />
<glyph unicode="z" horiz-adv-x="954" d="M2 0l21 113l784 807v4h-621l17 96h749l-20 -113l-785 -805v-4h641l-16 -98h-770z" />
<glyph unicode="{" horiz-adv-x="681" d="M133 680l12 76l189 166l104 581l199 168h194l-18 -102h-135l-133 -113l-103 -577l-176 -154l-4 -16l123 -154l-102 -580l94 -112h135l-18 -103h-177l-153 187l100 567z" />
<glyph unicode="|" horiz-adv-x="464" d="M10 -418l379 2151h117l-379 -2151h-117z" />
<glyph unicode="}" horiz-adv-x="681" d="M-76 -240l19 103h135l133 112l102 578l176 154l5 16l-123 154l102 579l-94 113h-135l18 102h176l154 -186l-100 -565l131 -166l-13 -76l-188 -166l-105 -584l-198 -168h-195z" />
<glyph unicode="~" horiz-adv-x="1134" d="M109 428l18 102l207 179h149l228 -199h75l129 108l13 70h114l-18 -104l-209 -176h-149l-228 196h-80l-122 -104l-13 -72h-114z" />
<glyph unicode="&#xa1;" horiz-adv-x="483" d="M18 -414l50 275l170 854h77l-131 -854l-47 -275h-119zM236 909l10 66l53 45h63l37 -45l-10 -68l-53 -43h-64z" />
<glyph unicode="&#xa2;" horiz-adv-x="1077" d="M86 182l119 672l194 166h199l35 205h112l-34 -205h163l156 -186l-16 -97h-115l12 70l-92 111h-379l-131 -111l-104 -592l92 -111h379l131 111l12 68h115l-23 -117l-194 -166h-187l-36 -205h-113l37 205h-182z" />
<glyph unicode="&#xa3;" horiz-adv-x="1228" d="M70 0l39 227l188 176l45 261h-190l16 100h192l82 463l242 207h408l161 -195l-20 -109h-115l15 82l-97 115h-309l-176 -149l-72 -414h492l-19 -100h-491l-51 -291l-189 -174l-16 -95h870l-18 -104h-987z" />
<glyph unicode="&#xa4;" horiz-adv-x="1284" d="M76 238l176 151l-41 49l88 508l211 178h143l115 99l80 -99h147l148 -178l-90 -508l-64 -53l123 -152l-82 -69l-123 149l-65 -55h-486l-45 55l-172 -149zM322 465l90 -109h411l127 109l82 453l-92 108h-156l-59 -49l-41 49h-154l-129 -108zM745 1124h48l-19 25z" />
<glyph unicode="&#xa5;" horiz-adv-x="1171" d="M168 268l18 101h318l33 188h-318l19 98h284l-317 779h119l286 -723h4l545 723h135l-592 -779h287l-16 -98h-320l-32 -188h317l-16 -101h-318l-47 -268h-119l47 268h-317z" />
<glyph unicode="&#xa6;" horiz-adv-x="464" d="M12 -418l158 895h115l-158 -895h-115zM240 879l151 854h115l-150 -854h-116z" />
<glyph unicode="&#xa7;" horiz-adv-x="1052" d="M90 68l21 112h114l-16 -86l76 -90h319l109 90l32 195l-67 82h-416l-133 161l47 275l146 125l-76 90l47 264l174 148h416l141 -166l-20 -113h-115l14 86l-76 92h-319l-109 -92l-32 -190l67 -84h408l139 -166l-47 -273l-148 -125l78 -94l-45 -262l-172 -145h-420zM250 563 l76 -92h393l106 90l37 215l-78 92h-389l-108 -92z" />
<glyph unicode="&#xa8;" horiz-adv-x="817" d="M258 1235l12 74l58 47h73l37 -47l-12 -76l-53 -45h-76zM649 1235l13 74l55 47h74l38 -47l-12 -76l-55 -45h-76z" />
<glyph unicode="&#xa9;" horiz-adv-x="1691" d="M98 369l127 714l412 351h725l305 -369l-127 -717l-410 -348h-729zM213 406l248 -304h624l357 304l110 624l-247 301h-625l-356 -301zM453 518l73 418l234 199h377l178 -213l-19 -105h-110l14 82l-113 135h-292l-164 -139l-62 -354l115 -138h291l162 136l14 86h111 l-23 -127l-231 -197h-379z" />
<glyph unicode="&#xaa;" horiz-adv-x="841" d="M172 842l31 176l135 112h383l24 140l-55 67h-250l-80 -67l-10 -60h-106l16 97l150 127h329l117 -142l-100 -573h-103l23 125l-152 -125h-252zM287 868l45 -53h190l166 139l17 86h-332l-66 -55z" />
<glyph unicode="&#xab;" horiz-adv-x="1021" d="M80 498l20 106l475 373l-26 -148l-356 -280l-3 -12l256 -283l-22 -129zM487 498l19 106l475 373l-27 -148l-356 -280l-2 -12l256 -283l-21 -129z" />
<glyph unicode="&#xac;" horiz-adv-x="1083" d="M150 657l18 105h836l-82 -463h-113l63 358h-722z" />
<glyph unicode="&#xad;" horiz-adv-x="806" d="M115 465l18 102h561l-18 -102h-561z" />
<glyph unicode="&#xae;" horiz-adv-x="1075" d="M180 831l66 373l258 219h373l194 -235l-63 -375l-258 -219h-375zM274 856l148 -178h291l213 178l51 305l-148 178h-290l-211 -178zM428 807l74 418h258l69 -84l-20 -109l-66 -55l48 -66l-19 -104h-82l15 86l-39 55h-131l-25 -141h-82zM549 1020h141l39 35l12 61l-28 35 h-142z" />
<glyph unicode="&#xaf;" horiz-adv-x="700" d="M203 1194l18 94h535l-17 -94h-536z" />
<glyph unicode="&#xb0;" horiz-adv-x="663" d="M233 1126l31 181l131 110h178l105 -125l-33 -180l-127 -108h-184zM332 1157l51 -63h104l76 63l19 109l-52 63h-104l-76 -63z" />
<glyph unicode="&#xb1;" horiz-adv-x="1087" d="M33 0l18 104h842l-19 -104h-841zM145 631l17 104h364l64 361h115l-64 -361h363l-17 -104h-364l-64 -361h-115l64 361h-363z" />
<glyph unicode="&#xb2;" horiz-adv-x="749" d="M109 574l29 166l532 438l16 102l-43 54h-237l-66 -54l-12 -75h-113l21 112l137 117h324l106 -127l-29 -166l-526 -430l-6 -39h457l-19 -98h-571z" />
<glyph unicode="&#xb3;" horiz-adv-x="817" d="M138 701l16 100h115l-15 -74l45 -53h260l64 53l31 177l-45 53h-250l18 100h250l61 53l31 170l-43 54h-254l-63 -54l-13 -73h-110l18 110l138 117h335l107 -129l-41 -231l-82 -70l57 -70l-43 -252l-127 -108h-354z" />
<glyph unicode="&#xb4;" horiz-adv-x="518" d="M231 1157l209 313h133l-233 -313h-109z" />
<glyph unicode="&#xb6;" horiz-adv-x="1062" d="M195 911l59 342l215 181h344l-326 -1850h-116l198 1127h-209zM608 -416l326 1850h117l-326 -1850h-117z" />
<glyph unicode="&#xb7;" horiz-adv-x="413" d="M111 469l14 76l60 49h75l41 -49l-14 -76l-57 -51h-76z" />
<glyph unicode="&#xb8;" horiz-adv-x="571" d="M-80 -463l17 88h243l56 47l12 78l-39 45h-205l14 80l103 180h106l-98 -170h131l90 -108l-26 -150l-107 -90h-297z" />
<glyph unicode="&#xb9;" horiz-adv-x="526" d="M207 1215l19 106l227 113h94l-151 -860h-111l129 739z" />
<glyph unicode="&#xba;" horiz-adv-x="858" d="M174 858l80 451l147 125h365l117 -140l-80 -450l-146 -125h-368zM291 889l57 -72h270l82 72l68 377l-59 69h-269l-84 -69z" />
<glyph unicode="&#xbb;" horiz-adv-x="1021" d="M35 125l26 147l357 283l2 12l-256 281l22 129l344 -373l-20 -106zM442 125l27 147l356 283l2 12l-256 281l21 129l344 -373l-18 -106z" />
<glyph unicode="&#xbc;" horiz-adv-x="1619" d="M205 0l1075 1434h123l-1075 -1434h-123zM248 1215l19 106l227 113h94l-151 -860h-111l129 739zM793 170l27 153l481 537h153l-104 -590h104l-16 -100h-104l-31 -170h-111l29 170h-428zM926 268h318l84 473h-7l-389 -434z" />
<glyph unicode="&#xbd;" horiz-adv-x="1705" d="M192 0l1075 1434h123l-1075 -1434h-123zM248 1215l19 106l227 113h94l-151 -860h-111l129 739zM922 0l29 166l532 438l16 102l-43 54h-237l-66 -54l-12 -75h-113l21 112l137 117h324l106 -127l-29 -166l-526 -430l-6 -39h457l-19 -98h-571z" />
<glyph unicode="&#xbe;" horiz-adv-x="1828" d="M158 701l16 100h115l-15 -74l45 -53h260l64 53l31 177l-45 53h-250l18 100h250l61 53l31 170l-43 54h-254l-63 -54l-13 -73h-110l18 110l138 117h335l107 -129l-41 -231l-82 -70l57 -70l-43 -252l-127 -108h-354zM424 0l1075 1434h123l-1075 -1434h-123zM975 170l27 153 l481 537h153l-104 -590h104l-16 -100h-104l-31 -170h-111l29 170h-428zM1108 268h318l84 473h-7l-389 -434z" />
<glyph unicode="&#xbf;" horiz-adv-x="1073" d="M-14 -190l43 241l434 361l51 297h115l-60 -332l-432 -359l-31 -180l125 -149h332l166 141l14 82h117l-22 -129l-234 -197h-432zM530 909l11 66l53 45h63l39 -45l-12 -68l-51 -43h-66z" />
<glyph unicode="&#xc0;" horiz-adv-x="1239" d="M-39 0l752 1434h139l246 -1434h-119l-68 410h-612l-211 -410h-127zM352 514h543l-129 791h-4zM622 1884h136l98 -313h-109z" />
<glyph unicode="&#xc1;" horiz-adv-x="1239" d="M-39 0l752 1434h139l246 -1434h-119l-68 410h-612l-211 -410h-127zM352 514h543l-129 791h-4zM758 1571l206 313h136l-234 -313h-108z" />
<glyph unicode="&#xc2;" horiz-adv-x="1239" d="M-39 0l752 1434h139l246 -1434h-119l-68 410h-612l-211 -410h-127zM352 514h543l-129 791h-4zM555 1571l239 273h121l144 -273h-109l-100 195h-11l-167 -195h-117z" />
<glyph unicode="&#xc3;" horiz-adv-x="1239" d="M-39 0l752 1434h139l246 -1434h-119l-68 410h-612l-211 -410h-127zM352 514h543l-129 791h-4zM551 1604l14 78l113 96h114l113 -102h45l47 41l10 51h95l-13 -80l-114 -96h-113l-113 102h-43l-51 -41l-8 -49h-96z" />
<glyph unicode="&#xc4;" horiz-adv-x="1239" d="M-39 0l752 1434h139l246 -1434h-119l-68 410h-612l-211 -410h-127zM352 514h543l-129 791h-4zM538 1649l13 74l57 47h74l39 -47l-15 -76l-53 -45h-76zM930 1649l14 74l53 47h74l41 -47l-14 -76l-54 -45h-75z" />
<glyph unicode="&#xc5;" horiz-adv-x="1239" d="M-39 0l752 1434h139l246 -1434h-119l-68 410h-612l-211 -410h-127zM352 514h543l-129 791h-4zM631 1665l28 164l121 103h168l94 -115l-28 -164l-119 -102h-170zM723 1690l45 -55h100l66 55l16 102l-45 56h-100l-66 -56z" />
<glyph unicode="&#xc6;" horiz-adv-x="1873" d="M-49 0l885 1434h1087l-18 -107h-734l-98 -555h674l-18 -106h-674l-99 -560h734l-19 -106h-852l70 395h-572l-241 -395h-125zM383 502h524l146 825h-164z" />
<glyph unicode="&#xc7;" horiz-adv-x="1275" d="M104 225l179 1004l239 205h594l180 -217l-18 -99h-117l13 72l-115 137h-494l-174 -147l-164 -924l125 -150h492l164 138l12 71h119l-23 -118l-231 -197h-269l-65 -115h131l90 -108l-27 -150l-106 -90h-295l14 88h244l55 47l13 78l-39 45h-205l14 80l72 125h-223z" />
<glyph unicode="&#xc8;" horiz-adv-x="1175" d="M86 0l252 1434h887l-19 -107h-768l-98 -553h711l-19 -106h-710l-99 -562h768l-18 -106h-887zM614 1884h136l98 -313h-109z" />
<glyph unicode="&#xc9;" horiz-adv-x="1175" d="M86 0l252 1434h887l-19 -107h-768l-98 -553h711l-19 -106h-710l-99 -562h768l-18 -106h-887zM766 1571l206 313h136l-234 -313h-108z" />
<glyph unicode="&#xca;" horiz-adv-x="1175" d="M86 0l252 1434h887l-19 -107h-768l-98 -553h711l-19 -106h-710l-99 -562h768l-18 -106h-887zM563 1571l239 273h121l144 -273h-109l-100 195h-11l-167 -195h-117z" />
<glyph unicode="&#xcb;" horiz-adv-x="1175" d="M86 0l252 1434h887l-19 -107h-768l-98 -553h711l-19 -106h-710l-99 -562h768l-18 -106h-887zM546 1649l13 74l57 47h74l39 -47l-15 -76l-53 -45h-76zM938 1649l14 74l53 47h74l41 -47l-14 -76l-54 -45h-75z" />
<glyph unicode="&#xcc;" horiz-adv-x="487" d="M94 0l254 1434h119l-254 -1434h-119zM247 1884h136l98 -313h-109z" />
<glyph unicode="&#xcd;" horiz-adv-x="487" d="M94 0l254 1434h119l-254 -1434h-119zM381 1571l206 313h136l-234 -313h-108z" />
<glyph unicode="&#xce;" horiz-adv-x="487" d="M94 0l254 1434h119l-254 -1434h-119zM178 1571l239 273h121l144 -273h-109l-100 195h-11l-167 -195h-117z" />
<glyph unicode="&#xcf;" horiz-adv-x="487" d="M94 0l254 1434h119l-254 -1434h-119zM163 1649l13 74l57 47h74l39 -47l-15 -76l-53 -45h-76zM555 1649l14 74l53 47h74l41 -47l-14 -76l-54 -45h-75z" />
<glyph unicode="&#xd0;" horiz-adv-x="1425" d="M90 666l19 104h194l117 664h786l189 -226l-178 -1007l-236 -201h-813l117 666h-195zM305 106h627l176 150l162 924l-123 147h-627l-98 -557h354l-18 -104h-355z" />
<glyph unicode="&#xd1;" horiz-adv-x="1361" d="M86 0l252 1434h119l559 -1239h4l219 1239h111l-252 -1434h-119l-557 1241h-4l-219 -1241h-113zM613 1604l14 78l113 96h114l113 -102h45l47 41l10 51h95l-13 -80l-114 -96h-113l-113 102h-43l-51 -41l-8 -49h-96z" />
<glyph unicode="&#xd2;" d="M104 225l177 1004l241 205h631l184 -224l-178 -1007l-237 -203h-633zM225 256l125 -150h527l174 150l163 924l-124 147h-525l-176 -147zM688 1884h136l98 -313h-109z" />
<glyph unicode="&#xd3;" d="M104 225l177 1004l241 205h631l184 -224l-178 -1007l-237 -203h-633zM225 256l125 -150h527l174 150l163 924l-124 147h-525l-176 -147zM824 1571l206 313h136l-234 -313h-108z" />
<glyph unicode="&#xd4;" d="M104 225l177 1004l241 205h631l184 -224l-178 -1007l-237 -203h-633zM225 256l125 -150h527l174 150l163 924l-124 147h-525l-176 -147zM621 1571l239 273h121l144 -273h-109l-100 195h-11l-167 -195h-117z" />
<glyph unicode="&#xd5;" d="M104 225l177 1004l241 205h631l184 -224l-178 -1007l-237 -203h-633zM225 256l125 -150h527l174 150l163 924l-124 147h-525l-176 -147zM617 1604l14 78l113 96h114l113 -102h45l47 41l10 51h95l-13 -80l-114 -96h-113l-113 102h-43l-51 -41l-8 -49h-96z" />
<glyph unicode="&#xd6;" d="M104 225l177 1004l241 205h631l184 -224l-178 -1007l-237 -203h-633zM225 256l125 -150h527l174 150l163 924l-124 147h-525l-176 -147zM604 1649l13 74l57 47h74l39 -47l-15 -76l-53 -45h-76zM996 1649l14 74l53 47h74l41 -47l-14 -76l-54 -45h-75z" />
<glyph unicode="&#xd7;" horiz-adv-x="966" d="M78 252l340 289l-238 288l84 72l238 -289l338 289l59 -72l-338 -288l236 -289l-84 -72l-236 289l-338 -289z" />
<glyph unicode="&#xd8;" d="M-20 -61l186 213l-62 73l177 1004l241 205h631l64 -78l122 139h125l-186 -213l59 -72l-178 -1007l-237 -203h-633l-62 76l-121 -137h-126zM225 256l17 -18l899 1030l-51 59h-525l-176 -147zM303 164l47 -58h527l174 150l163 924l-12 14z" />
<glyph unicode="&#xd9;" d="M125 225l213 1209h119l-209 -1180l123 -148h485l174 148l209 1180h119l-219 -1231l-238 -203h-592zM675 1884h136l98 -313h-109z" />
<glyph unicode="&#xda;" d="M125 225l213 1209h119l-209 -1180l123 -148h485l174 148l209 1180h119l-219 -1231l-238 -203h-592zM824 1571l206 313h136l-234 -313h-108z" />
<glyph unicode="&#xdb;" d="M125 225l213 1209h119l-209 -1180l123 -148h485l174 148l209 1180h119l-219 -1231l-238 -203h-592zM621 1571l239 273h121l144 -273h-109l-100 195h-11l-167 -195h-117z" />
<glyph unicode="&#xdc;" d="M125 225l213 1209h119l-209 -1180l123 -148h485l174 148l209 1180h119l-219 -1231l-238 -203h-592zM606 1649l13 74l57 47h74l39 -47l-15 -76l-53 -45h-76zM998 1649l14 74l53 47h74l41 -47l-14 -76l-54 -45h-75z" />
<glyph unicode="&#xdd;" horiz-adv-x="1171" d="M205 1434h119l286 -723h4l545 723h135l-632 -832l-105 -602h-119l107 602zM709 1571l206 313h136l-234 -313h-108z" />
<glyph unicode="&#xde;" horiz-adv-x="1257" d="M86 0l176 997l76 437h119l-56 -314h664l154 -186l-78 -453l-199 -168h-682l-55 -313h-119zM279 418h622l131 110l66 377l-92 111h-623z" />
<glyph unicode="&#xdf;" horiz-adv-x="1263" d="M84 0l223 1262l193 163h475l141 -174l-37 -215l-207 -233l-14 -80l41 -49h150l133 -162l-66 -367l-170 -145h-319l-138 168l21 111h115l-15 -89l76 -90h215l109 90l51 293l-76 92h-154l-92 113l23 135l207 234l28 166l-84 102h-378l-119 -102l-217 -1223h-115z" />
<glyph unicode="&#xe0;" horiz-adv-x="1112" d="M74 162l45 268l180 150h557l39 227l-92 113h-361l-135 -113l-14 -92h-115l23 133l202 172h461l152 -182l-148 -838h-112l35 199l-240 -199h-344zM193 190l73 -88h273l272 226l27 149h-506l-105 -86zM516 1470h136l98 -313h-109z" />
<glyph unicode="&#xe1;" horiz-adv-x="1112" d="M74 162l45 268l180 150h557l39 227l-92 113h-361l-135 -113l-14 -92h-115l23 133l202 172h461l152 -182l-148 -838h-112l35 199l-240 -199h-344zM193 190l73 -88h273l272 226l27 149h-506l-105 -86zM625 1157l206 313h136l-234 -313h-108z" />
<glyph unicode="&#xe2;" horiz-adv-x="1112" d="M74 162l45 268l180 150h557l39 227l-92 113h-361l-135 -113l-14 -92h-115l23 133l202 172h461l152 -182l-148 -838h-112l35 199l-240 -199h-344zM193 190l73 -88h273l272 226l27 149h-506l-105 -86zM422 1157l239 273h121l144 -273h-109l-100 195h-11l-167 -195h-117z " />
<glyph unicode="&#xe3;" horiz-adv-x="1112" d="M74 162l45 268l180 150h557l39 227l-92 113h-361l-135 -113l-14 -92h-115l23 133l202 172h461l152 -182l-148 -838h-112l35 199l-240 -199h-344zM193 190l73 -88h273l272 226l27 149h-506l-105 -86zM418 1190l14 78l113 96h114l113 -102h45l47 41l10 51h95l-13 -80 l-114 -96h-113l-113 102h-43l-51 -41l-8 -49h-96z" />
<glyph unicode="&#xe4;" horiz-adv-x="1112" d="M74 162l45 268l180 150h557l39 227l-92 113h-361l-135 -113l-14 -92h-115l23 133l202 172h461l152 -182l-148 -838h-112l35 199l-240 -199h-344zM193 190l73 -88h273l272 226l27 149h-506l-105 -86zM405 1235l13 74l57 47h74l39 -47l-15 -76l-53 -45h-76zM797 1235l14 74 l53 47h74l41 -47l-14 -76l-54 -45h-75z" />
<glyph unicode="&#xe5;" horiz-adv-x="1112" d="M74 162l45 268l180 150h557l39 227l-92 113h-361l-135 -113l-14 -92h-115l23 133l202 172h461l152 -182l-148 -838h-112l35 199l-240 -199h-344zM193 190l73 -88h273l272 226l27 149h-506l-105 -86zM498 1251l28 164l121 103h168l94 -115l-28 -164l-119 -102h-170z M590 1276l45 -55h100l66 55l16 102l-45 56h-100l-66 -56z" />
<glyph unicode="&#xe6;" horiz-adv-x="1796" d="M74 162l45 268l180 150h559l12 73l27 154l-94 113h-361l-133 -113l-16 -92h-115l23 133l205 172h458l101 -119l139 119h461l155 -186l-63 -355h-703l-24 -141l-15 -78l-8 -43l94 -113h359l133 111l16 90h115l-25 -135l-198 -170h-461l-137 166l-199 -166h-397zM193 190 l73 -88h318l223 187l14 78l19 110h-508l-105 -86zM973 580h588l38 225l-92 113h-362l-133 -113z" />
<glyph unicode="&#xe7;" horiz-adv-x="1077" d="M86 182l119 672l194 166h475l156 -186l-16 -97h-115l12 70l-92 111h-379l-131 -111l-104 -592l92 -111h379l131 111l12 68h115l-23 -117l-194 -166h-191l-65 -115h133l88 -108l-27 -150l-106 -90h-295l16 88h242l55 47l15 78l-39 45h-205l14 80l72 125h-188z" />
<glyph unicode="&#xe8;" horiz-adv-x="1132" d="M86 184l119 670l194 166h502l156 -186l-64 -355h-739l-47 -262l94 -113h395l133 111l17 90h115l-25 -135l-199 -170h-497zM270 580h627l39 225l-92 113h-402l-131 -113zM501 1470h136l98 -313h-109z" />
<glyph unicode="&#xe9;" horiz-adv-x="1132" d="M86 184l119 670l194 166h502l156 -186l-64 -355h-739l-47 -262l94 -113h395l133 111l17 90h115l-25 -135l-199 -170h-497zM270 580h627l39 225l-92 113h-402l-131 -113zM637 1157l206 313h136l-234 -313h-108z" />
<glyph unicode="&#xea;" horiz-adv-x="1132" d="M86 184l119 670l194 166h502l156 -186l-64 -355h-739l-47 -262l94 -113h395l133 111l17 90h115l-25 -135l-199 -170h-497zM270 580h627l39 225l-92 113h-402l-131 -113zM434 1157l239 273h121l144 -273h-109l-100 195h-11l-167 -195h-117z" />
<glyph unicode="&#xeb;" horiz-adv-x="1132" d="M86 184l119 670l194 166h502l156 -186l-64 -355h-739l-47 -262l94 -113h395l133 111l17 90h115l-25 -135l-199 -170h-497zM270 580h627l39 225l-92 113h-402l-131 -113zM417 1235l13 74l57 47h74l39 -47l-15 -76l-53 -45h-76zM809 1235l14 74l53 47h74l41 -47l-14 -76 l-54 -45h-75z" />
<glyph unicode="&#xec;" horiz-adv-x="483" d="M94 0l180 1020h115l-180 -1020h-115zM174 1470h136l98 -313h-109z" />
<glyph unicode="&#xed;" horiz-adv-x="483" d="M94 0l180 1020h115l-180 -1020h-115zM308 1157l206 313h136l-234 -313h-108z" />
<glyph unicode="&#xee;" horiz-adv-x="483" d="M94 0l180 1020h115l-180 -1020h-115zM105 1157l239 273h121l144 -273h-109l-100 195h-11l-167 -195h-117z" />
<glyph unicode="&#xef;" horiz-adv-x="483" d="M90 1235l13 74l57 47h74l39 -47l-15 -76l-53 -45h-76zM94 0l180 1020h115l-180 -1020h-115zM482 1235l14 74l53 47h74l41 -47l-14 -76l-54 -45h-75z" />
<glyph unicode="&#xf0;" horiz-adv-x="1163" d="M86 188l94 525l199 170h426l160 -172l32 186l-90 221l-188 -100l-33 84l188 98l-55 135h-229l18 99h295l74 -179l182 97l35 -84l-184 -97l106 -258l-133 -747l-195 -166h-546zM207 215l92 -111h446l132 111l65 375l-174 188h-350l-131 -110z" />
<glyph unicode="&#xf1;" horiz-adv-x="1146" d="M74 0l180 1020h113l-41 -232l272 232h299l152 -184l-146 -836h-115l142 805l-92 110h-217l-318 -268l-115 -647h-114zM445 1190l14 78l113 96h114l113 -102h45l47 41l10 51h95l-13 -80l-114 -96h-113l-113 102h-43l-51 -41l-8 -49h-96z" />
<glyph unicode="&#xf2;" horiz-adv-x="1150" d="M86 182l119 672l194 166h512l154 -186l-119 -670l-192 -164h-516zM207 215l92 -111h410l131 111l104 592l-92 111h-410l-131 -111zM508 1470h136l98 -313h-109z" />
<glyph unicode="&#xf3;" horiz-adv-x="1150" d="M86 182l119 672l194 166h512l154 -186l-119 -670l-192 -164h-516zM207 215l92 -111h410l131 111l104 592l-92 111h-410l-131 -111zM644 1157l206 313h136l-234 -313h-108z" />
<glyph unicode="&#xf4;" horiz-adv-x="1150" d="M86 182l119 672l194 166h512l154 -186l-119 -670l-192 -164h-516zM207 215l92 -111h410l131 111l104 592l-92 111h-410l-131 -111zM441 1157l239 273h121l144 -273h-109l-100 195h-11l-167 -195h-117z" />
<glyph unicode="&#xf5;" horiz-adv-x="1150" d="M86 182l119 672l194 166h512l154 -186l-119 -670l-192 -164h-516zM207 215l92 -111h410l131 111l104 592l-92 111h-410l-131 -111zM437 1190l14 78l113 96h114l113 -102h45l47 41l10 51h95l-13 -80l-114 -96h-113l-113 102h-43l-51 -41l-8 -49h-96z" />
<glyph unicode="&#xf6;" horiz-adv-x="1150" d="M86 182l119 672l194 166h512l154 -186l-119 -670l-192 -164h-516zM207 215l92 -111h410l131 111l104 592l-92 111h-410l-131 -111zM423 1235l13 74l57 47h74l39 -47l-15 -76l-53 -45h-76zM815 1235l14 74l53 47h74l41 -47l-14 -76l-54 -45h-75z" />
<glyph unicode="&#xf7;" horiz-adv-x="1087" d="M121 489l16 103h842l-18 -103h-840zM399 211l15 80l63 55h80l45 -55l-14 -82l-62 -53h-82zM502 793l12 79l66 54h79l46 -54l-15 -81l-63 -54h-82z" />
<glyph unicode="&#xf8;" horiz-adv-x="1150" d="M-63 -82l198 205l-49 59l119 672l194 166h512l43 -51l129 133h125l-196 -203l53 -65l-119 -670l-192 -164h-516l-43 53l-132 -135h-126zM207 215l8 -10l662 684l-25 29h-410l-131 -111zM274 135l25 -31h410l131 111l104 592l-10 12z" />
<glyph unicode="&#xf9;" horiz-adv-x="1144" d="M98 184l146 836h114l-141 -805l92 -111h217l316 271l114 645h115l-180 -1020h-113l39 233l-270 -233h-299zM526 1470h136l98 -313h-109z" />
<glyph unicode="&#xfa;" horiz-adv-x="1144" d="M98 184l146 836h114l-141 -805l92 -111h217l316 271l114 645h115l-180 -1020h-113l39 233l-270 -233h-299zM635 1157l206 313h136l-234 -313h-108z" />
<glyph unicode="&#xfb;" horiz-adv-x="1144" d="M98 184l146 836h114l-141 -805l92 -111h217l316 271l114 645h115l-180 -1020h-113l39 233l-270 -233h-299zM432 1157l239 273h121l144 -273h-109l-100 195h-11l-167 -195h-117z" />
<glyph unicode="&#xfc;" horiz-adv-x="1144" d="M98 184l146 836h114l-141 -805l92 -111h217l316 271l114 645h115l-180 -1020h-113l39 233l-270 -233h-299zM415 1235l13 74l57 47h74l39 -47l-15 -76l-53 -45h-76zM807 1235l14 74l53 47h74l41 -47l-14 -76l-54 -45h-75z" />
<glyph unicode="&#xfd;" horiz-adv-x="1148" d="M43 -291l18 107h115l-14 -80l65 -78h381l131 111l82 464l-274 -233h-301l-150 182l148 838h114l-141 -805l92 -111h219l318 271l112 645h115l-225 -1288l-211 -176h-467zM639 1157l206 313h136l-234 -313h-108z" />
<glyph unicode="&#xfe;" horiz-adv-x="1171" d="M-2 -434l334 1888h112l-112 -631l231 197h369l153 -186l-118 -666l-197 -168h-401l-152 160l-104 -594h-115zM242 293l174 -189h313l131 111l105 592l-93 111h-290l-271 -230z" />
<glyph unicode="&#xff;" horiz-adv-x="1148" d="M43 -291l18 107h115l-14 -80l65 -78h381l131 111l82 464l-274 -233h-301l-150 182l148 838h114l-141 -805l92 -111h219l318 271l112 645h115l-225 -1288l-211 -176h-467zM419 1235l13 74l57 47h74l39 -47l-15 -76l-53 -45h-76zM811 1235l14 74l53 47h74l41 -47l-14 -76 l-54 -45h-75z" />
<glyph unicode="&#x152;" horiz-adv-x="2060" d="M104 225l177 1004l241 205h596l125 -150l27 150h839l-20 -107h-731l-37 -211l-61 -344h671l-18 -106h-672l-41 -240l-55 -320h731l-21 -106h-837l24 143l-168 -143h-585zM225 256l125 -150h500l207 177l153 868l-147 176h-498l-176 -147z" />
<glyph unicode="&#x153;" horiz-adv-x="1859" d="M86 182l119 672l194 166h510l99 -121l141 121h479l156 -186l-64 -355h-719l-47 -262l95 -113h374l133 111l17 90h115l-25 -135l-199 -170h-475l-102 123l-146 -123h-503zM207 215l92 -111h410l129 111l92 516l14 76l-92 111h-410l-131 -111zM1018 580h606l39 225l-92 113 h-381l-131 -113l-37 -205z" />
<glyph unicode="&#x178;" horiz-adv-x="1171" d="M205 1434h119l286 -723h4l545 723h135l-632 -832l-105 -602h-119l107 602zM489 1649l13 74l57 47h74l39 -47l-15 -76l-53 -45h-76zM881 1649l14 74l53 47h74l41 -47l-14 -76l-54 -45h-75z" />
<glyph unicode="&#x2c6;" horiz-adv-x="860" d="M293 1157l239 273h121l144 -273h-109l-100 195h-10l-166 -195h-119z" />
<glyph unicode="&#x2dc;" horiz-adv-x="800" d="M262 1190l12 78l115 96h113l112 -102h45l48 41l10 51h94l-12 -80l-115 -96h-113l-112 102h-43l-49 -41l-11 -49h-94z" />
<glyph unicode="&#x2000;" horiz-adv-x="966" />
<glyph unicode="&#x2001;" horiz-adv-x="1932" />
<glyph unicode="&#x2002;" horiz-adv-x="966" />
<glyph unicode="&#x2003;" horiz-adv-x="1932" />
<glyph unicode="&#x2004;" horiz-adv-x="644" />
<glyph unicode="&#x2005;" horiz-adv-x="483" />
<glyph unicode="&#x2006;" horiz-adv-x="322" />
<glyph unicode="&#x2007;" horiz-adv-x="322" />
<glyph unicode="&#x2008;" horiz-adv-x="241" />
<glyph unicode="&#x2009;" horiz-adv-x="386" />
<glyph unicode="&#x200a;" horiz-adv-x="107" />
<glyph unicode="&#x2010;" horiz-adv-x="806" d="M115 465l18 102h561l-18 -102h-561z" />
<glyph unicode="&#x2011;" horiz-adv-x="806" d="M115 465l18 102h561l-18 -102h-561z" />
<glyph unicode="&#x2012;" horiz-adv-x="806" d="M115 465l18 102h561l-18 -102h-561z" />
<glyph unicode="&#x2013;" horiz-adv-x="1259" d="M115 465l18 102h1014l-19 -102h-1013z" />
<glyph unicode="&#x2014;" horiz-adv-x="1472" d="M115 465l18 102h1227l-19 -102h-1226z" />
<glyph unicode="&#x2018;" horiz-adv-x="411" d="M215 1061l23 125l135 248h69l-106 -248h26l41 -49l-12 -76l-61 -51h-74z" />
<glyph unicode="&#x2019;" horiz-adv-x="411" d="M219 1009l108 248h-26l-41 51l12 76l62 49h73l41 -49l-22 -127l-135 -248h-72z" />
<glyph unicode="&#x201a;" horiz-adv-x="411" d="M-2 -248l108 248h-26l-41 51l12 76l62 49h73l41 -49l-22 -127l-135 -248h-72z" />
<glyph unicode="&#x201c;" horiz-adv-x="690" d="M215 1061l23 125l135 248h69l-106 -248h26l41 -49l-12 -76l-61 -51h-74zM494 1061l22 125l135 248h70l-107 -248h27l41 -49l-12 -76l-62 -51h-73z" />
<glyph unicode="&#x201d;" horiz-adv-x="690" d="M219 1009l108 248h-26l-41 51l12 76l62 49h73l41 -49l-22 -127l-135 -248h-72zM498 1009l108 248h-26l-41 51l12 76l62 49h73l41 -49l-22 -127l-135 -248h-72z" />
<glyph unicode="&#x201e;" horiz-adv-x="690" d="M-4 -248l108 248h-26l-41 51l12 76l62 49h73l41 -49l-22 -127l-135 -248h-72zM277 -248l108 248h-26l-41 51l12 76l62 49h73l41 -49l-22 -127l-135 -248h-72z" />
<glyph unicode="&#x2022;" horiz-adv-x="704" d="M121 496l37 206l137 121h217l102 -129l-36 -211l-136 -116h-219z" />
<glyph unicode="&#x2026;" horiz-adv-x="1241" d="M37 51l14 76l60 49h75l41 -49l-14 -76l-57 -51h-76zM451 51l14 76l60 49h75l41 -49l-14 -76l-57 -51h-76zM864 51l14 76l60 49h75l41 -49l-14 -76l-57 -51h-76z" />
<glyph unicode="&#x202f;" horiz-adv-x="386" />
<glyph unicode="&#x2039;" horiz-adv-x="616" d="M80 498l20 106l475 373l-26 -148l-356 -280l-3 -12l256 -283l-22 -129z" />
<glyph unicode="&#x203a;" horiz-adv-x="616" d="M55 125l27 147l356 283l2 12l-256 281l23 129l344 -373l-21 -106z" />
<glyph unicode="&#x205f;" horiz-adv-x="483" />
<glyph unicode="&#x20ac;" horiz-adv-x="1359" d="M74 518l16 98h168l33 185h-168l18 100h168l58 328l239 205h594l180 -217l-18 -99h-117l12 72l-114 137h-494l-174 -147l-49 -279h512l-16 -100h-514l-33 -185h514l-19 -98h-512l-47 -262l125 -150h492l164 138l12 71h119l-23 -118l-231 -197h-596l-185 225l52 293h-166z " />
<glyph unicode="&#x2122;" horiz-adv-x="1546" d="M270 1335l17 99h540l-16 -99h-215l-111 -616h-110l110 616h-215zM803 721l127 715h108l133 -496h3l309 496h114l-127 -715h-106l88 498h-2l-260 -408h-74l-117 408h-2l-88 -498h-106z" />
<glyph unicode="&#x25fc;" horiz-adv-x="1024" d="M0 0v1024h1024v-1024h-1024z" />
</font>
</defs>
</svg>
