<?xml version="1.0" standalone="no"?>
<!DOCTYPE svg PUBLIC "-//W3C//DTD SVG 1.1//EN" "http://www.w3.org/Graphics/SVG/1.1/DTD/svg11.dtd" >
<svg xmlns="http://www.w3.org/2000/svg" xmlns:xlink="http://www.w3.org/1999/xlink" version="1.1">
<metadata></metadata>
<defs>
<font id="chakra_petchmedium_italic" horiz-adv-x="1400" >
<font-face units-per-em="2048" ascent="1638" descent="-410" />
<missing-glyph horiz-adv-x="518" />
<glyph unicode="&#xfb01;" horiz-adv-x="1214" d="M111 854l30 166h185l43 250l211 176h329l-26 -162h-242l-94 -80l-31 -184h645l-180 -1020h-193l152 854h-453l-151 -854h-191l150 854h-184z" />
<glyph unicode="&#xfb02;" horiz-adv-x="1265" d="M111 854l30 166h185l45 258l207 176h702l-256 -1454h-193l228 1294h-416l-94 -80l-33 -194h320l-31 -166h-318l-151 -854h-191l150 854h-184z" />
<glyph horiz-adv-x="0" />
<glyph unicode="&#xd;" horiz-adv-x="518" />
<glyph horiz-adv-x="0" />
<glyph horiz-adv-x="0" />
<glyph unicode=" "  horiz-adv-x="518" />
<glyph unicode="&#x09;" horiz-adv-x="518" />
<glyph unicode="&#xa0;" horiz-adv-x="518" />
<glyph unicode="!" horiz-adv-x="520" d="M66 66l16 96l78 65h100l55 -65l-16 -96l-78 -66h-102zM166 358l110 801l50 275h196l-49 -275l-172 -801h-135z" />
<glyph unicode="&#x22;" horiz-adv-x="778" d="M231 928l15 272l41 234h196l-41 -234l-80 -272h-131zM567 928l15 272l41 234h196l-41 -234l-80 -272h-131z" />
<glyph unicode="#" horiz-adv-x="1427" d="M82 391l29 164h239l117 332h-258l31 164h284l133 383h187l-133 -383h303l133 383h186l-133 -383h219l-28 -164h-248l-115 -332h262l-28 -164h-291l-135 -391h-189l137 391h-303l-135 -391h-188l137 391h-213zM539 555h301l116 332h-303z" />
<glyph unicode="$" horiz-adv-x="1271" d="M72 211l24 143h195l-17 -92l72 -90h160l84 475h-230l-172 209l70 391l219 187h252l39 225h174l-39 -225h191l176 -211l-25 -146h-192l16 94l-76 91h-121l-77 -443h211l172 -207l-76 -428l-217 -184h-236l-39 -225h-174l39 225h-229zM393 909l74 -90h154l77 443h-153 l-107 -91zM680 172h135l109 92l51 295l-76 88h-135z" />
<glyph unicode="%" horiz-adv-x="1724" d="M160 834l82 469l153 131h338l119 -144l-84 -481l-152 -129h-329zM281 0l1042 1434h199l-1041 -1434h-200zM338 883l47 -56h162l65 56l62 348l-47 55h-162l-66 -55zM946 154l82 469l154 131h338l118 -144l-84 -481l-151 -129h-330zM1124 203l47 -56h162l66 56l61 348 l-47 55h-162l-65 -55z" />
<glyph unicode="&#x26;" horiz-adv-x="1323" d="M70 211l69 389l166 143l-67 82l73 422l219 187h517l170 -207l-23 -127h-190l12 74l-72 88h-352l-103 -88l-51 -291l74 -92h496l24 133h189l-25 -133h135l-28 -168h-134l-77 -441l-215 -182h-633zM270 262l76 -90h463l106 92l64 359h-555l-107 -91z" />
<glyph unicode="'" horiz-adv-x="442" d="M231 928l15 272l41 234h196l-41 -234l-80 -272h-131z" />
<glyph unicode="(" horiz-adv-x="659" d="M61 -14l263 1484l235 201h260l-28 -168h-160l-129 -108l-240 -1358l90 -109h160l-29 -168h-235z" />
<glyph unicode=")" horiz-adv-x="659" d="M-86 -240l29 168h159l129 109l240 1358l-90 108h-160l29 168h235l187 -225l-262 -1485l-236 -201h-260z" />
<glyph unicode="*" horiz-adv-x="702" d="M209 1118l178 68l-154 69l86 115l115 -106l12 172h138l-56 -172l160 106l43 -115l-178 -69l154 -68l-84 -117l-121 109l-6 -172h-138l50 172l-154 -109z" />
<glyph unicode="+" horiz-adv-x="1122" d="M94 457l29 168h364l60 342h190l-59 -342h362l-28 -168h-365l-59 -342h-191l60 342h-363z" />
<glyph unicode="," horiz-adv-x="444" d="M-6 -260l115 260h-33l-58 70l19 102l82 70h110l58 -70l-31 -172l-154 -260h-108z" />
<glyph unicode="-" horiz-adv-x="843" d="M90 438l29 168h639l-29 -168h-639z" />
<glyph unicode="." horiz-adv-x="444" d="M20 70l19 102l82 70h108l58 -70l-19 -102l-80 -70h-110z" />
<glyph unicode="/" horiz-adv-x="991" d="M-90 0l1046 1436h199l-1046 -1436h-199z" />
<glyph unicode="0" horiz-adv-x="1302" d="M84 227l176 1004l238 203h604l190 -230l-178 -1007l-231 -197h-613zM289 281l90 -109h424l129 109l153 872l-90 109h-424l-127 -109z" />
<glyph unicode="1" horiz-adv-x="749" d="M170 1065l31 180l379 189h170l-254 -1434h-197l217 1229z" />
<glyph unicode="2" horiz-adv-x="1142" d="M12 0l51 287l871 719l29 165l-76 91h-373l-106 -91l-23 -120h-197l35 196l221 187h547l176 -211l-49 -283l-860 -702l-12 -68h745l-30 -170h-949z" />
<glyph unicode="3" horiz-adv-x="1202" d="M41 211l29 170h196l-22 -119l75 -90h412l107 90l51 285l-72 88h-409l30 172h410l102 88l49 276l-75 91h-400l-106 -91l-21 -118h-196l32 194l222 187h573l176 -211l-69 -389l-138 -117l97 -117l-72 -418l-215 -182h-592z" />
<glyph unicode="4" horiz-adv-x="1153" d="M0 285l45 254l778 895h277l-172 -977h174l-31 -172h-174l-49 -285h-197l49 285h-700zM223 451h512l139 792h-10l-631 -729z" />
<glyph unicode="5" horiz-adv-x="1208" d="M59 211l31 172h197l-23 -121l76 -90h408l106 90l68 381l-76 88h-674l123 703h934l-31 -170h-741l-64 -361h555l178 -213l-90 -508l-213 -182h-590z" />
<glyph unicode="6" horiz-adv-x="1241" d="M80 211l182 1036l219 187h586l178 -213l-28 -162h-197l20 112l-77 91h-410l-107 -91l-77 -436l178 150h434l176 -211l-86 -492l-215 -182h-602zM285 262l77 -90h418l107 90l65 361l-78 90h-321l-221 -189z" />
<glyph unicode="7" horiz-adv-x="1036" d="M102 0l785 1204l8 58h-731l31 172h931l-41 -240l-776 -1194h-207z" />
<glyph unicode="8" horiz-adv-x="1273" d="M70 211l71 401l152 129l-88 109l67 397l222 187h587l174 -211l-67 -385l-129 -109l106 -129l-71 -418l-217 -182h-631zM276 262l76 -90h451l106 90l52 291l-74 92h-451l-108 -92zM410 903l75 -90h410l109 90l47 268l-78 91h-408l-108 -91z" />
<glyph unicode="9" horiz-adv-x="1251" d="M90 211l29 156h196l-20 -105l78 -90h397l107 90l73 414l-159 -135h-457l-168 204l86 502l219 187h596l176 -211l-182 -1041l-215 -182h-582zM373 803l76 -90h339l199 168l51 290l-77 91h-418l-107 -91z" />
<glyph unicode=":" horiz-adv-x="440" d="M23 68l16 102l80 68h106l56 -68l-17 -102l-80 -68h-106zM145 770l17 102l80 68h108l53 -70l-16 -100l-78 -68h-108z" />
<glyph unicode=";" horiz-adv-x="440" d="M-8 -260l112 260h-30l-56 70l17 102l82 70h110l56 -70l-31 -172l-152 -260h-108zM143 770l17 102l80 68h108l55 -70l-18 -100l-80 -68h-108z" />
<glyph unicode="&#x3c;" horiz-adv-x="1224" d="M76 481l35 193l1128 497l-35 -200l-903 -398l-2 -12l764 -379l-31 -182z" />
<glyph unicode="=" horiz-adv-x="1122" d="M61 281l29 168h918l-29 -168h-918zM125 633l29 168h917l-29 -168h-917z" />
<glyph unicode="&#x3e;" horiz-adv-x="1224" d="M12 0l35 201l903 397l2 12l-764 379l31 182l957 -481l-35 -192z" />
<glyph unicode="?" horiz-adv-x="1110" d="M168 1051l29 168l256 215h467l206 -248l-43 -242l-436 -360l-41 -234h-188l51 293l430 356l25 140l-107 125h-301l-139 -117l-17 -96h-192zM344 66l16 96l78 65h103l53 -65l-16 -96l-76 -66h-103z" />
<glyph unicode="@" horiz-adv-x="1677" d="M68 307l106 613l463 393h663l342 -414l-83 -479l-234 -199h-262l-70 86l6 47l-157 -133h-232l-164 199l66 368l207 177h274l88 -107l19 103h151l-59 -338l-43 -248h115l131 110l63 361l-254 307h-495l-371 -315l-84 -473l256 -312h829l-28 -159h-901zM633 461l67 -84h144 l155 131l35 203l-82 98h-176l-96 -80z" />
<glyph unicode="A" horiz-adv-x="1288" d="M-59 0l766 1434h196l264 -1434h-198l-64 365h-565l-193 -365h-206zM418 530h465l-113 670h-4z" />
<glyph unicode="B" horiz-adv-x="1339" d="M66 0l251 1434h824l170 -205l-70 -391l-113 -97l132 -159l-70 -394l-221 -188h-903zM287 168h600l127 106l45 258l-88 109h-600zM399 803h553l109 92l49 281l-76 90h-553z" />
<glyph unicode="C" horiz-adv-x="1308" d="M86 242l174 975l252 217h639l197 -238l-27 -145h-197l17 92l-99 119h-452l-150 -127l-147 -836l106 -127h451l141 119l17 92h196l-33 -174l-245 -209h-641z" />
<glyph unicode="D" horiz-adv-x="1376" d="M66 0l251 1434h844l201 -244l-172 -981l-246 -209h-878zM293 172h565l150 127l147 836l-104 127h-568z" />
<glyph unicode="E" horiz-adv-x="1208" d="M66 0l251 1434h961l-31 -172h-764l-80 -457h707l-31 -170h-704l-82 -463h764l-31 -172h-960z" />
<glyph unicode="F" horiz-adv-x="1146" d="M66 0l251 1434h943l-31 -172h-746l-82 -476h646l-29 -172h-647l-109 -614h-196z" />
<glyph unicode="G" horiz-adv-x="1351" d="M86 242l172 975l252 217h655l195 -234l-27 -149h-196l16 92l-98 119h-465l-150 -127l-149 -836l106 -127h463l146 125l53 295h-318l31 172h510l-96 -553l-250 -211h-649z" />
<glyph unicode="H" horiz-adv-x="1396" d="M66 0l251 1434h197l-111 -633h695l110 633h197l-252 -1434h-197l111 629h-694l-111 -629h-196z" />
<glyph unicode="I" horiz-adv-x="524" d="M74 0l254 1434h196l-254 -1434h-196z" />
<glyph unicode="J" horiz-adv-x="1155" d="M16 244l37 213h191l-29 -158l107 -127h323l129 109l203 1153h197l-218 -1237l-231 -197h-508z" />
<glyph unicode="K" horiz-adv-x="1286" d="M66 0l251 1434h197l-111 -633h281l473 633h229l-536 -715l315 -719h-207l-276 629h-309l-111 -629h-196z" />
<glyph unicode="L" horiz-adv-x="1116" d="M66 0l251 1434h197l-221 -1264h723l-31 -170h-919z" />
<glyph unicode="M" horiz-adv-x="1607" d="M66 0l251 1434h193l266 -1049h4l633 1049h205l-254 -1434h-188l186 1047h-4l-545 -885h-139l-232 885h-4l-184 -1047h-188z" />
<glyph unicode="N" horiz-adv-x="1394" d="M66 0l251 1434h185l516 -1110h4l195 1110h188l-254 -1434h-184l-512 1110h-4l-197 -1110h-188z" />
<glyph unicode="O" d="M86 242l172 975l254 217h676l201 -242l-175 -983l-247 -209h-682zM291 299l106 -127h486l149 127l148 836l-105 127h-485l-150 -127z" />
<glyph unicode="P" horiz-adv-x="1290" d="M66 0l251 1434h832l174 -211l-84 -480l-217 -184h-662l-98 -559h-196zM391 727h557l109 90l63 359l-76 90h-559z" />
<glyph unicode="Q" d="M86 242l172 975l254 217h676l201 -242l-175 -983l-163 -139l157 -193l-139 -121l-205 244h-579zM291 299l106 -127h486l149 127l148 836l-105 127h-485l-150 -127z" />
<glyph unicode="R" horiz-adv-x="1349" d="M66 0l251 1434h832l174 -211l-78 -441l-180 -155l131 -176l-80 -451h-196l73 414l-127 170h-501l-103 -584h-196zM393 752h561l109 90l57 334l-76 90h-559z" />
<glyph unicode="S" horiz-adv-x="1271" d="M72 211l24 143h195l-17 -92l72 -90h469l109 92l51 295l-76 88h-539l-172 209l70 391l219 187h617l176 -211l-25 -146h-192l16 94l-76 91h-448l-107 -91l-45 -262l74 -90h539l172 -207l-76 -428l-217 -184h-639z" />
<glyph unicode="T" horiz-adv-x="1163" d="M184 1264l31 170h1061l-31 -170h-432l-223 -1264h-197l223 1264h-432z" />
<glyph unicode="U" d="M109 244l208 1190h197l-201 -1135l107 -127h442l150 127l202 1135h197l-217 -1219l-252 -215h-633z" />
<glyph unicode="V" horiz-adv-x="1298" d="M205 1434h194l191 -1198h4l614 1198h213l-759 -1434h-201z" />
<glyph unicode="W" horiz-adv-x="1777" d="M236 1434h194l10 -1145h6l525 1145h172l112 -1145h5l409 1145h201l-543 -1434h-199l-116 1145h-6l-533 -1145h-199z" />
<glyph unicode="X" horiz-adv-x="1269" d="M-59 0l624 737l-352 697h209l270 -541l457 541h231l-596 -705l365 -729h-209l-283 573l-485 -573h-231z" />
<glyph unicode="Y" horiz-adv-x="1241" d="M184 1434h201l266 -660h4l502 660h227l-649 -840l-104 -594h-197l105 594z" />
<glyph unicode="Z" horiz-adv-x="1179" d="M2 0l31 176l966 1088v4h-753l28 166h975l-30 -177l-967 -1087v-4h774l-29 -166h-995z" />
<glyph unicode="[" horiz-adv-x="657" d="M20 -240l338 1911h459l-31 -166h-268l-278 -1579h268l-29 -166h-459z" />
<glyph unicode="\" horiz-adv-x="1021" d="M164 1434h201l567 -1434h-199z" />
<glyph unicode="]" horiz-adv-x="657" d="M-88 -240l31 166h266l278 1579h-266l29 166h459l-338 -1911h-459z" />
<glyph unicode="^" horiz-adv-x="1316" d="M102 510l617 924h201l294 -924h-184l-229 725h-13l-477 -725h-209z" />
<glyph unicode="_" horiz-adv-x="905" d="M-123 -184l29 164h905l-29 -164h-905z" />
<glyph unicode="`" horiz-adv-x="491" d="M233 1466h211l97 -329h-176z" />
<glyph unicode="a" horiz-adv-x="1144" d="M55 182l43 250l201 168h539l28 172l-71 88h-334l-107 -88l-12 -76h-190l24 131l225 193h494l170 -207l-143 -813h-179l29 168l-205 -168h-360zM252 227l59 -69h256l226 184l18 107h-449l-83 -72z" />
<glyph unicode="b" horiz-adv-x="1198" d="M90 207l221 1255h191l-109 -622l215 180h350l170 -207l-110 -637l-207 -176h-551zM291 260l78 -94h362l111 94l88 500l-78 94h-234l-262 -223z" />
<glyph unicode="c" horiz-adv-x="1110" d="M68 203l112 639l211 178h518l170 -209l-22 -133h-191l15 84l-76 92h-338l-109 -92l-90 -504l76 -92h340l109 92l14 84h192l-30 -162l-211 -180h-525z" />
<glyph unicode="d" horiz-adv-x="1202" d="M68 203l112 635l213 182h408l133 -137l102 579h191l-258 -1462h-183l31 176l-207 -176h-374zM270 260l76 -94h262l236 201l57 329l-149 158h-281l-113 -94z" />
<glyph unicode="e" horiz-adv-x="1163" d="M70 203l110 637l213 180h541l170 -207l-64 -362h-735l-35 -197l74 -90h367l104 88l12 70h191l-27 -144l-209 -178h-546zM332 600h545l28 166l-74 90h-362l-109 -90z" />
<glyph unicode="f" horiz-adv-x="786" d="M111 856l30 164h185l39 229l210 178h332l-28 -161h-240l-94 -80l-29 -166h320l-31 -164h-318l-151 -856h-191l150 856h-184z" />
<glyph unicode="g" horiz-adv-x="1202" d="M33 -268l20 116h191l-13 -69l52 -62h352l108 90l62 351l-199 -158h-370l-168 203l112 635l213 182h402l143 -172l31 172h180l-225 -1284l-219 -185h-523zM270 260l76 -94h264l232 190l53 314l-156 184h-268l-113 -94z" />
<glyph unicode="h" horiz-adv-x="1183" d="M53 0l264 1462h191l-119 -633l225 191h314l176 -211l-143 -809h-191l135 762l-78 92h-196l-279 -238l-108 -616h-191z" />
<glyph unicode="i" horiz-adv-x="518" d="M74 0l180 1020h192l-180 -1020h-192zM264 1247l19 103l84 73h108l60 -73l-19 -107l-82 -69h-110z" />
<glyph unicode="j" horiz-adv-x="548" d="M-281 -446l31 165h215l107 93l213 1208h190l-225 -1282l-217 -184h-314zM295 1247l18 103l84 73h107l61 -73l-18 -107l-84 -69h-109z" />
<glyph unicode="k" horiz-adv-x="1101" d="M53 0l262 1462h193l-156 -848h207l359 406h223l-430 -492l270 -528h-199l-229 446h-229l-80 -446h-191z" />
<glyph unicode="l" horiz-adv-x="497" d="M63 0l261 1462h190l-260 -1462h-191z" />
<glyph unicode="m" horiz-adv-x="1730" d="M53 0l180 1020h183l-35 -186l219 186h248l123 -152l180 152h326l174 -209l-144 -811h-192l135 762l-76 92h-207l-153 -133l-129 -721h-185l136 764l-76 90h-154l-250 -213l-112 -641h-191z" />
<glyph unicode="n" horiz-adv-x="1179" d="M53 0l180 1020h183l-37 -199l235 199h310l176 -211l-144 -809h-190l135 762l-78 92h-192l-279 -238l-108 -616h-191z" />
<glyph unicode="o" horiz-adv-x="1181" d="M70 203l110 637l213 180h549l170 -207l-111 -637l-206 -176h-557zM270 256l76 -90h371l108 90l88 508l-75 90h-369l-109 -90z" />
<glyph unicode="p" horiz-adv-x="1202" d="M-23 -434l256 1454h183l-31 -172l201 172h377l170 -207l-111 -631l-215 -182h-399l-138 141l-102 -575h-191zM303 334l156 -168h276l109 92l90 504l-76 92h-262l-236 -203z" />
<glyph unicode="q" horiz-adv-x="1187" d="M70 205l110 633l213 182h541l174 -211l-219 -1243h-191l109 614l-211 -180h-356zM270 258l76 -92h240l258 227l65 369l-73 92h-369l-107 -92z" />
<glyph unicode="r" horiz-adv-x="804" d="M53 0l180 1020h183l-33 -178l209 178h272l-30 -166h-224l-254 -217l-112 -637h-191z" />
<glyph unicode="s" horiz-adv-x="1064" d="M35 188l22 117h189l-13 -76l58 -67h360l82 67l23 136l-58 71h-434l-147 178l43 244l190 162h500l160 -191l-23 -114h-190l14 76l-57 67h-334l-82 -67l-23 -127l58 -72h432l149 -182l-43 -248l-190 -162h-531z" />
<glyph unicode="t" horiz-adv-x="815" d="M113 856l28 164h189l59 332h186l-59 -332h315l-28 -166h-316l-104 -598l76 -90h223l-29 -166h-303l-168 203l115 653h-184z" />
<glyph unicode="u" horiz-adv-x="1177" d="M80 205l143 815h191l-135 -764l75 -90h191l278 237l111 617h190l-180 -1020h-182l35 203l-238 -203h-311z" />
<glyph unicode="v" horiz-adv-x="1005" d="M111 1020h190l137 -815h8l424 815h205l-559 -1020h-205z" />
<glyph unicode="w" horiz-adv-x="1462" d="M152 1020h190l18 -780h7l362 780h180l68 -780h8l307 780h199l-440 -1020h-193l-74 791h-8l-368 -791h-195z" />
<glyph unicode="x" horiz-adv-x="1026" d="M-59 0l469 518l-279 502h209l192 -358l322 358h221l-454 -506l284 -514h-207l-202 371l-334 -371h-221z" />
<glyph unicode="y" horiz-adv-x="1181" d="M27 -268l18 116h193l-13 -71l49 -60h340l109 90l70 388l-232 -195h-325l-158 195l145 825h191l-135 -762l77 -92h195l278 240l109 614h190l-225 -1278l-227 -191h-500z" />
<glyph unicode="z" horiz-adv-x="987" d="M-18 0l28 164l735 694v4h-591l28 158h824l-29 -164l-735 -694v-4h612l-29 -158h-843z" />
<glyph unicode="{" horiz-adv-x="727" d="M109 664l18 106l188 164l99 551l219 186h254l-29 -168h-158l-108 -90l-94 -534l-176 -154l-5 -16l123 -154l-94 -537l76 -90h158l-29 -168h-242l-164 199l95 541z" />
<glyph unicode="|" horiz-adv-x="499" d="M-10 -418l379 2151h192l-379 -2151h-192z" />
<glyph unicode="}" horiz-adv-x="727" d="M-86 -240l29 168h157l109 90l94 535l176 154l4 16l-123 154l95 536l-76 90h-158l29 168h242l163 -198l-94 -541l131 -164l-18 -106l-189 -164l-98 -551l-219 -187h-254z" />
<glyph unicode="~" horiz-adv-x="1167" d="M82 391l27 154l231 198h172l233 -200h50l100 86l18 94h189l-29 -154l-231 -198h-172l-232 200h-57l-92 -77l-19 -103h-188z" />
<glyph unicode="&#xa1;" horiz-adv-x="520" d="M-2 -414l49 275l172 801h135l-110 -801l-49 -275h-197zM205 858l16 96l78 66h102l54 -66l-17 -96l-78 -65h-100z" />
<glyph unicode="&#xa2;" horiz-adv-x="1110" d="M68 203l112 639l211 178h189l36 205h179l-37 -205h151l170 -209l-22 -133h-191l15 84l-76 92h-338l-109 -92l-90 -504l76 -92h340l109 92l14 84h192l-30 -162l-211 -180h-178l-39 -211h-179l37 211h-166z" />
<glyph unicode="&#xa3;" horiz-adv-x="1261" d="M47 0l47 268l187 176l30 172h-188l29 164h188l76 430l262 224h440l185 -220l-25 -135h-193l17 86l-84 99h-270l-150 -127l-61 -357h491l-29 -164h-491l-37 -204l-184 -174l-13 -70h867l-31 -168h-1063z" />
<glyph unicode="&#xa4;" horiz-adv-x="1316" d="M55 240l183 153l-48 60l84 467l66 57l-127 156l137 116l125 -157l64 53h467l43 -53l180 157l94 -116l-180 -154l49 -59l-84 -467l-68 -58l127 -155l-137 -117l-125 156l-63 -56h-467l-43 53l-180 -153zM381 492l86 -101h346l121 101l67 385l-86 102h-346l-120 -102z" />
<glyph unicode="&#xa5;" horiz-adv-x="1241" d="M158 229l26 152h318l24 139h-317l27 152h270l-322 762h201l266 -660h4l502 660h227l-589 -762h272l-27 -152h-317l-25 -139h318l-27 -152h-317l-41 -229h-197l41 229h-317z" />
<glyph unicode="&#xa6;" horiz-adv-x="499" d="M-8 -418l162 930h192l-162 -930h-192zM213 844l158 889h192l-157 -889h-193z" />
<glyph unicode="&#xa7;" horiz-adv-x="1085" d="M74 92l20 121h193l-15 -82l60 -68h282l82 68l27 148l-59 73h-404l-151 185l47 270l143 119l-76 92l45 250l197 166h448l158 -191l-20 -121h-193l14 82l-57 68h-287l-82 -68l-26 -149l59 -72h398l155 -190l-45 -263l-145 -122l78 -97l-46 -248l-192 -161h-451zM305 580 l60 -70h358l84 68l31 178l-60 69h-358l-84 -67z" />
<glyph unicode="&#xa8;" horiz-adv-x="817" d="M207 1219l18 98l76 63h107l49 -63l-17 -100l-71 -62h-109zM629 1219l16 98l74 63h106l54 -63l-19 -103l-72 -59h-110z" />
<glyph unicode="&#xa9;" horiz-adv-x="1689" d="M80 385l121 688l426 361h733l319 -385l-120 -691l-422 -358h-738zM260 440l232 -280h581l330 280l98 553l-231 281h-582l-332 -281zM434 528l72 402l246 209l389 2l188 -232l-20 -116h-168l14 81l-90 109h-260l-137 -115l-52 -301l95 -116h258l131 110l16 88h168 l-27 -147l-243 -207h-387z" />
<glyph unicode="&#xaa;" horiz-adv-x="860" d="M154 852l28 164l150 127h368l17 98l-39 47h-225l-54 -43l-8 -47h-172l17 92l167 144h357l131 -162l-96 -553h-156l18 106l-133 -106h-262zM334 897l31 -39h176l125 103l12 57h-283l-47 -41z" />
<glyph unicode="&#xab;" horiz-adv-x="1093" d="M55 475l29 152l528 379l-41 -226l-325 -235l-2 -13l241 -235l-34 -201zM522 475l29 152l528 379l-41 -226l-325 -235l-2 -13l241 -235l-34 -201z" />
<glyph unicode="&#xac;" horiz-adv-x="1116" d="M123 629l31 168h911l-90 -498h-189l60 330h-723z" />
<glyph unicode="&#xad;" horiz-adv-x="843" d="M90 438l29 168h639l-29 -168h-639z" />
<glyph unicode="&#xae;" horiz-adv-x="1099" d="M156 815l71 410l269 227h417l205 -250l-71 -411l-267 -226h-418zM293 850l135 -164h305l195 164l53 317l-135 164h-305l-193 -164zM422 795l76 440h284l76 -90l-22 -117l-68 -57l49 -68l-18 -108h-113l14 84l-36 51h-107l-25 -135h-110zM573 1026h123l35 31l10 55l-24 29 h-123z" />
<glyph unicode="&#xaf;" horiz-adv-x="700" d="M160 1169l28 156h615l-29 -156h-614z" />
<glyph unicode="&#xb0;" horiz-adv-x="700" d="M209 1116l37 207l151 129h217l123 -149l-37 -207l-147 -127h-223zM356 1161l50 -59h98l71 59l19 99l-49 59h-101l-69 -59z" />
<glyph unicode="&#xb1;" horiz-adv-x="1122" d="M12 0l31 166h918l-31 -166h-918zM125 633l29 168h362l62 340h190l-61 -340h364l-29 -168h-364l-60 -332h-190l59 332h-362z" />
<glyph unicode="&#xb2;" horiz-adv-x="782" d="M88 574l33 184l524 395l15 84l-31 39h-199l-47 -39l-14 -88h-184l28 154l154 131h360l125 -152l-32 -186l-488 -356l-2 -15h430l-26 -151h-646z" />
<glyph unicode="&#xb3;" horiz-adv-x="849" d="M121 727l21 115h184l-12 -74l30 -39h220l47 39l22 129l-31 35h-249l26 148h250l41 37l23 122l-33 39h-213l-43 -39l-15 -73h-182l25 139l149 129h375l127 -154l-37 -211l-74 -63l52 -64l-41 -243l-148 -125h-387z" />
<glyph unicode="&#xb4;" horiz-adv-x="518" d="M188 1137l213 329h211l-250 -329h-174z" />
<glyph unicode="&#xb6;" horiz-adv-x="1165" d="M166 866l65 369l234 199h401l-325 -1850h-183l187 1059h-195zM664 -416l325 1850h185l-326 -1850h-184z" />
<glyph unicode="&#xb7;" horiz-adv-x="444" d="M94 488l19 102l82 70h108l58 -70l-19 -102l-80 -70h-110z" />
<glyph unicode="&#xb8;" horiz-adv-x="571" d="M-98 -469l20 121h244l41 35l12 65l-31 37h-206l14 74l121 215h151l-100 -174h115l88 -111l-29 -162l-117 -100h-323z" />
<glyph unicode="&#xb9;" horiz-adv-x="559" d="M172 1135l31 174l250 125h147l-151 -860h-184l114 659z" />
<glyph unicode="&#xba;" horiz-adv-x="870" d="M158 877l73 419l162 138h391l129 -158l-75 -420l-160 -137h-393zM340 924l43 -54h229l64 54l53 305l-43 53h-229l-62 -53z" />
<glyph unicode="&#xbb;" horiz-adv-x="1093" d="M31 96l39 226l327 235l2 12l-243 236l34 201l396 -379l-27 -152zM498 96l39 226l327 235l2 12l-243 236l34 201l396 -379l-27 -152z" />
<glyph unicode="&#xbc;" horiz-adv-x="1701" d="M213 1135l31 174l250 125h147l-151 -860h-184l114 659zM215 0l1075 1434h198l-1073 -1434h-200zM819 153l31 181l484 526h223l-99 -549h105l-27 -158h-104l-27 -153h-184l26 153h-428zM1032 305h256l64 360h-4l-311 -340z" />
<glyph unicode="&#xbd;" horiz-adv-x="1785" d="M199 0l1075 1434h198l-1073 -1434h-200zM213 1135l31 174l250 125h147l-151 -860h-184l114 659zM948 0l33 184l524 395l15 84l-31 39h-199l-47 -39l-14 -88h-184l28 154l154 131h360l125 -152l-32 -186l-488 -356l-2 -15h430l-26 -151h-646z" />
<glyph unicode="&#xbe;" horiz-adv-x="1910" d="M141 727l21 115h184l-12 -74l30 -39h220l47 39l22 129l-31 35h-249l26 148h250l41 37l23 122l-33 39h-213l-43 -39l-15 -73h-182l25 139l149 129h375l127 -154l-37 -211l-74 -63l52 -64l-41 -243l-148 -125h-387zM431 0l1075 1434h198l-1073 -1434h-200zM995 153l31 181 l484 526h223l-99 -549h105l-27 -158h-104l-27 -153h-184l26 153h-428zM1208 305h256l64 360h-4l-311 -340z" />
<glyph unicode="&#xbf;" horiz-adv-x="1110" d="M-37 -166l43 242l436 360l41 234h189l-51 -293l-431 -357l-24 -139l106 -125h301l140 117l16 96h193l-29 -168l-256 -215h-467zM496 858l16 96l76 66h102l55 -66l-16 -96l-78 -65h-102z" />
<glyph unicode="&#xc0;" horiz-adv-x="1288" d="M-59 0l766 1434h196l264 -1434h-198l-64 365h-565l-193 -365h-206zM418 530h465l-113 670h-4zM594 1880h211l96 -329h-174z" />
<glyph unicode="&#xc1;" horiz-adv-x="1288" d="M-59 0l766 1434h196l264 -1434h-198l-64 365h-565l-193 -365h-206zM418 530h465l-113 670h-4zM740 1551l213 329h211l-250 -329h-174z" />
<glyph unicode="&#xc2;" horiz-adv-x="1288" d="M-59 0l766 1434h196l264 -1434h-198l-64 365h-565l-193 -365h-206zM418 530h465l-113 670h-4zM500 1551l291 301h172l184 -301h-180l-102 174h-13l-164 -174h-188z" />
<glyph unicode="&#xc3;" horiz-adv-x="1288" d="M-59 0l766 1434h196l264 -1434h-198l-64 365h-565l-193 -365h-206zM418 530h465l-113 670h-4zM523 1583l20 109l139 121h144l112 -107h41l39 33l10 61h146l-21 -110l-139 -119h-143l-113 107h-39l-41 -35l-10 -60h-145z" />
<glyph unicode="&#xc4;" horiz-adv-x="1288" d="M-59 0l766 1434h196l264 -1434h-198l-64 365h-565l-193 -365h-206zM418 530h465l-113 670h-4zM510 1633l19 98l73 63h109l49 -63l-18 -100l-70 -62h-111zM930 1633l19 98l73 63h107l51 -63l-16 -103l-74 -59h-109z" />
<glyph unicode="&#xc5;" horiz-adv-x="1288" d="M-59 0l766 1434h196l264 -1434h-198l-64 365h-565l-193 -365h-206zM418 530h465l-113 670h-4zM621 1667l33 183l137 118h196l109 -131l-31 -184l-137 -117h-199zM752 1708l43 -53h94l60 53l16 88l-43 52h-92l-62 -52z" />
<glyph unicode="&#xc6;" horiz-adv-x="1914" d="M-70 0l887 1434h1168l-31 -174h-733l-80 -455h674l-29 -172h-674l-82 -459h733l-30 -174h-930l67 381h-499l-234 -381h-207zM473 551h426l125 709h-117z" />
<glyph unicode="&#xc7;" horiz-adv-x="1308" d="M86 242l174 975l252 217h639l197 -238l-27 -145h-197l17 92l-99 119h-452l-150 -127l-147 -836l106 -127h451l141 119l17 92h196l-33 -174l-245 -209h-267l-55 -96h115l90 -111l-29 -166l-114 -96h-328l22 121h242l43 35l12 65l-30 37h-207l12 74l78 137h-225z" />
<glyph unicode="&#xc8;" horiz-adv-x="1208" d="M66 0l251 1434h961l-31 -172h-764l-80 -457h707l-31 -170h-704l-82 -463h764l-31 -172h-960zM557 1880h211l96 -329h-174z" />
<glyph unicode="&#xc9;" horiz-adv-x="1208" d="M66 0l251 1434h961l-31 -172h-764l-80 -457h707l-31 -170h-704l-82 -463h764l-31 -172h-960zM746 1551l213 329h211l-250 -329h-174z" />
<glyph unicode="&#xca;" horiz-adv-x="1208" d="M66 0l251 1434h961l-31 -172h-764l-80 -457h707l-31 -170h-704l-82 -463h764l-31 -172h-960zM506 1551l291 301h172l184 -301h-180l-102 174h-13l-164 -174h-188z" />
<glyph unicode="&#xcb;" horiz-adv-x="1208" d="M66 0l251 1434h961l-31 -172h-764l-80 -457h707l-31 -170h-704l-82 -463h764l-31 -172h-960zM516 1633l19 98l73 63h109l49 -63l-18 -100l-70 -62h-111zM936 1633l19 98l73 63h107l51 -63l-16 -103l-74 -59h-109z" />
<glyph unicode="&#xcc;" horiz-adv-x="524" d="M74 0l254 1434h196l-254 -1434h-196zM215 1880h211l96 -329h-174z" />
<glyph unicode="&#xcd;" horiz-adv-x="524" d="M74 0l254 1434h196l-254 -1434h-196zM361 1551l213 329h211l-250 -329h-174z" />
<glyph unicode="&#xce;" horiz-adv-x="524" d="M74 0l254 1434h196l-254 -1434h-196zM121 1551l291 301h172l184 -301h-180l-102 174h-13l-164 -174h-188z" />
<glyph unicode="&#xcf;" horiz-adv-x="524" d="M74 0l254 1434h196l-254 -1434h-196zM131 1633l19 98l73 63h109l49 -63l-18 -100l-70 -62h-111zM551 1633l19 98l73 63h107l51 -63l-16 -103l-74 -59h-109z" />
<glyph unicode="&#xd0;" horiz-adv-x="1464" d="M63 633l31 172h201l111 629h843l203 -244l-174 -981l-246 -209h-878l110 633h-201zM381 172h567l148 127l149 836l-106 127h-566l-79 -457h335l-30 -172h-336z" />
<glyph unicode="&#xd1;" horiz-adv-x="1394" d="M66 0l251 1434h185l516 -1110h4l195 1110h188l-254 -1434h-184l-512 1110h-4l-197 -1110h-188zM574 1583l20 109l139 121h144l112 -107h41l39 33l10 61h146l-21 -110l-139 -119h-143l-113 107h-39l-41 -35l-10 -60h-145z" />
<glyph unicode="&#xd2;" d="M86 242l172 975l254 217h676l201 -242l-175 -983l-247 -209h-682zM291 299l106 -127h486l149 127l148 836l-105 127h-485l-150 -127zM653 1880h211l96 -329h-174z" />
<glyph unicode="&#xd3;" d="M86 242l172 975l254 217h676l201 -242l-175 -983l-247 -209h-682zM291 299l106 -127h486l149 127l148 836l-105 127h-485l-150 -127zM799 1551l213 329h211l-250 -329h-174z" />
<glyph unicode="&#xd4;" d="M86 242l172 975l254 217h676l201 -242l-175 -983l-247 -209h-682zM291 299l106 -127h486l149 127l148 836l-105 127h-485l-150 -127zM559 1551l291 301h172l184 -301h-180l-102 174h-13l-164 -174h-188z" />
<glyph unicode="&#xd5;" d="M86 242l172 975l254 217h676l201 -242l-175 -983l-247 -209h-682zM291 299l106 -127h486l149 127l148 836l-105 127h-485l-150 -127zM582 1583l20 109l139 121h144l112 -107h41l39 33l10 61h146l-21 -110l-139 -119h-143l-113 107h-39l-41 -35l-10 -60h-145z" />
<glyph unicode="&#xd6;" d="M86 242l172 975l254 217h676l201 -242l-175 -983l-247 -209h-682zM291 299l106 -127h486l149 127l148 836l-105 127h-485l-150 -127zM569 1633l19 98l73 63h109l49 -63l-18 -100l-70 -62h-111zM989 1633l19 98l73 63h107l51 -63l-16 -103l-74 -59h-109z" />
<glyph unicode="&#xd7;" horiz-adv-x="1001" d="M57 260l330 281l-229 280l139 119l229 -281l330 281l98 -119l-329 -280l231 -281l-139 -119l-232 281l-329 -281z" />
<glyph unicode="&#xd8;" d="M-70 -68l215 236l-59 74l172 975l254 217h676l53 -64l119 131h180l-213 -233l62 -76l-175 -983l-247 -209h-682l-54 66l-120 -134h-181zM297 336l809 887l-31 39h-485l-150 -127zM365 211l32 -39h486l149 127l142 799z" />
<glyph unicode="&#xd9;" d="M109 244l208 1190h197l-201 -1135l107 -127h442l150 127l202 1135h197l-217 -1219l-252 -215h-633zM641 1880h211l96 -329h-174z" />
<glyph unicode="&#xda;" d="M109 244l208 1190h197l-201 -1135l107 -127h442l150 127l202 1135h197l-217 -1219l-252 -215h-633zM801 1551l213 329h211l-250 -329h-174z" />
<glyph unicode="&#xdb;" d="M109 244l208 1190h197l-201 -1135l107 -127h442l150 127l202 1135h197l-217 -1219l-252 -215h-633zM561 1551l291 301h172l184 -301h-180l-102 174h-13l-164 -174h-188z" />
<glyph unicode="&#xdc;" d="M109 244l208 1190h197l-201 -1135l107 -127h442l150 127l202 1135h197l-217 -1219l-252 -215h-633zM571 1633l19 98l73 63h109l49 -63l-18 -100l-70 -62h-111zM991 1633l19 98l73 63h107l51 -63l-16 -103l-74 -59h-109z" />
<glyph unicode="&#xdd;" horiz-adv-x="1241" d="M184 1434h201l266 -660h4l502 660h227l-649 -840l-104 -594h-197l105 594zM703 1551l213 329h211l-250 -329h-174z" />
<glyph unicode="&#xde;" horiz-adv-x="1290" d="M66 0l202 1155l49 279h197l-49 -279h635l174 -211l-84 -481l-217 -184h-662l-49 -279h-196zM340 446h561l109 93l63 356l-76 92h-561l-4 -24z" />
<glyph unicode="&#xdf;" horiz-adv-x="1300" d="M63 0l220 1245l215 182h508l163 -200l-39 -223l-202 -209l-10 -62l24 -31h148l151 -182l-63 -358l-191 -162h-360l-154 186l23 127h190l-14 -82l57 -69h186l82 69l43 240l-57 72h-160l-108 131l26 147l205 213l27 152l-66 78h-350l-92 -78l-211 -1186h-191z" />
<glyph unicode="&#xe0;" horiz-adv-x="1144" d="M55 182l43 250l201 168h539l28 172l-71 88h-334l-107 -88l-12 -76h-190l24 131l225 193h494l170 -207l-143 -813h-179l29 168l-205 -168h-360zM252 227l59 -69h256l226 184l18 107h-449l-83 -72zM485 1466h211l96 -329h-174z" />
<glyph unicode="&#xe1;" horiz-adv-x="1144" d="M55 182l43 250l201 168h539l28 172l-71 88h-334l-107 -88l-12 -76h-190l24 131l225 193h494l170 -207l-143 -813h-179l29 168l-205 -168h-360zM252 227l59 -69h256l226 184l18 107h-449l-83 -72zM602 1137l213 329h211l-250 -329h-174z" />
<glyph unicode="&#xe2;" horiz-adv-x="1144" d="M55 182l43 250l201 168h539l28 172l-71 88h-334l-107 -88l-12 -76h-190l24 131l225 193h494l170 -207l-143 -813h-179l29 168l-205 -168h-360zM252 227l59 -69h256l226 184l18 107h-449l-83 -72zM362 1137l291 301h172l184 -301h-180l-102 174h-13l-164 -174h-188z" />
<glyph unicode="&#xe3;" horiz-adv-x="1144" d="M55 182l43 250l201 168h539l28 172l-71 88h-334l-107 -88l-12 -76h-190l24 131l225 193h494l170 -207l-143 -813h-179l29 168l-205 -168h-360zM252 227l59 -69h256l226 184l18 107h-449l-83 -72zM385 1169l20 109l139 121h144l112 -107h41l39 33l10 61h146l-21 -110 l-139 -119h-143l-113 107h-39l-41 -35l-10 -60h-145z" />
<glyph unicode="&#xe4;" horiz-adv-x="1144" d="M55 182l43 250l201 168h539l28 172l-71 88h-334l-107 -88l-12 -76h-190l24 131l225 193h494l170 -207l-143 -813h-179l29 168l-205 -168h-360zM252 227l59 -69h256l226 184l18 107h-449l-83 -72zM372 1219l19 98l73 63h109l49 -63l-18 -100l-70 -62h-111zM792 1219l19 98 l73 63h107l51 -63l-16 -103l-74 -59h-109z" />
<glyph unicode="&#xe5;" horiz-adv-x="1144" d="M55 182l43 250l201 168h539l28 172l-71 88h-334l-107 -88l-12 -76h-190l24 131l225 193h494l170 -207l-143 -813h-179l29 168l-205 -168h-360zM252 227l59 -69h256l226 184l18 107h-449l-83 -72zM483 1253l33 183l137 118h196l109 -131l-31 -184l-137 -117h-199z M614 1294l43 -53h94l60 53l16 88l-43 52h-92l-62 -52z" />
<glyph unicode="&#xe6;" horiz-adv-x="1835" d="M55 182l43 250l201 168h543l30 172l-75 88h-336l-107 -88l-12 -76h-190l24 131l225 193h496l88 -107l125 107h494l172 -207l-66 -362h-702l-35 -197l74 -90h333l105 88l12 70h191l-27 -144l-209 -178h-506l-131 158l-188 -158h-420zM252 227l59 -69h281l203 172l20 119 h-453l-83 -72zM1034 600h512l31 166l-76 90h-330l-108 -90z" />
<glyph unicode="&#xe7;" horiz-adv-x="1110" d="M68 203l112 639l211 178h518l170 -209l-22 -133h-191l15 84l-76 92h-338l-109 -92l-90 -504l76 -92h340l109 92l14 84h192l-30 -162l-211 -180h-191l-55 -96h115l88 -111l-29 -166l-115 -96h-325l20 121h244l41 35l12 65l-31 37h-206l14 74l78 137h-185z" />
<glyph unicode="&#xe8;" horiz-adv-x="1163" d="M70 203l110 637l213 180h541l170 -207l-64 -362h-735l-35 -197l74 -90h367l104 88l12 70h191l-27 -144l-209 -178h-546zM332 600h545l28 166l-74 90h-362l-109 -90zM465 1466h211l96 -329h-174z" />
<glyph unicode="&#xe9;" horiz-adv-x="1163" d="M70 203l110 637l213 180h541l170 -207l-64 -362h-735l-35 -197l74 -90h367l104 88l12 70h191l-27 -144l-209 -178h-546zM332 600h545l28 166l-74 90h-362l-109 -90zM611 1137l213 329h211l-250 -329h-174z" />
<glyph unicode="&#xea;" horiz-adv-x="1163" d="M70 203l110 637l213 180h541l170 -207l-64 -362h-735l-35 -197l74 -90h367l104 88l12 70h191l-27 -144l-209 -178h-546zM332 600h545l28 166l-74 90h-362l-109 -90zM371 1137l291 301h172l184 -301h-180l-102 174h-13l-164 -174h-188z" />
<glyph unicode="&#xeb;" horiz-adv-x="1163" d="M70 203l110 637l213 180h541l170 -207l-64 -362h-735l-35 -197l74 -90h367l104 88l12 70h191l-27 -144l-209 -178h-546zM332 600h545l28 166l-74 90h-362l-109 -90zM381 1219l19 98l73 63h109l49 -63l-18 -100l-70 -62h-111zM801 1219l19 98l73 63h107l51 -63l-16 -103 l-74 -59h-109z" />
<glyph unicode="&#xec;" horiz-adv-x="518" d="M74 0l180 1020h190l-180 -1020h-190zM139 1466h211l96 -329h-174z" />
<glyph unicode="&#xed;" horiz-adv-x="518" d="M74 0l180 1020h190l-180 -1020h-190zM287 1137l213 329h211l-250 -329h-174z" />
<glyph unicode="&#xee;" horiz-adv-x="518" d="M47 1137l291 301h172l184 -301h-180l-102 174h-13l-164 -174h-188zM74 0l180 1020h190l-180 -1020h-190z" />
<glyph unicode="&#xef;" horiz-adv-x="518" d="M57 1219l19 98l73 63h109l49 -63l-18 -100l-70 -62h-111zM74 0l180 1020h190l-180 -1020h-190zM477 1219l19 98l73 63h107l51 -63l-16 -103l-74 -59h-109z" />
<glyph unicode="&#xf0;" horiz-adv-x="1212" d="M70 211l90 506l221 186h428l139 -143l35 190l-65 142l-199 -105l-49 125l190 100l-33 72h-268l27 150h375l63 -136l190 101l52 -125l-185 -96l99 -207l-140 -789l-215 -182h-579zM270 262l76 -92h406l108 92l55 309l-157 164h-312l-106 -90z" />
<glyph unicode="&#xf1;" horiz-adv-x="1179" d="M53 0l180 1020h183l-37 -199l235 199h310l176 -211l-144 -809h-190l135 762l-78 92h-192l-279 -238l-108 -616h-191zM412 1169l20 109l139 121h144l112 -107h41l39 33l10 61h146l-21 -110l-139 -119h-143l-113 107h-39l-41 -35l-10 -60h-145z" />
<glyph unicode="&#xf2;" horiz-adv-x="1181" d="M70 203l110 637l213 180h549l170 -207l-111 -637l-206 -176h-557zM270 256l76 -90h371l108 90l88 508l-75 90h-369l-109 -90zM469 1466h211l96 -329h-174z" />
<glyph unicode="&#xf3;" horiz-adv-x="1181" d="M70 203l110 637l213 180h549l170 -207l-111 -637l-206 -176h-557zM270 256l76 -90h371l108 90l88 508l-75 90h-369l-109 -90zM615 1137l213 329h211l-250 -329h-174z" />
<glyph unicode="&#xf4;" horiz-adv-x="1181" d="M70 203l110 637l213 180h549l170 -207l-111 -637l-206 -176h-557zM270 256l76 -90h371l108 90l88 508l-75 90h-369l-109 -90zM375 1137l291 301h172l184 -301h-180l-102 174h-13l-164 -174h-188z" />
<glyph unicode="&#xf5;" horiz-adv-x="1181" d="M70 203l110 637l213 180h549l170 -207l-111 -637l-206 -176h-557zM270 256l76 -90h371l108 90l88 508l-75 90h-369l-109 -90zM398 1169l20 109l139 121h144l112 -107h41l39 33l10 61h146l-21 -110l-139 -119h-143l-113 107h-39l-41 -35l-10 -60h-145z" />
<glyph unicode="&#xf6;" horiz-adv-x="1181" d="M70 203l110 637l213 180h549l170 -207l-111 -637l-206 -176h-557zM270 256l76 -90h371l108 90l88 508l-75 90h-369l-109 -90zM385 1219l19 98l73 63h109l49 -63l-18 -100l-70 -62h-111zM805 1219l19 98l73 63h107l51 -63l-16 -103l-74 -59h-109z" />
<glyph unicode="&#xf7;" horiz-adv-x="1122" d="M94 457l29 168h917l-28 -168h-918zM383 182l18 97l80 67h103l55 -67l-16 -101l-78 -65h-105zM494 803l16 96l82 70h102l56 -70l-17 -98l-78 -66h-106z" />
<glyph unicode="&#xf8;" horiz-adv-x="1181" d="M-66 -82l199 207l-63 78l110 637l213 180h549l23 -27l104 109h182l-202 -211l63 -78l-111 -637l-206 -176h-557l-21 25l-102 -107h-181zM272 270l559 584h-362l-109 -90zM352 166h365l108 90l86 492z" />
<glyph unicode="&#xf9;" horiz-adv-x="1177" d="M80 205l143 815h191l-135 -764l75 -90h191l278 237l111 617h190l-180 -1020h-182l35 203l-238 -203h-311zM475 1466h211l96 -329h-174z" />
<glyph unicode="&#xfa;" horiz-adv-x="1177" d="M80 205l143 815h191l-135 -764l75 -90h191l278 237l111 617h190l-180 -1020h-182l35 203l-238 -203h-311zM613 1137l213 329h211l-250 -329h-174z" />
<glyph unicode="&#xfb;" horiz-adv-x="1177" d="M80 205l143 815h191l-135 -764l75 -90h191l278 237l111 617h190l-180 -1020h-182l35 203l-238 -203h-311zM373 1137l291 301h172l184 -301h-180l-102 174h-13l-164 -174h-188z" />
<glyph unicode="&#xfc;" horiz-adv-x="1177" d="M80 205l143 815h191l-135 -764l75 -90h191l278 237l111 617h190l-180 -1020h-182l35 203l-238 -203h-311zM383 1219l19 98l73 63h109l49 -63l-18 -100l-70 -62h-111zM803 1219l19 98l73 63h107l51 -63l-16 -103l-74 -59h-109z" />
<glyph unicode="&#xfd;" horiz-adv-x="1181" d="M27 -268l18 116h193l-13 -71l49 -60h340l109 90l70 388l-232 -195h-325l-158 195l145 825h191l-135 -762l77 -92h195l278 240l109 614h190l-225 -1278l-227 -191h-500zM617 1137l213 329h211l-250 -329h-174z" />
<glyph unicode="&#xfe;" horiz-adv-x="1202" d="M-23 -434l334 1888h189l-107 -598l193 164h377l170 -207l-111 -631l-215 -182h-401l-136 139l-102 -573h-191zM303 334l156 -168h276l109 92l90 504l-76 92h-262l-236 -203z" />
<glyph unicode="&#xff;" horiz-adv-x="1181" d="M27 -268l18 116h193l-13 -71l49 -60h340l109 90l70 388l-232 -195h-325l-158 195l145 825h191l-135 -762l77 -92h195l278 240l109 614h190l-225 -1278l-227 -191h-500zM387 1219l19 98l73 63h109l49 -63l-18 -100l-70 -62h-111zM807 1219l19 98l73 63h107l51 -63 l-16 -103l-74 -59h-109z" />
<glyph unicode="&#x152;" horiz-adv-x="2105" d="M86 242l172 975l254 217h633l106 -129l23 129h901l-31 -174h-745l-80 -455h684l-29 -172h-686l-80 -459h746l-31 -174h-901l22 131l-153 -131h-606zM291 299l106 -127h473l164 139l144 811l-117 140h-471l-150 -127z" />
<glyph unicode="&#x153;" horiz-adv-x="1896" d="M70 203l110 637l213 180h537l92 -111l129 111h516l170 -207l-63 -362h-719l-35 -197l74 -90h348l106 88l13 70h188l-27 -144l-206 -178h-529l-90 111l-135 -111h-524zM270 256l76 -90h369l108 90l88 508l-75 90h-367l-109 -90zM1081 600h529l28 166l-75 90h-344l-109 -90 z" />
<glyph unicode="&#x178;" horiz-adv-x="1241" d="M184 1434h201l266 -660h4l502 660h227l-649 -840l-104 -594h-197l105 594zM473 1633l19 98l73 63h109l49 -63l-18 -100l-70 -62h-111zM893 1633l19 98l73 63h107l51 -63l-16 -103l-74 -59h-109z" />
<glyph unicode="&#x2c6;" horiz-adv-x="860" d="M217 1137l291 301h172l184 -301h-180l-102 174h-13l-163 -174h-189z" />
<glyph unicode="&#x2dc;" horiz-adv-x="800" d="M211 1169l20 109l140 121h143l113 -107h41l39 33l10 61h145l-20 -110l-140 -119h-143l-113 107h-38l-41 -35l-11 -60h-145z" />
<glyph unicode="&#x2000;" horiz-adv-x="984" />
<glyph unicode="&#x2001;" horiz-adv-x="1968" />
<glyph unicode="&#x2002;" horiz-adv-x="984" />
<glyph unicode="&#x2003;" horiz-adv-x="1968" />
<glyph unicode="&#x2004;" horiz-adv-x="656" />
<glyph unicode="&#x2005;" horiz-adv-x="492" />
<glyph unicode="&#x2006;" horiz-adv-x="328" />
<glyph unicode="&#x2007;" horiz-adv-x="328" />
<glyph unicode="&#x2008;" horiz-adv-x="246" />
<glyph unicode="&#x2009;" horiz-adv-x="393" />
<glyph unicode="&#x200a;" horiz-adv-x="109" />
<glyph unicode="&#x2010;" horiz-adv-x="843" d="M90 438l29 168h639l-29 -168h-639z" />
<glyph unicode="&#x2011;" horiz-adv-x="843" d="M90 438l29 168h639l-29 -168h-639z" />
<glyph unicode="&#x2012;" horiz-adv-x="843" d="M90 438l29 168h639l-29 -168h-639z" />
<glyph unicode="&#x2013;" horiz-adv-x="1286" d="M90 438l29 168h1081l-31 -168h-1079z" />
<glyph unicode="&#x2014;" horiz-adv-x="1505" d="M90 438l29 168h1300l-28 -168h-1301z" />
<glyph unicode="&#x2018;" horiz-adv-x="440" d="M182 1001l31 173l154 260h108l-115 -260h33l58 -70l-19 -105l-82 -67h-110z" />
<glyph unicode="&#x2019;" horiz-adv-x="440" d="M203 932l115 260h-33l-58 70l19 102l82 70h110l58 -70l-31 -172l-154 -260h-108z" />
<glyph unicode="&#x201a;" horiz-adv-x="440" d="M-6 -260l115 260h-33l-58 70l19 102l82 70h110l58 -70l-31 -172l-154 -260h-108z" />
<glyph unicode="&#x201c;" horiz-adv-x="786" d="M182 1001l31 173l154 260h108l-115 -260h33l58 -70l-19 -105l-82 -67h-110zM528 1001l31 173l154 260h108l-114 -260h32l58 -70l-19 -105l-82 -67h-110z" />
<glyph unicode="&#x201d;" horiz-adv-x="786" d="M203 932l115 260h-33l-58 70l19 102l82 70h110l58 -70l-31 -172l-154 -260h-108zM549 932l115 260h-33l-58 70l19 102l82 70h110l58 -70l-31 -172l-154 -260h-108z" />
<glyph unicode="&#x201e;" horiz-adv-x="786" d="M-8 -260l115 260h-33l-58 70l19 102l82 70h110l58 -70l-31 -172l-154 -260h-108zM340 -260l115 260h-33l-58 70l19 102l82 70h110l58 -70l-31 -172l-154 -260h-108z" />
<glyph unicode="&#x2022;" horiz-adv-x="663" d="M100 496l37 206l137 121h218l102 -129l-37 -211l-135 -116h-219z" />
<glyph unicode="&#x2026;" horiz-adv-x="1331" d="M20 70l19 102l82 70h108l58 -70l-19 -102l-80 -70h-110zM464 70l19 102l82 70h108l58 -70l-19 -102l-80 -70h-110zM909 70l19 102l82 70h108l58 -70l-19 -102l-80 -70h-110z" />
<glyph unicode="&#x202f;" horiz-adv-x="393" />
<glyph unicode="&#x2039;" horiz-adv-x="626" d="M55 475l29 152l528 379l-41 -226l-325 -235l-2 -13l241 -235l-34 -201z" />
<glyph unicode="&#x203a;" horiz-adv-x="626" d="M31 96l39 226l327 235l2 12l-243 236l34 201l396 -379l-27 -152z" />
<glyph unicode="&#x205f;" horiz-adv-x="492" />
<glyph unicode="&#x20ac;" horiz-adv-x="1404" d="M47 481l27 154h176l26 147h-176l27 154h178l49 281l254 217h639l195 -238l-25 -145h-196l16 92l-98 119h-453l-149 -127l-35 -199h465l-27 -154h-467l-27 -147h467l-26 -154h-467l-33 -182l107 -127h452l139 119l19 92h196l-32 -174l-246 -209h-641l-201 242l43 239h-176 z" />
<glyph unicode="&#x2122;" horiz-adv-x="1626" d="M240 1282l26 152h596l-26 -152h-209l-101 -563h-178l101 563h-209zM819 719l127 715h168l127 -402h2l270 402h175l-127 -715h-170l71 407h-4l-207 -295h-86l-100 295h-2l-74 -407h-170z" />
<glyph unicode="&#x25fc;" horiz-adv-x="1024" d="M0 0v1024h1024v-1024h-1024z" />
</font>
</defs>
</svg>
