<?xml version="1.0" standalone="no"?>
<!DOCTYPE svg PUBLIC "-//W3C//DTD SVG 1.1//EN" "http://www.w3.org/Graphics/SVG/1.1/DTD/svg11.dtd" >
<svg xmlns="http://www.w3.org/2000/svg" xmlns:xlink="http://www.w3.org/1999/xlink" version="1.1">
<metadata></metadata>
<defs>
<font id="chakra_petchmedium" horiz-adv-x="1400" >
<font-face units-per-em="2048" ascent="1638" descent="-410" />
<missing-glyph horiz-adv-x="518" />
<glyph unicode="&#xfb01;" horiz-adv-x="1214" d="M51 854v166h185v237l188 187h324v-162h-240l-82 -80v-182h645v-1020h-192v854h-453v-854h-190v854h-185z" />
<glyph unicode="&#xfb02;" horiz-adv-x="1267" d="M51 854v166h185v246l188 188h690v-1454h-192v1296h-414l-82 -82v-194h315v-166h-315v-854h-190v854h-185z" />
<glyph horiz-adv-x="0" />
<glyph unicode="&#xd;" horiz-adv-x="518" />
<glyph horiz-adv-x="0" />
<glyph horiz-adv-x="0" />
<glyph unicode=" "  horiz-adv-x="518" />
<glyph unicode="&#x09;" horiz-adv-x="518" />
<glyph unicode="&#xa0;" horiz-adv-x="518" />
<glyph unicode="!" horiz-adv-x="520" d="M143 66v96l66 65h102l66 -65v-96l-66 -66h-102zM162 1159v275h196v-275l-30 -801h-135z" />
<glyph unicode="&#x22;" horiz-adv-x="778" d="M123 1200v234h196v-234l-32 -272h-131zM459 1200v234h196v-234l-32 -272h-131z" />
<glyph unicode="#" horiz-adv-x="1427" d="M102 391v164h242l57 332h-258v164h287l66 383h186l-66 -383h304l65 383h186l-65 -383h219v-164h-248l-57 -332h264v-164h-291l-67 -391h-189l68 391h-301l-68 -391h-188l67 391h-213zM530 555h304l57 332h-303z" />
<glyph unicode="$" horiz-adv-x="1271" d="M123 199v155h194v-92l89 -90h157v475h-237l-199 201v387l199 199h237v225h174v-225h207l199 -199v-158h-193v94l-90 91h-123v-443h224l198 -198v-418l-203 -203h-219v-225h-174v225h-241zM322 909l90 -90h151v443h-151l-90 -91v-262zM737 172h137l91 92v295l-91 88h-137 v-475z" />
<glyph unicode="%" horiz-adv-x="1724" d="M102 823v467l144 144h325l144 -144v-467l-144 -143h-325zM272 883l56 -56h161l58 56v348l-58 55h-161l-56 -55v-348zM371 0l788 1434h201l-789 -1434h-200zM1010 143v467l143 144h326l143 -144v-467l-143 -143h-326zM1180 203l55 -56h162l57 56v348l-57 55h-162l-55 -55 v-348z" />
<glyph unicode="&#x26;" horiz-adv-x="1323" d="M123 199v395l141 143l-82 84v414l199 199h514l195 -195v-139h-191v74l-86 88h-352l-88 -88v-291l92 -92h496v133h188v-133h133v-168h-133v-424l-199 -199h-628zM313 262l93 -90h462l90 92v359h-552l-93 -91v-270z" />
<glyph unicode="'" horiz-adv-x="442" d="M123 1200v234h196v-234l-32 -272h-131z" />
<glyph unicode="(" horiz-adv-x="659" d="M154 -27v1485l213 213h247v-168h-159l-111 -108v-1358l111 -109h159v-168h-247z" />
<glyph unicode=")" horiz-adv-x="659" d="M45 -72h160l110 109v1358l-110 108h-160v168h248l213 -213v-1485l-213 -213h-248v168z" />
<glyph unicode="*" horiz-adv-x="702" d="M102 1118l164 68l-164 69l66 115l135 -106l-20 172h137l-23 -172l138 106l65 -115l-166 -69l166 -68l-65 -117l-138 109l23 -172h-137l20 172l-135 -109z" />
<glyph unicode="+" horiz-adv-x="1122" d="M102 457v168h363v342h192v-342h363v-168h-363v-342h-192v342h-363z" />
<glyph unicode="," horiz-adv-x="444" d="M96 70v102l70 70h110l70 -70v-172l-108 -260h-109l68 260h-31z" />
<glyph unicode="-" horiz-adv-x="843" d="M102 438v168h639v-168h-639z" />
<glyph unicode="." horiz-adv-x="444" d="M98 70v102l70 70h108l70 -70v-102l-70 -70h-108z" />
<glyph unicode="/" horiz-adv-x="991" d="M0 0l793 1436h198l-792 -1436h-199z" />
<glyph unicode="0" horiz-adv-x="1302" d="M133 215v1004l215 215h606l215 -215v-1004l-215 -215h-606zM330 281l108 -109h426l109 109v872l-109 109h-426l-108 -109v-872z" />
<glyph unicode="1" horiz-adv-x="749" d="M72 1065v180l344 189h170v-1434h-197v1229z" />
<glyph unicode="2" horiz-adv-x="1142" d="M92 1051v184l199 199h553l198 -199v-287l-741 -710v-68h750v-170h-951v287l746 719v165l-90 91h-377l-90 -91v-120h-197z" />
<glyph unicode="3" horiz-adv-x="1202" d="M92 199v182h197v-119l90 -90h414l90 90v285l-88 88h-410v172h410l88 88v276l-90 91h-402l-90 -91v-118h-197v182l199 199h578l198 -199v-397l-118 -117l118 -119v-403l-198 -199h-590z" />
<glyph unicode="4" horiz-adv-x="1153" d="M41 285v254l621 895h276v-977h174v-172h-174v-285h-197v285h-700zM233 451h512v792h-10l-502 -729v-63z" />
<glyph unicode="5" horiz-adv-x="1208" d="M113 199v184h196v-121l90 -90h410l90 90v381l-90 88h-676v703h934v-170h-741v-361h569l201 -201v-503l-199 -199h-586z" />
<glyph unicode="6" horiz-adv-x="1241" d="M133 199v1036l199 199h590l198 -199v-176h-196v112l-93 91h-409l-92 -91v-436l151 150h449l198 -199v-487l-198 -199h-598zM330 262l92 -90h418l92 90v361l-92 90h-322l-188 -189v-262z" />
<glyph unicode="7" horiz-adv-x="1036" d="M31 1262v172h934v-240l-566 -1194h-209l574 1204v58h-733z" />
<glyph unicode="8" horiz-adv-x="1273" d="M123 199v411l129 129l-109 109v387l199 199h590l198 -199v-387l-108 -109l129 -129v-411l-199 -199h-630zM319 262l93 -90h450l92 90v291l-92 92h-450l-93 -92v-291zM340 903l92 -90h410l92 90v268l-92 91h-410l-92 -91v-268z" />
<glyph unicode="9" horiz-adv-x="1251" d="M123 739v496l199 199h598l198 -199v-1036l-198 -199h-578l-199 199v168h197v-105l92 -90h397l93 90v414l-136 -135h-464zM319 803l93 -90h342l168 168v290l-93 91h-417l-93 -91v-368z" />
<glyph unicode=":" horiz-adv-x="440" d="M98 68v102l68 68h108l68 -68v-102l-68 -68h-108zM98 770v102l68 68h108l68 -70v-100l-68 -68h-108z" />
<glyph unicode=";" horiz-adv-x="440" d="M98 70v102l70 70h111l67 -70v-172l-106 -260h-109l68 260h-31zM100 770v102l68 68h108l66 -70v-100l-66 -68h-108z" />
<glyph unicode="&#x3c;" horiz-adv-x="1224" d="M88 498v192l1040 481v-190l-831 -381v-12l831 -398v-190z" />
<glyph unicode="=" horiz-adv-x="1122" d="M102 281v168h918v-168h-918zM102 633v168h918v-168h-918z" />
<glyph unicode="&#x3e;" horiz-adv-x="1224" d="M102 0v190l832 398v12l-832 381v190l1041 -481v-192z" />
<glyph unicode="?" horiz-adv-x="1110" d="M72 1051v155l227 228h473l236 -236v-254l-373 -360v-234h-189v293l369 356v140l-127 125h-305l-119 -117v-96h-192zM424 66v96l65 65h103l65 -65v-96l-65 -66h-103z" />
<glyph unicode="@" horiz-adv-x="1677" d="M102 295v612l406 406h666l401 -402v-479l-211 -211h-256l-80 80v53l-135 -133h-244l-186 187v368l188 189h277l94 -95v91h152v-586h114l111 110v361l-307 307h-498l-313 -315v-473l309 -312h829v-159h-915zM641 461l84 -84h143l131 131v203l-100 98h-176l-82 -80v-268z " />
<glyph unicode="A" horiz-adv-x="1288" d="M31 0l514 1434h196l516 -1434h-202l-127 365h-568l-127 -365h-202zM414 530h463l-232 670h-4z" />
<glyph unicode="B" horiz-adv-x="1339" d="M154 0v1434h835l195 -195v-397l-92 -94l155 -158v-383l-207 -207h-886zM346 168h600l109 106v258l-109 109h-600v-473zM346 803h553l92 92v281l-92 90h-553v-463z" />
<glyph unicode="C" horiz-adv-x="1308" d="M133 229v975l229 230h644l221 -222v-161h-197v92l-119 119h-454l-127 -127v-836l127 -127h454l119 119v92h197v-162l-221 -221h-644z" />
<glyph unicode="D" horiz-adv-x="1376" d="M154 0v1434h858l231 -232v-971l-231 -231h-858zM350 172h570l127 127v836l-127 127h-570v-1090z" />
<glyph unicode="E" horiz-adv-x="1208" d="M154 0v1434h962v-172h-766v-457h707v-170h-707v-463h766v-172h-962z" />
<glyph unicode="F" horiz-adv-x="1146" d="M154 0v1434h942v-172h-746v-476h647v-172h-647v-614h-196z" />
<glyph unicode="G" horiz-adv-x="1351" d="M133 229v975l229 230h656l221 -222v-161h-197v92l-118 119h-467l-127 -127v-836l127 -127h463l124 125v295h-317v172h512v-535l-229 -229h-648z" />
<glyph unicode="H" horiz-adv-x="1396" d="M154 0v1434h196v-633h697v633h196v-1434h-196v629h-697v-629h-196z" />
<glyph unicode="I" horiz-adv-x="524" d="M164 0v1434h196v-1434h-196z" />
<glyph unicode="J" horiz-adv-x="1155" d="M61 233v224h191v-158l129 -127h324l110 109v1153h197v-1217l-217 -217h-502z" />
<glyph unicode="K" horiz-adv-x="1286" d="M154 0v1434h196v-633h295l363 633h217l-412 -715l442 -719h-221l-389 629h-295v-629h-196z" />
<glyph unicode="L" horiz-adv-x="1116" d="M154 0v1434h196v-1264h725v-170h-921z" />
<glyph unicode="M" horiz-adv-x="1607" d="M154 0v1434h198l449 -1049h4l450 1049h199v-1434h-188v1047h-4l-390 -885h-139l-387 885h-4v-1047h-188z" />
<glyph unicode="N" horiz-adv-x="1394" d="M154 0v1434h184l711 -1110h4v1110h188v-1434h-184l-711 1110h-4v-1110h-188z" />
<glyph unicode="O" d="M133 229v975l229 230h676l230 -230v-975l-230 -229h-676zM330 299l127 -127h487l127 127v836l-127 127h-487l-127 -127v-836z" />
<glyph unicode="P" horiz-adv-x="1290" d="M154 0v1434h845l199 -199v-475l-201 -201h-647v-559h-196zM350 727h561l93 90v359l-93 90h-561v-539z" />
<glyph unicode="Q" d="M133 229v975l229 230h676l230 -230v-975l-152 -151l199 -201l-121 -121l-240 244h-592zM330 299l127 -127h487l127 127v836l-127 127h-487l-127 -127v-836z" />
<glyph unicode="R" horiz-adv-x="1349" d="M154 0v1434h845l199 -199v-447l-158 -157l166 -180v-451h-196v401l-170 183h-490v-584h-196zM350 752h561l93 90v334l-93 90h-561v-514z" />
<glyph unicode="S" horiz-adv-x="1271" d="M123 199v155h194v-92l89 -90h468l91 92v295l-91 88h-548l-199 201v387l199 199h618l199 -199v-158h-193v94l-90 91h-448l-90 -91v-262l90 -90h549l198 -198v-418l-203 -203h-634z" />
<glyph unicode="T" horiz-adv-x="1163" d="M51 1264v170h1061v-170h-432v-1264h-197v1264h-432z" />
<glyph unicode="U" d="M154 231v1203h196v-1135l127 -127h447l127 127v1135h196v-1203l-231 -231h-631z" />
<glyph unicode="V" horiz-adv-x="1298" d="M41 1434h203l403 -1198h4l404 1198h202l-507 -1434h-201z" />
<glyph unicode="W" horiz-adv-x="1777" d="M72 1434h198l211 -1145h6l324 1145h170l315 -1145h4l207 1145h199l-291 -1434h-198l-318 1145h-6l-332 -1145h-199z" />
<glyph unicode="X" horiz-adv-x="1269" d="M31 0l493 737l-473 697h221l365 -541l360 541h222l-474 -705l494 -729h-221l-383 573l-383 -573h-221z" />
<glyph unicode="Y" horiz-adv-x="1241" d="M20 1434h213l385 -660h5l385 660h213l-502 -840v-594h-197v594z" />
<glyph unicode="Z" horiz-adv-x="1179" d="M92 0v176l774 1088v4h-753v166h974v-177l-774 -1087v-4h774v-166h-995z" />
<glyph unicode="[" horiz-adv-x="657" d="M154 -240v1911h458v-166h-268v-1579h268v-166h-458z" />
<glyph unicode="\" horiz-adv-x="1021" d="M0 1434h201l821 -1434h-199z" />
<glyph unicode="]" horiz-adv-x="657" d="M45 -74h266v1579h-266v166h459v-1911h-459v166z" />
<glyph unicode="^" horiz-adv-x="1316" d="M102 510l455 924h199l458 -924h-196l-356 725h-13l-350 -725h-197z" />
<glyph unicode="_" horiz-adv-x="905" d="M0 -20h905v-164h-905v164z" />
<glyph unicode="`" horiz-adv-x="491" d="M63 1466h211l154 -329h-174z" />
<glyph unicode="a" horiz-adv-x="1144" d="M113 174v252l174 174h536v172l-90 88h-334l-88 -88v-76h-190v125l198 199h494l199 -199v-821h-178v168l-177 -168h-370zM303 227l72 -69h256l192 184v107h-448l-72 -72v-150z" />
<glyph unicode="b" horiz-adv-x="1198" d="M143 199v1263h191v-622l182 180h365l194 -197v-626l-194 -197h-539zM334 260l94 -94h363l94 94v500l-94 94h-234l-223 -223v-371z" />
<glyph unicode="c" horiz-adv-x="1110" d="M123 195v630l194 195h514l197 -197v-145h-190v84l-93 92h-339l-93 -92v-504l93 -92h339l93 92v84h190v-145l-197 -197h-514z" />
<glyph unicode="d" horiz-adv-x="1202" d="M123 197v626l196 197h398l151 -133v575h191v-1462h-182v176l-177 -176h-381zM313 260l95 -94h262l198 201v329l-178 158h-282l-95 -94v-500z" />
<glyph unicode="e" horiz-adv-x="1163" d="M123 195v628l196 197h535l197 -197v-372h-738v-197l90 -90h367l90 88v70h189v-127l-193 -195h-539zM313 600h547v166l-92 90h-362l-93 -90v-166z" />
<glyph unicode="f" horiz-adv-x="786" d="M51 856v164h185v219l188 188h321v-161h-239l-80 -80v-166h319v-164h-319v-856h-190v856h-185z" />
<glyph unicode="g" horiz-adv-x="1202" d="M123 197v626l196 197h392l168 -166v166h180v-1272l-197 -197h-522l-170 168v129h192v-69l60 -62h354l92 90v351l-172 -158h-377zM313 260l95 -94h264l196 190v312l-190 186h-270l-95 -94v-500z" />
<glyph unicode="h" horiz-adv-x="1183" d="M143 0v1462h191v-637l194 195h322l201 -201v-819h-191v762l-92 92h-199l-235 -236v-618h-191z" />
<glyph unicode="i" horiz-adv-x="518" d="M133 1247v103l72 73h108l72 -73v-103l-72 -73h-108zM164 0v1020h190v-1020h-190z" />
<glyph unicode="j" horiz-adv-x="548" d="M-113 -281h215l93 93v1208h190v-1270l-197 -196h-301v165zM164 1247v103l72 73h108l72 -73v-103l-72 -73h-108z" />
<glyph unicode="k" horiz-adv-x="1101" d="M143 0v1462h191v-848h219l287 406h211l-342 -492l362 -528h-211l-309 446h-217v-446h-191z" />
<glyph unicode="l" horiz-adv-x="497" d="M154 0v1462h190v-1462h-190z" />
<glyph unicode="m" horiz-adv-x="1730" d="M143 0v1020h183v-186l186 186h248l153 -154l152 154h334l198 -199v-821h-190v762l-92 92h-207l-133 -133v-721h-184v764l-91 90h-155l-211 -211v-643h-191z" />
<glyph unicode="n" horiz-adv-x="1179" d="M143 0v1020h183v-201l200 201h320l201 -201v-819h-191v762l-92 92h-195l-235 -236v-618h-191z" />
<glyph unicode="o" horiz-adv-x="1181" d="M123 197v626l196 197h545l195 -197v-626l-195 -197h-545zM313 256l93 -90h370l92 90v508l-92 90h-370l-93 -90v-508z" />
<glyph unicode="p" horiz-adv-x="1202" d="M143 -434v1454h183v-172l170 172h389l194 -197v-626l-194 -197h-396l-155 135v-569h-191zM334 334l186 -168h277l92 92v504l-92 92h-262l-201 -203v-317z" />
<glyph unicode="q" horiz-adv-x="1187" d="M123 197v626l196 197h537l199 -199v-1255h-191v614l-180 -180h-365zM313 258l93 -92h241l217 227v369l-92 92h-366l-93 -92v-504z" />
<glyph unicode="r" horiz-adv-x="804" d="M143 0v1020h183v-178l176 178h272v-166h-229l-211 -213v-641h-191z" />
<glyph unicode="s" horiz-adv-x="1064" d="M92 178v127h191v-76l69 -67h361l69 67v136l-69 71h-441l-172 172v234l176 178h498l178 -178v-127h-190v76l-70 67h-332l-69 -67v-127l69 -72h437l176 -176v-238l-176 -178h-527z" />
<glyph unicode="t" horiz-adv-x="815" d="M51 856v164h189v332h186v-332h317v-166h-317v-598l92 -90h225v-166h-311l-196 195v661h-185z" />
<glyph unicode="u" horiz-adv-x="1177" d="M133 197v823h191v-764l92 -90h190l238 237v617h190v-1020h-182v203l-203 -203h-319z" />
<glyph unicode="v" horiz-adv-x="1005" d="M20 1020h197l283 -815h8l280 815h197l-379 -1020h-205z" />
<glyph unicode="w" horiz-adv-x="1462" d="M61 1020h195l156 -780h6l225 780h180l207 -780h6l170 780h195l-260 -1020h-193l-213 791h-6l-231 -791h-195z" />
<glyph unicode="x" horiz-adv-x="1026" d="M31 0l377 518l-367 502h215l258 -358l256 358h215l-364 -506l374 -514h-215l-266 371l-268 -371h-215z" />
<glyph unicode="y" horiz-adv-x="1181" d="M133 199v821h191v-762l92 -92h196l236 240v614h190v-1272l-198 -197h-508l-168 168v129h190v-71l62 -60h340l92 90v388l-197 -195h-319z" />
<glyph unicode="z" horiz-adv-x="987" d="M72 0v164l610 694v4h-590v158h823v-164l-610 -694v-4h610v-158h-843z" />
<glyph unicode="{" horiz-adv-x="727" d="M82 664v106l160 164v539l198 198h242v-168h-158l-92 -90v-534l-149 -154v-16l149 -154v-537l92 -90h158v-168h-242l-198 199v541z" />
<glyph unicode="|" horiz-adv-x="499" d="M154 -418v2151h192v-2151h-192z" />
<glyph unicode="}" horiz-adv-x="727" d="M45 -72h158l92 90v537l149 154v16l-149 154v534l-92 90h-158v168h242l198 -198v-539l160 -164v-106l-160 -164v-541l-198 -199h-242v168z" />
<glyph unicode="~" horiz-adv-x="1167" d="M102 391v154l197 198h172l270 -200h47l86 86v94h191v-154l-197 -198h-172l-270 200h-55l-78 -77v-103h-191z" />
<glyph unicode="&#xa1;" horiz-adv-x="520" d="M143 858v96l66 66h102l66 -66v-96l-66 -65h-102zM162 -139l31 801h135l30 -801v-275h-196v275z" />
<glyph unicode="&#xa2;" horiz-adv-x="1110" d="M123 195v630l194 195h170v205h181v-205h163l197 -197v-145h-190v84l-93 92h-339l-93 -92v-504l93 -92h339l93 92v84h190v-145l-197 -197h-163v-211h-181v211h-170z" />
<glyph unicode="&#xa3;" horiz-adv-x="1261" d="M102 616v164h191v418l235 236h441l209 -207v-148h-193v86l-98 99h-271l-129 -127v-357h492v-164h-492v-204l-151 -174v-70h864v-168h-1063v268l156 176v172h-191z" />
<glyph unicode="&#xa4;" horiz-adv-x="1316" d="M102 240l156 155l-57 58v467l57 57l-156 156l117 116l154 -157l53 53h467l53 -53l152 157l116 -116l-153 -156l57 -57v-467l-57 -58l153 -155l-116 -117l-152 153l-53 -53h-467l-53 56l-154 -156zM383 492l104 -101h344l105 101v385l-105 102h-344l-104 -102v-385z" />
<glyph unicode="&#xa5;" horiz-adv-x="1241" d="M20 1434h213l385 -660h5l385 660h213l-455 -762h276v-152h-323v-139h323v-152h-323v-229h-197v229h-311v152h311v139h-311v152h264z" />
<glyph unicode="&#xa6;" horiz-adv-x="499" d="M154 -418v930h192v-930h-192zM154 844v889h192v-889h-192z" />
<glyph unicode="&#xa7;" horiz-adv-x="1085" d="M102 524v283l115 115l-84 84v249l178 179h453l178 -179v-133h-192v82l-70 68h-287l-69 -68v-149l69 -72h412l178 -178v-275l-119 -118l88 -88v-244l-178 -178h-450l-179 178v133h193v-82l70 -68h284l70 68v148l-70 73h-418zM293 580l69 -70h361l70 68v178l-70 69h-361 l-69 -67v-178z" />
<glyph unicode="&#xa8;" horiz-adv-x="817" d="M84 1219v98l63 63h105l63 -63v-98l-63 -64h-105zM504 1219v98l63 63h105l63 -63v-98l-63 -64h-105z" />
<glyph unicode="&#xa9;" horiz-adv-x="1689" d="M102 373v688l373 373h737l375 -373v-688l-375 -373h-737zM272 440l281 -280h584l280 280v553l-280 281h-584l-281 -281v-553zM432 516v402l221 221l385 2l222 -221v-127h-168v81l-111 109h-260l-115 -115v-301l115 -116h258l113 110v88h168v-133l-222 -221h-385z" />
<glyph unicode="&#xaa;" horiz-adv-x="860" d="M92 850v162l131 131h365v98l-47 47h-228l-43 -43v-47h-172v84l152 152h356l152 -154v-561h-156v106l-115 -106h-264zM264 897l39 -39h176l109 103v57h-283l-41 -41v-80z" />
<glyph unicode="&#xab;" horiz-adv-x="1093" d="M61 475v152l463 379v-213l-284 -236v-12l284 -236v-213zM528 475v152l463 379v-213l-284 -236v-12l284 -236v-213z" />
<glyph unicode="&#xac;" horiz-adv-x="1116" d="M102 629v168h912v-498h-189v330h-723z" />
<glyph unicode="&#xad;" horiz-adv-x="843" d="M102 438v168h639v-168h-639z" />
<glyph unicode="&#xae;" horiz-adv-x="1099" d="M102 805v407l240 240h416l239 -240v-407l-239 -240h-416zM233 850l164 -164h305l164 164v317l-164 164h-305l-164 -164v-317zM373 795v440h289l86 -86v-117l-62 -59l64 -70v-108h-113v82l-49 53h-105v-135h-110zM483 1026h123l31 31v55l-31 29h-123v-115z" />
<glyph unicode="&#xaf;" horiz-adv-x="700" d="M43 1169v156h614v-156h-614z" />
<glyph unicode="&#xb0;" horiz-adv-x="700" d="M102 1110v201l140 141h217l139 -141v-201l-139 -141h-217zM242 1161l59 -59h98l60 59v99l-60 59h-98l-59 -59v-99z" />
<glyph unicode="&#xb1;" horiz-adv-x="1122" d="M102 0v166h918v-166h-918zM102 633v168h363v340h192v-340h363v-168h-363v-332h-192v332h-363z" />
<glyph unicode="&#xb2;" horiz-adv-x="782" d="M72 1149v144l141 141h362l140 -141v-197l-424 -356v-15h430v-151h-645v184l454 395v84l-36 39h-201l-39 -39v-88h-182z" />
<glyph unicode="&#xb3;" horiz-adv-x="849" d="M82 715v127h184v-74l37 -39h221l39 39v129l-37 35h-250v148h250l37 37v122l-39 39h-213l-39 -39v-73h-182v127l139 141h377l142 -141v-224l-64 -63l64 -64v-227l-140 -141h-385z" />
<glyph unicode="&#xb4;" horiz-adv-x="518" d="M78 1137l153 329h211l-190 -329h-174z" />
<glyph unicode="&#xb6;" horiz-adv-x="1165" d="M102 854v369l211 211h392v-1850h-183v1059h-209zM827 -416v1850h185v-1850h-185z" />
<glyph unicode="&#xb7;" horiz-adv-x="444" d="M98 488v102l70 70h108l70 -70v-102l-70 -70h-108z" />
<glyph unicode="&#xb8;" horiz-adv-x="571" d="M74 -348h243l35 35v65l-35 37h-206v74l82 215h151l-70 -174h123l103 -103v-163l-107 -107h-319v121z" />
<glyph unicode="&#xb9;" horiz-adv-x="559" d="M61 1135v174l228 125h147v-860h-184v659z" />
<glyph unicode="&#xba;" horiz-adv-x="870" d="M92 866v420l148 148h391l147 -148v-420l-147 -147h-391zM268 924l54 -54h229l51 54v305l-51 53h-229l-54 -53v-305z" />
<glyph unicode="&#xbb;" horiz-adv-x="1093" d="M102 96v213l287 236v12l-287 236v213l463 -379v-152zM569 96v213l287 236v12l-287 236v213l463 -379v-152z" />
<glyph unicode="&#xbc;" horiz-adv-x="1701" d="M102 1135v174l228 125h147v-860h-184v659zM305 0l821 1434h199l-822 -1434h-198zM882 153v181l391 526h222v-549h104v-158h-104v-153h-185v153h-428zM1069 305h256v360h-5l-251 -340v-20z" />
<glyph unicode="&#xbd;" horiz-adv-x="1785" d="M102 1135v174l228 125h147v-860h-184v659zM289 0l821 1434h199l-822 -1434h-198zM1035 575v144l141 141h362l140 -141v-197l-424 -356v-15h430v-151h-645v184l454 395v84l-36 39h-201l-39 -39v-88h-182z" />
<glyph unicode="&#xbe;" horiz-adv-x="1910" d="M102 715v127h184v-74l37 -39h221l39 39v129l-37 35h-250v148h250l37 37v122l-39 39h-213l-39 -39v-73h-182v127l139 141h377l142 -141v-224l-64 -63l64 -64v-227l-140 -141h-385zM518 0l821 1434h199l-822 -1434h-198zM1091 153v181l391 526h222v-549h104v-158h-104v-153 h-185v153h-428zM1278 305h256v360h-5l-251 -340v-20z" />
<glyph unicode="&#xbf;" horiz-adv-x="1110" d="M102 76l373 360v234h189v-293l-369 -357v-139l127 -125h305l119 117v96h192v-155l-227 -228h-473l-236 236v254zM453 858v96l65 66h103l65 -66v-96l-65 -65h-103z" />
<glyph unicode="&#xc0;" horiz-adv-x="1288" d="M31 0l514 1434h196l516 -1434h-202l-127 365h-568l-127 -365h-202zM356 1880h211l154 -329h-174zM414 530h463l-232 670h-4z" />
<glyph unicode="&#xc1;" horiz-adv-x="1288" d="M31 0l514 1434h196l516 -1434h-202l-127 365h-568l-127 -365h-202zM414 530h463l-232 670h-4zM561 1551l154 329h211l-191 -329h-174z" />
<glyph unicode="&#xc2;" horiz-adv-x="1288" d="M31 0l514 1434h196l516 -1434h-202l-127 365h-568l-127 -365h-202zM321 1551l238 301h172l238 -301h-185l-133 174h-12l-133 -174h-185zM414 530h463l-232 670h-4z" />
<glyph unicode="&#xc3;" horiz-adv-x="1288" d="M31 0l514 1434h196l516 -1434h-202l-127 365h-568l-127 -365h-202zM340 1583v109l119 121h141l131 -107h43l33 33v61h143v-110l-119 -119h-141l-131 107h-41l-35 -35v-60h-143zM414 530h463l-232 670h-4z" />
<glyph unicode="&#xc4;" horiz-adv-x="1288" d="M31 0l514 1434h196l516 -1434h-202l-127 365h-568l-127 -365h-202zM319 1633v98l64 63h106l62 -63v-98l-62 -64h-106zM414 530h463l-232 670h-4zM739 1633v98l62 63h106l64 -63v-98l-64 -64h-106z" />
<glyph unicode="&#xc5;" horiz-adv-x="1288" d="M31 0l514 1434h196l516 -1434h-202l-127 365h-568l-127 -365h-202zM414 530h463l-232 670h-4zM422 1661v183l125 124h196l125 -124v-183l-125 -125h-196zM547 1708l51 -53h94l51 53v88l-51 52h-94l-51 -52v-88z" />
<glyph unicode="&#xc6;" horiz-adv-x="1914" d="M20 0l635 1434h1168v-174h-733v-455h673v-172h-673v-459h733v-174h-930v381h-500l-166 -381h-207zM467 551h426v709h-119z" />
<glyph unicode="&#xc7;" horiz-adv-x="1308" d="M133 229v975l229 230h644l221 -222v-161h-197v92l-119 119h-454l-127 -127v-836l127 -127h454l119 119v92h197v-162l-221 -221h-269l-39 -96h121l103 -103v-163l-107 -107h-317v121h243l35 35v65l-35 37h-206v74l53 137h-226z" />
<glyph unicode="&#xc8;" horiz-adv-x="1208" d="M154 0v1434h962v-172h-766v-457h707v-170h-707v-463h766v-172h-962zM389 1880h211l154 -329h-174z" />
<glyph unicode="&#xc9;" horiz-adv-x="1208" d="M154 0v1434h962v-172h-766v-457h707v-170h-707v-463h766v-172h-962zM563 1551l154 329h211l-191 -329h-174z" />
<glyph unicode="&#xca;" horiz-adv-x="1208" d="M154 0v1434h962v-172h-766v-457h707v-170h-707v-463h766v-172h-962zM323 1551l238 301h172l238 -301h-185l-133 174h-12l-133 -174h-185z" />
<glyph unicode="&#xcb;" horiz-adv-x="1208" d="M154 0v1434h962v-172h-766v-457h707v-170h-707v-463h766v-172h-962zM321 1633v98l64 63h106l62 -63v-98l-62 -64h-106zM741 1633v98l62 63h106l64 -63v-98l-64 -64h-106z" />
<glyph unicode="&#xcc;" horiz-adv-x="524" d="M-27 1880h211l154 -329h-174zM164 0v1434h196v-1434h-196z" />
<glyph unicode="&#xcd;" horiz-adv-x="524" d="M164 0v1434h196v-1434h-196zM178 1551l154 329h211l-191 -329h-174z" />
<glyph unicode="&#xce;" horiz-adv-x="524" d="M-62 1551l238 301h172l238 -301h-185l-133 174h-12l-133 -174h-185zM164 0v1434h196v-1434h-196z" />
<glyph unicode="&#xcf;" horiz-adv-x="524" d="M-64 1633v98l64 63h106l62 -63v-98l-62 -64h-106zM164 0v1434h196v-1434h-196zM356 1633v98l62 63h106l64 -63v-98l-64 -64h-106z" />
<glyph unicode="&#xd0;" horiz-adv-x="1464" d="M41 633v172h201v629h858l231 -232v-971l-231 -231h-858v633h-201zM438 172h570l127 127v836l-127 127h-570v-457h336v-172h-336v-461z" />
<glyph unicode="&#xd1;" horiz-adv-x="1394" d="M154 0v1434h184l711 -1110h4v1110h188v-1434h-184l-711 1110h-4v-1110h-188zM391 1583v109l119 121h141l131 -107h43l33 33v61h143v-110l-119 -119h-141l-131 107h-41l-35 -35v-60h-143z" />
<glyph unicode="&#xd2;" d="M133 229v975l229 230h676l230 -230v-975l-230 -229h-676zM330 299l127 -127h487l127 127v836l-127 127h-487l-127 -127v-836zM413 1880h211l154 -329h-174z" />
<glyph unicode="&#xd3;" d="M133 229v975l229 230h676l230 -230v-975l-230 -229h-676zM330 299l127 -127h487l127 127v836l-127 127h-487l-127 -127v-836zM618 1551l154 329h211l-191 -329h-174z" />
<glyph unicode="&#xd4;" d="M133 229v975l229 230h676l230 -230v-975l-230 -229h-676zM330 299l127 -127h487l127 127v836l-127 127h-487l-127 -127v-836zM378 1551l238 301h172l238 -301h-185l-133 174h-12l-133 -174h-185z" />
<glyph unicode="&#xd5;" d="M133 229v975l229 230h676l230 -230v-975l-230 -229h-676zM330 299l127 -127h487l127 127v836l-127 127h-487l-127 -127v-836zM397 1583v109l119 121h141l131 -107h43l33 33v61h143v-110l-119 -119h-141l-131 107h-41l-35 -35v-60h-143z" />
<glyph unicode="&#xd6;" d="M133 229v975l229 230h676l230 -230v-975l-230 -229h-676zM330 299l127 -127h487l127 127v836l-127 127h-487l-127 -127v-836zM376 1633v98l64 63h106l62 -63v-98l-62 -64h-106zM796 1633v98l62 63h106l64 -63v-98l-64 -64h-106z" />
<glyph unicode="&#xd7;" horiz-adv-x="1001" d="M102 260l281 281l-281 280l119 119l281 -281l278 281l119 -119l-281 -280l281 -281l-119 -119l-278 281l-281 -281z" />
<glyph unicode="&#xd8;" d="M29 -68l170 232l-66 65v975l229 230h676l54 -54l90 121h182l-166 -227l70 -70v-975l-230 -229h-676l-59 59l-92 -127h-182zM330 342l649 885l-35 35h-487l-127 -127v-793zM416 213l41 -41h487l127 127v803z" />
<glyph unicode="&#xd9;" d="M154 231v1203h196v-1135l127 -127h447l127 127v1135h196v-1203l-231 -231h-631zM434 1880h211l154 -329h-174z" />
<glyph unicode="&#xda;" d="M154 231v1203h196v-1135l127 -127h447l127 127v1135h196v-1203l-231 -231h-631zM616 1551l154 329h211l-191 -329h-174z" />
<glyph unicode="&#xdb;" d="M154 231v1203h196v-1135l127 -127h447l127 127v1135h196v-1203l-231 -231h-631zM376 1551l238 301h172l238 -301h-185l-133 174h-12l-133 -174h-185z" />
<glyph unicode="&#xdc;" d="M154 231v1203h196v-1135l127 -127h447l127 127v1135h196v-1203l-231 -231h-631zM374 1633v98l64 63h106l62 -63v-98l-62 -64h-106zM794 1633v98l62 63h106l64 -63v-98l-64 -64h-106z" />
<glyph unicode="&#xdd;" horiz-adv-x="1241" d="M20 1434h213l385 -660h5l385 660h213l-502 -840v-594h-197v594zM537 1551l154 329h211l-191 -329h-174z" />
<glyph unicode="&#xde;" horiz-adv-x="1290" d="M154 0v1434h196v-279h649l199 -201v-473l-201 -202h-647v-279h-196zM350 446h563l93 93v356l-93 92h-563v-541z" />
<glyph unicode="&#xdf;" horiz-adv-x="1300" d="M154 0v1237l188 190h514l188 -190v-229l-167 -213v-62l32 -31h152l178 -178v-346l-178 -178h-350l-179 178v135h189v-82l72 -69h184l72 69v240l-72 72h-160l-131 131v145l168 215v150l-82 80h-346l-82 -80v-1184h-190z" />
<glyph unicode="&#xe0;" horiz-adv-x="1144" d="M113 174v252l174 174h536v172l-90 88h-334l-88 -88v-76h-190v125l198 199h494l199 -199v-821h-178v168l-177 -168h-370zM303 227l72 -69h256l192 184v107h-448l-72 -72v-150zM317 1466h211l154 -329h-174z" />
<glyph unicode="&#xe1;" horiz-adv-x="1144" d="M113 174v252l174 174h536v172l-90 88h-334l-88 -88v-76h-190v125l198 199h494l199 -199v-821h-178v168l-177 -168h-370zM303 227l72 -69h256l192 184v107h-448l-72 -72v-150zM491 1137l154 329h211l-191 -329h-174z" />
<glyph unicode="&#xe2;" horiz-adv-x="1144" d="M113 174v252l174 174h536v172l-90 88h-334l-88 -88v-76h-190v125l198 199h494l199 -199v-821h-178v168l-177 -168h-370zM251 1137l238 301h172l238 -301h-185l-133 174h-12l-133 -174h-185zM303 227l72 -69h256l192 184v107h-448l-72 -72v-150z" />
<glyph unicode="&#xe3;" horiz-adv-x="1144" d="M113 174v252l174 174h536v172l-90 88h-334l-88 -88v-76h-190v125l198 199h494l199 -199v-821h-178v168l-177 -168h-370zM270 1169v109l119 121h141l131 -107h43l33 33v61h143v-110l-119 -119h-141l-131 107h-41l-35 -35v-60h-143zM303 227l72 -69h256l192 184v107h-448 l-72 -72v-150z" />
<glyph unicode="&#xe4;" horiz-adv-x="1144" d="M113 174v252l174 174h536v172l-90 88h-334l-88 -88v-76h-190v125l198 199h494l199 -199v-821h-178v168l-177 -168h-370zM249 1219v98l64 63h106l62 -63v-98l-62 -64h-106zM303 227l72 -69h256l192 184v107h-448l-72 -72v-150zM669 1219v98l62 63h106l64 -63v-98l-64 -64 h-106z" />
<glyph unicode="&#xe5;" horiz-adv-x="1144" d="M113 174v252l174 174h536v172l-90 88h-334l-88 -88v-76h-190v125l198 199h494l199 -199v-821h-178v168l-177 -168h-370zM303 227l72 -69h256l192 184v107h-448l-72 -72v-150zM352 1247v183l125 124h196l125 -124v-183l-125 -125h-196zM477 1294l51 -53h94l51 53v88 l-51 52h-94l-51 -52v-88z" />
<glyph unicode="&#xe6;" horiz-adv-x="1835" d="M113 174v252l174 174h536v172l-90 88h-334l-88 -88v-76h-190v125l198 199h492l111 -113l112 113h488l200 -199v-370h-704v-197l90 -88h332l90 88v74h190v-129l-196 -199h-496l-156 156l-155 -156h-430zM303 227l72 -69h278l174 174v117h-452l-72 -72v-150zM1018 600h512 v166l-90 90h-332l-90 -90v-166z" />
<glyph unicode="&#xe7;" horiz-adv-x="1110" d="M123 195v630l194 195h514l197 -197v-145h-190v84l-93 92h-339l-93 -92v-504l93 -92h339l93 92v84h190v-145l-197 -197h-180l-39 -96h121l103 -103v-163l-107 -107h-317v121h243l35 35v65l-35 37h-206v74l53 137h-185z" />
<glyph unicode="&#xe8;" horiz-adv-x="1163" d="M123 195v628l196 197h535l197 -197v-372h-738v-197l90 -90h367l90 88v70h189v-127l-193 -195h-539zM299 1466h211l154 -329h-174zM313 600h547v166l-92 90h-362l-93 -90v-166z" />
<glyph unicode="&#xe9;" horiz-adv-x="1163" d="M123 195v628l196 197h535l197 -197v-372h-738v-197l90 -90h367l90 88v70h189v-127l-193 -195h-539zM313 600h547v166l-92 90h-362l-93 -90v-166zM504 1137l154 329h211l-191 -329h-174z" />
<glyph unicode="&#xea;" horiz-adv-x="1163" d="M123 195v628l196 197h535l197 -197v-372h-738v-197l90 -90h367l90 88v70h189v-127l-193 -195h-539zM264 1137l238 301h172l238 -301h-185l-133 174h-12l-133 -174h-185zM313 600h547v166l-92 90h-362l-93 -90v-166z" />
<glyph unicode="&#xeb;" horiz-adv-x="1163" d="M123 195v628l196 197h535l197 -197v-372h-738v-197l90 -90h367l90 88v70h189v-127l-193 -195h-539zM262 1219v98l64 63h106l62 -63v-98l-62 -64h-106zM313 600h547v166l-92 90h-362l-93 -90v-166zM682 1219v98l62 63h106l64 -63v-98l-64 -64h-106z" />
<glyph unicode="&#xec;" horiz-adv-x="518" d="M-29 1466h211l154 -329h-174zM164 0v1020h190v-1020h-190z" />
<glyph unicode="&#xed;" horiz-adv-x="518" d="M164 0v1020h190v-1020h-190zM176 1137l154 329h211l-191 -329h-174z" />
<glyph unicode="&#xee;" horiz-adv-x="518" d="M-64 1137l238 301h172l238 -301h-185l-133 174h-12l-133 -174h-185zM164 0v1020h190v-1020h-190z" />
<glyph unicode="&#xef;" horiz-adv-x="518" d="M-66 1219v98l64 63h106l62 -63v-98l-62 -64h-106zM164 0v1020h190v-1020h-190zM354 1219v98l62 63h106l64 -63v-98l-64 -64h-106z" />
<glyph unicode="&#xf0;" horiz-adv-x="1212" d="M123 199v506l199 198h432l151 -133v176l-92 144l-180 -105l-72 125l172 100l-47 74h-262v150h375l88 -136l172 101l71 -125l-165 -96l133 -207v-772l-199 -199h-577zM315 262l93 -92h405l92 92v309l-186 164h-311l-93 -90v-383z" />
<glyph unicode="&#xf1;" horiz-adv-x="1179" d="M143 0v1020h183v-201l200 201h320l201 -201v-819h-191v762l-92 92h-195l-235 -236v-618h-191zM295 1169v109l119 121h141l131 -107h43l33 33v61h143v-110l-119 -119h-141l-131 107h-41l-35 -35v-60h-143z" />
<glyph unicode="&#xf2;" horiz-adv-x="1181" d="M123 197v626l196 197h545l195 -197v-626l-195 -197h-545zM303 1466h211l154 -329h-174zM313 256l93 -90h370l92 90v508l-92 90h-370l-93 -90v-508z" />
<glyph unicode="&#xf3;" horiz-adv-x="1181" d="M123 197v626l196 197h545l195 -197v-626l-195 -197h-545zM313 256l93 -90h370l92 90v508l-92 90h-370l-93 -90v-508zM508 1137l154 329h211l-191 -329h-174z" />
<glyph unicode="&#xf4;" horiz-adv-x="1181" d="M123 197v626l196 197h545l195 -197v-626l-195 -197h-545zM268 1137l238 301h172l238 -301h-185l-133 174h-12l-133 -174h-185zM313 256l93 -90h370l92 90v508l-92 90h-370l-93 -90v-508z" />
<glyph unicode="&#xf5;" horiz-adv-x="1181" d="M123 197v626l196 197h545l195 -197v-626l-195 -197h-545zM287 1169v109l119 121h141l131 -107h43l33 33v61h143v-110l-119 -119h-141l-131 107h-41l-35 -35v-60h-143zM313 256l93 -90h370l92 90v508l-92 90h-370l-93 -90v-508z" />
<glyph unicode="&#xf6;" horiz-adv-x="1181" d="M123 197v626l196 197h545l195 -197v-626l-195 -197h-545zM266 1219v98l64 63h106l62 -63v-98l-62 -64h-106zM313 256l93 -90h370l92 90v508l-92 90h-370l-93 -90v-508zM686 1219v98l62 63h106l64 -63v-98l-64 -64h-106z" />
<glyph unicode="&#xf7;" horiz-adv-x="1122" d="M102 457v168h918v-168h-918zM440 182v97l70 67h102l68 -67v-97l-68 -69h-102zM442 803v96l68 70h102l68 -70v-96l-68 -68h-102z" />
<glyph unicode="&#xf8;" horiz-adv-x="1181" d="M37 -82l160 205l-74 74v626l196 197h545l19 -19l80 101h182l-160 -205l74 -74v-626l-195 -197h-545l-20 20l-82 -102h-180zM313 272l455 582h-362l-93 -90v-492zM412 166h364l92 90v494z" />
<glyph unicode="&#xf9;" horiz-adv-x="1177" d="M133 197v823h191v-764l92 -90h190l238 237v617h190v-1020h-182v203l-203 -203h-319zM307 1466h211l154 -329h-174z" />
<glyph unicode="&#xfa;" horiz-adv-x="1177" d="M133 197v823h191v-764l92 -90h190l238 237v617h190v-1020h-182v203l-203 -203h-319zM502 1137l154 329h211l-191 -329h-174z" />
<glyph unicode="&#xfb;" horiz-adv-x="1177" d="M133 197v823h191v-764l92 -90h190l238 237v617h190v-1020h-182v203l-203 -203h-319zM262 1137l238 301h172l238 -301h-185l-133 174h-12l-133 -174h-185z" />
<glyph unicode="&#xfc;" horiz-adv-x="1177" d="M133 197v823h191v-764l92 -90h190l238 237v617h190v-1020h-182v203l-203 -203h-319zM260 1219v98l64 63h106l62 -63v-98l-62 -64h-106zM680 1219v98l62 63h106l64 -63v-98l-64 -64h-106z" />
<glyph unicode="&#xfd;" horiz-adv-x="1181" d="M133 199v821h191v-762l92 -92h196l236 240v614h190v-1272l-198 -197h-508l-168 168v129h190v-71l62 -60h340l92 90v388l-197 -195h-319zM506 1137l154 329h211l-191 -329h-174z" />
<glyph unicode="&#xfe;" horiz-adv-x="1202" d="M143 -434v1888h189v-598l164 164h389l194 -197v-626l-194 -197h-396l-155 135v-569h-191zM334 334l186 -168h277l92 92v504l-92 92h-262l-201 -203v-317z" />
<glyph unicode="&#xff;" horiz-adv-x="1181" d="M133 199v821h191v-762l92 -92h196l236 240v614h190v-1272l-198 -197h-508l-168 168v129h190v-71l62 -60h340l92 90v388l-197 -195h-319zM264 1219v98l64 63h106l62 -63v-98l-62 -64h-106zM684 1219v98l62 63h106l64 -63v-98l-64 -64h-106z" />
<glyph unicode="&#x152;" horiz-adv-x="2105" d="M133 229v975l229 230h621l129 -129v129h901v-174h-745v-455h686v-172h-686v-459h745v-174h-901v131l-131 -131h-619zM330 299l127 -127h473l141 139v811l-141 140h-473l-127 -127v-836z" />
<glyph unicode="&#x153;" horiz-adv-x="1890" d="M123 197v626l196 197h533l109 -107l106 107h512l199 -199v-370h-719v-197l90 -88h348l90 88v74h191v-129l-199 -199h-512l-106 109l-109 -109h-533zM313 256l93 -90h370l92 90v508l-92 90h-370l-93 -90v-508zM1059 600h528v166l-90 90h-348l-90 -90v-166z" />
<glyph unicode="&#x178;" horiz-adv-x="1241" d="M20 1434h213l385 -660h5l385 660h213l-502 -840v-594h-197v594zM295 1633v98l64 63h106l62 -63v-98l-62 -64h-106zM715 1633v98l62 63h106l64 -63v-98l-64 -64h-106z" />
<glyph unicode="&#x2c6;" horiz-adv-x="860" d="M106 1137l238 301h172l238 -301h-185l-133 174h-12l-133 -174h-185z" />
<glyph unicode="&#x2dc;" horiz-adv-x="800" d="M96 1169v109l119 121h141l131 -107h43l33 33v61h144v-110l-119 -119h-142l-131 107h-41l-34 -35v-60h-144z" />
<glyph unicode="&#x2000;" horiz-adv-x="984" />
<glyph unicode="&#x2001;" horiz-adv-x="1968" />
<glyph unicode="&#x2002;" horiz-adv-x="984" />
<glyph unicode="&#x2003;" horiz-adv-x="1968" />
<glyph unicode="&#x2004;" horiz-adv-x="656" />
<glyph unicode="&#x2005;" horiz-adv-x="492" />
<glyph unicode="&#x2006;" horiz-adv-x="328" />
<glyph unicode="&#x2007;" horiz-adv-x="328" />
<glyph unicode="&#x2008;" horiz-adv-x="246" />
<glyph unicode="&#x2009;" horiz-adv-x="393" />
<glyph unicode="&#x200a;" horiz-adv-x="109" />
<glyph unicode="&#x2010;" horiz-adv-x="843" d="M102 438v168h639v-168h-639z" />
<glyph unicode="&#x2011;" horiz-adv-x="843" d="M102 438v168h639v-168h-639z" />
<glyph unicode="&#x2012;" horiz-adv-x="843" d="M102 438v168h639v-168h-639z" />
<glyph unicode="&#x2013;" horiz-adv-x="1286" d="M102 438v168h1082v-168h-1082z" />
<glyph unicode="&#x2014;" horiz-adv-x="1505" d="M102 438v168h1301v-168h-1301z" />
<glyph unicode="&#x2018;" horiz-adv-x="440" d="M96 1001v173l107 260h110l-69 -260h32l68 -70v-105l-68 -67h-112z" />
<glyph unicode="&#x2019;" horiz-adv-x="440" d="M96 1262v102l70 70h110l70 -70v-172l-108 -260h-109l68 260h-31z" />
<glyph unicode="&#x201a;" horiz-adv-x="440" d="M96 70v102l70 70h110l70 -70v-172l-108 -260h-109l68 260h-31z" />
<glyph unicode="&#x201c;" horiz-adv-x="786" d="M96 1001v173l107 260h110l-69 -260h32l68 -70v-105l-68 -67h-112zM440 1001v173l109 260h108l-67 -260h31l69 -70v-105l-69 -67h-111z" />
<glyph unicode="&#x201d;" horiz-adv-x="786" d="M96 1262v102l70 70h110l70 -70v-172l-108 -260h-109l68 260h-31zM440 1262v102l70 70h110l70 -70v-172l-108 -260h-109l68 260h-31z" />
<glyph unicode="&#x201e;" horiz-adv-x="786" d="M96 70v102l70 70h110l70 -70v-172l-108 -260h-109l68 260h-31zM440 70v102l70 70h110l70 -70v-172l-108 -260h-109l68 260h-31z" />
<glyph unicode="&#x2022;" horiz-adv-x="663" d="M102 496v198l125 129h209l125 -129v-198l-125 -129h-209z" />
<glyph unicode="&#x2026;" horiz-adv-x="1331" d="M98 70v102l70 70h108l70 -70v-102l-70 -70h-108zM542 70v102l70 70h108l70 -70v-102l-70 -70h-108zM985 70v102l70 70h108l70 -70v-102l-70 -70h-108z" />
<glyph unicode="&#x202f;" horiz-adv-x="393" />
<glyph unicode="&#x2039;" horiz-adv-x="626" d="M61 475v152l463 379v-213l-284 -236v-12l284 -236v-213z" />
<glyph unicode="&#x203a;" horiz-adv-x="626" d="M102 96v213l287 236v12l-287 236v213l463 -379v-152z" />
<glyph unicode="&#x205f;" horiz-adv-x="492" />
<glyph unicode="&#x20ac;" horiz-adv-x="1404" d="M51 481v154h178v147h-178v154h178v268l228 230h643l223 -222v-161h-197v92l-120 119h-453l-127 -127v-199h465v-154h-465v-147h465v-154h-465v-182l127 -127h453l120 119v92h197v-162l-223 -221h-643l-228 229v252h-178z" />
<glyph unicode="&#x2122;" horiz-adv-x="1626" d="M102 1282v152h596v-152h-209v-563h-178v563h-209zM782 719v715h172l197 -402h2l201 402h170v-715h-170v407h-4l-156 -295h-84l-154 295h-4v-407h-170z" />
<glyph unicode="&#x25fc;" horiz-adv-x="1024" d="M0 0v1024h1024v-1024h-1024z" />
</font>
</defs>
</svg>
